<?xml version="1.0" encoding="UTF-8" standalone="no"?>
<!DOCTYPE svg PUBLIC "-//W3C//DTD SVG 1.1//EN"
 "http://www.w3.org/Graphics/SVG/1.1/DTD/svg11.dtd">
<!-- Generated by graphviz version 2.43.0 (0)
 -->
<!-- Title: main/AGS10.c Pages: 1 -->
<svg width="1063pt" height="247pt"
 viewBox="0.00 0.00 1063.27 247.00" xmlns="http://www.w3.org/2000/svg" xmlns:xlink="http://www.w3.org/1999/xlink">
<g id="graph0" class="graph" transform="scale(1 1) rotate(0) translate(4 243)">
<title>main/AGS10.c</title>
<!-- Node1 -->
<g id="Node000001" class="node">
<title>Node1</title>
<g id="a_Node000001"><a xlink:title=" ">
<polygon fill="#999999" stroke="#666666" points="410.27,-239 325.27,-239 325.27,-220 410.27,-220 410.27,-239"/>
<text text-anchor="middle" x="367.77" y="-227" font-family="Helvetica,sans-Serif" font-size="10.00">main/AGS10.c</text>
</a>
</g>
</g>
<!-- Node2 -->
<g id="Node000002" class="node">
<title>Node2</title>
<g id="a_Node000002"><a xlink:href="_a_g_s10_8h.html" target="_top" xlink:title=" ">
<polygon fill="white" stroke="#666666" points="78.77,-184 20.77,-184 20.77,-165 78.77,-165 78.77,-184"/>
<text text-anchor="middle" x="49.77" y="-172" font-family="Helvetica,sans-Serif" font-size="10.00">AGS10.h</text>
</a>
</g>
</g>
<!-- Node1&#45;&gt;Node2 -->
<g id="edge1_Node000001_Node000002" class="edge">
<title>Node1&#45;&gt;Node2</title>
<g id="a_edge1_Node000001_Node000002"><a xlink:title=" ">
<path fill="none" stroke="#63b8ff" d="M325.22,-221.41C263.27,-211.08 149.12,-192.06 89.07,-182.05"/>
<polygon fill="#63b8ff" stroke="#63b8ff" points="89.3,-178.54 78.86,-180.35 88.15,-185.44 89.3,-178.54"/>
</a>
</g>
</g>
<!-- Node5 -->
<g id="Node000005" class="node">
<title>Node5</title>
<g id="a_Node000005"><a xlink:href="board__ctrl_8h.html" target="_top" xlink:title=" ">
<polygon fill="white" stroke="#666666" points="404.77,-184 330.77,-184 330.77,-165 404.77,-165 404.77,-184"/>
<text text-anchor="middle" x="367.77" y="-172" font-family="Helvetica,sans-Serif" font-size="10.00">board_ctrl.h</text>
</a>
</g>
</g>
<!-- Node1&#45;&gt;Node5 -->
<g id="edge4_Node000001_Node000005" class="edge">
<title>Node1&#45;&gt;Node5</title>
<g id="a_edge4_Node000001_Node000005"><a xlink:title=" ">
<path fill="none" stroke="#63b8ff" d="M367.77,-219.75C367.77,-212.8 367.77,-202.85 367.77,-194.13"/>
<polygon fill="#63b8ff" stroke="#63b8ff" points="371.27,-194.09 367.77,-184.09 364.27,-194.09 371.27,-194.09"/>
</a>
</g>
</g>
<!-- Node17 -->
<g id="Node000017" class="node">
<title>Node17</title>
<g id="a_Node000017"><a xlink:title=" ">
<polygon fill="#e0e0e0" stroke="#999999" points="486.27,-184 423.27,-184 423.27,-165 486.27,-165 486.27,-184"/>
<text text-anchor="middle" x="454.77" y="-172" font-family="Helvetica,sans-Serif" font-size="10.00">esp_log.h</text>
</a>
</g>
</g>
<!-- Node1&#45;&gt;Node17 -->
<g id="edge20_Node000001_Node000017" class="edge">
<title>Node1&#45;&gt;Node17</title>
<g id="a_edge20_Node000001_Node000017"><a xlink:title=" ">
<path fill="none" stroke="#63b8ff" d="M381.75,-219.98C395.24,-211.77 415.91,-199.18 431.82,-189.49"/>
<polygon fill="#63b8ff" stroke="#63b8ff" points="433.82,-192.36 440.54,-184.17 430.18,-186.38 433.82,-192.36"/>
</a>
</g>
</g>
<!-- Node3 -->
<g id="Node000003" class="node">
<title>Node3</title>
<g id="a_Node000003"><a xlink:title=" ">
<polygon fill="#e0e0e0" stroke="#999999" points="152.27,-74 77.27,-74 77.27,-55 152.27,-55 152.27,-74"/>
<text text-anchor="middle" x="114.77" y="-62" font-family="Helvetica,sans-Serif" font-size="10.00">esp_types.h</text>
</a>
</g>
</g>
<!-- Node2&#45;&gt;Node3 -->
<g id="edge2_Node000002_Node000003" class="edge">
<title>Node2&#45;&gt;Node3</title>
<g id="a_edge2_Node000002_Node000003"><a xlink:title=" ">
<path fill="none" stroke="#63b8ff" d="M35.78,-165C17.74,-152.93 -9.8,-130.07 3.77,-110 18.02,-88.93 44.05,-77.84 67.32,-72"/>
<polygon fill="#63b8ff" stroke="#63b8ff" points="68.1,-75.41 77.09,-69.8 66.56,-68.58 68.1,-75.41"/>
</a>
</g>
</g>
<!-- Node4 -->
<g id="Node000004" class="node">
<title>Node4</title>
<g id="a_Node000004"><a xlink:title=" ">
<polygon fill="#e0e0e0" stroke="#999999" points="86.77,-129 12.77,-129 12.77,-110 86.77,-110 86.77,-129"/>
<text text-anchor="middle" x="49.77" y="-117" font-family="Helvetica,sans-Serif" font-size="10.00">board_def.h</text>
</a>
</g>
</g>
<!-- Node2&#45;&gt;Node4 -->
<g id="edge3_Node000002_Node000004" class="edge">
<title>Node2&#45;&gt;Node4</title>
<g id="a_edge3_Node000002_Node000004"><a xlink:title=" ">
<path fill="none" stroke="#63b8ff" d="M49.77,-164.75C49.77,-157.8 49.77,-147.85 49.77,-139.13"/>
<polygon fill="#63b8ff" stroke="#63b8ff" points="53.27,-139.09 49.77,-129.09 46.27,-139.09 53.27,-139.09"/>
</a>
</g>
</g>
<!-- Node5&#45;&gt;Node3 -->
<g id="edge5_Node000005_Node000003" class="edge">
<title>Node5&#45;&gt;Node3</title>
<g id="a_edge5_Node000005_Node000003"><a xlink:title=" ">
<path fill="none" stroke="#63b8ff" d="M330.31,-171.04C271.73,-166.45 162.18,-154.62 133.77,-129 121.37,-117.81 116.92,-98.89 115.4,-84.6"/>
<polygon fill="#63b8ff" stroke="#63b8ff" points="118.87,-84.12 114.71,-74.38 111.89,-84.59 118.87,-84.12"/>
</a>
</g>
</g>
<!-- Node5&#45;&gt;Node4 -->
<g id="edge7_Node000005_Node000004" class="edge">
<title>Node5&#45;&gt;Node4</title>
<g id="a_edge7_Node000005_Node000004"><a xlink:title=" ">
<path fill="none" stroke="#63b8ff" d="M330.67,-167.32C272.78,-157.67 161.02,-139.04 97.31,-128.42"/>
<polygon fill="#63b8ff" stroke="#63b8ff" points="97.57,-124.92 87.13,-126.73 96.42,-131.82 97.57,-124.92"/>
</a>
</g>
</g>
<!-- Node6 -->
<g id="Node000006" class="node">
<title>Node6</title>
<g id="a_Node000006"><a xlink:title=" ">
<polygon fill="#e0e0e0" stroke="#999999" points="261.27,-19 208.27,-19 208.27,0 261.27,0 261.27,-19"/>
<text text-anchor="middle" x="234.77" y="-7" font-family="Helvetica,sans-Serif" font-size="10.00">string.h</text>
</a>
</g>
</g>
<!-- Node5&#45;&gt;Node6 -->
<g id="edge6_Node000005_Node000006" class="edge">
<title>Node5&#45;&gt;Node6</title>
<g id="a_edge6_Node000005_Node000006"><a xlink:title=" ">
<path fill="none" stroke="#63b8ff" d="M330.62,-169.13C304.48,-164.01 270.88,-152.94 251.77,-129 228.84,-100.26 229.49,-54.65 232.07,-29.22"/>
<polygon fill="#63b8ff" stroke="#63b8ff" points="235.57,-29.43 233.32,-19.08 228.62,-28.58 235.57,-29.43"/>
</a>
</g>
</g>
<!-- Node7 -->
<g id="Node000007" class="node">
<title>Node7</title>
<g id="a_Node000007"><a xlink:title=" ">
<polygon fill="#e0e0e0" stroke="#999999" points="458.27,-129 385.27,-129 385.27,-110 458.27,-110 458.27,-129"/>
<text text-anchor="middle" x="421.77" y="-117" font-family="Helvetica,sans-Serif" font-size="10.00">audio_hal.h</text>
</a>
</g>
</g>
<!-- Node5&#45;&gt;Node7 -->
<g id="edge8_Node000005_Node000007" class="edge">
<title>Node5&#45;&gt;Node7</title>
<g id="a_edge8_Node000005_Node000007"><a xlink:title=" ">
<path fill="none" stroke="#63b8ff" d="M376.69,-164.75C384.55,-157.03 396.2,-145.6 405.69,-136.28"/>
<polygon fill="#63b8ff" stroke="#63b8ff" points="408.34,-138.59 413.02,-129.09 403.43,-133.6 408.34,-138.59"/>
</a>
</g>
</g>
<!-- Node8 -->
<g id="Node000008" class="node">
<title>Node8</title>
<g id="a_Node000008"><a xlink:title=" ">
<polygon fill="#e0e0e0" stroke="#999999" points="579.27,-129 476.27,-129 476.27,-110 579.27,-110 579.27,-129"/>
<text text-anchor="middle" x="527.77" y="-117" font-family="Helvetica,sans-Serif" font-size="10.00">esxxx_common.h</text>
</a>
</g>
</g>
<!-- Node5&#45;&gt;Node8 -->
<g id="edge9_Node000005_Node000008" class="edge">
<title>Node5&#45;&gt;Node8</title>
<g id="a_edge9_Node000005_Node000008"><a xlink:title=" ">
<path fill="none" stroke="#63b8ff" d="M393.48,-164.98C420.23,-156.13 462.3,-142.19 492.22,-132.28"/>
<polygon fill="#63b8ff" stroke="#63b8ff" points="493.47,-135.55 501.87,-129.08 491.27,-128.9 493.47,-135.55"/>
</a>
</g>
</g>
<!-- Node9 -->
<g id="Node000009" class="node">
<title>Node9</title>
<g id="a_Node000009"><a xlink:href="sevetest30__gpio_8h.html" target="_top" xlink:title=" ">
<polygon fill="white" stroke="#666666" points="366.77,-129 260.77,-129 260.77,-110 366.77,-110 366.77,-129"/>
<text text-anchor="middle" x="313.77" y="-117" font-family="Helvetica,sans-Serif" font-size="10.00">sevetest30_gpio.h</text>
</a>
</g>
</g>
<!-- Node5&#45;&gt;Node9 -->
<g id="edge10_Node000005_Node000009" class="edge">
<title>Node5&#45;&gt;Node9</title>
<g id="a_edge10_Node000005_Node000009"><a xlink:title=" ">
<path fill="none" stroke="#63b8ff" d="M358.86,-164.75C350.99,-157.03 339.34,-145.6 329.85,-136.28"/>
<polygon fill="#63b8ff" stroke="#63b8ff" points="332.11,-133.6 322.52,-129.09 327.21,-138.59 332.11,-133.6"/>
</a>
</g>
</g>
<!-- Node12 -->
<g id="Node000012" class="node">
<title>Node12</title>
<g id="a_Node000012"><a xlink:title=" ">
<polygon fill="#e0e0e0" stroke="#999999" points="668.27,-129 597.27,-129 597.27,-110 668.27,-110 668.27,-129"/>
<text text-anchor="middle" x="632.77" y="-117" font-family="Helvetica,sans-Serif" font-size="10.00">driver/i2c.h</text>
</a>
</g>
</g>
<!-- Node5&#45;&gt;Node12 -->
<g id="edge14_Node000005_Node000012" class="edge">
<title>Node5&#45;&gt;Node12</title>
<g id="a_edge14_Node000005_Node000012"><a xlink:title=" ">
<path fill="none" stroke="#63b8ff" d="M404.9,-166.07C452.71,-156.51 535.76,-139.9 587.3,-129.59"/>
<polygon fill="#63b8ff" stroke="#63b8ff" points="588.05,-133.01 597.17,-127.62 586.68,-126.15 588.05,-133.01"/>
</a>
</g>
</g>
<!-- Node13 -->
<g id="Node000013" class="node">
<title>Node13</title>
<g id="a_Node000013"><a xlink:title=" ">
<polygon fill="#e0e0e0" stroke="#999999" points="805.27,-129 686.27,-129 686.27,-110 805.27,-110 805.27,-129"/>
<text text-anchor="middle" x="745.77" y="-117" font-family="Helvetica,sans-Serif" font-size="10.00">driver/spi_common.h</text>
</a>
</g>
</g>
<!-- Node5&#45;&gt;Node13 -->
<g id="edge15_Node000005_Node000013" class="edge">
<title>Node5&#45;&gt;Node13</title>
<g id="a_edge15_Node000005_Node000013"><a xlink:title=" ">
<path fill="none" stroke="#63b8ff" d="M404.95,-166.62C408.27,-166.05 411.58,-165.5 414.77,-165 463.64,-157.3 594.42,-140.1 676.2,-129.48"/>
<polygon fill="#63b8ff" stroke="#63b8ff" points="676.7,-132.94 686.17,-128.18 675.8,-126 676.7,-132.94"/>
</a>
</g>
</g>
<!-- Node14 -->
<g id="Node000014" class="node">
<title>Node14</title>
<g id="a_Node000014"><a xlink:title=" ">
<polygon fill="#e0e0e0" stroke="#999999" points="933.77,-129 823.77,-129 823.77,-110 933.77,-110 933.77,-129"/>
<text text-anchor="middle" x="878.77" y="-117" font-family="Helvetica,sans-Serif" font-size="10.00">driver/spi_master.h</text>
</a>
</g>
</g>
<!-- Node5&#45;&gt;Node14 -->
<g id="edge16_Node000005_Node000014" class="edge">
<title>Node5&#45;&gt;Node14</title>
<g id="a_edge16_Node000005_Node000014"><a xlink:title=" ">
<path fill="none" stroke="#63b8ff" d="M404.93,-166.47C408.25,-165.93 411.57,-165.43 414.77,-165 588.47,-141.53 635.68,-148.49 813.67,-129.07"/>
<polygon fill="#63b8ff" stroke="#63b8ff" points="814.08,-132.55 823.63,-127.97 813.31,-125.59 814.08,-132.55"/>
</a>
</g>
</g>
<!-- Node15 -->
<g id="Node000015" class="node">
<title>Node15</title>
<g id="a_Node000015"><a xlink:title=" ">
<polygon fill="#e0e0e0" stroke="#999999" points="1055.27,-129 952.27,-129 952.27,-110 1055.27,-110 1055.27,-129"/>
<text text-anchor="middle" x="1003.77" y="-117" font-family="Helvetica,sans-Serif" font-size="10.00">esp_peripherals.h</text>
</a>
</g>
</g>
<!-- Node5&#45;&gt;Node15 -->
<g id="edge17_Node000005_Node000015" class="edge">
<title>Node5&#45;&gt;Node15</title>
<g id="a_edge17_Node000005_Node000015"><a xlink:title=" ">
<path fill="none" stroke="#63b8ff" d="M404.92,-166.39C408.24,-165.87 411.56,-165.4 414.77,-165 644.89,-136.44 707.06,-152.77 941.99,-128.99"/>
<polygon fill="#63b8ff" stroke="#63b8ff" points="942.63,-132.45 952.22,-127.94 941.92,-125.48 942.63,-132.45"/>
</a>
</g>
</g>
<!-- Node16 -->
<g id="Node000016" class="node">
<title>Node16</title>
<g id="a_Node000016"><a xlink:href="_b_l5372_8h.html" target="_top" xlink:title=" ">
<polygon fill="white" stroke="#666666" points="204.77,-129 142.77,-129 142.77,-110 204.77,-110 204.77,-129"/>
<text text-anchor="middle" x="173.77" y="-117" font-family="Helvetica,sans-Serif" font-size="10.00">BL5372.h</text>
</a>
</g>
</g>
<!-- Node5&#45;&gt;Node16 -->
<g id="edge18_Node000005_Node000016" class="edge">
<title>Node5&#45;&gt;Node16</title>
<g id="a_edge18_Node000005_Node000016"><a xlink:title=" ">
<path fill="none" stroke="#63b8ff" d="M336.6,-164.98C303.51,-155.94 251.07,-141.62 214.68,-131.67"/>
<polygon fill="#63b8ff" stroke="#63b8ff" points="215.43,-128.25 204.87,-128.99 213.59,-135.01 215.43,-128.25"/>
</a>
</g>
</g>
<!-- Node10 -->
<g id="Node000010" class="node">
<title>Node10</title>
<g id="a_Node000010"><a xlink:href="_t_c_a6416_a_8h.html" target="_top" xlink:title=" ">
<polygon fill="white" stroke="#666666" points="349.27,-74 274.27,-74 274.27,-55 349.27,-55 349.27,-74"/>
<text text-anchor="middle" x="311.77" y="-62" font-family="Helvetica,sans-Serif" font-size="10.00">TCA6416A.h</text>
</a>
</g>
</g>
<!-- Node9&#45;&gt;Node10 -->
<g id="edge11_Node000009_Node000010" class="edge">
<title>Node9&#45;&gt;Node10</title>
<g id="a_edge11_Node000009_Node000010"><a xlink:title=" ">
<path fill="none" stroke="#63b8ff" d="M313.44,-109.75C313.18,-102.8 312.81,-92.85 312.48,-84.13"/>
<polygon fill="#63b8ff" stroke="#63b8ff" points="315.97,-83.95 312.1,-74.09 308.98,-84.21 315.97,-83.95"/>
</a>
</g>
</g>
<!-- Node10&#45;&gt;Node6 -->
<g id="edge12_Node000010_Node000006" class="edge">
<title>Node10&#45;&gt;Node6</title>
<g id="a_edge12_Node000010_Node000006"><a xlink:title=" ">
<path fill="none" stroke="#63b8ff" d="M299.4,-54.98C287.68,-46.92 269.85,-34.65 255.89,-25.03"/>
<polygon fill="#63b8ff" stroke="#63b8ff" points="257.59,-21.96 247.37,-19.17 253.62,-27.72 257.59,-21.96"/>
</a>
</g>
</g>
<!-- Node11 -->
<g id="Node000011" class="node">
<title>Node11</title>
<g id="a_Node000011"><a xlink:title=" ">
<polygon fill="#e0e0e0" stroke="#999999" points="342.77,-19 280.77,-19 280.77,0 342.77,0 342.77,-19"/>
<text text-anchor="middle" x="311.77" y="-7" font-family="Helvetica,sans-Serif" font-size="10.00">stdbool.h</text>
</a>
</g>
</g>
<!-- Node10&#45;&gt;Node11 -->
<g id="edge13_Node000010_Node000011" class="edge">
<title>Node10&#45;&gt;Node11</title>
<g id="a_edge13_Node000010_Node000011"><a xlink:title=" ">
<path fill="none" stroke="#63b8ff" d="M311.77,-54.75C311.77,-47.8 311.77,-37.85 311.77,-29.13"/>
<polygon fill="#63b8ff" stroke="#63b8ff" points="315.27,-29.09 311.77,-19.09 308.27,-29.09 315.27,-29.09"/>
</a>
</g>
</g>
<!-- Node16&#45;&gt;Node3 -->
<g id="edge19_Node000016_Node000003" class="edge">
<title>Node16&#45;&gt;Node3</title>
<g id="a_edge19_Node000016_Node000003"><a xlink:title=" ">
<path fill="none" stroke="#63b8ff" d="M164.29,-109.98C155.57,-102.15 142.43,-90.34 131.88,-80.86"/>
<polygon fill="#63b8ff" stroke="#63b8ff" points="134.2,-78.25 124.43,-74.17 129.53,-83.46 134.2,-78.25"/>
</a>
</g>
</g>
</g>
</svg>
