<?xml version="1.0" encoding="UTF-8" standalone="no"?>
<!DOCTYPE svg PUBLIC "-//W3C//DTD SVG 1.1//EN"
 "http://www.w3.org/Graphics/SVG/1.1/DTD/svg11.dtd">
<!-- Generated by graphviz version 2.43.0 (0)
 -->
<!-- Title: main/AHT21.c Pages: 1 -->
<svg width="409pt" height="137pt"
 viewBox="0.00 0.00 409.00 137.00" xmlns="http://www.w3.org/2000/svg" xmlns:xlink="http://www.w3.org/1999/xlink">
<g id="graph0" class="graph" transform="scale(1 1) rotate(0) translate(4 133)">
<title>main/AHT21.c</title>
<!-- Node1 -->
<g id="Node000001" class="node">
<title>Node1</title>
<g id="a_Node000001"><a xlink:title=" ">
<polygon fill="#999999" stroke="#666666" points="246,-129 161,-129 161,-110 246,-110 246,-129"/>
<text text-anchor="middle" x="203.5" y="-117" font-family="Helvetica,sans-Serif" font-size="10.00">main/AHT21.c</text>
</a>
</g>
</g>
<!-- Node2 -->
<g id="Node000002" class="node">
<title>Node2</title>
<g id="a_Node000002"><a xlink:href="_a_h_t21_8h.html" target="_top" xlink:title=" ">
<polygon fill="white" stroke="#666666" points="66.5,-74 8.5,-74 8.5,-55 66.5,-55 66.5,-74"/>
<text text-anchor="middle" x="37.5" y="-62" font-family="Helvetica,sans-Serif" font-size="10.00">AHT21.h</text>
</a>
</g>
</g>
<!-- Node1&#45;&gt;Node2 -->
<g id="edge1_Node000001_Node000002" class="edge">
<title>Node1&#45;&gt;Node2</title>
<g id="a_edge1_Node000001_Node000002"><a xlink:title=" ">
<path fill="none" stroke="#63b8ff" d="M176.83,-109.98C148.96,-101.09 105.05,-87.07 73.98,-77.15"/>
<polygon fill="#63b8ff" stroke="#63b8ff" points="74.97,-73.79 64.38,-74.08 72.84,-80.46 74.97,-73.79"/>
</a>
</g>
</g>
<!-- Node4 -->
<g id="Node000004" class="node">
<title>Node4</title>
<g id="a_Node000004"><a xlink:title=" ">
<polygon fill="#e0e0e0" stroke="#999999" points="148,-74 85,-74 85,-55 148,-55 148,-74"/>
<text text-anchor="middle" x="116.5" y="-62" font-family="Helvetica,sans-Serif" font-size="10.00">esp_log.h</text>
</a>
</g>
</g>
<!-- Node1&#45;&gt;Node4 -->
<g id="edge3_Node000001_Node000004" class="edge">
<title>Node1&#45;&gt;Node4</title>
<g id="a_edge3_Node000001_Node000004"><a xlink:title=" ">
<path fill="none" stroke="#63b8ff" d="M189.52,-109.98C176.03,-101.77 155.37,-89.18 139.46,-79.49"/>
<polygon fill="#63b8ff" stroke="#63b8ff" points="141.09,-76.38 130.73,-74.17 137.45,-82.36 141.09,-76.38"/>
</a>
</g>
</g>
<!-- Node5 -->
<g id="Node000005" class="node">
<title>Node5</title>
<g id="a_Node000005"><a xlink:title=" ">
<polygon fill="#e0e0e0" stroke="#999999" points="240.5,-74 166.5,-74 166.5,-55 240.5,-55 240.5,-74"/>
<text text-anchor="middle" x="203.5" y="-62" font-family="Helvetica,sans-Serif" font-size="10.00">board_def.h</text>
</a>
</g>
</g>
<!-- Node1&#45;&gt;Node5 -->
<g id="edge4_Node000001_Node000005" class="edge">
<title>Node1&#45;&gt;Node5</title>
<g id="a_edge4_Node000001_Node000005"><a xlink:title=" ">
<path fill="none" stroke="#63b8ff" d="M203.5,-109.75C203.5,-102.8 203.5,-92.85 203.5,-84.13"/>
<polygon fill="#63b8ff" stroke="#63b8ff" points="207,-84.09 203.5,-74.09 200,-84.09 207,-84.09"/>
</a>
</g>
</g>
<!-- Node6 -->
<g id="Node000006" class="node">
<title>Node6</title>
<g id="a_Node000006"><a xlink:title=" ">
<polygon fill="#e0e0e0" stroke="#999999" points="330,-74 259,-74 259,-55 330,-55 330,-74"/>
<text text-anchor="middle" x="294.5" y="-62" font-family="Helvetica,sans-Serif" font-size="10.00">driver/i2c.h</text>
</a>
</g>
</g>
<!-- Node1&#45;&gt;Node6 -->
<g id="edge5_Node000001_Node000006" class="edge">
<title>Node1&#45;&gt;Node6</title>
<g id="a_edge5_Node000001_Node000006"><a xlink:title=" ">
<path fill="none" stroke="#63b8ff" d="M218.12,-109.98C232.36,-101.69 254.25,-88.94 270.95,-79.22"/>
<polygon fill="#63b8ff" stroke="#63b8ff" points="272.73,-82.23 279.61,-74.17 269.21,-76.18 272.73,-82.23"/>
</a>
</g>
</g>
<!-- Node7 -->
<g id="Node000007" class="node">
<title>Node7</title>
<g id="a_Node000007"><a xlink:title=" ">
<polygon fill="#e0e0e0" stroke="#999999" points="401,-74 348,-74 348,-55 401,-55 401,-74"/>
<text text-anchor="middle" x="374.5" y="-62" font-family="Helvetica,sans-Serif" font-size="10.00">string.h</text>
</a>
</g>
</g>
<!-- Node1&#45;&gt;Node7 -->
<g id="edge6_Node000001_Node000007" class="edge">
<title>Node1&#45;&gt;Node7</title>
<g id="a_edge6_Node000001_Node000007"><a xlink:title=" ">
<path fill="none" stroke="#63b8ff" d="M230.97,-109.98C260.02,-100.98 305.99,-86.73 338.06,-76.8"/>
<polygon fill="#63b8ff" stroke="#63b8ff" points="339.42,-80.04 347.94,-73.73 337.35,-73.35 339.42,-80.04"/>
</a>
</g>
</g>
<!-- Node3 -->
<g id="Node000003" class="node">
<title>Node3</title>
<g id="a_Node000003"><a xlink:title=" ">
<polygon fill="#e0e0e0" stroke="#999999" points="75,-19 0,-19 0,0 75,0 75,-19"/>
<text text-anchor="middle" x="37.5" y="-7" font-family="Helvetica,sans-Serif" font-size="10.00">esp_types.h</text>
</a>
</g>
</g>
<!-- Node2&#45;&gt;Node3 -->
<g id="edge2_Node000002_Node000003" class="edge">
<title>Node2&#45;&gt;Node3</title>
<g id="a_edge2_Node000002_Node000003"><a xlink:title=" ">
<path fill="none" stroke="#63b8ff" d="M37.5,-54.75C37.5,-47.8 37.5,-37.85 37.5,-29.13"/>
<polygon fill="#63b8ff" stroke="#63b8ff" points="41,-29.09 37.5,-19.09 34,-29.09 41,-29.09"/>
</a>
</g>
</g>
</g>
</svg>
