<?xml version="1.0" encoding="UTF-8" standalone="no"?>
<!DOCTYPE svg PUBLIC "-//W3C//DTD SVG 1.1//EN"
 "http://www.w3.org/Graphics/SVG/1.1/DTD/svg11.dtd">
<!-- Generated by graphviz version 2.43.0 (0)
 -->
<!-- Title: components/sevetest30_board/board_ctrl.h Pages: 1 -->
<svg width="1042pt" height="203pt"
 viewBox="0.00 0.00 1041.69 203.00" xmlns="http://www.w3.org/2000/svg" xmlns:xlink="http://www.w3.org/1999/xlink">
<g id="graph0" class="graph" transform="scale(1 1) rotate(0) translate(4 199)">
<title>components/sevetest30_board/board_ctrl.h</title>
<!-- Node1 -->
<g id="Node000001" class="node">
<title>Node1</title>
<g id="a_Node000001"><a xlink:title=" ">
<polygon fill="#999999" stroke="#666666" points="579.5,-195 445.5,-195 445.5,-165 579.5,-165 579.5,-195"/>
<text text-anchor="start" x="453.5" y="-183" font-family="Helvetica,sans-Serif" font-size="10.00">components/sevetest30</text>
<text text-anchor="middle" x="512.5" y="-172" font-family="Helvetica,sans-Serif" font-size="10.00">_board/board_ctrl.h</text>
</a>
</g>
</g>
<!-- Node2 -->
<g id="Node000002" class="node">
<title>Node2</title>
<g id="a_Node000002"><a xlink:title=" ">
<polygon fill="#e0e0e0" stroke="#999999" points="818,-74 743,-74 743,-55 818,-55 818,-74"/>
<text text-anchor="middle" x="780.5" y="-62" font-family="Helvetica,sans-Serif" font-size="10.00">esp_types.h</text>
</a>
</g>
</g>
<!-- Node1&#45;&gt;Node2 -->
<g id="edge1_Node000001_Node000002" class="edge">
<title>Node1&#45;&gt;Node2</title>
<g id="a_edge1_Node000001_Node000002"><a xlink:title=" ">
<path fill="none" stroke="#63b8ff" d="M579.75,-177.43C712.89,-173.63 999.82,-161.69 1029.5,-129 1035.18,-122.75 1034.92,-116.48 1029.5,-110 1004.35,-79.95 893.27,-70.17 828.28,-67.01"/>
<polygon fill="#63b8ff" stroke="#63b8ff" points="828.41,-63.51 818.26,-66.55 828.1,-70.5 828.41,-63.51"/>
</a>
</g>
</g>
<!-- Node3 -->
<g id="Node000003" class="node">
<title>Node3</title>
<g id="a_Node000003"><a xlink:title=" ">
<polygon fill="#e0e0e0" stroke="#999999" points="53,-19 0,-19 0,0 53,0 53,-19"/>
<text text-anchor="middle" x="26.5" y="-7" font-family="Helvetica,sans-Serif" font-size="10.00">string.h</text>
</a>
</g>
</g>
<!-- Node1&#45;&gt;Node3 -->
<g id="edge2_Node000001_Node000003" class="edge">
<title>Node1&#45;&gt;Node3</title>
<g id="a_edge2_Node000001_Node000003"><a xlink:title=" ">
<path fill="none" stroke="#63b8ff" d="M445.48,-176.35C322.76,-170.84 71.87,-156.36 43.5,-129 16.78,-103.24 19.07,-55.76 22.89,-29.39"/>
<polygon fill="#63b8ff" stroke="#63b8ff" points="26.4,-29.66 24.6,-19.21 19.49,-28.5 26.4,-29.66"/>
</a>
</g>
</g>
<!-- Node4 -->
<g id="Node000004" class="node">
<title>Node4</title>
<g id="a_Node000004"><a xlink:title=" ">
<polygon fill="#e0e0e0" stroke="#999999" points="250.5,-129 176.5,-129 176.5,-110 250.5,-110 250.5,-129"/>
<text text-anchor="middle" x="213.5" y="-117" font-family="Helvetica,sans-Serif" font-size="10.00">board_def.h</text>
</a>
</g>
</g>
<!-- Node1&#45;&gt;Node4 -->
<g id="edge3_Node000001_Node000004" class="edge">
<title>Node1&#45;&gt;Node4</title>
<g id="a_edge3_Node000001_Node000004"><a xlink:title=" ">
<path fill="none" stroke="#63b8ff" d="M445.4,-165.87C389.18,-154.87 310.36,-139.45 260.62,-129.72"/>
<polygon fill="#63b8ff" stroke="#63b8ff" points="261.26,-126.28 250.77,-127.79 259.92,-133.15 261.26,-126.28"/>
</a>
</g>
</g>
<!-- Node5 -->
<g id="Node000005" class="node">
<title>Node5</title>
<g id="a_Node000005"><a xlink:title=" ">
<polygon fill="#e0e0e0" stroke="#999999" points="342,-129 269,-129 269,-110 342,-110 342,-129"/>
<text text-anchor="middle" x="305.5" y="-117" font-family="Helvetica,sans-Serif" font-size="10.00">audio_hal.h</text>
</a>
</g>
</g>
<!-- Node1&#45;&gt;Node5 -->
<g id="edge4_Node000001_Node000005" class="edge">
<title>Node1&#45;&gt;Node5</title>
<g id="a_edge4_Node000001_Node000005"><a xlink:title=" ">
<path fill="none" stroke="#63b8ff" d="M462.92,-164.99C427.04,-154.85 379.17,-141.32 345.67,-131.85"/>
<polygon fill="#63b8ff" stroke="#63b8ff" points="346.34,-128.41 335.77,-129.05 344.44,-135.14 346.34,-128.41"/>
</a>
</g>
</g>
<!-- Node6 -->
<g id="Node000006" class="node">
<title>Node6</title>
<g id="a_Node000006"><a xlink:title=" ">
<polygon fill="#e0e0e0" stroke="#999999" points="463,-129 360,-129 360,-110 463,-110 463,-129"/>
<text text-anchor="middle" x="411.5" y="-117" font-family="Helvetica,sans-Serif" font-size="10.00">esxxx_common.h</text>
</a>
</g>
</g>
<!-- Node1&#45;&gt;Node6 -->
<g id="edge5_Node000001_Node000006" class="edge">
<title>Node1&#45;&gt;Node6</title>
<g id="a_edge5_Node000001_Node000006"><a xlink:title=" ">
<path fill="none" stroke="#63b8ff" d="M488.31,-164.99C472.21,-155.66 451.16,-143.47 435.17,-134.21"/>
<polygon fill="#63b8ff" stroke="#63b8ff" points="436.82,-131.12 426.42,-129.14 433.31,-137.18 436.82,-131.12"/>
</a>
</g>
</g>
<!-- Node7 -->
<g id="Node000007" class="node">
<title>Node7</title>
<g id="a_Node000007"><a xlink:href="sevetest30__gpio_8h.html" target="_top" xlink:title=" ">
<polygon fill="white" stroke="#666666" points="158.5,-129 52.5,-129 52.5,-110 158.5,-110 158.5,-129"/>
<text text-anchor="middle" x="105.5" y="-117" font-family="Helvetica,sans-Serif" font-size="10.00">sevetest30_gpio.h</text>
</a>
</g>
</g>
<!-- Node1&#45;&gt;Node7 -->
<g id="edge6_Node000001_Node000007" class="edge">
<title>Node1&#45;&gt;Node7</title>
<g id="a_edge6_Node000001_Node000007"><a xlink:title=" ">
<path fill="none" stroke="#63b8ff" d="M445.29,-169.34C368.53,-158.31 243.87,-140.39 168.78,-129.6"/>
<polygon fill="#63b8ff" stroke="#63b8ff" points="168.92,-126.08 158.53,-128.12 167.93,-133.01 168.92,-126.08"/>
</a>
</g>
</g>
<!-- Node10 -->
<g id="Node000010" class="node">
<title>Node10</title>
<g id="a_Node000010"><a xlink:title=" ">
<polygon fill="#e0e0e0" stroke="#999999" points="633,-129 562,-129 562,-110 633,-110 633,-129"/>
<text text-anchor="middle" x="597.5" y="-117" font-family="Helvetica,sans-Serif" font-size="10.00">driver/i2c.h</text>
</a>
</g>
</g>
<!-- Node1&#45;&gt;Node10 -->
<g id="edge10_Node000001_Node000010" class="edge">
<title>Node1&#45;&gt;Node10</title>
<g id="a_edge10_Node000001_Node000010"><a xlink:title=" ">
<path fill="none" stroke="#63b8ff" d="M533.08,-164.84C546.17,-155.83 563.09,-144.18 576.3,-135.09"/>
<polygon fill="#63b8ff" stroke="#63b8ff" points="578.51,-137.82 584.76,-129.27 574.54,-132.05 578.51,-137.82"/>
</a>
</g>
</g>
<!-- Node11 -->
<g id="Node000011" class="node">
<title>Node11</title>
<g id="a_Node000011"><a xlink:title=" ">
<polygon fill="#e0e0e0" stroke="#999999" points="770,-129 651,-129 651,-110 770,-110 770,-129"/>
<text text-anchor="middle" x="710.5" y="-117" font-family="Helvetica,sans-Serif" font-size="10.00">driver/spi_common.h</text>
</a>
</g>
</g>
<!-- Node1&#45;&gt;Node11 -->
<g id="edge11_Node000001_Node000011" class="edge">
<title>Node1&#45;&gt;Node11</title>
<g id="a_edge11_Node000001_Node000011"><a xlink:title=" ">
<path fill="none" stroke="#63b8ff" d="M559.93,-164.99C594.1,-154.89 639.64,-141.44 671.66,-131.98"/>
<polygon fill="#63b8ff" stroke="#63b8ff" points="672.95,-135.24 681.55,-129.05 670.97,-128.53 672.95,-135.24"/>
</a>
</g>
</g>
<!-- Node12 -->
<g id="Node000012" class="node">
<title>Node12</title>
<g id="a_Node000012"><a xlink:title=" ">
<polygon fill="#e0e0e0" stroke="#999999" points="898.5,-129 788.5,-129 788.5,-110 898.5,-110 898.5,-129"/>
<text text-anchor="middle" x="843.5" y="-117" font-family="Helvetica,sans-Serif" font-size="10.00">driver/spi_master.h</text>
</a>
</g>
</g>
<!-- Node1&#45;&gt;Node12 -->
<g id="edge12_Node000001_Node000012" class="edge">
<title>Node1&#45;&gt;Node12</title>
<g id="a_edge12_Node000001_Node000012"><a xlink:title=" ">
<path fill="none" stroke="#63b8ff" d="M579.88,-167.09C640.24,-156.42 727.85,-140.94 785.25,-130.8"/>
<polygon fill="#63b8ff" stroke="#63b8ff" points="786.01,-134.22 795.24,-129.03 784.79,-127.32 786.01,-134.22"/>
</a>
</g>
</g>
<!-- Node13 -->
<g id="Node000013" class="node">
<title>Node13</title>
<g id="a_Node000013"><a xlink:title=" ">
<polygon fill="#e0e0e0" stroke="#999999" points="1020,-129 917,-129 917,-110 1020,-110 1020,-129"/>
<text text-anchor="middle" x="968.5" y="-117" font-family="Helvetica,sans-Serif" font-size="10.00">esp_peripherals.h</text>
</a>
</g>
</g>
<!-- Node1&#45;&gt;Node13 -->
<g id="edge13_Node000001_Node000013" class="edge">
<title>Node1&#45;&gt;Node13</title>
<g id="a_edge13_Node000001_Node000013"><a xlink:title=" ">
<path fill="none" stroke="#63b8ff" d="M579.63,-170.76C656.1,-161.32 785.09,-145.22 906.69,-129.09"/>
<polygon fill="#63b8ff" stroke="#63b8ff" points="907.47,-132.52 916.92,-127.73 906.55,-125.58 907.47,-132.52"/>
</a>
</g>
</g>
<!-- Node14 -->
<g id="Node000014" class="node">
<title>Node14</title>
<g id="a_Node000014"><a xlink:href="_b_l5372_8h.html" target="_top" xlink:title=" ">
<polygon fill="white" stroke="#666666" points="543.5,-129 481.5,-129 481.5,-110 543.5,-110 543.5,-129"/>
<text text-anchor="middle" x="512.5" y="-117" font-family="Helvetica,sans-Serif" font-size="10.00">BL5372.h</text>
</a>
</g>
</g>
<!-- Node1&#45;&gt;Node14 -->
<g id="edge14_Node000001_Node000014" class="edge">
<title>Node1&#45;&gt;Node14</title>
<g id="a_edge14_Node000001_Node000014"><a xlink:title=" ">
<path fill="none" stroke="#63b8ff" d="M512.5,-164.84C512.5,-157.21 512.5,-147.7 512.5,-139.45"/>
<polygon fill="#63b8ff" stroke="#63b8ff" points="516,-139.27 512.5,-129.27 509,-139.27 516,-139.27"/>
</a>
</g>
</g>
<!-- Node8 -->
<g id="Node000008" class="node">
<title>Node8</title>
<g id="a_Node000008"><a xlink:href="_t_c_a6416_a_8h.html" target="_top" xlink:title=" ">
<polygon fill="white" stroke="#666666" points="141,-74 66,-74 66,-55 141,-55 141,-74"/>
<text text-anchor="middle" x="103.5" y="-62" font-family="Helvetica,sans-Serif" font-size="10.00">TCA6416A.h</text>
</a>
</g>
</g>
<!-- Node7&#45;&gt;Node8 -->
<g id="edge7_Node000007_Node000008" class="edge">
<title>Node7&#45;&gt;Node8</title>
<g id="a_edge7_Node000007_Node000008"><a xlink:title=" ">
<path fill="none" stroke="#63b8ff" d="M105.17,-109.75C104.91,-102.8 104.53,-92.85 104.2,-84.13"/>
<polygon fill="#63b8ff" stroke="#63b8ff" points="107.7,-83.95 103.82,-74.09 100.7,-84.21 107.7,-83.95"/>
</a>
</g>
</g>
<!-- Node8&#45;&gt;Node3 -->
<g id="edge8_Node000008_Node000003" class="edge">
<title>Node8&#45;&gt;Node3</title>
<g id="a_edge8_Node000008_Node000003"><a xlink:title=" ">
<path fill="none" stroke="#63b8ff" d="M91.13,-54.98C79.41,-46.92 61.58,-34.65 47.61,-25.03"/>
<polygon fill="#63b8ff" stroke="#63b8ff" points="49.32,-21.96 39.1,-19.17 45.35,-27.72 49.32,-21.96"/>
</a>
</g>
</g>
<!-- Node9 -->
<g id="Node000009" class="node">
<title>Node9</title>
<g id="a_Node000009"><a xlink:title=" ">
<polygon fill="#e0e0e0" stroke="#999999" points="134.5,-19 72.5,-19 72.5,0 134.5,0 134.5,-19"/>
<text text-anchor="middle" x="103.5" y="-7" font-family="Helvetica,sans-Serif" font-size="10.00">stdbool.h</text>
</a>
</g>
</g>
<!-- Node8&#45;&gt;Node9 -->
<g id="edge9_Node000008_Node000009" class="edge">
<title>Node8&#45;&gt;Node9</title>
<g id="a_edge9_Node000008_Node000009"><a xlink:title=" ">
<path fill="none" stroke="#63b8ff" d="M103.5,-54.75C103.5,-47.8 103.5,-37.85 103.5,-29.13"/>
<polygon fill="#63b8ff" stroke="#63b8ff" points="107,-29.09 103.5,-19.09 100,-29.09 107,-29.09"/>
</a>
</g>
</g>
<!-- Node14&#45;&gt;Node2 -->
<g id="edge15_Node000014_Node000002" class="edge">
<title>Node14&#45;&gt;Node2</title>
<g id="a_edge15_Node000014_Node000002"><a xlink:title=" ">
<path fill="none" stroke="#63b8ff" d="M543.83,-111.97C547.1,-111.3 550.36,-110.63 553.5,-110 615.35,-97.53 686.79,-83.6 732.74,-74.71"/>
<polygon fill="#63b8ff" stroke="#63b8ff" points="733.57,-78.11 742.72,-72.78 732.24,-71.24 733.57,-78.11"/>
</a>
</g>
</g>
</g>
</svg>
