<?xml version="1.0" encoding="UTF-8" standalone="no"?>
<!DOCTYPE svg PUBLIC "-//W3C//DTD SVG 1.1//EN"
 "http://www.w3.org/Graphics/SVG/1.1/DTD/svg11.dtd">
<!-- Generated by graphviz version 2.43.0 (0)
 -->
<!-- Title: main/board_ctrl.c Pages: 1 -->
<svg width="1543pt" height="357pt"
 viewBox="0.00 0.00 1542.97 357.00" xmlns="http://www.w3.org/2000/svg" xmlns:xlink="http://www.w3.org/1999/xlink">
<g id="graph0" class="graph" transform="scale(1 1) rotate(0) translate(4 353)">
<title>main/board_ctrl.c</title>
<!-- Node1 -->
<g id="Node000001" class="node">
<title>Node1</title>
<g id="a_Node000001"><a xlink:title=" ">
<polygon fill="#999999" stroke="#666666" points="953.97,-349 852.97,-349 852.97,-330 953.97,-330 953.97,-349"/>
<text text-anchor="middle" x="903.47" y="-337" font-family="Helvetica,sans-Serif" font-size="10.00">main/board_ctrl.c</text>
</a>
</g>
</g>
<!-- Node2 -->
<g id="Node000002" class="node">
<title>Node2</title>
<g id="a_Node000002"><a xlink:href="board__ctrl_8h.html" target="_top" xlink:title=" ">
<polygon fill="white" stroke="#666666" points="954.47,-184 880.47,-184 880.47,-165 954.47,-165 954.47,-184"/>
<text text-anchor="middle" x="917.47" y="-172" font-family="Helvetica,sans-Serif" font-size="10.00">board_ctrl.h</text>
</a>
</g>
</g>
<!-- Node1&#45;&gt;Node2 -->
<g id="edge1_Node000001_Node000002" class="edge">
<title>Node1&#45;&gt;Node2</title>
<g id="a_edge1_Node000001_Node000002"><a xlink:title=" ">
<path fill="none" stroke="#63b8ff" d="M896,-329.91C879.65,-310.02 843.62,-259.49 862.47,-220 868.56,-207.23 880.31,-196.94 891.39,-189.49"/>
<polygon fill="#63b8ff" stroke="#63b8ff" points="893.37,-192.38 900.01,-184.12 889.67,-186.43 893.37,-192.38"/>
</a>
</g>
</g>
<!-- Node5 -->
<g id="Node000005" class="node">
<title>Node5</title>
<g id="a_Node000005"><a xlink:title=" ">
<polygon fill="#e0e0e0" stroke="#999999" points="538.47,-129 464.47,-129 464.47,-110 538.47,-110 538.47,-129"/>
<text text-anchor="middle" x="501.47" y="-117" font-family="Helvetica,sans-Serif" font-size="10.00">board_def.h</text>
</a>
</g>
</g>
<!-- Node1&#45;&gt;Node5 -->
<g id="edge18_Node000001_Node000005" class="edge">
<title>Node1&#45;&gt;Node5</title>
<g id="a_edge18_Node000001_Node000005"><a xlink:title=" ">
<path fill="none" stroke="#63b8ff" d="M861.79,-329.99C830.72,-322.76 787.73,-310.85 752.47,-294 657.37,-248.57 558.49,-168.96 519.14,-135.74"/>
<polygon fill="#63b8ff" stroke="#63b8ff" points="521.14,-132.85 511.26,-129.03 516.61,-138.18 521.14,-132.85"/>
</a>
</g>
</g>
<!-- Node16 -->
<g id="Node000016" class="node">
<title>Node16</title>
<g id="a_Node000016"><a xlink:title=" ">
<polygon fill="#e0e0e0" stroke="#999999" points="814.97,-294 761.97,-294 761.97,-275 814.97,-275 814.97,-294"/>
<text text-anchor="middle" x="788.47" y="-282" font-family="Helvetica,sans-Serif" font-size="10.00">board.h</text>
</a>
</g>
</g>
<!-- Node1&#45;&gt;Node16 -->
<g id="edge17_Node000001_Node000016" class="edge">
<title>Node1&#45;&gt;Node16</title>
<g id="a_edge17_Node000001_Node000016"><a xlink:title=" ">
<path fill="none" stroke="#63b8ff" d="M884.99,-329.98C866.49,-321.46 837.79,-308.23 816.49,-298.41"/>
<polygon fill="#63b8ff" stroke="#63b8ff" points="817.83,-295.18 807.28,-294.17 814.9,-301.53 817.83,-295.18"/>
</a>
</g>
</g>
<!-- Node17 -->
<g id="Node000017" class="node">
<title>Node17</title>
<g id="a_Node000017"><a xlink:href="gt32l32s0140_8h.html" target="_top" xlink:title=" ">
<polygon fill="white" stroke="#666666" points="963.47,-239 871.47,-239 871.47,-220 963.47,-220 963.47,-239"/>
<text text-anchor="middle" x="917.47" y="-227" font-family="Helvetica,sans-Serif" font-size="10.00">gt32l32s0140.h</text>
</a>
</g>
</g>
<!-- Node1&#45;&gt;Node17 -->
<g id="edge19_Node000001_Node000017" class="edge">
<title>Node1&#45;&gt;Node17</title>
<g id="a_edge19_Node000001_Node000017"><a xlink:title=" ">
<path fill="none" stroke="#63b8ff" d="M903.82,-329.84C904.39,-317.58 905.74,-294.49 908.47,-275 909.66,-266.51 911.46,-257.2 913.14,-249.31"/>
<polygon fill="#63b8ff" stroke="#63b8ff" points="916.61,-249.83 915.36,-239.31 909.78,-248.32 916.61,-249.83"/>
</a>
</g>
</g>
<!-- Node19 -->
<g id="Node000019" class="node">
<title>Node19</title>
<g id="a_Node000019"><a xlink:href="lsm6ds3trc_8h.html" target="_top" xlink:title=" ">
<polygon fill="white" stroke="#666666" points="1201.47,-239 1121.47,-239 1121.47,-220 1201.47,-220 1201.47,-239"/>
<text text-anchor="middle" x="1161.47" y="-227" font-family="Helvetica,sans-Serif" font-size="10.00">lsm6ds3trc.h</text>
</a>
</g>
</g>
<!-- Node1&#45;&gt;Node19 -->
<g id="edge22_Node000001_Node000019" class="edge">
<title>Node1&#45;&gt;Node19</title>
<g id="a_edge22_Node000001_Node000019"><a xlink:title=" ">
<path fill="none" stroke="#63b8ff" d="M906.06,-329.95C910.74,-316.07 921.96,-288.8 941.47,-275 948.42,-270.08 1048.42,-251.14 1111.18,-239.61"/>
<polygon fill="#63b8ff" stroke="#63b8ff" points="1112.08,-243.01 1121.29,-237.76 1110.82,-236.12 1112.08,-243.01"/>
</a>
</g>
</g>
<!-- Node20 -->
<g id="Node000020" class="node">
<title>Node20</title>
<g id="a_Node000020"><a xlink:href="_a_h_t21_8h.html" target="_top" xlink:title=" ">
<polygon fill="white" stroke="#666666" points="1500.47,-294 1442.47,-294 1442.47,-275 1500.47,-275 1500.47,-294"/>
<text text-anchor="middle" x="1471.47" y="-282" font-family="Helvetica,sans-Serif" font-size="10.00">AHT21.h</text>
</a>
</g>
</g>
<!-- Node1&#45;&gt;Node20 -->
<g id="edge25_Node000001_Node000020" class="edge">
<title>Node1&#45;&gt;Node20</title>
<g id="a_edge25_Node000001_Node000020"><a xlink:title=" ">
<path fill="none" stroke="#63b8ff" d="M954.13,-333.77C1066,-323.33 1332.15,-298.5 1432.38,-289.15"/>
<polygon fill="#63b8ff" stroke="#63b8ff" points="1432.76,-292.63 1442.39,-288.21 1432.11,-285.66 1432.76,-292.63"/>
</a>
</g>
</g>
<!-- Node21 -->
<g id="Node000021" class="node">
<title>Node21</title>
<g id="a_Node000021"><a xlink:title=" ">
<polygon fill="#e0e0e0" stroke="#999999" points="1013.97,-294 950.97,-294 950.97,-275 1013.97,-275 1013.97,-294"/>
<text text-anchor="middle" x="982.47" y="-282" font-family="Helvetica,sans-Serif" font-size="10.00">esp_log.h</text>
</a>
</g>
</g>
<!-- Node1&#45;&gt;Node21 -->
<g id="edge27_Node000001_Node000021" class="edge">
<title>Node1&#45;&gt;Node21</title>
<g id="a_edge27_Node000001_Node000021"><a xlink:title=" ">
<path fill="none" stroke="#63b8ff" d="M916.16,-329.98C928.3,-321.84 946.83,-309.41 961.22,-299.76"/>
<polygon fill="#63b8ff" stroke="#63b8ff" points="963.19,-302.65 969.55,-294.17 959.29,-296.84 963.19,-302.65"/>
</a>
</g>
</g>
<!-- Node22 -->
<g id="Node000022" class="node">
<title>Node22</title>
<g id="a_Node000022"><a xlink:href="sevetest30__touch_8h.html" target="_top" xlink:title=" ">
<polygon fill="white" stroke="#666666" points="1323.47,-294 1211.47,-294 1211.47,-275 1323.47,-275 1323.47,-294"/>
<text text-anchor="middle" x="1267.47" y="-282" font-family="Helvetica,sans-Serif" font-size="10.00">sevetest30_touch.h</text>
</a>
</g>
</g>
<!-- Node1&#45;&gt;Node22 -->
<g id="edge28_Node000001_Node000022" class="edge">
<title>Node1&#45;&gt;Node22</title>
<g id="a_edge28_Node000001_Node000022"><a xlink:title=" ">
<path fill="none" stroke="#63b8ff" d="M954.08,-331.13C1018.5,-321.75 1129.95,-305.52 1201.12,-295.16"/>
<polygon fill="#63b8ff" stroke="#63b8ff" points="1201.93,-298.58 1211.32,-293.68 1200.92,-291.65 1201.93,-298.58"/>
</a>
</g>
</g>
<!-- Node25 -->
<g id="Node000025" class="node">
<title>Node25</title>
<g id="a_Node000025"><a xlink:href="sevetest30___b_w_e_d_a_8h.html" target="_top" xlink:title=" ">
<polygon fill="white" stroke="#666666" points="1103.47,-239 981.47,-239 981.47,-220 1103.47,-220 1103.47,-239"/>
<text text-anchor="middle" x="1042.47" y="-227" font-family="Helvetica,sans-Serif" font-size="10.00">sevetest30_BWEDA.h</text>
</a>
</g>
</g>
<!-- Node1&#45;&gt;Node25 -->
<g id="edge31_Node000001_Node000025" class="edge">
<title>Node1&#45;&gt;Node25</title>
<g id="a_edge31_Node000001_Node000025"><a xlink:title=" ">
<path fill="none" stroke="#63b8ff" d="M954.01,-330.19C977.65,-323.91 1004.48,-312.96 1022.47,-294 1034.02,-281.83 1038.9,-263.04 1040.96,-249.05"/>
<polygon fill="#63b8ff" stroke="#63b8ff" points="1044.44,-249.41 1042.09,-239.08 1037.49,-248.63 1044.44,-249.41"/>
</a>
</g>
</g>
<!-- Node26 -->
<g id="Node000026" class="node">
<title>Node26</title>
<g id="a_Node000026"><a xlink:href="sevetest30___led_array_8h.html" target="_top" xlink:title=" ">
<polygon fill="white" stroke="#666666" points="480.97,-294 353.97,-294 353.97,-275 480.97,-275 480.97,-294"/>
<text text-anchor="middle" x="417.47" y="-282" font-family="Helvetica,sans-Serif" font-size="10.00">sevetest30_LedArray.h</text>
</a>
</g>
</g>
<!-- Node1&#45;&gt;Node26 -->
<g id="edge33_Node000001_Node000026" class="edge">
<title>Node1&#45;&gt;Node26</title>
<g id="a_edge33_Node000001_Node000026"><a xlink:title=" ">
<path fill="none" stroke="#63b8ff" d="M852.83,-332.98C766.57,-323.57 590.79,-304.4 490.98,-293.52"/>
<polygon fill="#63b8ff" stroke="#63b8ff" points="491.3,-290.03 480.98,-292.43 490.54,-296.99 491.3,-290.03"/>
</a>
</g>
</g>
<!-- Node3 -->
<g id="Node000003" class="node">
<title>Node3</title>
<g id="a_Node000003"><a xlink:title=" ">
<polygon fill="#e0e0e0" stroke="#999999" points="1534.97,-74 1459.97,-74 1459.97,-55 1534.97,-55 1534.97,-74"/>
<text text-anchor="middle" x="1497.47" y="-62" font-family="Helvetica,sans-Serif" font-size="10.00">esp_types.h</text>
</a>
</g>
</g>
<!-- Node2&#45;&gt;Node3 -->
<g id="edge2_Node000002_Node000003" class="edge">
<title>Node2&#45;&gt;Node3</title>
<g id="a_edge2_Node000002_Node000003"><a xlink:title=" ">
<path fill="none" stroke="#63b8ff" d="M954.78,-168.33C964.13,-167.13 974.16,-165.94 983.47,-165 1038.34,-159.48 1435.46,-163.52 1478.47,-129 1491.64,-118.43 1495.95,-99.11 1497.24,-84.54"/>
<polygon fill="#63b8ff" stroke="#63b8ff" points="1500.75,-84.3 1497.73,-74.14 1493.76,-83.97 1500.75,-84.3"/>
</a>
</g>
</g>
<!-- Node4 -->
<g id="Node000004" class="node">
<title>Node4</title>
<g id="a_Node000004"><a xlink:title=" ">
<polygon fill="#e0e0e0" stroke="#999999" points="485.97,-19 432.97,-19 432.97,0 485.97,0 485.97,-19"/>
<text text-anchor="middle" x="459.47" y="-7" font-family="Helvetica,sans-Serif" font-size="10.00">string.h</text>
</a>
</g>
</g>
<!-- Node2&#45;&gt;Node4 -->
<g id="edge3_Node000002_Node000004" class="edge">
<title>Node2&#45;&gt;Node4</title>
<g id="a_edge3_Node000002_Node000004"><a xlink:title=" ">
<path fill="none" stroke="#63b8ff" d="M917.32,-164.68C916.6,-150.91 913.11,-124.41 897.47,-110 838.39,-55.56 590.64,-24.29 496.23,-14.17"/>
<polygon fill="#63b8ff" stroke="#63b8ff" points="496.33,-10.66 486.01,-13.09 495.59,-17.62 496.33,-10.66"/>
</a>
</g>
</g>
<!-- Node2&#45;&gt;Node5 -->
<g id="edge4_Node000002_Node000005" class="edge">
<title>Node2&#45;&gt;Node5</title>
<g id="a_edge4_Node000002_Node000005"><a xlink:title=" ">
<path fill="none" stroke="#63b8ff" d="M880.34,-169.82C815.26,-163.19 676.13,-148.28 548.54,-129.08"/>
<polygon fill="#63b8ff" stroke="#63b8ff" points="549,-125.61 538.59,-127.57 547.95,-132.53 549,-125.61"/>
</a>
</g>
</g>
<!-- Node6 -->
<g id="Node000006" class="node">
<title>Node6</title>
<g id="a_Node000006"><a xlink:title=" ">
<polygon fill="#e0e0e0" stroke="#999999" points="1347.97,-129 1274.97,-129 1274.97,-110 1347.97,-110 1347.97,-129"/>
<text text-anchor="middle" x="1311.47" y="-117" font-family="Helvetica,sans-Serif" font-size="10.00">audio_hal.h</text>
</a>
</g>
</g>
<!-- Node2&#45;&gt;Node6 -->
<g id="edge5_Node000002_Node000006" class="edge">
<title>Node2&#45;&gt;Node6</title>
<g id="a_edge5_Node000002_Node000006"><a xlink:title=" ">
<path fill="none" stroke="#63b8ff" d="M954.47,-168.73C963.92,-167.51 974.07,-166.2 983.47,-165 1105.61,-149.34 1138.95,-148.52 1264.81,-129.02"/>
<polygon fill="#63b8ff" stroke="#63b8ff" points="1265.5,-132.46 1274.84,-127.46 1264.42,-125.54 1265.5,-132.46"/>
</a>
</g>
</g>
<!-- Node7 -->
<g id="Node000007" class="node">
<title>Node7</title>
<g id="a_Node000007"><a xlink:title=" ">
<polygon fill="#e0e0e0" stroke="#999999" points="1468.97,-129 1365.97,-129 1365.97,-110 1468.97,-110 1468.97,-129"/>
<text text-anchor="middle" x="1417.47" y="-117" font-family="Helvetica,sans-Serif" font-size="10.00">esxxx_common.h</text>
</a>
</g>
</g>
<!-- Node2&#45;&gt;Node7 -->
<g id="edge6_Node000002_Node000007" class="edge">
<title>Node2&#45;&gt;Node7</title>
<g id="a_edge6_Node000002_Node000007"><a xlink:title=" ">
<path fill="none" stroke="#63b8ff" d="M954.79,-168.48C964.15,-167.28 974.17,-166.05 983.47,-165 1146.17,-146.7 1189.95,-148.63 1355.72,-129.16"/>
<polygon fill="#63b8ff" stroke="#63b8ff" points="1356.26,-132.62 1365.78,-127.97 1355.44,-125.67 1356.26,-132.62"/>
</a>
</g>
</g>
<!-- Node8 -->
<g id="Node000008" class="node">
<title>Node8</title>
<g id="a_Node000008"><a xlink:href="sevetest30__gpio_8h.html" target="_top" xlink:title=" ">
<polygon fill="white" stroke="#666666" points="662.47,-129 556.47,-129 556.47,-110 662.47,-110 662.47,-129"/>
<text text-anchor="middle" x="609.47" y="-117" font-family="Helvetica,sans-Serif" font-size="10.00">sevetest30_gpio.h</text>
</a>
</g>
</g>
<!-- Node2&#45;&gt;Node8 -->
<g id="edge7_Node000002_Node000008" class="edge">
<title>Node2&#45;&gt;Node8</title>
<g id="a_edge7_Node000002_Node000008"><a xlink:title=" ">
<path fill="none" stroke="#63b8ff" d="M880.32,-167.11C827.88,-158.08 731.59,-141.51 669.08,-130.76"/>
<polygon fill="#63b8ff" stroke="#63b8ff" points="669.41,-127.26 658.96,-129.02 668.22,-134.16 669.41,-127.26"/>
</a>
</g>
</g>
<!-- Node11 -->
<g id="Node000011" class="node">
<title>Node11</title>
<g id="a_Node000011"><a xlink:title=" ">
<polygon fill="#e0e0e0" stroke="#999999" points="751.97,-129 680.97,-129 680.97,-110 751.97,-110 751.97,-129"/>
<text text-anchor="middle" x="716.47" y="-117" font-family="Helvetica,sans-Serif" font-size="10.00">driver/i2c.h</text>
</a>
</g>
</g>
<!-- Node2&#45;&gt;Node11 -->
<g id="edge11_Node000002_Node000011" class="edge">
<title>Node2&#45;&gt;Node11</title>
<g id="a_edge11_Node000002_Node000011"><a xlink:title=" ">
<path fill="none" stroke="#63b8ff" d="M885.18,-164.98C850.85,-155.93 796.41,-141.58 758.7,-131.64"/>
<polygon fill="#63b8ff" stroke="#63b8ff" points="759.58,-128.25 749.02,-129.08 757.79,-135.02 759.58,-128.25"/>
</a>
</g>
</g>
<!-- Node12 -->
<g id="Node000012" class="node">
<title>Node12</title>
<g id="a_Node000012"><a xlink:title=" ">
<polygon fill="#e0e0e0" stroke="#999999" points="888.97,-129 769.97,-129 769.97,-110 888.97,-110 888.97,-129"/>
<text text-anchor="middle" x="829.47" y="-117" font-family="Helvetica,sans-Serif" font-size="10.00">driver/spi_common.h</text>
</a>
</g>
</g>
<!-- Node2&#45;&gt;Node12 -->
<g id="edge12_Node000002_Node000012" class="edge">
<title>Node2&#45;&gt;Node12</title>
<g id="a_edge12_Node000002_Node000012"><a xlink:title=" ">
<path fill="none" stroke="#63b8ff" d="M903.33,-164.98C889.68,-156.77 868.78,-144.18 852.69,-134.49"/>
<polygon fill="#63b8ff" stroke="#63b8ff" points="854.24,-131.33 843.87,-129.17 850.63,-137.33 854.24,-131.33"/>
</a>
</g>
</g>
<!-- Node13 -->
<g id="Node000013" class="node">
<title>Node13</title>
<g id="a_Node000013"><a xlink:title=" ">
<polygon fill="#e0e0e0" stroke="#999999" points="1135.47,-129 1025.47,-129 1025.47,-110 1135.47,-110 1135.47,-129"/>
<text text-anchor="middle" x="1080.47" y="-117" font-family="Helvetica,sans-Serif" font-size="10.00">driver/spi_master.h</text>
</a>
</g>
</g>
<!-- Node2&#45;&gt;Node13 -->
<g id="edge13_Node000002_Node000013" class="edge">
<title>Node2&#45;&gt;Node13</title>
<g id="a_edge13_Node000002_Node000013"><a xlink:title=" ">
<path fill="none" stroke="#63b8ff" d="M943.66,-164.98C970.91,-156.13 1013.77,-142.19 1044.25,-132.28"/>
<polygon fill="#63b8ff" stroke="#63b8ff" points="1045.65,-135.5 1054.08,-129.08 1043.48,-128.85 1045.65,-135.5"/>
</a>
</g>
</g>
<!-- Node14 -->
<g id="Node000014" class="node">
<title>Node14</title>
<g id="a_Node000014"><a xlink:title=" ">
<polygon fill="#e0e0e0" stroke="#999999" points="1256.97,-129 1153.97,-129 1153.97,-110 1256.97,-110 1256.97,-129"/>
<text text-anchor="middle" x="1205.47" y="-117" font-family="Helvetica,sans-Serif" font-size="10.00">esp_peripherals.h</text>
</a>
</g>
</g>
<!-- Node2&#45;&gt;Node14 -->
<g id="edge14_Node000002_Node000014" class="edge">
<title>Node2&#45;&gt;Node14</title>
<g id="a_edge14_Node000002_Node000014"><a xlink:title=" ">
<path fill="none" stroke="#63b8ff" d="M954.53,-166.68C1003.83,-157.61 1091.45,-141.48 1149,-130.89"/>
<polygon fill="#63b8ff" stroke="#63b8ff" points="1149.83,-134.3 1159.03,-129.05 1148.56,-127.41 1149.83,-134.3"/>
</a>
</g>
</g>
<!-- Node15 -->
<g id="Node000015" class="node">
<title>Node15</title>
<g id="a_Node000015"><a xlink:href="_b_l5372_8h.html" target="_top" xlink:title=" ">
<polygon fill="white" stroke="#666666" points="1007.47,-129 945.47,-129 945.47,-110 1007.47,-110 1007.47,-129"/>
<text text-anchor="middle" x="976.47" y="-117" font-family="Helvetica,sans-Serif" font-size="10.00">BL5372.h</text>
</a>
</g>
</g>
<!-- Node2&#45;&gt;Node15 -->
<g id="edge15_Node000002_Node000015" class="edge">
<title>Node2&#45;&gt;Node15</title>
<g id="a_edge15_Node000002_Node000015"><a xlink:title=" ">
<path fill="none" stroke="#63b8ff" d="M926.95,-164.98C935.67,-157.15 948.81,-145.34 959.37,-135.86"/>
<polygon fill="#63b8ff" stroke="#63b8ff" points="961.72,-138.46 966.82,-129.17 957.04,-133.25 961.72,-138.46"/>
</a>
</g>
</g>
<!-- Node9 -->
<g id="Node000009" class="node">
<title>Node9</title>
<g id="a_Node000009"><a xlink:href="_t_c_a6416_a_8h.html" target="_top" xlink:title=" ">
<polygon fill="white" stroke="#666666" points="463.97,-74 388.97,-74 388.97,-55 463.97,-55 463.97,-74"/>
<text text-anchor="middle" x="426.47" y="-62" font-family="Helvetica,sans-Serif" font-size="10.00">TCA6416A.h</text>
</a>
</g>
</g>
<!-- Node8&#45;&gt;Node9 -->
<g id="edge8_Node000008_Node000009" class="edge">
<title>Node8&#45;&gt;Node9</title>
<g id="a_edge8_Node000008_Node000009"><a xlink:title=" ">
<path fill="none" stroke="#63b8ff" d="M580.07,-109.98C549.08,-101.01 500.09,-86.82 465.8,-76.89"/>
<polygon fill="#63b8ff" stroke="#63b8ff" points="466.68,-73.5 456.1,-74.08 464.73,-80.23 466.68,-73.5"/>
</a>
</g>
</g>
<!-- Node9&#45;&gt;Node4 -->
<g id="edge9_Node000009_Node000004" class="edge">
<title>Node9&#45;&gt;Node4</title>
<g id="a_edge9_Node000009_Node000004"><a xlink:title=" ">
<path fill="none" stroke="#63b8ff" d="M431.92,-54.75C436.48,-47.42 443.14,-36.73 448.76,-27.7"/>
<polygon fill="#63b8ff" stroke="#63b8ff" points="451.81,-29.43 454.12,-19.09 445.87,-25.73 451.81,-29.43"/>
</a>
</g>
</g>
<!-- Node10 -->
<g id="Node000010" class="node">
<title>Node10</title>
<g id="a_Node000010"><a xlink:title=" ">
<polygon fill="#e0e0e0" stroke="#999999" points="236.47,-19 174.47,-19 174.47,0 236.47,0 236.47,-19"/>
<text text-anchor="middle" x="205.47" y="-7" font-family="Helvetica,sans-Serif" font-size="10.00">stdbool.h</text>
</a>
</g>
</g>
<!-- Node9&#45;&gt;Node10 -->
<g id="edge10_Node000009_Node000010" class="edge">
<title>Node9&#45;&gt;Node10</title>
<g id="a_edge10_Node000009_Node000010"><a xlink:title=" ">
<path fill="none" stroke="#63b8ff" d="M390.96,-54.98C351.51,-45.52 287.91,-30.27 246.4,-20.31"/>
<polygon fill="#63b8ff" stroke="#63b8ff" points="247.14,-16.89 236.6,-17.97 245.51,-23.7 247.14,-16.89"/>
</a>
</g>
</g>
<!-- Node15&#45;&gt;Node3 -->
<g id="edge16_Node000015_Node000003" class="edge">
<title>Node15&#45;&gt;Node3</title>
<g id="a_edge16_Node000015_Node000003"><a xlink:title=" ">
<path fill="none" stroke="#63b8ff" d="M1007.85,-111.47C1010.76,-110.93 1013.66,-110.43 1016.47,-110 1174.22,-86.03 1363.18,-73.11 1449.82,-68.05"/>
<polygon fill="#63b8ff" stroke="#63b8ff" points="1450.08,-71.54 1459.87,-67.48 1449.68,-64.56 1450.08,-71.54"/>
</a>
</g>
</g>
<!-- Node17&#45;&gt;Node2 -->
<g id="edge21_Node000017_Node000002" class="edge">
<title>Node17&#45;&gt;Node2</title>
<g id="a_edge21_Node000017_Node000002"><a xlink:title=" ">
<path fill="none" stroke="#63b8ff" d="M917.47,-219.75C917.47,-212.8 917.47,-202.85 917.47,-194.13"/>
<polygon fill="#63b8ff" stroke="#63b8ff" points="920.97,-194.09 917.47,-184.09 913.97,-194.09 920.97,-194.09"/>
</a>
</g>
</g>
<!-- Node18 -->
<g id="Node000018" class="node">
<title>Node18</title>
<g id="a_Node000018"><a xlink:title=" ">
<polygon fill="#e0e0e0" stroke="#999999" points="1053.97,-184 992.97,-184 992.97,-165 1053.97,-165 1053.97,-184"/>
<text text-anchor="middle" x="1023.47" y="-172" font-family="Helvetica,sans-Serif" font-size="10.00">esp_err.h</text>
</a>
</g>
</g>
<!-- Node17&#45;&gt;Node18 -->
<g id="edge20_Node000017_Node000018" class="edge">
<title>Node17&#45;&gt;Node18</title>
<g id="a_edge20_Node000017_Node000018"><a xlink:title=" ">
<path fill="none" stroke="#63b8ff" d="M934.5,-219.98C951.4,-211.54 977.53,-198.47 997.11,-188.68"/>
<polygon fill="#63b8ff" stroke="#63b8ff" points="998.75,-191.77 1006.13,-184.17 995.62,-185.51 998.75,-191.77"/>
</a>
</g>
</g>
<!-- Node19&#45;&gt;Node3 -->
<g id="edge23_Node000019_Node000003" class="edge">
<title>Node19&#45;&gt;Node3</title>
<g id="a_edge23_Node000019_Node000003"><a xlink:title=" ">
<path fill="none" stroke="#63b8ff" d="M1199.54,-219.95C1283.81,-200.65 1480.16,-153.49 1498.47,-129 1507.95,-116.32 1506.48,-97.88 1503.36,-84.14"/>
<polygon fill="#63b8ff" stroke="#63b8ff" points="1506.69,-83.05 1500.68,-74.32 1499.94,-84.89 1506.69,-83.05"/>
</a>
</g>
</g>
<!-- Node19&#45;&gt;Node18 -->
<g id="edge24_Node000019_Node000018" class="edge">
<title>Node19&#45;&gt;Node18</title>
<g id="a_edge24_Node000019_Node000018"><a xlink:title=" ">
<path fill="none" stroke="#63b8ff" d="M1139.3,-219.98C1116.7,-211.3 1081.41,-197.75 1055.72,-187.88"/>
<polygon fill="#63b8ff" stroke="#63b8ff" points="1056.64,-184.49 1046.05,-184.17 1054.13,-191.02 1056.64,-184.49"/>
</a>
</g>
</g>
<!-- Node20&#45;&gt;Node3 -->
<g id="edge26_Node000020_Node000003" class="edge">
<title>Node20&#45;&gt;Node3</title>
<g id="a_edge26_Node000020_Node000003"><a xlink:title=" ">
<path fill="none" stroke="#63b8ff" d="M1474.81,-274.97C1483.65,-251.9 1507.49,-186.18 1515.47,-129 1516.64,-120.64 1517.08,-118.29 1515.47,-110 1513.68,-100.8 1509.99,-91.09 1506.41,-83.1"/>
<polygon fill="#63b8ff" stroke="#63b8ff" points="1509.56,-81.57 1502.09,-74.06 1503.24,-84.59 1509.56,-81.57"/>
</a>
</g>
</g>
<!-- Node23 -->
<g id="Node000023" class="node">
<title>Node23</title>
<g id="a_Node000023"><a xlink:title=" ">
<polygon fill="#e0e0e0" stroke="#999999" points="1430.97,-239 1333.97,-239 1333.97,-220 1430.97,-220 1430.97,-239"/>
<text text-anchor="middle" x="1382.47" y="-227" font-family="Helvetica,sans-Serif" font-size="10.00">hal/gpio_types.h</text>
</a>
</g>
</g>
<!-- Node22&#45;&gt;Node23 -->
<g id="edge29_Node000022_Node000023" class="edge">
<title>Node22&#45;&gt;Node23</title>
<g id="a_edge29_Node000022_Node000023"><a xlink:title=" ">
<path fill="none" stroke="#63b8ff" d="M1285.95,-274.98C1304.45,-266.46 1333.15,-253.23 1354.45,-243.41"/>
<polygon fill="#63b8ff" stroke="#63b8ff" points="1356.04,-246.53 1363.66,-239.17 1353.11,-240.18 1356.04,-246.53"/>
</a>
</g>
</g>
<!-- Node24 -->
<g id="Node000024" class="node">
<title>Node24</title>
<g id="a_Node000024"><a xlink:title=" ">
<polygon fill="#e0e0e0" stroke="#999999" points="1315.47,-239 1219.47,-239 1219.47,-220 1315.47,-220 1315.47,-239"/>
<text text-anchor="middle" x="1267.47" y="-227" font-family="Helvetica,sans-Serif" font-size="10.00">driver/mcpwm.h</text>
</a>
</g>
</g>
<!-- Node22&#45;&gt;Node24 -->
<g id="edge30_Node000022_Node000024" class="edge">
<title>Node22&#45;&gt;Node24</title>
<g id="a_edge30_Node000022_Node000024"><a xlink:title=" ">
<path fill="none" stroke="#63b8ff" d="M1267.47,-274.75C1267.47,-267.8 1267.47,-257.85 1267.47,-249.13"/>
<polygon fill="#63b8ff" stroke="#63b8ff" points="1270.97,-249.09 1267.47,-239.09 1263.97,-249.09 1270.97,-249.09"/>
</a>
</g>
</g>
<!-- Node25&#45;&gt;Node18 -->
<g id="edge32_Node000025_Node000018" class="edge">
<title>Node25&#45;&gt;Node18</title>
<g id="a_edge32_Node000025_Node000018"><a xlink:title=" ">
<path fill="none" stroke="#63b8ff" d="M1039.33,-219.75C1036.79,-212.65 1033.11,-202.4 1029.94,-193.56"/>
<polygon fill="#63b8ff" stroke="#63b8ff" points="1033.22,-192.32 1026.55,-184.09 1026.63,-194.68 1033.22,-192.32"/>
</a>
</g>
</g>
<!-- Node26&#45;&gt;Node3 -->
<g id="edge43_Node000026_Node000003" class="edge">
<title>Node26&#45;&gt;Node3</title>
<g id="a_edge43_Node000026_Node000003"><a xlink:title=" ">
<path fill="none" stroke="#63b8ff" d="M416.18,-274.86C412.41,-246.04 404.72,-152.66 455.47,-110 493.96,-77.65 1250.31,-67.93 1449.65,-65.93"/>
<polygon fill="#63b8ff" stroke="#63b8ff" points="1449.85,-69.43 1459.81,-65.83 1449.78,-62.43 1449.85,-69.43"/>
</a>
</g>
</g>
<!-- Node26&#45;&gt;Node4 -->
<g id="edge34_Node000026_Node000004" class="edge">
<title>Node26&#45;&gt;Node4</title>
<g id="a_edge34_Node000026_Node000004"><a xlink:title=" ">
<path fill="none" stroke="#63b8ff" d="M415.88,-274.75C412.57,-254.94 405.95,-205.27 414.47,-165 419.92,-139.24 421.98,-131.98 436.47,-110 448.93,-91.11 463.81,-94.91 472.47,-74 478.59,-59.23 473.91,-41.31 468.54,-28.27"/>
<polygon fill="#63b8ff" stroke="#63b8ff" points="471.64,-26.63 464.28,-19.02 465.28,-29.57 471.64,-26.63"/>
</a>
</g>
</g>
<!-- Node27 -->
<g id="Node000027" class="node">
<title>Node27</title>
<g id="a_Node000027"><a xlink:href="sevetest30___u_i_8h.html" target="_top" xlink:title=" ">
<polygon fill="white" stroke="#666666" points="356.97,-239 261.97,-239 261.97,-220 356.97,-220 356.97,-239"/>
<text text-anchor="middle" x="309.47" y="-227" font-family="Helvetica,sans-Serif" font-size="10.00">sevetest30_UI.h</text>
</a>
</g>
</g>
<!-- Node26&#45;&gt;Node27 -->
<g id="edge35_Node000026_Node000027" class="edge">
<title>Node26&#45;&gt;Node27</title>
<g id="a_edge35_Node000026_Node000027"><a xlink:title=" ">
<path fill="none" stroke="#63b8ff" d="M400.12,-274.98C382.9,-266.54 356.27,-253.47 336.32,-243.68"/>
<polygon fill="#63b8ff" stroke="#63b8ff" points="337.66,-240.43 327.14,-239.17 334.57,-246.72 337.66,-240.43"/>
</a>
</g>
</g>
<!-- Node27&#45;&gt;Node2 -->
<g id="edge42_Node000027_Node000002" class="edge">
<title>Node27&#45;&gt;Node2</title>
<g id="a_edge42_Node000027_Node000002"><a xlink:title=" ">
<path fill="none" stroke="#63b8ff" d="M357.18,-224.34C470.92,-214.43 756.99,-189.49 870.25,-179.62"/>
<polygon fill="#63b8ff" stroke="#63b8ff" points="870.68,-183.09 880.34,-178.74 870.07,-176.12 870.68,-183.09"/>
</a>
</g>
</g>
<!-- Node27&#45;&gt;Node4 -->
<g id="edge36_Node000027_Node000004" class="edge">
<title>Node27&#45;&gt;Node4</title>
<g id="a_edge36_Node000027_Node000004"><a xlink:title=" ">
<path fill="none" stroke="#63b8ff" d="M316.77,-219.82C323.7,-211.2 333.99,-197.39 340.47,-184 366.58,-130.09 341.88,-101.63 379.47,-55 390.95,-40.76 408.28,-30.32 423.88,-23.16"/>
<polygon fill="#63b8ff" stroke="#63b8ff" points="425.49,-26.27 433.3,-19.11 422.73,-19.84 425.49,-26.27"/>
</a>
</g>
</g>
<!-- Node27&#45;&gt;Node10 -->
<g id="edge37_Node000027_Node000010" class="edge">
<title>Node27&#45;&gt;Node10</title>
<g id="a_edge37_Node000027_Node000010"><a xlink:title=" ">
<path fill="none" stroke="#63b8ff" d="M261.95,-228.55C186.59,-227.5 44.96,-220.58 13.47,-184 -44.64,-116.5 102.4,-49.5 171.69,-22.7"/>
<polygon fill="#63b8ff" stroke="#63b8ff" points="173.22,-25.87 181.32,-19.04 170.73,-19.32 173.22,-25.87"/>
</a>
</g>
</g>
<!-- Node27&#45;&gt;Node18 -->
<g id="edge38_Node000027_Node000018" class="edge">
<title>Node27&#45;&gt;Node18</title>
<g id="a_edge38_Node000027_Node000018"><a xlink:title=" ">
<path fill="none" stroke="#63b8ff" d="M357.17,-226.45C465.26,-221.53 737.1,-207.7 963.47,-184 969.72,-183.35 976.32,-182.53 982.76,-181.67"/>
<polygon fill="#63b8ff" stroke="#63b8ff" points="983.27,-185.14 992.69,-180.3 982.31,-178.2 983.27,-185.14"/>
</a>
</g>
</g>
<!-- Node28 -->
<g id="Node000028" class="node">
<title>Node28</title>
<g id="a_Node000028"><a xlink:title=" ">
<polygon fill="#e0e0e0" stroke="#999999" points="135.97,-184 22.97,-184 22.97,-165 135.97,-165 135.97,-184"/>
<text text-anchor="middle" x="79.47" y="-172" font-family="Helvetica,sans-Serif" font-size="10.00">freertos/FreeRTOS.h</text>
</a>
</g>
</g>
<!-- Node27&#45;&gt;Node28 -->
<g id="edge39_Node000027_Node000028" class="edge">
<title>Node27&#45;&gt;Node28</title>
<g id="a_edge39_Node000027_Node000028"><a xlink:title=" ">
<path fill="none" stroke="#63b8ff" d="M272.52,-219.98C232.9,-210.86 169.88,-196.33 126.7,-186.38"/>
<polygon fill="#63b8ff" stroke="#63b8ff" points="127.24,-182.92 116.71,-184.08 125.67,-189.74 127.24,-182.92"/>
</a>
</g>
</g>
<!-- Node29 -->
<g id="Node000029" class="node">
<title>Node29</title>
<g id="a_Node000029"><a xlink:title=" ">
<polygon fill="#e0e0e0" stroke="#999999" points="242.47,-184 154.47,-184 154.47,-165 242.47,-165 242.47,-184"/>
<text text-anchor="middle" x="198.47" y="-172" font-family="Helvetica,sans-Serif" font-size="10.00">freertos/task.h</text>
</a>
</g>
</g>
<!-- Node27&#45;&gt;Node29 -->
<g id="edge40_Node000027_Node000029" class="edge">
<title>Node27&#45;&gt;Node29</title>
<g id="a_edge40_Node000027_Node000029"><a xlink:title=" ">
<path fill="none" stroke="#63b8ff" d="M291.64,-219.98C273.86,-211.5 246.32,-198.35 225.79,-188.54"/>
<polygon fill="#63b8ff" stroke="#63b8ff" points="227.16,-185.32 216.63,-184.17 224.14,-191.64 227.16,-185.32"/>
</a>
</g>
</g>
<!-- Node30 -->
<g id="Node000030" class="node">
<title>Node30</title>
<g id="a_Node000030"><a xlink:title=" ">
<polygon fill="#e0e0e0" stroke="#999999" points="331.97,-184 260.97,-184 260.97,-165 331.97,-165 331.97,-184"/>
<text text-anchor="middle" x="296.47" y="-172" font-family="Helvetica,sans-Serif" font-size="10.00">driver/i2s.h</text>
</a>
</g>
</g>
<!-- Node27&#45;&gt;Node30 -->
<g id="edge41_Node000027_Node000030" class="edge">
<title>Node27&#45;&gt;Node30</title>
<g id="a_edge41_Node000027_Node000030"><a xlink:title=" ">
<path fill="none" stroke="#63b8ff" d="M307.32,-219.75C305.6,-212.72 303.12,-202.62 300.97,-193.84"/>
<polygon fill="#63b8ff" stroke="#63b8ff" points="304.36,-192.97 298.58,-184.09 297.56,-194.63 304.36,-192.97"/>
</a>
</g>
</g>
</g>
</svg>
