<?xml version="1.0" encoding="UTF-8" standalone="no"?>
<!DOCTYPE svg PUBLIC "-//W3C//DTD SVG 1.1//EN"
 "http://www.w3.org/Graphics/SVG/1.1/DTD/svg11.dtd">
<!-- Generated by graphviz version 2.43.0 (0)
 -->
<!-- Title: main/board_ctrl.c Pages: 1 -->
<svg width="1614pt" height="357pt"
 viewBox="0.00 0.00 1614.00 357.00" xmlns="http://www.w3.org/2000/svg" xmlns:xlink="http://www.w3.org/1999/xlink">
<g id="graph0" class="graph" transform="scale(1 1) rotate(0) translate(4 353)">
<title>main/board_ctrl.c</title>
<!-- Node1 -->
<g id="Node000001" class="node">
<title>Node1</title>
<g id="a_Node000001"><a xlink:title=" ">
<polygon fill="#999999" stroke="#666666" points="1267.5,-349 1166.5,-349 1166.5,-330 1267.5,-330 1267.5,-349"/>
<text text-anchor="middle" x="1217" y="-337" font-family="Helvetica,sans-Serif" font-size="10.00">main/board_ctrl.c</text>
</a>
</g>
</g>
<!-- Node2 -->
<g id="Node000002" class="node">
<title>Node2</title>
<g id="a_Node000002"><a xlink:href="board__ctrl_8h.html" target="_top" xlink:title=" ">
<polygon fill="white" stroke="#666666" points="798,-184 724,-184 724,-165 798,-165 798,-184"/>
<text text-anchor="middle" x="761" y="-172" font-family="Helvetica,sans-Serif" font-size="10.00">board_ctrl.h</text>
</a>
</g>
</g>
<!-- Node1&#45;&gt;Node2 -->
<g id="edge1_Node000001_Node000002" class="edge">
<title>Node1&#45;&gt;Node2</title>
<g id="a_edge1_Node000001_Node000002"><a xlink:title=" ">
<path fill="none" stroke="#63b8ff" d="M1193.13,-329.97C1117.34,-302.88 882.05,-218.77 794.37,-187.43"/>
<polygon fill="#63b8ff" stroke="#63b8ff" points="795.51,-184.12 784.91,-184.05 793.15,-190.71 795.51,-184.12"/>
</a>
</g>
</g>
<!-- Node5 -->
<g id="Node000005" class="node">
<title>Node5</title>
<g id="a_Node000005"><a xlink:title=" ">
<polygon fill="#e0e0e0" stroke="#999999" points="268,-129 194,-129 194,-110 268,-110 268,-129"/>
<text text-anchor="middle" x="231" y="-117" font-family="Helvetica,sans-Serif" font-size="10.00">board_def.h</text>
</a>
</g>
</g>
<!-- Node1&#45;&gt;Node5 -->
<g id="edge20_Node000001_Node000005" class="edge">
<title>Node1&#45;&gt;Node5</title>
<g id="a_edge20_Node000001_Node000005"><a xlink:title=" ">
<path fill="none" stroke="#63b8ff" d="M1166.17,-338.25C1047.49,-337.05 743.17,-330.35 492,-294 384.13,-278.39 359.16,-263.69 253,-239 148.94,-214.8 85.34,-267.74 19,-184 -25.66,-127.62 108.35,-119.74 183.61,-119.58"/>
<polygon fill="#63b8ff" stroke="#63b8ff" points="183.81,-123.08 193.82,-119.6 183.82,-116.08 183.81,-123.08"/>
</a>
</g>
</g>
<!-- Node17 -->
<g id="Node000017" class="node">
<title>Node17</title>
<g id="a_Node000017"><a xlink:title=" ">
<polygon fill="#e0e0e0" stroke="#999999" points="1013.5,-294 960.5,-294 960.5,-275 1013.5,-275 1013.5,-294"/>
<text text-anchor="middle" x="987" y="-282" font-family="Helvetica,sans-Serif" font-size="10.00">board.h</text>
</a>
</g>
</g>
<!-- Node1&#45;&gt;Node17 -->
<g id="edge19_Node000001_Node000017" class="edge">
<title>Node1&#45;&gt;Node17</title>
<g id="a_edge19_Node000001_Node000017"><a xlink:title=" ">
<path fill="none" stroke="#63b8ff" d="M1180.05,-329.98C1137.11,-320.09 1066.69,-303.86 1023.82,-293.98"/>
<polygon fill="#63b8ff" stroke="#63b8ff" points="1024.33,-290.51 1013.8,-291.68 1022.76,-297.33 1024.33,-290.51"/>
</a>
</g>
</g>
<!-- Node18 -->
<g id="Node000018" class="node">
<title>Node18</title>
<g id="a_Node000018"><a xlink:href="gt32l32s0140_8h.html" target="_top" xlink:title=" ">
<polygon fill="white" stroke="#666666" points="1200,-239 1108,-239 1108,-220 1200,-220 1200,-239"/>
<text text-anchor="middle" x="1154" y="-227" font-family="Helvetica,sans-Serif" font-size="10.00">gt32l32s0140.h</text>
</a>
</g>
</g>
<!-- Node1&#45;&gt;Node18 -->
<g id="edge21_Node000001_Node000018" class="edge">
<title>Node1&#45;&gt;Node18</title>
<g id="a_edge21_Node000001_Node000018"><a xlink:title=" ">
<path fill="none" stroke="#63b8ff" d="M1211,-329.78C1204.97,-320.9 1195.52,-306.7 1188,-294 1179.05,-278.89 1169.69,-261.24 1163.06,-248.39"/>
<polygon fill="#63b8ff" stroke="#63b8ff" points="1166.06,-246.57 1158.39,-239.26 1159.82,-249.76 1166.06,-246.57"/>
</a>
</g>
</g>
<!-- Node19 -->
<g id="Node000019" class="node">
<title>Node19</title>
<g id="a_Node000019"><a xlink:href="lsm6ds3trc_8h.html" target="_top" xlink:title=" ">
<polygon fill="white" stroke="#666666" points="1449,-129 1369,-129 1369,-110 1449,-110 1449,-129"/>
<text text-anchor="middle" x="1409" y="-117" font-family="Helvetica,sans-Serif" font-size="10.00">lsm6ds3trc.h</text>
</a>
</g>
</g>
<!-- Node1&#45;&gt;Node19 -->
<g id="edge24_Node000001_Node000019" class="edge">
<title>Node1&#45;&gt;Node19</title>
<g id="a_edge24_Node000001_Node000019"><a xlink:title=" ">
<path fill="none" stroke="#63b8ff" d="M1267.85,-335.72C1306.9,-331.44 1360.64,-320.72 1400,-294 1424.8,-277.17 1429.9,-267.55 1439,-239 1450.27,-203.61 1432.11,-161.23 1419.5,-137.95"/>
<polygon fill="#63b8ff" stroke="#63b8ff" points="1422.52,-136.19 1414.53,-129.22 1416.43,-139.65 1422.52,-136.19"/>
</a>
</g>
</g>
<!-- Node20 -->
<g id="Node000020" class="node">
<title>Node20</title>
<g id="a_Node000020"><a xlink:href="_a_h_t21_8h.html" target="_top" xlink:title=" ">
<polygon fill="white" stroke="#666666" points="1525,-129 1467,-129 1467,-110 1525,-110 1525,-129"/>
<text text-anchor="middle" x="1496" y="-117" font-family="Helvetica,sans-Serif" font-size="10.00">AHT21.h</text>
</a>
</g>
</g>
<!-- Node1&#45;&gt;Node20 -->
<g id="edge27_Node000001_Node000020" class="edge">
<title>Node1&#45;&gt;Node20</title>
<g id="a_edge27_Node000001_Node000020"><a xlink:title=" ">
<path fill="none" stroke="#63b8ff" d="M1267.96,-332.6C1321.33,-325.56 1400.71,-312.39 1425,-294 1475.34,-255.88 1490.16,-175.9 1494.38,-139.39"/>
<polygon fill="#63b8ff" stroke="#63b8ff" points="1497.89,-139.48 1495.41,-129.17 1490.93,-138.77 1497.89,-139.48"/>
</a>
</g>
</g>
<!-- Node21 -->
<g id="Node000021" class="node">
<title>Node21</title>
<g id="a_Node000021"><a xlink:title=" ">
<polygon fill="#e0e0e0" stroke="#999999" points="1390.5,-294 1327.5,-294 1327.5,-275 1390.5,-275 1390.5,-294"/>
<text text-anchor="middle" x="1359" y="-282" font-family="Helvetica,sans-Serif" font-size="10.00">esp_log.h</text>
</a>
</g>
</g>
<!-- Node1&#45;&gt;Node21 -->
<g id="edge30_Node000001_Node000021" class="edge">
<title>Node1&#45;&gt;Node21</title>
<g id="a_edge30_Node000001_Node000021"><a xlink:title=" ">
<path fill="none" stroke="#63b8ff" d="M1239.81,-329.98C1263.17,-321.27 1299.7,-307.63 1326.17,-297.75"/>
<polygon fill="#63b8ff" stroke="#63b8ff" points="1327.63,-300.95 1335.77,-294.17 1325.18,-294.39 1327.63,-300.95"/>
</a>
</g>
</g>
<!-- Node22 -->
<g id="Node000022" class="node">
<title>Node22</title>
<g id="a_Node000022"><a xlink:href="sevetest30__touch_8h.html" target="_top" xlink:title=" ">
<polygon fill="white" stroke="#666666" points="1309,-294 1197,-294 1197,-275 1309,-275 1309,-294"/>
<text text-anchor="middle" x="1253" y="-282" font-family="Helvetica,sans-Serif" font-size="10.00">sevetest30_touch.h</text>
</a>
</g>
</g>
<!-- Node1&#45;&gt;Node22 -->
<g id="edge31_Node000001_Node000022" class="edge">
<title>Node1&#45;&gt;Node22</title>
<g id="a_edge31_Node000001_Node000022"><a xlink:title=" ">
<path fill="none" stroke="#63b8ff" d="M1222.94,-329.75C1227.98,-322.34 1235.34,-311.5 1241.51,-302.41"/>
<polygon fill="#63b8ff" stroke="#63b8ff" points="1244.44,-304.33 1247.17,-294.09 1238.65,-300.39 1244.44,-304.33"/>
</a>
</g>
</g>
<!-- Node25 -->
<g id="Node000025" class="node">
<title>Node25</title>
<g id="a_Node000025"><a xlink:href="sevetest30___b_w_e_d_a_8h.html" target="_top" xlink:title=" ">
<polygon fill="white" stroke="#666666" points="1606,-74 1484,-74 1484,-55 1606,-55 1606,-74"/>
<text text-anchor="middle" x="1545" y="-62" font-family="Helvetica,sans-Serif" font-size="10.00">sevetest30_BWEDA.h</text>
</a>
</g>
</g>
<!-- Node1&#45;&gt;Node25 -->
<g id="edge34_Node000001_Node000025" class="edge">
<title>Node1&#45;&gt;Node25</title>
<g id="a_edge34_Node000001_Node000025"><a xlink:title=" ">
<path fill="none" stroke="#63b8ff" d="M1267.67,-332.89C1361.53,-321.07 1553,-289.7 1553,-230.5 1553,-230.5 1553,-230.5 1553,-173.5 1553,-142.1 1549.6,-105.71 1547.23,-84.2"/>
<polygon fill="#63b8ff" stroke="#63b8ff" points="1550.69,-83.7 1546.08,-74.16 1543.74,-84.5 1550.69,-83.7"/>
</a>
</g>
</g>
<!-- Node26 -->
<g id="Node000026" class="node">
<title>Node26</title>
<g id="a_Node000026"><a xlink:href="sevetest30___led_array_8h.html" target="_top" xlink:title=" ">
<polygon fill="white" stroke="#666666" points="628.5,-294 501.5,-294 501.5,-275 628.5,-275 628.5,-294"/>
<text text-anchor="middle" x="565" y="-282" font-family="Helvetica,sans-Serif" font-size="10.00">sevetest30_LedArray.h</text>
</a>
</g>
</g>
<!-- Node1&#45;&gt;Node26 -->
<g id="edge36_Node000001_Node000026" class="edge">
<title>Node1&#45;&gt;Node26</title>
<g id="a_edge36_Node000001_Node000026"><a xlink:title=" ">
<path fill="none" stroke="#63b8ff" d="M1166.38,-334.39C1051.93,-325.08 772.8,-302.39 638.96,-291.51"/>
<polygon fill="#63b8ff" stroke="#63b8ff" points="639.05,-288.01 628.8,-290.69 638.48,-294.98 639.05,-288.01"/>
</a>
</g>
</g>
<!-- Node3 -->
<g id="Node000003" class="node">
<title>Node3</title>
<g id="a_Node000003"><a xlink:title=" ">
<polygon fill="#e0e0e0" stroke="#999999" points="1312.5,-74 1237.5,-74 1237.5,-55 1312.5,-55 1312.5,-74"/>
<text text-anchor="middle" x="1275" y="-62" font-family="Helvetica,sans-Serif" font-size="10.00">esp_types.h</text>
</a>
</g>
</g>
<!-- Node2&#45;&gt;Node3 -->
<g id="edge2_Node000002_Node000003" class="edge">
<title>Node2&#45;&gt;Node3</title>
<g id="a_edge2_Node000002_Node000003"><a xlink:title=" ">
<path fill="none" stroke="#63b8ff" d="M798.37,-172.18C905.55,-168.1 1208.66,-154.43 1245,-129 1259.81,-118.64 1267.52,-98.99 1271.4,-84.28"/>
<polygon fill="#63b8ff" stroke="#63b8ff" points="1274.88,-84.76 1273.67,-74.23 1268.05,-83.22 1274.88,-84.76"/>
</a>
</g>
</g>
<!-- Node4 -->
<g id="Node000004" class="node">
<title>Node4</title>
<g id="a_Node000004"><a xlink:title=" ">
<polygon fill="#e0e0e0" stroke="#999999" points="173.5,-19 120.5,-19 120.5,0 173.5,0 173.5,-19"/>
<text text-anchor="middle" x="147" y="-7" font-family="Helvetica,sans-Serif" font-size="10.00">string.h</text>
</a>
</g>
</g>
<!-- Node2&#45;&gt;Node4 -->
<g id="edge3_Node000002_Node000004" class="edge">
<title>Node2&#45;&gt;Node4</title>
<g id="a_edge3_Node000002_Node000004"><a xlink:title=" ">
<path fill="none" stroke="#63b8ff" d="M723.78,-173.04C651.25,-171.37 486.44,-163.7 353,-129 292.28,-113.21 276.54,-106.69 223,-74 200.46,-60.24 177.62,-40.14 162.94,-26.26"/>
<polygon fill="#63b8ff" stroke="#63b8ff" points="165.31,-23.68 155.68,-19.26 160.46,-28.72 165.31,-23.68"/>
</a>
</g>
</g>
<!-- Node2&#45;&gt;Node5 -->
<g id="edge4_Node000002_Node000005" class="edge">
<title>Node2&#45;&gt;Node5</title>
<g id="a_edge4_Node000002_Node000005"><a xlink:title=" ">
<path fill="none" stroke="#63b8ff" d="M723.73,-169.77C629.65,-160.36 382.64,-135.66 278.45,-125.24"/>
<polygon fill="#63b8ff" stroke="#63b8ff" points="278.53,-121.74 268.23,-124.22 277.83,-128.7 278.53,-121.74"/>
</a>
</g>
</g>
<!-- Node6 -->
<g id="Node000006" class="node">
<title>Node6</title>
<g id="a_Node000006"><a xlink:title=" ">
<polygon fill="#e0e0e0" stroke="#999999" points="639.5,-129 566.5,-129 566.5,-110 639.5,-110 639.5,-129"/>
<text text-anchor="middle" x="603" y="-117" font-family="Helvetica,sans-Serif" font-size="10.00">audio_hal.h</text>
</a>
</g>
</g>
<!-- Node2&#45;&gt;Node6 -->
<g id="edge5_Node000002_Node000006" class="edge">
<title>Node2&#45;&gt;Node6</title>
<g id="a_edge5_Node000002_Node000006"><a xlink:title=" ">
<path fill="none" stroke="#63b8ff" d="M735.61,-164.98C709.2,-156.13 667.65,-142.19 638.11,-132.28"/>
<polygon fill="#63b8ff" stroke="#63b8ff" points="639.18,-128.94 628.58,-129.08 636.95,-135.58 639.18,-128.94"/>
</a>
</g>
</g>
<!-- Node7 -->
<g id="Node000007" class="node">
<title>Node7</title>
<g id="a_Node000007"><a xlink:title=" ">
<polygon fill="#e0e0e0" stroke="#999999" points="760.5,-129 657.5,-129 657.5,-110 760.5,-110 760.5,-129"/>
<text text-anchor="middle" x="709" y="-117" font-family="Helvetica,sans-Serif" font-size="10.00">esxxx_common.h</text>
</a>
</g>
</g>
<!-- Node2&#45;&gt;Node7 -->
<g id="edge6_Node000002_Node000007" class="edge">
<title>Node2&#45;&gt;Node7</title>
<g id="a_edge6_Node000002_Node000007"><a xlink:title=" ">
<path fill="none" stroke="#63b8ff" d="M752.41,-164.75C744.84,-157.03 733.62,-145.6 724.49,-136.28"/>
<polygon fill="#63b8ff" stroke="#63b8ff" points="726.93,-133.78 717.43,-129.09 721.93,-138.68 726.93,-133.78"/>
</a>
</g>
</g>
<!-- Node8 -->
<g id="Node000008" class="node">
<title>Node8</title>
<g id="a_Node000008"><a xlink:href="sevetest30__gpio_8h.html" target="_top" xlink:title=" ">
<polygon fill="white" stroke="#666666" points="468,-129 362,-129 362,-110 468,-110 468,-129"/>
<text text-anchor="middle" x="415" y="-117" font-family="Helvetica,sans-Serif" font-size="10.00">sevetest30_gpio.h</text>
</a>
</g>
</g>
<!-- Node2&#45;&gt;Node8 -->
<g id="edge7_Node000002_Node000008" class="edge">
<title>Node2&#45;&gt;Node8</title>
<g id="a_edge7_Node000002_Node000008"><a xlink:title=" ">
<path fill="none" stroke="#63b8ff" d="M723.97,-167.83C665.32,-158.84 550.33,-141.23 478.37,-130.21"/>
<polygon fill="#63b8ff" stroke="#63b8ff" points="478.49,-126.69 468.08,-128.63 477.43,-133.6 478.49,-126.69"/>
</a>
</g>
</g>
<!-- Node12 -->
<g id="Node000012" class="node">
<title>Node12</title>
<g id="a_Node000012"><a xlink:title=" ">
<polygon fill="#e0e0e0" stroke="#999999" points="849.5,-129 778.5,-129 778.5,-110 849.5,-110 849.5,-129"/>
<text text-anchor="middle" x="814" y="-117" font-family="Helvetica,sans-Serif" font-size="10.00">driver/i2c.h</text>
</a>
</g>
</g>
<!-- Node2&#45;&gt;Node12 -->
<g id="edge12_Node000002_Node000012" class="edge">
<title>Node2&#45;&gt;Node12</title>
<g id="a_edge12_Node000002_Node000012"><a xlink:title=" ">
<path fill="none" stroke="#63b8ff" d="M769.75,-164.75C777.47,-157.03 788.9,-145.6 798.22,-136.28"/>
<polygon fill="#63b8ff" stroke="#63b8ff" points="800.81,-138.64 805.41,-129.09 795.86,-133.69 800.81,-138.64"/>
</a>
</g>
</g>
<!-- Node13 -->
<g id="Node000013" class="node">
<title>Node13</title>
<g id="a_Node000013"><a xlink:title=" ">
<polygon fill="#e0e0e0" stroke="#999999" points="986.5,-129 867.5,-129 867.5,-110 986.5,-110 986.5,-129"/>
<text text-anchor="middle" x="927" y="-117" font-family="Helvetica,sans-Serif" font-size="10.00">driver/spi_common.h</text>
</a>
</g>
</g>
<!-- Node2&#45;&gt;Node13 -->
<g id="edge13_Node000002_Node000013" class="edge">
<title>Node2&#45;&gt;Node13</title>
<g id="a_edge13_Node000002_Node000013"><a xlink:title=" ">
<path fill="none" stroke="#63b8ff" d="M787.67,-164.98C815.54,-156.09 859.45,-142.07 890.52,-132.15"/>
<polygon fill="#63b8ff" stroke="#63b8ff" points="891.66,-135.46 900.12,-129.08 889.53,-128.79 891.66,-135.46"/>
</a>
</g>
</g>
<!-- Node14 -->
<g id="Node000014" class="node">
<title>Node14</title>
<g id="a_Node000014"><a xlink:title=" ">
<polygon fill="#e0e0e0" stroke="#999999" points="1115,-129 1005,-129 1005,-110 1115,-110 1115,-129"/>
<text text-anchor="middle" x="1060" y="-117" font-family="Helvetica,sans-Serif" font-size="10.00">driver/spi_master.h</text>
</a>
</g>
</g>
<!-- Node2&#45;&gt;Node14 -->
<g id="edge14_Node000002_Node000014" class="edge">
<title>Node2&#45;&gt;Node14</title>
<g id="a_edge14_Node000002_Node000014"><a xlink:title=" ">
<path fill="none" stroke="#63b8ff" d="M798.26,-166.89C849.32,-157.84 941.53,-141.5 1001.75,-130.83"/>
<polygon fill="#63b8ff" stroke="#63b8ff" points="1002.63,-134.22 1011.87,-129.03 1001.41,-127.33 1002.63,-134.22"/>
</a>
</g>
</g>
<!-- Node15 -->
<g id="Node000015" class="node">
<title>Node15</title>
<g id="a_Node000015"><a xlink:title=" ">
<polygon fill="#e0e0e0" stroke="#999999" points="1236.5,-129 1133.5,-129 1133.5,-110 1236.5,-110 1236.5,-129"/>
<text text-anchor="middle" x="1185" y="-117" font-family="Helvetica,sans-Serif" font-size="10.00">esp_peripherals.h</text>
</a>
</g>
</g>
<!-- Node2&#45;&gt;Node15 -->
<g id="edge15_Node000002_Node000015" class="edge">
<title>Node2&#45;&gt;Node15</title>
<g id="a_edge15_Node000002_Node000015"><a xlink:title=" ">
<path fill="none" stroke="#63b8ff" d="M798.13,-169.15C862.13,-161.62 997.62,-145.46 1123.24,-129.08"/>
<polygon fill="#63b8ff" stroke="#63b8ff" points="1123.96,-132.51 1133.42,-127.75 1123.05,-125.57 1123.96,-132.51"/>
</a>
</g>
</g>
<!-- Node16 -->
<g id="Node000016" class="node">
<title>Node16</title>
<g id="a_Node000016"><a xlink:href="_b_l5372_8h.html" target="_top" xlink:title=" ">
<polygon fill="white" stroke="#666666" points="548,-129 486,-129 486,-110 548,-110 548,-129"/>
<text text-anchor="middle" x="517" y="-117" font-family="Helvetica,sans-Serif" font-size="10.00">BL5372.h</text>
</a>
</g>
</g>
<!-- Node2&#45;&gt;Node16 -->
<g id="edge16_Node000002_Node000016" class="edge">
<title>Node2&#45;&gt;Node16</title>
<g id="a_edge16_Node000002_Node000016"><a xlink:title=" ">
<path fill="none" stroke="#63b8ff" d="M723.94,-165.45C679.32,-155.76 604.61,-139.53 558.21,-129.45"/>
<polygon fill="#63b8ff" stroke="#63b8ff" points="558.71,-125.98 548.2,-127.28 557.23,-132.82 558.71,-125.98"/>
</a>
</g>
</g>
<!-- Node9 -->
<g id="Node000009" class="node">
<title>Node9</title>
<g id="a_Node000009"><a xlink:href="_t_c_a6416_a_8h.html" target="_top" xlink:title=" ">
<polygon fill="white" stroke="#666666" points="307.5,-74 232.5,-74 232.5,-55 307.5,-55 307.5,-74"/>
<text text-anchor="middle" x="270" y="-62" font-family="Helvetica,sans-Serif" font-size="10.00">TCA6416A.h</text>
</a>
</g>
</g>
<!-- Node8&#45;&gt;Node9 -->
<g id="edge8_Node000008_Node000009" class="edge">
<title>Node8&#45;&gt;Node9</title>
<g id="a_edge8_Node000008_Node000009"><a xlink:title=" ">
<path fill="none" stroke="#63b8ff" d="M391.7,-109.98C367.75,-101.23 330.22,-87.51 303.17,-77.62"/>
<polygon fill="#63b8ff" stroke="#63b8ff" points="304.31,-74.32 293.72,-74.17 301.91,-80.89 304.31,-74.32"/>
</a>
</g>
</g>
<!-- Node9&#45;&gt;Node4 -->
<g id="edge9_Node000009_Node000004" class="edge">
<title>Node9&#45;&gt;Node4</title>
<g id="a_edge9_Node000009_Node000004"><a xlink:title=" ">
<path fill="none" stroke="#63b8ff" d="M250.24,-54.98C230.27,-46.38 199.2,-32.99 176.35,-23.15"/>
<polygon fill="#63b8ff" stroke="#63b8ff" points="177.69,-19.91 167.12,-19.17 174.92,-26.34 177.69,-19.91"/>
</a>
</g>
</g>
<!-- Node10 -->
<g id="Node000010" class="node">
<title>Node10</title>
<g id="a_Node000010"><a xlink:title=" ">
<polygon fill="#e0e0e0" stroke="#999999" points="254,-19 192,-19 192,0 254,0 254,-19"/>
<text text-anchor="middle" x="223" y="-7" font-family="Helvetica,sans-Serif" font-size="10.00">stdbool.h</text>
</a>
</g>
</g>
<!-- Node9&#45;&gt;Node10 -->
<g id="edge10_Node000009_Node000010" class="edge">
<title>Node9&#45;&gt;Node10</title>
<g id="a_edge10_Node000009_Node000010"><a xlink:title=" ">
<path fill="none" stroke="#63b8ff" d="M262.24,-54.75C255.53,-47.18 245.66,-36.05 237.49,-26.84"/>
<polygon fill="#63b8ff" stroke="#63b8ff" points="239.87,-24.25 230.62,-19.09 234.63,-28.89 239.87,-24.25"/>
</a>
</g>
</g>
<!-- Node11 -->
<g id="Node000011" class="node">
<title>Node11</title>
<g id="a_Node000011"><a xlink:title=" ">
<polygon fill="#e0e0e0" stroke="#999999" points="1371.5,-19 1310.5,-19 1310.5,0 1371.5,0 1371.5,-19"/>
<text text-anchor="middle" x="1341" y="-7" font-family="Helvetica,sans-Serif" font-size="10.00">esp_err.h</text>
</a>
</g>
</g>
<!-- Node9&#45;&gt;Node11 -->
<g id="edge11_Node000009_Node000011" class="edge">
<title>Node9&#45;&gt;Node11</title>
<g id="a_edge11_Node000009_Node000011"><a xlink:title=" ">
<path fill="none" stroke="#63b8ff" d="M307.7,-56.8C312.5,-56.1 317.36,-55.48 322,-55 700.96,-15.89 1162.67,-11.09 1300.38,-10.55"/>
<polygon fill="#63b8ff" stroke="#63b8ff" points="1300.49,-14.05 1310.48,-10.52 1300.47,-7.05 1300.49,-14.05"/>
</a>
</g>
</g>
<!-- Node16&#45;&gt;Node3 -->
<g id="edge17_Node000016_Node000003" class="edge">
<title>Node16&#45;&gt;Node3</title>
<g id="a_edge17_Node000016_Node000003"><a xlink:title=" ">
<path fill="none" stroke="#63b8ff" d="M548.37,-111.38C551.28,-110.86 554.19,-110.38 557,-110 807.8,-75.77 1111.51,-67.85 1227.16,-66.03"/>
<polygon fill="#63b8ff" stroke="#63b8ff" points="1227.49,-69.53 1237.43,-65.88 1227.38,-62.53 1227.49,-69.53"/>
</a>
</g>
</g>
<!-- Node16&#45;&gt;Node11 -->
<g id="edge18_Node000016_Node000011" class="edge">
<title>Node16&#45;&gt;Node11</title>
<g id="a_edge18_Node000016_Node000011"><a xlink:title=" ">
<path fill="none" stroke="#63b8ff" d="M548.4,-111.57C551.3,-111.01 554.2,-110.47 557,-110 839.69,-62.11 1183.29,-26.1 1299.97,-14.49"/>
<polygon fill="#63b8ff" stroke="#63b8ff" points="1300.62,-17.94 1310.23,-13.47 1299.93,-10.98 1300.62,-17.94"/>
</a>
</g>
</g>
<!-- Node18&#45;&gt;Node2 -->
<g id="edge23_Node000018_Node000002" class="edge">
<title>Node18&#45;&gt;Node2</title>
<g id="a_edge23_Node000018_Node000002"><a xlink:title=" ">
<path fill="none" stroke="#63b8ff" d="M1107.76,-222.26C1032.48,-212.11 884.19,-192.11 808.25,-181.87"/>
<polygon fill="#63b8ff" stroke="#63b8ff" points="808.41,-178.36 798.03,-180.49 807.48,-185.3 808.41,-178.36"/>
</a>
</g>
</g>
<!-- Node18&#45;&gt;Node11 -->
<g id="edge22_Node000018_Node000011" class="edge">
<title>Node18&#45;&gt;Node11</title>
<g id="a_edge22_Node000018_Node000011"><a xlink:title=" ">
<path fill="none" stroke="#63b8ff" d="M1180.43,-219.99C1217.19,-206.72 1283.04,-177.46 1317,-129 1338.11,-98.88 1341.57,-54.46 1341.64,-29.44"/>
<polygon fill="#63b8ff" stroke="#63b8ff" points="1345.14,-29.09 1341.48,-19.15 1338.14,-29.2 1345.14,-29.09"/>
</a>
</g>
</g>
<!-- Node19&#45;&gt;Node3 -->
<g id="edge25_Node000019_Node000003" class="edge">
<title>Node19&#45;&gt;Node3</title>
<g id="a_edge25_Node000019_Node000003"><a xlink:title=" ">
<path fill="none" stroke="#63b8ff" d="M1387.47,-109.98C1365.53,-101.3 1331.26,-87.75 1306.31,-77.88"/>
<polygon fill="#63b8ff" stroke="#63b8ff" points="1307.51,-74.59 1296.92,-74.17 1304.93,-81.1 1307.51,-74.59"/>
</a>
</g>
</g>
<!-- Node19&#45;&gt;Node11 -->
<g id="edge26_Node000019_Node000011" class="edge">
<title>Node19&#45;&gt;Node11</title>
<g id="a_edge26_Node000019_Node000011"><a xlink:title=" ">
<path fill="none" stroke="#63b8ff" d="M1403.44,-109.66C1392.17,-91.77 1366.5,-51 1351.83,-27.69"/>
<polygon fill="#63b8ff" stroke="#63b8ff" points="1354.74,-25.76 1346.45,-19.16 1348.82,-29.49 1354.74,-25.76"/>
</a>
</g>
</g>
<!-- Node20&#45;&gt;Node3 -->
<g id="edge28_Node000020_Node000003" class="edge">
<title>Node20&#45;&gt;Node3</title>
<g id="a_edge28_Node000020_Node000003"><a xlink:title=" ">
<path fill="none" stroke="#63b8ff" d="M1466.65,-111.46C1429.29,-102.5 1364.34,-86.93 1320.53,-76.42"/>
<polygon fill="#63b8ff" stroke="#63b8ff" points="1321.24,-72.99 1310.69,-74.06 1319.6,-79.8 1321.24,-72.99"/>
</a>
</g>
</g>
<!-- Node20&#45;&gt;Node11 -->
<g id="edge29_Node000020_Node000011" class="edge">
<title>Node20&#45;&gt;Node11</title>
<g id="a_edge29_Node000020_Node000011"><a xlink:title=" ">
<path fill="none" stroke="#63b8ff" d="M1483.58,-109.84C1457.05,-91.36 1394.62,-47.86 1361.88,-25.05"/>
<polygon fill="#63b8ff" stroke="#63b8ff" points="1363.69,-22.04 1353.48,-19.2 1359.69,-27.79 1363.69,-22.04"/>
</a>
</g>
</g>
<!-- Node23 -->
<g id="Node000023" class="node">
<title>Node23</title>
<g id="a_Node000023"><a xlink:title=" ">
<polygon fill="#e0e0e0" stroke="#999999" points="1315.5,-239 1218.5,-239 1218.5,-220 1315.5,-220 1315.5,-239"/>
<text text-anchor="middle" x="1267" y="-227" font-family="Helvetica,sans-Serif" font-size="10.00">hal/gpio_types.h</text>
</a>
</g>
</g>
<!-- Node22&#45;&gt;Node23 -->
<g id="edge32_Node000022_Node000023" class="edge">
<title>Node22&#45;&gt;Node23</title>
<g id="a_edge32_Node000022_Node000023"><a xlink:title=" ">
<path fill="none" stroke="#63b8ff" d="M1255.31,-274.75C1257.17,-267.72 1259.84,-257.62 1262.15,-248.84"/>
<polygon fill="#63b8ff" stroke="#63b8ff" points="1265.56,-249.65 1264.73,-239.09 1258.79,-247.86 1265.56,-249.65"/>
</a>
</g>
</g>
<!-- Node24 -->
<g id="Node000024" class="node">
<title>Node24</title>
<g id="a_Node000024"><a xlink:title=" ">
<polygon fill="#e0e0e0" stroke="#999999" points="1430,-239 1334,-239 1334,-220 1430,-220 1430,-239"/>
<text text-anchor="middle" x="1382" y="-227" font-family="Helvetica,sans-Serif" font-size="10.00">driver/mcpwm.h</text>
</a>
</g>
</g>
<!-- Node22&#45;&gt;Node24 -->
<g id="edge33_Node000022_Node000024" class="edge">
<title>Node22&#45;&gt;Node24</title>
<g id="a_edge33_Node000022_Node000024"><a xlink:title=" ">
<path fill="none" stroke="#63b8ff" d="M1273.73,-274.98C1294.76,-266.34 1327.55,-252.87 1351.54,-243.02"/>
<polygon fill="#63b8ff" stroke="#63b8ff" points="1352.98,-246.21 1360.9,-239.17 1350.32,-239.73 1352.98,-246.21"/>
</a>
</g>
</g>
<!-- Node25&#45;&gt;Node11 -->
<g id="edge35_Node000025_Node000011" class="edge">
<title>Node25&#45;&gt;Node11</title>
<g id="a_edge35_Node000025_Node000011"><a xlink:title=" ">
<path fill="none" stroke="#63b8ff" d="M1512.22,-54.98C1476.66,-45.74 1419.83,-30.98 1381.5,-21.02"/>
<polygon fill="#63b8ff" stroke="#63b8ff" points="1382.25,-17.6 1371.69,-18.47 1380.49,-24.38 1382.25,-17.6"/>
</a>
</g>
</g>
<!-- Node26&#45;&gt;Node3 -->
<g id="edge46_Node000026_Node000003" class="edge">
<title>Node26&#45;&gt;Node3</title>
<g id="a_edge46_Node000026_Node000003"><a xlink:title=" ">
<path fill="none" stroke="#63b8ff" d="M628.75,-278.56C784.79,-265.09 1179.5,-222.35 1266,-129 1276.99,-117.14 1278.41,-98.31 1277.58,-84.23"/>
<polygon fill="#63b8ff" stroke="#63b8ff" points="1281.05,-83.78 1276.57,-74.18 1274.08,-84.48 1281.05,-83.78"/>
</a>
</g>
</g>
<!-- Node26&#45;&gt;Node4 -->
<g id="edge37_Node000026_Node000004" class="edge">
<title>Node26&#45;&gt;Node4</title>
<g id="a_edge37_Node000026_Node000004"><a xlink:title=" ">
<path fill="none" stroke="#63b8ff" d="M501.29,-277.95C353.52,-264.21 0,-226.06 0,-175.5 0,-175.5 0,-175.5 0,-118.5 0,-63.71 67.15,-33.65 110.68,-19.91"/>
<polygon fill="#63b8ff" stroke="#63b8ff" points="111.81,-23.23 120.38,-17 109.8,-16.53 111.81,-23.23"/>
</a>
</g>
</g>
<!-- Node27 -->
<g id="Node000027" class="node">
<title>Node27</title>
<g id="a_Node000027"><a xlink:href="sevetest30___u_i_8h.html" target="_top" xlink:title=" ">
<polygon fill="white" stroke="#666666" points="357.5,-239 262.5,-239 262.5,-220 357.5,-220 357.5,-239"/>
<text text-anchor="middle" x="310" y="-227" font-family="Helvetica,sans-Serif" font-size="10.00">sevetest30_UI.h</text>
</a>
</g>
</g>
<!-- Node26&#45;&gt;Node27 -->
<g id="edge38_Node000026_Node000027" class="edge">
<title>Node26&#45;&gt;Node27</title>
<g id="a_edge38_Node000026_Node000027"><a xlink:title=" ">
<path fill="none" stroke="#63b8ff" d="M524.03,-274.98C479.74,-265.78 409.06,-251.09 361.15,-241.13"/>
<polygon fill="#63b8ff" stroke="#63b8ff" points="361.79,-237.69 351.29,-239.08 360.37,-244.54 361.79,-237.69"/>
</a>
</g>
</g>
<!-- Node27&#45;&gt;Node2 -->
<g id="edge45_Node000027_Node000002" class="edge">
<title>Node27&#45;&gt;Node2</title>
<g id="a_edge45_Node000027_Node000002"><a xlink:title=" ">
<path fill="none" stroke="#63b8ff" d="M357.84,-222.88C444.76,-212.66 627.58,-191.18 713.93,-181.03"/>
<polygon fill="#63b8ff" stroke="#63b8ff" points="714.45,-184.49 723.97,-179.85 713.63,-177.54 714.45,-184.49"/>
</a>
</g>
</g>
<!-- Node27&#45;&gt;Node4 -->
<g id="edge39_Node000027_Node000004" class="edge">
<title>Node27&#45;&gt;Node4</title>
<g id="a_edge39_Node000027_Node000004"><a xlink:title=" ">
<path fill="none" stroke="#63b8ff" d="M262.35,-225.63C231.92,-221.17 194.16,-210.26 172,-184 134.44,-139.49 139.06,-64.58 143.79,-29.58"/>
<polygon fill="#63b8ff" stroke="#63b8ff" points="147.31,-29.76 145.34,-19.35 140.38,-28.71 147.31,-29.76"/>
</a>
</g>
</g>
<!-- Node27&#45;&gt;Node10 -->
<g id="edge40_Node000027_Node000010" class="edge">
<title>Node27&#45;&gt;Node10</title>
<g id="a_edge40_Node000027_Node000010"><a xlink:title=" ">
<path fill="none" stroke="#63b8ff" d="M262.45,-224.73C234.97,-219.82 202.46,-208.75 185,-184 150.7,-135.38 189.69,-61.49 210.98,-28.04"/>
<polygon fill="#63b8ff" stroke="#63b8ff" points="214.11,-29.66 216.68,-19.38 208.26,-25.81 214.11,-29.66"/>
</a>
</g>
</g>
<!-- Node27&#45;&gt;Node11 -->
<g id="edge41_Node000027_Node000011" class="edge">
<title>Node27&#45;&gt;Node11</title>
<g id="a_edge41_Node000027_Node000011"><a xlink:title=" ">
<path fill="none" stroke="#63b8ff" d="M357.7,-222.37C381.53,-216.64 408.34,-205.52 423,-184 451.22,-142.56 369.07,-155.33 353,-129 348.6,-121.79 347.4,-116.32 353,-110 489.05,43.37 607.04,-75.8 811,-55 993.28,-36.41 1211.42,-19.9 1300.31,-13.42"/>
<polygon fill="#63b8ff" stroke="#63b8ff" points="1300.77,-16.89 1310.49,-12.68 1300.27,-9.91 1300.77,-16.89"/>
</a>
</g>
</g>
<!-- Node28 -->
<g id="Node000028" class="node">
<title>Node28</title>
<g id="a_Node000028"><a xlink:title=" ">
<polygon fill="#e0e0e0" stroke="#999999" points="307.5,-184 194.5,-184 194.5,-165 307.5,-165 307.5,-184"/>
<text text-anchor="middle" x="251" y="-172" font-family="Helvetica,sans-Serif" font-size="10.00">freertos/FreeRTOS.h</text>
</a>
</g>
</g>
<!-- Node27&#45;&gt;Node28 -->
<g id="edge42_Node000027_Node000028" class="edge">
<title>Node27&#45;&gt;Node28</title>
<g id="a_edge42_Node000027_Node000028"><a xlink:title=" ">
<path fill="none" stroke="#63b8ff" d="M300.52,-219.98C291.8,-212.15 278.66,-200.34 268.1,-190.86"/>
<polygon fill="#63b8ff" stroke="#63b8ff" points="270.43,-188.25 260.65,-184.17 265.75,-193.46 270.43,-188.25"/>
</a>
</g>
</g>
<!-- Node29 -->
<g id="Node000029" class="node">
<title>Node29</title>
<g id="a_Node000029"><a xlink:title=" ">
<polygon fill="#e0e0e0" stroke="#999999" points="414,-184 326,-184 326,-165 414,-165 414,-184"/>
<text text-anchor="middle" x="370" y="-172" font-family="Helvetica,sans-Serif" font-size="10.00">freertos/task.h</text>
</a>
</g>
</g>
<!-- Node27&#45;&gt;Node29 -->
<g id="edge43_Node000027_Node000029" class="edge">
<title>Node27&#45;&gt;Node29</title>
<g id="a_edge43_Node000027_Node000029"><a xlink:title=" ">
<path fill="none" stroke="#63b8ff" d="M319.64,-219.98C328.51,-212.15 341.87,-200.34 352.61,-190.86"/>
<polygon fill="#63b8ff" stroke="#63b8ff" points="355.01,-193.41 360.18,-184.17 350.37,-188.17 355.01,-193.41"/>
</a>
</g>
</g>
<!-- Node30 -->
<g id="Node000030" class="node">
<title>Node30</title>
<g id="a_Node000030"><a xlink:title=" ">
<polygon fill="#e0e0e0" stroke="#999999" points="99.5,-184 28.5,-184 28.5,-165 99.5,-165 99.5,-184"/>
<text text-anchor="middle" x="64" y="-172" font-family="Helvetica,sans-Serif" font-size="10.00">driver/i2s.h</text>
</a>
</g>
</g>
<!-- Node27&#45;&gt;Node30 -->
<g id="edge44_Node000027_Node000030" class="edge">
<title>Node27&#45;&gt;Node30</title>
<g id="a_edge44_Node000027_Node000030"><a xlink:title=" ">
<path fill="none" stroke="#63b8ff" d="M270.48,-219.98C226.66,-210.54 156.09,-195.34 109.87,-185.38"/>
<polygon fill="#63b8ff" stroke="#63b8ff" points="110.34,-181.9 99.83,-183.22 108.86,-188.75 110.34,-181.9"/>
</a>
</g>
</g>
</g>
</svg>
