<?xml version="1.0" encoding="UTF-8" standalone="no"?>
<!DOCTYPE svg PUBLIC "-//W3C//DTD SVG 1.1//EN"
 "http://www.w3.org/Graphics/SVG/1.1/DTD/svg11.dtd">
<!-- Generated by graphviz version 2.43.0 (0)
 -->
<!-- Title: main/calibration_tools.c Pages: 1 -->
<svg width="1089pt" height="137pt"
 viewBox="0.00 0.00 1088.50 137.00" xmlns="http://www.w3.org/2000/svg" xmlns:xlink="http://www.w3.org/1999/xlink">
<g id="graph0" class="graph" transform="scale(1 1) rotate(0) translate(4 133)">
<title>main/calibration_tools.c</title>
<!-- Node1 -->
<g id="Node000001" class="node">
<title>Node1</title>
<g id="a_Node000001"><a xlink:title=" ">
<polygon fill="#999999" stroke="#666666" points="541,-129 407,-129 407,-110 541,-110 541,-129"/>
<text text-anchor="middle" x="474" y="-117" font-family="Helvetica,sans-Serif" font-size="10.00">main/calibration_tools.c</text>
</a>
</g>
</g>
<!-- Node2 -->
<g id="Node000002" class="node">
<title>Node2</title>
<g id="a_Node000002"><a xlink:href="calibration__tools_8h.html" target="_top" xlink:title=" ">
<polygon fill="white" stroke="#666666" points="718.5,-74 611.5,-74 611.5,-55 718.5,-55 718.5,-74"/>
<text text-anchor="middle" x="665" y="-62" font-family="Helvetica,sans-Serif" font-size="10.00">calibration_tools.h</text>
</a>
</g>
</g>
<!-- Node1&#45;&gt;Node2 -->
<g id="edge1_Node000001_Node000002" class="edge">
<title>Node1&#45;&gt;Node2</title>
<g id="a_edge1_Node000001_Node000002"><a xlink:title=" ">
<path fill="none" stroke="#63b8ff" d="M504.69,-109.98C537.17,-100.97 588.6,-86.7 624.41,-76.76"/>
<polygon fill="#63b8ff" stroke="#63b8ff" points="625.37,-80.13 634.07,-74.08 623.5,-73.38 625.37,-80.13"/>
</a>
</g>
</g>
<!-- Node4 -->
<g id="Node000004" class="node">
<title>Node4</title>
<g id="a_Node000004"><a xlink:title=" ">
<polygon fill="#e0e0e0" stroke="#999999" points="161.5,-74 108.5,-74 108.5,-55 161.5,-55 161.5,-74"/>
<text text-anchor="middle" x="135" y="-62" font-family="Helvetica,sans-Serif" font-size="10.00">string.h</text>
</a>
</g>
</g>
<!-- Node1&#45;&gt;Node4 -->
<g id="edge3_Node000001_Node000004" class="edge">
<title>Node1&#45;&gt;Node4</title>
<g id="a_edge3_Node000001_Node000004"><a xlink:title=" ">
<path fill="none" stroke="#63b8ff" d="M406.93,-110.33C347.63,-102.73 258.59,-90.38 171.71,-73.98"/>
<polygon fill="#63b8ff" stroke="#63b8ff" points="172.16,-70.51 161.68,-72.07 170.85,-77.38 172.16,-70.51"/>
</a>
</g>
</g>
<!-- Node5 -->
<g id="Node000005" class="node">
<title>Node5</title>
<g id="a_Node000005"><a xlink:title=" ">
<polygon fill="#e0e0e0" stroke="#999999" points="248,-74 180,-74 180,-55 248,-55 248,-74"/>
<text text-anchor="middle" x="214" y="-62" font-family="Helvetica,sans-Serif" font-size="10.00">sys/time.h</text>
</a>
</g>
</g>
<!-- Node1&#45;&gt;Node5 -->
<g id="edge4_Node000001_Node000005" class="edge">
<title>Node1&#45;&gt;Node5</title>
<g id="a_edge4_Node000001_Node000005"><a xlink:title=" ">
<path fill="none" stroke="#63b8ff" d="M432.23,-109.98C384.52,-100.26 306.79,-84.42 258.12,-74.49"/>
<polygon fill="#63b8ff" stroke="#63b8ff" points="258.7,-71.04 248.2,-72.47 257.3,-77.9 258.7,-71.04"/>
</a>
</g>
</g>
<!-- Node6 -->
<g id="Node000006" class="node">
<title>Node6</title>
<g id="a_Node000006"><a xlink:href="math__tools_8h.html" target="_top" xlink:title=" ">
<polygon fill="white" stroke="#666666" points="90,-74 10,-74 10,-55 90,-55 90,-74"/>
<text text-anchor="middle" x="50" y="-62" font-family="Helvetica,sans-Serif" font-size="10.00">math_tools.h</text>
</a>
</g>
</g>
<!-- Node1&#45;&gt;Node6 -->
<g id="edge5_Node000001_Node000006" class="edge">
<title>Node1&#45;&gt;Node6</title>
<g id="a_edge5_Node000001_Node000006"><a xlink:title=" ">
<path fill="none" stroke="#63b8ff" d="M406.79,-111.62C333.77,-103.9 213.42,-90.46 99.98,-74.07"/>
<polygon fill="#63b8ff" stroke="#63b8ff" points="100.48,-70.61 90.08,-72.63 99.48,-77.54 100.48,-70.61"/>
</a>
</g>
</g>
<!-- Node8 -->
<g id="Node000008" class="node">
<title>Node8</title>
<g id="a_Node000008"><a xlink:title=" ">
<polygon fill="#e0e0e0" stroke="#999999" points="417.5,-74 366.5,-74 366.5,-55 417.5,-55 417.5,-74"/>
<text text-anchor="middle" x="392" y="-62" font-family="Helvetica,sans-Serif" font-size="10.00">math.h</text>
</a>
</g>
</g>
<!-- Node1&#45;&gt;Node8 -->
<g id="edge7_Node000001_Node000008" class="edge">
<title>Node1&#45;&gt;Node8</title>
<g id="a_edge7_Node000001_Node000008"><a xlink:title=" ">
<path fill="none" stroke="#63b8ff" d="M460.83,-109.98C448.23,-101.84 429,-89.41 414.06,-79.76"/>
<polygon fill="#63b8ff" stroke="#63b8ff" points="415.71,-76.66 405.41,-74.17 411.91,-82.54 415.71,-76.66"/>
</a>
</g>
</g>
<!-- Node9 -->
<g id="Node000009" class="node">
<title>Node9</title>
<g id="a_Node000009"><a xlink:title=" ">
<polygon fill="#e0e0e0" stroke="#999999" points="512.5,-74 435.5,-74 435.5,-55 512.5,-55 512.5,-74"/>
<text text-anchor="middle" x="474" y="-62" font-family="Helvetica,sans-Serif" font-size="10.00">esp_check.h</text>
</a>
</g>
</g>
<!-- Node1&#45;&gt;Node9 -->
<g id="edge8_Node000001_Node000009" class="edge">
<title>Node1&#45;&gt;Node9</title>
<g id="a_edge8_Node000001_Node000009"><a xlink:title=" ">
<path fill="none" stroke="#63b8ff" d="M474,-109.75C474,-102.8 474,-92.85 474,-84.13"/>
<polygon fill="#63b8ff" stroke="#63b8ff" points="477.5,-84.09 474,-74.09 470.5,-84.09 477.5,-84.09"/>
</a>
</g>
</g>
<!-- Node10 -->
<g id="Node000010" class="node">
<title>Node10</title>
<g id="a_Node000010"><a xlink:title=" ">
<polygon fill="#e0e0e0" stroke="#999999" points="593.5,-74 530.5,-74 530.5,-55 593.5,-55 593.5,-74"/>
<text text-anchor="middle" x="562" y="-62" font-family="Helvetica,sans-Serif" font-size="10.00">esp_log.h</text>
</a>
</g>
</g>
<!-- Node1&#45;&gt;Node10 -->
<g id="edge9_Node000001_Node000010" class="edge">
<title>Node1&#45;&gt;Node10</title>
<g id="a_edge9_Node000001_Node000010"><a xlink:title=" ">
<path fill="none" stroke="#63b8ff" d="M488.14,-109.98C501.79,-101.77 522.69,-89.18 538.78,-79.49"/>
<polygon fill="#63b8ff" stroke="#63b8ff" points="540.84,-82.33 547.6,-74.17 537.23,-76.33 540.84,-82.33"/>
</a>
</g>
</g>
<!-- Node11 -->
<g id="Node000011" class="node">
<title>Node11</title>
<g id="a_Node000011"><a xlink:href="hscdtd008a_8h.html" target="_top" xlink:title=" ">
<polygon fill="white" stroke="#666666" points="348,-74 266,-74 266,-55 348,-55 348,-74"/>
<text text-anchor="middle" x="307" y="-62" font-family="Helvetica,sans-Serif" font-size="10.00">hscdtd008a.h</text>
</a>
</g>
</g>
<!-- Node1&#45;&gt;Node11 -->
<g id="edge10_Node000001_Node000011" class="edge">
<title>Node1&#45;&gt;Node11</title>
<g id="a_edge10_Node000001_Node000011"><a xlink:title=" ">
<path fill="none" stroke="#63b8ff" d="M447.17,-109.98C419.13,-101.09 374.95,-87.07 343.7,-77.15"/>
<polygon fill="#63b8ff" stroke="#63b8ff" points="344.63,-73.77 334.04,-74.08 342.51,-80.44 344.63,-73.77"/>
</a>
</g>
</g>
<!-- Node12 -->
<g id="Node000012" class="node">
<title>Node12</title>
<g id="a_Node000012"><a xlink:title=" ">
<polygon fill="#e0e0e0" stroke="#999999" points="849.5,-74 736.5,-74 736.5,-55 849.5,-55 849.5,-74"/>
<text text-anchor="middle" x="793" y="-62" font-family="Helvetica,sans-Serif" font-size="10.00">freertos/FreeRTOS.h</text>
</a>
</g>
</g>
<!-- Node1&#45;&gt;Node12 -->
<g id="edge12_Node000001_Node000012" class="edge">
<title>Node1&#45;&gt;Node12</title>
<g id="a_edge12_Node000001_Node000012"><a xlink:title=" ">
<path fill="none" stroke="#63b8ff" d="M525.25,-109.98C581.44,-100.65 671.57,-85.67 731.52,-75.71"/>
<polygon fill="#63b8ff" stroke="#63b8ff" points="732.32,-79.13 741.61,-74.04 731.17,-72.22 732.32,-79.13"/>
</a>
</g>
</g>
<!-- Node13 -->
<g id="Node000013" class="node">
<title>Node13</title>
<g id="a_Node000013"><a xlink:title=" ">
<polygon fill="#e0e0e0" stroke="#999999" points="956,-74 868,-74 868,-55 956,-55 956,-74"/>
<text text-anchor="middle" x="912" y="-62" font-family="Helvetica,sans-Serif" font-size="10.00">freertos/task.h</text>
</a>
</g>
</g>
<!-- Node1&#45;&gt;Node13 -->
<g id="edge13_Node000001_Node000013" class="edge">
<title>Node1&#45;&gt;Node13</title>
<g id="a_edge13_Node000001_Node000013"><a xlink:title=" ">
<path fill="none" stroke="#63b8ff" d="M541.23,-111.63C615.98,-103.8 740.55,-90.13 857.56,-74.15"/>
<polygon fill="#63b8ff" stroke="#63b8ff" points="858.35,-77.57 867.78,-72.74 857.39,-70.64 858.35,-77.57"/>
</a>
</g>
</g>
<!-- Node14 -->
<g id="Node000014" class="node">
<title>Node14</title>
<g id="a_Node000014"><a xlink:title=" ">
<polygon fill="#e0e0e0" stroke="#999999" points="1080.5,-74 973.5,-74 973.5,-55 1080.5,-55 1080.5,-74"/>
<text text-anchor="middle" x="1027" y="-62" font-family="Helvetica,sans-Serif" font-size="10.00">freertos/projdefs.h</text>
</a>
</g>
</g>
<!-- Node1&#45;&gt;Node14 -->
<g id="edge14_Node000001_Node000014" class="edge">
<title>Node1&#45;&gt;Node14</title>
<g id="a_edge14_Node000001_Node000014"><a xlink:title=" ">
<path fill="none" stroke="#63b8ff" d="M541.21,-113.39C633.84,-106.13 806.23,-91.83 962.95,-74.19"/>
<polygon fill="#63b8ff" stroke="#63b8ff" points="963.71,-77.63 973.25,-73.02 962.92,-70.67 963.71,-77.63"/>
</a>
</g>
</g>
<!-- Node3 -->
<g id="Node000003" class="node">
<title>Node3</title>
<g id="a_Node000003"><a xlink:title=" ">
<polygon fill="#e0e0e0" stroke="#999999" points="516.5,-19 455.5,-19 455.5,0 516.5,0 516.5,-19"/>
<text text-anchor="middle" x="486" y="-7" font-family="Helvetica,sans-Serif" font-size="10.00">esp_err.h</text>
</a>
</g>
</g>
<!-- Node2&#45;&gt;Node3 -->
<g id="edge2_Node000002_Node000003" class="edge">
<title>Node2&#45;&gt;Node3</title>
<g id="a_edge2_Node000002_Node000003"><a xlink:title=" ">
<path fill="none" stroke="#63b8ff" d="M636.24,-54.98C606.06,-46.05 558.43,-31.94 524.9,-22.02"/>
<polygon fill="#63b8ff" stroke="#63b8ff" points="525.57,-18.57 514.98,-19.08 523.58,-25.28 525.57,-18.57"/>
</a>
</g>
</g>
<!-- Node7 -->
<g id="Node000007" class="node">
<title>Node7</title>
<g id="a_Node000007"><a xlink:title=" ">
<polygon fill="#e0e0e0" stroke="#999999" points="100,-19 0,-19 0,0 100,0 100,-19"/>
<text text-anchor="middle" x="50" y="-7" font-family="Helvetica,sans-Serif" font-size="10.00">esp_heap_caps.h</text>
</a>
</g>
</g>
<!-- Node6&#45;&gt;Node7 -->
<g id="edge6_Node000006_Node000007" class="edge">
<title>Node6&#45;&gt;Node7</title>
<g id="a_edge6_Node000006_Node000007"><a xlink:title=" ">
<path fill="none" stroke="#63b8ff" d="M50,-54.75C50,-47.8 50,-37.85 50,-29.13"/>
<polygon fill="#63b8ff" stroke="#63b8ff" points="53.5,-29.09 50,-19.09 46.5,-29.09 53.5,-29.09"/>
</a>
</g>
</g>
<!-- Node11&#45;&gt;Node3 -->
<g id="edge11_Node000011_Node000003" class="edge">
<title>Node11&#45;&gt;Node3</title>
<g id="a_edge11_Node000011_Node000003"><a xlink:title=" ">
<path fill="none" stroke="#63b8ff" d="M335.76,-54.98C365.94,-46.05 413.57,-31.94 447.1,-22.02"/>
<polygon fill="#63b8ff" stroke="#63b8ff" points="448.42,-25.28 457.02,-19.08 446.43,-18.57 448.42,-25.28"/>
</a>
</g>
</g>
</g>
</svg>
