<?xml version="1.0" encoding="UTF-8" standalone="no"?>
<!DOCTYPE svg PUBLIC "-//W3C//DTD SVG 1.1//EN"
 "http://www.w3.org/Graphics/SVG/1.1/DTD/svg11.dtd">
<!-- Generated by graphviz version 2.43.0 (0)
 -->
<!-- Title: main/gt32l32s0140.c Pages: 1 -->
<svg width="1042pt" height="302pt"
 viewBox="0.00 0.00 1041.71 302.00" xmlns="http://www.w3.org/2000/svg" xmlns:xlink="http://www.w3.org/1999/xlink">
<g id="graph0" class="graph" transform="scale(1 1) rotate(0) translate(4 298)">
<title>main/gt32l32s0140.c</title>
<!-- Node1 -->
<g id="Node000001" class="node">
<title>Node1</title>
<g id="a_Node000001"><a xlink:title=" ">
<polygon fill="#999999" stroke="#666666" points="714,-294 595,-294 595,-275 714,-275 714,-294"/>
<text text-anchor="middle" x="654.5" y="-282" font-family="Helvetica,sans-Serif" font-size="10.00">main/gt32l32s0140.c</text>
</a>
</g>
</g>
<!-- Node2 -->
<g id="Node000002" class="node">
<title>Node2</title>
<g id="a_Node000002"><a xlink:href="gt32l32s0140_8h.html" target="_top" xlink:title=" ">
<polygon fill="white" stroke="#666666" points="484.5,-239 392.5,-239 392.5,-220 484.5,-220 484.5,-239"/>
<text text-anchor="middle" x="438.5" y="-227" font-family="Helvetica,sans-Serif" font-size="10.00">gt32l32s0140.h</text>
</a>
</g>
</g>
<!-- Node1&#45;&gt;Node2 -->
<g id="edge1_Node000001_Node000002" class="edge">
<title>Node1&#45;&gt;Node2</title>
<g id="a_edge1_Node000001_Node000002"><a xlink:title=" ">
<path fill="none" stroke="#63b8ff" d="M619.8,-274.98C582.75,-265.89 523.91,-251.46 483.37,-241.51"/>
<polygon fill="#63b8ff" stroke="#63b8ff" points="484.02,-238.07 473.48,-239.08 482.35,-244.86 484.02,-238.07"/>
</a>
</g>
</g>
<!-- Node4 -->
<g id="Node000004" class="node">
<title>Node4</title>
<g id="a_Node000004"><a xlink:href="board__ctrl_8h.html" target="_top" xlink:title=" ">
<polygon fill="white" stroke="#666666" points="549.5,-184 475.5,-184 475.5,-165 549.5,-165 549.5,-184"/>
<text text-anchor="middle" x="512.5" y="-172" font-family="Helvetica,sans-Serif" font-size="10.00">board_ctrl.h</text>
</a>
</g>
</g>
<!-- Node1&#45;&gt;Node4 -->
<g id="edge20_Node000001_Node000004" class="edge">
<title>Node1&#45;&gt;Node4</title>
<g id="a_edge20_Node000001_Node000004"><a xlink:title=" ">
<path fill="none" stroke="#63b8ff" d="M599.36,-274.98C575.62,-268.7 549.28,-257.81 531.5,-239 520.02,-226.86 515.45,-208.06 513.65,-194.07"/>
<polygon fill="#63b8ff" stroke="#63b8ff" points="517.13,-193.72 512.71,-184.09 510.16,-194.37 517.13,-193.72"/>
</a>
</g>
</g>
<!-- Node18 -->
<g id="Node000018" class="node">
<title>Node18</title>
<g id="a_Node000018"><a xlink:title=" ">
<polygon fill="#e0e0e0" stroke="#999999" points="654,-239 541,-239 541,-220 654,-220 654,-239"/>
<text text-anchor="middle" x="597.5" y="-227" font-family="Helvetica,sans-Serif" font-size="10.00">board_pins_config.h</text>
</a>
</g>
</g>
<!-- Node1&#45;&gt;Node18 -->
<g id="edge19_Node000001_Node000018" class="edge">
<title>Node1&#45;&gt;Node18</title>
<g id="a_edge19_Node000001_Node000018"><a xlink:title=" ">
<path fill="none" stroke="#63b8ff" d="M645.34,-274.98C637,-267.23 624.47,-255.58 614.32,-246.14"/>
<polygon fill="#63b8ff" stroke="#63b8ff" points="616.53,-243.42 606.82,-239.17 611.76,-248.54 616.53,-243.42"/>
</a>
</g>
</g>
<!-- Node19 -->
<g id="Node000019" class="node">
<title>Node19</title>
<g id="a_Node000019"><a xlink:title=" ">
<polygon fill="#e0e0e0" stroke="#999999" points="750.5,-239 672.5,-239 672.5,-220 750.5,-220 750.5,-239"/>
<text text-anchor="middle" x="711.5" y="-227" font-family="Helvetica,sans-Serif" font-size="10.00">driver/gpio.h</text>
</a>
</g>
</g>
<!-- Node1&#45;&gt;Node19 -->
<g id="edge21_Node000001_Node000019" class="edge">
<title>Node1&#45;&gt;Node19</title>
<g id="a_edge21_Node000001_Node000019"><a xlink:title=" ">
<path fill="none" stroke="#63b8ff" d="M663.66,-274.98C672,-267.23 684.53,-255.58 694.68,-246.14"/>
<polygon fill="#63b8ff" stroke="#63b8ff" points="697.24,-248.54 702.18,-239.17 692.47,-243.42 697.24,-248.54"/>
</a>
</g>
</g>
<!-- Node20 -->
<g id="Node000020" class="node">
<title>Node20</title>
<g id="a_Node000020"><a xlink:title=" ">
<polygon fill="#e0e0e0" stroke="#999999" points="862,-239 769,-239 769,-220 862,-220 862,-239"/>
<text text-anchor="middle" x="815.5" y="-227" font-family="Helvetica,sans-Serif" font-size="10.00">esp_intr_alloc.h</text>
</a>
</g>
</g>
<!-- Node1&#45;&gt;Node20 -->
<g id="edge22_Node000001_Node000020" class="edge">
<title>Node1&#45;&gt;Node20</title>
<g id="a_edge22_Node000001_Node000020"><a xlink:title=" ">
<path fill="none" stroke="#63b8ff" d="M680.37,-274.98C707.28,-266.13 749.62,-252.19 779.73,-242.28"/>
<polygon fill="#63b8ff" stroke="#63b8ff" points="781.03,-245.53 789.43,-239.08 778.84,-238.88 781.03,-245.53"/>
</a>
</g>
</g>
<!-- Node21 -->
<g id="Node000021" class="node">
<title>Node21</title>
<g id="a_Node000021"><a xlink:title=" ">
<polygon fill="#e0e0e0" stroke="#999999" points="943,-239 880,-239 880,-220 943,-220 943,-239"/>
<text text-anchor="middle" x="911.5" y="-227" font-family="Helvetica,sans-Serif" font-size="10.00">esp_log.h</text>
</a>
</g>
</g>
<!-- Node1&#45;&gt;Node21 -->
<g id="edge23_Node000001_Node000021" class="edge">
<title>Node1&#45;&gt;Node21</title>
<g id="a_edge23_Node000001_Node000021"><a xlink:title=" ">
<path fill="none" stroke="#63b8ff" d="M696.52,-274.97C738.12,-266.52 803.89,-253.09 869.52,-239.4"/>
<polygon fill="#63b8ff" stroke="#63b8ff" points="870.55,-242.76 879.63,-237.29 869.12,-235.91 870.55,-242.76"/>
</a>
</g>
</g>
<!-- Node3 -->
<g id="Node000003" class="node">
<title>Node3</title>
<g id="a_Node000003"><a xlink:title=" ">
<polygon fill="#e0e0e0" stroke="#999999" points="457,-184 396,-184 396,-165 457,-165 457,-184"/>
<text text-anchor="middle" x="426.5" y="-172" font-family="Helvetica,sans-Serif" font-size="10.00">esp_err.h</text>
</a>
</g>
</g>
<!-- Node2&#45;&gt;Node3 -->
<g id="edge2_Node000002_Node000003" class="edge">
<title>Node2&#45;&gt;Node3</title>
<g id="a_edge2_Node000002_Node000003"><a xlink:title=" ">
<path fill="none" stroke="#63b8ff" d="M436.52,-219.75C434.93,-212.72 432.64,-202.62 430.65,-193.84"/>
<polygon fill="#63b8ff" stroke="#63b8ff" points="434.07,-193.07 428.44,-184.09 427.24,-194.62 434.07,-193.07"/>
</a>
</g>
</g>
<!-- Node2&#45;&gt;Node4 -->
<g id="edge3_Node000002_Node000004" class="edge">
<title>Node2&#45;&gt;Node4</title>
<g id="a_edge3_Node000002_Node000004"><a xlink:title=" ">
<path fill="none" stroke="#63b8ff" d="M450.39,-219.98C461.65,-211.92 478.79,-199.65 492.21,-190.03"/>
<polygon fill="#63b8ff" stroke="#63b8ff" points="494.3,-192.84 500.39,-184.17 490.23,-187.15 494.3,-192.84"/>
</a>
</g>
</g>
<!-- Node5 -->
<g id="Node000005" class="node">
<title>Node5</title>
<g id="a_Node000005"><a xlink:title=" ">
<polygon fill="#e0e0e0" stroke="#999999" points="818,-74 743,-74 743,-55 818,-55 818,-74"/>
<text text-anchor="middle" x="780.5" y="-62" font-family="Helvetica,sans-Serif" font-size="10.00">esp_types.h</text>
</a>
</g>
</g>
<!-- Node4&#45;&gt;Node5 -->
<g id="edge4_Node000004_Node000005" class="edge">
<title>Node4&#45;&gt;Node5</title>
<g id="a_edge4_Node000004_Node000005"><a xlink:title=" ">
<path fill="none" stroke="#63b8ff" d="M549.81,-173.13C663.06,-171.63 997.18,-164.22 1029.5,-129 1035.21,-122.78 1034.92,-116.48 1029.5,-110 1004.35,-79.95 893.27,-70.17 828.28,-67.01"/>
<polygon fill="#63b8ff" stroke="#63b8ff" points="828.41,-63.51 818.26,-66.55 828.1,-70.5 828.41,-63.51"/>
</a>
</g>
</g>
<!-- Node6 -->
<g id="Node000006" class="node">
<title>Node6</title>
<g id="a_Node000006"><a xlink:title=" ">
<polygon fill="#e0e0e0" stroke="#999999" points="53,-19 0,-19 0,0 53,0 53,-19"/>
<text text-anchor="middle" x="26.5" y="-7" font-family="Helvetica,sans-Serif" font-size="10.00">string.h</text>
</a>
</g>
</g>
<!-- Node4&#45;&gt;Node6 -->
<g id="edge5_Node000004_Node000006" class="edge">
<title>Node4&#45;&gt;Node6</title>
<g id="a_edge5_Node000004_Node000006"><a xlink:title=" ">
<path fill="none" stroke="#63b8ff" d="M475.35,-166.45C472.03,-165.92 468.71,-165.43 465.5,-165 418.85,-158.81 77.72,-161.31 43.5,-129 16.39,-103.41 18.93,-55.5 22.87,-29.12"/>
<polygon fill="#63b8ff" stroke="#63b8ff" points="26.32,-29.7 24.57,-19.25 19.42,-28.52 26.32,-29.7"/>
</a>
</g>
</g>
<!-- Node7 -->
<g id="Node000007" class="node">
<title>Node7</title>
<g id="a_Node000007"><a xlink:title=" ">
<polygon fill="#e0e0e0" stroke="#999999" points="250.5,-129 176.5,-129 176.5,-110 250.5,-110 250.5,-129"/>
<text text-anchor="middle" x="213.5" y="-117" font-family="Helvetica,sans-Serif" font-size="10.00">board_def.h</text>
</a>
</g>
</g>
<!-- Node4&#45;&gt;Node7 -->
<g id="edge6_Node000004_Node000007" class="edge">
<title>Node4&#45;&gt;Node7</title>
<g id="a_edge6_Node000004_Node000007"><a xlink:title=" ">
<path fill="none" stroke="#63b8ff" d="M475.3,-166.75C471.99,-166.16 468.68,-165.57 465.5,-165 377.12,-149.29 352.63,-145.68 260.67,-129.2"/>
<polygon fill="#63b8ff" stroke="#63b8ff" points="261.11,-125.72 250.65,-127.4 259.88,-132.61 261.11,-125.72"/>
</a>
</g>
</g>
<!-- Node8 -->
<g id="Node000008" class="node">
<title>Node8</title>
<g id="a_Node000008"><a xlink:title=" ">
<polygon fill="#e0e0e0" stroke="#999999" points="342,-129 269,-129 269,-110 342,-110 342,-129"/>
<text text-anchor="middle" x="305.5" y="-117" font-family="Helvetica,sans-Serif" font-size="10.00">audio_hal.h</text>
</a>
</g>
</g>
<!-- Node4&#45;&gt;Node8 -->
<g id="edge7_Node000004_Node000008" class="edge">
<title>Node4&#45;&gt;Node8</title>
<g id="a_edge7_Node000004_Node000008"><a xlink:title=" ">
<path fill="none" stroke="#63b8ff" d="M479.24,-164.98C443.89,-155.93 387.83,-141.58 348.99,-131.64"/>
<polygon fill="#63b8ff" stroke="#63b8ff" points="349.57,-128.17 339.02,-129.08 347.84,-134.95 349.57,-128.17"/>
</a>
</g>
</g>
<!-- Node9 -->
<g id="Node000009" class="node">
<title>Node9</title>
<g id="a_Node000009"><a xlink:title=" ">
<polygon fill="#e0e0e0" stroke="#999999" points="463,-129 360,-129 360,-110 463,-110 463,-129"/>
<text text-anchor="middle" x="411.5" y="-117" font-family="Helvetica,sans-Serif" font-size="10.00">esxxx_common.h</text>
</a>
</g>
</g>
<!-- Node4&#45;&gt;Node9 -->
<g id="edge8_Node000004_Node000009" class="edge">
<title>Node4&#45;&gt;Node9</title>
<g id="a_edge8_Node000004_Node000009"><a xlink:title=" ">
<path fill="none" stroke="#63b8ff" d="M496.27,-164.98C480.32,-156.61 455.72,-143.7 437.12,-133.95"/>
<polygon fill="#63b8ff" stroke="#63b8ff" points="438.5,-130.72 428.02,-129.17 435.25,-136.92 438.5,-130.72"/>
</a>
</g>
</g>
<!-- Node10 -->
<g id="Node000010" class="node">
<title>Node10</title>
<g id="a_Node000010"><a xlink:href="sevetest30__gpio_8h.html" target="_top" xlink:title=" ">
<polygon fill="white" stroke="#666666" points="158.5,-129 52.5,-129 52.5,-110 158.5,-110 158.5,-129"/>
<text text-anchor="middle" x="105.5" y="-117" font-family="Helvetica,sans-Serif" font-size="10.00">sevetest30_gpio.h</text>
</a>
</g>
</g>
<!-- Node4&#45;&gt;Node10 -->
<g id="edge9_Node000004_Node000010" class="edge">
<title>Node4&#45;&gt;Node10</title>
<g id="a_edge9_Node000004_Node000010"><a xlink:title=" ">
<path fill="none" stroke="#63b8ff" d="M475.33,-166.57C472.01,-166.01 468.7,-165.48 465.5,-165 336.8,-145.61 301.52,-146.03 168.75,-129.14"/>
<polygon fill="#63b8ff" stroke="#63b8ff" points="168.96,-125.64 158.59,-127.84 168.07,-132.58 168.96,-125.64"/>
</a>
</g>
</g>
<!-- Node13 -->
<g id="Node000013" class="node">
<title>Node13</title>
<g id="a_Node000013"><a xlink:title=" ">
<polygon fill="#e0e0e0" stroke="#999999" points="633,-129 562,-129 562,-110 633,-110 633,-129"/>
<text text-anchor="middle" x="597.5" y="-117" font-family="Helvetica,sans-Serif" font-size="10.00">driver/i2c.h</text>
</a>
</g>
</g>
<!-- Node4&#45;&gt;Node13 -->
<g id="edge13_Node000004_Node000013" class="edge">
<title>Node4&#45;&gt;Node13</title>
<g id="a_edge13_Node000004_Node000013"><a xlink:title=" ">
<path fill="none" stroke="#63b8ff" d="M526.16,-164.98C539.34,-156.77 559.53,-144.18 575.07,-134.49"/>
<polygon fill="#63b8ff" stroke="#63b8ff" points="576.96,-137.43 583.59,-129.17 573.26,-131.49 576.96,-137.43"/>
</a>
</g>
</g>
<!-- Node14 -->
<g id="Node000014" class="node">
<title>Node14</title>
<g id="a_Node000014"><a xlink:title=" ">
<polygon fill="#e0e0e0" stroke="#999999" points="770,-129 651,-129 651,-110 770,-110 770,-129"/>
<text text-anchor="middle" x="710.5" y="-117" font-family="Helvetica,sans-Serif" font-size="10.00">driver/spi_common.h</text>
</a>
</g>
</g>
<!-- Node4&#45;&gt;Node14 -->
<g id="edge14_Node000004_Node000014" class="edge">
<title>Node4&#45;&gt;Node14</title>
<g id="a_edge14_Node000004_Node000014"><a xlink:title=" ">
<path fill="none" stroke="#63b8ff" d="M544.31,-164.98C577.99,-155.97 631.3,-141.7 668.42,-131.76"/>
<polygon fill="#63b8ff" stroke="#63b8ff" points="669.68,-135.05 678.44,-129.08 667.87,-128.29 669.68,-135.05"/>
</a>
</g>
</g>
<!-- Node15 -->
<g id="Node000015" class="node">
<title>Node15</title>
<g id="a_Node000015"><a xlink:title=" ">
<polygon fill="#e0e0e0" stroke="#999999" points="898.5,-129 788.5,-129 788.5,-110 898.5,-110 898.5,-129"/>
<text text-anchor="middle" x="843.5" y="-117" font-family="Helvetica,sans-Serif" font-size="10.00">driver/spi_master.h</text>
</a>
</g>
</g>
<!-- Node4&#45;&gt;Node15 -->
<g id="edge15_Node000004_Node000015" class="edge">
<title>Node4&#45;&gt;Node15</title>
<g id="a_edge15_Node000004_Node000015"><a xlink:title=" ">
<path fill="none" stroke="#63b8ff" d="M549.51,-167.57C605.35,-158.63 711.86,-141.58 780.19,-130.64"/>
<polygon fill="#63b8ff" stroke="#63b8ff" points="781.08,-134.04 790.4,-129 779.97,-127.13 781.08,-134.04"/>
</a>
</g>
</g>
<!-- Node16 -->
<g id="Node000016" class="node">
<title>Node16</title>
<g id="a_Node000016"><a xlink:title=" ">
<polygon fill="#e0e0e0" stroke="#999999" points="1020,-129 917,-129 917,-110 1020,-110 1020,-129"/>
<text text-anchor="middle" x="968.5" y="-117" font-family="Helvetica,sans-Serif" font-size="10.00">esp_peripherals.h</text>
</a>
</g>
</g>
<!-- Node4&#45;&gt;Node16 -->
<g id="edge16_Node000004_Node000016" class="edge">
<title>Node4&#45;&gt;Node16</title>
<g id="a_edge16_Node000004_Node000016"><a xlink:title=" ">
<path fill="none" stroke="#63b8ff" d="M549.57,-169.65C617.94,-162.48 768.75,-146.34 907,-129.03"/>
<polygon fill="#63b8ff" stroke="#63b8ff" points="907.44,-132.5 916.93,-127.78 906.57,-125.56 907.44,-132.5"/>
</a>
</g>
</g>
<!-- Node17 -->
<g id="Node000017" class="node">
<title>Node17</title>
<g id="a_Node000017"><a xlink:href="_b_l5372_8h.html" target="_top" xlink:title=" ">
<polygon fill="white" stroke="#666666" points="543.5,-129 481.5,-129 481.5,-110 543.5,-110 543.5,-129"/>
<text text-anchor="middle" x="512.5" y="-117" font-family="Helvetica,sans-Serif" font-size="10.00">BL5372.h</text>
</a>
</g>
</g>
<!-- Node4&#45;&gt;Node17 -->
<g id="edge17_Node000004_Node000017" class="edge">
<title>Node4&#45;&gt;Node17</title>
<g id="a_edge17_Node000004_Node000017"><a xlink:title=" ">
<path fill="none" stroke="#63b8ff" d="M512.5,-164.75C512.5,-157.8 512.5,-147.85 512.5,-139.13"/>
<polygon fill="#63b8ff" stroke="#63b8ff" points="516,-139.09 512.5,-129.09 509,-139.09 516,-139.09"/>
</a>
</g>
</g>
<!-- Node11 -->
<g id="Node000011" class="node">
<title>Node11</title>
<g id="a_Node000011"><a xlink:href="_t_c_a6416_a_8h.html" target="_top" xlink:title=" ">
<polygon fill="white" stroke="#666666" points="141,-74 66,-74 66,-55 141,-55 141,-74"/>
<text text-anchor="middle" x="103.5" y="-62" font-family="Helvetica,sans-Serif" font-size="10.00">TCA6416A.h</text>
</a>
</g>
</g>
<!-- Node10&#45;&gt;Node11 -->
<g id="edge10_Node000010_Node000011" class="edge">
<title>Node10&#45;&gt;Node11</title>
<g id="a_edge10_Node000010_Node000011"><a xlink:title=" ">
<path fill="none" stroke="#63b8ff" d="M105.17,-109.75C104.91,-102.8 104.53,-92.85 104.2,-84.13"/>
<polygon fill="#63b8ff" stroke="#63b8ff" points="107.7,-83.95 103.82,-74.09 100.7,-84.21 107.7,-83.95"/>
</a>
</g>
</g>
<!-- Node11&#45;&gt;Node6 -->
<g id="edge11_Node000011_Node000006" class="edge">
<title>Node11&#45;&gt;Node6</title>
<g id="a_edge11_Node000011_Node000006"><a xlink:title=" ">
<path fill="none" stroke="#63b8ff" d="M91.13,-54.98C79.41,-46.92 61.58,-34.65 47.61,-25.03"/>
<polygon fill="#63b8ff" stroke="#63b8ff" points="49.32,-21.96 39.1,-19.17 45.35,-27.72 49.32,-21.96"/>
</a>
</g>
</g>
<!-- Node12 -->
<g id="Node000012" class="node">
<title>Node12</title>
<g id="a_Node000012"><a xlink:title=" ">
<polygon fill="#e0e0e0" stroke="#999999" points="134.5,-19 72.5,-19 72.5,0 134.5,0 134.5,-19"/>
<text text-anchor="middle" x="103.5" y="-7" font-family="Helvetica,sans-Serif" font-size="10.00">stdbool.h</text>
</a>
</g>
</g>
<!-- Node11&#45;&gt;Node12 -->
<g id="edge12_Node000011_Node000012" class="edge">
<title>Node11&#45;&gt;Node12</title>
<g id="a_edge12_Node000011_Node000012"><a xlink:title=" ">
<path fill="none" stroke="#63b8ff" d="M103.5,-54.75C103.5,-47.8 103.5,-37.85 103.5,-29.13"/>
<polygon fill="#63b8ff" stroke="#63b8ff" points="107,-29.09 103.5,-19.09 100,-29.09 107,-29.09"/>
</a>
</g>
</g>
<!-- Node17&#45;&gt;Node5 -->
<g id="edge18_Node000017_Node000005" class="edge">
<title>Node17&#45;&gt;Node5</title>
<g id="a_edge18_Node000017_Node000005"><a xlink:title=" ">
<path fill="none" stroke="#63b8ff" d="M543.93,-111.77C546.83,-111.16 549.72,-110.57 552.5,-110 614.77,-97.31 686.77,-83.38 732.93,-74.55"/>
<polygon fill="#63b8ff" stroke="#63b8ff" points="733.78,-77.95 742.94,-72.63 732.46,-71.07 733.78,-77.95"/>
</a>
</g>
</g>
</g>
</svg>
