<?xml version="1.0" encoding="UTF-8" standalone="no"?>
<!DOCTYPE svg PUBLIC "-//W3C//DTD SVG 1.1//EN"
 "http://www.w3.org/Graphics/SVG/1.1/DTD/svg11.dtd">
<!-- Generated by graphviz version 2.43.0 (0)
 -->
<!-- Title: main/main.c Pages: 1 -->
<svg width="2713pt" height="357pt"
 viewBox="0.00 0.00 2713.00 357.00" xmlns="http://www.w3.org/2000/svg" xmlns:xlink="http://www.w3.org/1999/xlink">
<g id="graph0" class="graph" transform="scale(1 1) rotate(0) translate(4 353)">
<title>main/main.c</title>
<!-- Node1 -->
<g id="Node000001" class="node">
<title>Node1</title>
<g id="a_Node000001"><a xlink:title=" ">
<polygon fill="#999999" stroke="#666666" points="1700.5,-349 1623.5,-349 1623.5,-330 1700.5,-330 1700.5,-349"/>
<text text-anchor="middle" x="1662" y="-337" font-family="Helvetica,sans-Serif" font-size="10.00">main/main.c</text>
</a>
</g>
</g>
<!-- Node2 -->
<g id="Node000002" class="node">
<title>Node2</title>
<g id="a_Node000002"><a xlink:title=" ">
<polygon fill="#e0e0e0" stroke="#999999" points="1680.5,-19 1627.5,-19 1627.5,0 1680.5,0 1680.5,-19"/>
<text text-anchor="middle" x="1654" y="-7" font-family="Helvetica,sans-Serif" font-size="10.00">string.h</text>
</a>
</g>
</g>
<!-- Node1&#45;&gt;Node2 -->
<g id="edge1_Node000001_Node000002" class="edge">
<title>Node1&#45;&gt;Node2</title>
<g id="a_edge1_Node000001_Node000002"><a xlink:title=" ">
<path fill="none" stroke="#63b8ff" d="M1700.78,-338.63C1820.79,-338.01 2178,-327.97 2178,-230.5 2178,-230.5 2178,-230.5 2178,-118.5 2178,-93.59 1810.03,-34.59 1690.8,-16.12"/>
<polygon fill="#63b8ff" stroke="#63b8ff" points="1691.12,-12.63 1680.71,-14.57 1690.05,-19.55 1691.12,-12.63"/>
</a>
</g>
</g>
<!-- Node3 -->
<g id="Node000003" class="node">
<title>Node3</title>
<g id="a_Node000003"><a xlink:title=" ">
<polygon fill="#e0e0e0" stroke="#999999" points="1590,-19 1528,-19 1528,0 1590,0 1590,-19"/>
<text text-anchor="middle" x="1559" y="-7" font-family="Helvetica,sans-Serif" font-size="10.00">stdbool.h</text>
</a>
</g>
</g>
<!-- Node1&#45;&gt;Node3 -->
<g id="edge2_Node000001_Node000003" class="edge">
<title>Node1&#45;&gt;Node3</title>
<g id="a_edge2_Node000001_Node000003"><a xlink:title=" ">
<path fill="none" stroke="#63b8ff" d="M1623.1,-335.87C1567.36,-329.67 1467.49,-308.86 1431,-239 1404.28,-187.85 1468.06,-177.07 1500,-129 1522.27,-95.48 1541.67,-52.38 1551.72,-28.49"/>
<polygon fill="#63b8ff" stroke="#63b8ff" points="1554.96,-29.81 1555.54,-19.23 1548.49,-27.14 1554.96,-29.81"/>
</a>
</g>
</g>
<!-- Node4 -->
<g id="Node000004" class="node">
<title>Node4</title>
<g id="a_Node000004"><a xlink:title=" ">
<polygon fill="#e0e0e0" stroke="#999999" points="1833.5,-184 1720.5,-184 1720.5,-165 1833.5,-165 1833.5,-184"/>
<text text-anchor="middle" x="1777" y="-172" font-family="Helvetica,sans-Serif" font-size="10.00">freertos/FreeRTOS.h</text>
</a>
</g>
</g>
<!-- Node1&#45;&gt;Node4 -->
<g id="edge3_Node000001_Node000004" class="edge">
<title>Node1&#45;&gt;Node4</title>
<g id="a_edge3_Node000001_Node000004"><a xlink:title=" ">
<path fill="none" stroke="#63b8ff" d="M1683.29,-329.98C1699.24,-322.61 1720.56,-310.53 1734,-294 1758.3,-264.11 1769.52,-219.29 1774.15,-194.21"/>
<polygon fill="#63b8ff" stroke="#63b8ff" points="1777.63,-194.64 1775.84,-184.2 1770.72,-193.48 1777.63,-194.64"/>
</a>
</g>
</g>
<!-- Node5 -->
<g id="Node000005" class="node">
<title>Node5</title>
<g id="a_Node000005"><a xlink:title=" ">
<polygon fill="#e0e0e0" stroke="#999999" points="1940,-184 1852,-184 1852,-165 1940,-165 1940,-184"/>
<text text-anchor="middle" x="1896" y="-172" font-family="Helvetica,sans-Serif" font-size="10.00">freertos/task.h</text>
</a>
</g>
</g>
<!-- Node1&#45;&gt;Node5 -->
<g id="edge4_Node000001_Node000005" class="edge">
<title>Node1&#45;&gt;Node5</title>
<g id="a_edge4_Node000001_Node000005"><a xlink:title=" ">
<path fill="none" stroke="#63b8ff" d="M1685.33,-329.87C1704.88,-322.06 1733.03,-309.44 1755,-294 1793.31,-267.08 1793.76,-249.66 1830,-220 1843.51,-208.94 1859.76,-197.96 1872.75,-189.67"/>
<polygon fill="#63b8ff" stroke="#63b8ff" points="1874.94,-192.43 1881.56,-184.15 1871.22,-186.5 1874.94,-192.43"/>
</a>
</g>
</g>
<!-- Node6 -->
<g id="Node000006" class="node">
<title>Node6</title>
<g id="a_Node000006"><a xlink:title=" ">
<polygon fill="#e0e0e0" stroke="#999999" points="2313.5,-294 2206.5,-294 2206.5,-275 2313.5,-275 2313.5,-294"/>
<text text-anchor="middle" x="2260" y="-282" font-family="Helvetica,sans-Serif" font-size="10.00">freertos/projdefs.h</text>
</a>
</g>
</g>
<!-- Node1&#45;&gt;Node6 -->
<g id="edge5_Node000001_Node000006" class="edge">
<title>Node1&#45;&gt;Node6</title>
<g id="a_edge5_Node000001_Node000006"><a xlink:title=" ">
<path fill="none" stroke="#63b8ff" d="M1700.62,-335.8C1788.16,-329.55 2008.32,-313.18 2192,-294 2193.3,-293.86 2194.61,-293.72 2195.93,-293.58"/>
<polygon fill="#63b8ff" stroke="#63b8ff" points="2196.65,-297.02 2206.2,-292.43 2195.87,-290.07 2196.65,-297.02"/>
</a>
</g>
</g>
<!-- Node7 -->
<g id="Node000007" class="node">
<title>Node7</title>
<g id="a_Node000007"><a xlink:title=" ">
<polygon fill="#e0e0e0" stroke="#999999" points="2394.5,-294 2331.5,-294 2331.5,-275 2394.5,-275 2394.5,-294"/>
<text text-anchor="middle" x="2363" y="-282" font-family="Helvetica,sans-Serif" font-size="10.00">esp_log.h</text>
</a>
</g>
</g>
<!-- Node1&#45;&gt;Node7 -->
<g id="edge6_Node000001_Node000007" class="edge">
<title>Node1&#45;&gt;Node7</title>
<g id="a_edge6_Node000001_Node000007"><a xlink:title=" ">
<path fill="none" stroke="#63b8ff" d="M1700.5,-337.75C1800.99,-335.39 2079.56,-326.34 2321.26,-293.88"/>
<polygon fill="#63b8ff" stroke="#63b8ff" points="2321.85,-297.34 2331.29,-292.52 2320.91,-290.4 2321.85,-297.34"/>
</a>
</g>
</g>
<!-- Node8 -->
<g id="Node000008" class="node">
<title>Node8</title>
<g id="a_Node000008"><a xlink:title=" ">
<polygon fill="#e0e0e0" stroke="#999999" points="720.5,-129 617.5,-129 617.5,-110 720.5,-110 720.5,-129"/>
<text text-anchor="middle" x="669" y="-117" font-family="Helvetica,sans-Serif" font-size="10.00">esp_peripherals.h</text>
</a>
</g>
</g>
<!-- Node1&#45;&gt;Node8 -->
<g id="edge7_Node000001_Node000008" class="edge">
<title>Node1&#45;&gt;Node8</title>
<g id="a_edge7_Node000001_Node000008"><a xlink:title=" ">
<path fill="none" stroke="#63b8ff" d="M1623.25,-336.99C1547.69,-333.5 1375.65,-322.83 1234,-294 1026.26,-251.72 785.84,-164.68 700.79,-132.66"/>
<polygon fill="#63b8ff" stroke="#63b8ff" points="701.79,-129.3 691.2,-129.04 699.32,-135.85 701.79,-129.3"/>
</a>
</g>
</g>
<!-- Node9 -->
<g id="Node000009" class="node">
<title>Node9</title>
<g id="a_Node000009"><a xlink:title=" ">
<polygon fill="#e0e0e0" stroke="#999999" points="256,-74 182,-74 182,-55 256,-55 256,-74"/>
<text text-anchor="middle" x="219" y="-62" font-family="Helvetica,sans-Serif" font-size="10.00">board_def.h</text>
</a>
</g>
</g>
<!-- Node1&#45;&gt;Node9 -->
<g id="edge8_Node000001_Node000009" class="edge">
<title>Node1&#45;&gt;Node9</title>
<g id="a_edge8_Node000001_Node000009"><a xlink:title=" ">
<path fill="none" stroke="#63b8ff" d="M1623.21,-337.95C1380.15,-334.22 77,-310.53 77,-230.5 77,-230.5 77,-230.5 77,-173.5 77,-144.04 75.77,-131.41 96,-110 115.83,-89.02 146.3,-77.9 171.95,-72.03"/>
<polygon fill="#63b8ff" stroke="#63b8ff" points="172.8,-75.42 181.87,-69.95 171.36,-68.57 172.8,-75.42"/>
</a>
</g>
</g>
<!-- Node10 -->
<g id="Node000010" class="node">
<title>Node10</title>
<g id="a_Node000010"><a xlink:href="board__ctrl_8h.html" target="_top" xlink:title=" ">
<polygon fill="white" stroke="#666666" points="1208,-184 1134,-184 1134,-165 1208,-165 1208,-184"/>
<text text-anchor="middle" x="1171" y="-172" font-family="Helvetica,sans-Serif" font-size="10.00">board_ctrl.h</text>
</a>
</g>
</g>
<!-- Node1&#45;&gt;Node10 -->
<g id="edge9_Node000001_Node000010" class="edge">
<title>Node1&#45;&gt;Node10</title>
<g id="a_edge9_Node000001_Node000010"><a xlink:title=" ">
<path fill="none" stroke="#63b8ff" d="M1623.09,-337.84C1564.33,-335.73 1450.25,-327.27 1360,-294 1291.58,-268.78 1221.56,-216.55 1189.31,-190.69"/>
<polygon fill="#63b8ff" stroke="#63b8ff" points="1191.21,-187.73 1181.25,-184.14 1186.8,-193.16 1191.21,-187.73"/>
</a>
</g>
</g>
<!-- Node12 -->
<g id="Node000012" class="node">
<title>Node12</title>
<g id="a_Node000012"><a xlink:title=" ">
<polygon fill="#e0e0e0" stroke="#999999" points="1793.5,-129 1720.5,-129 1720.5,-110 1793.5,-110 1793.5,-129"/>
<text text-anchor="middle" x="1757" y="-117" font-family="Helvetica,sans-Serif" font-size="10.00">audio_hal.h</text>
</a>
</g>
</g>
<!-- Node1&#45;&gt;Node12 -->
<g id="edge31_Node000001_Node000012" class="edge">
<title>Node1&#45;&gt;Node12</title>
<g id="a_edge31_Node000001_Node000012"><a xlink:title=" ">
<path fill="none" stroke="#63b8ff" d="M1665.39,-329.83C1671.99,-312.7 1686.74,-273.18 1696,-239 1704.78,-206.61 1694.88,-194.43 1711,-165 1717.21,-153.66 1727.28,-143.43 1736.42,-135.65"/>
<polygon fill="#63b8ff" stroke="#63b8ff" points="1738.81,-138.22 1744.41,-129.23 1734.42,-132.77 1738.81,-138.22"/>
</a>
</g>
</g>
<!-- Node15 -->
<g id="Node000015" class="node">
<title>Node15</title>
<g id="a_Node000015"><a xlink:href="_t_c_a6416_a_8h.html" target="_top" xlink:title=" ">
<polygon fill="white" stroke="#666666" points="1511.5,-74 1436.5,-74 1436.5,-55 1511.5,-55 1511.5,-74"/>
<text text-anchor="middle" x="1474" y="-62" font-family="Helvetica,sans-Serif" font-size="10.00">TCA6416A.h</text>
</a>
</g>
</g>
<!-- Node1&#45;&gt;Node15 -->
<g id="edge74_Node000001_Node000015" class="edge">
<title>Node1&#45;&gt;Node15</title>
<g id="a_edge74_Node000001_Node000015"><a xlink:title=" ">
<path fill="none" stroke="#63b8ff" d="M1623.31,-337.85C1557.09,-335.83 1426.4,-327.59 1398,-294 1360.98,-250.22 1366.34,-212.8 1398,-165 1420.66,-130.8 1460.34,-163.2 1483,-129 1491.92,-115.54 1487.84,-96.95 1482.63,-83.36"/>
<polygon fill="#63b8ff" stroke="#63b8ff" points="1485.81,-81.9 1478.63,-74.12 1479.39,-84.68 1485.81,-81.9"/>
</a>
</g>
</g>
<!-- Node21 -->
<g id="Node000021" class="node">
<title>Node21</title>
<g id="a_Node000021"><a xlink:title=" ">
<polygon fill="#e0e0e0" stroke="#999999" points="2525.5,-294 2412.5,-294 2412.5,-275 2525.5,-275 2525.5,-294"/>
<text text-anchor="middle" x="2469" y="-282" font-family="Helvetica,sans-Serif" font-size="10.00">board_pins_config.h</text>
</a>
</g>
</g>
<!-- Node1&#45;&gt;Node21 -->
<g id="edge27_Node000001_Node000021" class="edge">
<title>Node1&#45;&gt;Node21</title>
<g id="a_edge27_Node000001_Node000021"><a xlink:title=" ">
<path fill="none" stroke="#63b8ff" d="M1700.64,-337.11C1809.3,-333 2126.95,-319.62 2401.97,-294.03"/>
<polygon fill="#63b8ff" stroke="#63b8ff" points="2402.52,-297.49 2412.15,-293.07 2401.86,-290.52 2402.52,-297.49"/>
</a>
</g>
</g>
<!-- Node22 -->
<g id="Node000022" class="node">
<title>Node22</title>
<g id="a_Node000022"><a xlink:href="gt32l32s0140_8h.html" target="_top" xlink:title=" ">
<polygon fill="white" stroke="#666666" points="1217,-239 1125,-239 1125,-220 1217,-220 1217,-239"/>
<text text-anchor="middle" x="1171" y="-227" font-family="Helvetica,sans-Serif" font-size="10.00">gt32l32s0140.h</text>
</a>
</g>
</g>
<!-- Node1&#45;&gt;Node22 -->
<g id="edge28_Node000001_Node000022" class="edge">
<title>Node1&#45;&gt;Node22</title>
<g id="a_edge28_Node000001_Node000022"><a xlink:title=" ">
<path fill="none" stroke="#63b8ff" d="M1623.4,-339.34C1552.7,-339.75 1398.53,-335.27 1277,-294 1243.91,-282.76 1210.01,-260.12 1189.73,-245.13"/>
<polygon fill="#63b8ff" stroke="#63b8ff" points="1191.76,-242.27 1181.67,-239.04 1187.54,-247.86 1191.76,-242.27"/>
</a>
</g>
</g>
<!-- Node23 -->
<g id="Node000023" class="node">
<title>Node23</title>
<g id="a_Node000023"><a xlink:href="sevetest30___i_w_e_d_a_8h.html" target="_top" xlink:title=" ">
<polygon fill="white" stroke="#666666" points="1876,-74 1758,-74 1758,-55 1876,-55 1876,-74"/>
<text text-anchor="middle" x="1817" y="-62" font-family="Helvetica,sans-Serif" font-size="10.00">sevetest30_IWEDA.h</text>
</a>
</g>
</g>
<!-- Node1&#45;&gt;Node23 -->
<g id="edge32_Node000001_Node000023" class="edge">
<title>Node1&#45;&gt;Node23</title>
<g id="a_edge32_Node000001_Node000023"><a xlink:title=" ">
<path fill="none" stroke="#63b8ff" d="M1700.71,-337.99C1814.51,-335.46 2140,-320.36 2140,-230.5 2140,-230.5 2140,-230.5 2140,-173.5 2140,-120.44 1981.27,-88.7 1886.35,-74.46"/>
<polygon fill="#63b8ff" stroke="#63b8ff" points="1886.65,-70.97 1876.24,-72.97 1885.63,-77.89 1886.65,-70.97"/>
</a>
</g>
</g>
<!-- Node26 -->
<g id="Node000026" class="node">
<title>Node26</title>
<g id="a_Node000026"><a xlink:href="sevetest30___s_w_e_d_a_8h.html" target="_top" xlink:title=" ">
<polygon fill="white" stroke="#666666" points="453.5,-184 332.5,-184 332.5,-165 453.5,-165 453.5,-184"/>
<text text-anchor="middle" x="393" y="-172" font-family="Helvetica,sans-Serif" font-size="10.00">sevetest30_SWEDA.h</text>
</a>
</g>
</g>
<!-- Node1&#45;&gt;Node26 -->
<g id="edge37_Node000001_Node000026" class="edge">
<title>Node1&#45;&gt;Node26</title>
<g id="a_edge37_Node000001_Node000026"><a xlink:title=" ">
<path fill="none" stroke="#63b8ff" d="M1623.29,-338.04C1464.56,-335.97 863.04,-326.12 676,-294 593.14,-279.77 571.56,-273.74 495,-239 464.85,-225.32 432.89,-204.2 412.94,-190.12"/>
<polygon fill="#63b8ff" stroke="#63b8ff" points="414.84,-187.18 404.67,-184.2 410.76,-192.87 414.84,-187.18"/>
</a>
</g>
</g>
<!-- Node31 -->
<g id="Node000031" class="node">
<title>Node31</title>
<g id="a_Node000031"><a xlink:href="sevetest30___b_w_e_d_a_8h.html" target="_top" xlink:title=" ">
<polygon fill="white" stroke="#666666" points="122,-74 0,-74 0,-55 122,-55 122,-74"/>
<text text-anchor="middle" x="61" y="-62" font-family="Helvetica,sans-Serif" font-size="10.00">sevetest30_BWEDA.h</text>
</a>
</g>
</g>
<!-- Node1&#45;&gt;Node31 -->
<g id="edge51_Node000001_Node000031" class="edge">
<title>Node1&#45;&gt;Node31</title>
<g id="a_edge51_Node000001_Node000031"><a xlink:title=" ">
<path fill="none" stroke="#63b8ff" d="M1623.29,-338.74C1424.33,-339.75 515.29,-341.62 238,-294 146.5,-278.29 39,-323.34 39,-230.5 39,-230.5 39,-230.5 39,-173.5 39,-141.4 48.45,-104.99 54.96,-83.71"/>
<polygon fill="#63b8ff" stroke="#63b8ff" points="58.33,-84.65 58.03,-74.06 51.66,-82.53 58.33,-84.65"/>
</a>
</g>
</g>
<!-- Node32 -->
<g id="Node000032" class="node">
<title>Node32</title>
<g id="a_Node000032"><a xlink:href="sevetest30___led_array_8h.html" target="_top" xlink:title=" ">
<polygon fill="white" stroke="#666666" points="1667.5,-294 1540.5,-294 1540.5,-275 1667.5,-275 1667.5,-294"/>
<text text-anchor="middle" x="1604" y="-282" font-family="Helvetica,sans-Serif" font-size="10.00">sevetest30_LedArray.h</text>
</a>
</g>
</g>
<!-- Node1&#45;&gt;Node32 -->
<g id="edge53_Node000001_Node000032" class="edge">
<title>Node1&#45;&gt;Node32</title>
<g id="a_edge53_Node000001_Node000032"><a xlink:title=" ">
<path fill="none" stroke="#63b8ff" d="M1652.68,-329.98C1644.19,-322.23 1631.44,-310.58 1621.12,-301.14"/>
<polygon fill="#63b8ff" stroke="#63b8ff" points="1623.23,-298.33 1613.49,-294.17 1618.51,-303.5 1623.23,-298.33"/>
</a>
</g>
</g>
<!-- Node34 -->
<g id="Node000034" class="node">
<title>Node34</title>
<g id="a_Node000034"><a xlink:href="sevetest30___u_i_8h.html" target="_top" xlink:title=" ">
<polygon fill="white" stroke="#666666" points="1535.5,-239 1440.5,-239 1440.5,-220 1535.5,-220 1535.5,-239"/>
<text text-anchor="middle" x="1488" y="-227" font-family="Helvetica,sans-Serif" font-size="10.00">sevetest30_UI.h</text>
</a>
</g>
</g>
<!-- Node1&#45;&gt;Node34 -->
<g id="edge65_Node000001_Node000034" class="edge">
<title>Node1&#45;&gt;Node34</title>
<g id="a_edge65_Node000001_Node000034"><a xlink:title=" ">
<path fill="none" stroke="#63b8ff" d="M1623.34,-332.19C1595.46,-326.11 1558.12,-314.68 1531,-294 1515.32,-282.05 1503.4,-262.68 1496.13,-248.47"/>
<polygon fill="#63b8ff" stroke="#63b8ff" points="1499.16,-246.71 1491.67,-239.22 1492.86,-249.75 1499.16,-246.71"/>
</a>
</g>
</g>
<!-- Node36 -->
<g id="Node000036" class="node">
<title>Node36</title>
<g id="a_Node000036"><a xlink:href="sevetest30__sound_8h.html" target="_top" xlink:title=" ">
<polygon fill="white" stroke="#666666" points="1953,-239 1839,-239 1839,-220 1953,-220 1953,-239"/>
<text text-anchor="middle" x="1896" y="-227" font-family="Helvetica,sans-Serif" font-size="10.00">sevetest30_sound.h</text>
</a>
</g>
</g>
<!-- Node1&#45;&gt;Node36 -->
<g id="edge66_Node000001_Node000036" class="edge">
<title>Node1&#45;&gt;Node36</title>
<g id="a_edge66_Node000001_Node000036"><a xlink:title=" ">
<path fill="none" stroke="#63b8ff" d="M1700.82,-331.97C1733.42,-325.45 1780.54,-313.53 1818,-294 1842.04,-281.47 1865.61,-260.78 1880.44,-246.44"/>
<polygon fill="#63b8ff" stroke="#63b8ff" points="1883.08,-248.74 1887.72,-239.22 1878.16,-243.77 1883.08,-248.74"/>
</a>
</g>
</g>
<!-- Node38 -->
<g id="Node000038" class="node">
<title>Node38</title>
<g id="a_Node000038"><a xlink:href="sevetest30__touch_8h.html" target="_top" xlink:title=" ">
<polygon fill="white" stroke="#666666" points="2656,-294 2544,-294 2544,-275 2656,-275 2656,-294"/>
<text text-anchor="middle" x="2600" y="-282" font-family="Helvetica,sans-Serif" font-size="10.00">sevetest30_touch.h</text>
</a>
</g>
</g>
<!-- Node1&#45;&gt;Node38 -->
<g id="edge71_Node000001_Node000038" class="edge">
<title>Node1&#45;&gt;Node38</title>
<g id="a_edge71_Node000001_Node000038"><a xlink:title=" ">
<path fill="none" stroke="#63b8ff" d="M1700.75,-337.59C1821.96,-334.51 2204.83,-323.07 2533.66,-293.94"/>
<polygon fill="#63b8ff" stroke="#63b8ff" points="2534.21,-297.4 2543.86,-293.03 2533.59,-290.43 2534.21,-297.4"/>
</a>
</g>
</g>
<!-- Node10&#45;&gt;Node2 -->
<g id="edge11_Node000010_Node000002" class="edge">
<title>Node10&#45;&gt;Node2</title>
<g id="a_edge11_Node000010_Node000002"><a xlink:title=" ">
<path fill="none" stroke="#63b8ff" d="M1208.43,-173.65C1268.45,-172.71 1389.02,-165.87 1483,-129 1546.04,-104.27 1608.47,-52.2 1637.36,-26.1"/>
<polygon fill="#63b8ff" stroke="#63b8ff" points="1639.9,-28.52 1644.91,-19.19 1635.17,-23.36 1639.9,-28.52"/>
</a>
</g>
</g>
<!-- Node10&#45;&gt;Node8 -->
<g id="edge23_Node000010_Node000008" class="edge">
<title>Node10&#45;&gt;Node8</title>
<g id="a_edge23_Node000010_Node000008"><a xlink:title=" ">
<path fill="none" stroke="#63b8ff" d="M1133.68,-169.56C1048.03,-160.52 836.62,-138.2 731.06,-127.05"/>
<polygon fill="#63b8ff" stroke="#63b8ff" points="731.19,-123.55 720.87,-125.98 730.45,-130.51 731.19,-123.55"/>
</a>
</g>
</g>
<!-- Node10&#45;&gt;Node9 -->
<g id="edge12_Node000010_Node000009" class="edge">
<title>Node10&#45;&gt;Node9</title>
<g id="a_edge12_Node000010_Node000009"><a xlink:title=" ">
<path fill="none" stroke="#63b8ff" d="M1133.91,-172.71C979.8,-169.27 394.41,-154.62 316,-129 299.63,-123.65 261.8,-97.08 238.51,-80.04"/>
<polygon fill="#63b8ff" stroke="#63b8ff" points="240.5,-77.16 230.38,-74.05 236.35,-82.8 240.5,-77.16"/>
</a>
</g>
</g>
<!-- Node11 -->
<g id="Node000011" class="node">
<title>Node11</title>
<g id="a_Node000011"><a xlink:title=" ">
<polygon fill="#e0e0e0" stroke="#999999" points="551.5,-74 476.5,-74 476.5,-55 551.5,-55 551.5,-74"/>
<text text-anchor="middle" x="514" y="-62" font-family="Helvetica,sans-Serif" font-size="10.00">esp_types.h</text>
</a>
</g>
</g>
<!-- Node10&#45;&gt;Node11 -->
<g id="edge10_Node000010_Node000011" class="edge">
<title>Node10&#45;&gt;Node11</title>
<g id="a_edge10_Node000010_Node000011"><a xlink:title=" ">
<path fill="none" stroke="#63b8ff" d="M1133.63,-169.09C1072.79,-161.76 948.59,-146.17 844,-129 743.17,-112.45 625.86,-88.83 561.8,-75.55"/>
<polygon fill="#63b8ff" stroke="#63b8ff" points="562.49,-72.12 551.99,-73.51 561.07,-78.97 562.49,-72.12"/>
</a>
</g>
</g>
<!-- Node10&#45;&gt;Node12 -->
<g id="edge13_Node000010_Node000012" class="edge">
<title>Node10&#45;&gt;Node12</title>
<g id="a_edge13_Node000010_Node000012"><a xlink:title=" ">
<path fill="none" stroke="#63b8ff" d="M1208.1,-170.14C1310.57,-160.88 1597.35,-134.94 1710.37,-124.72"/>
<polygon fill="#63b8ff" stroke="#63b8ff" points="1710.79,-128.19 1720.44,-123.81 1710.16,-121.22 1710.79,-128.19"/>
</a>
</g>
</g>
<!-- Node13 -->
<g id="Node000013" class="node">
<title>Node13</title>
<g id="a_Node000013"><a xlink:title=" ">
<polygon fill="#e0e0e0" stroke="#999999" points="1222.5,-129 1119.5,-129 1119.5,-110 1222.5,-110 1222.5,-129"/>
<text text-anchor="middle" x="1171" y="-117" font-family="Helvetica,sans-Serif" font-size="10.00">esxxx_common.h</text>
</a>
</g>
</g>
<!-- Node10&#45;&gt;Node13 -->
<g id="edge14_Node000010_Node000013" class="edge">
<title>Node10&#45;&gt;Node13</title>
<g id="a_edge14_Node000010_Node000013"><a xlink:title=" ">
<path fill="none" stroke="#63b8ff" d="M1171,-164.75C1171,-157.8 1171,-147.85 1171,-139.13"/>
<polygon fill="#63b8ff" stroke="#63b8ff" points="1174.5,-139.09 1171,-129.09 1167.5,-139.09 1174.5,-139.09"/>
</a>
</g>
</g>
<!-- Node14 -->
<g id="Node000014" class="node">
<title>Node14</title>
<g id="a_Node000014"><a xlink:href="sevetest30__gpio_8h.html" target="_top" xlink:title=" ">
<polygon fill="white" stroke="#666666" points="1474,-129 1368,-129 1368,-110 1474,-110 1474,-129"/>
<text text-anchor="middle" x="1421" y="-117" font-family="Helvetica,sans-Serif" font-size="10.00">sevetest30_gpio.h</text>
</a>
</g>
</g>
<!-- Node10&#45;&gt;Node14 -->
<g id="edge15_Node000010_Node000014" class="edge">
<title>Node10&#45;&gt;Node14</title>
<g id="a_edge15_Node000010_Node000014"><a xlink:title=" ">
<path fill="none" stroke="#63b8ff" d="M1208.16,-165.62C1251.33,-156.47 1322.78,-141.32 1370.85,-131.13"/>
<polygon fill="#63b8ff" stroke="#63b8ff" points="1371.68,-134.53 1380.74,-129.04 1370.23,-127.69 1371.68,-134.53"/>
</a>
</g>
</g>
<!-- Node17 -->
<g id="Node000017" class="node">
<title>Node17</title>
<g id="a_Node000017"><a xlink:title=" ">
<polygon fill="#e0e0e0" stroke="#999999" points="1311.5,-129 1240.5,-129 1240.5,-110 1311.5,-110 1311.5,-129"/>
<text text-anchor="middle" x="1276" y="-117" font-family="Helvetica,sans-Serif" font-size="10.00">driver/i2c.h</text>
</a>
</g>
</g>
<!-- Node10&#45;&gt;Node17 -->
<g id="edge20_Node000010_Node000017" class="edge">
<title>Node10&#45;&gt;Node17</title>
<g id="a_edge20_Node000010_Node000017"><a xlink:title=" ">
<path fill="none" stroke="#63b8ff" d="M1187.87,-164.98C1204.61,-156.54 1230.5,-143.47 1249.89,-133.68"/>
<polygon fill="#63b8ff" stroke="#63b8ff" points="1251.47,-136.8 1258.82,-129.17 1248.32,-130.55 1251.47,-136.8"/>
</a>
</g>
</g>
<!-- Node18 -->
<g id="Node000018" class="node">
<title>Node18</title>
<g id="a_Node000018"><a xlink:title=" ">
<polygon fill="#e0e0e0" stroke="#999999" points="972.5,-129 853.5,-129 853.5,-110 972.5,-110 972.5,-129"/>
<text text-anchor="middle" x="913" y="-117" font-family="Helvetica,sans-Serif" font-size="10.00">driver/spi_common.h</text>
</a>
</g>
</g>
<!-- Node10&#45;&gt;Node18 -->
<g id="edge21_Node000010_Node000018" class="edge">
<title>Node10&#45;&gt;Node18</title>
<g id="a_edge21_Node000010_Node000018"><a xlink:title=" ">
<path fill="none" stroke="#63b8ff" d="M1133.76,-165.85C1089.24,-156.7 1014.49,-141.35 964.47,-131.07"/>
<polygon fill="#63b8ff" stroke="#63b8ff" points="965,-127.61 954.5,-129.03 963.59,-134.47 965,-127.61"/>
</a>
</g>
</g>
<!-- Node19 -->
<g id="Node000019" class="node">
<title>Node19</title>
<g id="a_Node000019"><a xlink:title=" ">
<polygon fill="#e0e0e0" stroke="#999999" points="1101,-129 991,-129 991,-110 1101,-110 1101,-129"/>
<text text-anchor="middle" x="1046" y="-117" font-family="Helvetica,sans-Serif" font-size="10.00">driver/spi_master.h</text>
</a>
</g>
</g>
<!-- Node10&#45;&gt;Node19 -->
<g id="edge22_Node000010_Node000019" class="edge">
<title>Node10&#45;&gt;Node19</title>
<g id="a_edge22_Node000010_Node000019"><a xlink:title=" ">
<path fill="none" stroke="#63b8ff" d="M1150.92,-164.98C1130.63,-156.38 1099.04,-142.99 1075.83,-133.15"/>
<polygon fill="#63b8ff" stroke="#63b8ff" points="1077.02,-129.85 1066.45,-129.17 1074.29,-136.3 1077.02,-129.85"/>
</a>
</g>
</g>
<!-- Node20 -->
<g id="Node000020" class="node">
<title>Node20</title>
<g id="a_Node000020"><a xlink:href="_b_l5372_8h.html" target="_top" xlink:title=" ">
<polygon fill="white" stroke="#666666" points="599,-129 537,-129 537,-110 599,-110 599,-129"/>
<text text-anchor="middle" x="568" y="-117" font-family="Helvetica,sans-Serif" font-size="10.00">BL5372.h</text>
</a>
</g>
</g>
<!-- Node10&#45;&gt;Node20 -->
<g id="edge24_Node000010_Node000020" class="edge">
<title>Node10&#45;&gt;Node20</title>
<g id="a_edge24_Node000010_Node000020"><a xlink:title=" ">
<path fill="none" stroke="#63b8ff" d="M1133.93,-172.24C1045.03,-168.87 812.62,-157.95 609.34,-129.01"/>
<polygon fill="#63b8ff" stroke="#63b8ff" points="609.77,-125.53 599.37,-127.57 608.77,-132.46 609.77,-125.53"/>
</a>
</g>
</g>
<!-- Node14&#45;&gt;Node15 -->
<g id="edge16_Node000014_Node000015" class="edge">
<title>Node14&#45;&gt;Node15</title>
<g id="a_edge16_Node000014_Node000015"><a xlink:title=" ">
<path fill="none" stroke="#63b8ff" d="M1429.75,-109.75C1437.47,-102.03 1448.9,-90.6 1458.22,-81.28"/>
<polygon fill="#63b8ff" stroke="#63b8ff" points="1460.81,-83.64 1465.41,-74.09 1455.86,-78.69 1460.81,-83.64"/>
</a>
</g>
</g>
<!-- Node15&#45;&gt;Node2 -->
<g id="edge17_Node000015_Node000002" class="edge">
<title>Node15&#45;&gt;Node2</title>
<g id="a_edge17_Node000015_Node000002"><a xlink:title=" ">
<path fill="none" stroke="#63b8ff" d="M1502.92,-54.98C1534.08,-45.81 1583.74,-31.19 1617.55,-21.23"/>
<polygon fill="#63b8ff" stroke="#63b8ff" points="1618.89,-24.49 1627.5,-18.3 1616.92,-17.77 1618.89,-24.49"/>
</a>
</g>
</g>
<!-- Node15&#45;&gt;Node3 -->
<g id="edge18_Node000015_Node000003" class="edge">
<title>Node15&#45;&gt;Node3</title>
<g id="a_edge18_Node000015_Node000003"><a xlink:title=" ">
<path fill="none" stroke="#63b8ff" d="M1487.66,-54.98C1500.84,-46.77 1521.03,-34.18 1536.57,-24.49"/>
<polygon fill="#63b8ff" stroke="#63b8ff" points="1538.46,-27.43 1545.09,-19.17 1534.76,-21.49 1538.46,-27.43"/>
</a>
</g>
</g>
<!-- Node16 -->
<g id="Node000016" class="node">
<title>Node16</title>
<g id="a_Node000016"><a xlink:title=" ">
<polygon fill="#e0e0e0" stroke="#999999" points="728.5,-19 667.5,-19 667.5,0 728.5,0 728.5,-19"/>
<text text-anchor="middle" x="698" y="-7" font-family="Helvetica,sans-Serif" font-size="10.00">esp_err.h</text>
</a>
</g>
</g>
<!-- Node15&#45;&gt;Node16 -->
<g id="edge19_Node000015_Node000016" class="edge">
<title>Node15&#45;&gt;Node16</title>
<g id="a_edge19_Node000015_Node000016"><a xlink:title=" ">
<path fill="none" stroke="#63b8ff" d="M1436.31,-60.93C1305.84,-52.01 874.03,-22.52 738.84,-13.29"/>
<polygon fill="#63b8ff" stroke="#63b8ff" points="738.73,-9.77 728.52,-12.58 738.26,-16.76 738.73,-9.77"/>
</a>
</g>
</g>
<!-- Node20&#45;&gt;Node11 -->
<g id="edge25_Node000020_Node000011" class="edge">
<title>Node20&#45;&gt;Node11</title>
<g id="a_edge25_Node000020_Node000011"><a xlink:title=" ">
<path fill="none" stroke="#63b8ff" d="M559.08,-109.75C551.22,-102.03 539.57,-90.6 530.08,-81.28"/>
<polygon fill="#63b8ff" stroke="#63b8ff" points="532.34,-78.6 522.75,-74.09 527.44,-83.59 532.34,-78.6"/>
</a>
</g>
</g>
<!-- Node20&#45;&gt;Node16 -->
<g id="edge26_Node000020_Node000016" class="edge">
<title>Node20&#45;&gt;Node16</title>
<g id="a_edge26_Node000020_Node000016"><a xlink:title=" ">
<path fill="none" stroke="#63b8ff" d="M578.64,-109.66C600.84,-91.22 652.33,-48.45 679.86,-25.57"/>
<polygon fill="#63b8ff" stroke="#63b8ff" points="682.12,-28.24 687.58,-19.16 677.65,-22.86 682.12,-28.24"/>
</a>
</g>
</g>
<!-- Node22&#45;&gt;Node10 -->
<g id="edge30_Node000022_Node000010" class="edge">
<title>Node22&#45;&gt;Node10</title>
<g id="a_edge30_Node000022_Node000010"><a xlink:title=" ">
<path fill="none" stroke="#63b8ff" d="M1171,-219.75C1171,-212.8 1171,-202.85 1171,-194.13"/>
<polygon fill="#63b8ff" stroke="#63b8ff" points="1174.5,-194.09 1171,-184.09 1167.5,-194.09 1174.5,-194.09"/>
</a>
</g>
</g>
<!-- Node22&#45;&gt;Node16 -->
<g id="edge29_Node000022_Node000016" class="edge">
<title>Node22&#45;&gt;Node16</title>
<g id="a_edge29_Node000022_Node000016"><a xlink:title=" ">
<path fill="none" stroke="#63b8ff" d="M1124.95,-220.33C1059.61,-207.48 937.53,-178.72 844,-129 790.94,-100.79 738.7,-51.88 713.53,-26.63"/>
<polygon fill="#63b8ff" stroke="#63b8ff" points="715.85,-23.99 706.35,-19.31 710.86,-28.9 715.85,-23.99"/>
</a>
</g>
</g>
<!-- Node23&#45;&gt;Node3 -->
<g id="edge36_Node000023_Node000003" class="edge">
<title>Node23&#45;&gt;Node3</title>
<g id="a_edge36_Node000023_Node000003"><a xlink:title=" ">
<path fill="none" stroke="#63b8ff" d="M1775.55,-54.98C1727.38,-45.09 1648.36,-28.86 1600.27,-18.98"/>
<polygon fill="#63b8ff" stroke="#63b8ff" points="1600.71,-15.49 1590.21,-16.91 1599.3,-22.35 1600.71,-15.49"/>
</a>
</g>
</g>
<!-- Node23&#45;&gt;Node16 -->
<g id="edge35_Node000023_Node000016" class="edge">
<title>Node23&#45;&gt;Node16</title>
<g id="a_edge35_Node000023_Node000016"><a xlink:title=" ">
<path fill="none" stroke="#63b8ff" d="M1757.63,-60.69C1557.13,-51.19 908.26,-20.46 738.8,-12.43"/>
<polygon fill="#63b8ff" stroke="#63b8ff" points="738.72,-8.92 728.56,-11.95 738.39,-15.92 738.72,-8.92"/>
</a>
</g>
</g>
<!-- Node24 -->
<g id="Node000024" class="node">
<title>Node24</title>
<g id="a_Node000024"><a xlink:title=" ">
<polygon fill="#e0e0e0" stroke="#999999" points="1816.5,-19 1737.5,-19 1737.5,0 1816.5,0 1816.5,-19"/>
<text text-anchor="middle" x="1777" y="-7" font-family="Helvetica,sans-Serif" font-size="10.00">periph_wifi.h</text>
</a>
</g>
</g>
<!-- Node23&#45;&gt;Node24 -->
<g id="edge33_Node000023_Node000024" class="edge">
<title>Node23&#45;&gt;Node24</title>
<g id="a_edge33_Node000023_Node000024"><a xlink:title=" ">
<path fill="none" stroke="#63b8ff" d="M1810.39,-54.75C1804.74,-47.26 1796.46,-36.28 1789.55,-27.13"/>
<polygon fill="#63b8ff" stroke="#63b8ff" points="1792.3,-24.96 1783.48,-19.09 1786.71,-29.18 1792.3,-24.96"/>
</a>
</g>
</g>
<!-- Node25 -->
<g id="Node000025" class="node">
<title>Node25</title>
<g id="a_Node000025"><a xlink:title=" ">
<polygon fill="#e0e0e0" stroke="#999999" points="1935,-19 1835,-19 1835,0 1935,0 1935,-19"/>
<text text-anchor="middle" x="1885" y="-7" font-family="Helvetica,sans-Serif" font-size="10.00">esp_http_client.h</text>
</a>
</g>
</g>
<!-- Node23&#45;&gt;Node25 -->
<g id="edge34_Node000023_Node000025" class="edge">
<title>Node23&#45;&gt;Node25</title>
<g id="a_edge34_Node000023_Node000025"><a xlink:title=" ">
<path fill="none" stroke="#63b8ff" d="M1827.93,-54.98C1838.08,-47.07 1853.42,-35.11 1865.65,-25.58"/>
<polygon fill="#63b8ff" stroke="#63b8ff" points="1868.14,-28.08 1873.88,-19.17 1863.84,-22.56 1868.14,-28.08"/>
</a>
</g>
</g>
<!-- Node26&#45;&gt;Node3 -->
<g id="edge39_Node000026_Node000003" class="edge">
<title>Node26&#45;&gt;Node3</title>
<g id="a_edge39_Node000026_Node000003"><a xlink:title=" ">
<path fill="none" stroke="#63b8ff" d="M453.78,-166.05C521.15,-157.64 632.97,-143.29 729,-129 780.24,-121.38 792.79,-117.79 844,-110 1099.96,-71.05 1408.43,-30.17 1517.98,-15.84"/>
<polygon fill="#63b8ff" stroke="#63b8ff" points="1518.49,-19.3 1527.95,-14.53 1517.58,-12.36 1518.49,-19.3"/>
</a>
</g>
</g>
<!-- Node26&#45;&gt;Node9 -->
<g id="edge40_Node000026_Node000009" class="edge">
<title>Node26&#45;&gt;Node9</title>
<g id="a_edge40_Node000026_Node000009"><a xlink:title=" ">
<path fill="none" stroke="#63b8ff" d="M332.5,-167.53C282.83,-161.23 218.14,-149.33 202,-129 191.51,-115.78 198.81,-96.65 206.85,-82.84"/>
<polygon fill="#63b8ff" stroke="#63b8ff" points="209.89,-84.58 212.32,-74.27 203.99,-80.81 209.89,-84.58"/>
</a>
</g>
</g>
<!-- Node26&#45;&gt;Node20 -->
<g id="edge47_Node000026_Node000020" class="edge">
<title>Node26&#45;&gt;Node20</title>
<g id="a_edge47_Node000026_Node000020"><a xlink:title=" ">
<path fill="none" stroke="#63b8ff" d="M421.12,-164.98C450.62,-156.05 497.19,-141.94 529.97,-132.02"/>
<polygon fill="#63b8ff" stroke="#63b8ff" points="531.11,-135.33 539.66,-129.08 529.08,-128.63 531.11,-135.33"/>
</a>
</g>
</g>
<!-- Node27 -->
<g id="Node000027" class="node">
<title>Node27</title>
<g id="a_Node000027"><a xlink:title=" ">
<polygon fill="#e0e0e0" stroke="#999999" points="155,-129 105,-129 105,-110 155,-110 155,-129"/>
<text text-anchor="middle" x="130" y="-117" font-family="Helvetica,sans-Serif" font-size="10.00">stdio.h</text>
</a>
</g>
</g>
<!-- Node26&#45;&gt;Node27 -->
<g id="edge38_Node000026_Node000027" class="edge">
<title>Node26&#45;&gt;Node27</title>
<g id="a_edge38_Node000026_Node000027"><a xlink:title=" ">
<path fill="none" stroke="#63b8ff" d="M348.75,-164.96C303.53,-156.17 231.3,-141.98 169,-129 167.74,-128.74 166.46,-128.47 165.16,-128.2"/>
<polygon fill="#63b8ff" stroke="#63b8ff" points="165.67,-124.72 155.16,-126.06 164.21,-131.57 165.67,-124.72"/>
</a>
</g>
</g>
<!-- Node28 -->
<g id="Node000028" class="node">
<title>Node28</title>
<g id="a_Node000028"><a xlink:href="_a_h_t21_8h.html" target="_top" xlink:title=" ">
<polygon fill="white" stroke="#666666" points="481,-129 423,-129 423,-110 481,-110 481,-129"/>
<text text-anchor="middle" x="452" y="-117" font-family="Helvetica,sans-Serif" font-size="10.00">AHT21.h</text>
</a>
</g>
</g>
<!-- Node26&#45;&gt;Node28 -->
<g id="edge41_Node000026_Node000028" class="edge">
<title>Node26&#45;&gt;Node28</title>
<g id="a_edge41_Node000026_Node000028"><a xlink:title=" ">
<path fill="none" stroke="#63b8ff" d="M402.48,-164.98C411.2,-157.15 424.34,-145.34 434.9,-135.86"/>
<polygon fill="#63b8ff" stroke="#63b8ff" points="437.25,-138.46 442.35,-129.17 432.57,-133.25 437.25,-138.46"/>
</a>
</g>
</g>
<!-- Node29 -->
<g id="Node000029" class="node">
<title>Node29</title>
<g id="a_Node000029"><a xlink:href="_a_g_s10_8h.html" target="_top" xlink:title=" ">
<polygon fill="white" stroke="#666666" points="269,-129 211,-129 211,-110 269,-110 269,-129"/>
<text text-anchor="middle" x="240" y="-117" font-family="Helvetica,sans-Serif" font-size="10.00">AGS10.h</text>
</a>
</g>
</g>
<!-- Node26&#45;&gt;Node29 -->
<g id="edge44_Node000026_Node000029" class="edge">
<title>Node26&#45;&gt;Node29</title>
<g id="a_edge44_Node000026_Node000029"><a xlink:title=" ">
<path fill="none" stroke="#63b8ff" d="M368.42,-164.98C342.95,-156.16 302.96,-142.31 274.37,-132.41"/>
<polygon fill="#63b8ff" stroke="#63b8ff" points="275.37,-129.05 264.77,-129.08 273.08,-135.66 275.37,-129.05"/>
</a>
</g>
</g>
<!-- Node30 -->
<g id="Node000030" class="node">
<title>Node30</title>
<g id="a_Node000030"><a xlink:href="lsm6ds3trc_8h.html" target="_top" xlink:title=" ">
<polygon fill="white" stroke="#666666" points="405,-129 325,-129 325,-110 405,-110 405,-129"/>
<text text-anchor="middle" x="365" y="-117" font-family="Helvetica,sans-Serif" font-size="10.00">lsm6ds3trc.h</text>
</a>
</g>
</g>
<!-- Node26&#45;&gt;Node30 -->
<g id="edge48_Node000026_Node000030" class="edge">
<title>Node26&#45;&gt;Node30</title>
<g id="a_edge48_Node000026_Node000030"><a xlink:title=" ">
<path fill="none" stroke="#63b8ff" d="M388.38,-164.75C384.54,-157.49 378.98,-146.95 374.24,-137.98"/>
<polygon fill="#63b8ff" stroke="#63b8ff" points="377.3,-136.3 369.54,-129.09 371.11,-139.57 377.3,-136.3"/>
</a>
</g>
</g>
<!-- Node28&#45;&gt;Node11 -->
<g id="edge42_Node000028_Node000011" class="edge">
<title>Node28&#45;&gt;Node11</title>
<g id="a_edge42_Node000028_Node000011"><a xlink:title=" ">
<path fill="none" stroke="#63b8ff" d="M461.96,-109.98C471.13,-102.15 484.94,-90.34 496.03,-80.86"/>
<polygon fill="#63b8ff" stroke="#63b8ff" points="498.53,-83.33 503.86,-74.17 493.98,-78.01 498.53,-83.33"/>
</a>
</g>
</g>
<!-- Node28&#45;&gt;Node16 -->
<g id="edge43_Node000028_Node000016" class="edge">
<title>Node28&#45;&gt;Node16</title>
<g id="a_edge43_Node000028_Node000016"><a xlink:title=" ">
<path fill="none" stroke="#63b8ff" d="M451.32,-109.68C450.79,-95.92 451.96,-69.43 467,-55 493.69,-29.4 598.25,-17.75 657.13,-13.12"/>
<polygon fill="#63b8ff" stroke="#63b8ff" points="657.5,-16.6 667.21,-12.36 656.98,-9.62 657.5,-16.6"/>
</a>
</g>
</g>
<!-- Node29&#45;&gt;Node9 -->
<g id="edge46_Node000029_Node000009" class="edge">
<title>Node29&#45;&gt;Node9</title>
<g id="a_edge46_Node000029_Node000009"><a xlink:title=" ">
<path fill="none" stroke="#63b8ff" d="M236.53,-109.75C233.72,-102.65 229.66,-92.4 226.15,-83.56"/>
<polygon fill="#63b8ff" stroke="#63b8ff" points="229.34,-82.1 222.4,-74.09 222.83,-84.68 229.34,-82.1"/>
</a>
</g>
</g>
<!-- Node29&#45;&gt;Node11 -->
<g id="edge45_Node000029_Node000011" class="edge">
<title>Node29&#45;&gt;Node11</title>
<g id="a_edge45_Node000029_Node000011"><a xlink:title=" ">
<path fill="none" stroke="#63b8ff" d="M269.06,-112.88C316.1,-103.78 409.35,-85.74 466.25,-74.74"/>
<polygon fill="#63b8ff" stroke="#63b8ff" points="466.93,-78.17 476.09,-72.83 465.6,-71.3 466.93,-78.17"/>
</a>
</g>
</g>
<!-- Node30&#45;&gt;Node11 -->
<g id="edge49_Node000030_Node000011" class="edge">
<title>Node30&#45;&gt;Node11</title>
<g id="a_edge49_Node000030_Node000011"><a xlink:title=" ">
<path fill="none" stroke="#63b8ff" d="M388.94,-109.98C413.56,-101.23 452.12,-87.51 479.92,-77.62"/>
<polygon fill="#63b8ff" stroke="#63b8ff" points="481.38,-80.82 489.62,-74.17 479.03,-74.22 481.38,-80.82"/>
</a>
</g>
</g>
<!-- Node30&#45;&gt;Node16 -->
<g id="edge50_Node000030_Node000016" class="edge">
<title>Node30&#45;&gt;Node16</title>
<g id="a_edge50_Node000030_Node000016"><a xlink:title=" ">
<path fill="none" stroke="#63b8ff" d="M373.91,-109.93C388.91,-96.03 420.76,-68.72 453,-55 520.96,-26.08 607.33,-15.94 657.27,-12.39"/>
<polygon fill="#63b8ff" stroke="#63b8ff" points="657.6,-15.88 667.35,-11.73 657.15,-8.9 657.6,-15.88"/>
</a>
</g>
</g>
<!-- Node31&#45;&gt;Node16 -->
<g id="edge52_Node000031_Node000016" class="edge">
<title>Node31&#45;&gt;Node16</title>
<g id="a_edge52_Node000031_Node000016"><a xlink:title=" ">
<path fill="none" stroke="#63b8ff" d="M122.08,-58.42C251.06,-47.69 548.28,-22.96 657.11,-13.9"/>
<polygon fill="#63b8ff" stroke="#63b8ff" points="657.67,-17.37 667.34,-13.05 657.09,-10.39 657.67,-17.37"/>
</a>
</g>
</g>
<!-- Node32&#45;&gt;Node2 -->
<g id="edge54_Node000032_Node000002" class="edge">
<title>Node32&#45;&gt;Node2</title>
<g id="a_edge54_Node000032_Node000002"><a xlink:title=" ">
<path fill="none" stroke="#63b8ff" d="M1623.27,-274.9C1637.12,-267.55 1654.76,-255.54 1663,-239 1698.2,-168.37 1673.31,-69.66 1660.42,-29.06"/>
<polygon fill="#63b8ff" stroke="#63b8ff" points="1663.7,-27.82 1657.24,-19.43 1657.05,-30.02 1663.7,-27.82"/>
</a>
</g>
</g>
<!-- Node32&#45;&gt;Node11 -->
<g id="edge64_Node000032_Node000011" class="edge">
<title>Node32&#45;&gt;Node11</title>
<g id="a_edge64_Node000032_Node000011"><a xlink:title=" ">
<path fill="none" stroke="#63b8ff" d="M1540.22,-279.6C1446.82,-273.46 1267.47,-260.03 1116,-239 852.66,-202.44 718.99,-313.96 528,-129 516.23,-117.6 513.3,-98.7 512.98,-84.48"/>
<polygon fill="#63b8ff" stroke="#63b8ff" points="516.48,-84.37 513.16,-74.31 509.48,-84.25 516.48,-84.37"/>
</a>
</g>
</g>
<!-- Node33 -->
<g id="Node000033" class="node">
<title>Node33</title>
<g id="a_Node000033"><a xlink:title=" ">
<polygon fill="#e0e0e0" stroke="#999999" points="1654,-239 1554,-239 1554,-220 1654,-220 1654,-239"/>
<text text-anchor="middle" x="1604" y="-227" font-family="Helvetica,sans-Serif" font-size="10.00">led_strip_types.h</text>
</a>
</g>
</g>
<!-- Node32&#45;&gt;Node33 -->
<g id="edge55_Node000032_Node000033" class="edge">
<title>Node32&#45;&gt;Node33</title>
<g id="a_edge55_Node000032_Node000033"><a xlink:title=" ">
<path fill="none" stroke="#63b8ff" d="M1604,-274.75C1604,-267.8 1604,-257.85 1604,-249.13"/>
<polygon fill="#63b8ff" stroke="#63b8ff" points="1607.5,-249.09 1604,-239.09 1600.5,-249.09 1607.5,-249.09"/>
</a>
</g>
</g>
<!-- Node32&#45;&gt;Node34 -->
<g id="edge56_Node000032_Node000034" class="edge">
<title>Node32&#45;&gt;Node34</title>
<g id="a_edge56_Node000032_Node000034"><a xlink:title=" ">
<path fill="none" stroke="#63b8ff" d="M1585.36,-274.98C1566.7,-266.46 1537.75,-253.23 1516.26,-243.41"/>
<polygon fill="#63b8ff" stroke="#63b8ff" points="1517.53,-240.14 1506.98,-239.17 1514.62,-246.51 1517.53,-240.14"/>
</a>
</g>
</g>
<!-- Node34&#45;&gt;Node2 -->
<g id="edge57_Node000034_Node000002" class="edge">
<title>Node34&#45;&gt;Node2</title>
<g id="a_edge57_Node000034_Node000002"><a xlink:title=" ">
<path fill="none" stroke="#63b8ff" d="M1516.39,-219.99C1535.6,-212.99 1560.42,-201.37 1577,-184 1620.56,-138.39 1642.02,-64.02 1650.08,-29.37"/>
<polygon fill="#63b8ff" stroke="#63b8ff" points="1653.58,-29.76 1652.32,-19.24 1646.75,-28.26 1653.58,-29.76"/>
</a>
</g>
</g>
<!-- Node34&#45;&gt;Node3 -->
<g id="edge58_Node000034_Node000003" class="edge">
<title>Node34&#45;&gt;Node3</title>
<g id="a_edge58_Node000034_Node000003"><a xlink:title=" ">
<path fill="none" stroke="#63b8ff" d="M1512.78,-219.94C1528.79,-212.96 1548.38,-201.39 1558,-184 1585.76,-133.79 1572.77,-62.25 1564.29,-28.92"/>
<polygon fill="#63b8ff" stroke="#63b8ff" points="1567.65,-27.9 1561.66,-19.16 1560.89,-29.73 1567.65,-27.9"/>
</a>
</g>
</g>
<!-- Node34&#45;&gt;Node4 -->
<g id="edge60_Node000034_Node000004" class="edge">
<title>Node34&#45;&gt;Node4</title>
<g id="a_edge60_Node000034_Node000004"><a xlink:title=" ">
<path fill="none" stroke="#63b8ff" d="M1534.43,-219.98C1584.95,-210.72 1665.74,-195.9 1720.05,-185.94"/>
<polygon fill="#63b8ff" stroke="#63b8ff" points="1721,-189.33 1730.2,-184.08 1719.74,-182.44 1721,-189.33"/>
</a>
</g>
</g>
<!-- Node34&#45;&gt;Node5 -->
<g id="edge61_Node000034_Node000005" class="edge">
<title>Node34&#45;&gt;Node5</title>
<g id="a_edge61_Node000034_Node000005"><a xlink:title=" ">
<path fill="none" stroke="#63b8ff" d="M1535.57,-221.31C1538.76,-220.85 1541.93,-220.42 1545,-220 1673.55,-202.63 1708.61,-202.34 1841.64,-184"/>
<polygon fill="#63b8ff" stroke="#63b8ff" points="1842.39,-187.43 1851.81,-182.59 1841.43,-180.49 1842.39,-187.43"/>
</a>
</g>
</g>
<!-- Node34&#45;&gt;Node10 -->
<g id="edge63_Node000034_Node000010" class="edge">
<title>Node34&#45;&gt;Node10</title>
<g id="a_edge63_Node000034_Node000010"><a xlink:title=" ">
<path fill="none" stroke="#63b8ff" d="M1440.2,-220.51C1380.19,-210.48 1277.91,-193.37 1218.19,-183.39"/>
<polygon fill="#63b8ff" stroke="#63b8ff" points="1218.71,-179.93 1208.27,-181.73 1217.56,-186.83 1218.71,-179.93"/>
</a>
</g>
</g>
<!-- Node34&#45;&gt;Node16 -->
<g id="edge59_Node000034_Node000016" class="edge">
<title>Node34&#45;&gt;Node16</title>
<g id="a_edge59_Node000034_Node000016"><a xlink:title=" ">
<path fill="none" stroke="#63b8ff" d="M1479.07,-219.88C1455.39,-197.56 1388.1,-137.71 1320,-110 1113.33,-25.9 841,-12.65 738.94,-10.74"/>
<polygon fill="#63b8ff" stroke="#63b8ff" points="738.81,-7.24 728.76,-10.58 738.7,-14.24 738.81,-7.24"/>
</a>
</g>
</g>
<!-- Node35 -->
<g id="Node000035" class="node">
<title>Node35</title>
<g id="a_Node000035"><a xlink:title=" ">
<polygon fill="#e0e0e0" stroke="#999999" points="1549.5,-184 1478.5,-184 1478.5,-165 1549.5,-165 1549.5,-184"/>
<text text-anchor="middle" x="1514" y="-172" font-family="Helvetica,sans-Serif" font-size="10.00">driver/i2s.h</text>
</a>
</g>
</g>
<!-- Node34&#45;&gt;Node35 -->
<g id="edge62_Node000034_Node000035" class="edge">
<title>Node34&#45;&gt;Node35</title>
<g id="a_edge62_Node000034_Node000035"><a xlink:title=" ">
<path fill="none" stroke="#63b8ff" d="M1492.29,-219.75C1495.81,-212.57 1500.91,-202.18 1505.28,-193.27"/>
<polygon fill="#63b8ff" stroke="#63b8ff" points="1508.52,-194.61 1509.79,-184.09 1502.24,-191.53 1508.52,-194.61"/>
</a>
</g>
</g>
<!-- Node36&#45;&gt;Node3 -->
<g id="edge67_Node000036_Node000003" class="edge">
<title>Node36&#45;&gt;Node3</title>
<g id="a_edge67_Node000036_Node000003"><a xlink:title=" ">
<path fill="none" stroke="#63b8ff" d="M1912.45,-219.9C1932.83,-208.08 1963.2,-185.9 1949,-165 1927.89,-133.94 1687.61,-52.63 1595.05,-22.21"/>
<polygon fill="#63b8ff" stroke="#63b8ff" points="1595.87,-18.8 1585.28,-19.01 1593.69,-25.45 1595.87,-18.8"/>
</a>
</g>
</g>
<!-- Node36&#45;&gt;Node4 -->
<g id="edge68_Node000036_Node000004" class="edge">
<title>Node36&#45;&gt;Node4</title>
<g id="a_edge68_Node000036_Node000004"><a xlink:title=" ">
<path fill="none" stroke="#63b8ff" d="M1876.88,-219.98C1857.65,-211.42 1827.77,-198.11 1805.69,-188.28"/>
<polygon fill="#63b8ff" stroke="#63b8ff" points="1807.03,-185.04 1796.47,-184.17 1804.18,-191.44 1807.03,-185.04"/>
</a>
</g>
</g>
<!-- Node36&#45;&gt;Node5 -->
<g id="edge69_Node000036_Node000005" class="edge">
<title>Node36&#45;&gt;Node5</title>
<g id="a_edge69_Node000036_Node000005"><a xlink:title=" ">
<path fill="none" stroke="#63b8ff" d="M1896,-219.75C1896,-212.8 1896,-202.85 1896,-194.13"/>
<polygon fill="#63b8ff" stroke="#63b8ff" points="1899.5,-194.09 1896,-184.09 1892.5,-194.09 1899.5,-194.09"/>
</a>
</g>
</g>
<!-- Node37 -->
<g id="Node000037" class="node">
<title>Node37</title>
<g id="a_Node000037"><a xlink:title=" ">
<polygon fill="#e0e0e0" stroke="#999999" points="2111.5,-184 1996.5,-184 1996.5,-165 2111.5,-165 2111.5,-184"/>
<text text-anchor="middle" x="2054" y="-172" font-family="Helvetica,sans-Serif" font-size="10.00">audio_event_iface.h</text>
</a>
</g>
</g>
<!-- Node36&#45;&gt;Node37 -->
<g id="edge70_Node000036_Node000037" class="edge">
<title>Node36&#45;&gt;Node37</title>
<g id="a_edge70_Node000036_Node000037"><a xlink:title=" ">
<path fill="none" stroke="#63b8ff" d="M1921.39,-219.98C1947.8,-211.13 1989.35,-197.19 2018.89,-187.28"/>
<polygon fill="#63b8ff" stroke="#63b8ff" points="2020.05,-190.58 2028.42,-184.08 2017.82,-183.94 2020.05,-190.58"/>
</a>
</g>
</g>
<!-- Node39 -->
<g id="Node000039" class="node">
<title>Node39</title>
<g id="a_Node000039"><a xlink:title=" ">
<polygon fill="#e0e0e0" stroke="#999999" points="2590.5,-239 2493.5,-239 2493.5,-220 2590.5,-220 2590.5,-239"/>
<text text-anchor="middle" x="2542" y="-227" font-family="Helvetica,sans-Serif" font-size="10.00">hal/gpio_types.h</text>
</a>
</g>
</g>
<!-- Node38&#45;&gt;Node39 -->
<g id="edge72_Node000038_Node000039" class="edge">
<title>Node38&#45;&gt;Node39</title>
<g id="a_edge72_Node000038_Node000039"><a xlink:title=" ">
<path fill="none" stroke="#63b8ff" d="M2590.68,-274.98C2582.19,-267.23 2569.44,-255.58 2559.12,-246.14"/>
<polygon fill="#63b8ff" stroke="#63b8ff" points="2561.23,-243.33 2551.49,-239.17 2556.51,-248.5 2561.23,-243.33"/>
</a>
</g>
</g>
<!-- Node40 -->
<g id="Node000040" class="node">
<title>Node40</title>
<g id="a_Node000040"><a xlink:title=" ">
<polygon fill="#e0e0e0" stroke="#999999" points="2705,-239 2609,-239 2609,-220 2705,-220 2705,-239"/>
<text text-anchor="middle" x="2657" y="-227" font-family="Helvetica,sans-Serif" font-size="10.00">driver/mcpwm.h</text>
</a>
</g>
</g>
<!-- Node38&#45;&gt;Node40 -->
<g id="edge73_Node000038_Node000040" class="edge">
<title>Node38&#45;&gt;Node40</title>
<g id="a_edge73_Node000038_Node000040"><a xlink:title=" ">
<path fill="none" stroke="#63b8ff" d="M2609.16,-274.98C2617.5,-267.23 2630.03,-255.58 2640.18,-246.14"/>
<polygon fill="#63b8ff" stroke="#63b8ff" points="2642.74,-248.54 2647.68,-239.17 2637.97,-243.42 2642.74,-248.54"/>
</a>
</g>
</g>
</g>
</svg>
