<?xml version="1.0" encoding="UTF-8" standalone="no"?>
<!DOCTYPE svg PUBLIC "-//W3C//DTD SVG 1.1//EN"
 "http://www.w3.org/Graphics/SVG/1.1/DTD/svg11.dtd">
<!-- Generated by graphviz version 2.43.0 (0)
 -->
<!-- Title: main/main.c Pages: 1 -->
<svg width="2838pt" height="357pt"
 viewBox="0.00 0.00 2837.50 357.00" xmlns="http://www.w3.org/2000/svg" xmlns:xlink="http://www.w3.org/1999/xlink">
<g id="graph0" class="graph" transform="scale(1 1) rotate(0) translate(4 353)">
<title>main/main.c</title>
<!-- Node1 -->
<g id="Node000001" class="node">
<title>Node1</title>
<g id="a_Node000001"><a xlink:title=" ">
<polygon fill="#999999" stroke="#666666" points="1750.5,-349 1673.5,-349 1673.5,-330 1750.5,-330 1750.5,-349"/>
<text text-anchor="middle" x="1712" y="-337" font-family="Helvetica,sans-Serif" font-size="10.00">main/main.c</text>
</a>
</g>
</g>
<!-- Node2 -->
<g id="Node000002" class="node">
<title>Node2</title>
<g id="a_Node000002"><a xlink:title=" ">
<polygon fill="#e0e0e0" stroke="#999999" points="1882.5,-19 1829.5,-19 1829.5,0 1882.5,0 1882.5,-19"/>
<text text-anchor="middle" x="1856" y="-7" font-family="Helvetica,sans-Serif" font-size="10.00">string.h</text>
</a>
</g>
</g>
<!-- Node1&#45;&gt;Node2 -->
<g id="edge1_Node000001_Node000002" class="edge">
<title>Node1&#45;&gt;Node2</title>
<g id="a_edge1_Node000001_Node000002"><a xlink:title=" ">
<path fill="none" stroke="#63b8ff" d="M1750.76,-338.49C1856.61,-337.94 2148.43,-332.84 2235,-294 2272.43,-277.21 2302,-271.53 2302,-230.5 2302,-230.5 2302,-230.5 2302,-118.5 2302,-89.04 2305.68,-73.8 2283,-55 2253.2,-30.31 1990.72,-16.39 1892.71,-12.02"/>
<polygon fill="#63b8ff" stroke="#63b8ff" points="1892.81,-8.52 1882.67,-11.58 1892.5,-15.51 1892.81,-8.52"/>
</a>
</g>
</g>
<!-- Node3 -->
<g id="Node000003" class="node">
<title>Node3</title>
<g id="a_Node000003"><a xlink:title=" ">
<polygon fill="#e0e0e0" stroke="#999999" points="1792,-19 1730,-19 1730,0 1792,0 1792,-19"/>
<text text-anchor="middle" x="1761" y="-7" font-family="Helvetica,sans-Serif" font-size="10.00">stdbool.h</text>
</a>
</g>
</g>
<!-- Node1&#45;&gt;Node3 -->
<g id="edge2_Node000001_Node000003" class="edge">
<title>Node1&#45;&gt;Node3</title>
<g id="a_edge2_Node000001_Node000003"><a xlink:title=" ">
<path fill="none" stroke="#63b8ff" d="M1673.34,-336.27C1644.05,-332.31 1605.63,-321.75 1586,-294 1567.23,-267.47 1494,-287.15 1593,-165 1630.48,-118.76 1678.96,-170.11 1722,-129 1749.97,-102.29 1757.89,-55.18 1760.13,-29.13"/>
<polygon fill="#63b8ff" stroke="#63b8ff" points="1763.63,-29.29 1760.8,-19.08 1756.64,-28.83 1763.63,-29.29"/>
</a>
</g>
</g>
<!-- Node4 -->
<g id="Node000004" class="node">
<title>Node4</title>
<g id="a_Node000004"><a xlink:title=" ">
<polygon fill="#e0e0e0" stroke="#999999" points="1919.5,-184 1806.5,-184 1806.5,-165 1919.5,-165 1919.5,-184"/>
<text text-anchor="middle" x="1863" y="-172" font-family="Helvetica,sans-Serif" font-size="10.00">freertos/FreeRTOS.h</text>
</a>
</g>
</g>
<!-- Node1&#45;&gt;Node4 -->
<g id="edge3_Node000001_Node000004" class="edge">
<title>Node1&#45;&gt;Node4</title>
<g id="a_edge3_Node000001_Node000004"><a xlink:title=" ">
<path fill="none" stroke="#63b8ff" d="M1725.71,-329.93C1738.45,-321.61 1757.57,-308.19 1772,-294 1804.98,-261.57 1836.17,-216.82 1852.06,-192.65"/>
<polygon fill="#63b8ff" stroke="#63b8ff" points="1855.04,-194.48 1857.55,-184.19 1849.17,-190.67 1855.04,-194.48"/>
</a>
</g>
</g>
<!-- Node5 -->
<g id="Node000005" class="node">
<title>Node5</title>
<g id="a_Node000005"><a xlink:title=" ">
<polygon fill="#e0e0e0" stroke="#999999" points="2026,-184 1938,-184 1938,-165 2026,-165 2026,-184"/>
<text text-anchor="middle" x="1982" y="-172" font-family="Helvetica,sans-Serif" font-size="10.00">freertos/task.h</text>
</a>
</g>
</g>
<!-- Node1&#45;&gt;Node5 -->
<g id="edge4_Node000001_Node000005" class="edge">
<title>Node1&#45;&gt;Node5</title>
<g id="a_edge4_Node000001_Node000005"><a xlink:title=" ">
<path fill="none" stroke="#63b8ff" d="M1728.73,-329.98C1745.63,-321.28 1772.41,-307.19 1795,-294 1855.98,-258.39 1925.75,-212.86 1960.28,-189.99"/>
<polygon fill="#63b8ff" stroke="#63b8ff" points="1962.66,-192.61 1969.05,-184.16 1958.79,-186.78 1962.66,-192.61"/>
</a>
</g>
</g>
<!-- Node6 -->
<g id="Node000006" class="node">
<title>Node6</title>
<g id="a_Node000006"><a xlink:title=" ">
<polygon fill="#e0e0e0" stroke="#999999" points="2437.5,-294 2330.5,-294 2330.5,-275 2437.5,-275 2437.5,-294"/>
<text text-anchor="middle" x="2384" y="-282" font-family="Helvetica,sans-Serif" font-size="10.00">freertos/projdefs.h</text>
</a>
</g>
</g>
<!-- Node1&#45;&gt;Node6 -->
<g id="edge5_Node000001_Node000006" class="edge">
<title>Node1&#45;&gt;Node6</title>
<g id="a_edge5_Node000001_Node000006"><a xlink:title=" ">
<path fill="none" stroke="#63b8ff" d="M1750.57,-336.34C1846.37,-330.83 2102.81,-315.16 2316,-294 2317.3,-293.87 2318.61,-293.74 2319.93,-293.6"/>
<polygon fill="#63b8ff" stroke="#63b8ff" points="2320.64,-297.04 2330.21,-292.48 2319.89,-290.08 2320.64,-297.04"/>
</a>
</g>
</g>
<!-- Node7 -->
<g id="Node000007" class="node">
<title>Node7</title>
<g id="a_Node000007"><a xlink:title=" ">
<polygon fill="#e0e0e0" stroke="#999999" points="2518.5,-294 2455.5,-294 2455.5,-275 2518.5,-275 2518.5,-294"/>
<text text-anchor="middle" x="2487" y="-282" font-family="Helvetica,sans-Serif" font-size="10.00">esp_log.h</text>
</a>
</g>
</g>
<!-- Node1&#45;&gt;Node7 -->
<g id="edge6_Node000001_Node000007" class="edge">
<title>Node1&#45;&gt;Node7</title>
<g id="a_edge6_Node000001_Node000007"><a xlink:title=" ">
<path fill="none" stroke="#63b8ff" d="M1750.79,-338.11C1859.09,-336.6 2174.02,-329.38 2445.26,-293.87"/>
<polygon fill="#63b8ff" stroke="#63b8ff" points="2445.84,-297.33 2455.29,-292.54 2444.92,-290.39 2445.84,-297.33"/>
</a>
</g>
</g>
<!-- Node8 -->
<g id="Node000008" class="node">
<title>Node8</title>
<g id="a_Node000008"><a xlink:title=" ">
<polygon fill="#e0e0e0" stroke="#999999" points="869.5,-129 766.5,-129 766.5,-110 869.5,-110 869.5,-129"/>
<text text-anchor="middle" x="818" y="-117" font-family="Helvetica,sans-Serif" font-size="10.00">esp_peripherals.h</text>
</a>
</g>
</g>
<!-- Node1&#45;&gt;Node8 -->
<g id="edge7_Node000001_Node000008" class="edge">
<title>Node1&#45;&gt;Node8</title>
<g id="a_edge7_Node000001_Node000008"><a xlink:title=" ">
<path fill="none" stroke="#63b8ff" d="M1673.31,-334.25C1616.97,-327.7 1509.21,-313.78 1419,-294 1200.45,-246.07 944.41,-162.91 852.78,-132.27"/>
<polygon fill="#63b8ff" stroke="#63b8ff" points="853.77,-128.92 843.18,-129.05 851.55,-135.55 853.77,-128.92"/>
</a>
</g>
</g>
<!-- Node9 -->
<g id="Node000009" class="node">
<title>Node9</title>
<g id="a_Node000009"><a xlink:title=" ">
<polygon fill="#e0e0e0" stroke="#999999" points="291,-74 217,-74 217,-55 291,-55 291,-74"/>
<text text-anchor="middle" x="254" y="-62" font-family="Helvetica,sans-Serif" font-size="10.00">board_def.h</text>
</a>
</g>
</g>
<!-- Node1&#45;&gt;Node9 -->
<g id="edge8_Node000001_Node000009" class="edge">
<title>Node1&#45;&gt;Node9</title>
<g id="a_edge8_Node000001_Node000009"><a xlink:title=" ">
<path fill="none" stroke="#63b8ff" d="M1673.18,-337.84C1435.6,-333.54 188,-307.3 188,-230.5 188,-230.5 188,-230.5 188,-173.5 188,-136.23 216.98,-100.93 236.53,-81.36"/>
<polygon fill="#63b8ff" stroke="#63b8ff" points="239.19,-83.65 243.98,-74.2 234.34,-78.61 239.19,-83.65"/>
</a>
</g>
</g>
<!-- Node10 -->
<g id="Node000010" class="node">
<title>Node10</title>
<g id="a_Node000010"><a xlink:href="board__ctrl_8h.html" target="_top" xlink:title=" ">
<polygon fill="white" stroke="#666666" points="1177,-184 1103,-184 1103,-165 1177,-165 1177,-184"/>
<text text-anchor="middle" x="1140" y="-172" font-family="Helvetica,sans-Serif" font-size="10.00">board_ctrl.h</text>
</a>
</g>
</g>
<!-- Node1&#45;&gt;Node10 -->
<g id="edge9_Node000001_Node000010" class="edge">
<title>Node1&#45;&gt;Node10</title>
<g id="a_edge9_Node000001_Node000010"><a xlink:title=" ">
<path fill="none" stroke="#63b8ff" d="M1673.3,-332.63C1627.64,-325.32 1549.63,-311.62 1484,-294 1366.35,-262.42 1230.75,-211.17 1171,-187.81"/>
<polygon fill="#63b8ff" stroke="#63b8ff" points="1172,-184.44 1161.41,-184.05 1169.44,-190.96 1172,-184.44"/>
</a>
</g>
</g>
<!-- Node12 -->
<g id="Node000012" class="node">
<title>Node12</title>
<g id="a_Node000012"><a xlink:title=" ">
<polygon fill="#e0e0e0" stroke="#999999" points="1713.5,-129 1640.5,-129 1640.5,-110 1713.5,-110 1713.5,-129"/>
<text text-anchor="middle" x="1677" y="-117" font-family="Helvetica,sans-Serif" font-size="10.00">audio_hal.h</text>
</a>
</g>
</g>
<!-- Node1&#45;&gt;Node12 -->
<g id="edge31_Node000001_Node000012" class="edge">
<title>Node1&#45;&gt;Node12</title>
<g id="a_edge31_Node000001_Node000012"><a xlink:title=" ">
<path fill="none" stroke="#63b8ff" d="M1718.89,-329.93C1725.27,-321.4 1734.31,-307.65 1738,-294 1740.21,-285.85 1739.19,-283.36 1738,-275 1730.54,-222.62 1702.44,-165.96 1687.12,-138.06"/>
<polygon fill="#63b8ff" stroke="#63b8ff" points="1690.06,-136.16 1682.11,-129.15 1683.96,-139.58 1690.06,-136.16"/>
</a>
</g>
</g>
<!-- Node15 -->
<g id="Node000015" class="node">
<title>Node15</title>
<g id="a_Node000015"><a xlink:href="_t_c_a6416_a_8h.html" target="_top" xlink:title=" ">
<polygon fill="white" stroke="#666666" points="1677.5,-74 1602.5,-74 1602.5,-55 1677.5,-55 1677.5,-74"/>
<text text-anchor="middle" x="1640" y="-62" font-family="Helvetica,sans-Serif" font-size="10.00">TCA6416A.h</text>
</a>
</g>
</g>
<!-- Node1&#45;&gt;Node15 -->
<g id="edge73_Node000001_Node000015" class="edge">
<title>Node1&#45;&gt;Node15</title>
<g id="a_edge73_Node000001_Node000015"><a xlink:title=" ">
<path fill="none" stroke="#63b8ff" d="M1673.36,-335.02C1623.38,-329.63 1540.52,-317.36 1522,-294 1486.38,-249.07 1497.83,-216.99 1522,-165 1540.67,-124.83 1584.44,-95.05 1613.1,-78.99"/>
<polygon fill="#63b8ff" stroke="#63b8ff" points="1615.05,-81.91 1622.18,-74.07 1611.72,-75.76 1615.05,-81.91"/>
</a>
</g>
</g>
<!-- Node21 -->
<g id="Node000021" class="node">
<title>Node21</title>
<g id="a_Node000021"><a xlink:title=" ">
<polygon fill="#e0e0e0" stroke="#999999" points="2649.5,-294 2536.5,-294 2536.5,-275 2649.5,-275 2649.5,-294"/>
<text text-anchor="middle" x="2593" y="-282" font-family="Helvetica,sans-Serif" font-size="10.00">board_pins_config.h</text>
</a>
</g>
</g>
<!-- Node1&#45;&gt;Node21 -->
<g id="edge27_Node000001_Node000021" class="edge">
<title>Node1&#45;&gt;Node21</title>
<g id="a_edge27_Node000001_Node000021"><a xlink:title=" ">
<path fill="none" stroke="#63b8ff" d="M1750.68,-337.4C1866.49,-333.89 2220.82,-321.58 2525.78,-294.04"/>
<polygon fill="#63b8ff" stroke="#63b8ff" points="2526.51,-297.48 2536.15,-293.09 2525.87,-290.51 2526.51,-297.48"/>
</a>
</g>
</g>
<!-- Node22 -->
<g id="Node000022" class="node">
<title>Node22</title>
<g id="a_Node000022"><a xlink:href="gt32l32s0140_8h.html" target="_top" xlink:title=" ">
<polygon fill="white" stroke="#666666" points="764,-239 672,-239 672,-220 764,-220 764,-239"/>
<text text-anchor="middle" x="718" y="-227" font-family="Helvetica,sans-Serif" font-size="10.00">gt32l32s0140.h</text>
</a>
</g>
</g>
<!-- Node1&#45;&gt;Node22 -->
<g id="edge28_Node000001_Node000022" class="edge">
<title>Node1&#45;&gt;Node22</title>
<g id="a_edge28_Node000001_Node000022"><a xlink:title=" ">
<path fill="none" stroke="#63b8ff" d="M1673.26,-338.35C1507.2,-337.5 860.19,-331.76 778,-294 756.54,-284.14 738.99,-262.79 728.53,-247.57"/>
<polygon fill="#63b8ff" stroke="#63b8ff" points="731.36,-245.5 722.97,-239.04 725.5,-249.33 731.36,-245.5"/>
</a>
</g>
</g>
<!-- Node23 -->
<g id="Node000023" class="node">
<title>Node23</title>
<g id="a_Node000023"><a xlink:href="sevetest30___i_w_e_d_a_8h.html" target="_top" xlink:title=" ">
<polygon fill="white" stroke="#666666" points="2274,-74 2156,-74 2156,-55 2274,-55 2274,-74"/>
<text text-anchor="middle" x="2215" y="-62" font-family="Helvetica,sans-Serif" font-size="10.00">sevetest30_IWEDA.h</text>
</a>
</g>
</g>
<!-- Node1&#45;&gt;Node23 -->
<g id="edge32_Node000001_Node000023" class="edge">
<title>Node1&#45;&gt;Node23</title>
<g id="a_edge32_Node000001_Node000023"><a xlink:title=" ">
<path fill="none" stroke="#63b8ff" d="M1750.82,-339.16C1876.46,-340.28 2264,-335.23 2264,-230.5 2264,-230.5 2264,-230.5 2264,-173.5 2264,-138.68 2242.62,-102.74 2228.1,-82.35"/>
<polygon fill="#63b8ff" stroke="#63b8ff" points="2230.79,-80.09 2222.02,-74.13 2225.16,-84.25 2230.79,-80.09"/>
</a>
</g>
</g>
<!-- Node26 -->
<g id="Node000026" class="node">
<title>Node26</title>
<g id="a_Node000026"><a xlink:href="sevetest30___s_w_e_d_a_8h.html" target="_top" xlink:title=" ">
<polygon fill="white" stroke="#666666" points="551.5,-184 430.5,-184 430.5,-165 551.5,-165 551.5,-184"/>
<text text-anchor="middle" x="491" y="-172" font-family="Helvetica,sans-Serif" font-size="10.00">sevetest30_SWEDA.h</text>
</a>
</g>
</g>
<!-- Node1&#45;&gt;Node26 -->
<g id="edge37_Node000001_Node000026" class="edge">
<title>Node1&#45;&gt;Node26</title>
<g id="a_edge37_Node000001_Node000026"><a xlink:title=" ">
<path fill="none" stroke="#63b8ff" d="M1673.26,-338.68C1516.48,-339.11 928.81,-337.69 749,-294 656.41,-271.5 556.54,-215.41 513.18,-189.29"/>
<polygon fill="#63b8ff" stroke="#63b8ff" points="514.93,-186.26 504.57,-184.05 511.29,-192.24 514.93,-186.26"/>
</a>
</g>
</g>
<!-- Node31 -->
<g id="Node000031" class="node">
<title>Node31</title>
<g id="a_Node000031"><a xlink:href="sevetest30___b_w_e_d_a_8h.html" target="_top" xlink:title=" ">
<polygon fill="white" stroke="#666666" points="122,-74 0,-74 0,-55 122,-55 122,-74"/>
<text text-anchor="middle" x="61" y="-62" font-family="Helvetica,sans-Serif" font-size="10.00">sevetest30_BWEDA.h</text>
</a>
</g>
</g>
<!-- Node1&#45;&gt;Node31 -->
<g id="edge51_Node000001_Node000031" class="edge">
<title>Node1&#45;&gt;Node31</title>
<g id="a_edge51_Node000001_Node000031"><a xlink:title=" ">
<path fill="none" stroke="#63b8ff" d="M1673.48,-338.18C1482.35,-336.47 634.47,-327.08 373,-294 243.82,-277.66 87,-360.71 87,-230.5 87,-230.5 87,-230.5 87,-173.5 87,-141.15 75.83,-104.82 68.14,-83.62"/>
<polygon fill="#63b8ff" stroke="#63b8ff" points="71.32,-82.13 64.51,-74.01 64.77,-84.6 71.32,-82.13"/>
</a>
</g>
</g>
<!-- Node32 -->
<g id="Node000032" class="node">
<title>Node32</title>
<g id="a_Node000032"><a xlink:href="sevetest30___led_array_8h.html" target="_top" xlink:title=" ">
<polygon fill="white" stroke="#666666" points="1729.5,-294 1602.5,-294 1602.5,-275 1729.5,-275 1729.5,-294"/>
<text text-anchor="middle" x="1666" y="-282" font-family="Helvetica,sans-Serif" font-size="10.00">sevetest30_LedArray.h</text>
</a>
</g>
</g>
<!-- Node1&#45;&gt;Node32 -->
<g id="edge53_Node000001_Node000032" class="edge">
<title>Node1&#45;&gt;Node32</title>
<g id="a_edge53_Node000001_Node000032"><a xlink:title=" ">
<path fill="none" stroke="#63b8ff" d="M1704.4,-329.75C1697.84,-322.18 1688.18,-311.05 1680.19,-301.84"/>
<polygon fill="#63b8ff" stroke="#63b8ff" points="1682.65,-299.35 1673.45,-294.09 1677.37,-303.94 1682.65,-299.35"/>
</a>
</g>
</g>
<!-- Node33 -->
<g id="Node000033" class="node">
<title>Node33</title>
<g id="a_Node000033"><a xlink:href="sevetest30___u_i_8h.html" target="_top" xlink:title=" ">
<polygon fill="white" stroke="#666666" points="1713.5,-239 1618.5,-239 1618.5,-220 1713.5,-220 1713.5,-239"/>
<text text-anchor="middle" x="1666" y="-227" font-family="Helvetica,sans-Serif" font-size="10.00">sevetest30_UI.h</text>
</a>
</g>
</g>
<!-- Node1&#45;&gt;Node33 -->
<g id="edge64_Node000001_Node000033" class="edge">
<title>Node1&#45;&gt;Node33</title>
<g id="a_edge64_Node000001_Node000033"><a xlink:title=" ">
<path fill="none" stroke="#63b8ff" d="M1673.42,-335.29C1646,-330.76 1610.98,-319.92 1593,-294 1578.48,-273.07 1606.77,-254.66 1632.25,-243.12"/>
<polygon fill="#63b8ff" stroke="#63b8ff" points="1633.97,-246.2 1641.79,-239.05 1631.22,-239.76 1633.97,-246.2"/>
</a>
</g>
</g>
<!-- Node35 -->
<g id="Node000035" class="node">
<title>Node35</title>
<g id="a_Node000035"><a xlink:href="sevetest30__sound_8h.html" target="_top" xlink:title=" ">
<polygon fill="white" stroke="#666666" points="2039,-239 1925,-239 1925,-220 2039,-220 2039,-239"/>
<text text-anchor="middle" x="1982" y="-227" font-family="Helvetica,sans-Serif" font-size="10.00">sevetest30_sound.h</text>
</a>
</g>
</g>
<!-- Node1&#45;&gt;Node35 -->
<g id="edge65_Node000001_Node000035" class="edge">
<title>Node1&#45;&gt;Node35</title>
<g id="a_edge65_Node000001_Node000035"><a xlink:title=" ">
<path fill="none" stroke="#63b8ff" d="M1750.6,-333.6C1788.67,-327.75 1847.84,-315.89 1895,-294 1921.58,-281.67 1948.21,-260.64 1964.88,-246.19"/>
<polygon fill="#63b8ff" stroke="#63b8ff" points="1967.47,-248.56 1972.63,-239.31 1962.83,-243.33 1967.47,-248.56"/>
</a>
</g>
</g>
<!-- Node37 -->
<g id="Node000037" class="node">
<title>Node37</title>
<g id="a_Node000037"><a xlink:href="sevetest30__touch_8h.html" target="_top" xlink:title=" ">
<polygon fill="white" stroke="#666666" points="2780,-294 2668,-294 2668,-275 2780,-275 2780,-294"/>
<text text-anchor="middle" x="2724" y="-282" font-family="Helvetica,sans-Serif" font-size="10.00">sevetest30_touch.h</text>
</a>
</g>
</g>
<!-- Node1&#45;&gt;Node37 -->
<g id="edge70_Node000001_Node000037" class="edge">
<title>Node1&#45;&gt;Node37</title>
<g id="a_edge70_Node000001_Node000037"><a xlink:title=" ">
<path fill="none" stroke="#63b8ff" d="M1750.82,-337.8C1878.75,-335.26 2298.78,-325.03 2657.79,-293.92"/>
<polygon fill="#63b8ff" stroke="#63b8ff" points="2658.21,-297.4 2667.86,-293.04 2657.6,-290.43 2658.21,-297.4"/>
</a>
</g>
</g>
<!-- Node10&#45;&gt;Node2 -->
<g id="edge11_Node000010_Node000002" class="edge">
<title>Node10&#45;&gt;Node2</title>
<g id="a_edge11_Node000010_Node000002"><a xlink:title=" ">
<path fill="none" stroke="#63b8ff" d="M1177.06,-171.55C1245.09,-167.45 1394.21,-155.95 1517,-129 1594.15,-112.07 1611.43,-100.05 1686,-74 1734.73,-56.98 1790.71,-35.74 1824.71,-22.65"/>
<polygon fill="#63b8ff" stroke="#63b8ff" points="1826.03,-25.89 1834.1,-19.02 1823.51,-19.36 1826.03,-25.89"/>
</a>
</g>
</g>
<!-- Node10&#45;&gt;Node8 -->
<g id="edge23_Node000010_Node000008" class="edge">
<title>Node10&#45;&gt;Node8</title>
<g id="a_edge23_Node000010_Node000008"><a xlink:title=" ">
<path fill="none" stroke="#63b8ff" d="M1102.75,-167.37C1048.22,-158.39 946,-141.57 880.02,-130.71"/>
<polygon fill="#63b8ff" stroke="#63b8ff" points="880.2,-127.19 869.76,-129.02 879.06,-134.1 880.2,-127.19"/>
</a>
</g>
</g>
<!-- Node10&#45;&gt;Node9 -->
<g id="edge12_Node000010_Node000009" class="edge">
<title>Node10&#45;&gt;Node9</title>
<g id="a_edge12_Node000010_Node000009"><a xlink:title=" ">
<path fill="none" stroke="#63b8ff" d="M1102.69,-173.13C975.01,-171.56 556.34,-163.82 427,-129 408.77,-124.09 406.46,-117.2 389,-110 357.64,-97.07 321.04,-85.2 293.87,-76.97"/>
<polygon fill="#63b8ff" stroke="#63b8ff" points="294.53,-73.52 283.95,-74.01 292.52,-80.23 294.53,-73.52"/>
</a>
</g>
</g>
<!-- Node11 -->
<g id="Node000011" class="node">
<title>Node11</title>
<g id="a_Node000011"><a xlink:title=" ">
<polygon fill="#e0e0e0" stroke="#999999" points="653.5,-74 578.5,-74 578.5,-55 653.5,-55 653.5,-74"/>
<text text-anchor="middle" x="616" y="-62" font-family="Helvetica,sans-Serif" font-size="10.00">esp_types.h</text>
</a>
</g>
</g>
<!-- Node10&#45;&gt;Node11 -->
<g id="edge10_Node000010_Node000011" class="edge">
<title>Node10&#45;&gt;Node11</title>
<g id="a_edge10_Node000010_Node000011"><a xlink:title=" ">
<path fill="none" stroke="#63b8ff" d="M1102.94,-169.07C1058.07,-163.03 980.6,-150.44 917,-129 898.73,-122.84 896.36,-115.9 878,-110 805.31,-86.65 717.13,-74.9 663.85,-69.5"/>
<polygon fill="#63b8ff" stroke="#63b8ff" points="663.97,-66 653.68,-68.5 663.29,-72.96 663.97,-66"/>
</a>
</g>
</g>
<!-- Node10&#45;&gt;Node12 -->
<g id="edge13_Node000010_Node000012" class="edge">
<title>Node10&#45;&gt;Node12</title>
<g id="a_edge13_Node000010_Node000012"><a xlink:title=" ">
<path fill="none" stroke="#63b8ff" d="M1177.3,-171.03C1258.87,-165.42 1459.2,-150.51 1626,-129 1627.3,-128.83 1628.62,-128.66 1629.95,-128.47"/>
<polygon fill="#63b8ff" stroke="#63b8ff" points="1630.89,-131.87 1640.28,-126.95 1629.87,-124.95 1630.89,-131.87"/>
</a>
</g>
</g>
<!-- Node13 -->
<g id="Node000013" class="node">
<title>Node13</title>
<g id="a_Node000013"><a xlink:title=" ">
<polygon fill="#e0e0e0" stroke="#999999" points="1029.5,-129 926.5,-129 926.5,-110 1029.5,-110 1029.5,-129"/>
<text text-anchor="middle" x="978" y="-117" font-family="Helvetica,sans-Serif" font-size="10.00">esxxx_common.h</text>
</a>
</g>
</g>
<!-- Node10&#45;&gt;Node13 -->
<g id="edge14_Node000010_Node000013" class="edge">
<title>Node10&#45;&gt;Node13</title>
<g id="a_edge14_Node000010_Node000013"><a xlink:title=" ">
<path fill="none" stroke="#63b8ff" d="M1113.97,-164.98C1086.89,-156.13 1044.29,-142.19 1013.99,-132.28"/>
<polygon fill="#63b8ff" stroke="#63b8ff" points="1014.82,-128.87 1004.23,-129.08 1012.65,-135.52 1014.82,-128.87"/>
</a>
</g>
</g>
<!-- Node14 -->
<g id="Node000014" class="node">
<title>Node14</title>
<g id="a_Node000014"><a xlink:href="sevetest30__gpio_8h.html" target="_top" xlink:title=" ">
<polygon fill="white" stroke="#666666" points="1508,-129 1402,-129 1402,-110 1508,-110 1508,-129"/>
<text text-anchor="middle" x="1455" y="-117" font-family="Helvetica,sans-Serif" font-size="10.00">sevetest30_gpio.h</text>
</a>
</g>
</g>
<!-- Node10&#45;&gt;Node14 -->
<g id="edge15_Node000010_Node000014" class="edge">
<title>Node10&#45;&gt;Node14</title>
<g id="a_edge15_Node000010_Node000014"><a xlink:title=" ">
<path fill="none" stroke="#63b8ff" d="M1177.06,-167.26C1230.55,-158.26 1330.01,-141.53 1394.31,-130.71"/>
<polygon fill="#63b8ff" stroke="#63b8ff" points="1395.04,-134.14 1404.32,-129.03 1393.87,-127.24 1395.04,-134.14"/>
</a>
</g>
</g>
<!-- Node17 -->
<g id="Node000017" class="node">
<title>Node17</title>
<g id="a_Node000017"><a xlink:title=" ">
<polygon fill="#e0e0e0" stroke="#999999" points="1118.5,-129 1047.5,-129 1047.5,-110 1118.5,-110 1118.5,-129"/>
<text text-anchor="middle" x="1083" y="-117" font-family="Helvetica,sans-Serif" font-size="10.00">driver/i2c.h</text>
</a>
</g>
</g>
<!-- Node10&#45;&gt;Node17 -->
<g id="edge20_Node000010_Node000017" class="edge">
<title>Node10&#45;&gt;Node17</title>
<g id="a_edge20_Node000010_Node000017"><a xlink:title=" ">
<path fill="none" stroke="#63b8ff" d="M1130.84,-164.98C1122.5,-157.23 1109.97,-145.58 1099.82,-136.14"/>
<polygon fill="#63b8ff" stroke="#63b8ff" points="1102.03,-133.42 1092.32,-129.17 1097.26,-138.54 1102.03,-133.42"/>
</a>
</g>
</g>
<!-- Node18 -->
<g id="Node000018" class="node">
<title>Node18</title>
<g id="a_Node000018"><a xlink:title=" ">
<polygon fill="#e0e0e0" stroke="#999999" points="1255.5,-129 1136.5,-129 1136.5,-110 1255.5,-110 1255.5,-129"/>
<text text-anchor="middle" x="1196" y="-117" font-family="Helvetica,sans-Serif" font-size="10.00">driver/spi_common.h</text>
</a>
</g>
</g>
<!-- Node10&#45;&gt;Node18 -->
<g id="edge21_Node000010_Node000018" class="edge">
<title>Node10&#45;&gt;Node18</title>
<g id="a_edge21_Node000010_Node000018"><a xlink:title=" ">
<path fill="none" stroke="#63b8ff" d="M1149,-164.98C1157.19,-157.23 1169.51,-145.58 1179.47,-136.14"/>
<polygon fill="#63b8ff" stroke="#63b8ff" points="1181.98,-138.59 1186.84,-129.17 1177.17,-133.5 1181.98,-138.59"/>
</a>
</g>
</g>
<!-- Node19 -->
<g id="Node000019" class="node">
<title>Node19</title>
<g id="a_Node000019"><a xlink:title=" ">
<polygon fill="#e0e0e0" stroke="#999999" points="1384,-129 1274,-129 1274,-110 1384,-110 1384,-129"/>
<text text-anchor="middle" x="1329" y="-117" font-family="Helvetica,sans-Serif" font-size="10.00">driver/spi_master.h</text>
</a>
</g>
</g>
<!-- Node10&#45;&gt;Node19 -->
<g id="edge22_Node000010_Node000019" class="edge">
<title>Node10&#45;&gt;Node19</title>
<g id="a_edge22_Node000010_Node000019"><a xlink:title=" ">
<path fill="none" stroke="#63b8ff" d="M1170.37,-164.98C1202.37,-156.01 1252.96,-141.82 1288.38,-131.89"/>
<polygon fill="#63b8ff" stroke="#63b8ff" points="1289.71,-135.15 1298.4,-129.08 1287.82,-128.41 1289.71,-135.15"/>
</a>
</g>
</g>
<!-- Node20 -->
<g id="Node000020" class="node">
<title>Node20</title>
<g id="a_Node000020"><a xlink:href="_b_l5372_8h.html" target="_top" xlink:title=" ">
<polygon fill="white" stroke="#666666" points="710,-129 648,-129 648,-110 710,-110 710,-129"/>
<text text-anchor="middle" x="679" y="-117" font-family="Helvetica,sans-Serif" font-size="10.00">BL5372.h</text>
</a>
</g>
</g>
<!-- Node10&#45;&gt;Node20 -->
<g id="edge24_Node000010_Node000020" class="edge">
<title>Node10&#45;&gt;Node20</title>
<g id="a_edge24_Node000010_Node000020"><a xlink:title=" ">
<path fill="none" stroke="#63b8ff" d="M1102.66,-169.21C1017.41,-159.41 808.93,-135.44 720.14,-125.23"/>
<polygon fill="#63b8ff" stroke="#63b8ff" points="720.5,-121.75 710.17,-124.08 719.7,-128.7 720.5,-121.75"/>
</a>
</g>
</g>
<!-- Node14&#45;&gt;Node15 -->
<g id="edge16_Node000014_Node000015" class="edge">
<title>Node14&#45;&gt;Node15</title>
<g id="a_edge16_Node000014_Node000015"><a xlink:title=" ">
<path fill="none" stroke="#63b8ff" d="M1484.72,-109.98C1516.05,-101.01 1565.57,-86.82 1600.24,-76.89"/>
<polygon fill="#63b8ff" stroke="#63b8ff" points="1601.39,-80.2 1610.04,-74.08 1599.47,-73.47 1601.39,-80.2"/>
</a>
</g>
</g>
<!-- Node15&#45;&gt;Node2 -->
<g id="edge17_Node000015_Node000002" class="edge">
<title>Node15&#45;&gt;Node2</title>
<g id="a_edge17_Node000015_Node000002"><a xlink:title=" ">
<path fill="none" stroke="#63b8ff" d="M1674.7,-54.98C1714.39,-45.25 1779.08,-29.37 1819.5,-19.46"/>
<polygon fill="#63b8ff" stroke="#63b8ff" points="1820.35,-22.85 1829.23,-17.07 1818.68,-16.05 1820.35,-22.85"/>
</a>
</g>
</g>
<!-- Node15&#45;&gt;Node3 -->
<g id="edge18_Node000015_Node000003" class="edge">
<title>Node15&#45;&gt;Node3</title>
<g id="a_edge18_Node000015_Node000003"><a xlink:title=" ">
<path fill="none" stroke="#63b8ff" d="M1659.44,-54.98C1678.99,-46.42 1709.38,-33.11 1731.82,-23.28"/>
<polygon fill="#63b8ff" stroke="#63b8ff" points="1733.45,-26.39 1741.21,-19.17 1730.64,-19.98 1733.45,-26.39"/>
</a>
</g>
</g>
<!-- Node16 -->
<g id="Node000016" class="node">
<title>Node16</title>
<g id="a_Node000016"><a xlink:title=" ">
<polygon fill="#e0e0e0" stroke="#999999" points="646.5,-19 585.5,-19 585.5,0 646.5,0 646.5,-19"/>
<text text-anchor="middle" x="616" y="-7" font-family="Helvetica,sans-Serif" font-size="10.00">esp_err.h</text>
</a>
</g>
</g>
<!-- Node15&#45;&gt;Node16 -->
<g id="edge19_Node000015_Node000016" class="edge">
<title>Node15&#45;&gt;Node16</title>
<g id="a_edge19_Node000015_Node000016"><a xlink:title=" ">
<path fill="none" stroke="#63b8ff" d="M1602.3,-56.81C1597.5,-56.11 1592.64,-55.48 1588,-55 1228.52,-17.52 790.98,-11.61 656.95,-10.67"/>
<polygon fill="#63b8ff" stroke="#63b8ff" points="656.76,-7.17 646.74,-10.61 656.72,-14.17 656.76,-7.17"/>
</a>
</g>
</g>
<!-- Node20&#45;&gt;Node11 -->
<g id="edge25_Node000020_Node000011" class="edge">
<title>Node20&#45;&gt;Node11</title>
<g id="a_edge25_Node000020_Node000011"><a xlink:title=" ">
<path fill="none" stroke="#63b8ff" d="M668.88,-109.98C659.56,-102.15 645.53,-90.34 634.26,-80.86"/>
<polygon fill="#63b8ff" stroke="#63b8ff" points="636.21,-77.93 626.31,-74.17 631.71,-83.29 636.21,-77.93"/>
</a>
</g>
</g>
<!-- Node20&#45;&gt;Node16 -->
<g id="edge26_Node000020_Node000016" class="edge">
<title>Node20&#45;&gt;Node16</title>
<g id="a_edge26_Node000020_Node000016"><a xlink:title=" ">
<path fill="none" stroke="#63b8ff" d="M678.15,-109.71C676.59,-96.91 672.42,-72.71 662,-55 655.36,-43.71 645.08,-33.38 635.92,-25.52"/>
<polygon fill="#63b8ff" stroke="#63b8ff" points="637.92,-22.64 627.96,-19.04 633.5,-28.07 637.92,-22.64"/>
</a>
</g>
</g>
<!-- Node22&#45;&gt;Node10 -->
<g id="edge30_Node000022_Node000010" class="edge">
<title>Node22&#45;&gt;Node10</title>
<g id="a_edge30_Node000022_Node000010"><a xlink:title=" ">
<path fill="none" stroke="#63b8ff" d="M764.37,-222.68C845.27,-212.52 1011.33,-191.66 1092.81,-181.43"/>
<polygon fill="#63b8ff" stroke="#63b8ff" points="1093.3,-184.89 1102.78,-180.17 1092.42,-177.95 1093.3,-184.89"/>
</a>
</g>
</g>
<!-- Node22&#45;&gt;Node16 -->
<g id="edge29_Node000022_Node000016" class="edge">
<title>Node22&#45;&gt;Node16</title>
<g id="a_edge29_Node000022_Node000016"><a xlink:title=" ">
<path fill="none" stroke="#63b8ff" d="M671.81,-224.57C564.25,-214.55 301.16,-184.84 235,-129 214.19,-111.44 214.16,-100.53 208,-74 206.09,-65.77 202.36,-61.29 208,-55 232.24,-27.97 476.52,-15.77 575.08,-11.92"/>
<polygon fill="#63b8ff" stroke="#63b8ff" points="575.4,-15.41 585.26,-11.54 575.13,-8.42 575.4,-15.41"/>
</a>
</g>
</g>
<!-- Node23&#45;&gt;Node3 -->
<g id="edge36_Node000023_Node000003" class="edge">
<title>Node23&#45;&gt;Node3</title>
<g id="a_edge36_Node000023_Node000003"><a xlink:title=" ">
<path fill="none" stroke="#63b8ff" d="M2155.71,-57.4C2078.38,-49.31 1938.93,-34.26 1820,-19 1814.21,-18.26 1808.11,-17.43 1802.12,-16.59"/>
<polygon fill="#63b8ff" stroke="#63b8ff" points="1802.6,-13.12 1792.21,-15.18 1801.61,-20.05 1802.6,-13.12"/>
</a>
</g>
</g>
<!-- Node23&#45;&gt;Node16 -->
<g id="edge35_Node000023_Node000016" class="edge">
<title>Node23&#45;&gt;Node16</title>
<g id="a_edge35_Node000023_Node000016"><a xlink:title=" ">
<path fill="none" stroke="#63b8ff" d="M2155.72,-61.53C1897.41,-52.97 873.47,-19.03 656.52,-11.84"/>
<polygon fill="#63b8ff" stroke="#63b8ff" points="656.63,-8.34 646.52,-11.51 656.4,-15.34 656.63,-8.34"/>
</a>
</g>
</g>
<!-- Node24 -->
<g id="Node000024" class="node">
<title>Node24</title>
<g id="a_Node000024"><a xlink:title=" ">
<polygon fill="#e0e0e0" stroke="#999999" points="2200.5,-19 2121.5,-19 2121.5,0 2200.5,0 2200.5,-19"/>
<text text-anchor="middle" x="2161" y="-7" font-family="Helvetica,sans-Serif" font-size="10.00">periph_wifi.h</text>
</a>
</g>
</g>
<!-- Node23&#45;&gt;Node24 -->
<g id="edge33_Node000023_Node000024" class="edge">
<title>Node23&#45;&gt;Node24</title>
<g id="a_edge33_Node000023_Node000024"><a xlink:title=" ">
<path fill="none" stroke="#63b8ff" d="M2206.08,-54.75C2198.22,-47.03 2186.57,-35.6 2177.08,-26.28"/>
<polygon fill="#63b8ff" stroke="#63b8ff" points="2179.34,-23.6 2169.75,-19.09 2174.44,-28.59 2179.34,-23.6"/>
</a>
</g>
</g>
<!-- Node25 -->
<g id="Node000025" class="node">
<title>Node25</title>
<g id="a_Node000025"><a xlink:title=" ">
<polygon fill="#e0e0e0" stroke="#999999" points="2319,-19 2219,-19 2219,0 2319,0 2319,-19"/>
<text text-anchor="middle" x="2269" y="-7" font-family="Helvetica,sans-Serif" font-size="10.00">esp_http_client.h</text>
</a>
</g>
</g>
<!-- Node23&#45;&gt;Node25 -->
<g id="edge34_Node000023_Node000025" class="edge">
<title>Node23&#45;&gt;Node25</title>
<g id="a_edge34_Node000023_Node000025"><a xlink:title=" ">
<path fill="none" stroke="#63b8ff" d="M2223.92,-54.75C2231.78,-47.03 2243.43,-35.6 2252.92,-26.28"/>
<polygon fill="#63b8ff" stroke="#63b8ff" points="2255.56,-28.59 2260.25,-19.09 2250.66,-23.6 2255.56,-28.59"/>
</a>
</g>
</g>
<!-- Node26&#45;&gt;Node3 -->
<g id="edge39_Node000026_Node000003" class="edge">
<title>Node26&#45;&gt;Node3</title>
<g id="a_edge39_Node000026_Node000003"><a xlink:title=" ">
<path fill="none" stroke="#63b8ff" d="M551.68,-166.22C598.3,-159.54 663.83,-147.79 719,-129 736.87,-122.91 738.86,-115.24 757,-110 942.66,-56.37 1554.17,-21.27 1719.49,-12.6"/>
<polygon fill="#63b8ff" stroke="#63b8ff" points="1719.92,-16.08 1729.72,-12.07 1719.55,-9.09 1719.92,-16.08"/>
</a>
</g>
</g>
<!-- Node26&#45;&gt;Node9 -->
<g id="edge40_Node000026_Node000009" class="edge">
<title>Node26&#45;&gt;Node9</title>
<g id="a_edge40_Node000026_Node000009"><a xlink:title=" ">
<path fill="none" stroke="#63b8ff" d="M430.31,-171.15C365.26,-167.21 268.16,-156.73 245,-129 234.43,-116.35 239.1,-97.09 244.91,-83.1"/>
<polygon fill="#63b8ff" stroke="#63b8ff" points="248.1,-84.55 249.15,-74.01 241.75,-81.6 248.1,-84.55"/>
</a>
</g>
</g>
<!-- Node26&#45;&gt;Node20 -->
<g id="edge47_Node000026_Node000020" class="edge">
<title>Node26&#45;&gt;Node20</title>
<g id="a_edge47_Node000026_Node000020"><a xlink:title=" ">
<path fill="none" stroke="#63b8ff" d="M521.21,-164.98C553.04,-156.01 603.36,-141.82 638.6,-131.89"/>
<polygon fill="#63b8ff" stroke="#63b8ff" points="639.88,-135.16 648.56,-129.08 637.98,-128.43 639.88,-135.16"/>
</a>
</g>
</g>
<!-- Node27 -->
<g id="Node000027" class="node">
<title>Node27</title>
<g id="a_Node000027"><a xlink:title=" ">
<polygon fill="#e0e0e0" stroke="#999999" points="380,-129 330,-129 330,-110 380,-110 380,-129"/>
<text text-anchor="middle" x="355" y="-117" font-family="Helvetica,sans-Serif" font-size="10.00">stdio.h</text>
</a>
</g>
</g>
<!-- Node26&#45;&gt;Node27 -->
<g id="edge38_Node000026_Node000027" class="edge">
<title>Node26&#45;&gt;Node27</title>
<g id="a_edge38_Node000026_Node000027"><a xlink:title=" ">
<path fill="none" stroke="#63b8ff" d="M469.15,-164.98C446.88,-156.3 412.1,-142.75 386.78,-132.88"/>
<polygon fill="#63b8ff" stroke="#63b8ff" points="387.84,-129.54 377.25,-129.17 385.29,-136.06 387.84,-129.54"/>
</a>
</g>
</g>
<!-- Node28 -->
<g id="Node000028" class="node">
<title>Node28</title>
<g id="a_Node000028"><a xlink:href="_a_h_t21_8h.html" target="_top" xlink:title=" ">
<polygon fill="white" stroke="#666666" points="494,-129 436,-129 436,-110 494,-110 494,-129"/>
<text text-anchor="middle" x="465" y="-117" font-family="Helvetica,sans-Serif" font-size="10.00">AHT21.h</text>
</a>
</g>
</g>
<!-- Node26&#45;&gt;Node28 -->
<g id="edge41_Node000026_Node000028" class="edge">
<title>Node26&#45;&gt;Node28</title>
<g id="a_edge41_Node000026_Node000028"><a xlink:title=" ">
<path fill="none" stroke="#63b8ff" d="M486.71,-164.75C483.19,-157.57 478.09,-147.18 473.72,-138.27"/>
<polygon fill="#63b8ff" stroke="#63b8ff" points="476.76,-136.53 469.21,-129.09 470.48,-139.61 476.76,-136.53"/>
</a>
</g>
</g>
<!-- Node29 -->
<g id="Node000029" class="node">
<title>Node29</title>
<g id="a_Node000029"><a xlink:href="_a_g_s10_8h.html" target="_top" xlink:title=" ">
<polygon fill="white" stroke="#666666" points="312,-129 254,-129 254,-110 312,-110 312,-129"/>
<text text-anchor="middle" x="283" y="-117" font-family="Helvetica,sans-Serif" font-size="10.00">AGS10.h</text>
</a>
</g>
</g>
<!-- Node26&#45;&gt;Node29 -->
<g id="edge44_Node000026_Node000029" class="edge">
<title>Node26&#45;&gt;Node29</title>
<g id="a_edge44_Node000026_Node000029"><a xlink:title=" ">
<path fill="none" stroke="#63b8ff" d="M457.58,-164.98C420.61,-155.56 361.1,-140.4 322.01,-130.44"/>
<polygon fill="#63b8ff" stroke="#63b8ff" points="322.86,-127.04 312.3,-127.97 321.13,-133.83 322.86,-127.04"/>
</a>
</g>
</g>
<!-- Node30 -->
<g id="Node000030" class="node">
<title>Node30</title>
<g id="a_Node000030"><a xlink:href="lsm6ds3trc_8h.html" target="_top" xlink:title=" ">
<polygon fill="white" stroke="#666666" points="592,-129 512,-129 512,-110 592,-110 592,-129"/>
<text text-anchor="middle" x="552" y="-117" font-family="Helvetica,sans-Serif" font-size="10.00">lsm6ds3trc.h</text>
</a>
</g>
</g>
<!-- Node26&#45;&gt;Node30 -->
<g id="edge48_Node000026_Node000030" class="edge">
<title>Node26&#45;&gt;Node30</title>
<g id="a_edge48_Node000026_Node000030"><a xlink:title=" ">
<path fill="none" stroke="#63b8ff" d="M500.8,-164.98C509.82,-157.15 523.41,-145.34 534.32,-135.86"/>
<polygon fill="#63b8ff" stroke="#63b8ff" points="536.77,-138.37 542.02,-129.17 532.18,-133.09 536.77,-138.37"/>
</a>
</g>
</g>
<!-- Node28&#45;&gt;Node11 -->
<g id="edge42_Node000028_Node000011" class="edge">
<title>Node28&#45;&gt;Node11</title>
<g id="a_edge42_Node000028_Node000011"><a xlink:title=" ">
<path fill="none" stroke="#63b8ff" d="M489.26,-109.98C514.32,-101.19 553.63,-87.39 581.83,-77.49"/>
<polygon fill="#63b8ff" stroke="#63b8ff" points="583.02,-80.78 591.3,-74.17 580.7,-74.18 583.02,-80.78"/>
</a>
</g>
</g>
<!-- Node28&#45;&gt;Node16 -->
<g id="edge43_Node000028_Node000016" class="edge">
<title>Node28&#45;&gt;Node16</title>
<g id="a_edge43_Node000028_Node000016"><a xlink:title=" ">
<path fill="none" stroke="#63b8ff" d="M477.1,-109.84C502.95,-91.36 563.77,-47.86 595.66,-25.05"/>
<polygon fill="#63b8ff" stroke="#63b8ff" points="597.74,-27.86 603.84,-19.2 593.67,-22.17 597.74,-27.86"/>
</a>
</g>
</g>
<!-- Node29&#45;&gt;Node9 -->
<g id="edge46_Node000029_Node000009" class="edge">
<title>Node29&#45;&gt;Node9</title>
<g id="a_edge46_Node000029_Node000009"><a xlink:title=" ">
<path fill="none" stroke="#63b8ff" d="M278.21,-109.75C274.24,-102.49 268.47,-91.95 263.57,-82.98"/>
<polygon fill="#63b8ff" stroke="#63b8ff" points="266.57,-81.18 258.7,-74.09 260.43,-84.54 266.57,-81.18"/>
</a>
</g>
</g>
<!-- Node29&#45;&gt;Node11 -->
<g id="edge45_Node000029_Node000011" class="edge">
<title>Node29&#45;&gt;Node11</title>
<g id="a_edge45_Node000029_Node000011"><a xlink:title=" ">
<path fill="none" stroke="#63b8ff" d="M312,-111.79C315.03,-111.16 318.08,-110.55 321,-110 407.69,-93.79 509.57,-79.45 568.08,-71.67"/>
<polygon fill="#63b8ff" stroke="#63b8ff" points="568.68,-75.12 578.14,-70.34 567.76,-68.18 568.68,-75.12"/>
</a>
</g>
</g>
<!-- Node30&#45;&gt;Node11 -->
<g id="edge49_Node000030_Node000011" class="edge">
<title>Node30&#45;&gt;Node11</title>
<g id="a_edge49_Node000030_Node000011"><a xlink:title=" ">
<path fill="none" stroke="#63b8ff" d="M562.28,-109.98C571.84,-102.07 586.28,-90.11 597.78,-80.58"/>
<polygon fill="#63b8ff" stroke="#63b8ff" points="600.06,-83.24 605.53,-74.17 595.6,-77.85 600.06,-83.24"/>
</a>
</g>
</g>
<!-- Node30&#45;&gt;Node16 -->
<g id="edge50_Node000030_Node000016" class="edge">
<title>Node30&#45;&gt;Node16</title>
<g id="a_edge50_Node000030_Node000016"><a xlink:title=" ">
<path fill="none" stroke="#63b8ff" d="M552.83,-109.7C554.35,-96.87 558.49,-72.65 569,-55 575.69,-43.76 586.01,-33.55 595.28,-25.75"/>
<polygon fill="#63b8ff" stroke="#63b8ff" points="597.72,-28.27 603.36,-19.3 593.36,-22.8 597.72,-28.27"/>
</a>
</g>
</g>
<!-- Node31&#45;&gt;Node16 -->
<g id="edge52_Node000031_Node000016" class="edge">
<title>Node31&#45;&gt;Node16</title>
<g id="a_edge52_Node000031_Node000016"><a xlink:title=" ">
<path fill="none" stroke="#63b8ff" d="M122.38,-56.44C126.99,-55.94 131.57,-55.46 136,-55 298.67,-38.24 492.65,-21.14 575.38,-13.98"/>
<polygon fill="#63b8ff" stroke="#63b8ff" points="575.71,-17.47 585.37,-13.12 575.11,-10.49 575.71,-17.47"/>
</a>
</g>
</g>
<!-- Node32&#45;&gt;Node2 -->
<g id="edge54_Node000032_Node000002" class="edge">
<title>Node32&#45;&gt;Node2</title>
<g id="a_edge54_Node000032_Node000002"><a xlink:title=" ">
<path fill="none" stroke="#63b8ff" d="M1729.66,-282.29C1860.41,-278.24 2151.53,-260.63 2206,-184 2246.89,-126.47 1989.94,-47.8 1892.42,-20.39"/>
<polygon fill="#63b8ff" stroke="#63b8ff" points="1893.26,-17 1882.69,-17.68 1891.38,-23.74 1893.26,-17"/>
</a>
</g>
</g>
<!-- Node32&#45;&gt;Node11 -->
<g id="edge63_Node000032_Node000011" class="edge">
<title>Node32&#45;&gt;Node11</title>
<g id="a_edge63_Node000032_Node000011"><a xlink:title=" ">
<path fill="none" stroke="#63b8ff" d="M1602.44,-282.21C1402.03,-276.93 787.81,-250.9 639,-129 625.69,-118.1 620.08,-98.82 617.72,-84.36"/>
<polygon fill="#63b8ff" stroke="#63b8ff" points="621.14,-83.54 616.43,-74.05 614.2,-84.4 621.14,-83.54"/>
</a>
</g>
</g>
<!-- Node32&#45;&gt;Node33 -->
<g id="edge55_Node000032_Node000033" class="edge">
<title>Node32&#45;&gt;Node33</title>
<g id="a_edge55_Node000032_Node000033"><a xlink:title=" ">
<path fill="none" stroke="#63b8ff" d="M1666,-274.75C1666,-267.8 1666,-257.85 1666,-249.13"/>
<polygon fill="#63b8ff" stroke="#63b8ff" points="1669.5,-249.09 1666,-239.09 1662.5,-249.09 1669.5,-249.09"/>
</a>
</g>
</g>
<!-- Node33&#45;&gt;Node2 -->
<g id="edge56_Node000033_Node000002" class="edge">
<title>Node33&#45;&gt;Node2</title>
<g id="a_edge56_Node000033_Node000002"><a xlink:title=" ">
<path fill="none" stroke="#63b8ff" d="M1685.46,-219.98C1701.62,-212.24 1724.55,-199.65 1741,-184 1791.54,-135.92 1831.25,-61.7 1847.72,-28.1"/>
<polygon fill="#63b8ff" stroke="#63b8ff" points="1850.9,-29.58 1852.08,-19.05 1844.59,-26.54 1850.9,-29.58"/>
</a>
</g>
</g>
<!-- Node33&#45;&gt;Node3 -->
<g id="edge57_Node000033_Node000003" class="edge">
<title>Node33&#45;&gt;Node3</title>
<g id="a_edge57_Node000033_Node000003"><a xlink:title=" ">
<path fill="none" stroke="#63b8ff" d="M1677.84,-219.99C1698.21,-204.56 1739.31,-169.74 1756,-129 1769.54,-95.94 1767.02,-53.25 1763.99,-29.18"/>
<polygon fill="#63b8ff" stroke="#63b8ff" points="1767.46,-28.66 1762.58,-19.26 1760.53,-29.65 1767.46,-28.66"/>
</a>
</g>
</g>
<!-- Node33&#45;&gt;Node4 -->
<g id="edge59_Node000033_Node000004" class="edge">
<title>Node33&#45;&gt;Node4</title>
<g id="a_edge59_Node000033_Node000004"><a xlink:title=" ">
<path fill="none" stroke="#63b8ff" d="M1697.65,-219.98C1731.16,-210.97 1784.2,-196.7 1821.14,-186.76"/>
<polygon fill="#63b8ff" stroke="#63b8ff" points="1822.35,-190.06 1831.1,-184.08 1820.53,-183.3 1822.35,-190.06"/>
</a>
</g>
</g>
<!-- Node33&#45;&gt;Node5 -->
<g id="edge60_Node000033_Node000005" class="edge">
<title>Node33&#45;&gt;Node5</title>
<g id="a_edge60_Node000033_Node000005"><a xlink:title=" ">
<path fill="none" stroke="#63b8ff" d="M1713.65,-220.51C1771.1,-210.87 1867.44,-194.71 1927.71,-184.61"/>
<polygon fill="#63b8ff" stroke="#63b8ff" points="1928.51,-188.02 1937.79,-182.91 1927.35,-181.12 1928.51,-188.02"/>
</a>
</g>
</g>
<!-- Node33&#45;&gt;Node10 -->
<g id="edge62_Node000033_Node000010" class="edge">
<title>Node33&#45;&gt;Node10</title>
<g id="a_edge62_Node000033_Node000010"><a xlink:title=" ">
<path fill="none" stroke="#63b8ff" d="M1618.39,-223.7C1518.25,-213.61 1286.85,-190.3 1187.13,-180.25"/>
<polygon fill="#63b8ff" stroke="#63b8ff" points="1187.35,-176.75 1177.05,-179.23 1186.65,-183.72 1187.35,-176.75"/>
</a>
</g>
</g>
<!-- Node33&#45;&gt;Node16 -->
<g id="edge58_Node000033_Node000016" class="edge">
<title>Node33&#45;&gt;Node16</title>
<g id="a_edge58_Node000033_Node000016"><a xlink:title=" ">
<path fill="none" stroke="#63b8ff" d="M1649.66,-219.93C1634.4,-211.61 1611.3,-198.19 1593,-184 1555.75,-155.1 1559.63,-130.12 1517,-110 1361.01,-36.37 811.51,-15.88 656.8,-11.51"/>
<polygon fill="#63b8ff" stroke="#63b8ff" points="656.87,-8.01 646.78,-11.24 656.68,-15.01 656.87,-8.01"/>
</a>
</g>
</g>
<!-- Node34 -->
<g id="Node000034" class="node">
<title>Node34</title>
<g id="a_Node000034"><a xlink:title=" ">
<polygon fill="#e0e0e0" stroke="#999999" points="1673.5,-184 1602.5,-184 1602.5,-165 1673.5,-165 1673.5,-184"/>
<text text-anchor="middle" x="1638" y="-172" font-family="Helvetica,sans-Serif" font-size="10.00">driver/i2s.h</text>
</a>
</g>
</g>
<!-- Node33&#45;&gt;Node34 -->
<g id="edge61_Node000033_Node000034" class="edge">
<title>Node33&#45;&gt;Node34</title>
<g id="a_edge61_Node000033_Node000034"><a xlink:title=" ">
<path fill="none" stroke="#63b8ff" d="M1661.38,-219.75C1657.54,-212.49 1651.98,-201.95 1647.24,-192.98"/>
<polygon fill="#63b8ff" stroke="#63b8ff" points="1650.3,-191.3 1642.54,-184.09 1644.11,-194.57 1650.3,-191.3"/>
</a>
</g>
</g>
<!-- Node35&#45;&gt;Node3 -->
<g id="edge66_Node000035_Node000003" class="edge">
<title>Node35&#45;&gt;Node3</title>
<g id="a_edge66_Node000035_Node000003"><a xlink:title=" ">
<path fill="none" stroke="#63b8ff" d="M1998.37,-219.97C2018.25,-208.4 2047.68,-186.7 2035,-165 1984.38,-78.34 1865.24,-36.48 1802.04,-19.76"/>
<polygon fill="#63b8ff" stroke="#63b8ff" points="1802.58,-16.29 1792.03,-17.2 1800.85,-23.07 1802.58,-16.29"/>
</a>
</g>
</g>
<!-- Node35&#45;&gt;Node4 -->
<g id="edge67_Node000035_Node000004" class="edge">
<title>Node35&#45;&gt;Node4</title>
<g id="a_edge67_Node000035_Node000004"><a xlink:title=" ">
<path fill="none" stroke="#63b8ff" d="M1962.88,-219.98C1943.65,-211.42 1913.77,-198.11 1891.69,-188.28"/>
<polygon fill="#63b8ff" stroke="#63b8ff" points="1893.03,-185.04 1882.47,-184.17 1890.18,-191.44 1893.03,-185.04"/>
</a>
</g>
</g>
<!-- Node35&#45;&gt;Node5 -->
<g id="edge68_Node000035_Node000005" class="edge">
<title>Node35&#45;&gt;Node5</title>
<g id="a_edge68_Node000035_Node000005"><a xlink:title=" ">
<path fill="none" stroke="#63b8ff" d="M1982,-219.75C1982,-212.8 1982,-202.85 1982,-194.13"/>
<polygon fill="#63b8ff" stroke="#63b8ff" points="1985.5,-194.09 1982,-184.09 1978.5,-194.09 1985.5,-194.09"/>
</a>
</g>
</g>
<!-- Node36 -->
<g id="Node000036" class="node">
<title>Node36</title>
<g id="a_Node000036"><a xlink:title=" ">
<polygon fill="#e0e0e0" stroke="#999999" points="2197.5,-184 2082.5,-184 2082.5,-165 2197.5,-165 2197.5,-184"/>
<text text-anchor="middle" x="2140" y="-172" font-family="Helvetica,sans-Serif" font-size="10.00">audio_event_iface.h</text>
</a>
</g>
</g>
<!-- Node35&#45;&gt;Node36 -->
<g id="edge69_Node000035_Node000036" class="edge">
<title>Node35&#45;&gt;Node36</title>
<g id="a_edge69_Node000035_Node000036"><a xlink:title=" ">
<path fill="none" stroke="#63b8ff" d="M2007.39,-219.98C2033.8,-211.13 2075.35,-197.19 2104.89,-187.28"/>
<polygon fill="#63b8ff" stroke="#63b8ff" points="2106.05,-190.58 2114.42,-184.08 2103.82,-183.94 2106.05,-190.58"/>
</a>
</g>
</g>
<!-- Node38 -->
<g id="Node000038" class="node">
<title>Node38</title>
<g id="a_Node000038"><a xlink:title=" ">
<polygon fill="#e0e0e0" stroke="#999999" points="2829.5,-239 2732.5,-239 2732.5,-220 2829.5,-220 2829.5,-239"/>
<text text-anchor="middle" x="2781" y="-227" font-family="Helvetica,sans-Serif" font-size="10.00">hal/gpio_types.h</text>
</a>
</g>
</g>
<!-- Node37&#45;&gt;Node38 -->
<g id="edge71_Node000037_Node000038" class="edge">
<title>Node37&#45;&gt;Node38</title>
<g id="a_edge71_Node000037_Node000038"><a xlink:title=" ">
<path fill="none" stroke="#63b8ff" d="M2733.16,-274.98C2741.5,-267.23 2754.03,-255.58 2764.18,-246.14"/>
<polygon fill="#63b8ff" stroke="#63b8ff" points="2766.74,-248.54 2771.68,-239.17 2761.97,-243.42 2766.74,-248.54"/>
</a>
</g>
</g>
<!-- Node39 -->
<g id="Node000039" class="node">
<title>Node39</title>
<g id="a_Node000039"><a xlink:title=" ">
<polygon fill="#e0e0e0" stroke="#999999" points="2714,-239 2618,-239 2618,-220 2714,-220 2714,-239"/>
<text text-anchor="middle" x="2666" y="-227" font-family="Helvetica,sans-Serif" font-size="10.00">driver/mcpwm.h</text>
</a>
</g>
</g>
<!-- Node37&#45;&gt;Node39 -->
<g id="edge72_Node000037_Node000039" class="edge">
<title>Node37&#45;&gt;Node39</title>
<g id="a_edge72_Node000037_Node000039"><a xlink:title=" ">
<path fill="none" stroke="#63b8ff" d="M2714.68,-274.98C2706.19,-267.23 2693.44,-255.58 2683.12,-246.14"/>
<polygon fill="#63b8ff" stroke="#63b8ff" points="2685.23,-243.33 2675.49,-239.17 2680.51,-248.5 2685.23,-243.33"/>
</a>
</g>
</g>
</g>
</svg>
