<?xml version="1.0" encoding="UTF-8" standalone="no"?>
<!DOCTYPE svg PUBLIC "-//W3C//DTD SVG 1.1//EN"
 "http://www.w3.org/Graphics/SVG/1.1/DTD/svg11.dtd">
<!-- Generated by graphviz version 2.43.0 (0)
 -->
<!-- Title: main/main.c Pages: 1 -->
<svg width="2526pt" height="357pt"
 viewBox="0.00 0.00 2525.50 357.00" xmlns="http://www.w3.org/2000/svg" xmlns:xlink="http://www.w3.org/1999/xlink">
<g id="graph0" class="graph" transform="scale(1 1) rotate(0) translate(4 353)">
<title>main/main.c</title>
<!-- Node1 -->
<g id="Node000001" class="node">
<title>Node1</title>
<g id="a_Node000001"><a xlink:title=" ">
<polygon fill="#999999" stroke="#666666" points="1246.5,-349 1169.5,-349 1169.5,-330 1246.5,-330 1246.5,-349"/>
<text text-anchor="middle" x="1208" y="-337" font-family="Helvetica,sans-Serif" font-size="10.00">main/main.c</text>
</a>
</g>
</g>
<!-- Node2 -->
<g id="Node000002" class="node">
<title>Node2</title>
<g id="a_Node000002"><a xlink:title=" ">
<polygon fill="#e0e0e0" stroke="#999999" points="524.5,-19 471.5,-19 471.5,0 524.5,0 524.5,-19"/>
<text text-anchor="middle" x="498" y="-7" font-family="Helvetica,sans-Serif" font-size="10.00">string.h</text>
</a>
</g>
</g>
<!-- Node1&#45;&gt;Node2 -->
<g id="edge1_Node000001_Node000002" class="edge">
<title>Node1&#45;&gt;Node2</title>
<g id="a_edge1_Node000001_Node000002"><a xlink:title=" ">
<path fill="none" stroke="#63b8ff" d="M1169.18,-337.11C962.41,-329.46 0,-290.64 0,-230.5 0,-230.5 0,-230.5 0,-118.5 0,-24.13 345.85,-12.04 461.12,-10.64"/>
<polygon fill="#63b8ff" stroke="#63b8ff" points="461.26,-14.13 471.23,-10.53 461.19,-7.14 461.26,-14.13"/>
</a>
</g>
</g>
<!-- Node3 -->
<g id="Node000003" class="node">
<title>Node3</title>
<g id="a_Node000003"><a xlink:title=" ">
<polygon fill="#e0e0e0" stroke="#999999" points="1749,-19 1687,-19 1687,0 1749,0 1749,-19"/>
<text text-anchor="middle" x="1718" y="-7" font-family="Helvetica,sans-Serif" font-size="10.00">stdbool.h</text>
</a>
</g>
</g>
<!-- Node1&#45;&gt;Node3 -->
<g id="edge2_Node000001_Node000003" class="edge">
<title>Node1&#45;&gt;Node3</title>
<g id="a_edge2_Node000001_Node000003"><a xlink:title=" ">
<path fill="none" stroke="#63b8ff" d="M1246.57,-338.72C1437.68,-339.33 2274,-335.95 2274,-230.5 2274,-230.5 2274,-230.5 2274,-118.5 2274,-13.65 1888.17,-8.54 1759.33,-9.76"/>
<polygon fill="#63b8ff" stroke="#63b8ff" points="1759.04,-6.26 1749.08,-9.87 1759.12,-13.26 1759.04,-6.26"/>
</a>
</g>
</g>
<!-- Node4 -->
<g id="Node000004" class="node">
<title>Node4</title>
<g id="a_Node000004"><a xlink:title=" ">
<polygon fill="#e0e0e0" stroke="#999999" points="1967.5,-184 1854.5,-184 1854.5,-165 1967.5,-165 1967.5,-184"/>
<text text-anchor="middle" x="1911" y="-172" font-family="Helvetica,sans-Serif" font-size="10.00">freertos/FreeRTOS.h</text>
</a>
</g>
</g>
<!-- Node1&#45;&gt;Node4 -->
<g id="edge3_Node000001_Node000004" class="edge">
<title>Node1&#45;&gt;Node4</title>
<g id="a_edge3_Node000001_Node000004"><a xlink:title=" ">
<path fill="none" stroke="#63b8ff" d="M1246.62,-337.02C1346.64,-332.87 1612.12,-319.7 1696,-294 1773.76,-270.17 1855.06,-216.02 1891.41,-190"/>
<polygon fill="#63b8ff" stroke="#63b8ff" points="1893.61,-192.72 1899.66,-184.02 1889.51,-187.06 1893.61,-192.72"/>
</a>
</g>
</g>
<!-- Node5 -->
<g id="Node000005" class="node">
<title>Node5</title>
<g id="a_Node000005"><a xlink:title=" ">
<polygon fill="#e0e0e0" stroke="#999999" points="2074,-184 1986,-184 1986,-165 2074,-165 2074,-184"/>
<text text-anchor="middle" x="2030" y="-172" font-family="Helvetica,sans-Serif" font-size="10.00">freertos/task.h</text>
</a>
</g>
</g>
<!-- Node1&#45;&gt;Node5 -->
<g id="edge4_Node000001_Node000005" class="edge">
<title>Node1&#45;&gt;Node5</title>
<g id="a_edge4_Node000001_Node000005"><a xlink:title=" ">
<path fill="none" stroke="#63b8ff" d="M1246.64,-339.13C1334.62,-339.73 1556.11,-336.47 1735,-294 1838.96,-269.32 1954.39,-214.2 2004.49,-188.79"/>
<polygon fill="#63b8ff" stroke="#63b8ff" points="2006.31,-191.79 2013.61,-184.13 2003.12,-185.56 2006.31,-191.79"/>
</a>
</g>
</g>
<!-- Node6 -->
<g id="Node000006" class="node">
<title>Node6</title>
<g id="a_Node000006"><a xlink:title=" ">
<polygon fill="#e0e0e0" stroke="#999999" points="861.5,-294 754.5,-294 754.5,-275 861.5,-275 861.5,-294"/>
<text text-anchor="middle" x="808" y="-282" font-family="Helvetica,sans-Serif" font-size="10.00">freertos/projdefs.h</text>
</a>
</g>
</g>
<!-- Node1&#45;&gt;Node6 -->
<g id="edge5_Node000001_Node000006" class="edge">
<title>Node1&#45;&gt;Node6</title>
<g id="a_edge5_Node000001_Node000006"><a xlink:title=" ">
<path fill="none" stroke="#63b8ff" d="M1169.47,-333.49C1108.49,-325.56 985.73,-309.52 871.71,-294.22"/>
<polygon fill="#63b8ff" stroke="#63b8ff" points="872.14,-290.75 861.77,-292.89 871.21,-297.69 872.14,-290.75"/>
</a>
</g>
</g>
<!-- Node7 -->
<g id="Node000007" class="node">
<title>Node7</title>
<g id="a_Node000007"><a xlink:title=" ">
<polygon fill="#e0e0e0" stroke="#999999" points="942.5,-294 879.5,-294 879.5,-275 942.5,-275 942.5,-294"/>
<text text-anchor="middle" x="911" y="-282" font-family="Helvetica,sans-Serif" font-size="10.00">esp_log.h</text>
</a>
</g>
</g>
<!-- Node1&#45;&gt;Node7 -->
<g id="edge6_Node000001_Node000007" class="edge">
<title>Node1&#45;&gt;Node7</title>
<g id="a_edge6_Node000001_Node000007"><a xlink:title=" ">
<path fill="none" stroke="#63b8ff" d="M1169.29,-331.73C1119.97,-323.08 1032.12,-307.6 957,-294 955.55,-293.74 954.08,-293.47 952.59,-293.2"/>
<polygon fill="#63b8ff" stroke="#63b8ff" points="953.14,-289.74 942.67,-291.38 951.87,-296.63 953.14,-289.74"/>
</a>
</g>
</g>
<!-- Node8 -->
<g id="Node000008" class="node">
<title>Node8</title>
<g id="a_Node000008"><a xlink:title=" ">
<polygon fill="#e0e0e0" stroke="#999999" points="131.5,-129 28.5,-129 28.5,-110 131.5,-110 131.5,-129"/>
<text text-anchor="middle" x="80" y="-117" font-family="Helvetica,sans-Serif" font-size="10.00">esp_peripherals.h</text>
</a>
</g>
</g>
<!-- Node1&#45;&gt;Node8 -->
<g id="edge7_Node000001_Node000008" class="edge">
<title>Node1&#45;&gt;Node8</title>
<g id="a_edge7_Node000001_Node000008"><a xlink:title=" ">
<path fill="none" stroke="#63b8ff" d="M1169.36,-338.09C1078.09,-336.53 842.24,-329.15 649,-294 562.09,-278.19 542.6,-264.44 458,-239 332.08,-201.14 183.42,-153.74 116.21,-132.16"/>
<polygon fill="#63b8ff" stroke="#63b8ff" points="117.11,-128.77 106.51,-129.05 114.96,-135.44 117.11,-128.77"/>
</a>
</g>
</g>
<!-- Node9 -->
<g id="Node000009" class="node">
<title>Node9</title>
<g id="a_Node000009"><a xlink:title=" ">
<polygon fill="#e0e0e0" stroke="#999999" points="1283,-129 1209,-129 1209,-110 1283,-110 1283,-129"/>
<text text-anchor="middle" x="1246" y="-117" font-family="Helvetica,sans-Serif" font-size="10.00">board_def.h</text>
</a>
</g>
</g>
<!-- Node1&#45;&gt;Node9 -->
<g id="edge8_Node000001_Node000009" class="edge">
<title>Node1&#45;&gt;Node9</title>
<g id="a_edge8_Node000001_Node000009"><a xlink:title=" ">
<path fill="none" stroke="#63b8ff" d="M1177.17,-329.97C1129.63,-314.86 1045.33,-279.27 1060,-220 1066.64,-193.18 1067.53,-182.4 1089,-165 1105.95,-151.27 1159.29,-137.96 1199.13,-129.53"/>
<polygon fill="#63b8ff" stroke="#63b8ff" points="1199.85,-132.96 1208.93,-127.5 1198.43,-126.1 1199.85,-132.96"/>
</a>
</g>
</g>
<!-- Node10 -->
<g id="Node000010" class="node">
<title>Node10</title>
<g id="a_Node000010"><a xlink:href="board__ctrl_8h.html" target="_top" xlink:title=" ">
<polygon fill="white" stroke="#666666" points="763,-184 689,-184 689,-165 763,-165 763,-184"/>
<text text-anchor="middle" x="726" y="-172" font-family="Helvetica,sans-Serif" font-size="10.00">board_ctrl.h</text>
</a>
</g>
</g>
<!-- Node1&#45;&gt;Node10 -->
<g id="edge9_Node000001_Node000010" class="edge">
<title>Node1&#45;&gt;Node10</title>
<g id="a_edge9_Node000001_Node000010"><a xlink:title=" ">
<path fill="none" stroke="#63b8ff" d="M1169.26,-337.45C1063.51,-334.21 775.69,-322.81 745,-294 717.87,-268.53 719.35,-220.94 722.72,-194.47"/>
<polygon fill="#63b8ff" stroke="#63b8ff" points="726.23,-194.66 724.25,-184.25 719.31,-193.62 726.23,-194.66"/>
</a>
</g>
</g>
<!-- Node12 -->
<g id="Node000012" class="node">
<title>Node12</title>
<g id="a_Node000012"><a xlink:title=" ">
<polygon fill="#e0e0e0" stroke="#999999" points="222.5,-129 149.5,-129 149.5,-110 222.5,-110 222.5,-129"/>
<text text-anchor="middle" x="186" y="-117" font-family="Helvetica,sans-Serif" font-size="10.00">audio_hal.h</text>
</a>
</g>
</g>
<!-- Node1&#45;&gt;Node12 -->
<g id="edge29_Node000001_Node000012" class="edge">
<title>Node1&#45;&gt;Node12</title>
<g id="a_edge29_Node000001_Node000012"><a xlink:title=" ">
<path fill="none" stroke="#63b8ff" d="M1169.32,-337.76C1087.21,-335.56 889.75,-326.98 728,-294 528.19,-253.26 298.27,-165.44 216.66,-132.93"/>
<polygon fill="#63b8ff" stroke="#63b8ff" points="217.82,-129.63 207.24,-129.16 215.22,-136.12 217.82,-129.63"/>
</a>
</g>
</g>
<!-- Node15 -->
<g id="Node000015" class="node">
<title>Node15</title>
<g id="a_Node000015"><a xlink:href="_t_c_a6416_a_8h.html" target="_top" xlink:title=" ">
<polygon fill="white" stroke="#666666" points="535.5,-74 460.5,-74 460.5,-55 535.5,-55 535.5,-74"/>
<text text-anchor="middle" x="498" y="-62" font-family="Helvetica,sans-Serif" font-size="10.00">TCA6416A.h</text>
</a>
</g>
</g>
<!-- Node1&#45;&gt;Node15 -->
<g id="edge70_Node000001_Node000015" class="edge">
<title>Node1&#45;&gt;Node15</title>
<g id="a_edge70_Node000001_Node000015"><a xlink:title=" ">
<path fill="none" stroke="#63b8ff" d="M1174.37,-329.98C1125.33,-317.59 1031.27,-294.03 951,-275 808.43,-241.2 399.42,-243.51 308,-129 268.42,-79.43 381.68,-68.26 450.09,-65.94"/>
<polygon fill="#63b8ff" stroke="#63b8ff" points="450.35,-69.43 460.24,-65.64 450.14,-62.43 450.35,-69.43"/>
</a>
</g>
</g>
<!-- Node20 -->
<g id="Node000020" class="node">
<title>Node20</title>
<g id="a_Node000020"><a xlink:title=" ">
<polygon fill="#e0e0e0" stroke="#999999" points="1368.5,-294 1255.5,-294 1255.5,-275 1368.5,-275 1368.5,-294"/>
<text text-anchor="middle" x="1312" y="-282" font-family="Helvetica,sans-Serif" font-size="10.00">board_pins_config.h</text>
</a>
</g>
</g>
<!-- Node1&#45;&gt;Node20 -->
<g id="edge25_Node000001_Node000020" class="edge">
<title>Node1&#45;&gt;Node20</title>
<g id="a_edge25_Node000001_Node000020"><a xlink:title=" ">
<path fill="none" stroke="#63b8ff" d="M1224.71,-329.98C1241.21,-321.57 1266.7,-308.59 1285.88,-298.81"/>
<polygon fill="#63b8ff" stroke="#63b8ff" points="1287.67,-301.83 1294.99,-294.17 1284.49,-295.59 1287.67,-301.83"/>
</a>
</g>
</g>
<!-- Node21 -->
<g id="Node000021" class="node">
<title>Node21</title>
<g id="a_Node000021"><a xlink:href="gt32l32s0140_8h.html" target="_top" xlink:title=" ">
<polygon fill="white" stroke="#666666" points="1161,-239 1069,-239 1069,-220 1161,-220 1161,-239"/>
<text text-anchor="middle" x="1115" y="-227" font-family="Helvetica,sans-Serif" font-size="10.00">gt32l32s0140.h</text>
</a>
</g>
</g>
<!-- Node1&#45;&gt;Node21 -->
<g id="edge26_Node000001_Node000021" class="edge">
<title>Node1&#45;&gt;Node21</title>
<g id="a_edge26_Node000001_Node000021"><a xlink:title=" ">
<path fill="none" stroke="#63b8ff" d="M1200.39,-329.66C1184.78,-311.54 1148.94,-269.91 1129.01,-246.77"/>
<polygon fill="#63b8ff" stroke="#63b8ff" points="1131.63,-244.45 1122.46,-239.16 1126.33,-249.02 1131.63,-244.45"/>
</a>
</g>
</g>
<!-- Node23 -->
<g id="Node000023" class="node">
<title>Node23</title>
<g id="a_Node000023"><a xlink:href="sevetest30___i_w_e_d_a_8h.html" target="_top" xlink:title=" ">
<polygon fill="white" stroke="#666666" points="1011,-184 893,-184 893,-165 1011,-165 1011,-184"/>
<text text-anchor="middle" x="952" y="-172" font-family="Helvetica,sans-Serif" font-size="10.00">sevetest30_IWEDA.h</text>
</a>
</g>
</g>
<!-- Node1&#45;&gt;Node23 -->
<g id="edge30_Node000001_Node000023" class="edge">
<title>Node1&#45;&gt;Node23</title>
<g id="a_edge30_Node000001_Node000023"><a xlink:title=" ">
<path fill="none" stroke="#63b8ff" d="M1208,-329.78C1207.51,-307.77 1202.98,-249.57 1170,-220 1148.31,-200.55 1076.47,-188.57 1021.13,-182.01"/>
<polygon fill="#63b8ff" stroke="#63b8ff" points="1021.34,-178.51 1011.01,-180.85 1020.54,-185.47 1021.34,-178.51"/>
</a>
</g>
</g>
<!-- Node26 -->
<g id="Node000026" class="node">
<title>Node26</title>
<g id="a_Node000026"><a xlink:href="sevetest30___s_w_e_d_a_8h.html" target="_top" xlink:title=" ">
<polygon fill="white" stroke="#666666" points="1370.5,-239 1249.5,-239 1249.5,-220 1370.5,-220 1370.5,-239"/>
<text text-anchor="middle" x="1310" y="-227" font-family="Helvetica,sans-Serif" font-size="10.00">sevetest30_SWEDA.h</text>
</a>
</g>
</g>
<!-- Node1&#45;&gt;Node26 -->
<g id="edge35_Node000001_Node000026" class="edge">
<title>Node1&#45;&gt;Node26</title>
<g id="a_edge35_Node000001_Node000026"><a xlink:title=" ">
<path fill="none" stroke="#63b8ff" d="M1211.69,-329.93C1217.57,-316.97 1230.04,-292.09 1246,-275 1257.3,-262.9 1272.41,-252.21 1285.11,-244.33"/>
<polygon fill="#63b8ff" stroke="#63b8ff" points="1287.05,-247.25 1293.85,-239.12 1283.47,-241.24 1287.05,-247.25"/>
</a>
</g>
</g>
<!-- Node31 -->
<g id="Node000031" class="node">
<title>Node31</title>
<g id="a_Node000031"><a xlink:href="sevetest30___b_w_e_d_a_8h.html" target="_top" xlink:title=" ">
<polygon fill="white" stroke="#666666" points="1511,-294 1389,-294 1389,-275 1511,-275 1511,-294"/>
<text text-anchor="middle" x="1450" y="-282" font-family="Helvetica,sans-Serif" font-size="10.00">sevetest30_BWEDA.h</text>
</a>
</g>
</g>
<!-- Node1&#45;&gt;Node31 -->
<g id="edge48_Node000001_Node000031" class="edge">
<title>Node1&#45;&gt;Node31</title>
<g id="a_edge48_Node000001_Node000031"><a xlink:title=" ">
<path fill="none" stroke="#63b8ff" d="M1246.61,-330.04C1288.55,-320.86 1355.62,-306.17 1401.18,-296.19"/>
<polygon fill="#63b8ff" stroke="#63b8ff" points="1402.1,-299.57 1411.12,-294.01 1400.61,-292.73 1402.1,-299.57"/>
</a>
</g>
</g>
<!-- Node32 -->
<g id="Node000032" class="node">
<title>Node32</title>
<g id="a_Node000032"><a xlink:href="sevetest30___led_array_8h.html" target="_top" xlink:title=" ">
<polygon fill="white" stroke="#666666" points="1665.5,-294 1538.5,-294 1538.5,-275 1665.5,-275 1665.5,-294"/>
<text text-anchor="middle" x="1602" y="-282" font-family="Helvetica,sans-Serif" font-size="10.00">sevetest30_LedArray.h</text>
</a>
</g>
</g>
<!-- Node1&#45;&gt;Node32 -->
<g id="edge50_Node000001_Node000032" class="edge">
<title>Node1&#45;&gt;Node32</title>
<g id="a_edge50_Node000001_Node000032"><a xlink:title=" ">
<path fill="none" stroke="#63b8ff" d="M1246.86,-333.27C1312.24,-324.48 1445.29,-306.58 1528.68,-295.36"/>
<polygon fill="#63b8ff" stroke="#63b8ff" points="1529.15,-298.83 1538.6,-294.03 1528.22,-291.89 1529.15,-298.83"/>
</a>
</g>
</g>
<!-- Node33 -->
<g id="Node000033" class="node">
<title>Node33</title>
<g id="a_Node000033"><a xlink:href="sevetest30___u_i_8h.html" target="_top" xlink:title=" ">
<polygon fill="white" stroke="#666666" points="1746.5,-239 1651.5,-239 1651.5,-220 1746.5,-220 1746.5,-239"/>
<text text-anchor="middle" x="1699" y="-227" font-family="Helvetica,sans-Serif" font-size="10.00">sevetest30_UI.h</text>
</a>
</g>
</g>
<!-- Node1&#45;&gt;Node33 -->
<g id="edge61_Node000001_Node000033" class="edge">
<title>Node1&#45;&gt;Node33</title>
<g id="a_edge61_Node000001_Node000033"><a xlink:title=" ">
<path fill="none" stroke="#63b8ff" d="M1246.68,-337.1C1352.33,-332.98 1640.16,-319.48 1674,-294 1688.03,-283.44 1694.19,-263.82 1696.9,-249.17"/>
<polygon fill="#63b8ff" stroke="#63b8ff" points="1700.38,-249.58 1698.36,-239.17 1693.45,-248.56 1700.38,-249.58"/>
</a>
</g>
</g>
<!-- Node35 -->
<g id="Node000035" class="node">
<title>Node35</title>
<g id="a_Node000035"><a xlink:href="sevetest30__sound_8h.html" target="_top" xlink:title=" ">
<polygon fill="white" stroke="#666666" points="2087,-239 1973,-239 1973,-220 2087,-220 2087,-239"/>
<text text-anchor="middle" x="2030" y="-227" font-family="Helvetica,sans-Serif" font-size="10.00">sevetest30_sound.h</text>
</a>
</g>
</g>
<!-- Node1&#45;&gt;Node35 -->
<g id="edge62_Node000001_Node000035" class="edge">
<title>Node1&#45;&gt;Node35</title>
<g id="a_edge62_Node000001_Node000035"><a xlink:title=" ">
<path fill="none" stroke="#63b8ff" d="M1246.59,-338.55C1376.6,-338.32 1797.64,-334.41 1926,-294 1958.9,-283.64 1992.07,-260.72 2011.83,-245.44"/>
<polygon fill="#63b8ff" stroke="#63b8ff" points="2014.25,-247.99 2019.91,-239.03 2009.9,-242.5 2014.25,-247.99"/>
</a>
</g>
</g>
<!-- Node37 -->
<g id="Node000037" class="node">
<title>Node37</title>
<g id="a_Node000037"><a xlink:href="sevetest30__touch_8h.html" target="_top" xlink:title=" ">
<polygon fill="white" stroke="#666666" points="2414,-294 2302,-294 2302,-275 2414,-275 2414,-294"/>
<text text-anchor="middle" x="2358" y="-282" font-family="Helvetica,sans-Serif" font-size="10.00">sevetest30_touch.h</text>
</a>
</g>
</g>
<!-- Node1&#45;&gt;Node37 -->
<g id="edge67_Node000001_Node000037" class="edge">
<title>Node1&#45;&gt;Node37</title>
<g id="a_edge67_Node000001_Node000037"><a xlink:title=" ">
<path fill="none" stroke="#63b8ff" d="M1246.81,-338.02C1387.19,-336.04 1881.65,-326.99 2288,-294 2289.27,-293.9 2290.55,-293.79 2291.84,-293.67"/>
<polygon fill="#63b8ff" stroke="#63b8ff" points="2292.26,-297.15 2301.88,-292.71 2291.59,-290.18 2292.26,-297.15"/>
</a>
</g>
</g>
<!-- Node10&#45;&gt;Node2 -->
<g id="edge11_Node000010_Node000002" class="edge">
<title>Node10&#45;&gt;Node2</title>
<g id="a_edge11_Node000010_Node000002"><a xlink:title=" ">
<path fill="none" stroke="#63b8ff" d="M688.7,-172.32C590.97,-168.85 333.25,-157.08 308,-129 257.56,-72.91 392.74,-33.77 461.13,-18.11"/>
<polygon fill="#63b8ff" stroke="#63b8ff" points="462.11,-21.48 471.1,-15.88 460.58,-14.64 462.11,-21.48"/>
</a>
</g>
</g>
<!-- Node10&#45;&gt;Node8 -->
<g id="edge22_Node000010_Node000008" class="edge">
<title>Node10&#45;&gt;Node8</title>
<g id="a_edge22_Node000010_Node000008"><a xlink:title=" ">
<path fill="none" stroke="#63b8ff" d="M688.9,-171.52C597.63,-166.47 354.67,-151.95 141.8,-129.13"/>
<polygon fill="#63b8ff" stroke="#63b8ff" points="142,-125.63 131.68,-128.04 141.25,-132.59 142,-125.63"/>
</a>
</g>
</g>
<!-- Node10&#45;&gt;Node9 -->
<g id="edge12_Node000010_Node000009" class="edge">
<title>Node10&#45;&gt;Node9</title>
<g id="a_edge12_Node000010_Node000009"><a xlink:title=" ">
<path fill="none" stroke="#63b8ff" d="M763.22,-171.08C841.66,-165.75 1029.87,-151.73 1198.78,-128.9"/>
<polygon fill="#63b8ff" stroke="#63b8ff" points="1199.41,-132.34 1208.85,-127.52 1198.46,-125.41 1199.41,-132.34"/>
</a>
</g>
</g>
<!-- Node11 -->
<g id="Node000011" class="node">
<title>Node11</title>
<g id="a_Node000011"><a xlink:title=" ">
<polygon fill="#e0e0e0" stroke="#999999" points="1487.5,-74 1412.5,-74 1412.5,-55 1487.5,-55 1487.5,-74"/>
<text text-anchor="middle" x="1450" y="-62" font-family="Helvetica,sans-Serif" font-size="10.00">esp_types.h</text>
</a>
</g>
</g>
<!-- Node10&#45;&gt;Node11 -->
<g id="edge10_Node000010_Node000011" class="edge">
<title>Node10&#45;&gt;Node11</title>
<g id="a_edge10_Node000010_Node000011"><a xlink:title=" ">
<path fill="none" stroke="#63b8ff" d="M763.08,-166.78C800.15,-159.51 858.47,-146.56 907,-129 925.13,-122.44 927.42,-115.16 946,-110 1031.17,-86.36 1293.93,-72.39 1402.4,-67.49"/>
<polygon fill="#63b8ff" stroke="#63b8ff" points="1402.57,-70.99 1412.41,-67.05 1402.26,-63.99 1402.57,-70.99"/>
</a>
</g>
</g>
<!-- Node10&#45;&gt;Node12 -->
<g id="edge13_Node000010_Node000012" class="edge">
<title>Node10&#45;&gt;Node12</title>
<g id="a_edge13_Node000010_Node000012"><a xlink:title=" ">
<path fill="none" stroke="#63b8ff" d="M688.78,-171.06C606.9,-165.49 405.04,-150.62 237,-129 235.7,-128.83 234.38,-128.66 233.05,-128.47"/>
<polygon fill="#63b8ff" stroke="#63b8ff" points="233.13,-124.95 222.72,-126.96 232.11,-131.87 233.13,-124.95"/>
</a>
</g>
</g>
<!-- Node13 -->
<g id="Node000013" class="node">
<title>Node13</title>
<g id="a_Node000013"><a xlink:title=" ">
<polygon fill="#e0e0e0" stroke="#999999" points="672.5,-129 569.5,-129 569.5,-110 672.5,-110 672.5,-129"/>
<text text-anchor="middle" x="621" y="-117" font-family="Helvetica,sans-Serif" font-size="10.00">esxxx_common.h</text>
</a>
</g>
</g>
<!-- Node10&#45;&gt;Node13 -->
<g id="edge14_Node000010_Node000013" class="edge">
<title>Node10&#45;&gt;Node13</title>
<g id="a_edge14_Node000010_Node000013"><a xlink:title=" ">
<path fill="none" stroke="#63b8ff" d="M709.13,-164.98C692.39,-156.54 666.5,-143.47 647.11,-133.68"/>
<polygon fill="#63b8ff" stroke="#63b8ff" points="648.68,-130.55 638.18,-129.17 645.53,-136.8 648.68,-130.55"/>
</a>
</g>
</g>
<!-- Node14 -->
<g id="Node000014" class="node">
<title>Node14</title>
<g id="a_Node000014"><a xlink:href="sevetest30__gpio_8h.html" target="_top" xlink:title=" ">
<polygon fill="white" stroke="#666666" points="551,-129 445,-129 445,-110 551,-110 551,-129"/>
<text text-anchor="middle" x="498" y="-117" font-family="Helvetica,sans-Serif" font-size="10.00">sevetest30_gpio.h</text>
</a>
</g>
</g>
<!-- Node10&#45;&gt;Node14 -->
<g id="edge15_Node000010_Node000014" class="edge">
<title>Node10&#45;&gt;Node14</title>
<g id="a_edge15_Node000010_Node000014"><a xlink:title=" ">
<path fill="none" stroke="#63b8ff" d="M689.37,-164.98C650.09,-155.86 587.63,-141.33 544.81,-131.38"/>
<polygon fill="#63b8ff" stroke="#63b8ff" points="545.45,-127.94 534.92,-129.08 543.87,-134.76 545.45,-127.94"/>
</a>
</g>
</g>
<!-- Node16 -->
<g id="Node000016" class="node">
<title>Node16</title>
<g id="a_Node000016"><a xlink:title=" ">
<polygon fill="#e0e0e0" stroke="#999999" points="761.5,-129 690.5,-129 690.5,-110 761.5,-110 761.5,-129"/>
<text text-anchor="middle" x="726" y="-117" font-family="Helvetica,sans-Serif" font-size="10.00">driver/i2c.h</text>
</a>
</g>
</g>
<!-- Node10&#45;&gt;Node16 -->
<g id="edge19_Node000010_Node000016" class="edge">
<title>Node10&#45;&gt;Node16</title>
<g id="a_edge19_Node000010_Node000016"><a xlink:title=" ">
<path fill="none" stroke="#63b8ff" d="M726,-164.75C726,-157.8 726,-147.85 726,-139.13"/>
<polygon fill="#63b8ff" stroke="#63b8ff" points="729.5,-139.09 726,-129.09 722.5,-139.09 729.5,-139.09"/>
</a>
</g>
</g>
<!-- Node17 -->
<g id="Node000017" class="node">
<title>Node17</title>
<g id="a_Node000017"><a xlink:title=" ">
<polygon fill="#e0e0e0" stroke="#999999" points="898.5,-129 779.5,-129 779.5,-110 898.5,-110 898.5,-129"/>
<text text-anchor="middle" x="839" y="-117" font-family="Helvetica,sans-Serif" font-size="10.00">driver/spi_common.h</text>
</a>
</g>
</g>
<!-- Node10&#45;&gt;Node17 -->
<g id="edge20_Node000010_Node000017" class="edge">
<title>Node10&#45;&gt;Node17</title>
<g id="a_edge20_Node000010_Node000017"><a xlink:title=" ">
<path fill="none" stroke="#63b8ff" d="M744.16,-164.98C762.25,-156.5 790.28,-143.35 811.19,-133.54"/>
<polygon fill="#63b8ff" stroke="#63b8ff" points="812.95,-136.59 820.51,-129.17 809.97,-130.25 812.95,-136.59"/>
</a>
</g>
</g>
<!-- Node18 -->
<g id="Node000018" class="node">
<title>Node18</title>
<g id="a_Node000018"><a xlink:title=" ">
<polygon fill="#e0e0e0" stroke="#999999" points="427,-129 317,-129 317,-110 427,-110 427,-129"/>
<text text-anchor="middle" x="372" y="-117" font-family="Helvetica,sans-Serif" font-size="10.00">driver/spi_master.h</text>
</a>
</g>
</g>
<!-- Node10&#45;&gt;Node18 -->
<g id="edge21_Node000010_Node000018" class="edge">
<title>Node10&#45;&gt;Node18</title>
<g id="a_edge21_Node000010_Node000018"><a xlink:title=" ">
<path fill="none" stroke="#63b8ff" d="M688.78,-167.93C629.11,-158.99 511.22,-141.34 437.3,-130.28"/>
<polygon fill="#63b8ff" stroke="#63b8ff" points="437.57,-126.78 427.17,-128.76 436.54,-133.7 437.57,-126.78"/>
</a>
</g>
</g>
<!-- Node19 -->
<g id="Node000019" class="node">
<title>Node19</title>
<g id="a_Node000019"><a xlink:href="_b_l5372_8h.html" target="_top" xlink:title=" ">
<polygon fill="white" stroke="#666666" points="1363,-129 1301,-129 1301,-110 1363,-110 1363,-129"/>
<text text-anchor="middle" x="1332" y="-117" font-family="Helvetica,sans-Serif" font-size="10.00">BL5372.h</text>
</a>
</g>
</g>
<!-- Node10&#45;&gt;Node19 -->
<g id="edge23_Node000010_Node000019" class="edge">
<title>Node10&#45;&gt;Node19</title>
<g id="a_edge23_Node000010_Node000019"><a xlink:title=" ">
<path fill="none" stroke="#63b8ff" d="M763.17,-171.22C868.98,-164.62 1171.41,-145.05 1290.68,-128.97"/>
<polygon fill="#63b8ff" stroke="#63b8ff" points="1291.21,-132.43 1300.63,-127.57 1290.24,-125.5 1291.21,-132.43"/>
</a>
</g>
</g>
<!-- Node14&#45;&gt;Node15 -->
<g id="edge16_Node000014_Node000015" class="edge">
<title>Node14&#45;&gt;Node15</title>
<g id="a_edge16_Node000014_Node000015"><a xlink:title=" ">
<path fill="none" stroke="#63b8ff" d="M498,-109.75C498,-102.8 498,-92.85 498,-84.13"/>
<polygon fill="#63b8ff" stroke="#63b8ff" points="501.5,-84.09 498,-74.09 494.5,-84.09 501.5,-84.09"/>
</a>
</g>
</g>
<!-- Node15&#45;&gt;Node2 -->
<g id="edge17_Node000015_Node000002" class="edge">
<title>Node15&#45;&gt;Node2</title>
<g id="a_edge17_Node000015_Node000002"><a xlink:title=" ">
<path fill="none" stroke="#63b8ff" d="M498,-54.75C498,-47.8 498,-37.85 498,-29.13"/>
<polygon fill="#63b8ff" stroke="#63b8ff" points="501.5,-29.09 498,-19.09 494.5,-29.09 501.5,-29.09"/>
</a>
</g>
</g>
<!-- Node15&#45;&gt;Node3 -->
<g id="edge18_Node000015_Node000003" class="edge">
<title>Node15&#45;&gt;Node3</title>
<g id="a_edge18_Node000015_Node000003"><a xlink:title=" ">
<path fill="none" stroke="#63b8ff" d="M535.51,-61.87C715.46,-54.05 1489.22,-20.44 1676.88,-12.29"/>
<polygon fill="#63b8ff" stroke="#63b8ff" points="1677.05,-15.78 1686.89,-11.85 1676.75,-8.79 1677.05,-15.78"/>
</a>
</g>
</g>
<!-- Node19&#45;&gt;Node11 -->
<g id="edge24_Node000019_Node000011" class="edge">
<title>Node19&#45;&gt;Node11</title>
<g id="a_edge24_Node000019_Node000011"><a xlink:title=" ">
<path fill="none" stroke="#63b8ff" d="M1350.96,-109.98C1370.03,-101.42 1399.66,-88.11 1421.55,-78.28"/>
<polygon fill="#63b8ff" stroke="#63b8ff" points="1423.01,-81.46 1430.7,-74.17 1420.14,-75.07 1423.01,-81.46"/>
</a>
</g>
</g>
<!-- Node21&#45;&gt;Node10 -->
<g id="edge28_Node000021_Node000010" class="edge">
<title>Node21&#45;&gt;Node10</title>
<g id="a_edge28_Node000021_Node000010"><a xlink:title=" ">
<path fill="none" stroke="#63b8ff" d="M1068.85,-222.21C994.37,-212.06 848.42,-192.18 773.25,-181.94"/>
<polygon fill="#63b8ff" stroke="#63b8ff" points="773.51,-178.44 763.12,-180.56 772.56,-185.38 773.51,-178.44"/>
</a>
</g>
</g>
<!-- Node22 -->
<g id="Node000022" class="node">
<title>Node22</title>
<g id="a_Node000022"><a xlink:title=" ">
<polygon fill="#e0e0e0" stroke="#999999" points="1480.5,-129 1419.5,-129 1419.5,-110 1480.5,-110 1480.5,-129"/>
<text text-anchor="middle" x="1450" y="-117" font-family="Helvetica,sans-Serif" font-size="10.00">esp_err.h</text>
</a>
</g>
</g>
<!-- Node21&#45;&gt;Node22 -->
<g id="edge27_Node000021_Node000022" class="edge">
<title>Node21&#45;&gt;Node22</title>
<g id="a_edge27_Node000021_Node000022"><a xlink:title=" ">
<path fill="none" stroke="#63b8ff" d="M1124.76,-219.97C1141.16,-206.12 1175.82,-178.9 1210,-165 1214.62,-163.12 1342.33,-139.92 1409.53,-127.79"/>
<polygon fill="#63b8ff" stroke="#63b8ff" points="1410.15,-131.23 1419.37,-126.01 1408.91,-124.35 1410.15,-131.23"/>
</a>
</g>
</g>
<!-- Node23&#45;&gt;Node3 -->
<g id="edge34_Node000023_Node000003" class="edge">
<title>Node23&#45;&gt;Node3</title>
<g id="a_edge34_Node000023_Node000003"><a xlink:title=" ">
<path fill="none" stroke="#63b8ff" d="M975.41,-164.87C998.24,-156.29 1033.83,-142.51 1064,-129 1081.23,-121.28 1084.09,-115.98 1102,-110 1310.66,-40.34 1575.88,-18.59 1676.64,-12.57"/>
<polygon fill="#63b8ff" stroke="#63b8ff" points="1676.93,-16.06 1686.71,-11.99 1676.53,-9.07 1676.93,-16.06"/>
</a>
</g>
</g>
<!-- Node23&#45;&gt;Node22 -->
<g id="edge33_Node000023_Node000022" class="edge">
<title>Node23&#45;&gt;Node22</title>
<g id="a_edge33_Node000023_Node000022"><a xlink:title=" ">
<path fill="none" stroke="#63b8ff" d="M1011.13,-167.29C1092.43,-158.74 1243.32,-142.83 1372,-129 1384.05,-127.71 1397.14,-126.28 1409.09,-124.98"/>
<polygon fill="#63b8ff" stroke="#63b8ff" points="1409.69,-128.44 1419.25,-123.87 1408.93,-121.48 1409.69,-128.44"/>
</a>
</g>
</g>
<!-- Node24 -->
<g id="Node000024" class="node">
<title>Node24</title>
<g id="a_Node000024"><a xlink:title=" ">
<polygon fill="#e0e0e0" stroke="#999999" points="1190.5,-129 1111.5,-129 1111.5,-110 1190.5,-110 1190.5,-129"/>
<text text-anchor="middle" x="1151" y="-117" font-family="Helvetica,sans-Serif" font-size="10.00">periph_wifi.h</text>
</a>
</g>
</g>
<!-- Node23&#45;&gt;Node24 -->
<g id="edge31_Node000023_Node000024" class="edge">
<title>Node23&#45;&gt;Node24</title>
<g id="a_edge31_Node000023_Node000024"><a xlink:title=" ">
<path fill="none" stroke="#63b8ff" d="M983.97,-164.98C1017.82,-155.97 1071.4,-141.7 1108.71,-131.76"/>
<polygon fill="#63b8ff" stroke="#63b8ff" points="1110.01,-135.04 1118.78,-129.08 1108.21,-128.27 1110.01,-135.04"/>
</a>
</g>
</g>
<!-- Node25 -->
<g id="Node000025" class="node">
<title>Node25</title>
<g id="a_Node000025"><a xlink:title=" ">
<polygon fill="#e0e0e0" stroke="#999999" points="1055,-129 955,-129 955,-110 1055,-110 1055,-129"/>
<text text-anchor="middle" x="1005" y="-117" font-family="Helvetica,sans-Serif" font-size="10.00">esp_http_client.h</text>
</a>
</g>
</g>
<!-- Node23&#45;&gt;Node25 -->
<g id="edge32_Node000023_Node000025" class="edge">
<title>Node23&#45;&gt;Node25</title>
<g id="a_edge32_Node000023_Node000025"><a xlink:title=" ">
<path fill="none" stroke="#63b8ff" d="M960.75,-164.75C968.47,-157.03 979.9,-145.6 989.22,-136.28"/>
<polygon fill="#63b8ff" stroke="#63b8ff" points="991.81,-138.64 996.41,-129.09 986.86,-133.69 991.81,-138.64"/>
</a>
</g>
</g>
<!-- Node26&#45;&gt;Node3 -->
<g id="edge37_Node000026_Node000003" class="edge">
<title>Node26&#45;&gt;Node3</title>
<g id="a_edge37_Node000026_Node000003"><a xlink:title=" ">
<path fill="none" stroke="#63b8ff" d="M1369.58,-219.94C1405.65,-213.28 1451.89,-202.05 1490,-184 1579.06,-141.81 1666.83,-61.01 1701.96,-26.63"/>
<polygon fill="#63b8ff" stroke="#63b8ff" points="1704.72,-28.82 1709.37,-19.3 1699.8,-23.84 1704.72,-28.82"/>
</a>
</g>
</g>
<!-- Node26&#45;&gt;Node9 -->
<g id="edge38_Node000026_Node000009" class="edge">
<title>Node26&#45;&gt;Node9</title>
<g id="a_edge38_Node000026_Node000009"><a xlink:title=" ">
<path fill="none" stroke="#63b8ff" d="M1249.31,-224.25C1192.98,-218.9 1115.04,-207.4 1096,-184 1090.67,-177.45 1090.95,-171.77 1096,-165 1102.38,-156.45 1157.39,-141.65 1198.95,-131.47"/>
<polygon fill="#63b8ff" stroke="#63b8ff" points="1200.03,-134.81 1208.93,-129.06 1198.38,-128.01 1200.03,-134.81"/>
</a>
</g>
</g>
<!-- Node26&#45;&gt;Node19 -->
<g id="edge44_Node000026_Node000019" class="edge">
<title>Node26&#45;&gt;Node19</title>
<g id="a_edge44_Node000026_Node000019"><a xlink:title=" ">
<path fill="none" stroke="#63b8ff" d="M1332.78,-219.89C1348.03,-212.79 1366.92,-201.08 1376,-184 1385.35,-166.42 1369.05,-147.86 1353.71,-135.39"/>
<polygon fill="#63b8ff" stroke="#63b8ff" points="1355.53,-132.38 1345.45,-129.12 1351.3,-137.95 1355.53,-132.38"/>
</a>
</g>
</g>
<!-- Node27 -->
<g id="Node000027" class="node">
<title>Node27</title>
<g id="a_Node000027"><a xlink:title=" ">
<polygon fill="#e0e0e0" stroke="#999999" points="1367,-184 1317,-184 1317,-165 1367,-165 1367,-184"/>
<text text-anchor="middle" x="1342" y="-172" font-family="Helvetica,sans-Serif" font-size="10.00">stdio.h</text>
</a>
</g>
</g>
<!-- Node26&#45;&gt;Node27 -->
<g id="edge36_Node000026_Node000027" class="edge">
<title>Node26&#45;&gt;Node27</title>
<g id="a_edge36_Node000026_Node000027"><a xlink:title=" ">
<path fill="none" stroke="#63b8ff" d="M1315.28,-219.75C1319.71,-212.42 1326.16,-201.73 1331.62,-192.7"/>
<polygon fill="#63b8ff" stroke="#63b8ff" points="1334.64,-194.46 1336.81,-184.09 1328.65,-190.84 1334.64,-194.46"/>
</a>
</g>
</g>
<!-- Node28 -->
<g id="Node000028" class="node">
<title>Node28</title>
<g id="a_Node000028"><a xlink:href="_a_h_t21_8h.html" target="_top" xlink:title=" ">
<polygon fill="white" stroke="#666666" points="1481,-184 1423,-184 1423,-165 1481,-165 1481,-184"/>
<text text-anchor="middle" x="1452" y="-172" font-family="Helvetica,sans-Serif" font-size="10.00">AHT21.h</text>
</a>
</g>
</g>
<!-- Node26&#45;&gt;Node28 -->
<g id="edge39_Node000026_Node000028" class="edge">
<title>Node26&#45;&gt;Node28</title>
<g id="a_edge39_Node000026_Node000028"><a xlink:title=" ">
<path fill="none" stroke="#63b8ff" d="M1332.81,-219.98C1356.17,-211.27 1392.7,-197.63 1419.17,-187.75"/>
<polygon fill="#63b8ff" stroke="#63b8ff" points="1420.63,-190.95 1428.77,-184.17 1418.18,-184.39 1420.63,-190.95"/>
</a>
</g>
</g>
<!-- Node29 -->
<g id="Node000029" class="node">
<title>Node29</title>
<g id="a_Node000029"><a xlink:href="_a_g_s10_8h.html" target="_top" xlink:title=" ">
<polygon fill="white" stroke="#666666" points="1163,-184 1105,-184 1105,-165 1163,-165 1163,-184"/>
<text text-anchor="middle" x="1134" y="-172" font-family="Helvetica,sans-Serif" font-size="10.00">AGS10.h</text>
</a>
</g>
</g>
<!-- Node26&#45;&gt;Node29 -->
<g id="edge41_Node000026_Node000029" class="edge">
<title>Node26&#45;&gt;Node29</title>
<g id="a_edge41_Node000026_Node000029"><a xlink:title=" ">
<path fill="none" stroke="#63b8ff" d="M1281.72,-219.98C1252.05,-211.05 1205.21,-196.94 1172.25,-187.02"/>
<polygon fill="#63b8ff" stroke="#63b8ff" points="1173.08,-183.61 1162.5,-184.08 1171.07,-190.32 1173.08,-183.61"/>
</a>
</g>
</g>
<!-- Node30 -->
<g id="Node000030" class="node">
<title>Node30</title>
<g id="a_Node000030"><a xlink:href="lsm6ds3trc_8h.html" target="_top" xlink:title=" ">
<polygon fill="white" stroke="#666666" points="1299,-184 1219,-184 1219,-165 1299,-165 1299,-184"/>
<text text-anchor="middle" x="1259" y="-172" font-family="Helvetica,sans-Serif" font-size="10.00">lsm6ds3trc.h</text>
</a>
</g>
</g>
<!-- Node26&#45;&gt;Node30 -->
<g id="edge45_Node000026_Node000030" class="edge">
<title>Node26&#45;&gt;Node30</title>
<g id="a_edge45_Node000026_Node000030"><a xlink:title=" ">
<path fill="none" stroke="#63b8ff" d="M1301.58,-219.75C1294.23,-212.11 1283.37,-200.82 1274.46,-191.56"/>
<polygon fill="#63b8ff" stroke="#63b8ff" points="1276.72,-188.87 1267.26,-184.09 1271.68,-193.72 1276.72,-188.87"/>
</a>
</g>
</g>
<!-- Node28&#45;&gt;Node11 -->
<g id="edge40_Node000028_Node000011" class="edge">
<title>Node28&#45;&gt;Node11</title>
<g id="a_edge40_Node000028_Node000011"><a xlink:title=" ">
<path fill="none" stroke="#63b8ff" d="M1475.77,-164.93C1501.36,-154.24 1536.68,-134.37 1523,-110 1514.89,-95.56 1499.99,-85.26 1485.75,-78.22"/>
<polygon fill="#63b8ff" stroke="#63b8ff" points="1487.12,-75 1476.57,-74.06 1484.23,-81.38 1487.12,-75"/>
</a>
</g>
</g>
<!-- Node29&#45;&gt;Node9 -->
<g id="edge43_Node000029_Node000009" class="edge">
<title>Node29&#45;&gt;Node9</title>
<g id="a_edge43_Node000029_Node000009"><a xlink:title=" ">
<path fill="none" stroke="#63b8ff" d="M1151.99,-164.98C1169.93,-156.5 1197.72,-143.35 1218.43,-133.54"/>
<polygon fill="#63b8ff" stroke="#63b8ff" points="1220.14,-136.61 1227.68,-129.17 1217.14,-130.28 1220.14,-136.61"/>
</a>
</g>
</g>
<!-- Node29&#45;&gt;Node11 -->
<g id="edge42_Node000029_Node000011" class="edge">
<title>Node29&#45;&gt;Node11</title>
<g id="a_edge42_Node000029_Node000011"><a xlink:title=" ">
<path fill="none" stroke="#63b8ff" d="M1163.13,-167.69C1167.77,-166.78 1172.52,-165.86 1177,-165 1263.56,-148.45 1292,-165.97 1372,-129 1396.88,-117.5 1420.57,-96.24 1435.17,-81.5"/>
<polygon fill="#63b8ff" stroke="#63b8ff" points="1437.89,-83.72 1442.31,-74.09 1432.85,-78.87 1437.89,-83.72"/>
</a>
</g>
</g>
<!-- Node30&#45;&gt;Node11 -->
<g id="edge46_Node000030_Node000011" class="edge">
<title>Node30&#45;&gt;Node11</title>
<g id="a_edge46_Node000030_Node000011"><a xlink:title=" ">
<path fill="none" stroke="#63b8ff" d="M1299.2,-166.39C1364.32,-154.78 1485.97,-132.67 1489,-129 1501.57,-113.76 1485.27,-94.1 1470.06,-80.73"/>
<polygon fill="#63b8ff" stroke="#63b8ff" points="1471.86,-77.67 1461.92,-74.01 1467.4,-83.07 1471.86,-77.67"/>
</a>
</g>
</g>
<!-- Node30&#45;&gt;Node22 -->
<g id="edge47_Node000030_Node000022" class="edge">
<title>Node30&#45;&gt;Node22</title>
<g id="a_edge47_Node000030_Node000022"><a xlink:title=" ">
<path fill="none" stroke="#63b8ff" d="M1289.69,-164.98C1322.27,-155.94 1373.9,-141.62 1409.73,-131.67"/>
<polygon fill="#63b8ff" stroke="#63b8ff" points="1410.69,-135.04 1419.39,-128.99 1408.82,-128.3 1410.69,-135.04"/>
</a>
</g>
</g>
<!-- Node31&#45;&gt;Node22 -->
<g id="edge49_Node000031_Node000022" class="edge">
<title>Node31&#45;&gt;Node22</title>
<g id="a_edge49_Node000031_Node000022"><a xlink:title=" ">
<path fill="none" stroke="#63b8ff" d="M1457.14,-274.79C1472.39,-255.07 1505.55,-205.55 1490,-165 1485.76,-153.94 1477.36,-143.91 1469.36,-136.18"/>
<polygon fill="#63b8ff" stroke="#63b8ff" points="1471.42,-133.33 1461.64,-129.27 1466.75,-138.55 1471.42,-133.33"/>
</a>
</g>
</g>
<!-- Node32&#45;&gt;Node2 -->
<g id="edge51_Node000032_Node000002" class="edge">
<title>Node32&#45;&gt;Node2</title>
<g id="a_edge51_Node000032_Node000002"><a xlink:title=" ">
<path fill="none" stroke="#63b8ff" d="M1604.83,-274.93C1610.56,-256.8 1623,-213.13 1623,-175.5 1623,-175.5 1623,-175.5 1623,-118.5 1623,-55.39 1557.08,-70.86 1496,-55 1309.14,-6.47 692.48,-8.69 534.92,-10.1"/>
<polygon fill="#63b8ff" stroke="#63b8ff" points="534.76,-6.6 524.79,-10.19 534.83,-13.6 534.76,-6.6"/>
</a>
</g>
</g>
<!-- Node32&#45;&gt;Node11 -->
<g id="edge60_Node000032_Node000011" class="edge">
<title>Node32&#45;&gt;Node11</title>
<g id="a_edge60_Node000032_Node000011"><a xlink:title=" ">
<path fill="none" stroke="#63b8ff" d="M1601.11,-274.77C1597.87,-247.23 1584.4,-160.97 1539,-110 1525.94,-95.34 1506.92,-84.92 1489.82,-77.87"/>
<polygon fill="#63b8ff" stroke="#63b8ff" points="1490.62,-74.43 1480.03,-74.1 1488.11,-80.96 1490.62,-74.43"/>
</a>
</g>
</g>
<!-- Node32&#45;&gt;Node33 -->
<g id="edge52_Node000032_Node000033" class="edge">
<title>Node32&#45;&gt;Node33</title>
<g id="a_edge52_Node000032_Node000033"><a xlink:title=" ">
<path fill="none" stroke="#63b8ff" d="M1617.58,-274.98C1632.77,-266.69 1656.1,-253.94 1673.9,-244.22"/>
<polygon fill="#63b8ff" stroke="#63b8ff" points="1676.03,-247.04 1683.13,-239.17 1672.68,-240.89 1676.03,-247.04"/>
</a>
</g>
</g>
<!-- Node33&#45;&gt;Node2 -->
<g id="edge53_Node000033_Node000002" class="edge">
<title>Node33&#45;&gt;Node2</title>
<g id="a_edge53_Node000033_Node000002"><a xlink:title=" ">
<path fill="none" stroke="#63b8ff" d="M1699,-219.71C1698.49,-190.41 1692.43,-95.7 1637,-55 1591.57,-21.65 724.97,-12.42 534.72,-10.79"/>
<polygon fill="#63b8ff" stroke="#63b8ff" points="534.69,-7.29 524.66,-10.7 534.63,-14.29 534.69,-7.29"/>
</a>
</g>
</g>
<!-- Node33&#45;&gt;Node3 -->
<g id="edge54_Node000033_Node000003" class="edge">
<title>Node33&#45;&gt;Node3</title>
<g id="a_edge54_Node000033_Node000003"><a xlink:title=" ">
<path fill="none" stroke="#63b8ff" d="M1702.52,-219.81C1705.92,-210.97 1710.85,-196.78 1713,-184 1722.36,-128.42 1720.71,-61.45 1719.14,-29.39"/>
<polygon fill="#63b8ff" stroke="#63b8ff" points="1722.63,-29.04 1718.59,-19.25 1715.64,-29.42 1722.63,-29.04"/>
</a>
</g>
</g>
<!-- Node33&#45;&gt;Node4 -->
<g id="edge56_Node000033_Node000004" class="edge">
<title>Node33&#45;&gt;Node4</title>
<g id="a_edge56_Node000033_Node000004"><a xlink:title=" ">
<path fill="none" stroke="#63b8ff" d="M1733.06,-219.98C1769.42,-210.89 1827.17,-196.46 1866.97,-186.51"/>
<polygon fill="#63b8ff" stroke="#63b8ff" points="1867.82,-189.9 1876.67,-184.08 1866.12,-183.11 1867.82,-189.9"/>
</a>
</g>
</g>
<!-- Node33&#45;&gt;Node5 -->
<g id="edge57_Node000033_Node000005" class="edge">
<title>Node33&#45;&gt;Node5</title>
<g id="a_edge57_Node000033_Node000005"><a xlink:title=" ">
<path fill="none" stroke="#63b8ff" d="M1746.78,-220.85C1807.49,-211.13 1912.03,-194.39 1975.7,-184.19"/>
<polygon fill="#63b8ff" stroke="#63b8ff" points="1976.62,-187.59 1985.94,-182.55 1975.51,-180.68 1976.62,-187.59"/>
</a>
</g>
</g>
<!-- Node33&#45;&gt;Node10 -->
<g id="edge59_Node000033_Node000010" class="edge">
<title>Node33&#45;&gt;Node10</title>
<g id="a_edge59_Node000033_Node000010"><a xlink:title=" ">
<path fill="none" stroke="#63b8ff" d="M1651.41,-225.91C1486.21,-216.91 938.58,-187.08 773.5,-178.09"/>
<polygon fill="#63b8ff" stroke="#63b8ff" points="773.37,-174.58 763.19,-177.53 772.99,-181.56 773.37,-174.58"/>
</a>
</g>
</g>
<!-- Node33&#45;&gt;Node22 -->
<g id="edge55_Node000033_Node000022" class="edge">
<title>Node33&#45;&gt;Node22</title>
<g id="a_edge55_Node000033_Node000022"><a xlink:title=" ">
<path fill="none" stroke="#63b8ff" d="M1679.04,-219.84C1635.14,-200.8 1530,-155.2 1478.88,-133.03"/>
<polygon fill="#63b8ff" stroke="#63b8ff" points="1480.27,-129.82 1469.71,-129.05 1477.49,-136.24 1480.27,-129.82"/>
</a>
</g>
</g>
<!-- Node34 -->
<g id="Node000034" class="node">
<title>Node34</title>
<g id="a_Node000034"><a xlink:title=" ">
<polygon fill="#e0e0e0" stroke="#999999" points="1836.5,-184 1765.5,-184 1765.5,-165 1836.5,-165 1836.5,-184"/>
<text text-anchor="middle" x="1801" y="-172" font-family="Helvetica,sans-Serif" font-size="10.00">driver/i2s.h</text>
</a>
</g>
</g>
<!-- Node33&#45;&gt;Node34 -->
<g id="edge58_Node000033_Node000034" class="edge">
<title>Node33&#45;&gt;Node34</title>
<g id="a_edge58_Node000033_Node000034"><a xlink:title=" ">
<path fill="none" stroke="#63b8ff" d="M1715.39,-219.98C1731.57,-211.57 1756.57,-198.59 1775.38,-188.81"/>
<polygon fill="#63b8ff" stroke="#63b8ff" points="1777.05,-191.89 1784.31,-184.17 1773.83,-185.68 1777.05,-191.89"/>
</a>
</g>
</g>
<!-- Node35&#45;&gt;Node3 -->
<g id="edge63_Node000035_Node000003" class="edge">
<title>Node35&#45;&gt;Node3</title>
<g id="a_edge63_Node000035_Node000003"><a xlink:title=" ">
<path fill="none" stroke="#63b8ff" d="M2046.38,-219.94C2066.67,-208.18 2096.96,-186.07 2083,-165 2009.34,-53.83 1838.03,-22.44 1759.13,-13.74"/>
<polygon fill="#63b8ff" stroke="#63b8ff" points="1759.38,-10.25 1749.08,-12.7 1758.66,-17.21 1759.38,-10.25"/>
</a>
</g>
</g>
<!-- Node35&#45;&gt;Node4 -->
<g id="edge64_Node000035_Node000004" class="edge">
<title>Node35&#45;&gt;Node4</title>
<g id="a_edge64_Node000035_Node000004"><a xlink:title=" ">
<path fill="none" stroke="#63b8ff" d="M2010.88,-219.98C1991.65,-211.42 1961.77,-198.11 1939.69,-188.28"/>
<polygon fill="#63b8ff" stroke="#63b8ff" points="1941.03,-185.04 1930.47,-184.17 1938.18,-191.44 1941.03,-185.04"/>
</a>
</g>
</g>
<!-- Node35&#45;&gt;Node5 -->
<g id="edge65_Node000035_Node000005" class="edge">
<title>Node35&#45;&gt;Node5</title>
<g id="a_edge65_Node000035_Node000005"><a xlink:title=" ">
<path fill="none" stroke="#63b8ff" d="M2030,-219.75C2030,-212.8 2030,-202.85 2030,-194.13"/>
<polygon fill="#63b8ff" stroke="#63b8ff" points="2033.5,-194.09 2030,-184.09 2026.5,-194.09 2033.5,-194.09"/>
</a>
</g>
</g>
<!-- Node36 -->
<g id="Node000036" class="node">
<title>Node36</title>
<g id="a_Node000036"><a xlink:title=" ">
<polygon fill="#e0e0e0" stroke="#999999" points="2245.5,-184 2130.5,-184 2130.5,-165 2245.5,-165 2245.5,-184"/>
<text text-anchor="middle" x="2188" y="-172" font-family="Helvetica,sans-Serif" font-size="10.00">audio_event_iface.h</text>
</a>
</g>
</g>
<!-- Node35&#45;&gt;Node36 -->
<g id="edge66_Node000035_Node000036" class="edge">
<title>Node35&#45;&gt;Node36</title>
<g id="a_edge66_Node000035_Node000036"><a xlink:title=" ">
<path fill="none" stroke="#63b8ff" d="M2055.39,-219.98C2081.8,-211.13 2123.35,-197.19 2152.89,-187.28"/>
<polygon fill="#63b8ff" stroke="#63b8ff" points="2154.05,-190.58 2162.42,-184.08 2151.82,-183.94 2154.05,-190.58"/>
</a>
</g>
</g>
<!-- Node38 -->
<g id="Node000038" class="node">
<title>Node38</title>
<g id="a_Node000038"><a xlink:title=" ">
<polygon fill="#e0e0e0" stroke="#999999" points="2517.5,-239 2420.5,-239 2420.5,-220 2517.5,-220 2517.5,-239"/>
<text text-anchor="middle" x="2469" y="-227" font-family="Helvetica,sans-Serif" font-size="10.00">hal/gpio_types.h</text>
</a>
</g>
</g>
<!-- Node37&#45;&gt;Node38 -->
<g id="edge68_Node000037_Node000038" class="edge">
<title>Node37&#45;&gt;Node38</title>
<g id="a_edge68_Node000037_Node000038"><a xlink:title=" ">
<path fill="none" stroke="#63b8ff" d="M2375.83,-274.98C2393.61,-266.5 2421.15,-253.35 2441.68,-243.54"/>
<polygon fill="#63b8ff" stroke="#63b8ff" points="2443.33,-246.64 2450.84,-239.17 2440.31,-240.32 2443.33,-246.64"/>
</a>
</g>
</g>
<!-- Node39 -->
<g id="Node000039" class="node">
<title>Node39</title>
<g id="a_Node000039"><a xlink:title=" ">
<polygon fill="#e0e0e0" stroke="#999999" points="2402,-239 2306,-239 2306,-220 2402,-220 2402,-239"/>
<text text-anchor="middle" x="2354" y="-227" font-family="Helvetica,sans-Serif" font-size="10.00">driver/mcpwm.h</text>
</a>
</g>
</g>
<!-- Node37&#45;&gt;Node39 -->
<g id="edge69_Node000037_Node000039" class="edge">
<title>Node37&#45;&gt;Node39</title>
<g id="a_edge69_Node000037_Node000039"><a xlink:title=" ">
<path fill="none" stroke="#63b8ff" d="M2357.34,-274.75C2356.82,-267.8 2356.06,-257.85 2355.41,-249.13"/>
<polygon fill="#63b8ff" stroke="#63b8ff" points="2358.89,-248.8 2354.65,-239.09 2351.91,-249.32 2358.89,-248.8"/>
</a>
</g>
</g>
</g>
</svg>
