<?xml version="1.0" encoding="UTF-8" standalone="no"?>
<!DOCTYPE svg PUBLIC "-//W3C//DTD SVG 1.1//EN"
 "http://www.w3.org/Graphics/SVG/1.1/DTD/svg11.dtd">
<!-- Generated by graphviz version 2.43.0 (0)
 -->
<!-- Title: main/sevetest30_UI.c Pages: 1 -->
<svg width="2259pt" height="357pt"
 viewBox="0.00 0.00 2258.50 357.00" xmlns="http://www.w3.org/2000/svg" xmlns:xlink="http://www.w3.org/1999/xlink">
<g id="graph0" class="graph" transform="scale(1 1) rotate(0) translate(4 353)">
<title>main/sevetest30_UI.c</title>
<!-- Node1 -->
<g id="Node000001" class="node">
<title>Node1</title>
<g id="a_Node000001"><a xlink:title=" ">
<polygon fill="#999999" stroke="#666666" points="1774,-349 1652,-349 1652,-330 1774,-330 1774,-349"/>
<text text-anchor="middle" x="1713" y="-337" font-family="Helvetica,sans-Serif" font-size="10.00">main/sevetest30_UI.c</text>
</a>
</g>
</g>
<!-- Node2 -->
<g id="Node000002" class="node">
<title>Node2</title>
<g id="a_Node000002"><a xlink:href="sevetest30___u_i_8h.html" target="_top" xlink:title=" ">
<polygon fill="white" stroke="#666666" points="1311.5,-239 1216.5,-239 1216.5,-220 1311.5,-220 1311.5,-239"/>
<text text-anchor="middle" x="1264" y="-227" font-family="Helvetica,sans-Serif" font-size="10.00">sevetest30_UI.h</text>
</a>
</g>
</g>
<!-- Node1&#45;&gt;Node2 -->
<g id="edge1_Node000001_Node000002" class="edge">
<title>Node1&#45;&gt;Node2</title>
<g id="a_edge1_Node000001_Node000002"><a xlink:title=" ">
<path fill="none" stroke="#63b8ff" d="M1677.39,-329.94C1596.51,-310.48 1399.01,-262.98 1309.47,-241.44"/>
<polygon fill="#63b8ff" stroke="#63b8ff" points="1310.15,-238 1299.61,-239.07 1308.52,-244.81 1310.15,-238"/>
</a>
</g>
</g>
<!-- Node11 -->
<g id="Node000011" class="node">
<title>Node11</title>
<g id="a_Node000011"><a xlink:title=" ">
<polygon fill="#e0e0e0" stroke="#999999" points="189,-74 115,-74 115,-55 189,-55 189,-74"/>
<text text-anchor="middle" x="152" y="-62" font-family="Helvetica,sans-Serif" font-size="10.00">board_def.h</text>
</a>
</g>
</g>
<!-- Node1&#45;&gt;Node11 -->
<g id="edge59_Node000001_Node000011" class="edge">
<title>Node1&#45;&gt;Node11</title>
<g id="a_edge59_Node000001_Node000011"><a xlink:title=" ">
<path fill="none" stroke="#63b8ff" d="M1651.78,-337.91C1346.14,-334.56 0,-315.03 0,-230.5 0,-230.5 0,-230.5 0,-173.5 0,-120.83 61.39,-91.49 106.14,-77.09"/>
<polygon fill="#63b8ff" stroke="#63b8ff" points="107.44,-80.36 115.98,-74.08 105.39,-73.66 107.44,-80.36"/>
</a>
</g>
</g>
<!-- Node21 -->
<g id="Node000021" class="node">
<title>Node21</title>
<g id="a_Node000021"><a xlink:href="sevetest30__sound_8h.html" target="_top" xlink:title=" ">
<polygon fill="white" stroke="#666666" points="1650,-239 1536,-239 1536,-220 1650,-220 1650,-239"/>
<text text-anchor="middle" x="1593" y="-227" font-family="Helvetica,sans-Serif" font-size="10.00">sevetest30_sound.h</text>
</a>
</g>
</g>
<!-- Node1&#45;&gt;Node21 -->
<g id="edge24_Node000001_Node000021" class="edge">
<title>Node1&#45;&gt;Node21</title>
<g id="a_edge24_Node000001_Node000021"><a xlink:title=" ">
<path fill="none" stroke="#63b8ff" d="M1701.55,-329.99C1690.01,-321.28 1671.85,-307.2 1657,-294 1639.56,-278.5 1620.73,-259.52 1608.04,-246.37"/>
<polygon fill="#63b8ff" stroke="#63b8ff" points="1610.45,-243.82 1601,-239.02 1605.39,-248.66 1610.45,-243.82"/>
</a>
</g>
</g>
<!-- Node23 -->
<g id="Node000023" class="node">
<title>Node23</title>
<g id="a_Node000023"><a xlink:href="sevetest30__touch_8h.html" target="_top" xlink:title=" ">
<polygon fill="white" stroke="#666666" points="1811,-294 1699,-294 1699,-275 1811,-275 1811,-294"/>
<text text-anchor="middle" x="1755" y="-282" font-family="Helvetica,sans-Serif" font-size="10.00">sevetest30_touch.h</text>
</a>
</g>
</g>
<!-- Node1&#45;&gt;Node23 -->
<g id="edge29_Node000001_Node000023" class="edge">
<title>Node1&#45;&gt;Node23</title>
<g id="a_edge29_Node000001_Node000023"><a xlink:title=" ">
<path fill="none" stroke="#63b8ff" d="M1719.94,-329.75C1725.87,-322.26 1734.57,-311.28 1741.82,-302.13"/>
<polygon fill="#63b8ff" stroke="#63b8ff" points="1744.73,-304.1 1748.19,-294.09 1739.24,-299.75 1744.73,-304.1"/>
</a>
</g>
</g>
<!-- Node26 -->
<g id="Node000026" class="node">
<title>Node26</title>
<g id="a_Node000026"><a xlink:href="sevetest30___i_w_e_d_a_8h.html" target="_top" xlink:title=" ">
<polygon fill="white" stroke="#666666" points="1794,-129 1676,-129 1676,-110 1794,-110 1794,-129"/>
<text text-anchor="middle" x="1735" y="-117" font-family="Helvetica,sans-Serif" font-size="10.00">sevetest30_IWEDA.h</text>
</a>
</g>
</g>
<!-- Node1&#45;&gt;Node26 -->
<g id="edge32_Node000001_Node000026" class="edge">
<title>Node1&#45;&gt;Node26</title>
<g id="a_edge32_Node000001_Node000026"><a xlink:title=" ">
<path fill="none" stroke="#63b8ff" d="M1706.9,-329.8C1701.25,-321.17 1693.25,-307.35 1690,-294 1684.94,-273.19 1695.08,-223.81 1698,-220 1722.43,-188.06 1758.94,-217.62 1781,-184 1792.26,-166.85 1774.31,-147.88 1757.65,-135.18"/>
<polygon fill="#63b8ff" stroke="#63b8ff" points="1759.39,-132.12 1749.22,-129.15 1755.32,-137.82 1759.39,-132.12"/>
</a>
</g>
</g>
<!-- Node29 -->
<g id="Node000029" class="node">
<title>Node29</title>
<g id="a_Node000029"><a xlink:href="sevetest30___s_w_e_d_a_8h.html" target="_top" xlink:title=" ">
<polygon fill="white" stroke="#666666" points="414.5,-184 293.5,-184 293.5,-165 414.5,-165 414.5,-184"/>
<text text-anchor="middle" x="354" y="-172" font-family="Helvetica,sans-Serif" font-size="10.00">sevetest30_SWEDA.h</text>
</a>
</g>
</g>
<!-- Node1&#45;&gt;Node29 -->
<g id="edge37_Node000001_Node000029" class="edge">
<title>Node1&#45;&gt;Node29</title>
<g id="a_edge37_Node000001_Node000029"><a xlink:title=" ">
<path fill="none" stroke="#63b8ff" d="M1651.81,-339.07C1503.13,-339.69 1111.36,-336.76 788,-294 674.35,-278.97 646.32,-270.16 536,-239 482.28,-223.83 421.29,-201.46 385.31,-187.73"/>
<polygon fill="#63b8ff" stroke="#63b8ff" points="386.45,-184.41 375.86,-184.09 383.94,-190.95 386.45,-184.41"/>
</a>
</g>
</g>
<!-- Node34 -->
<g id="Node000034" class="node">
<title>Node34</title>
<g id="a_Node000034"><a xlink:href="sevetest30___led_array_8h.html" target="_top" xlink:title=" ">
<polygon fill="white" stroke="#666666" points="924.5,-294 797.5,-294 797.5,-275 924.5,-275 924.5,-294"/>
<text text-anchor="middle" x="861" y="-282" font-family="Helvetica,sans-Serif" font-size="10.00">sevetest30_LedArray.h</text>
</a>
</g>
</g>
<!-- Node1&#45;&gt;Node34 -->
<g id="edge50_Node000001_Node000034" class="edge">
<title>Node1&#45;&gt;Node34</title>
<g id="a_edge50_Node000001_Node000034"><a xlink:title=" ">
<path fill="none" stroke="#63b8ff" d="M1651.73,-334.69C1498.68,-325.17 1100.15,-300.38 934.68,-290.08"/>
<polygon fill="#63b8ff" stroke="#63b8ff" points="934.8,-286.58 924.6,-289.46 934.36,-293.57 934.8,-286.58"/>
</a>
</g>
</g>
<!-- Node35 -->
<g id="Node000035" class="node">
<title>Node35</title>
<g id="a_Node000035"><a xlink:title=" ">
<polygon fill="#e0e0e0" stroke="#999999" points="1892.5,-294 1829.5,-294 1829.5,-275 1892.5,-275 1892.5,-294"/>
<text text-anchor="middle" x="1861" y="-282" font-family="Helvetica,sans-Serif" font-size="10.00">esp_log.h</text>
</a>
</g>
</g>
<!-- Node1&#45;&gt;Node35 -->
<g id="edge54_Node000001_Node000035" class="edge">
<title>Node1&#45;&gt;Node35</title>
<g id="a_edge54_Node000001_Node000035"><a xlink:title=" ">
<path fill="none" stroke="#63b8ff" d="M1736.78,-329.98C1761.23,-321.23 1799.53,-307.51 1827.15,-297.62"/>
<polygon fill="#63b8ff" stroke="#63b8ff" points="1828.55,-300.84 1836.79,-294.17 1826.19,-294.25 1828.55,-300.84"/>
</a>
</g>
</g>
<!-- Node36 -->
<g id="Node000036" class="node">
<title>Node36</title>
<g id="a_Node000036"><a xlink:title=" ">
<polygon fill="#e0e0e0" stroke="#999999" points="1961.5,-294 1910.5,-294 1910.5,-275 1961.5,-275 1961.5,-294"/>
<text text-anchor="middle" x="1936" y="-282" font-family="Helvetica,sans-Serif" font-size="10.00">math.h</text>
</a>
</g>
</g>
<!-- Node1&#45;&gt;Node36 -->
<g id="edge55_Node000001_Node000036" class="edge">
<title>Node1&#45;&gt;Node36</title>
<g id="a_edge55_Node000001_Node000036"><a xlink:title=" ">
<path fill="none" stroke="#63b8ff" d="M1749.98,-329.95C1786.02,-321.59 1842.64,-308.35 1900.36,-294.37"/>
<polygon fill="#63b8ff" stroke="#63b8ff" points="1901.5,-297.7 1910.39,-291.94 1899.85,-290.9 1901.5,-297.7"/>
</a>
</g>
</g>
<!-- Node37 -->
<g id="Node000037" class="node">
<title>Node37</title>
<g id="a_Node000037"><a xlink:title=" ">
<polygon fill="#e0e0e0" stroke="#999999" points="2066,-294 1980,-294 1980,-275 2066,-275 2066,-294"/>
<text text-anchor="middle" x="2023" y="-282" font-family="Helvetica,sans-Serif" font-size="10.00">esp_random.h</text>
</a>
</g>
</g>
<!-- Node1&#45;&gt;Node37 -->
<g id="edge56_Node000001_Node000037" class="edge">
<title>Node1&#45;&gt;Node37</title>
<g id="a_edge56_Node000001_Node000037"><a xlink:title=" ">
<path fill="none" stroke="#63b8ff" d="M1762.81,-329.98C1819.48,-320.3 1911.67,-304.53 1969.74,-294.61"/>
<polygon fill="#63b8ff" stroke="#63b8ff" points="1970.55,-298.02 1979.82,-292.88 1969.37,-291.12 1970.55,-298.02"/>
</a>
</g>
</g>
<!-- Node38 -->
<g id="Node000038" class="node">
<title>Node38</title>
<g id="a_Node000038"><a xlink:title=" ">
<polygon fill="#e0e0e0" stroke="#999999" points="2149.5,-294 2084.5,-294 2084.5,-275 2149.5,-275 2149.5,-294"/>
<text text-anchor="middle" x="2117" y="-282" font-family="Helvetica,sans-Serif" font-size="10.00">esp_dsp.h</text>
</a>
</g>
</g>
<!-- Node1&#45;&gt;Node38 -->
<g id="edge57_Node000001_Node000038" class="edge">
<title>Node1&#45;&gt;Node38</title>
<g id="a_edge57_Node000001_Node000038"><a xlink:title=" ">
<path fill="none" stroke="#63b8ff" d="M1774.05,-332.45C1844.06,-325.19 1962.49,-311.91 2074.38,-293.98"/>
<polygon fill="#63b8ff" stroke="#63b8ff" points="2075.17,-297.39 2084.49,-292.34 2074.06,-290.48 2075.17,-297.39"/>
</a>
</g>
</g>
<!-- Node39 -->
<g id="Node000039" class="node">
<title>Node39</title>
<g id="a_Node000039"><a xlink:title=" ">
<polygon fill="#e0e0e0" stroke="#999999" points="2250.5,-294 2167.5,-294 2167.5,-275 2250.5,-275 2250.5,-294"/>
<text text-anchor="middle" x="2209" y="-282" font-family="Helvetica,sans-Serif" font-size="10.00">audio_mem.h</text>
</a>
</g>
</g>
<!-- Node1&#45;&gt;Node39 -->
<g id="edge58_Node000001_Node000039" class="edge">
<title>Node1&#45;&gt;Node39</title>
<g id="a_edge58_Node000001_Node000039"><a xlink:title=" ">
<path fill="none" stroke="#63b8ff" d="M1774.11,-333.75C1858.17,-326.91 2014.38,-313.13 2157.04,-294.18"/>
<polygon fill="#63b8ff" stroke="#63b8ff" points="2157.84,-297.61 2167.29,-292.81 2156.91,-290.67 2157.84,-297.61"/>
</a>
</g>
</g>
<!-- Node3 -->
<g id="Node000003" class="node">
<title>Node3</title>
<g id="a_Node000003"><a xlink:title=" ">
<polygon fill="#e0e0e0" stroke="#999999" points="652.5,-19 599.5,-19 599.5,0 652.5,0 652.5,-19"/>
<text text-anchor="middle" x="626" y="-7" font-family="Helvetica,sans-Serif" font-size="10.00">string.h</text>
</a>
</g>
</g>
<!-- Node2&#45;&gt;Node3 -->
<g id="edge2_Node000002_Node000003" class="edge">
<title>Node2&#45;&gt;Node3</title>
<g id="a_edge2_Node000002_Node000003"><a xlink:title=" ">
<path fill="none" stroke="#63b8ff" d="M1216.43,-224.79C1095.84,-214.68 781.56,-183.66 694,-129 666.97,-112.13 663.7,-101.73 648,-74 639.92,-59.72 634.08,-41.97 630.45,-28.87"/>
<polygon fill="#63b8ff" stroke="#63b8ff" points="633.83,-27.94 627.93,-19.13 627.05,-29.69 633.83,-27.94"/>
</a>
</g>
</g>
<!-- Node4 -->
<g id="Node000004" class="node">
<title>Node4</title>
<g id="a_Node000004"><a xlink:title=" ">
<polygon fill="#e0e0e0" stroke="#999999" points="1622,-19 1560,-19 1560,0 1622,0 1622,-19"/>
<text text-anchor="middle" x="1591" y="-7" font-family="Helvetica,sans-Serif" font-size="10.00">stdbool.h</text>
</a>
</g>
</g>
<!-- Node2&#45;&gt;Node4 -->
<g id="edge3_Node000002_Node000004" class="edge">
<title>Node2&#45;&gt;Node4</title>
<g id="a_edge3_Node000002_Node000004"><a xlink:title=" ">
<path fill="none" stroke="#63b8ff" d="M1263.83,-219.97C1264.07,-206.12 1266.72,-178.9 1283,-165 1374.39,-86.95 1457.38,-204.36 1551,-129 1581.35,-104.57 1588.81,-56.16 1590.55,-29.4"/>
<polygon fill="#63b8ff" stroke="#63b8ff" points="1594.06,-29.23 1591.01,-19.09 1587.07,-28.92 1594.06,-29.23"/>
</a>
</g>
</g>
<!-- Node5 -->
<g id="Node000005" class="node">
<title>Node5</title>
<g id="a_Node000005"><a xlink:title=" ">
<polygon fill="#e0e0e0" stroke="#999999" points="1562.5,-74 1501.5,-74 1501.5,-55 1562.5,-55 1562.5,-74"/>
<text text-anchor="middle" x="1532" y="-62" font-family="Helvetica,sans-Serif" font-size="10.00">esp_err.h</text>
</a>
</g>
</g>
<!-- Node2&#45;&gt;Node5 -->
<g id="edge4_Node000002_Node000005" class="edge">
<title>Node2&#45;&gt;Node5</title>
<g id="a_edge4_Node000002_Node000005"><a xlink:title=" ">
<path fill="none" stroke="#63b8ff" d="M1258.04,-219.96C1249.51,-206.57 1236.27,-180.59 1250,-165 1333.81,-69.86 1449.19,-224.14 1533,-129 1543.69,-116.87 1541.8,-97.8 1538.24,-83.73"/>
<polygon fill="#63b8ff" stroke="#63b8ff" points="1541.59,-82.71 1535.37,-74.13 1534.89,-84.71 1541.59,-82.71"/>
</a>
</g>
</g>
<!-- Node6 -->
<g id="Node000006" class="node">
<title>Node6</title>
<g id="a_Node000006"><a xlink:title=" ">
<polygon fill="#e0e0e0" stroke="#999999" points="1494.5,-184 1381.5,-184 1381.5,-165 1494.5,-165 1494.5,-184"/>
<text text-anchor="middle" x="1438" y="-172" font-family="Helvetica,sans-Serif" font-size="10.00">freertos/FreeRTOS.h</text>
</a>
</g>
</g>
<!-- Node2&#45;&gt;Node6 -->
<g id="edge5_Node000002_Node000006" class="edge">
<title>Node2&#45;&gt;Node6</title>
<g id="a_edge5_Node000002_Node000006"><a xlink:title=" ">
<path fill="none" stroke="#63b8ff" d="M1291.96,-219.98C1321.3,-211.05 1367.6,-196.94 1400.19,-187.02"/>
<polygon fill="#63b8ff" stroke="#63b8ff" points="1401.28,-190.34 1409.82,-184.08 1399.24,-183.65 1401.28,-190.34"/>
</a>
</g>
</g>
<!-- Node7 -->
<g id="Node000007" class="node">
<title>Node7</title>
<g id="a_Node000007"><a xlink:title=" ">
<polygon fill="#e0e0e0" stroke="#999999" points="1601,-184 1513,-184 1513,-165 1601,-165 1601,-184"/>
<text text-anchor="middle" x="1557" y="-172" font-family="Helvetica,sans-Serif" font-size="10.00">freertos/task.h</text>
</a>
</g>
</g>
<!-- Node2&#45;&gt;Node7 -->
<g id="edge6_Node000002_Node000007" class="edge">
<title>Node2&#45;&gt;Node7</title>
<g id="a_edge6_Node000002_Node000007"><a xlink:title=" ">
<path fill="none" stroke="#63b8ff" d="M1311.08,-219.98C1363.46,-210.51 1447.97,-195.22 1503,-185.27"/>
<polygon fill="#63b8ff" stroke="#63b8ff" points="1503.7,-188.7 1512.92,-183.47 1502.45,-181.81 1503.7,-188.7"/>
</a>
</g>
</g>
<!-- Node8 -->
<g id="Node000008" class="node">
<title>Node8</title>
<g id="a_Node000008"><a xlink:title=" ">
<polygon fill="#e0e0e0" stroke="#999999" points="1363.5,-184 1292.5,-184 1292.5,-165 1363.5,-165 1363.5,-184"/>
<text text-anchor="middle" x="1328" y="-172" font-family="Helvetica,sans-Serif" font-size="10.00">driver/i2s.h</text>
</a>
</g>
</g>
<!-- Node2&#45;&gt;Node8 -->
<g id="edge7_Node000002_Node000008" class="edge">
<title>Node2&#45;&gt;Node8</title>
<g id="a_edge7_Node000002_Node000008"><a xlink:title=" ">
<path fill="none" stroke="#63b8ff" d="M1274.28,-219.98C1283.84,-212.07 1298.28,-200.11 1309.78,-190.58"/>
<polygon fill="#63b8ff" stroke="#63b8ff" points="1312.06,-193.24 1317.53,-184.17 1307.6,-187.85 1312.06,-193.24"/>
</a>
</g>
</g>
<!-- Node9 -->
<g id="Node000009" class="node">
<title>Node9</title>
<g id="a_Node000009"><a xlink:href="board__ctrl_8h.html" target="_top" xlink:title=" ">
<polygon fill="white" stroke="#666666" points="1000,-184 926,-184 926,-165 1000,-165 1000,-184"/>
<text text-anchor="middle" x="963" y="-172" font-family="Helvetica,sans-Serif" font-size="10.00">board_ctrl.h</text>
</a>
</g>
</g>
<!-- Node2&#45;&gt;Node9 -->
<g id="edge8_Node000002_Node000009" class="edge">
<title>Node2&#45;&gt;Node9</title>
<g id="a_edge8_Node000002_Node000009"><a xlink:title=" ">
<path fill="none" stroke="#63b8ff" d="M1216.31,-220.1C1159.81,-210.15 1066.3,-193.69 1010.08,-183.79"/>
<polygon fill="#63b8ff" stroke="#63b8ff" points="1010.49,-180.31 1000.03,-182.02 1009.27,-187.2 1010.49,-180.31"/>
</a>
</g>
</g>
<!-- Node9&#45;&gt;Node3 -->
<g id="edge10_Node000009_Node000003" class="edge">
<title>Node9&#45;&gt;Node3</title>
<g id="a_edge10_Node000009_Node000003"><a xlink:title=" ">
<path fill="none" stroke="#63b8ff" d="M925.78,-174.47C875.72,-174.13 785.55,-167.55 721,-129 679.65,-104.3 648.94,-54.52 634.74,-28.02"/>
<polygon fill="#63b8ff" stroke="#63b8ff" points="637.83,-26.37 630.12,-19.11 631.62,-29.6 637.83,-26.37"/>
</a>
</g>
</g>
<!-- Node10 -->
<g id="Node000010" class="node">
<title>Node10</title>
<g id="a_Node000010"><a xlink:title=" ">
<polygon fill="#e0e0e0" stroke="#999999" points="474.5,-74 399.5,-74 399.5,-55 474.5,-55 474.5,-74"/>
<text text-anchor="middle" x="437" y="-62" font-family="Helvetica,sans-Serif" font-size="10.00">esp_types.h</text>
</a>
</g>
</g>
<!-- Node9&#45;&gt;Node10 -->
<g id="edge9_Node000009_Node000010" class="edge">
<title>Node9&#45;&gt;Node10</title>
<g id="a_edge9_Node000009_Node000010"><a xlink:title=" ">
<path fill="none" stroke="#63b8ff" d="M925.89,-168.55C872.88,-161.23 772.54,-146.5 688,-129 612.85,-113.44 526.29,-90.39 476.97,-76.76"/>
<polygon fill="#63b8ff" stroke="#63b8ff" points="477.9,-73.39 467.33,-74.09 476.03,-80.13 477.9,-73.39"/>
</a>
</g>
</g>
<!-- Node9&#45;&gt;Node11 -->
<g id="edge11_Node000009_Node000011" class="edge">
<title>Node9&#45;&gt;Node11</title>
<g id="a_edge11_Node000009_Node000011"><a xlink:title=" ">
<path fill="none" stroke="#63b8ff" d="M925.8,-173.06C801.43,-171.27 400.88,-162.94 277,-129 275.67,-128.64 213.84,-97.1 177.65,-78.61"/>
<polygon fill="#63b8ff" stroke="#63b8ff" points="179.13,-75.43 168.63,-74 175.94,-81.67 179.13,-75.43"/>
</a>
</g>
</g>
<!-- Node12 -->
<g id="Node000012" class="node">
<title>Node12</title>
<g id="a_Node000012"><a xlink:title=" ">
<polygon fill="#e0e0e0" stroke="#999999" points="1052.5,-129 979.5,-129 979.5,-110 1052.5,-110 1052.5,-129"/>
<text text-anchor="middle" x="1016" y="-117" font-family="Helvetica,sans-Serif" font-size="10.00">audio_hal.h</text>
</a>
</g>
</g>
<!-- Node9&#45;&gt;Node12 -->
<g id="edge12_Node000009_Node000012" class="edge">
<title>Node9&#45;&gt;Node12</title>
<g id="a_edge12_Node000009_Node000012"><a xlink:title=" ">
<path fill="none" stroke="#63b8ff" d="M971.75,-164.75C979.47,-157.03 990.9,-145.6 1000.22,-136.28"/>
<polygon fill="#63b8ff" stroke="#63b8ff" points="1002.81,-138.64 1007.41,-129.09 997.86,-133.69 1002.81,-138.64"/>
</a>
</g>
</g>
<!-- Node13 -->
<g id="Node000013" class="node">
<title>Node13</title>
<g id="a_Node000013"><a xlink:title=" ">
<polygon fill="#e0e0e0" stroke="#999999" points="1173.5,-129 1070.5,-129 1070.5,-110 1173.5,-110 1173.5,-129"/>
<text text-anchor="middle" x="1122" y="-117" font-family="Helvetica,sans-Serif" font-size="10.00">esxxx_common.h</text>
</a>
</g>
</g>
<!-- Node9&#45;&gt;Node13 -->
<g id="edge13_Node000009_Node000013" class="edge">
<title>Node9&#45;&gt;Node13</title>
<g id="a_edge13_Node000009_Node000013"><a xlink:title=" ">
<path fill="none" stroke="#63b8ff" d="M988.55,-164.98C1015.12,-156.13 1056.94,-142.19 1086.67,-132.28"/>
<polygon fill="#63b8ff" stroke="#63b8ff" points="1087.87,-135.56 1096.25,-129.08 1085.66,-128.92 1087.87,-135.56"/>
</a>
</g>
</g>
<!-- Node14 -->
<g id="Node000014" class="node">
<title>Node14</title>
<g id="a_Node000014"><a xlink:href="sevetest30__gpio_8h.html" target="_top" xlink:title=" ">
<polygon fill="white" stroke="#666666" points="1387,-129 1281,-129 1281,-110 1387,-110 1387,-129"/>
<text text-anchor="middle" x="1334" y="-117" font-family="Helvetica,sans-Serif" font-size="10.00">sevetest30_gpio.h</text>
</a>
</g>
</g>
<!-- Node9&#45;&gt;Node14 -->
<g id="edge14_Node000009_Node000014" class="edge">
<title>Node9&#45;&gt;Node14</title>
<g id="a_edge14_Node000009_Node000014"><a xlink:title=" ">
<path fill="none" stroke="#63b8ff" d="M1000.27,-168.18C1063.58,-159.13 1192.8,-140.67 1270.56,-129.56"/>
<polygon fill="#63b8ff" stroke="#63b8ff" points="1271.31,-132.99 1280.72,-128.11 1270.32,-126.06 1271.31,-132.99"/>
</a>
</g>
</g>
<!-- Node16 -->
<g id="Node000016" class="node">
<title>Node16</title>
<g id="a_Node000016"><a xlink:title=" ">
<polygon fill="#e0e0e0" stroke="#999999" points="1262.5,-129 1191.5,-129 1191.5,-110 1262.5,-110 1262.5,-129"/>
<text text-anchor="middle" x="1227" y="-117" font-family="Helvetica,sans-Serif" font-size="10.00">driver/i2c.h</text>
</a>
</g>
</g>
<!-- Node9&#45;&gt;Node16 -->
<g id="edge18_Node000009_Node000016" class="edge">
<title>Node9&#45;&gt;Node16</title>
<g id="a_edge18_Node000009_Node000016"><a xlink:title=" ">
<path fill="none" stroke="#63b8ff" d="M1000.26,-166.02C1047.83,-156.47 1130.1,-139.95 1181.37,-129.66"/>
<polygon fill="#63b8ff" stroke="#63b8ff" points="1182.08,-133.09 1191.19,-127.69 1180.7,-126.23 1182.08,-133.09"/>
</a>
</g>
</g>
<!-- Node17 -->
<g id="Node000017" class="node">
<title>Node17</title>
<g id="a_Node000017"><a xlink:title=" ">
<polygon fill="#e0e0e0" stroke="#999999" points="1524.5,-129 1405.5,-129 1405.5,-110 1524.5,-110 1524.5,-129"/>
<text text-anchor="middle" x="1465" y="-117" font-family="Helvetica,sans-Serif" font-size="10.00">driver/spi_common.h</text>
</a>
</g>
</g>
<!-- Node9&#45;&gt;Node17 -->
<g id="edge19_Node000009_Node000017" class="edge">
<title>Node9&#45;&gt;Node17</title>
<g id="a_edge19_Node000009_Node000017"><a xlink:title=" ">
<path fill="none" stroke="#63b8ff" d="M1000.1,-169.94C1073.38,-162.86 1242.11,-146.27 1395.12,-129.08"/>
<polygon fill="#63b8ff" stroke="#63b8ff" points="1395.62,-132.54 1405.17,-127.95 1394.84,-125.59 1395.62,-132.54"/>
</a>
</g>
</g>
<!-- Node18 -->
<g id="Node000018" class="node">
<title>Node18</title>
<g id="a_Node000018"><a xlink:title=" ">
<polygon fill="#e0e0e0" stroke="#999999" points="840,-129 730,-129 730,-110 840,-110 840,-129"/>
<text text-anchor="middle" x="785" y="-117" font-family="Helvetica,sans-Serif" font-size="10.00">driver/spi_master.h</text>
</a>
</g>
</g>
<!-- Node9&#45;&gt;Node18 -->
<g id="edge20_Node000009_Node000018" class="edge">
<title>Node9&#45;&gt;Node18</title>
<g id="a_edge20_Node000009_Node000018"><a xlink:title=" ">
<path fill="none" stroke="#63b8ff" d="M934.4,-164.98C904.39,-156.05 857.02,-141.94 823.68,-132.02"/>
<polygon fill="#63b8ff" stroke="#63b8ff" points="824.41,-128.58 813.82,-129.08 822.41,-135.29 824.41,-128.58"/>
</a>
</g>
</g>
<!-- Node19 -->
<g id="Node000019" class="node">
<title>Node19</title>
<g id="a_Node000019"><a xlink:title=" ">
<polygon fill="#e0e0e0" stroke="#999999" points="961.5,-129 858.5,-129 858.5,-110 961.5,-110 961.5,-129"/>
<text text-anchor="middle" x="910" y="-117" font-family="Helvetica,sans-Serif" font-size="10.00">esp_peripherals.h</text>
</a>
</g>
</g>
<!-- Node9&#45;&gt;Node19 -->
<g id="edge21_Node000009_Node000019" class="edge">
<title>Node9&#45;&gt;Node19</title>
<g id="a_edge21_Node000009_Node000019"><a xlink:title=" ">
<path fill="none" stroke="#63b8ff" d="M954.25,-164.75C946.53,-157.03 935.1,-145.6 925.78,-136.28"/>
<polygon fill="#63b8ff" stroke="#63b8ff" points="928.14,-133.69 918.59,-129.09 923.19,-138.64 928.14,-133.69"/>
</a>
</g>
</g>
<!-- Node20 -->
<g id="Node000020" class="node">
<title>Node20</title>
<g id="a_Node000020"><a xlink:href="_b_l5372_8h.html" target="_top" xlink:title=" ">
<polygon fill="white" stroke="#666666" points="424,-129 362,-129 362,-110 424,-110 424,-129"/>
<text text-anchor="middle" x="393" y="-117" font-family="Helvetica,sans-Serif" font-size="10.00">BL5372.h</text>
</a>
</g>
</g>
<!-- Node9&#45;&gt;Node20 -->
<g id="edge22_Node000009_Node000020" class="edge">
<title>Node9&#45;&gt;Node20</title>
<g id="a_edge22_Node000009_Node000020"><a xlink:title=" ">
<path fill="none" stroke="#63b8ff" d="M925.87,-171.99C840.7,-168.18 624.61,-156.56 434.55,-129.05"/>
<polygon fill="#63b8ff" stroke="#63b8ff" points="434.78,-125.54 424.38,-127.56 433.76,-132.47 434.78,-125.54"/>
</a>
</g>
</g>
<!-- Node15 -->
<g id="Node000015" class="node">
<title>Node15</title>
<g id="a_Node000015"><a xlink:href="_t_c_a6416_a_8h.html" target="_top" xlink:title=" ">
<polygon fill="white" stroke="#666666" points="1371.5,-74 1296.5,-74 1296.5,-55 1371.5,-55 1371.5,-74"/>
<text text-anchor="middle" x="1334" y="-62" font-family="Helvetica,sans-Serif" font-size="10.00">TCA6416A.h</text>
</a>
</g>
</g>
<!-- Node14&#45;&gt;Node15 -->
<g id="edge15_Node000014_Node000015" class="edge">
<title>Node14&#45;&gt;Node15</title>
<g id="a_edge15_Node000014_Node000015"><a xlink:title=" ">
<path fill="none" stroke="#63b8ff" d="M1334,-109.75C1334,-102.8 1334,-92.85 1334,-84.13"/>
<polygon fill="#63b8ff" stroke="#63b8ff" points="1337.5,-84.09 1334,-74.09 1330.5,-84.09 1337.5,-84.09"/>
</a>
</g>
</g>
<!-- Node15&#45;&gt;Node3 -->
<g id="edge16_Node000015_Node000003" class="edge">
<title>Node15&#45;&gt;Node3</title>
<g id="a_edge16_Node000015_Node000003"><a xlink:title=" ">
<path fill="none" stroke="#63b8ff" d="M1296.43,-60.69C1173.64,-51.5 785.02,-22.4 663.02,-13.27"/>
<polygon fill="#63b8ff" stroke="#63b8ff" points="662.95,-9.76 652.71,-12.5 662.42,-16.74 662.95,-9.76"/>
</a>
</g>
</g>
<!-- Node15&#45;&gt;Node4 -->
<g id="edge17_Node000015_Node000004" class="edge">
<title>Node15&#45;&gt;Node4</title>
<g id="a_edge17_Node000015_Node000004"><a xlink:title=" ">
<path fill="none" stroke="#63b8ff" d="M1371.65,-55.74C1419.16,-45.94 1500.59,-29.15 1549.75,-19.01"/>
<polygon fill="#63b8ff" stroke="#63b8ff" points="1550.64,-22.4 1559.72,-16.95 1549.22,-15.54 1550.64,-22.4"/>
</a>
</g>
</g>
<!-- Node20&#45;&gt;Node10 -->
<g id="edge23_Node000020_Node000010" class="edge">
<title>Node20&#45;&gt;Node10</title>
<g id="a_edge23_Node000020_Node000010"><a xlink:title=" ">
<path fill="none" stroke="#63b8ff" d="M400.27,-109.75C406.54,-102.18 415.79,-91.05 423.43,-81.84"/>
<polygon fill="#63b8ff" stroke="#63b8ff" points="426.17,-84.02 429.87,-74.09 420.79,-79.55 426.17,-84.02"/>
</a>
</g>
</g>
<!-- Node21&#45;&gt;Node4 -->
<g id="edge25_Node000021_Node000004" class="edge">
<title>Node21&#45;&gt;Node4</title>
<g id="a_edge25_Node000021_Node000004"><a xlink:title=" ">
<path fill="none" stroke="#63b8ff" d="M1597.37,-219.91C1601.56,-211.14 1607.6,-197.01 1610,-184 1614.91,-157.38 1626.42,-176.05 1605,-55 1603.45,-46.23 1600.64,-36.78 1597.95,-28.85"/>
<polygon fill="#63b8ff" stroke="#63b8ff" points="1601.16,-27.42 1594.48,-19.2 1594.57,-29.79 1601.16,-27.42"/>
</a>
</g>
</g>
<!-- Node21&#45;&gt;Node6 -->
<g id="edge26_Node000021_Node000006" class="edge">
<title>Node21&#45;&gt;Node6</title>
<g id="a_edge26_Node000021_Node000006"><a xlink:title=" ">
<path fill="none" stroke="#63b8ff" d="M1568.1,-219.98C1542.3,-211.16 1501.78,-197.31 1472.82,-187.41"/>
<polygon fill="#63b8ff" stroke="#63b8ff" points="1473.69,-184.01 1463.1,-184.08 1471.43,-190.63 1473.69,-184.01"/>
</a>
</g>
</g>
<!-- Node21&#45;&gt;Node7 -->
<g id="edge27_Node000021_Node000007" class="edge">
<title>Node21&#45;&gt;Node7</title>
<g id="a_edge27_Node000021_Node000007"><a xlink:title=" ">
<path fill="none" stroke="#63b8ff" d="M1587.06,-219.75C1582.02,-212.34 1574.66,-201.5 1568.49,-192.41"/>
<polygon fill="#63b8ff" stroke="#63b8ff" points="1571.35,-190.39 1562.83,-184.09 1565.56,-194.33 1571.35,-190.39"/>
</a>
</g>
</g>
<!-- Node22 -->
<g id="Node000022" class="node">
<title>Node22</title>
<g id="a_Node000022"><a xlink:title=" ">
<polygon fill="#e0e0e0" stroke="#999999" points="1772.5,-184 1657.5,-184 1657.5,-165 1772.5,-165 1772.5,-184"/>
<text text-anchor="middle" x="1715" y="-172" font-family="Helvetica,sans-Serif" font-size="10.00">audio_event_iface.h</text>
</a>
</g>
</g>
<!-- Node21&#45;&gt;Node22 -->
<g id="edge28_Node000021_Node000022" class="edge">
<title>Node21&#45;&gt;Node22</title>
<g id="a_edge28_Node000021_Node000022"><a xlink:title=" ">
<path fill="none" stroke="#63b8ff" d="M1612.6,-219.98C1632.32,-211.42 1662.95,-198.11 1685.58,-188.28"/>
<polygon fill="#63b8ff" stroke="#63b8ff" points="1687.26,-191.37 1695.04,-184.17 1684.48,-184.94 1687.26,-191.37"/>
</a>
</g>
</g>
<!-- Node24 -->
<g id="Node000024" class="node">
<title>Node24</title>
<g id="a_Node000024"><a xlink:title=" ">
<polygon fill="#e0e0e0" stroke="#999999" points="1803.5,-239 1706.5,-239 1706.5,-220 1803.5,-220 1803.5,-239"/>
<text text-anchor="middle" x="1755" y="-227" font-family="Helvetica,sans-Serif" font-size="10.00">hal/gpio_types.h</text>
</a>
</g>
</g>
<!-- Node23&#45;&gt;Node24 -->
<g id="edge30_Node000023_Node000024" class="edge">
<title>Node23&#45;&gt;Node24</title>
<g id="a_edge30_Node000023_Node000024"><a xlink:title=" ">
<path fill="none" stroke="#63b8ff" d="M1755,-274.75C1755,-267.8 1755,-257.85 1755,-249.13"/>
<polygon fill="#63b8ff" stroke="#63b8ff" points="1758.5,-249.09 1755,-239.09 1751.5,-249.09 1758.5,-249.09"/>
</a>
</g>
</g>
<!-- Node25 -->
<g id="Node000025" class="node">
<title>Node25</title>
<g id="a_Node000025"><a xlink:title=" ">
<polygon fill="#e0e0e0" stroke="#999999" points="1918,-239 1822,-239 1822,-220 1918,-220 1918,-239"/>
<text text-anchor="middle" x="1870" y="-227" font-family="Helvetica,sans-Serif" font-size="10.00">driver/mcpwm.h</text>
</a>
</g>
</g>
<!-- Node23&#45;&gt;Node25 -->
<g id="edge31_Node000023_Node000025" class="edge">
<title>Node23&#45;&gt;Node25</title>
<g id="a_edge31_Node000023_Node000025"><a xlink:title=" ">
<path fill="none" stroke="#63b8ff" d="M1773.48,-274.98C1791.98,-266.46 1820.68,-253.23 1841.98,-243.41"/>
<polygon fill="#63b8ff" stroke="#63b8ff" points="1843.57,-246.53 1851.19,-239.17 1840.64,-240.18 1843.57,-246.53"/>
</a>
</g>
</g>
<!-- Node26&#45;&gt;Node4 -->
<g id="edge36_Node000026_Node000004" class="edge">
<title>Node26&#45;&gt;Node4</title>
<g id="a_edge36_Node000026_Node000004"><a xlink:title=" ">
<path fill="none" stroke="#63b8ff" d="M1723.22,-109.66C1698.52,-91.14 1641.1,-48.08 1610.7,-25.28"/>
<polygon fill="#63b8ff" stroke="#63b8ff" points="1612.64,-22.36 1602.54,-19.16 1608.44,-27.96 1612.64,-22.36"/>
</a>
</g>
</g>
<!-- Node26&#45;&gt;Node5 -->
<g id="edge35_Node000026_Node000005" class="edge">
<title>Node26&#45;&gt;Node5</title>
<g id="a_edge35_Node000026_Node000005"><a xlink:title=" ">
<path fill="none" stroke="#63b8ff" d="M1702.38,-109.98C1666.99,-100.74 1610.44,-85.98 1572.3,-76.02"/>
<polygon fill="#63b8ff" stroke="#63b8ff" points="1573.1,-72.61 1562.54,-73.47 1571.33,-79.39 1573.1,-72.61"/>
</a>
</g>
</g>
<!-- Node27 -->
<g id="Node000027" class="node">
<title>Node27</title>
<g id="a_Node000027"><a xlink:title=" ">
<polygon fill="#e0e0e0" stroke="#999999" points="1774.5,-74 1695.5,-74 1695.5,-55 1774.5,-55 1774.5,-74"/>
<text text-anchor="middle" x="1735" y="-62" font-family="Helvetica,sans-Serif" font-size="10.00">periph_wifi.h</text>
</a>
</g>
</g>
<!-- Node26&#45;&gt;Node27 -->
<g id="edge33_Node000026_Node000027" class="edge">
<title>Node26&#45;&gt;Node27</title>
<g id="a_edge33_Node000026_Node000027"><a xlink:title=" ">
<path fill="none" stroke="#63b8ff" d="M1735,-109.75C1735,-102.8 1735,-92.85 1735,-84.13"/>
<polygon fill="#63b8ff" stroke="#63b8ff" points="1738.5,-84.09 1735,-74.09 1731.5,-84.09 1738.5,-84.09"/>
</a>
</g>
</g>
<!-- Node28 -->
<g id="Node000028" class="node">
<title>Node28</title>
<g id="a_Node000028"><a xlink:title=" ">
<polygon fill="#e0e0e0" stroke="#999999" points="1893,-74 1793,-74 1793,-55 1893,-55 1893,-74"/>
<text text-anchor="middle" x="1843" y="-62" font-family="Helvetica,sans-Serif" font-size="10.00">esp_http_client.h</text>
</a>
</g>
</g>
<!-- Node26&#45;&gt;Node28 -->
<g id="edge34_Node000026_Node000028" class="edge">
<title>Node26&#45;&gt;Node28</title>
<g id="a_edge34_Node000026_Node000028"><a xlink:title=" ">
<path fill="none" stroke="#63b8ff" d="M1752.35,-109.98C1769.57,-101.54 1796.2,-88.47 1816.15,-78.68"/>
<polygon fill="#63b8ff" stroke="#63b8ff" points="1817.9,-81.72 1825.33,-74.17 1814.81,-75.43 1817.9,-81.72"/>
</a>
</g>
</g>
<!-- Node29&#45;&gt;Node4 -->
<g id="edge39_Node000029_Node000004" class="edge">
<title>Node29&#45;&gt;Node4</title>
<g id="a_edge39_Node000029_Node000004"><a xlink:title=" ">
<path fill="none" stroke="#63b8ff" d="M398.5,-164.95C467.41,-151.9 604.19,-126.77 721,-110 1038.67,-64.39 1424.01,-26.34 1549.41,-14.4"/>
<polygon fill="#63b8ff" stroke="#63b8ff" points="1550.08,-17.85 1559.71,-13.42 1549.42,-10.88 1550.08,-17.85"/>
</a>
</g>
</g>
<!-- Node29&#45;&gt;Node11 -->
<g id="edge40_Node000029_Node000011" class="edge">
<title>Node29&#45;&gt;Node11</title>
<g id="a_edge40_Node000029_Node000011"><a xlink:title=" ">
<path fill="none" stroke="#63b8ff" d="M293.2,-171.79C224.76,-168.43 119.85,-158.48 95,-129 80.21,-111.46 104.18,-91.9 125.42,-79.19"/>
<polygon fill="#63b8ff" stroke="#63b8ff" points="127.27,-82.16 134.24,-74.18 123.81,-76.07 127.27,-82.16"/>
</a>
</g>
</g>
<!-- Node29&#45;&gt;Node20 -->
<g id="edge46_Node000029_Node000020" class="edge">
<title>Node29&#45;&gt;Node20</title>
<g id="a_edge46_Node000029_Node000020"><a xlink:title=" ">
<path fill="none" stroke="#63b8ff" d="M360.44,-164.75C365.89,-157.34 373.86,-146.5 380.56,-137.41"/>
<polygon fill="#63b8ff" stroke="#63b8ff" points="383.57,-139.22 386.68,-129.09 377.93,-135.07 383.57,-139.22"/>
</a>
</g>
</g>
<!-- Node30 -->
<g id="Node000030" class="node">
<title>Node30</title>
<g id="a_Node000030"><a xlink:title=" ">
<polygon fill="#e0e0e0" stroke="#999999" points="154,-129 104,-129 104,-110 154,-110 154,-129"/>
<text text-anchor="middle" x="129" y="-117" font-family="Helvetica,sans-Serif" font-size="10.00">stdio.h</text>
</a>
</g>
</g>
<!-- Node29&#45;&gt;Node30 -->
<g id="edge38_Node000029_Node000030" class="edge">
<title>Node29&#45;&gt;Node30</title>
<g id="a_edge38_Node000029_Node000030"><a xlink:title=" ">
<path fill="none" stroke="#63b8ff" d="M316.63,-164.98C280.12,-156.62 222.74,-143.36 164.05,-129.23"/>
<polygon fill="#63b8ff" stroke="#63b8ff" points="164.78,-125.8 154.24,-126.86 163.14,-132.61 164.78,-125.8"/>
</a>
</g>
</g>
<!-- Node31 -->
<g id="Node000031" class="node">
<title>Node31</title>
<g id="a_Node000031"><a xlink:href="_a_h_t21_8h.html" target="_top" xlink:title=" ">
<polygon fill="white" stroke="#666666" points="344,-129 286,-129 286,-110 344,-110 344,-129"/>
<text text-anchor="middle" x="315" y="-117" font-family="Helvetica,sans-Serif" font-size="10.00">AHT21.h</text>
</a>
</g>
</g>
<!-- Node29&#45;&gt;Node31 -->
<g id="edge41_Node000029_Node000031" class="edge">
<title>Node29&#45;&gt;Node31</title>
<g id="a_edge41_Node000029_Node000031"><a xlink:title=" ">
<path fill="none" stroke="#63b8ff" d="M347.56,-164.75C342.11,-157.34 334.14,-146.5 327.44,-137.41"/>
<polygon fill="#63b8ff" stroke="#63b8ff" points="330.07,-135.07 321.32,-129.09 324.43,-139.22 330.07,-135.07"/>
</a>
</g>
</g>
<!-- Node32 -->
<g id="Node000032" class="node">
<title>Node32</title>
<g id="a_Node000032"><a xlink:href="_a_g_s10_8h.html" target="_top" xlink:title=" ">
<polygon fill="white" stroke="#666666" points="230,-129 172,-129 172,-110 230,-110 230,-129"/>
<text text-anchor="middle" x="201" y="-117" font-family="Helvetica,sans-Serif" font-size="10.00">AGS10.h</text>
</a>
</g>
</g>
<!-- Node29&#45;&gt;Node32 -->
<g id="edge43_Node000029_Node000032" class="edge">
<title>Node29&#45;&gt;Node32</title>
<g id="a_edge43_Node000029_Node000032"><a xlink:title=" ">
<path fill="none" stroke="#63b8ff" d="M329.42,-164.98C303.95,-156.16 263.96,-142.31 235.37,-132.41"/>
<polygon fill="#63b8ff" stroke="#63b8ff" points="236.37,-129.05 225.77,-129.08 234.08,-135.66 236.37,-129.05"/>
</a>
</g>
</g>
<!-- Node33 -->
<g id="Node000033" class="node">
<title>Node33</title>
<g id="a_Node000033"><a xlink:href="lsm6ds3trc_8h.html" target="_top" xlink:title=" ">
<polygon fill="white" stroke="#666666" points="522,-129 442,-129 442,-110 522,-110 522,-129"/>
<text text-anchor="middle" x="482" y="-117" font-family="Helvetica,sans-Serif" font-size="10.00">lsm6ds3trc.h</text>
</a>
</g>
</g>
<!-- Node29&#45;&gt;Node33 -->
<g id="edge47_Node000029_Node000033" class="edge">
<title>Node29&#45;&gt;Node33</title>
<g id="a_edge47_Node000029_Node000033"><a xlink:title=" ">
<path fill="none" stroke="#63b8ff" d="M374.57,-164.98C395.43,-156.34 427.97,-142.87 451.77,-133.02"/>
<polygon fill="#63b8ff" stroke="#63b8ff" points="453.16,-136.23 461.06,-129.17 450.48,-129.76 453.16,-136.23"/>
</a>
</g>
</g>
<!-- Node31&#45;&gt;Node10 -->
<g id="edge42_Node000031_Node000010" class="edge">
<title>Node31&#45;&gt;Node10</title>
<g id="a_edge42_Node000031_Node000010"><a xlink:title=" ">
<path fill="none" stroke="#63b8ff" d="M334.6,-109.98C354.32,-101.42 384.95,-88.11 407.58,-78.28"/>
<polygon fill="#63b8ff" stroke="#63b8ff" points="409.26,-81.37 417.04,-74.17 406.48,-74.94 409.26,-81.37"/>
</a>
</g>
</g>
<!-- Node32&#45;&gt;Node10 -->
<g id="edge44_Node000032_Node000010" class="edge">
<title>Node32&#45;&gt;Node10</title>
<g id="a_edge44_Node000032_Node000010"><a xlink:title=" ">
<path fill="none" stroke="#63b8ff" d="M230.41,-111.89C270.33,-102.93 342.11,-86.81 389.66,-76.13"/>
<polygon fill="#63b8ff" stroke="#63b8ff" points="390.43,-79.55 399.42,-73.94 388.89,-72.72 390.43,-79.55"/>
</a>
</g>
</g>
<!-- Node32&#45;&gt;Node11 -->
<g id="edge45_Node000032_Node000011" class="edge">
<title>Node32&#45;&gt;Node11</title>
<g id="a_edge45_Node000032_Node000011"><a xlink:title=" ">
<path fill="none" stroke="#63b8ff" d="M192.91,-109.75C185.84,-102.11 175.41,-90.82 166.85,-81.56"/>
<polygon fill="#63b8ff" stroke="#63b8ff" points="169.3,-79.06 159.94,-74.09 164.16,-83.81 169.3,-79.06"/>
</a>
</g>
</g>
<!-- Node33&#45;&gt;Node5 -->
<g id="edge49_Node000033_Node000005" class="edge">
<title>Node33&#45;&gt;Node5</title>
<g id="a_edge49_Node000033_Node000005"><a xlink:title=" ">
<path fill="none" stroke="#63b8ff" d="M522.28,-116.6C648.68,-110.6 1048.76,-91.47 1380,-74 1417.66,-72.01 1460.55,-69.6 1491.15,-67.85"/>
<polygon fill="#63b8ff" stroke="#63b8ff" points="1491.65,-71.33 1501.43,-67.27 1491.25,-64.34 1491.65,-71.33"/>
</a>
</g>
</g>
<!-- Node33&#45;&gt;Node10 -->
<g id="edge48_Node000033_Node000010" class="edge">
<title>Node33&#45;&gt;Node10</title>
<g id="a_edge48_Node000033_Node000010"><a xlink:title=" ">
<path fill="none" stroke="#63b8ff" d="M474.57,-109.75C468.15,-102.18 458.69,-91.05 450.88,-81.84"/>
<polygon fill="#63b8ff" stroke="#63b8ff" points="453.43,-79.45 444.29,-74.09 448.1,-83.98 453.43,-79.45"/>
</a>
</g>
</g>
<!-- Node34&#45;&gt;Node2 -->
<g id="edge52_Node000034_Node000002" class="edge">
<title>Node34&#45;&gt;Node2</title>
<g id="a_edge52_Node000034_Node000002"><a xlink:title=" ">
<path fill="none" stroke="#63b8ff" d="M924.86,-275.1C1002.23,-264.93 1131.46,-247.93 1206.06,-238.12"/>
<polygon fill="#63b8ff" stroke="#63b8ff" points="1206.76,-241.56 1216.22,-236.78 1205.85,-234.62 1206.76,-241.56"/>
</a>
</g>
</g>
<!-- Node34&#45;&gt;Node3 -->
<g id="edge51_Node000034_Node000003" class="edge">
<title>Node34&#45;&gt;Node3</title>
<g id="a_edge51_Node000034_Node000003"><a xlink:title=" ">
<path fill="none" stroke="#63b8ff" d="M797.45,-281.83C604.4,-275.9 38,-252.01 38,-175.5 38,-175.5 38,-175.5 38,-118.5 38,-77.15 68.21,-71.8 106,-55 192.66,-16.48 485.31,-11.2 589.11,-10.56"/>
<polygon fill="#63b8ff" stroke="#63b8ff" points="589.42,-14.06 599.41,-10.5 589.39,-7.06 589.42,-14.06"/>
</a>
</g>
</g>
<!-- Node34&#45;&gt;Node10 -->
<g id="edge53_Node000034_Node000010" class="edge">
<title>Node34&#45;&gt;Node10</title>
<g id="a_edge53_Node000034_Node000010"><a xlink:title=" ">
<path fill="none" stroke="#63b8ff" d="M799.42,-274.97C736.75,-263.58 639.74,-238.15 574,-184 544.64,-159.81 559.01,-135.74 531,-110 515.22,-95.5 493.87,-84.88 475.51,-77.66"/>
<polygon fill="#63b8ff" stroke="#63b8ff" points="476.54,-74.31 465.95,-74.09 474.09,-80.87 476.54,-74.31"/>
</a>
</g>
</g>
</g>
</svg>
