<?xml version="1.0" encoding="UTF-8" standalone="no"?>
<!DOCTYPE svg PUBLIC "-//W3C//DTD SVG 1.1//EN"
 "http://www.w3.org/Graphics/SVG/1.1/DTD/svg11.dtd">
<!-- Generated by graphviz version 2.43.0 (0)
 -->
<!-- Title: components/sevetest30_board/include/sevetest30_UI.h Pages: 1 -->
<svg width="1082pt" height="258pt"
 viewBox="0.00 0.00 1081.80 258.00" xmlns="http://www.w3.org/2000/svg" xmlns:xlink="http://www.w3.org/1999/xlink">
<g id="graph0" class="graph" transform="scale(1 1) rotate(0) translate(4 254)">
<title>components/sevetest30_board/include/sevetest30_UI.h</title>
<!-- Node1 -->
<g id="Node000001" class="node">
<title>Node1</title>
<g id="a_Node000001"><a xlink:title=" ">
<polygon fill="#999999" stroke="#666666" points="800,-250 630,-250 630,-220 800,-220 800,-250"/>
<text text-anchor="start" x="638" y="-238" font-family="Helvetica,sans-Serif" font-size="10.00">components/sevetest30</text>
<text text-anchor="middle" x="715" y="-227" font-family="Helvetica,sans-Serif" font-size="10.00">_board/include/sevetest30_UI.h</text>
</a>
</g>
</g>
<!-- Node2 -->
<g id="Node000002" class="node">
<title>Node2</title>
<g id="a_Node000002"><a xlink:title=" ">
<polygon fill="#e0e0e0" stroke="#999999" points="486.5,-19 433.5,-19 433.5,0 486.5,0 486.5,-19"/>
<text text-anchor="middle" x="460" y="-7" font-family="Helvetica,sans-Serif" font-size="10.00">string.h</text>
</a>
</g>
</g>
<!-- Node1&#45;&gt;Node2 -->
<g id="edge1_Node000001_Node000002" class="edge">
<title>Node1&#45;&gt;Node2</title>
<g id="a_edge1_Node000001_Node000002"><a xlink:title=" ">
<path fill="none" stroke="#63b8ff" d="M800.12,-227.38C852.79,-220.98 920.85,-208.45 977,-184 1039.07,-156.97 1104.06,-104.61 1058,-55 1019.8,-13.85 621.39,-10.45 496.93,-10.4"/>
<polygon fill="#63b8ff" stroke="#63b8ff" points="496.76,-6.9 486.76,-10.41 496.76,-13.9 496.76,-6.9"/>
</a>
</g>
</g>
<!-- Node3 -->
<g id="Node000003" class="node">
<title>Node3</title>
<g id="a_Node000003"><a xlink:title=" ">
<polygon fill="#e0e0e0" stroke="#999999" points="65,-19 3,-19 3,0 65,0 65,-19"/>
<text text-anchor="middle" x="34" y="-7" font-family="Helvetica,sans-Serif" font-size="10.00">stdbool.h</text>
</a>
</g>
</g>
<!-- Node1&#45;&gt;Node3 -->
<g id="edge2_Node000001_Node000003" class="edge">
<title>Node1&#45;&gt;Node3</title>
<g id="a_edge2_Node000001_Node000003"><a xlink:title=" ">
<path fill="none" stroke="#63b8ff" d="M629.94,-234.5C460.62,-233.48 90.9,-220.55 12,-129 -12.6,-100.45 8.3,-53.43 22.86,-28.05"/>
<polygon fill="#63b8ff" stroke="#63b8ff" points="26.04,-29.55 28.2,-19.18 20.04,-25.94 26.04,-29.55"/>
</a>
</g>
</g>
<!-- Node4 -->
<g id="Node000004" class="node">
<title>Node4</title>
<g id="a_Node000004"><a xlink:title=" ">
<polygon fill="#e0e0e0" stroke="#999999" points="640.5,-184 579.5,-184 579.5,-165 640.5,-165 640.5,-184"/>
<text text-anchor="middle" x="610" y="-172" font-family="Helvetica,sans-Serif" font-size="10.00">esp_err.h</text>
</a>
</g>
</g>
<!-- Node1&#45;&gt;Node4 -->
<g id="edge3_Node000001_Node000004" class="edge">
<title>Node1&#45;&gt;Node4</title>
<g id="a_edge3_Node000001_Node000004"><a xlink:title=" ">
<path fill="none" stroke="#63b8ff" d="M689.85,-219.99C673.11,-210.66 651.23,-198.47 634.61,-189.21"/>
<polygon fill="#63b8ff" stroke="#63b8ff" points="635.95,-185.95 625.51,-184.14 632.54,-192.06 635.95,-185.95"/>
</a>
</g>
</g>
<!-- Node5 -->
<g id="Node000005" class="node">
<title>Node5</title>
<g id="a_Node000005"><a xlink:title=" ">
<polygon fill="#e0e0e0" stroke="#999999" points="771.5,-184 658.5,-184 658.5,-165 771.5,-165 771.5,-184"/>
<text text-anchor="middle" x="715" y="-172" font-family="Helvetica,sans-Serif" font-size="10.00">freertos/FreeRTOS.h</text>
</a>
</g>
</g>
<!-- Node1&#45;&gt;Node5 -->
<g id="edge4_Node000001_Node000005" class="edge">
<title>Node1&#45;&gt;Node5</title>
<g id="a_edge4_Node000001_Node000005"><a xlink:title=" ">
<path fill="none" stroke="#63b8ff" d="M715,-219.84C715,-212.21 715,-202.7 715,-194.45"/>
<polygon fill="#63b8ff" stroke="#63b8ff" points="718.5,-194.27 715,-184.27 711.5,-194.27 718.5,-194.27"/>
</a>
</g>
</g>
<!-- Node6 -->
<g id="Node000006" class="node">
<title>Node6</title>
<g id="a_Node000006"><a xlink:title=" ">
<polygon fill="#e0e0e0" stroke="#999999" points="878,-184 790,-184 790,-165 878,-165 878,-184"/>
<text text-anchor="middle" x="834" y="-172" font-family="Helvetica,sans-Serif" font-size="10.00">freertos/task.h</text>
</a>
</g>
</g>
<!-- Node1&#45;&gt;Node6 -->
<g id="edge5_Node000001_Node000006" class="edge">
<title>Node1&#45;&gt;Node6</title>
<g id="a_edge5_Node000001_Node000006"><a xlink:title=" ">
<path fill="none" stroke="#63b8ff" d="M743.5,-219.99C762.92,-210.45 788.43,-197.9 807.42,-188.57"/>
<polygon fill="#63b8ff" stroke="#63b8ff" points="809,-191.69 816.43,-184.14 805.91,-185.41 809,-191.69"/>
</a>
</g>
</g>
<!-- Node7 -->
<g id="Node000007" class="node">
<title>Node7</title>
<g id="a_Node000007"><a xlink:title=" ">
<polygon fill="#e0e0e0" stroke="#999999" points="967.5,-184 896.5,-184 896.5,-165 967.5,-165 967.5,-184"/>
<text text-anchor="middle" x="932" y="-172" font-family="Helvetica,sans-Serif" font-size="10.00">driver/i2s.h</text>
</a>
</g>
</g>
<!-- Node1&#45;&gt;Node7 -->
<g id="edge6_Node000001_Node000007" class="edge">
<title>Node1&#45;&gt;Node7</title>
<g id="a_edge6_Node000001_Node000007"><a xlink:title=" ">
<path fill="none" stroke="#63b8ff" d="M766.98,-219.99C804.75,-209.8 855.21,-196.2 890.34,-186.73"/>
<polygon fill="#63b8ff" stroke="#63b8ff" points="891.53,-190.04 900.27,-184.05 889.71,-183.28 891.53,-190.04"/>
</a>
</g>
</g>
<!-- Node8 -->
<g id="Node000008" class="node">
<title>Node8</title>
<g id="a_Node000008"><a xlink:href="board__ctrl_8h.html" target="_top" xlink:title=" ">
<polygon fill="white" stroke="#666666" points="561,-184 487,-184 487,-165 561,-165 561,-184"/>
<text text-anchor="middle" x="524" y="-172" font-family="Helvetica,sans-Serif" font-size="10.00">board_ctrl.h</text>
</a>
</g>
</g>
<!-- Node1&#45;&gt;Node8 -->
<g id="edge7_Node000001_Node000008" class="edge">
<title>Node1&#45;&gt;Node8</title>
<g id="a_edge7_Node000001_Node000008"><a xlink:title=" ">
<path fill="none" stroke="#63b8ff" d="M669.25,-219.99C636.43,-209.94 592.74,-196.55 561.87,-187.1"/>
<polygon fill="#63b8ff" stroke="#63b8ff" points="562.52,-183.64 551.93,-184.05 560.47,-190.33 562.52,-183.64"/>
</a>
</g>
</g>
<!-- Node8&#45;&gt;Node2 -->
<g id="edge9_Node000008_Node000002" class="edge">
<title>Node8&#45;&gt;Node2</title>
<g id="a_edge9_Node000008_Node000002"><a xlink:title=" ">
<path fill="none" stroke="#63b8ff" d="M511.84,-164.71C501.63,-156.63 487.53,-143.7 480,-129 463.49,-96.77 460.17,-53.76 459.75,-29.41"/>
<polygon fill="#63b8ff" stroke="#63b8ff" points="463.25,-29.08 459.73,-19.09 456.25,-29.09 463.25,-29.08"/>
</a>
</g>
</g>
<!-- Node9 -->
<g id="Node000009" class="node">
<title>Node9</title>
<g id="a_Node000009"><a xlink:title=" ">
<polygon fill="#e0e0e0" stroke="#999999" points="1048.5,-74 973.5,-74 973.5,-55 1048.5,-55 1048.5,-74"/>
<text text-anchor="middle" x="1011" y="-62" font-family="Helvetica,sans-Serif" font-size="10.00">esp_types.h</text>
</a>
</g>
</g>
<!-- Node8&#45;&gt;Node9 -->
<g id="edge8_Node000008_Node000009" class="edge">
<title>Node8&#45;&gt;Node9</title>
<g id="a_edge8_Node000008_Node000009"><a xlink:title=" ">
<path fill="none" stroke="#63b8ff" d="M561.15,-166.42C564.47,-165.9 567.79,-165.41 571,-165 622.4,-158.38 1000.8,-167.03 1036,-129 1048.13,-115.89 1037.31,-96.21 1026.36,-82.24"/>
<polygon fill="#63b8ff" stroke="#63b8ff" points="1028.86,-79.77 1019.73,-74.38 1023.51,-84.28 1028.86,-79.77"/>
</a>
</g>
</g>
<!-- Node10 -->
<g id="Node000010" class="node">
<title>Node10</title>
<g id="a_Node000010"><a xlink:title=" ">
<polygon fill="#e0e0e0" stroke="#999999" points="219,-129 145,-129 145,-110 219,-110 219,-129"/>
<text text-anchor="middle" x="182" y="-117" font-family="Helvetica,sans-Serif" font-size="10.00">board_def.h</text>
</a>
</g>
</g>
<!-- Node8&#45;&gt;Node10 -->
<g id="edge10_Node000008_Node000010" class="edge">
<title>Node8&#45;&gt;Node10</title>
<g id="a_edge10_Node000008_Node000010"><a xlink:title=" ">
<path fill="none" stroke="#63b8ff" d="M486.69,-168.23C432.47,-160.49 328.47,-145.35 229.09,-128.97"/>
<polygon fill="#63b8ff" stroke="#63b8ff" points="229.62,-125.51 219.18,-127.33 228.48,-132.41 229.62,-125.51"/>
</a>
</g>
</g>
<!-- Node11 -->
<g id="Node000011" class="node">
<title>Node11</title>
<g id="a_Node000011"><a xlink:title=" ">
<polygon fill="#e0e0e0" stroke="#999999" points="310.5,-129 237.5,-129 237.5,-110 310.5,-110 310.5,-129"/>
<text text-anchor="middle" x="274" y="-117" font-family="Helvetica,sans-Serif" font-size="10.00">audio_hal.h</text>
</a>
</g>
</g>
<!-- Node8&#45;&gt;Node11 -->
<g id="edge11_Node000008_Node000011" class="edge">
<title>Node8&#45;&gt;Node11</title>
<g id="a_edge11_Node000008_Node000011"><a xlink:title=" ">
<path fill="none" stroke="#63b8ff" d="M486.84,-165.62C442.53,-156.23 368.42,-140.52 320.38,-130.33"/>
<polygon fill="#63b8ff" stroke="#63b8ff" points="321.06,-126.9 310.55,-128.25 319.61,-133.75 321.06,-126.9"/>
</a>
</g>
</g>
<!-- Node12 -->
<g id="Node000012" class="node">
<title>Node12</title>
<g id="a_Node000012"><a xlink:title=" ">
<polygon fill="#e0e0e0" stroke="#999999" points="431.5,-129 328.5,-129 328.5,-110 431.5,-110 431.5,-129"/>
<text text-anchor="middle" x="380" y="-117" font-family="Helvetica,sans-Serif" font-size="10.00">esxxx_common.h</text>
</a>
</g>
</g>
<!-- Node8&#45;&gt;Node12 -->
<g id="edge12_Node000008_Node000012" class="edge">
<title>Node8&#45;&gt;Node12</title>
<g id="a_edge12_Node000008_Node000012"><a xlink:title=" ">
<path fill="none" stroke="#63b8ff" d="M500.87,-164.98C477.18,-156.27 440.13,-142.63 413.29,-132.75"/>
<polygon fill="#63b8ff" stroke="#63b8ff" points="414.15,-129.34 403.56,-129.17 411.73,-135.91 414.15,-129.34"/>
</a>
</g>
</g>
<!-- Node13 -->
<g id="Node000013" class="node">
<title>Node13</title>
<g id="a_Node000013"><a xlink:href="sevetest30__gpio_8h.html" target="_top" xlink:title=" ">
<polygon fill="white" stroke="#666666" points="127,-129 21,-129 21,-110 127,-110 127,-129"/>
<text text-anchor="middle" x="74" y="-117" font-family="Helvetica,sans-Serif" font-size="10.00">sevetest30_gpio.h</text>
</a>
</g>
</g>
<!-- Node8&#45;&gt;Node13 -->
<g id="edge13_Node000008_Node000013" class="edge">
<title>Node8&#45;&gt;Node13</title>
<g id="a_edge13_Node000008_Node000013"><a xlink:title=" ">
<path fill="none" stroke="#63b8ff" d="M486.78,-169.51C419.32,-162.21 272.08,-146.01 137.19,-129.13"/>
<polygon fill="#63b8ff" stroke="#63b8ff" points="137.45,-125.63 127.09,-127.86 136.58,-132.58 137.45,-125.63"/>
</a>
</g>
</g>
<!-- Node15 -->
<g id="Node000015" class="node">
<title>Node15</title>
<g id="a_Node000015"><a xlink:title=" ">
<polygon fill="#e0e0e0" stroke="#999999" points="559.5,-129 488.5,-129 488.5,-110 559.5,-110 559.5,-129"/>
<text text-anchor="middle" x="524" y="-117" font-family="Helvetica,sans-Serif" font-size="10.00">driver/i2c.h</text>
</a>
</g>
</g>
<!-- Node8&#45;&gt;Node15 -->
<g id="edge17_Node000008_Node000015" class="edge">
<title>Node8&#45;&gt;Node15</title>
<g id="a_edge17_Node000008_Node000015"><a xlink:title=" ">
<path fill="none" stroke="#63b8ff" d="M524,-164.75C524,-157.8 524,-147.85 524,-139.13"/>
<polygon fill="#63b8ff" stroke="#63b8ff" points="527.5,-139.09 524,-129.09 520.5,-139.09 527.5,-139.09"/>
</a>
</g>
</g>
<!-- Node16 -->
<g id="Node000016" class="node">
<title>Node16</title>
<g id="a_Node000016"><a xlink:title=" ">
<polygon fill="#e0e0e0" stroke="#999999" points="696.5,-129 577.5,-129 577.5,-110 696.5,-110 696.5,-129"/>
<text text-anchor="middle" x="637" y="-117" font-family="Helvetica,sans-Serif" font-size="10.00">driver/spi_common.h</text>
</a>
</g>
</g>
<!-- Node8&#45;&gt;Node16 -->
<g id="edge18_Node000008_Node000016" class="edge">
<title>Node8&#45;&gt;Node16</title>
<g id="a_edge18_Node000008_Node000016"><a xlink:title=" ">
<path fill="none" stroke="#63b8ff" d="M542.16,-164.98C560.25,-156.5 588.29,-143.35 609.19,-133.54"/>
<polygon fill="#63b8ff" stroke="#63b8ff" points="610.95,-136.59 618.52,-129.17 607.98,-130.25 610.95,-136.59"/>
</a>
</g>
</g>
<!-- Node17 -->
<g id="Node000017" class="node">
<title>Node17</title>
<g id="a_Node000017"><a xlink:title=" ">
<polygon fill="#e0e0e0" stroke="#999999" points="825,-129 715,-129 715,-110 825,-110 825,-129"/>
<text text-anchor="middle" x="770" y="-117" font-family="Helvetica,sans-Serif" font-size="10.00">driver/spi_master.h</text>
</a>
</g>
</g>
<!-- Node8&#45;&gt;Node17 -->
<g id="edge19_Node000008_Node000017" class="edge">
<title>Node8&#45;&gt;Node17</title>
<g id="a_edge19_Node000008_Node000017"><a xlink:title=" ">
<path fill="none" stroke="#63b8ff" d="M561.1,-165.51C603.49,-156.37 673.07,-141.38 720.17,-131.24"/>
<polygon fill="#63b8ff" stroke="#63b8ff" points="721.11,-134.61 730.15,-129.09 719.64,-127.77 721.11,-134.61"/>
</a>
</g>
</g>
<!-- Node18 -->
<g id="Node000018" class="node">
<title>Node18</title>
<g id="a_Node000018"><a xlink:title=" ">
<polygon fill="#e0e0e0" stroke="#999999" points="946.5,-129 843.5,-129 843.5,-110 946.5,-110 946.5,-129"/>
<text text-anchor="middle" x="895" y="-117" font-family="Helvetica,sans-Serif" font-size="10.00">esp_peripherals.h</text>
</a>
</g>
</g>
<!-- Node8&#45;&gt;Node18 -->
<g id="edge20_Node000008_Node000018" class="edge">
<title>Node8&#45;&gt;Node18</title>
<g id="a_edge20_Node000008_Node000018"><a xlink:title=" ">
<path fill="none" stroke="#63b8ff" d="M561.18,-166.62C564.5,-166.06 567.81,-165.51 571,-165 684.33,-147 715.45,-145.23 833.27,-129.09"/>
<polygon fill="#63b8ff" stroke="#63b8ff" points="833.99,-132.53 843.42,-127.7 833.03,-125.59 833.99,-132.53"/>
</a>
</g>
</g>
<!-- Node19 -->
<g id="Node000019" class="node">
<title>Node19</title>
<g id="a_Node000019"><a xlink:href="_b_l5372_8h.html" target="_top" xlink:title=" ">
<polygon fill="white" stroke="#666666" points="1027,-129 965,-129 965,-110 1027,-110 1027,-129"/>
<text text-anchor="middle" x="996" y="-117" font-family="Helvetica,sans-Serif" font-size="10.00">BL5372.h</text>
</a>
</g>
</g>
<!-- Node8&#45;&gt;Node19 -->
<g id="edge21_Node000008_Node000019" class="edge">
<title>Node8&#45;&gt;Node19</title>
<g id="a_edge21_Node000008_Node000019"><a xlink:title=" ">
<path fill="none" stroke="#63b8ff" d="M561.15,-166.48C564.48,-165.94 567.8,-165.44 571,-165 738.03,-142.13 784.35,-154.41 954.57,-129.05"/>
<polygon fill="#63b8ff" stroke="#63b8ff" points="955.26,-132.48 964.62,-127.53 954.21,-125.56 955.26,-132.48"/>
</a>
</g>
</g>
<!-- Node14 -->
<g id="Node000014" class="node">
<title>Node14</title>
<g id="a_Node000014"><a xlink:href="_t_c_a6416_a_8h.html" target="_top" xlink:title=" ">
<polygon fill="white" stroke="#666666" points="111.5,-74 36.5,-74 36.5,-55 111.5,-55 111.5,-74"/>
<text text-anchor="middle" x="74" y="-62" font-family="Helvetica,sans-Serif" font-size="10.00">TCA6416A.h</text>
</a>
</g>
</g>
<!-- Node13&#45;&gt;Node14 -->
<g id="edge14_Node000013_Node000014" class="edge">
<title>Node13&#45;&gt;Node14</title>
<g id="a_edge14_Node000013_Node000014"><a xlink:title=" ">
<path fill="none" stroke="#63b8ff" d="M74,-109.75C74,-102.8 74,-92.85 74,-84.13"/>
<polygon fill="#63b8ff" stroke="#63b8ff" points="77.5,-84.09 74,-74.09 70.5,-84.09 77.5,-84.09"/>
</a>
</g>
</g>
<!-- Node14&#45;&gt;Node2 -->
<g id="edge15_Node000014_Node000002" class="edge">
<title>Node14&#45;&gt;Node2</title>
<g id="a_edge15_Node000014_Node000002"><a xlink:title=" ">
<path fill="none" stroke="#63b8ff" d="M111.72,-58.32C185.85,-48.14 349.71,-25.64 423.14,-15.56"/>
<polygon fill="#63b8ff" stroke="#63b8ff" points="423.87,-18.99 433.3,-14.17 422.92,-12.06 423.87,-18.99"/>
</a>
</g>
</g>
<!-- Node14&#45;&gt;Node3 -->
<g id="edge16_Node000014_Node000003" class="edge">
<title>Node14&#45;&gt;Node3</title>
<g id="a_edge16_Node000014_Node000003"><a xlink:title=" ">
<path fill="none" stroke="#63b8ff" d="M67.4,-54.75C61.75,-47.26 53.46,-36.28 46.55,-27.13"/>
<polygon fill="#63b8ff" stroke="#63b8ff" points="49.3,-24.96 40.48,-19.09 43.71,-29.18 49.3,-24.96"/>
</a>
</g>
</g>
<!-- Node19&#45;&gt;Node9 -->
<g id="edge22_Node000019_Node000009" class="edge">
<title>Node19&#45;&gt;Node9</title>
<g id="a_edge22_Node000019_Node000009"><a xlink:title=" ">
<path fill="none" stroke="#63b8ff" d="M998.48,-109.75C1000.47,-102.72 1003.32,-92.62 1005.81,-83.84"/>
<polygon fill="#63b8ff" stroke="#63b8ff" points="1009.21,-84.66 1008.57,-74.09 1002.48,-82.76 1009.21,-84.66"/>
</a>
</g>
</g>
</g>
</svg>
