<?xml version="1.0" encoding="UTF-8" standalone="no"?>
<!DOCTYPE svg PUBLIC "-//W3C//DTD SVG 1.1//EN"
 "http://www.w3.org/Graphics/SVG/1.1/DTD/svg11.dtd">
<!-- Generated by graphviz version 2.43.0 (0)
 -->
<!-- Title: main/sevetest30_IWEDA.c Pages: 1 -->
<svg width="2400pt" height="247pt"
 viewBox="0.00 0.00 2399.50 247.00" xmlns="http://www.w3.org/2000/svg" xmlns:xlink="http://www.w3.org/1999/xlink">
<g id="graph0" class="graph" transform="scale(1 1) rotate(0) translate(4 243)">
<title>main/sevetest30_IWEDA.c</title>
<!-- Node1 -->
<g id="Node000001" class="node">
<title>Node1</title>
<g id="a_Node000001"><a xlink:title=" ">
<polygon fill="#999999" stroke="#666666" points="1480,-239 1335,-239 1335,-220 1480,-220 1480,-239"/>
<text text-anchor="middle" x="1407.5" y="-227" font-family="Helvetica,sans-Serif" font-size="10.00">main/sevetest30_IWEDA.c</text>
</a>
</g>
</g>
<!-- Node2 -->
<g id="Node000002" class="node">
<title>Node2</title>
<g id="a_Node000002"><a xlink:title=" ">
<polygon fill="#e0e0e0" stroke="#999999" points="185,-184 142,-184 142,-165 185,-165 185,-184"/>
<text text-anchor="middle" x="163.5" y="-172" font-family="Helvetica,sans-Serif" font-size="10.00">zlib.h</text>
</a>
</g>
</g>
<!-- Node1&#45;&gt;Node2 -->
<g id="edge1_Node000001_Node000002" class="edge">
<title>Node1&#45;&gt;Node2</title>
<g id="a_edge1_Node000001_Node000002"><a xlink:title=" ">
<path fill="none" stroke="#63b8ff" d="M1334.63,-228.11C1110.86,-226.57 434.76,-219.17 195.36,-183.87"/>
<polygon fill="#63b8ff" stroke="#63b8ff" points="195.73,-180.39 185.32,-182.34 194.67,-187.31 195.73,-180.39"/>
</a>
</g>
</g>
<!-- Node3 -->
<g id="Node000003" class="node">
<title>Node3</title>
<g id="a_Node000003"><a xlink:title=" ">
<polygon fill="#e0e0e0" stroke="#999999" points="250,-184 203,-184 203,-165 250,-165 250,-184"/>
<text text-anchor="middle" x="226.5" y="-172" font-family="Helvetica,sans-Serif" font-size="10.00">zutil.h</text>
</a>
</g>
</g>
<!-- Node1&#45;&gt;Node3 -->
<g id="edge2_Node000001_Node000003" class="edge">
<title>Node1&#45;&gt;Node3</title>
<g id="a_edge2_Node000001_Node000003"><a xlink:title=" ">
<path fill="none" stroke="#63b8ff" d="M1334.8,-227.71C1119.71,-225.05 487.84,-214.9 260.37,-183.69"/>
<polygon fill="#63b8ff" stroke="#63b8ff" points="260.56,-180.19 250.17,-182.24 259.58,-187.12 260.56,-180.19"/>
</a>
</g>
</g>
<!-- Node4 -->
<g id="Node000004" class="node">
<title>Node4</title>
<g id="a_Node000004"><a xlink:title=" ">
<polygon fill="#e0e0e0" stroke="#999999" points="330.5,-184 268.5,-184 268.5,-165 330.5,-165 330.5,-184"/>
<text text-anchor="middle" x="299.5" y="-172" font-family="Helvetica,sans-Serif" font-size="10.00">inftrees.h</text>
</a>
</g>
</g>
<!-- Node1&#45;&gt;Node4 -->
<g id="edge3_Node000001_Node000004" class="edge">
<title>Node1&#45;&gt;Node4</title>
<g id="a_edge3_Node000001_Node000004"><a xlink:title=" ">
<path fill="none" stroke="#63b8ff" d="M1334.8,-227.06C1130.29,-222.76 551.76,-208.84 340.92,-183.92"/>
<polygon fill="#63b8ff" stroke="#63b8ff" points="341.21,-180.43 330.86,-182.68 340.36,-187.37 341.21,-180.43"/>
</a>
</g>
</g>
<!-- Node5 -->
<g id="Node000005" class="node">
<title>Node5</title>
<g id="a_Node000005"><a xlink:title=" ">
<polygon fill="#e0e0e0" stroke="#999999" points="404.5,-184 348.5,-184 348.5,-165 404.5,-165 404.5,-184"/>
<text text-anchor="middle" x="376.5" y="-172" font-family="Helvetica,sans-Serif" font-size="10.00">inflate.h</text>
</a>
</g>
</g>
<!-- Node1&#45;&gt;Node5 -->
<g id="edge4_Node000001_Node000005" class="edge">
<title>Node1&#45;&gt;Node5</title>
<g id="a_edge4_Node000001_Node000005"><a xlink:title=" ">
<path fill="none" stroke="#63b8ff" d="M1334.9,-226.96C1140.58,-222.56 610.69,-208.74 414.87,-183.87"/>
<polygon fill="#63b8ff" stroke="#63b8ff" points="415.06,-180.37 404.68,-182.53 414.14,-187.31 415.06,-180.37"/>
</a>
</g>
</g>
<!-- Node6 -->
<g id="Node000006" class="node">
<title>Node6</title>
<g id="a_Node000006"><a xlink:title=" ">
<polygon fill="#e0e0e0" stroke="#999999" points="490.5,-184 422.5,-184 422.5,-165 490.5,-165 490.5,-184"/>
<text text-anchor="middle" x="456.5" y="-172" font-family="Helvetica,sans-Serif" font-size="10.00">sys/time.h</text>
</a>
</g>
</g>
<!-- Node1&#45;&gt;Node6 -->
<g id="edge5_Node000001_Node000006" class="edge">
<title>Node1&#45;&gt;Node6</title>
<g id="a_edge5_Node000001_Node000006"><a xlink:title=" ">
<path fill="none" stroke="#63b8ff" d="M1334.97,-228.02C1181.34,-226.33 811.96,-218.66 504.5,-184 503.22,-183.86 501.93,-183.7 500.62,-183.53"/>
<polygon fill="#63b8ff" stroke="#63b8ff" points="500.91,-180.04 490.51,-182.07 499.91,-186.96 500.91,-180.04"/>
</a>
</g>
</g>
<!-- Node7 -->
<g id="Node000007" class="node">
<title>Node7</title>
<g id="a_Node000007"><a xlink:title=" ">
<polygon fill="#e0e0e0" stroke="#999999" points="53,-19 0,-19 0,0 53,0 53,-19"/>
<text text-anchor="middle" x="26.5" y="-7" font-family="Helvetica,sans-Serif" font-size="10.00">string.h</text>
</a>
</g>
</g>
<!-- Node1&#45;&gt;Node7 -->
<g id="edge6_Node000001_Node000007" class="edge">
<title>Node1&#45;&gt;Node7</title>
<g id="a_edge6_Node000001_Node000007"><a xlink:title=" ">
<path fill="none" stroke="#63b8ff" d="M1334.86,-228.6C1153.98,-228.25 687.23,-223.41 537.5,-184 519.24,-179.19 517.7,-170.04 499.5,-165 398.33,-137 107.08,-198.6 28.5,-129 0.61,-104.3 11.17,-55.26 19.74,-28.67"/>
<polygon fill="#63b8ff" stroke="#63b8ff" points="23.1,-29.67 23.07,-19.08 16.49,-27.38 23.1,-29.67"/>
</a>
</g>
</g>
<!-- Node8 -->
<g id="Node000008" class="node">
<title>Node8</title>
<g id="a_Node000008"><a xlink:title=" ">
<polygon fill="#e0e0e0" stroke="#999999" points="1523,-129 1410,-129 1410,-110 1523,-110 1523,-129"/>
<text text-anchor="middle" x="1466.5" y="-117" font-family="Helvetica,sans-Serif" font-size="10.00">freertos/FreeRTOS.h</text>
</a>
</g>
</g>
<!-- Node1&#45;&gt;Node8 -->
<g id="edge7_Node000001_Node000008" class="edge">
<title>Node1&#45;&gt;Node8</title>
<g id="a_edge7_Node000001_Node000008"><a xlink:title=" ">
<path fill="none" stroke="#63b8ff" d="M1364.02,-219.96C1325.49,-210.39 1278.36,-192.51 1299.5,-165 1312,-148.74 1358.78,-137.15 1399.67,-129.89"/>
<polygon fill="#63b8ff" stroke="#63b8ff" points="1400.37,-133.32 1409.63,-128.18 1399.19,-126.42 1400.37,-133.32"/>
</a>
</g>
</g>
<!-- Node9 -->
<g id="Node000009" class="node">
<title>Node9</title>
<g id="a_Node000009"><a xlink:title=" ">
<polygon fill="#e0e0e0" stroke="#999999" points="1801.5,-129 1713.5,-129 1713.5,-110 1801.5,-110 1801.5,-129"/>
<text text-anchor="middle" x="1757.5" y="-117" font-family="Helvetica,sans-Serif" font-size="10.00">freertos/task.h</text>
</a>
</g>
</g>
<!-- Node1&#45;&gt;Node9 -->
<g id="edge8_Node000001_Node000009" class="edge">
<title>Node1&#45;&gt;Node9</title>
<g id="a_edge8_Node000001_Node000009"><a xlink:title=" ">
<path fill="none" stroke="#63b8ff" d="M1413.28,-219.79C1423.17,-205.69 1444.76,-178.11 1470.5,-165 1561.43,-118.7 1598.3,-143.7 1703.23,-129.1"/>
<polygon fill="#63b8ff" stroke="#63b8ff" points="1703.88,-132.55 1713.26,-127.62 1702.85,-125.62 1703.88,-132.55"/>
</a>
</g>
</g>
<!-- Node10 -->
<g id="Node000010" class="node">
<title>Node10</title>
<g id="a_Node000010"><a xlink:href="sevetest30___i_w_e_d_a_8h.html" target="_top" xlink:title=" ">
<polygon fill="white" stroke="#666666" points="1252.5,-184 1134.5,-184 1134.5,-165 1252.5,-165 1252.5,-184"/>
<text text-anchor="middle" x="1193.5" y="-172" font-family="Helvetica,sans-Serif" font-size="10.00">sevetest30_IWEDA.h</text>
</a>
</g>
</g>
<!-- Node1&#45;&gt;Node10 -->
<g id="edge9_Node000001_Node000010" class="edge">
<title>Node1&#45;&gt;Node10</title>
<g id="a_edge9_Node000001_Node000010"><a xlink:title=" ">
<path fill="none" stroke="#63b8ff" d="M1373.12,-219.98C1336.41,-210.89 1278.12,-196.46 1237.95,-186.51"/>
<polygon fill="#63b8ff" stroke="#63b8ff" points="1238.7,-183.09 1228.15,-184.08 1237.02,-189.88 1238.7,-183.09"/>
</a>
</g>
</g>
<!-- Node11 -->
<g id="Node000011" class="node">
<title>Node11</title>
<g id="a_Node000011"><a xlink:title=" ">
<polygon fill="#e0e0e0" stroke="#999999" points="1156,-129 1077,-129 1077,-110 1156,-110 1156,-129"/>
<text text-anchor="middle" x="1116.5" y="-117" font-family="Helvetica,sans-Serif" font-size="10.00">periph_wifi.h</text>
</a>
</g>
</g>
<!-- Node1&#45;&gt;Node11 -->
<g id="edge25_Node000001_Node000011" class="edge">
<title>Node1&#45;&gt;Node11</title>
<g id="a_edge25_Node000001_Node000011"><a xlink:title=" ">
<path fill="none" stroke="#63b8ff" d="M1334.79,-226.58C1261.07,-223.02 1153.93,-212.88 1125.5,-184 1114.16,-172.48 1112.79,-153.6 1113.72,-139.42"/>
<polygon fill="#63b8ff" stroke="#63b8ff" points="1117.23,-139.6 1114.82,-129.28 1110.27,-138.84 1117.23,-139.6"/>
</a>
</g>
</g>
<!-- Node15 -->
<g id="Node000015" class="node">
<title>Node15</title>
<g id="a_Node000015"><a xlink:href="sevetest30__sound_8h.html" target="_top" xlink:title=" ">
<polygon fill="white" stroke="#666666" points="1422.5,-184 1308.5,-184 1308.5,-165 1422.5,-165 1422.5,-184"/>
<text text-anchor="middle" x="1365.5" y="-172" font-family="Helvetica,sans-Serif" font-size="10.00">sevetest30_sound.h</text>
</a>
</g>
</g>
<!-- Node1&#45;&gt;Node15 -->
<g id="edge14_Node000001_Node000015" class="edge">
<title>Node1&#45;&gt;Node15</title>
<g id="a_edge14_Node000001_Node000015"><a xlink:title=" ">
<path fill="none" stroke="#63b8ff" d="M1400.56,-219.75C1394.63,-212.26 1385.93,-201.28 1378.68,-192.13"/>
<polygon fill="#63b8ff" stroke="#63b8ff" points="1381.26,-189.75 1372.31,-184.09 1375.77,-194.1 1381.26,-189.75"/>
</a>
</g>
</g>
<!-- Node17 -->
<g id="Node000017" class="node">
<title>Node17</title>
<g id="a_Node000017"><a xlink:title=" ">
<polygon fill="#e0e0e0" stroke="#999999" points="1602,-184 1479,-184 1479,-165 1602,-165 1602,-184"/>
<text text-anchor="middle" x="1540.5" y="-172" font-family="Helvetica,sans-Serif" font-size="10.00">baidu_access_token.h</text>
</a>
</g>
</g>
<!-- Node1&#45;&gt;Node17 -->
<g id="edge19_Node000001_Node000017" class="edge">
<title>Node1&#45;&gt;Node17</title>
<g id="a_edge19_Node000001_Node000017"><a xlink:title=" ">
<path fill="none" stroke="#63b8ff" d="M1428.87,-219.98C1450.65,-211.3 1484.66,-197.75 1509.42,-187.88"/>
<polygon fill="#63b8ff" stroke="#63b8ff" points="1510.75,-191.12 1518.74,-184.17 1508.16,-184.62 1510.75,-191.12"/>
</a>
</g>
</g>
<!-- Node18 -->
<g id="Node000018" class="node">
<title>Node18</title>
<g id="a_Node000018"><a xlink:title=" ">
<polygon fill="#e0e0e0" stroke="#999999" points="1683,-184 1620,-184 1620,-165 1683,-165 1683,-184"/>
<text text-anchor="middle" x="1651.5" y="-172" font-family="Helvetica,sans-Serif" font-size="10.00">esp_log.h</text>
</a>
</g>
</g>
<!-- Node1&#45;&gt;Node18 -->
<g id="edge20_Node000001_Node000018" class="edge">
<title>Node1&#45;&gt;Node18</title>
<g id="a_edge20_Node000001_Node000018"><a xlink:title=" ">
<path fill="none" stroke="#63b8ff" d="M1446.7,-219.98C1491.41,-210.27 1564.22,-194.46 1609.9,-184.54"/>
<polygon fill="#63b8ff" stroke="#63b8ff" points="1610.75,-187.93 1619.78,-182.39 1609.26,-181.09 1610.75,-187.93"/>
</a>
</g>
</g>
<!-- Node19 -->
<g id="Node000019" class="node">
<title>Node19</title>
<g id="a_Node000019"><a xlink:title=" ">
<polygon fill="#e0e0e0" stroke="#999999" points="1766,-184 1701,-184 1701,-165 1766,-165 1766,-184"/>
<text text-anchor="middle" x="1733.5" y="-172" font-family="Helvetica,sans-Serif" font-size="10.00">esp_wifi.h</text>
</a>
</g>
</g>
<!-- Node1&#45;&gt;Node19 -->
<g id="edge21_Node000001_Node000019" class="edge">
<title>Node1&#45;&gt;Node19</title>
<g id="a_edge21_Node000001_Node000019"><a xlink:title=" ">
<path fill="none" stroke="#63b8ff" d="M1467.69,-219.99C1523.22,-211.93 1608.19,-199.1 1690.79,-184.24"/>
<polygon fill="#63b8ff" stroke="#63b8ff" points="1691.64,-187.65 1700.85,-182.42 1690.39,-180.76 1691.64,-187.65"/>
</a>
</g>
</g>
<!-- Node20 -->
<g id="Node000020" class="node">
<title>Node20</title>
<g id="a_Node000020"><a xlink:title=" ">
<polygon fill="#e0e0e0" stroke="#999999" points="1855,-184 1784,-184 1784,-165 1855,-165 1855,-184"/>
<text text-anchor="middle" x="1819.5" y="-172" font-family="Helvetica,sans-Serif" font-size="10.00">nvs_flash.h</text>
</a>
</g>
</g>
<!-- Node1&#45;&gt;Node20 -->
<g id="edge22_Node000001_Node000020" class="edge">
<title>Node1&#45;&gt;Node20</title>
<g id="a_edge22_Node000001_Node000020"><a xlink:title=" ">
<path fill="none" stroke="#63b8ff" d="M1480.33,-221.22C1552.47,-213.67 1666.31,-200.81 1773.94,-184.15"/>
<polygon fill="#63b8ff" stroke="#63b8ff" points="1774.66,-187.58 1784,-182.58 1773.58,-180.67 1774.66,-187.58"/>
</a>
</g>
</g>
<!-- Node21 -->
<g id="Node000021" class="node">
<title>Node21</title>
<g id="a_Node000021"><a xlink:href="sdkconfig_8h.html" target="_top" xlink:title=" ">
<polygon fill="white" stroke="#666666" points="1945.5,-184 1873.5,-184 1873.5,-165 1945.5,-165 1945.5,-184"/>
<text text-anchor="middle" x="1909.5" y="-172" font-family="Helvetica,sans-Serif" font-size="10.00">sdkconfig.h</text>
</a>
</g>
</g>
<!-- Node1&#45;&gt;Node21 -->
<g id="edge23_Node000001_Node000021" class="edge">
<title>Node1&#45;&gt;Node21</title>
<g id="a_edge23_Node000001_Node000021"><a xlink:title=" ">
<path fill="none" stroke="#63b8ff" d="M1480.16,-223.44C1568.4,-216.85 1721.95,-203.93 1863.06,-184.09"/>
<polygon fill="#63b8ff" stroke="#63b8ff" points="1863.79,-187.52 1873.2,-182.65 1862.8,-180.59 1863.79,-187.52"/>
</a>
</g>
</g>
<!-- Node22 -->
<g id="Node000022" class="node">
<title>Node22</title>
<g id="a_Node000022"><a xlink:title=" ">
<polygon fill="#e0e0e0" stroke="#999999" points="2033,-184 1964,-184 1964,-165 2033,-165 2033,-184"/>
<text text-anchor="middle" x="1998.5" y="-172" font-family="Helvetica,sans-Serif" font-size="10.00">esp_sntp.h</text>
</a>
</g>
</g>
<!-- Node1&#45;&gt;Node22 -->
<g id="edge24_Node000001_Node000022" class="edge">
<title>Node1&#45;&gt;Node22</title>
<g id="a_edge24_Node000001_Node000022"><a xlink:title=" ">
<path fill="none" stroke="#63b8ff" d="M1480.33,-225.12C1583.47,-219.77 1778.13,-207.59 1954.02,-183.9"/>
<polygon fill="#63b8ff" stroke="#63b8ff" points="1954.54,-187.36 1963.97,-182.54 1953.59,-180.42 1954.54,-187.36"/>
</a>
</g>
</g>
<!-- Node23 -->
<g id="Node000023" class="node">
<title>Node23</title>
<g id="a_Node000023"><a xlink:title=" ">
<polygon fill="#e0e0e0" stroke="#999999" points="2104,-184 2051,-184 2051,-165 2104,-165 2104,-184"/>
<text text-anchor="middle" x="2077.5" y="-172" font-family="Helvetica,sans-Serif" font-size="10.00">board.h</text>
</a>
</g>
</g>
<!-- Node1&#45;&gt;Node23 -->
<g id="edge26_Node000001_Node000023" class="edge">
<title>Node1&#45;&gt;Node23</title>
<g id="a_edge26_Node000001_Node000023"><a xlink:title=" ">
<path fill="none" stroke="#63b8ff" d="M1480.32,-227.37C1596.97,-224.69 1832.95,-215.67 2040.96,-183.99"/>
<polygon fill="#63b8ff" stroke="#63b8ff" points="2041.49,-187.45 2050.84,-182.46 2040.42,-180.53 2041.49,-187.45"/>
</a>
</g>
</g>
<!-- Node24 -->
<g id="Node000024" class="node">
<title>Node24</title>
<g id="a_Node000024"><a xlink:href="board__ctrl_8h.html" target="_top" xlink:title=" ">
<polygon fill="white" stroke="#666666" points="620.5,-184 546.5,-184 546.5,-165 620.5,-165 620.5,-184"/>
<text text-anchor="middle" x="583.5" y="-172" font-family="Helvetica,sans-Serif" font-size="10.00">board_ctrl.h</text>
</a>
</g>
</g>
<!-- Node1&#45;&gt;Node24 -->
<g id="edge27_Node000001_Node000024" class="edge">
<title>Node1&#45;&gt;Node24</title>
<g id="a_edge27_Node000001_Node000024"><a xlink:title=" ">
<path fill="none" stroke="#63b8ff" d="M1334.74,-223.82C1169.34,-213.18 768.82,-187.42 631.01,-178.56"/>
<polygon fill="#63b8ff" stroke="#63b8ff" points="630.99,-175.05 620.79,-177.9 630.54,-182.03 630.99,-175.05"/>
</a>
</g>
</g>
<!-- Node36 -->
<g id="Node000036" class="node">
<title>Node36</title>
<g id="a_Node000036"><a xlink:title=" ">
<polygon fill="#e0e0e0" stroke="#999999" points="2173,-184 2122,-184 2122,-165 2173,-165 2173,-184"/>
<text text-anchor="middle" x="2147.5" y="-172" font-family="Helvetica,sans-Serif" font-size="10.00">cjson.h</text>
</a>
</g>
</g>
<!-- Node1&#45;&gt;Node36 -->
<g id="edge43_Node000001_Node000036" class="edge">
<title>Node1&#45;&gt;Node36</title>
<g id="a_edge43_Node000001_Node000036"><a xlink:title=" ">
<path fill="none" stroke="#63b8ff" d="M1480.13,-228.27C1606.81,-226.91 1876.36,-219.8 2111.86,-183.97"/>
<polygon fill="#63b8ff" stroke="#63b8ff" points="2112.63,-187.39 2121.98,-182.41 2111.57,-180.47 2112.63,-187.39"/>
</a>
</g>
</g>
<!-- Node37 -->
<g id="Node000037" class="node">
<title>Node37</title>
<g id="a_Node000037"><a xlink:title=" ">
<polygon fill="#e0e0e0" stroke="#999999" points="2303.5,-184 2191.5,-184 2191.5,-165 2303.5,-165 2303.5,-184"/>
<text text-anchor="middle" x="2247.5" y="-172" font-family="Helvetica,sans-Serif" font-size="10.00">audio_idf_version.h</text>
</a>
</g>
</g>
<!-- Node1&#45;&gt;Node37 -->
<g id="edge44_Node000001_Node000037" class="edge">
<title>Node1&#45;&gt;Node37</title>
<g id="a_edge44_Node000001_Node000037"><a xlink:title=" ">
<path fill="none" stroke="#63b8ff" d="M1480.02,-226.1C1615.61,-221.22 1916.93,-208.55 2180.99,-184.07"/>
<polygon fill="#63b8ff" stroke="#63b8ff" points="2181.53,-187.54 2191.16,-183.12 2180.88,-180.57 2181.53,-187.54"/>
</a>
</g>
</g>
<!-- Node38 -->
<g id="Node000038" class="node">
<title>Node38</title>
<g id="a_Node000038"><a xlink:title=" ">
<polygon fill="#e0e0e0" stroke="#999999" points="2391.5,-184 2321.5,-184 2321.5,-165 2391.5,-165 2391.5,-184"/>
<text text-anchor="middle" x="2356.5" y="-172" font-family="Helvetica,sans-Serif" font-size="10.00">esp_netif.h</text>
</a>
</g>
</g>
<!-- Node1&#45;&gt;Node38 -->
<g id="edge45_Node000001_Node000038" class="edge">
<title>Node1&#45;&gt;Node38</title>
<g id="a_edge45_Node000001_Node000038"><a xlink:title=" ">
<path fill="none" stroke="#63b8ff" d="M1480.23,-228.41C1632.64,-227.47 1996.7,-221.25 2310.81,-184.02"/>
<polygon fill="#63b8ff" stroke="#63b8ff" points="2311.51,-187.47 2321.03,-182.8 2310.68,-180.51 2311.51,-187.47"/>
</a>
</g>
</g>
<!-- Node10&#45;&gt;Node11 -->
<g id="edge10_Node000010_Node000011" class="edge">
<title>Node10&#45;&gt;Node11</title>
<g id="a_edge10_Node000010_Node000011"><a xlink:title=" ">
<path fill="none" stroke="#63b8ff" d="M1181.13,-164.98C1169.41,-156.92 1151.58,-144.65 1137.61,-135.03"/>
<polygon fill="#63b8ff" stroke="#63b8ff" points="1139.32,-131.96 1129.1,-129.17 1135.35,-137.72 1139.32,-131.96"/>
</a>
</g>
</g>
<!-- Node12 -->
<g id="Node000012" class="node">
<title>Node12</title>
<g id="a_Node000012"><a xlink:title=" ">
<polygon fill="#e0e0e0" stroke="#999999" points="1312.5,-129 1212.5,-129 1212.5,-110 1312.5,-110 1312.5,-129"/>
<text text-anchor="middle" x="1262.5" y="-117" font-family="Helvetica,sans-Serif" font-size="10.00">esp_http_client.h</text>
</a>
</g>
</g>
<!-- Node10&#45;&gt;Node12 -->
<g id="edge11_Node000010_Node000012" class="edge">
<title>Node10&#45;&gt;Node12</title>
<g id="a_edge11_Node000010_Node000012"><a xlink:title=" ">
<path fill="none" stroke="#63b8ff" d="M1204.59,-164.98C1214.99,-157 1230.76,-144.88 1243.22,-135.31"/>
<polygon fill="#63b8ff" stroke="#63b8ff" points="1245.41,-138.04 1251.21,-129.17 1241.15,-132.49 1245.41,-138.04"/>
</a>
</g>
</g>
<!-- Node13 -->
<g id="Node000013" class="node">
<title>Node13</title>
<g id="a_Node000013"><a xlink:title=" ">
<polygon fill="#e0e0e0" stroke="#999999" points="1392,-129 1331,-129 1331,-110 1392,-110 1392,-129"/>
<text text-anchor="middle" x="1361.5" y="-117" font-family="Helvetica,sans-Serif" font-size="10.00">esp_err.h</text>
</a>
</g>
</g>
<!-- Node10&#45;&gt;Node13 -->
<g id="edge12_Node000010_Node000013" class="edge">
<title>Node10&#45;&gt;Node13</title>
<g id="a_edge12_Node000010_Node000013"><a xlink:title=" ">
<path fill="none" stroke="#63b8ff" d="M1220.49,-164.98C1248.7,-156.09 1293.14,-142.07 1324.58,-132.15"/>
<polygon fill="#63b8ff" stroke="#63b8ff" points="1325.81,-135.43 1334.3,-129.08 1323.71,-128.75 1325.81,-135.43"/>
</a>
</g>
</g>
<!-- Node14 -->
<g id="Node000014" class="node">
<title>Node14</title>
<g id="a_Node000014"><a xlink:title=" ">
<polygon fill="#e0e0e0" stroke="#999999" points="1215.5,-19 1153.5,-19 1153.5,0 1215.5,0 1215.5,-19"/>
<text text-anchor="middle" x="1184.5" y="-7" font-family="Helvetica,sans-Serif" font-size="10.00">stdbool.h</text>
</a>
</g>
</g>
<!-- Node10&#45;&gt;Node14 -->
<g id="edge13_Node000010_Node000014" class="edge">
<title>Node10&#45;&gt;Node14</title>
<g id="a_edge13_Node000010_Node000014"><a xlink:title=" ">
<path fill="none" stroke="#63b8ff" d="M1193.02,-164.74C1191.61,-139.31 1187.51,-65.08 1185.56,-29.69"/>
<polygon fill="#63b8ff" stroke="#63b8ff" points="1189.03,-29.1 1184.99,-19.31 1182.04,-29.48 1189.03,-29.1"/>
</a>
</g>
</g>
<!-- Node15&#45;&gt;Node8 -->
<g id="edge16_Node000015_Node000008" class="edge">
<title>Node15&#45;&gt;Node8</title>
<g id="a_edge16_Node000015_Node000008"><a xlink:title=" ">
<path fill="none" stroke="#63b8ff" d="M1381.73,-164.98C1397.68,-156.61 1422.28,-143.7 1440.88,-133.95"/>
<polygon fill="#63b8ff" stroke="#63b8ff" points="1442.75,-136.92 1449.98,-129.17 1439.5,-130.72 1442.75,-136.92"/>
</a>
</g>
</g>
<!-- Node15&#45;&gt;Node9 -->
<g id="edge17_Node000015_Node000009" class="edge">
<title>Node15&#45;&gt;Node9</title>
<g id="a_edge17_Node000015_Node000009"><a xlink:title=" ">
<path fill="none" stroke="#63b8ff" d="M1422.55,-166.51C1487.87,-158.4 1598.35,-144.34 1703.15,-129.16"/>
<polygon fill="#63b8ff" stroke="#63b8ff" points="1703.88,-132.59 1713.27,-127.69 1702.87,-125.67 1703.88,-132.59"/>
</a>
</g>
</g>
<!-- Node15&#45;&gt;Node14 -->
<g id="edge15_Node000015_Node000014" class="edge">
<title>Node15&#45;&gt;Node14</title>
<g id="a_edge15_Node000015_Node000014"><a xlink:title=" ">
<path fill="none" stroke="#63b8ff" d="M1422.8,-165.75C1465.63,-158.65 1519.02,-146.55 1532.5,-129 1537.65,-122.3 1537.58,-116.74 1532.5,-110 1495.23,-60.57 1309.18,-28.29 1225.45,-16.04"/>
<polygon fill="#63b8ff" stroke="#63b8ff" points="1225.93,-12.57 1215.53,-14.61 1224.93,-19.5 1225.93,-12.57"/>
</a>
</g>
</g>
<!-- Node16 -->
<g id="Node000016" class="node">
<title>Node16</title>
<g id="a_Node000016"><a xlink:title=" ">
<polygon fill="#e0e0e0" stroke="#999999" points="1695,-129 1580,-129 1580,-110 1695,-110 1695,-129"/>
<text text-anchor="middle" x="1637.5" y="-117" font-family="Helvetica,sans-Serif" font-size="10.00">audio_event_iface.h</text>
</a>
</g>
</g>
<!-- Node15&#45;&gt;Node16 -->
<g id="edge18_Node000015_Node000016" class="edge">
<title>Node15&#45;&gt;Node16</title>
<g id="a_edge18_Node000015_Node000016"><a xlink:title=" ">
<path fill="none" stroke="#63b8ff" d="M1409.2,-164.98C1456.65,-155.74 1532.47,-140.97 1583.58,-131.01"/>
<polygon fill="#63b8ff" stroke="#63b8ff" points="1584.31,-134.43 1593.46,-129.08 1582.97,-127.56 1584.31,-134.43"/>
</a>
</g>
</g>
<!-- Node24&#45;&gt;Node7 -->
<g id="edge29_Node000024_Node000007" class="edge">
<title>Node24&#45;&gt;Node7</title>
<g id="a_edge29_Node000024_Node000007"><a xlink:title=" ">
<path fill="none" stroke="#63b8ff" d="M546.23,-166.89C541.62,-166.19 536.96,-165.53 532.5,-165 478.63,-158.53 85.47,-165.7 45.5,-129 17.97,-103.72 19.69,-55.69 23.19,-29.2"/>
<polygon fill="#63b8ff" stroke="#63b8ff" points="26.65,-29.71 24.72,-19.3 19.73,-28.65 26.65,-29.71"/>
</a>
</g>
</g>
<!-- Node25 -->
<g id="Node000025" class="node">
<title>Node25</title>
<g id="a_Node000025"><a xlink:title=" ">
<polygon fill="#e0e0e0" stroke="#999999" points="261,-74 186,-74 186,-55 261,-55 261,-74"/>
<text text-anchor="middle" x="223.5" y="-62" font-family="Helvetica,sans-Serif" font-size="10.00">esp_types.h</text>
</a>
</g>
</g>
<!-- Node24&#45;&gt;Node25 -->
<g id="edge28_Node000024_Node000025" class="edge">
<title>Node24&#45;&gt;Node25</title>
<g id="a_edge28_Node000024_Node000025"><a xlink:title=" ">
<path fill="none" stroke="#63b8ff" d="M546.49,-167.09C541.79,-166.34 537.03,-165.63 532.5,-165 460.52,-155.02 255.97,-183.14 207.5,-129 196.16,-116.34 203.52,-96.81 211.61,-82.75"/>
<polygon fill="#63b8ff" stroke="#63b8ff" points="214.73,-84.37 217.1,-74.05 208.81,-80.63 214.73,-84.37"/>
</a>
</g>
</g>
<!-- Node26 -->
<g id="Node000026" class="node">
<title>Node26</title>
<g id="a_Node000026"><a xlink:title=" ">
<polygon fill="#e0e0e0" stroke="#999999" points="370.5,-129 296.5,-129 296.5,-110 370.5,-110 370.5,-129"/>
<text text-anchor="middle" x="333.5" y="-117" font-family="Helvetica,sans-Serif" font-size="10.00">board_def.h</text>
</a>
</g>
</g>
<!-- Node24&#45;&gt;Node26 -->
<g id="edge30_Node000024_Node000026" class="edge">
<title>Node24&#45;&gt;Node26</title>
<g id="a_edge30_Node000024_Node000026"><a xlink:title=" ">
<path fill="none" stroke="#63b8ff" d="M546.34,-165.62C502.28,-156.28 428.76,-140.7 380.71,-130.51"/>
<polygon fill="#63b8ff" stroke="#63b8ff" points="381.37,-127.07 370.86,-128.42 379.92,-133.92 381.37,-127.07"/>
</a>
</g>
</g>
<!-- Node27 -->
<g id="Node000027" class="node">
<title>Node27</title>
<g id="a_Node000027"><a xlink:title=" ">
<polygon fill="#e0e0e0" stroke="#999999" points="462,-129 389,-129 389,-110 462,-110 462,-129"/>
<text text-anchor="middle" x="425.5" y="-117" font-family="Helvetica,sans-Serif" font-size="10.00">audio_hal.h</text>
</a>
</g>
</g>
<!-- Node24&#45;&gt;Node27 -->
<g id="edge31_Node000024_Node000027" class="edge">
<title>Node24&#45;&gt;Node27</title>
<g id="a_edge31_Node000024_Node000027"><a xlink:title=" ">
<path fill="none" stroke="#63b8ff" d="M558.11,-164.98C531.7,-156.13 490.15,-142.19 460.61,-132.28"/>
<polygon fill="#63b8ff" stroke="#63b8ff" points="461.68,-128.94 451.08,-129.08 459.45,-135.58 461.68,-128.94"/>
</a>
</g>
</g>
<!-- Node28 -->
<g id="Node000028" class="node">
<title>Node28</title>
<g id="a_Node000028"><a xlink:title=" ">
<polygon fill="#e0e0e0" stroke="#999999" points="583,-129 480,-129 480,-110 583,-110 583,-129"/>
<text text-anchor="middle" x="531.5" y="-117" font-family="Helvetica,sans-Serif" font-size="10.00">esxxx_common.h</text>
</a>
</g>
</g>
<!-- Node24&#45;&gt;Node28 -->
<g id="edge32_Node000024_Node000028" class="edge">
<title>Node24&#45;&gt;Node28</title>
<g id="a_edge32_Node000024_Node000028"><a xlink:title=" ">
<path fill="none" stroke="#63b8ff" d="M574.91,-164.75C567.34,-157.03 556.12,-145.6 546.99,-136.28"/>
<polygon fill="#63b8ff" stroke="#63b8ff" points="549.43,-133.78 539.93,-129.09 544.43,-138.68 549.43,-133.78"/>
</a>
</g>
</g>
<!-- Node29 -->
<g id="Node000029" class="node">
<title>Node29</title>
<g id="a_Node000029"><a xlink:href="sevetest30__gpio_8h.html" target="_top" xlink:title=" ">
<polygon fill="white" stroke="#666666" points="160.5,-129 54.5,-129 54.5,-110 160.5,-110 160.5,-129"/>
<text text-anchor="middle" x="107.5" y="-117" font-family="Helvetica,sans-Serif" font-size="10.00">sevetest30_gpio.h</text>
</a>
</g>
</g>
<!-- Node24&#45;&gt;Node29 -->
<g id="edge33_Node000024_Node000029" class="edge">
<title>Node24&#45;&gt;Node29</title>
<g id="a_edge33_Node000024_Node000029"><a xlink:title=" ">
<path fill="none" stroke="#63b8ff" d="M546.5,-167.04C541.79,-166.31 537.04,-165.61 532.5,-165 373.99,-143.84 333.39,-147.06 174.5,-129 173.22,-128.85 171.93,-128.71 170.63,-128.56"/>
<polygon fill="#63b8ff" stroke="#63b8ff" points="170.86,-125.06 160.51,-127.35 170.03,-132.01 170.86,-125.06"/>
</a>
</g>
</g>
<!-- Node31 -->
<g id="Node000031" class="node">
<title>Node31</title>
<g id="a_Node000031"><a xlink:title=" ">
<polygon fill="#e0e0e0" stroke="#999999" points="672,-129 601,-129 601,-110 672,-110 672,-129"/>
<text text-anchor="middle" x="636.5" y="-117" font-family="Helvetica,sans-Serif" font-size="10.00">driver/i2c.h</text>
</a>
</g>
</g>
<!-- Node24&#45;&gt;Node31 -->
<g id="edge37_Node000024_Node000031" class="edge">
<title>Node24&#45;&gt;Node31</title>
<g id="a_edge37_Node000024_Node000031"><a xlink:title=" ">
<path fill="none" stroke="#63b8ff" d="M592.25,-164.75C599.97,-157.03 611.4,-145.6 620.72,-136.28"/>
<polygon fill="#63b8ff" stroke="#63b8ff" points="623.31,-138.64 627.91,-129.09 618.36,-133.69 623.31,-138.64"/>
</a>
</g>
</g>
<!-- Node32 -->
<g id="Node000032" class="node">
<title>Node32</title>
<g id="a_Node000032"><a xlink:title=" ">
<polygon fill="#e0e0e0" stroke="#999999" points="809,-129 690,-129 690,-110 809,-110 809,-129"/>
<text text-anchor="middle" x="749.5" y="-117" font-family="Helvetica,sans-Serif" font-size="10.00">driver/spi_common.h</text>
</a>
</g>
</g>
<!-- Node24&#45;&gt;Node32 -->
<g id="edge38_Node000024_Node000032" class="edge">
<title>Node24&#45;&gt;Node32</title>
<g id="a_edge38_Node000024_Node000032"><a xlink:title=" ">
<path fill="none" stroke="#63b8ff" d="M610.17,-164.98C638.04,-156.09 681.95,-142.07 713.02,-132.15"/>
<polygon fill="#63b8ff" stroke="#63b8ff" points="714.16,-135.46 722.62,-129.08 712.03,-128.79 714.16,-135.46"/>
</a>
</g>
</g>
<!-- Node33 -->
<g id="Node000033" class="node">
<title>Node33</title>
<g id="a_Node000033"><a xlink:title=" ">
<polygon fill="#e0e0e0" stroke="#999999" points="937.5,-129 827.5,-129 827.5,-110 937.5,-110 937.5,-129"/>
<text text-anchor="middle" x="882.5" y="-117" font-family="Helvetica,sans-Serif" font-size="10.00">driver/spi_master.h</text>
</a>
</g>
</g>
<!-- Node24&#45;&gt;Node33 -->
<g id="edge39_Node000024_Node000033" class="edge">
<title>Node24&#45;&gt;Node33</title>
<g id="a_edge39_Node000024_Node000033"><a xlink:title=" ">
<path fill="none" stroke="#63b8ff" d="M620.76,-166.89C671.82,-157.84 764.03,-141.5 824.25,-130.83"/>
<polygon fill="#63b8ff" stroke="#63b8ff" points="825.13,-134.22 834.37,-129.03 823.91,-127.33 825.13,-134.22"/>
</a>
</g>
</g>
<!-- Node34 -->
<g id="Node000034" class="node">
<title>Node34</title>
<g id="a_Node000034"><a xlink:title=" ">
<polygon fill="#e0e0e0" stroke="#999999" points="1059,-129 956,-129 956,-110 1059,-110 1059,-129"/>
<text text-anchor="middle" x="1007.5" y="-117" font-family="Helvetica,sans-Serif" font-size="10.00">esp_peripherals.h</text>
</a>
</g>
</g>
<!-- Node24&#45;&gt;Node34 -->
<g id="edge40_Node000024_Node000034" class="edge">
<title>Node24&#45;&gt;Node34</title>
<g id="a_edge40_Node000024_Node000034"><a xlink:title=" ">
<path fill="none" stroke="#63b8ff" d="M620.63,-169.15C684.63,-161.62 820.12,-145.46 945.74,-129.08"/>
<polygon fill="#63b8ff" stroke="#63b8ff" points="946.46,-132.51 955.92,-127.75 945.55,-125.57 946.46,-132.51"/>
</a>
</g>
</g>
<!-- Node35 -->
<g id="Node000035" class="node">
<title>Node35</title>
<g id="a_Node000035"><a xlink:href="_b_l5372_8h.html" target="_top" xlink:title=" ">
<polygon fill="white" stroke="#666666" points="278.5,-129 216.5,-129 216.5,-110 278.5,-110 278.5,-129"/>
<text text-anchor="middle" x="247.5" y="-117" font-family="Helvetica,sans-Serif" font-size="10.00">BL5372.h</text>
</a>
</g>
</g>
<!-- Node24&#45;&gt;Node35 -->
<g id="edge41_Node000024_Node000035" class="edge">
<title>Node24&#45;&gt;Node35</title>
<g id="a_edge41_Node000024_Node000035"><a xlink:title=" ">
<path fill="none" stroke="#63b8ff" d="M546.47,-167.24C541.77,-166.47 537.02,-165.71 532.5,-165 426.96,-148.45 397.53,-148.43 288.96,-129.17"/>
<polygon fill="#63b8ff" stroke="#63b8ff" points="289.37,-125.69 278.91,-127.37 288.13,-132.58 289.37,-125.69"/>
</a>
</g>
</g>
<!-- Node30 -->
<g id="Node000030" class="node">
<title>Node30</title>
<g id="a_Node000030"><a xlink:href="_t_c_a6416_a_8h.html" target="_top" xlink:title=" ">
<polygon fill="white" stroke="#666666" points="145,-74 70,-74 70,-55 145,-55 145,-74"/>
<text text-anchor="middle" x="107.5" y="-62" font-family="Helvetica,sans-Serif" font-size="10.00">TCA6416A.h</text>
</a>
</g>
</g>
<!-- Node29&#45;&gt;Node30 -->
<g id="edge34_Node000029_Node000030" class="edge">
<title>Node29&#45;&gt;Node30</title>
<g id="a_edge34_Node000029_Node000030"><a xlink:title=" ">
<path fill="none" stroke="#63b8ff" d="M107.5,-109.75C107.5,-102.8 107.5,-92.85 107.5,-84.13"/>
<polygon fill="#63b8ff" stroke="#63b8ff" points="111,-84.09 107.5,-74.09 104,-84.09 111,-84.09"/>
</a>
</g>
</g>
<!-- Node30&#45;&gt;Node7 -->
<g id="edge35_Node000030_Node000007" class="edge">
<title>Node30&#45;&gt;Node7</title>
<g id="a_edge35_Node000030_Node000007"><a xlink:title=" ">
<path fill="none" stroke="#63b8ff" d="M94.49,-54.98C82.04,-46.84 63.04,-34.41 48.29,-24.76"/>
<polygon fill="#63b8ff" stroke="#63b8ff" points="50.04,-21.72 39.75,-19.17 46.2,-27.57 50.04,-21.72"/>
</a>
</g>
</g>
<!-- Node30&#45;&gt;Node14 -->
<g id="edge36_Node000030_Node000014" class="edge">
<title>Node30&#45;&gt;Node14</title>
<g id="a_edge36_Node000030_Node000014"><a xlink:title=" ">
<path fill="none" stroke="#63b8ff" d="M145.05,-58.33C155.23,-57.08 166.28,-55.85 176.5,-55 550.79,-23.73 1005.21,-13.62 1142.97,-11.17"/>
<polygon fill="#63b8ff" stroke="#63b8ff" points="1143.15,-14.66 1153.09,-10.99 1143.03,-7.66 1143.15,-14.66"/>
</a>
</g>
</g>
<!-- Node35&#45;&gt;Node25 -->
<g id="edge42_Node000035_Node000025" class="edge">
<title>Node35&#45;&gt;Node25</title>
<g id="a_edge42_Node000035_Node000025"><a xlink:title=" ">
<path fill="none" stroke="#63b8ff" d="M243.54,-109.75C240.29,-102.57 235.58,-92.18 231.55,-83.27"/>
<polygon fill="#63b8ff" stroke="#63b8ff" points="234.7,-81.75 227.39,-74.09 228.33,-84.64 234.7,-81.75"/>
</a>
</g>
</g>
</g>
</svg>
