<?xml version="1.0" encoding="UTF-8" standalone="no"?>
<!DOCTYPE svg PUBLIC "-//W3C//DTD SVG 1.1//EN"
 "http://www.w3.org/Graphics/SVG/1.1/DTD/svg11.dtd">
<!-- Generated by graphviz version 2.43.0 (0)
 -->
<!-- Title: main/sevetest30_sound.c Pages: 1 -->
<svg width="3957pt" height="302pt"
 viewBox="0.00 0.00 3956.59 302.00" xmlns="http://www.w3.org/2000/svg" xmlns:xlink="http://www.w3.org/1999/xlink">
<g id="graph0" class="graph" transform="scale(1 1) rotate(0) translate(4 298)">
<title>main/sevetest30_sound.c</title>
<!-- Node1 -->
<g id="Node000001" class="node">
<title>Node1</title>
<g id="a_Node000001"><a xlink:title=" ">
<polygon fill="#999999" stroke="#666666" points="2197.09,-294 2056.09,-294 2056.09,-275 2197.09,-275 2197.09,-294"/>
<text text-anchor="middle" x="2126.59" y="-282" font-family="Helvetica,sans-Serif" font-size="10.00">main/sevetest30_sound.c</text>
</a>
</g>
</g>
<!-- Node2 -->
<g id="Node000002" class="node">
<title>Node2</title>
<g id="a_Node000002"><a xlink:href="sevetest30__sound_8h.html" target="_top" xlink:title=" ">
<polygon fill="white" stroke="#666666" points="1228.59,-239 1114.59,-239 1114.59,-220 1228.59,-220 1228.59,-239"/>
<text text-anchor="middle" x="1171.59" y="-227" font-family="Helvetica,sans-Serif" font-size="10.00">sevetest30_sound.h</text>
</a>
</g>
</g>
<!-- Node1&#45;&gt;Node2 -->
<g id="edge1_Node000001_Node000002" class="edge">
<title>Node1&#45;&gt;Node2</title>
<g id="a_edge1_Node000001_Node000002"><a xlink:title=" ">
<path fill="none" stroke="#63b8ff" d="M2055.96,-281.08C1907.57,-275.75 1552.64,-261.6 1255.59,-239 1250.2,-238.59 1244.62,-238.12 1239.02,-237.62"/>
<polygon fill="#63b8ff" stroke="#63b8ff" points="1239.23,-234.12 1228.95,-236.69 1238.58,-241.09 1239.23,-234.12"/>
</a>
</g>
</g>
<!-- Node6 -->
<g id="Node000006" class="node">
<title>Node6</title>
<g id="a_Node000006"><a xlink:title=" ">
<polygon fill="#e0e0e0" stroke="#999999" points="1315.09,-184 1200.09,-184 1200.09,-165 1315.09,-165 1315.09,-184"/>
<text text-anchor="middle" x="1257.59" y="-172" font-family="Helvetica,sans-Serif" font-size="10.00">audio_event_iface.h</text>
</a>
</g>
</g>
<!-- Node1&#45;&gt;Node6 -->
<g id="edge41_Node000001_Node000006" class="edge">
<title>Node1&#45;&gt;Node6</title>
<g id="a_edge41_Node000001_Node000006"><a xlink:title=" ">
<path fill="none" stroke="#63b8ff" d="M2055.95,-282.59C1871.23,-279.81 1383.59,-269.61 1317.59,-239 1296.17,-229.06 1278.62,-207.73 1268.14,-192.53"/>
<polygon fill="#63b8ff" stroke="#63b8ff" points="1270.98,-190.47 1262.57,-184.02 1265.12,-194.3 1270.98,-190.47"/>
</a>
</g>
</g>
<!-- Node7 -->
<g id="Node000007" class="node">
<title>Node7</title>
<g id="a_Node000007"><a xlink:href="sevetest30___i_w_e_d_a_8h.html" target="_top" xlink:title=" ">
<polygon fill="white" stroke="#666666" points="344.59,-239 226.59,-239 226.59,-220 344.59,-220 344.59,-239"/>
<text text-anchor="middle" x="285.59" y="-227" font-family="Helvetica,sans-Serif" font-size="10.00">sevetest30_IWEDA.h</text>
</a>
</g>
</g>
<!-- Node1&#45;&gt;Node7 -->
<g id="edge6_Node000001_Node000007" class="edge">
<title>Node1&#45;&gt;Node7</title>
<g id="a_edge6_Node000001_Node000007"><a xlink:title=" ">
<path fill="none" stroke="#63b8ff" d="M2055.83,-281.46C1762.87,-273.03 646.71,-240.9 355.45,-232.51"/>
<polygon fill="#63b8ff" stroke="#63b8ff" points="355.13,-229 345.03,-232.21 354.93,-236 355.13,-229"/>
</a>
</g>
</g>
<!-- Node8 -->
<g id="Node000008" class="node">
<title>Node8</title>
<g id="a_Node000008"><a xlink:title=" ">
<polygon fill="#e0e0e0" stroke="#999999" points="130.09,-184 51.09,-184 51.09,-165 130.09,-165 130.09,-184"/>
<text text-anchor="middle" x="90.59" y="-172" font-family="Helvetica,sans-Serif" font-size="10.00">periph_wifi.h</text>
</a>
</g>
</g>
<!-- Node1&#45;&gt;Node8 -->
<g id="edge59_Node000001_Node000008" class="edge">
<title>Node1&#45;&gt;Node8</title>
<g id="a_edge59_Node000001_Node000008"><a xlink:title=" ">
<path fill="none" stroke="#63b8ff" d="M2056.08,-282.85C1719.79,-279.63 291.47,-264.48 200.59,-239 165.67,-229.21 130.21,-205.78 109.32,-190.28"/>
<polygon fill="#63b8ff" stroke="#63b8ff" points="111.38,-187.46 101.3,-184.19 107.15,-193.03 111.38,-187.46"/>
</a>
</g>
</g>
<!-- Node9 -->
<g id="Node000009" class="node">
<title>Node9</title>
<g id="a_Node000009"><a xlink:title=" ">
<polygon fill="#e0e0e0" stroke="#999999" points="248.59,-184 148.59,-184 148.59,-165 248.59,-165 248.59,-184"/>
<text text-anchor="middle" x="198.59" y="-172" font-family="Helvetica,sans-Serif" font-size="10.00">esp_http_client.h</text>
</a>
</g>
</g>
<!-- Node1&#45;&gt;Node9 -->
<g id="edge60_Node000001_Node000009" class="edge">
<title>Node1&#45;&gt;Node9</title>
<g id="a_edge60_Node000001_Node000009"><a xlink:title=" ">
<path fill="none" stroke="#63b8ff" d="M2055.91,-282.98C1714.92,-280.35 254.83,-267.41 217.59,-239 204.03,-228.66 199.81,-209 198.65,-194.29"/>
<polygon fill="#63b8ff" stroke="#63b8ff" points="202.15,-194.09 198.26,-184.24 195.15,-194.36 202.15,-194.09"/>
</a>
</g>
</g>
<!-- Node10 -->
<g id="Node000010" class="node">
<title>Node10</title>
<g id="a_Node000010"><a xlink:title=" ">
<polygon fill="#e0e0e0" stroke="#999999" points="623.09,-184 562.09,-184 562.09,-165 623.09,-165 623.09,-184"/>
<text text-anchor="middle" x="592.59" y="-172" font-family="Helvetica,sans-Serif" font-size="10.00">esp_err.h</text>
</a>
</g>
</g>
<!-- Node1&#45;&gt;Node10 -->
<g id="edge36_Node000001_Node000010" class="edge">
<title>Node1&#45;&gt;Node10</title>
<g id="a_edge36_Node000001_Node000010"><a xlink:title=" ">
<path fill="none" stroke="#63b8ff" d="M2055.85,-282.65C1792.77,-279.27 879.44,-265.74 751.59,-239 702.24,-228.68 648.47,-204.15 617.82,-188.78"/>
<polygon fill="#63b8ff" stroke="#63b8ff" points="619.21,-185.56 608.71,-184.14 616.03,-191.8 619.21,-185.56"/>
</a>
</g>
</g>
<!-- Node11 -->
<g id="Node000011" class="node">
<title>Node11</title>
<g id="a_Node000011"><a xlink:href="sevetest30___u_i_8h.html" target="_top" xlink:title=" ">
<polygon fill="white" stroke="#666666" points="911.09,-239 816.09,-239 816.09,-220 911.09,-220 911.09,-239"/>
<text text-anchor="middle" x="863.59" y="-227" font-family="Helvetica,sans-Serif" font-size="10.00">sevetest30_UI.h</text>
</a>
</g>
</g>
<!-- Node1&#45;&gt;Node11 -->
<g id="edge11_Node000001_Node000011" class="edge">
<title>Node1&#45;&gt;Node11</title>
<g id="a_edge11_Node000001_Node000011"><a xlink:title=" ">
<path fill="none" stroke="#63b8ff" d="M2055.98,-280.54C1830.05,-271.06 1127.6,-241.58 921.19,-232.92"/>
<polygon fill="#63b8ff" stroke="#63b8ff" points="921.3,-229.42 911.16,-232.5 921,-236.41 921.3,-229.42"/>
</a>
</g>
</g>
<!-- Node12 -->
<g id="Node000012" class="node">
<title>Node12</title>
<g id="a_Node000012"><a xlink:title=" ">
<polygon fill="#e0e0e0" stroke="#999999" points="1019.09,-19 966.09,-19 966.09,0 1019.09,0 1019.09,-19"/>
<text text-anchor="middle" x="992.59" y="-7" font-family="Helvetica,sans-Serif" font-size="10.00">string.h</text>
</a>
</g>
</g>
<!-- Node1&#45;&gt;Node12 -->
<g id="edge49_Node000001_Node000012" class="edge">
<title>Node1&#45;&gt;Node12</title>
<g id="a_edge49_Node000001_Node000012"><a xlink:title=" ">
<path fill="none" stroke="#63b8ff" d="M2055.81,-282.97C1882.08,-281.14 1444.63,-273.15 1388.59,-239 1355.92,-219.09 1373.26,-190.34 1344.59,-165 1248.53,-80.06 1098.38,-35.59 1029.45,-18.69"/>
<polygon fill="#63b8ff" stroke="#63b8ff" points="1030.03,-15.23 1019.49,-16.3 1028.4,-22.04 1030.03,-15.23"/>
</a>
</g>
</g>
<!-- Node14 -->
<g id="Node000014" class="node">
<title>Node14</title>
<g id="a_Node000014"><a xlink:href="board__ctrl_8h.html" target="_top" xlink:title=" ">
<polygon fill="white" stroke="#666666" points="715.59,-184 641.59,-184 641.59,-165 715.59,-165 715.59,-184"/>
<text text-anchor="middle" x="678.59" y="-172" font-family="Helvetica,sans-Serif" font-size="10.00">board_ctrl.h</text>
</a>
</g>
</g>
<!-- Node1&#45;&gt;Node14 -->
<g id="edge37_Node000001_Node000014" class="edge">
<title>Node1&#45;&gt;Node14</title>
<g id="a_edge37_Node000001_Node000014"><a xlink:title=" ">
<path fill="none" stroke="#63b8ff" d="M2055.98,-282.87C1799.78,-280.34 927.76,-269.57 806.59,-239 766.5,-228.88 724.34,-205.02 699.81,-189.6"/>
<polygon fill="#63b8ff" stroke="#63b8ff" points="701.62,-186.6 691.32,-184.15 697.85,-192.49 701.62,-186.6"/>
</a>
</g>
</g>
<!-- Node24 -->
<g id="Node000024" class="node">
<title>Node24</title>
<g id="a_Node000024"><a xlink:title=" ">
<polygon fill="#e0e0e0" stroke="#999999" points="1143.09,-129 1040.09,-129 1040.09,-110 1143.09,-110 1143.09,-129"/>
<text text-anchor="middle" x="1091.59" y="-117" font-family="Helvetica,sans-Serif" font-size="10.00">esp_peripherals.h</text>
</a>
</g>
</g>
<!-- Node1&#45;&gt;Node24 -->
<g id="edge58_Node000001_Node000024" class="edge">
<title>Node1&#45;&gt;Node24</title>
<g id="a_edge58_Node000001_Node000024"><a xlink:title=" ">
<path fill="none" stroke="#63b8ff" d="M2055.97,-283.63C1876.29,-283.39 1411.92,-278.86 1355.59,-239 1326.49,-218.4 1352.29,-187.46 1324.59,-165 1298.85,-144.13 1213.39,-131.91 1153.47,-125.72"/>
<polygon fill="#63b8ff" stroke="#63b8ff" points="1153.64,-122.22 1143.34,-124.7 1152.94,-129.18 1153.64,-122.22"/>
</a>
</g>
</g>
<!-- Node26 -->
<g id="Node000026" class="node">
<title>Node26</title>
<g id="a_Node000026"><a xlink:title=" ">
<polygon fill="#e0e0e0" stroke="#999999" points="1481.59,-239 1397.59,-239 1397.59,-220 1481.59,-220 1481.59,-239"/>
<text text-anchor="middle" x="1439.59" y="-227" font-family="Helvetica,sans-Serif" font-size="10.00">esp_system.h</text>
</a>
</g>
</g>
<!-- Node1&#45;&gt;Node26 -->
<g id="edge34_Node000001_Node000026" class="edge">
<title>Node1&#45;&gt;Node26</title>
<g id="a_edge34_Node000001_Node000026"><a xlink:title=" ">
<path fill="none" stroke="#63b8ff" d="M2055.92,-280.67C1940.3,-275.58 1703.32,-263.19 1491.88,-238.9"/>
<polygon fill="#63b8ff" stroke="#63b8ff" points="1492.17,-235.41 1481.83,-237.74 1491.36,-242.37 1492.17,-235.41"/>
</a>
</g>
</g>
<!-- Node27 -->
<g id="Node000027" class="node">
<title>Node27</title>
<g id="a_Node000027"><a xlink:title=" ">
<polygon fill="#e0e0e0" stroke="#999999" points="1563.09,-239 1500.09,-239 1500.09,-220 1563.09,-220 1563.09,-239"/>
<text text-anchor="middle" x="1531.59" y="-227" font-family="Helvetica,sans-Serif" font-size="10.00">esp_log.h</text>
</a>
</g>
</g>
<!-- Node1&#45;&gt;Node27 -->
<g id="edge35_Node000001_Node000027" class="edge">
<title>Node1&#45;&gt;Node27</title>
<g id="a_edge35_Node000001_Node000027"><a xlink:title=" ">
<path fill="none" stroke="#63b8ff" d="M2055.88,-280.64C1952.23,-275.81 1752.81,-264.17 1573.46,-238.93"/>
<polygon fill="#63b8ff" stroke="#63b8ff" points="1573.7,-235.43 1563.31,-237.48 1572.72,-242.36 1573.7,-235.43"/>
</a>
</g>
</g>
<!-- Node28 -->
<g id="Node000028" class="node">
<title>Node28</title>
<g id="a_Node000028"><a xlink:href="sdkconfig_8h.html" target="_top" xlink:title=" ">
<polygon fill="white" stroke="#666666" points="1653.59,-239 1581.59,-239 1581.59,-220 1653.59,-220 1653.59,-239"/>
<text text-anchor="middle" x="1617.59" y="-227" font-family="Helvetica,sans-Serif" font-size="10.00">sdkconfig.h</text>
</a>
</g>
</g>
<!-- Node1&#45;&gt;Node28 -->
<g id="edge38_Node000001_Node000028" class="edge">
<title>Node1&#45;&gt;Node28</title>
<g id="a_edge38_Node000001_Node000028"><a xlink:title=" ">
<path fill="none" stroke="#63b8ff" d="M2056,-278.74C1966.89,-272.28 1808.71,-259.32 1663.86,-239.06"/>
<polygon fill="#63b8ff" stroke="#63b8ff" points="1664.29,-235.59 1653.9,-237.65 1663.31,-242.52 1664.29,-235.59"/>
</a>
</g>
</g>
<!-- Node29 -->
<g id="Node000029" class="node">
<title>Node29</title>
<g id="a_Node000029"><a xlink:title=" ">
<polygon fill="#e0e0e0" stroke="#999999" points="1769.59,-239 1671.59,-239 1671.59,-220 1769.59,-220 1769.59,-239"/>
<text text-anchor="middle" x="1720.59" y="-227" font-family="Helvetica,sans-Serif" font-size="10.00">audio_element.h</text>
</a>
</g>
</g>
<!-- Node1&#45;&gt;Node29 -->
<g id="edge39_Node000001_Node000029" class="edge">
<title>Node1&#45;&gt;Node29</title>
<g id="a_edge39_Node000001_Node000029"><a xlink:title=" ">
<path fill="none" stroke="#63b8ff" d="M2057.75,-274.99C1989.9,-266.53 1882.97,-253.01 1779.81,-239.01"/>
<polygon fill="#63b8ff" stroke="#63b8ff" points="1780.22,-235.53 1769.84,-237.65 1779.28,-242.47 1780.22,-235.53"/>
</a>
</g>
</g>
<!-- Node30 -->
<g id="Node000030" class="node">
<title>Node30</title>
<g id="a_Node000030"><a xlink:title=" ">
<polygon fill="#e0e0e0" stroke="#999999" points="1885.09,-239 1788.09,-239 1788.09,-220 1885.09,-220 1885.09,-239"/>
<text text-anchor="middle" x="1836.59" y="-227" font-family="Helvetica,sans-Serif" font-size="10.00">audio_pipeline.h</text>
</a>
</g>
</g>
<!-- Node1&#45;&gt;Node30 -->
<g id="edge40_Node000001_Node000030" class="edge">
<title>Node1&#45;&gt;Node30</title>
<g id="a_edge40_Node000001_Node000030"><a xlink:title=" ">
<path fill="none" stroke="#63b8ff" d="M2080,-274.98C2029.2,-265.7 1947.9,-250.84 1893.4,-240.88"/>
<polygon fill="#63b8ff" stroke="#63b8ff" points="1894.02,-237.44 1883.55,-239.08 1892.76,-244.32 1894.02,-237.44"/>
</a>
</g>
</g>
<!-- Node31 -->
<g id="Node000031" class="node">
<title>Node31</title>
<g id="a_Node000031"><a xlink:title=" ">
<polygon fill="#e0e0e0" stroke="#999999" points="2004.09,-239 1903.09,-239 1903.09,-220 2004.09,-220 2004.09,-239"/>
<text text-anchor="middle" x="1953.59" y="-227" font-family="Helvetica,sans-Serif" font-size="10.00">audio_common.h</text>
</a>
</g>
</g>
<!-- Node1&#45;&gt;Node31 -->
<g id="edge42_Node000001_Node000031" class="edge">
<title>Node1&#45;&gt;Node31</title>
<g id="a_edge42_Node000001_Node000031"><a xlink:title=" ">
<path fill="none" stroke="#63b8ff" d="M2098.8,-274.98C2069.63,-266.05 2023.59,-251.94 1991.19,-242.02"/>
<polygon fill="#63b8ff" stroke="#63b8ff" points="1992.19,-238.66 1981.61,-239.08 1990.14,-245.36 1992.19,-238.66"/>
</a>
</g>
</g>
<!-- Node32 -->
<g id="Node000032" class="node">
<title>Node32</title>
<g id="a_Node000032"><a xlink:title=" ">
<polygon fill="#e0e0e0" stroke="#999999" points="2114.59,-239 2022.59,-239 2022.59,-220 2114.59,-220 2114.59,-239"/>
<text text-anchor="middle" x="2068.59" y="-227" font-family="Helvetica,sans-Serif" font-size="10.00">esp_wn_iface.h</text>
</a>
</g>
</g>
<!-- Node1&#45;&gt;Node32 -->
<g id="edge43_Node000001_Node000032" class="edge">
<title>Node1&#45;&gt;Node32</title>
<g id="a_edge43_Node000001_Node000032"><a xlink:title=" ">
<path fill="none" stroke="#63b8ff" d="M2117.27,-274.98C2108.78,-267.23 2096.03,-255.58 2085.71,-246.14"/>
<polygon fill="#63b8ff" stroke="#63b8ff" points="2087.82,-243.33 2078.08,-239.17 2083.1,-248.5 2087.82,-243.33"/>
</a>
</g>
</g>
<!-- Node33 -->
<g id="Node000033" class="node">
<title>Node33</title>
<g id="a_Node000033"><a xlink:title=" ">
<polygon fill="#e0e0e0" stroke="#999999" points="2236.59,-239 2132.59,-239 2132.59,-220 2236.59,-220 2236.59,-239"/>
<text text-anchor="middle" x="2184.59" y="-227" font-family="Helvetica,sans-Serif" font-size="10.00">esp_wn_models.h</text>
</a>
</g>
</g>
<!-- Node1&#45;&gt;Node33 -->
<g id="edge44_Node000001_Node000033" class="edge">
<title>Node1&#45;&gt;Node33</title>
<g id="a_edge44_Node000001_Node000033"><a xlink:title=" ">
<path fill="none" stroke="#63b8ff" d="M2135.91,-274.98C2144.4,-267.23 2157.15,-255.58 2167.48,-246.14"/>
<polygon fill="#63b8ff" stroke="#63b8ff" points="2170.08,-248.5 2175.11,-239.17 2165.36,-243.33 2170.08,-248.5"/>
</a>
</g>
</g>
<!-- Node34 -->
<g id="Node000034" class="node">
<title>Node34</title>
<g id="a_Node000034"><a xlink:title=" ">
<polygon fill="#e0e0e0" stroke="#999999" points="2374.09,-239 2255.09,-239 2255.09,-220 2374.09,-220 2374.09,-239"/>
<text text-anchor="middle" x="2314.59" y="-227" font-family="Helvetica,sans-Serif" font-size="10.00">esp_afe_sr_models.h</text>
</a>
</g>
</g>
<!-- Node1&#45;&gt;Node34 -->
<g id="edge45_Node000001_Node000034" class="edge">
<title>Node1&#45;&gt;Node34</title>
<g id="a_edge45_Node000001_Node000034"><a xlink:title=" ">
<path fill="none" stroke="#63b8ff" d="M2156.8,-274.98C2188.64,-266.01 2238.96,-251.82 2274.19,-241.89"/>
<polygon fill="#63b8ff" stroke="#63b8ff" points="2275.48,-245.16 2284.15,-239.08 2273.58,-238.43 2275.48,-245.16"/>
</a>
</g>
</g>
<!-- Node35 -->
<g id="Node000035" class="node">
<title>Node35</title>
<g id="a_Node000035"><a xlink:title=" ">
<polygon fill="#e0e0e0" stroke="#999999" points="2485.09,-239 2392.09,-239 2392.09,-220 2485.09,-220 2485.09,-239"/>
<text text-anchor="middle" x="2438.59" y="-227" font-family="Helvetica,sans-Serif" font-size="10.00">esp_mn_iface.h</text>
</a>
</g>
</g>
<!-- Node1&#45;&gt;Node35 -->
<g id="edge46_Node000001_Node000035" class="edge">
<title>Node1&#45;&gt;Node35</title>
<g id="a_edge46_Node000001_Node000035"><a xlink:title=" ">
<path fill="none" stroke="#63b8ff" d="M2176.72,-274.98C2232.7,-265.48 2323.12,-250.12 2381.71,-240.16"/>
<polygon fill="#63b8ff" stroke="#63b8ff" points="2382.63,-243.56 2391.9,-238.43 2381.46,-236.66 2382.63,-243.56"/>
</a>
</g>
</g>
<!-- Node36 -->
<g id="Node000036" class="node">
<title>Node36</title>
<g id="a_Node000036"><a xlink:title=" ">
<polygon fill="#e0e0e0" stroke="#999999" points="2608.09,-239 2503.09,-239 2503.09,-220 2608.09,-220 2608.09,-239"/>
<text text-anchor="middle" x="2555.59" y="-227" font-family="Helvetica,sans-Serif" font-size="10.00">esp_mn_models.h</text>
</a>
</g>
</g>
<!-- Node1&#45;&gt;Node36 -->
<g id="edge47_Node000001_Node000036" class="edge">
<title>Node1&#45;&gt;Node36</title>
<g id="a_edge47_Node000001_Node000036"><a xlink:title=" ">
<path fill="none" stroke="#63b8ff" d="M2197.19,-275.35C2269.06,-266.96 2383.99,-253.31 2492.85,-239.21"/>
<polygon fill="#63b8ff" stroke="#63b8ff" points="2493.56,-242.65 2503.03,-237.89 2492.66,-235.7 2493.56,-242.65"/>
</a>
</g>
</g>
<!-- Node37 -->
<g id="Node000037" class="node">
<title>Node37</title>
<g id="a_Node000037"><a xlink:title=" ">
<polygon fill="#e0e0e0" stroke="#999999" points="2709.09,-239 2626.09,-239 2626.09,-220 2709.09,-220 2709.09,-239"/>
<text text-anchor="middle" x="2667.59" y="-227" font-family="Helvetica,sans-Serif" font-size="10.00">model_path.h</text>
</a>
</g>
</g>
<!-- Node1&#45;&gt;Node37 -->
<g id="edge48_Node000001_Node000037" class="edge">
<title>Node1&#45;&gt;Node37</title>
<g id="a_edge48_Node000001_Node000037"><a xlink:title=" ">
<path fill="none" stroke="#63b8ff" d="M2197.12,-278.84C2290.6,-272.29 2460.91,-259 2615.71,-239.16"/>
<polygon fill="#63b8ff" stroke="#63b8ff" points="2616.42,-242.59 2625.89,-237.84 2615.52,-235.65 2616.42,-242.59"/>
</a>
</g>
</g>
<!-- Node38 -->
<g id="Node000038" class="node">
<title>Node38</title>
<g id="a_Node000038"><a xlink:title=" ">
<polygon fill="#e0e0e0" stroke="#999999" points="2812.09,-239 2727.09,-239 2727.09,-220 2812.09,-220 2812.09,-239"/>
<text text-anchor="middle" x="2769.59" y="-227" font-family="Helvetica,sans-Serif" font-size="10.00">http_stream.h</text>
</a>
</g>
</g>
<!-- Node1&#45;&gt;Node38 -->
<g id="edge50_Node000001_Node000038" class="edge">
<title>Node1&#45;&gt;Node38</title>
<g id="a_edge50_Node000001_Node000038"><a xlink:title=" ">
<path fill="none" stroke="#63b8ff" d="M2197.42,-280.24C2306.78,-274.76 2523.51,-262.07 2716.99,-239.09"/>
<polygon fill="#63b8ff" stroke="#63b8ff" points="2717.55,-242.55 2727.06,-237.88 2716.71,-235.6 2717.55,-242.55"/>
</a>
</g>
</g>
<!-- Node39 -->
<g id="Node000039" class="node">
<title>Node39</title>
<g id="a_Node000039"><a xlink:title=" ">
<polygon fill="#e0e0e0" stroke="#999999" points="2910.59,-239 2830.59,-239 2830.59,-220 2910.59,-220 2910.59,-239"/>
<text text-anchor="middle" x="2870.59" y="-227" font-family="Helvetica,sans-Serif" font-size="10.00">i2s_stream.h</text>
</a>
</g>
</g>
<!-- Node1&#45;&gt;Node39 -->
<g id="edge51_Node000001_Node000039" class="edge">
<title>Node1&#45;&gt;Node39</title>
<g id="a_edge51_Node000001_Node000039"><a xlink:title=" ">
<path fill="none" stroke="#63b8ff" d="M2197.36,-281.49C2321.5,-277.41 2586.72,-266.23 2820.48,-238.99"/>
<polygon fill="#63b8ff" stroke="#63b8ff" points="2821.01,-242.46 2830.53,-237.81 2820.19,-235.5 2821.01,-242.46"/>
</a>
</g>
</g>
<!-- Node40 -->
<g id="Node000040" class="node">
<title>Node40</title>
<g id="a_Node000040"><a xlink:title=" ">
<polygon fill="#e0e0e0" stroke="#999999" points="3020.09,-239 2929.09,-239 2929.09,-220 3020.09,-220 3020.09,-239"/>
<text text-anchor="middle" x="2974.59" y="-227" font-family="Helvetica,sans-Serif" font-size="10.00">mp3_decoder.h</text>
</a>
</g>
</g>
<!-- Node1&#45;&gt;Node40 -->
<g id="edge52_Node000001_Node000040" class="edge">
<title>Node1&#45;&gt;Node40</title>
<g id="a_edge52_Node000001_Node000040"><a xlink:title=" ">
<path fill="none" stroke="#63b8ff" d="M2197.33,-281.84C2334.45,-278.11 2646.16,-267.19 2918.93,-238.95"/>
<polygon fill="#63b8ff" stroke="#63b8ff" points="2919.44,-242.41 2929.02,-237.89 2918.71,-235.45 2919.44,-242.41"/>
</a>
</g>
</g>
<!-- Node41 -->
<g id="Node000041" class="node">
<title>Node41</title>
<g id="a_Node000041"><a xlink:title=" ">
<polygon fill="#e0e0e0" stroke="#999999" points="3121.09,-239 3038.09,-239 3038.09,-220 3121.09,-220 3121.09,-239"/>
<text text-anchor="middle" x="3079.59" y="-227" font-family="Helvetica,sans-Serif" font-size="10.00">raw_stream.h</text>
</a>
</g>
</g>
<!-- Node1&#45;&gt;Node41 -->
<g id="edge53_Node000001_Node000041" class="edge">
<title>Node1&#45;&gt;Node41</title>
<g id="a_edge53_Node000001_Node000041"><a xlink:title=" ">
<path fill="none" stroke="#63b8ff" d="M2197.36,-282.88C2348.25,-280.92 2712.9,-272.9 3027.67,-239.08"/>
<polygon fill="#63b8ff" stroke="#63b8ff" points="3028.34,-242.53 3037.9,-237.97 3027.58,-235.57 3028.34,-242.53"/>
</a>
</g>
</g>
<!-- Node42 -->
<g id="Node000042" class="node">
<title>Node42</title>
<g id="a_Node000042"><a xlink:title=" ">
<polygon fill="#e0e0e0" stroke="#999999" points="3238.09,-239 3139.09,-239 3139.09,-220 3238.09,-220 3238.09,-239"/>
<text text-anchor="middle" x="3188.59" y="-227" font-family="Helvetica,sans-Serif" font-size="10.00">filter_resample.h</text>
</a>
</g>
</g>
<!-- Node1&#45;&gt;Node42 -->
<g id="edge54_Node000001_Node000042" class="edge">
<title>Node1&#45;&gt;Node42</title>
<g id="a_edge54_Node000001_Node000042"><a xlink:title=" ">
<path fill="none" stroke="#63b8ff" d="M2197.36,-282.82C2360.12,-280.73 2773.71,-272.39 3128.99,-239.05"/>
<polygon fill="#63b8ff" stroke="#63b8ff" points="3129.33,-242.54 3138.96,-238.11 3128.67,-235.57 3129.33,-242.54"/>
</a>
</g>
</g>
<!-- Node43 -->
<g id="Node000043" class="node">
<title>Node43</title>
<g id="a_Node000043"><a xlink:title=" ">
<polygon fill="#e0e0e0" stroke="#999999" points="3309.09,-239 3256.09,-239 3256.09,-220 3309.09,-220 3309.09,-239"/>
<text text-anchor="middle" x="3282.59" y="-227" font-family="Helvetica,sans-Serif" font-size="10.00">board.h</text>
</a>
</g>
</g>
<!-- Node1&#45;&gt;Node43 -->
<g id="edge55_Node000001_Node000043" class="edge">
<title>Node1&#45;&gt;Node43</title>
<g id="a_edge55_Node000001_Node000043"><a xlink:title=" ">
<path fill="none" stroke="#63b8ff" d="M2197.19,-282.53C2406.81,-279.37 3024.29,-267.92 3246.01,-238.9"/>
<polygon fill="#63b8ff" stroke="#63b8ff" points="3246.51,-242.36 3255.95,-237.55 3245.57,-235.43 3246.51,-242.36"/>
</a>
</g>
</g>
<!-- Node44 -->
<g id="Node000044" class="node">
<title>Node44</title>
<g id="a_Node000044"><a xlink:title=" ">
<polygon fill="#e0e0e0" stroke="#999999" points="3410.09,-239 3327.09,-239 3327.09,-220 3410.09,-220 3410.09,-239"/>
<text text-anchor="middle" x="3368.59" y="-227" font-family="Helvetica,sans-Serif" font-size="10.00">audio_mem.h</text>
</a>
</g>
</g>
<!-- Node1&#45;&gt;Node44 -->
<g id="edge56_Node000001_Node000044" class="edge">
<title>Node1&#45;&gt;Node44</title>
<g id="a_edge56_Node000001_Node000044"><a xlink:title=" ">
<path fill="none" stroke="#63b8ff" d="M2197.35,-284.09C2380.79,-284.91 2886.77,-282.78 3316.76,-239.05"/>
<polygon fill="#63b8ff" stroke="#63b8ff" points="3317.32,-242.51 3326.91,-238.01 3316.6,-235.55 3317.32,-242.51"/>
</a>
</g>
</g>
<!-- Node45 -->
<g id="Node000045" class="node">
<title>Node45</title>
<g id="a_Node000045"><a xlink:title=" ">
<polygon fill="#e0e0e0" stroke="#999999" points="3494.59,-239 3428.59,-239 3428.59,-220 3494.59,-220 3494.59,-239"/>
<text text-anchor="middle" x="3461.59" y="-227" font-family="Helvetica,sans-Serif" font-size="10.00">esp_vad.h</text>
</a>
</g>
</g>
<!-- Node1&#45;&gt;Node45 -->
<g id="edge57_Node000001_Node000045" class="edge">
<title>Node1&#45;&gt;Node45</title>
<g id="a_edge57_Node000001_Node000045"><a xlink:title=" ">
<path fill="none" stroke="#63b8ff" d="M2197.42,-282.61C2428.56,-279.45 3160.29,-267.5 3418.13,-238.93"/>
<polygon fill="#63b8ff" stroke="#63b8ff" points="3418.67,-242.39 3428.2,-237.78 3417.87,-235.44 3418.67,-242.39"/>
</a>
</g>
</g>
<!-- Node46 -->
<g id="Node000046" class="node">
<title>Node46</title>
<g id="a_Node000046"><a xlink:title=" ">
<polygon fill="#e0e0e0" stroke="#999999" points="3636.09,-239 3513.09,-239 3513.09,-220 3636.09,-220 3636.09,-239"/>
<text text-anchor="middle" x="3574.59" y="-227" font-family="Helvetica,sans-Serif" font-size="10.00">baidu_access_token.h</text>
</a>
</g>
</g>
<!-- Node1&#45;&gt;Node46 -->
<g id="edge61_Node000001_Node000046" class="edge">
<title>Node1&#45;&gt;Node46</title>
<g id="a_edge61_Node000001_Node000046"><a xlink:title=" ">
<path fill="none" stroke="#63b8ff" d="M2197.29,-283.38C2399.26,-282.57 2996.29,-276.96 3502.98,-238.96"/>
<polygon fill="#63b8ff" stroke="#63b8ff" points="3503.34,-242.44 3513.05,-238.2 3502.82,-235.46 3503.34,-242.44"/>
</a>
</g>
</g>
<!-- Node47 -->
<g id="Node000047" class="node">
<title>Node47</title>
<g id="a_Node000047"><a xlink:title=" ">
<polygon fill="#e0e0e0" stroke="#999999" points="3730.59,-239 3654.59,-239 3654.59,-220 3730.59,-220 3730.59,-239"/>
<text text-anchor="middle" x="3692.59" y="-227" font-family="Helvetica,sans-Serif" font-size="10.00">base64_re.h</text>
</a>
</g>
</g>
<!-- Node1&#45;&gt;Node47 -->
<g id="edge62_Node000001_Node000047" class="edge">
<title>Node1&#45;&gt;Node47</title>
<g id="a_edge62_Node000001_Node000047"><a xlink:title=" ">
<path fill="none" stroke="#63b8ff" d="M2197.26,-282.83C2454.18,-280.2 3339.07,-269.17 3644.27,-238.93"/>
<polygon fill="#63b8ff" stroke="#63b8ff" points="3644.85,-242.39 3654.44,-237.89 3644.14,-235.43 3644.85,-242.39"/>
</a>
</g>
</g>
<!-- Node48 -->
<g id="Node000048" class="node">
<title>Node48</title>
<g id="a_Node000048"><a xlink:title=" ">
<polygon fill="#e0e0e0" stroke="#999999" points="3860.59,-239 3748.59,-239 3748.59,-220 3860.59,-220 3860.59,-239"/>
<text text-anchor="middle" x="3804.59" y="-227" font-family="Helvetica,sans-Serif" font-size="10.00">audio_idf_version.h</text>
</a>
</g>
</g>
<!-- Node1&#45;&gt;Node48 -->
<g id="edge63_Node000001_Node000048" class="edge">
<title>Node1&#45;&gt;Node48</title>
<g id="a_edge63_Node000001_Node000048"><a xlink:title=" ">
<path fill="none" stroke="#63b8ff" d="M2197.38,-282.51C2464.56,-278.64 3412.6,-263.52 3737.89,-239.03"/>
<polygon fill="#63b8ff" stroke="#63b8ff" points="3738.56,-242.49 3748.26,-238.23 3738.02,-235.51 3738.56,-242.49"/>
</a>
</g>
</g>
<!-- Node49 -->
<g id="Node000049" class="node">
<title>Node49</title>
<g id="a_Node000049"><a xlink:title=" ">
<polygon fill="#e0e0e0" stroke="#999999" points="3948.59,-239 3878.59,-239 3878.59,-220 3948.59,-220 3948.59,-239"/>
<text text-anchor="middle" x="3913.59" y="-227" font-family="Helvetica,sans-Serif" font-size="10.00">esp_netif.h</text>
</a>
</g>
</g>
<!-- Node1&#45;&gt;Node49 -->
<g id="edge64_Node000001_Node000049" class="edge">
<title>Node1&#45;&gt;Node49</title>
<g id="a_edge64_Node000001_Node000049"><a xlink:title=" ">
<path fill="none" stroke="#63b8ff" d="M2197.26,-283.26C2478.11,-282.04 3516.69,-275.23 3867.94,-238.95"/>
<polygon fill="#63b8ff" stroke="#63b8ff" points="3868.55,-242.41 3878.13,-237.87 3867.81,-235.45 3868.55,-242.41"/>
</a>
</g>
</g>
<!-- Node3 -->
<g id="Node000003" class="node">
<title>Node3</title>
<g id="a_Node000003"><a xlink:title=" ">
<polygon fill="#e0e0e0" stroke="#999999" points="883.59,-19 821.59,-19 821.59,0 883.59,0 883.59,-19"/>
<text text-anchor="middle" x="852.59" y="-7" font-family="Helvetica,sans-Serif" font-size="10.00">stdbool.h</text>
</a>
</g>
</g>
<!-- Node2&#45;&gt;Node3 -->
<g id="edge2_Node000002_Node000003" class="edge">
<title>Node2&#45;&gt;Node3</title>
<g id="a_edge2_Node000002_Node000003"><a xlink:title=" ">
<path fill="none" stroke="#63b8ff" d="M1172.97,-219.83C1175.85,-198.4 1180.13,-142.38 1152.59,-110 1118.56,-69.98 967.58,-34.16 893.65,-18.65"/>
<polygon fill="#63b8ff" stroke="#63b8ff" points="894.26,-15.2 883.76,-16.59 892.84,-22.05 894.26,-15.2"/>
</a>
</g>
</g>
<!-- Node4 -->
<g id="Node000004" class="node">
<title>Node4</title>
<g id="a_Node000004"><a xlink:title=" ">
<polygon fill="#e0e0e0" stroke="#999999" points="1037.09,-184 924.09,-184 924.09,-165 1037.09,-165 1037.09,-184"/>
<text text-anchor="middle" x="980.59" y="-172" font-family="Helvetica,sans-Serif" font-size="10.00">freertos/FreeRTOS.h</text>
</a>
</g>
</g>
<!-- Node2&#45;&gt;Node4 -->
<g id="edge3_Node000002_Node000004" class="edge">
<title>Node2&#45;&gt;Node4</title>
<g id="a_edge3_Node000002_Node000004"><a xlink:title=" ">
<path fill="none" stroke="#63b8ff" d="M1140.91,-219.98C1108.42,-210.97 1057,-196.7 1021.18,-186.76"/>
<polygon fill="#63b8ff" stroke="#63b8ff" points="1022.09,-183.38 1011.52,-184.08 1020.22,-190.13 1022.09,-183.38"/>
</a>
</g>
</g>
<!-- Node5 -->
<g id="Node000005" class="node">
<title>Node5</title>
<g id="a_Node000005"><a xlink:title=" ">
<polygon fill="#e0e0e0" stroke="#999999" points="1143.59,-184 1055.59,-184 1055.59,-165 1143.59,-165 1143.59,-184"/>
<text text-anchor="middle" x="1099.59" y="-172" font-family="Helvetica,sans-Serif" font-size="10.00">freertos/task.h</text>
</a>
</g>
</g>
<!-- Node2&#45;&gt;Node5 -->
<g id="edge4_Node000002_Node000005" class="edge">
<title>Node2&#45;&gt;Node5</title>
<g id="a_edge4_Node000002_Node000005"><a xlink:title=" ">
<path fill="none" stroke="#63b8ff" d="M1160.03,-219.98C1149.17,-212 1132.71,-199.88 1119.71,-190.31"/>
<polygon fill="#63b8ff" stroke="#63b8ff" points="1121.5,-187.28 1111.37,-184.17 1117.35,-192.92 1121.5,-187.28"/>
</a>
</g>
</g>
<!-- Node2&#45;&gt;Node6 -->
<g id="edge5_Node000002_Node000006" class="edge">
<title>Node2&#45;&gt;Node6</title>
<g id="a_edge5_Node000002_Node000006"><a xlink:title=" ">
<path fill="none" stroke="#63b8ff" d="M1185.41,-219.98C1198.75,-211.77 1219.17,-199.18 1234.9,-189.49"/>
<polygon fill="#63b8ff" stroke="#63b8ff" points="1236.85,-192.4 1243.52,-184.17 1233.18,-186.44 1236.85,-192.4"/>
</a>
</g>
</g>
<!-- Node7&#45;&gt;Node3 -->
<g id="edge10_Node000007_Node000003" class="edge">
<title>Node7&#45;&gt;Node3</title>
<g id="a_edge10_Node000007_Node000003"><a xlink:title=" ">
<path fill="none" stroke="#63b8ff" d="M284.46,-219.9C282.12,-205.95 275.42,-178.59 257.59,-165 169.53,-97.87 -58.94,-192.79 14.59,-110 68.15,-49.71 649.4,-19.53 811.08,-12.26"/>
<polygon fill="#63b8ff" stroke="#63b8ff" points="811.28,-15.75 821.11,-11.81 810.97,-8.76 811.28,-15.75"/>
</a>
</g>
</g>
<!-- Node7&#45;&gt;Node8 -->
<g id="edge7_Node000007_Node000008" class="edge">
<title>Node7&#45;&gt;Node8</title>
<g id="a_edge7_Node000007_Node000008"><a xlink:title=" ">
<path fill="none" stroke="#63b8ff" d="M254.26,-219.98C221.1,-210.97 168.6,-196.7 132.03,-186.76"/>
<polygon fill="#63b8ff" stroke="#63b8ff" points="132.74,-183.33 122.17,-184.08 130.9,-190.08 132.74,-183.33"/>
</a>
</g>
</g>
<!-- Node7&#45;&gt;Node9 -->
<g id="edge8_Node000007_Node000009" class="edge">
<title>Node7&#45;&gt;Node9</title>
<g id="a_edge8_Node000007_Node000009"><a xlink:title=" ">
<path fill="none" stroke="#63b8ff" d="M271.62,-219.98C258.12,-211.77 237.46,-199.18 221.55,-189.49"/>
<polygon fill="#63b8ff" stroke="#63b8ff" points="223.19,-186.38 212.83,-184.17 219.55,-192.36 223.19,-186.38"/>
</a>
</g>
</g>
<!-- Node7&#45;&gt;Node10 -->
<g id="edge9_Node000007_Node000010" class="edge">
<title>Node7&#45;&gt;Node10</title>
<g id="a_edge9_Node000007_Node000010"><a xlink:title=" ">
<path fill="none" stroke="#63b8ff" d="M334.92,-219.98C395.23,-209.57 496.18,-192.14 552.14,-182.48"/>
<polygon fill="#63b8ff" stroke="#63b8ff" points="552.79,-185.92 562.05,-180.77 551.6,-179.03 552.79,-185.92"/>
</a>
</g>
</g>
<!-- Node11&#45;&gt;Node3 -->
<g id="edge13_Node000011_Node000003" class="edge">
<title>Node11&#45;&gt;Node3</title>
<g id="a_edge13_Node000011_Node000003"><a xlink:title=" ">
<path fill="none" stroke="#63b8ff" d="M834.46,-219.87C817.24,-213.1 796.86,-201.79 786.59,-184 770.55,-156.2 819.44,-66.61 841.92,-28.23"/>
<polygon fill="#63b8ff" stroke="#63b8ff" points="845.16,-29.63 847.25,-19.24 839.14,-26.06 845.16,-29.63"/>
</a>
</g>
</g>
<!-- Node11&#45;&gt;Node4 -->
<g id="edge15_Node000011_Node000004" class="edge">
<title>Node11&#45;&gt;Node4</title>
<g id="a_edge15_Node000011_Node000004"><a xlink:title=" ">
<path fill="none" stroke="#63b8ff" d="M882.39,-219.98C901.21,-211.46 930.42,-198.23 952.09,-188.41"/>
<polygon fill="#63b8ff" stroke="#63b8ff" points="953.79,-191.48 961.45,-184.17 950.9,-185.11 953.79,-191.48"/>
</a>
</g>
</g>
<!-- Node11&#45;&gt;Node5 -->
<g id="edge16_Node000011_Node000005" class="edge">
<title>Node11&#45;&gt;Node5</title>
<g id="a_edge16_Node000011_Node000005"><a xlink:title=" ">
<path fill="none" stroke="#63b8ff" d="M901.51,-219.98C942.25,-210.84 1007.09,-196.27 1051.42,-186.32"/>
<polygon fill="#63b8ff" stroke="#63b8ff" points="1052.39,-189.69 1061.38,-184.08 1050.85,-182.86 1052.39,-189.69"/>
</a>
</g>
</g>
<!-- Node11&#45;&gt;Node10 -->
<g id="edge14_Node000011_Node000010" class="edge">
<title>Node11&#45;&gt;Node10</title>
<g id="a_edge14_Node000011_Node000010"><a xlink:title=" ">
<path fill="none" stroke="#63b8ff" d="M817.96,-219.97C773.42,-211.59 703.48,-198.28 633.09,-184.07"/>
<polygon fill="#63b8ff" stroke="#63b8ff" points="633.65,-180.61 623.16,-182.06 632.26,-187.47 633.65,-180.61"/>
</a>
</g>
</g>
<!-- Node11&#45;&gt;Node12 -->
<g id="edge12_Node000011_Node000012" class="edge">
<title>Node11&#45;&gt;Node12</title>
<g id="a_edge12_Node000011_Node000012"><a xlink:title=" ">
<path fill="none" stroke="#63b8ff" d="M869.02,-219.86C877.53,-206.79 895.08,-181.78 914.59,-165 938.76,-144.23 955.95,-153.27 976.59,-129 998.74,-102.96 999.51,-89.13 997.59,-55 997.11,-46.45 996.12,-37.03 995.15,-29.06"/>
<polygon fill="#63b8ff" stroke="#63b8ff" points="998.6,-28.47 993.84,-19.01 991.66,-29.38 998.6,-28.47"/>
</a>
</g>
</g>
<!-- Node13 -->
<g id="Node000013" class="node">
<title>Node13</title>
<g id="a_Node000013"><a xlink:title=" ">
<polygon fill="#e0e0e0" stroke="#999999" points="867.09,-184 796.09,-184 796.09,-165 867.09,-165 867.09,-184"/>
<text text-anchor="middle" x="831.59" y="-172" font-family="Helvetica,sans-Serif" font-size="10.00">driver/i2s.h</text>
</a>
</g>
</g>
<!-- Node11&#45;&gt;Node13 -->
<g id="edge17_Node000011_Node000013" class="edge">
<title>Node11&#45;&gt;Node13</title>
<g id="a_edge17_Node000011_Node000013"><a xlink:title=" ">
<path fill="none" stroke="#63b8ff" d="M858.31,-219.75C853.88,-212.42 847.43,-201.73 841.98,-192.7"/>
<polygon fill="#63b8ff" stroke="#63b8ff" points="844.94,-190.84 836.78,-184.09 838.95,-194.46 844.94,-190.84"/>
</a>
</g>
</g>
<!-- Node11&#45;&gt;Node14 -->
<g id="edge18_Node000011_Node000014" class="edge">
<title>Node11&#45;&gt;Node14</title>
<g id="a_edge18_Node000011_Node000014"><a xlink:title=" ">
<path fill="none" stroke="#63b8ff" d="M833.87,-219.98C802.54,-211.01 753.02,-196.82 718.35,-186.89"/>
<polygon fill="#63b8ff" stroke="#63b8ff" points="719.13,-183.47 708.55,-184.08 717.2,-190.2 719.13,-183.47"/>
</a>
</g>
</g>
<!-- Node14&#45;&gt;Node12 -->
<g id="edge20_Node000014_Node000012" class="edge">
<title>Node14&#45;&gt;Node12</title>
<g id="a_edge20_Node000014_Node000012"><a xlink:title=" ">
<path fill="none" stroke="#63b8ff" d="M715.63,-169.69C786.68,-162.08 936.7,-144.39 954.59,-129 983.85,-103.85 990.78,-56.12 992.3,-29.56"/>
<polygon fill="#63b8ff" stroke="#63b8ff" points="995.8,-29.42 992.67,-19.3 988.81,-29.16 995.8,-29.42"/>
</a>
</g>
</g>
<!-- Node15 -->
<g id="Node000015" class="node">
<title>Node15</title>
<g id="a_Node000015"><a xlink:title=" ">
<polygon fill="#e0e0e0" stroke="#999999" points="577.09,-74 502.09,-74 502.09,-55 577.09,-55 577.09,-74"/>
<text text-anchor="middle" x="539.59" y="-62" font-family="Helvetica,sans-Serif" font-size="10.00">esp_types.h</text>
</a>
</g>
</g>
<!-- Node14&#45;&gt;Node15 -->
<g id="edge19_Node000014_Node000015" class="edge">
<title>Node14&#45;&gt;Node15</title>
<g id="a_edge19_Node000014_Node000015"><a xlink:title=" ">
<path fill="none" stroke="#63b8ff" d="M641.52,-164.94C599.38,-154.84 535.5,-138.25 528.59,-129 518.89,-116 523.71,-97.35 529.71,-83.62"/>
<polygon fill="#63b8ff" stroke="#63b8ff" points="533.04,-84.78 534.31,-74.26 526.76,-81.69 533.04,-84.78"/>
</a>
</g>
</g>
<!-- Node16 -->
<g id="Node000016" class="node">
<title>Node16</title>
<g id="a_Node000016"><a xlink:title=" ">
<polygon fill="#e0e0e0" stroke="#999999" points="691.59,-129 617.59,-129 617.59,-110 691.59,-110 691.59,-129"/>
<text text-anchor="middle" x="654.59" y="-117" font-family="Helvetica,sans-Serif" font-size="10.00">board_def.h</text>
</a>
</g>
</g>
<!-- Node14&#45;&gt;Node16 -->
<g id="edge21_Node000014_Node000016" class="edge">
<title>Node14&#45;&gt;Node16</title>
<g id="a_edge21_Node000014_Node000016"><a xlink:title=" ">
<path fill="none" stroke="#63b8ff" d="M674.63,-164.75C671.38,-157.57 666.67,-147.18 662.64,-138.27"/>
<polygon fill="#63b8ff" stroke="#63b8ff" points="665.8,-136.75 658.48,-129.09 659.42,-139.64 665.8,-136.75"/>
</a>
</g>
</g>
<!-- Node17 -->
<g id="Node000017" class="node">
<title>Node17</title>
<g id="a_Node000017"><a xlink:title=" ">
<polygon fill="#e0e0e0" stroke="#999999" points="783.09,-129 710.09,-129 710.09,-110 783.09,-110 783.09,-129"/>
<text text-anchor="middle" x="746.59" y="-117" font-family="Helvetica,sans-Serif" font-size="10.00">audio_hal.h</text>
</a>
</g>
</g>
<!-- Node14&#45;&gt;Node17 -->
<g id="edge22_Node000014_Node000017" class="edge">
<title>Node14&#45;&gt;Node17</title>
<g id="a_edge22_Node000014_Node000017"><a xlink:title=" ">
<path fill="none" stroke="#63b8ff" d="M689.52,-164.98C699.67,-157.07 715.02,-145.11 727.24,-135.58"/>
<polygon fill="#63b8ff" stroke="#63b8ff" points="729.73,-138.08 735.47,-129.17 725.43,-132.56 729.73,-138.08"/>
</a>
</g>
</g>
<!-- Node18 -->
<g id="Node000018" class="node">
<title>Node18</title>
<g id="a_Node000018"><a xlink:title=" ">
<polygon fill="#e0e0e0" stroke="#999999" points="127.09,-129 24.09,-129 24.09,-110 127.09,-110 127.09,-129"/>
<text text-anchor="middle" x="75.59" y="-117" font-family="Helvetica,sans-Serif" font-size="10.00">esxxx_common.h</text>
</a>
</g>
</g>
<!-- Node14&#45;&gt;Node18 -->
<g id="edge23_Node000014_Node000018" class="edge">
<title>Node14&#45;&gt;Node18</title>
<g id="a_edge23_Node000014_Node000018"><a xlink:title=" ">
<path fill="none" stroke="#63b8ff" d="M641.45,-166.41C638.12,-165.88 634.8,-165.41 631.59,-165 415.63,-137.71 357.12,-152.06 137.52,-129.13"/>
<polygon fill="#63b8ff" stroke="#63b8ff" points="137.59,-125.62 127.28,-128.05 136.85,-132.58 137.59,-125.62"/>
</a>
</g>
</g>
<!-- Node19 -->
<g id="Node000019" class="node">
<title>Node19</title>
<g id="a_Node000019"><a xlink:href="sevetest30__gpio_8h.html" target="_top" xlink:title=" ">
<polygon fill="white" stroke="#666666" points="945.59,-129 839.59,-129 839.59,-110 945.59,-110 945.59,-129"/>
<text text-anchor="middle" x="892.59" y="-117" font-family="Helvetica,sans-Serif" font-size="10.00">sevetest30_gpio.h</text>
</a>
</g>
</g>
<!-- Node14&#45;&gt;Node19 -->
<g id="edge24_Node000014_Node000019" class="edge">
<title>Node14&#45;&gt;Node19</title>
<g id="a_edge24_Node000014_Node000019"><a xlink:title=" ">
<path fill="none" stroke="#63b8ff" d="M712.98,-164.98C749.68,-155.89 807.98,-141.46 848.14,-131.51"/>
<polygon fill="#63b8ff" stroke="#63b8ff" points="849.08,-134.88 857.94,-129.08 847.39,-128.09 849.08,-134.88"/>
</a>
</g>
</g>
<!-- Node21 -->
<g id="Node000021" class="node">
<title>Node21</title>
<g id="a_Node000021"><a xlink:title=" ">
<polygon fill="#e0e0e0" stroke="#999999" points="216.09,-129 145.09,-129 145.09,-110 216.09,-110 216.09,-129"/>
<text text-anchor="middle" x="180.59" y="-117" font-family="Helvetica,sans-Serif" font-size="10.00">driver/i2c.h</text>
</a>
</g>
</g>
<!-- Node14&#45;&gt;Node21 -->
<g id="edge28_Node000014_Node000021" class="edge">
<title>Node14&#45;&gt;Node21</title>
<g id="a_edge28_Node000014_Node000021"><a xlink:title=" ">
<path fill="none" stroke="#63b8ff" d="M641.44,-166.46C638.12,-165.93 634.8,-165.43 631.59,-165 454.87,-141.25 406.17,-153.78 226.61,-129.16"/>
<polygon fill="#63b8ff" stroke="#63b8ff" points="226.95,-125.67 216.56,-127.76 225.98,-132.6 226.95,-125.67"/>
</a>
</g>
</g>
<!-- Node22 -->
<g id="Node000022" class="node">
<title>Node22</title>
<g id="a_Node000022"><a xlink:title=" ">
<polygon fill="#e0e0e0" stroke="#999999" points="353.09,-129 234.09,-129 234.09,-110 353.09,-110 353.09,-129"/>
<text text-anchor="middle" x="293.59" y="-117" font-family="Helvetica,sans-Serif" font-size="10.00">driver/spi_common.h</text>
</a>
</g>
</g>
<!-- Node14&#45;&gt;Node22 -->
<g id="edge29_Node000014_Node000022" class="edge">
<title>Node14&#45;&gt;Node22</title>
<g id="a_edge29_Node000014_Node000022"><a xlink:title=" ">
<path fill="none" stroke="#63b8ff" d="M641.42,-166.61C638.1,-166.04 634.79,-165.5 631.59,-165 581.49,-157.18 447.03,-139.89 363.58,-129.31"/>
<polygon fill="#63b8ff" stroke="#63b8ff" points="363.78,-125.81 353.42,-128.02 362.9,-132.75 363.78,-125.81"/>
</a>
</g>
</g>
<!-- Node23 -->
<g id="Node000023" class="node">
<title>Node23</title>
<g id="a_Node000023"><a xlink:title=" ">
<polygon fill="#e0e0e0" stroke="#999999" points="481.59,-129 371.59,-129 371.59,-110 481.59,-110 481.59,-129"/>
<text text-anchor="middle" x="426.59" y="-117" font-family="Helvetica,sans-Serif" font-size="10.00">driver/spi_master.h</text>
</a>
</g>
</g>
<!-- Node14&#45;&gt;Node23 -->
<g id="edge30_Node000014_Node000023" class="edge">
<title>Node14&#45;&gt;Node23</title>
<g id="a_edge30_Node000014_Node000023"><a xlink:title=" ">
<path fill="none" stroke="#63b8ff" d="M641.41,-165.68C597.95,-156.54 525.81,-141.37 477.26,-131.16"/>
<polygon fill="#63b8ff" stroke="#63b8ff" points="477.78,-127.69 467.27,-129.06 476.34,-134.54 477.78,-127.69"/>
</a>
</g>
</g>
<!-- Node14&#45;&gt;Node24 -->
<g id="edge31_Node000014_Node000024" class="edge">
<title>Node14&#45;&gt;Node24</title>
<g id="a_edge31_Node000014_Node000024"><a xlink:title=" ">
<path fill="none" stroke="#63b8ff" d="M715.61,-168.75C786.65,-159.63 942.76,-139.6 1029.83,-128.43"/>
<polygon fill="#63b8ff" stroke="#63b8ff" points="1030.36,-131.89 1039.83,-127.14 1029.47,-124.94 1030.36,-131.89"/>
</a>
</g>
</g>
<!-- Node25 -->
<g id="Node000025" class="node">
<title>Node25</title>
<g id="a_Node000025"><a xlink:href="_b_l5372_8h.html" target="_top" xlink:title=" ">
<polygon fill="white" stroke="#666666" points="599.59,-129 537.59,-129 537.59,-110 599.59,-110 599.59,-129"/>
<text text-anchor="middle" x="568.59" y="-117" font-family="Helvetica,sans-Serif" font-size="10.00">BL5372.h</text>
</a>
</g>
</g>
<!-- Node14&#45;&gt;Node25 -->
<g id="edge32_Node000014_Node000025" class="edge">
<title>Node14&#45;&gt;Node25</title>
<g id="a_edge32_Node000014_Node000025"><a xlink:title=" ">
<path fill="none" stroke="#63b8ff" d="M660.92,-164.98C643.3,-156.5 616.02,-143.35 595.67,-133.54"/>
<polygon fill="#63b8ff" stroke="#63b8ff" points="597.12,-130.36 586.59,-129.17 594.08,-136.66 597.12,-130.36"/>
</a>
</g>
</g>
<!-- Node20 -->
<g id="Node000020" class="node">
<title>Node20</title>
<g id="a_Node000020"><a xlink:href="_t_c_a6416_a_8h.html" target="_top" xlink:title=" ">
<polygon fill="white" stroke="#666666" points="930.09,-74 855.09,-74 855.09,-55 930.09,-55 930.09,-74"/>
<text text-anchor="middle" x="892.59" y="-62" font-family="Helvetica,sans-Serif" font-size="10.00">TCA6416A.h</text>
</a>
</g>
</g>
<!-- Node19&#45;&gt;Node20 -->
<g id="edge25_Node000019_Node000020" class="edge">
<title>Node19&#45;&gt;Node20</title>
<g id="a_edge25_Node000019_Node000020"><a xlink:title=" ">
<path fill="none" stroke="#63b8ff" d="M892.59,-109.75C892.59,-102.8 892.59,-92.85 892.59,-84.13"/>
<polygon fill="#63b8ff" stroke="#63b8ff" points="896.09,-84.09 892.59,-74.09 889.09,-84.09 896.09,-84.09"/>
</a>
</g>
</g>
<!-- Node20&#45;&gt;Node3 -->
<g id="edge27_Node000020_Node000003" class="edge">
<title>Node20&#45;&gt;Node3</title>
<g id="a_edge27_Node000020_Node000003"><a xlink:title=" ">
<path fill="none" stroke="#63b8ff" d="M885.99,-54.75C880.34,-47.26 872.05,-36.28 865.14,-27.13"/>
<polygon fill="#63b8ff" stroke="#63b8ff" points="867.89,-24.96 859.08,-19.09 862.31,-29.18 867.89,-24.96"/>
</a>
</g>
</g>
<!-- Node20&#45;&gt;Node12 -->
<g id="edge26_Node000020_Node000012" class="edge">
<title>Node20&#45;&gt;Node12</title>
<g id="a_edge26_Node000020_Node000012"><a xlink:title=" ">
<path fill="none" stroke="#63b8ff" d="M908.66,-54.98C924.46,-46.61 948.81,-33.7 967.22,-23.95"/>
<polygon fill="#63b8ff" stroke="#63b8ff" points="969.04,-26.95 976.23,-19.17 965.76,-20.76 969.04,-26.95"/>
</a>
</g>
</g>
<!-- Node25&#45;&gt;Node15 -->
<g id="edge33_Node000025_Node000015" class="edge">
<title>Node25&#45;&gt;Node15</title>
<g id="a_edge33_Node000025_Node000015"><a xlink:title=" ">
<path fill="none" stroke="#63b8ff" d="M563.8,-109.75C559.84,-102.49 554.07,-91.95 549.16,-82.98"/>
<polygon fill="#63b8ff" stroke="#63b8ff" points="552.16,-81.18 544.29,-74.09 546.02,-84.54 552.16,-81.18"/>
</a>
</g>
</g>
</g>
</svg>
