<?xml version="1.0" encoding="UTF-8" standalone="no"?>
<!DOCTYPE svg PUBLIC "-//W3C//DTD SVG 1.1//EN"
 "http://www.w3.org/Graphics/SVG/1.1/DTD/svg11.dtd">
<!-- Generated by graphviz version 2.43.0 (0)
 -->
<!-- Title: components/sevetest30_board/include/sevetest30_LedArray.h Pages: 1 -->
<svg width="1133pt" height="324pt"
 viewBox="0.00 0.00 1133.33 324.00" xmlns="http://www.w3.org/2000/svg" xmlns:xlink="http://www.w3.org/1999/xlink">
<g id="graph0" class="graph" transform="scale(1 1) rotate(0) translate(4 320)">
<title>components/sevetest30_board/include/sevetest30_LedArray.h</title>
<!-- Node1 -->
<g id="Node000001" class="node">
<title>Node1</title>
<g id="a_Node000001"><a xlink:title=" ">
<polygon fill="#999999" stroke="#666666" points="612.5,-316 467.5,-316 467.5,-275 612.5,-275 612.5,-316"/>
<text text-anchor="start" x="475.5" y="-304" font-family="Helvetica,sans-Serif" font-size="10.00">components/sevetest30</text>
<text text-anchor="start" x="475.5" y="-293" font-family="Helvetica,sans-Serif" font-size="10.00">_board/include/sevetest30</text>
<text text-anchor="middle" x="540" y="-282" font-family="Helvetica,sans-Serif" font-size="10.00">_LedArray.h</text>
</a>
</g>
</g>
<!-- Node2 -->
<g id="Node000002" class="node">
<title>Node2</title>
<g id="a_Node000002"><a xlink:title=" ">
<polygon fill="#e0e0e0" stroke="#999999" points="83.5,-19 30.5,-19 30.5,0 83.5,0 83.5,-19"/>
<text text-anchor="middle" x="57" y="-7" font-family="Helvetica,sans-Serif" font-size="10.00">string.h</text>
</a>
</g>
</g>
<!-- Node1&#45;&gt;Node2 -->
<g id="edge1_Node000001_Node000002" class="edge">
<title>Node1&#45;&gt;Node2</title>
<g id="a_edge1_Node000001_Node000002"><a xlink:title=" ">
<path fill="none" stroke="#63b8ff" d="M467.45,-293.53C320.18,-289.58 0,-270.12 0,-175.5 0,-175.5 0,-175.5 0,-118.5 0,-82.51 25.06,-46.76 41.95,-26.76"/>
<polygon fill="#63b8ff" stroke="#63b8ff" points="44.62,-29.02 48.59,-19.2 39.36,-24.4 44.62,-29.02"/>
</a>
</g>
</g>
<!-- Node3 -->
<g id="Node000003" class="node">
<title>Node3</title>
<g id="a_Node000003"><a xlink:href="sevetest30___u_i_8h.html" target="_top" xlink:title=" ">
<polygon fill="white" stroke="#666666" points="587.5,-239 492.5,-239 492.5,-220 587.5,-220 587.5,-239"/>
<text text-anchor="middle" x="540" y="-227" font-family="Helvetica,sans-Serif" font-size="10.00">sevetest30_UI.h</text>
</a>
</g>
</g>
<!-- Node1&#45;&gt;Node3 -->
<g id="edge2_Node000001_Node000003" class="edge">
<title>Node1&#45;&gt;Node3</title>
<g id="a_edge2_Node000001_Node000003"><a xlink:title=" ">
<path fill="none" stroke="#63b8ff" d="M540,-274.95C540,-266.85 540,-257.5 540,-249.47"/>
<polygon fill="#63b8ff" stroke="#63b8ff" points="543.5,-249.26 540,-239.26 536.5,-249.26 543.5,-249.26"/>
</a>
</g>
</g>
<!-- Node10 -->
<g id="Node000010" class="node">
<title>Node10</title>
<g id="a_Node000010"><a xlink:title=" ">
<polygon fill="#e0e0e0" stroke="#999999" points="932.5,-74 857.5,-74 857.5,-55 932.5,-55 932.5,-74"/>
<text text-anchor="middle" x="895" y="-62" font-family="Helvetica,sans-Serif" font-size="10.00">esp_types.h</text>
</a>
</g>
</g>
<!-- Node1&#45;&gt;Node10 -->
<g id="edge25_Node000001_Node000010" class="edge">
<title>Node1&#45;&gt;Node10</title>
<g id="a_edge25_Node000001_Node000010"><a xlink:title=" ">
<path fill="none" stroke="#63b8ff" d="M612.5,-284.65C753.8,-263.81 1057.62,-210.38 1119,-129 1124.08,-122.26 1124.36,-116.53 1119,-110 1097.17,-83.4 1001.96,-72.42 942.92,-68.1"/>
<polygon fill="#63b8ff" stroke="#63b8ff" points="942.92,-64.59 932.7,-67.39 942.43,-71.57 942.92,-64.59"/>
</a>
</g>
</g>
<!-- Node3&#45;&gt;Node2 -->
<g id="edge3_Node000003_Node000002" class="edge">
<title>Node3&#45;&gt;Node2</title>
<g id="a_edge3_Node000003_Node000002"><a xlink:title=" ">
<path fill="none" stroke="#63b8ff" d="M492.48,-224.51C386.62,-214.67 135.95,-185.81 76,-129 48.99,-103.41 50.42,-55.86 53.75,-29.44"/>
<polygon fill="#63b8ff" stroke="#63b8ff" points="57.26,-29.64 55.27,-19.24 50.34,-28.61 57.26,-29.64"/>
</a>
</g>
</g>
<!-- Node4 -->
<g id="Node000004" class="node">
<title>Node4</title>
<g id="a_Node000004"><a xlink:title=" ">
<polygon fill="#e0e0e0" stroke="#999999" points="697,-19 635,-19 635,0 697,0 697,-19"/>
<text text-anchor="middle" x="666" y="-7" font-family="Helvetica,sans-Serif" font-size="10.00">stdbool.h</text>
</a>
</g>
</g>
<!-- Node3&#45;&gt;Node4 -->
<g id="edge4_Node000003_Node000004" class="edge">
<title>Node3&#45;&gt;Node4</title>
<g id="a_edge4_Node000003_Node000004"><a xlink:title=" ">
<path fill="none" stroke="#63b8ff" d="M587.58,-227.84C713.58,-224.99 1050.89,-209.82 1119,-129 1174.42,-63.24 828.79,-25.23 707.18,-14.03"/>
<polygon fill="#63b8ff" stroke="#63b8ff" points="707.41,-10.53 697.14,-13.11 706.78,-17.5 707.41,-10.53"/>
</a>
</g>
</g>
<!-- Node5 -->
<g id="Node000005" class="node">
<title>Node5</title>
<g id="a_Node000005"><a xlink:title=" ">
<polygon fill="#e0e0e0" stroke="#999999" points="747.5,-184 686.5,-184 686.5,-165 747.5,-165 747.5,-184"/>
<text text-anchor="middle" x="717" y="-172" font-family="Helvetica,sans-Serif" font-size="10.00">esp_err.h</text>
</a>
</g>
</g>
<!-- Node3&#45;&gt;Node5 -->
<g id="edge5_Node000003_Node000005" class="edge">
<title>Node3&#45;&gt;Node5</title>
<g id="a_edge5_Node000003_Node000005"><a xlink:title=" ">
<path fill="none" stroke="#63b8ff" d="M568.44,-219.98C598.28,-211.05 645.38,-196.94 678.53,-187.02"/>
<polygon fill="#63b8ff" stroke="#63b8ff" points="679.76,-190.3 688.34,-184.08 677.76,-183.6 679.76,-190.3"/>
</a>
</g>
</g>
<!-- Node6 -->
<g id="Node000006" class="node">
<title>Node6</title>
<g id="a_Node000006"><a xlink:title=" ">
<polygon fill="#e0e0e0" stroke="#999999" points="379.5,-184 266.5,-184 266.5,-165 379.5,-165 379.5,-184"/>
<text text-anchor="middle" x="323" y="-172" font-family="Helvetica,sans-Serif" font-size="10.00">freertos/FreeRTOS.h</text>
</a>
</g>
</g>
<!-- Node3&#45;&gt;Node6 -->
<g id="edge6_Node000003_Node000006" class="edge">
<title>Node3&#45;&gt;Node6</title>
<g id="a_edge6_Node000003_Node000006"><a xlink:title=" ">
<path fill="none" stroke="#63b8ff" d="M505.14,-219.98C467.91,-210.89 408.8,-196.46 368.07,-186.51"/>
<polygon fill="#63b8ff" stroke="#63b8ff" points="368.68,-183.05 358.14,-184.08 367.02,-189.85 368.68,-183.05"/>
</a>
</g>
</g>
<!-- Node7 -->
<g id="Node000007" class="node">
<title>Node7</title>
<g id="a_Node000007"><a xlink:title=" ">
<polygon fill="#e0e0e0" stroke="#999999" points="486,-184 398,-184 398,-165 486,-165 486,-184"/>
<text text-anchor="middle" x="442" y="-172" font-family="Helvetica,sans-Serif" font-size="10.00">freertos/task.h</text>
</a>
</g>
</g>
<!-- Node3&#45;&gt;Node7 -->
<g id="edge7_Node000003_Node000007" class="edge">
<title>Node3&#45;&gt;Node7</title>
<g id="a_edge7_Node000003_Node000007"><a xlink:title=" ">
<path fill="none" stroke="#63b8ff" d="M524.25,-219.98C508.77,-211.61 484.91,-198.7 466.86,-188.95"/>
<polygon fill="#63b8ff" stroke="#63b8ff" points="468.49,-185.85 458.03,-184.17 465.16,-192.01 468.49,-185.85"/>
</a>
</g>
</g>
<!-- Node8 -->
<g id="Node000008" class="node">
<title>Node8</title>
<g id="a_Node000008"><a xlink:title=" ">
<polygon fill="#e0e0e0" stroke="#999999" points="575.5,-184 504.5,-184 504.5,-165 575.5,-165 575.5,-184"/>
<text text-anchor="middle" x="540" y="-172" font-family="Helvetica,sans-Serif" font-size="10.00">driver/i2s.h</text>
</a>
</g>
</g>
<!-- Node3&#45;&gt;Node8 -->
<g id="edge8_Node000003_Node000008" class="edge">
<title>Node3&#45;&gt;Node8</title>
<g id="a_edge8_Node000003_Node000008"><a xlink:title=" ">
<path fill="none" stroke="#63b8ff" d="M540,-219.75C540,-212.8 540,-202.85 540,-194.13"/>
<polygon fill="#63b8ff" stroke="#63b8ff" points="543.5,-194.09 540,-184.09 536.5,-194.09 543.5,-194.09"/>
</a>
</g>
</g>
<!-- Node9 -->
<g id="Node000009" class="node">
<title>Node9</title>
<g id="a_Node000009"><a xlink:href="board__ctrl_8h.html" target="_top" xlink:title=" ">
<polygon fill="white" stroke="#666666" points="668,-184 594,-184 594,-165 668,-165 668,-184"/>
<text text-anchor="middle" x="631" y="-172" font-family="Helvetica,sans-Serif" font-size="10.00">board_ctrl.h</text>
</a>
</g>
</g>
<!-- Node3&#45;&gt;Node9 -->
<g id="edge9_Node000003_Node000009" class="edge">
<title>Node3&#45;&gt;Node9</title>
<g id="a_edge9_Node000003_Node000009"><a xlink:title=" ">
<path fill="none" stroke="#63b8ff" d="M554.62,-219.98C568.86,-211.69 590.75,-198.94 607.45,-189.22"/>
<polygon fill="#63b8ff" stroke="#63b8ff" points="609.23,-192.23 616.11,-184.17 605.71,-186.18 609.23,-192.23"/>
</a>
</g>
</g>
<!-- Node9&#45;&gt;Node2 -->
<g id="edge11_Node000009_Node000002" class="edge">
<title>Node9&#45;&gt;Node2</title>
<g id="a_edge11_Node000009_Node000002"><a xlink:title=" ">
<path fill="none" stroke="#63b8ff" d="M593.86,-166.41C590.53,-165.89 587.21,-165.41 584,-165 529.95,-158.14 137.8,-162.7 95,-129 64.4,-104.91 58.05,-56 56.98,-29.16"/>
<polygon fill="#63b8ff" stroke="#63b8ff" points="60.47,-29.07 56.78,-19.14 53.48,-29.21 60.47,-29.07"/>
</a>
</g>
</g>
<!-- Node9&#45;&gt;Node10 -->
<g id="edge10_Node000009_Node000010" class="edge">
<title>Node9&#45;&gt;Node10</title>
<g id="a_edge10_Node000009_Node000010"><a xlink:title=" ">
<path fill="none" stroke="#63b8ff" d="M668.05,-166.67C714.48,-157.76 791.1,-141.8 817,-129 841.3,-116.99 864.82,-96.19 879.56,-81.68"/>
<polygon fill="#63b8ff" stroke="#63b8ff" points="882.25,-83.94 886.8,-74.36 877.28,-79.01 882.25,-83.94"/>
</a>
</g>
</g>
<!-- Node11 -->
<g id="Node000011" class="node">
<title>Node11</title>
<g id="a_Node000011"><a xlink:title=" ">
<polygon fill="#e0e0e0" stroke="#999999" points="1018,-129 944,-129 944,-110 1018,-110 1018,-129"/>
<text text-anchor="middle" x="981" y="-117" font-family="Helvetica,sans-Serif" font-size="10.00">board_def.h</text>
</a>
</g>
</g>
<!-- Node9&#45;&gt;Node11 -->
<g id="edge12_Node000009_Node000011" class="edge">
<title>Node9&#45;&gt;Node11</title>
<g id="a_edge12_Node000009_Node000011"><a xlink:title=" ">
<path fill="none" stroke="#63b8ff" d="M668.13,-166.49C671.13,-165.97 674.11,-165.47 677,-165 788.16,-146.98 819.04,-147.48 933.97,-129.1"/>
<polygon fill="#63b8ff" stroke="#63b8ff" points="934.55,-132.55 943.87,-127.51 933.44,-125.64 934.55,-132.55"/>
</a>
</g>
</g>
<!-- Node12 -->
<g id="Node000012" class="node">
<title>Node12</title>
<g id="a_Node000012"><a xlink:title=" ">
<polygon fill="#e0e0e0" stroke="#999999" points="1109.5,-129 1036.5,-129 1036.5,-110 1109.5,-110 1109.5,-129"/>
<text text-anchor="middle" x="1073" y="-117" font-family="Helvetica,sans-Serif" font-size="10.00">audio_hal.h</text>
</a>
</g>
</g>
<!-- Node9&#45;&gt;Node12 -->
<g id="edge13_Node000009_Node000012" class="edge">
<title>Node9&#45;&gt;Node12</title>
<g id="a_edge13_Node000009_Node000012"><a xlink:title=" ">
<path fill="none" stroke="#63b8ff" d="M668.11,-166.38C671.12,-165.88 674.11,-165.42 677,-165 828.61,-143.23 870.51,-150.89 1026.44,-128.96"/>
<polygon fill="#63b8ff" stroke="#63b8ff" points="1026.98,-132.42 1036.39,-127.54 1025.99,-125.49 1026.98,-132.42"/>
</a>
</g>
</g>
<!-- Node13 -->
<g id="Node000013" class="node">
<title>Node13</title>
<g id="a_Node000013"><a xlink:title=" ">
<polygon fill="#e0e0e0" stroke="#999999" points="331.5,-129 228.5,-129 228.5,-110 331.5,-110 331.5,-129"/>
<text text-anchor="middle" x="280" y="-117" font-family="Helvetica,sans-Serif" font-size="10.00">esxxx_common.h</text>
</a>
</g>
</g>
<!-- Node9&#45;&gt;Node13 -->
<g id="edge14_Node000009_Node000013" class="edge">
<title>Node9&#45;&gt;Node13</title>
<g id="a_edge14_Node000009_Node000013"><a xlink:title=" ">
<path fill="none" stroke="#63b8ff" d="M593.82,-166.66C590.5,-166.08 587.19,-165.52 584,-165 538.69,-157.59 416.84,-140.02 341.89,-129.31"/>
<polygon fill="#63b8ff" stroke="#63b8ff" points="342.03,-125.79 331.64,-127.84 341.04,-132.72 342.03,-125.79"/>
</a>
</g>
</g>
<!-- Node14 -->
<g id="Node000014" class="node">
<title>Node14</title>
<g id="a_Node000014"><a xlink:href="sevetest30__gpio_8h.html" target="_top" xlink:title=" ">
<polygon fill="white" stroke="#666666" points="210,-129 104,-129 104,-110 210,-110 210,-129"/>
<text text-anchor="middle" x="157" y="-117" font-family="Helvetica,sans-Serif" font-size="10.00">sevetest30_gpio.h</text>
</a>
</g>
</g>
<!-- Node9&#45;&gt;Node14 -->
<g id="edge15_Node000009_Node000014" class="edge">
<title>Node9&#45;&gt;Node14</title>
<g id="a_edge15_Node000009_Node000014"><a xlink:title=" ">
<path fill="none" stroke="#63b8ff" d="M593.84,-166.49C590.52,-165.95 587.2,-165.45 584,-165 425.87,-142.94 382.65,-147.86 220.43,-129.12"/>
<polygon fill="#63b8ff" stroke="#63b8ff" points="220.42,-125.6 210.08,-127.91 219.61,-132.55 220.42,-125.6"/>
</a>
</g>
</g>
<!-- Node16 -->
<g id="Node000016" class="node">
<title>Node16</title>
<g id="a_Node000016"><a xlink:title=" ">
<polygon fill="#e0e0e0" stroke="#999999" points="420.5,-129 349.5,-129 349.5,-110 420.5,-110 420.5,-129"/>
<text text-anchor="middle" x="385" y="-117" font-family="Helvetica,sans-Serif" font-size="10.00">driver/i2c.h</text>
</a>
</g>
</g>
<!-- Node9&#45;&gt;Node16 -->
<g id="edge19_Node000009_Node000016" class="edge">
<title>Node9&#45;&gt;Node16</title>
<g id="a_edge19_Node000009_Node000016"><a xlink:title=" ">
<path fill="none" stroke="#63b8ff" d="M593.9,-165.51C550.26,-156.11 477.8,-140.49 430.73,-130.35"/>
<polygon fill="#63b8ff" stroke="#63b8ff" points="431.31,-126.9 420.79,-128.21 429.83,-133.74 431.31,-126.9"/>
</a>
</g>
</g>
<!-- Node17 -->
<g id="Node000017" class="node">
<title>Node17</title>
<g id="a_Node000017"><a xlink:title=" ">
<polygon fill="#e0e0e0" stroke="#999999" points="557.5,-129 438.5,-129 438.5,-110 557.5,-110 557.5,-129"/>
<text text-anchor="middle" x="498" y="-117" font-family="Helvetica,sans-Serif" font-size="10.00">driver/spi_common.h</text>
</a>
</g>
</g>
<!-- Node9&#45;&gt;Node17 -->
<g id="edge20_Node000009_Node000017" class="edge">
<title>Node9&#45;&gt;Node17</title>
<g id="a_edge20_Node000009_Node000017"><a xlink:title=" ">
<path fill="none" stroke="#63b8ff" d="M609.63,-164.98C587.85,-156.3 553.84,-142.75 529.08,-132.88"/>
<polygon fill="#63b8ff" stroke="#63b8ff" points="530.34,-129.62 519.76,-129.17 527.75,-136.12 530.34,-129.62"/>
</a>
</g>
</g>
<!-- Node18 -->
<g id="Node000018" class="node">
<title>Node18</title>
<g id="a_Node000018"><a xlink:title=" ">
<polygon fill="#e0e0e0" stroke="#999999" points="686,-129 576,-129 576,-110 686,-110 686,-129"/>
<text text-anchor="middle" x="631" y="-117" font-family="Helvetica,sans-Serif" font-size="10.00">driver/spi_master.h</text>
</a>
</g>
</g>
<!-- Node9&#45;&gt;Node18 -->
<g id="edge21_Node000009_Node000018" class="edge">
<title>Node9&#45;&gt;Node18</title>
<g id="a_edge21_Node000009_Node000018"><a xlink:title=" ">
<path fill="none" stroke="#63b8ff" d="M631,-164.75C631,-157.8 631,-147.85 631,-139.13"/>
<polygon fill="#63b8ff" stroke="#63b8ff" points="634.5,-139.09 631,-129.09 627.5,-139.09 634.5,-139.09"/>
</a>
</g>
</g>
<!-- Node19 -->
<g id="Node000019" class="node">
<title>Node19</title>
<g id="a_Node000019"><a xlink:title=" ">
<polygon fill="#e0e0e0" stroke="#999999" points="807.5,-129 704.5,-129 704.5,-110 807.5,-110 807.5,-129"/>
<text text-anchor="middle" x="756" y="-117" font-family="Helvetica,sans-Serif" font-size="10.00">esp_peripherals.h</text>
</a>
</g>
</g>
<!-- Node9&#45;&gt;Node19 -->
<g id="edge22_Node000009_Node000019" class="edge">
<title>Node9&#45;&gt;Node19</title>
<g id="a_edge22_Node000009_Node000019"><a xlink:title=" ">
<path fill="none" stroke="#63b8ff" d="M651.08,-164.98C671.37,-156.38 702.96,-142.99 726.17,-133.15"/>
<polygon fill="#63b8ff" stroke="#63b8ff" points="727.71,-136.3 735.55,-129.17 724.98,-129.85 727.71,-136.3"/>
</a>
</g>
</g>
<!-- Node20 -->
<g id="Node000020" class="node">
<title>Node20</title>
<g id="a_Node000020"><a xlink:href="_b_l5372_8h.html" target="_top" xlink:title=" ">
<polygon fill="white" stroke="#666666" points="926,-129 864,-129 864,-110 926,-110 926,-129"/>
<text text-anchor="middle" x="895" y="-117" font-family="Helvetica,sans-Serif" font-size="10.00">BL5372.h</text>
</a>
</g>
</g>
<!-- Node9&#45;&gt;Node20 -->
<g id="edge23_Node000009_Node000020" class="edge">
<title>Node9&#45;&gt;Node20</title>
<g id="a_edge23_Node000009_Node000020"><a xlink:title=" ">
<path fill="none" stroke="#63b8ff" d="M668.26,-166.02C717.2,-156.2 802.84,-139 853.7,-128.79"/>
<polygon fill="#63b8ff" stroke="#63b8ff" points="854.58,-132.18 863.7,-126.78 853.2,-125.32 854.58,-132.18"/>
</a>
</g>
</g>
<!-- Node15 -->
<g id="Node000015" class="node">
<title>Node15</title>
<g id="a_Node000015"><a xlink:href="_t_c_a6416_a_8h.html" target="_top" xlink:title=" ">
<polygon fill="white" stroke="#666666" points="194.5,-74 119.5,-74 119.5,-55 194.5,-55 194.5,-74"/>
<text text-anchor="middle" x="157" y="-62" font-family="Helvetica,sans-Serif" font-size="10.00">TCA6416A.h</text>
</a>
</g>
</g>
<!-- Node14&#45;&gt;Node15 -->
<g id="edge16_Node000014_Node000015" class="edge">
<title>Node14&#45;&gt;Node15</title>
<g id="a_edge16_Node000014_Node000015"><a xlink:title=" ">
<path fill="none" stroke="#63b8ff" d="M157,-109.75C157,-102.8 157,-92.85 157,-84.13"/>
<polygon fill="#63b8ff" stroke="#63b8ff" points="160.5,-84.09 157,-74.09 153.5,-84.09 160.5,-84.09"/>
</a>
</g>
</g>
<!-- Node15&#45;&gt;Node2 -->
<g id="edge17_Node000015_Node000002" class="edge">
<title>Node15&#45;&gt;Node2</title>
<g id="a_edge17_Node000015_Node000002"><a xlink:title=" ">
<path fill="none" stroke="#63b8ff" d="M140.93,-54.98C125.14,-46.61 100.78,-33.7 82.37,-23.95"/>
<polygon fill="#63b8ff" stroke="#63b8ff" points="83.83,-20.76 73.36,-19.17 80.56,-26.95 83.83,-20.76"/>
</a>
</g>
</g>
<!-- Node15&#45;&gt;Node4 -->
<g id="edge18_Node000015_Node000004" class="edge">
<title>Node15&#45;&gt;Node4</title>
<g id="a_edge18_Node000015_Node000004"><a xlink:title=" ">
<path fill="none" stroke="#63b8ff" d="M194.84,-59.56C288.09,-49.85 528.35,-24.83 624.92,-14.78"/>
<polygon fill="#63b8ff" stroke="#63b8ff" points="625.3,-18.26 634.89,-13.74 624.58,-11.29 625.3,-18.26"/>
</a>
</g>
</g>
<!-- Node20&#45;&gt;Node10 -->
<g id="edge24_Node000020_Node000010" class="edge">
<title>Node20&#45;&gt;Node10</title>
<g id="a_edge24_Node000020_Node000010"><a xlink:title=" ">
<path fill="none" stroke="#63b8ff" d="M895,-109.75C895,-102.8 895,-92.85 895,-84.13"/>
<polygon fill="#63b8ff" stroke="#63b8ff" points="898.5,-84.09 895,-74.09 891.5,-84.09 898.5,-84.09"/>
</a>
</g>
</g>
</g>
</svg>
