<?xml version="1.0" encoding="UTF-8" standalone="no"?>
<!DOCTYPE svg PUBLIC "-//W3C//DTD SVG 1.1//EN"
 "http://www.w3.org/Graphics/SVG/1.1/DTD/svg11.dtd">
<!-- Generated by graphviz version 2.43.0 (0)
 -->
<!-- Title: main/sevetest30_LedArray.c Pages: 1 -->
<svg width="2211pt" height="357pt"
 viewBox="0.00 0.00 2210.50 357.00" xmlns="http://www.w3.org/2000/svg" xmlns:xlink="http://www.w3.org/1999/xlink">
<g id="graph0" class="graph" transform="scale(1 1) rotate(0) translate(4 353)">
<title>main/sevetest30_LedArray.c</title>
<!-- Node1 -->
<g id="Node000001" class="node">
<title>Node1</title>
<g id="a_Node000001"><a xlink:title=" ">
<polygon fill="#999999" stroke="#666666" points="1579,-349 1425,-349 1425,-330 1579,-330 1579,-349"/>
<text text-anchor="middle" x="1502" y="-337" font-family="Helvetica,sans-Serif" font-size="10.00">main/sevetest30_LedArray.c</text>
</a>
</g>
</g>
<!-- Node2 -->
<g id="Node000002" class="node">
<title>Node2</title>
<g id="a_Node000002"><a xlink:href="sevetest30___led_array_8h.html" target="_top" xlink:title=" ">
<polygon fill="white" stroke="#666666" points="681.5,-294 554.5,-294 554.5,-275 681.5,-275 681.5,-294"/>
<text text-anchor="middle" x="618" y="-282" font-family="Helvetica,sans-Serif" font-size="10.00">sevetest30_LedArray.h</text>
</a>
</g>
</g>
<!-- Node1&#45;&gt;Node2 -->
<g id="edge1_Node000001_Node000002" class="edge">
<title>Node1&#45;&gt;Node2</title>
<g id="a_edge1_Node000001_Node000002"><a xlink:title=" ">
<path fill="none" stroke="#63b8ff" d="M1424.71,-333.87C1256.08,-323.76 857.01,-299.83 691.7,-289.92"/>
<polygon fill="#63b8ff" stroke="#63b8ff" points="691.82,-286.42 681.63,-289.31 691.4,-293.41 691.82,-286.42"/>
</a>
</g>
</g>
<!-- Node3 -->
<g id="Node000003" class="node">
<title>Node3</title>
<g id="a_Node000003"><a xlink:title=" ">
<polygon fill="#e0e0e0" stroke="#999999" points="140.5,-19 87.5,-19 87.5,0 140.5,0 140.5,-19"/>
<text text-anchor="middle" x="114" y="-7" font-family="Helvetica,sans-Serif" font-size="10.00">string.h</text>
</a>
</g>
</g>
<!-- Node1&#45;&gt;Node3 -->
<g id="edge35_Node000001_Node000003" class="edge">
<title>Node1&#45;&gt;Node3</title>
<g id="a_edge35_Node000001_Node000003"><a xlink:title=" ">
<path fill="none" stroke="#63b8ff" d="M1424.8,-338.37C1184.31,-337.55 450.73,-331.94 216,-294 117.22,-278.03 0,-330.56 0,-230.5 0,-230.5 0,-230.5 0,-118.5 0,-72.47 49.58,-40.18 83.35,-23.53"/>
<polygon fill="#63b8ff" stroke="#63b8ff" points="85.28,-26.49 92.82,-19.05 82.29,-20.16 85.28,-26.49"/>
</a>
</g>
</g>
<!-- Node4 -->
<g id="Node000004" class="node">
<title>Node4</title>
<g id="a_Node000004"><a xlink:href="sevetest30___u_i_8h.html" target="_top" xlink:title=" ">
<polygon fill="white" stroke="#666666" points="1299.5,-239 1204.5,-239 1204.5,-220 1299.5,-220 1299.5,-239"/>
<text text-anchor="middle" x="1252" y="-227" font-family="Helvetica,sans-Serif" font-size="10.00">sevetest30_UI.h</text>
</a>
</g>
</g>
<!-- Node1&#45;&gt;Node4 -->
<g id="edge29_Node000001_Node000004" class="edge">
<title>Node1&#45;&gt;Node4</title>
<g id="a_edge29_Node000001_Node000004"><a xlink:title=" ">
<path fill="none" stroke="#63b8ff" d="M1424.74,-330.24C1389.28,-324 1347.72,-313.08 1314,-294 1293.57,-282.44 1275.49,-262.14 1264.21,-247.61"/>
<polygon fill="#63b8ff" stroke="#63b8ff" points="1266.89,-245.35 1258.1,-239.43 1261.28,-249.54 1266.89,-245.35"/>
</a>
</g>
</g>
<!-- Node5 -->
<g id="Node000005" class="node">
<title>Node5</title>
<g id="a_Node000005"><a xlink:title=" ">
<polygon fill="#e0e0e0" stroke="#999999" points="1000,-19 938,-19 938,0 1000,0 1000,-19"/>
<text text-anchor="middle" x="969" y="-7" font-family="Helvetica,sans-Serif" font-size="10.00">stdbool.h</text>
</a>
</g>
</g>
<!-- Node1&#45;&gt;Node5 -->
<g id="edge36_Node000001_Node000005" class="edge">
<title>Node1&#45;&gt;Node5</title>
<g id="a_edge36_Node000001_Node000005"><a xlink:title=" ">
<path fill="none" stroke="#63b8ff" d="M1424.84,-336.89C1122.89,-330.07 38,-300.71 38,-230.5 38,-230.5 38,-230.5 38,-118.5 38,-27.61 747.14,-13.11 927.61,-10.89"/>
<polygon fill="#63b8ff" stroke="#63b8ff" points="927.8,-14.38 937.76,-10.77 927.72,-7.38 927.8,-14.38"/>
</a>
</g>
</g>
<!-- Node7 -->
<g id="Node000007" class="node">
<title>Node7</title>
<g id="a_Node000007"><a xlink:title=" ">
<polygon fill="#e0e0e0" stroke="#999999" points="1520.5,-184 1407.5,-184 1407.5,-165 1520.5,-165 1520.5,-184"/>
<text text-anchor="middle" x="1464" y="-172" font-family="Helvetica,sans-Serif" font-size="10.00">freertos/FreeRTOS.h</text>
</a>
</g>
</g>
<!-- Node1&#45;&gt;Node7 -->
<g id="edge30_Node000001_Node000007" class="edge">
<title>Node1&#45;&gt;Node7</title>
<g id="a_edge30_Node000001_Node000007"><a xlink:title=" ">
<path fill="none" stroke="#63b8ff" d="M1424.81,-334.17C1397.36,-328.45 1369.06,-316.86 1352,-294 1332.33,-267.64 1333.53,-247.21 1352,-220 1362.81,-204.08 1380.3,-193.85 1398.29,-187.29"/>
<polygon fill="#63b8ff" stroke="#63b8ff" points="1399.88,-190.45 1408.29,-184 1397.7,-183.8 1399.88,-190.45"/>
</a>
</g>
</g>
<!-- Node8 -->
<g id="Node000008" class="node">
<title>Node8</title>
<g id="a_Node000008"><a xlink:title=" ">
<polygon fill="#e0e0e0" stroke="#999999" points="1627,-184 1539,-184 1539,-165 1627,-165 1627,-184"/>
<text text-anchor="middle" x="1583" y="-172" font-family="Helvetica,sans-Serif" font-size="10.00">freertos/task.h</text>
</a>
</g>
</g>
<!-- Node1&#45;&gt;Node8 -->
<g id="edge31_Node000001_Node000008" class="edge">
<title>Node1&#45;&gt;Node8</title>
<g id="a_edge31_Node000001_Node000008"><a xlink:title=" ">
<path fill="none" stroke="#63b8ff" d="M1448.68,-329.94C1409.81,-321.13 1366.86,-304.41 1385,-275 1416.2,-224.4 1481.86,-198.64 1529.03,-186.16"/>
<polygon fill="#63b8ff" stroke="#63b8ff" points="1529.95,-189.54 1538.79,-183.69 1528.24,-182.75 1529.95,-189.54"/>
</a>
</g>
</g>
<!-- Node22 -->
<g id="Node000022" class="node">
<title>Node22</title>
<g id="a_Node000022"><a xlink:title=" ">
<polygon fill="#e0e0e0" stroke="#999999" points="1450,-294 1394,-294 1394,-275 1450,-275 1450,-294"/>
<text text-anchor="middle" x="1422" y="-282" font-family="Helvetica,sans-Serif" font-size="10.00">stdarg.h</text>
</a>
</g>
</g>
<!-- Node1&#45;&gt;Node22 -->
<g id="edge32_Node000001_Node000022" class="edge">
<title>Node1&#45;&gt;Node22</title>
<g id="a_edge32_Node000001_Node000022"><a xlink:title=" ">
<path fill="none" stroke="#63b8ff" d="M1489.15,-329.98C1476.86,-321.84 1458.09,-309.41 1443.52,-299.76"/>
<polygon fill="#63b8ff" stroke="#63b8ff" points="1445.36,-296.78 1435.09,-294.17 1441.49,-302.61 1445.36,-296.78"/>
</a>
</g>
</g>
<!-- Node23 -->
<g id="Node000023" class="node">
<title>Node23</title>
<g id="a_Node000023"><a xlink:title=" ">
<polygon fill="#e0e0e0" stroke="#999999" points="1536,-294 1468,-294 1468,-275 1536,-275 1536,-294"/>
<text text-anchor="middle" x="1502" y="-282" font-family="Helvetica,sans-Serif" font-size="10.00">led_strip.h</text>
</a>
</g>
</g>
<!-- Node1&#45;&gt;Node23 -->
<g id="edge33_Node000001_Node000023" class="edge">
<title>Node1&#45;&gt;Node23</title>
<g id="a_edge33_Node000001_Node000023"><a xlink:title=" ">
<path fill="none" stroke="#63b8ff" d="M1502,-329.75C1502,-322.8 1502,-312.85 1502,-304.13"/>
<polygon fill="#63b8ff" stroke="#63b8ff" points="1505.5,-304.09 1502,-294.09 1498.5,-304.09 1505.5,-304.09"/>
</a>
</g>
</g>
<!-- Node24 -->
<g id="Node000024" class="node">
<title>Node24</title>
<g id="a_Node000024"><a xlink:title=" ">
<polygon fill="#e0e0e0" stroke="#999999" points="1605.5,-294 1554.5,-294 1554.5,-275 1605.5,-275 1605.5,-294"/>
<text text-anchor="middle" x="1580" y="-282" font-family="Helvetica,sans-Serif" font-size="10.00">math.h</text>
</a>
</g>
</g>
<!-- Node1&#45;&gt;Node24 -->
<g id="edge34_Node000001_Node000024" class="edge">
<title>Node1&#45;&gt;Node24</title>
<g id="a_edge34_Node000001_Node000024"><a xlink:title=" ">
<path fill="none" stroke="#63b8ff" d="M1514.53,-329.98C1526.4,-321.92 1544.46,-309.65 1558.61,-300.03"/>
<polygon fill="#63b8ff" stroke="#63b8ff" points="1560.94,-302.69 1567.24,-294.17 1557,-296.9 1560.94,-302.69"/>
</a>
</g>
</g>
<!-- Node25 -->
<g id="Node000025" class="node">
<title>Node25</title>
<g id="a_Node000025"><a xlink:title=" ">
<polygon fill="#e0e0e0" stroke="#999999" points="1682.5,-294 1623.5,-294 1623.5,-275 1682.5,-275 1682.5,-294"/>
<text text-anchor="middle" x="1653" y="-282" font-family="Helvetica,sans-Serif" font-size="10.00">malloc.h</text>
</a>
</g>
</g>
<!-- Node1&#45;&gt;Node25 -->
<g id="edge37_Node000001_Node000025" class="edge">
<title>Node1&#45;&gt;Node25</title>
<g id="a_edge37_Node000001_Node000025"><a xlink:title=" ">
<path fill="none" stroke="#63b8ff" d="M1526.26,-329.98C1551.32,-321.19 1590.63,-307.39 1618.83,-297.49"/>
<polygon fill="#63b8ff" stroke="#63b8ff" points="1620.02,-300.78 1628.3,-294.17 1617.7,-294.18 1620.02,-300.78"/>
</a>
</g>
</g>
<!-- Node26 -->
<g id="Node000026" class="node">
<title>Node26</title>
<g id="a_Node000026"><a xlink:title=" ">
<polygon fill="#e0e0e0" stroke="#999999" points="1751,-294 1701,-294 1701,-275 1751,-275 1751,-294"/>
<text text-anchor="middle" x="1726" y="-282" font-family="Helvetica,sans-Serif" font-size="10.00">stdio.h</text>
</a>
</g>
</g>
<!-- Node1&#45;&gt;Node26 -->
<g id="edge38_Node000001_Node000026" class="edge">
<title>Node1&#45;&gt;Node26</title>
<g id="a_edge38_Node000001_Node000026"><a xlink:title=" ">
<path fill="none" stroke="#63b8ff" d="M1539.17,-329.97C1575.48,-321.59 1632.57,-308.33 1690.99,-294.22"/>
<polygon fill="#63b8ff" stroke="#63b8ff" points="1691.86,-297.61 1700.76,-291.85 1690.22,-290.8 1691.86,-297.61"/>
</a>
</g>
</g>
<!-- Node27 -->
<g id="Node000027" class="node">
<title>Node27</title>
<g id="a_Node000027"><a xlink:title=" ">
<polygon fill="#e0e0e0" stroke="#999999" points="1822.5,-294 1769.5,-294 1769.5,-275 1822.5,-275 1822.5,-294"/>
<text text-anchor="middle" x="1796" y="-282" font-family="Helvetica,sans-Serif" font-size="10.00">stdlib.h</text>
</a>
</g>
</g>
<!-- Node1&#45;&gt;Node27 -->
<g id="edge39_Node000001_Node000027" class="edge">
<title>Node1&#45;&gt;Node27</title>
<g id="a_edge39_Node000001_Node000027"><a xlink:title=" ">
<path fill="none" stroke="#63b8ff" d="M1557.29,-329.97C1607.41,-322 1683.53,-309.35 1759.13,-294.07"/>
<polygon fill="#63b8ff" stroke="#63b8ff" points="1760.2,-297.42 1769.3,-291.99 1758.81,-290.56 1760.2,-297.42"/>
</a>
</g>
</g>
<!-- Node28 -->
<g id="Node000028" class="node">
<title>Node28</title>
<g id="a_Node000028"><a xlink:title=" ">
<polygon fill="#e0e0e0" stroke="#999999" points="1903.5,-294 1840.5,-294 1840.5,-275 1903.5,-275 1903.5,-294"/>
<text text-anchor="middle" x="1872" y="-282" font-family="Helvetica,sans-Serif" font-size="10.00">esp_log.h</text>
</a>
</g>
</g>
<!-- Node1&#45;&gt;Node28 -->
<g id="edge40_Node000001_Node000028" class="edge">
<title>Node1&#45;&gt;Node28</title>
<g id="a_edge40_Node000001_Node000028"><a xlink:title=" ">
<path fill="none" stroke="#63b8ff" d="M1577.28,-329.99C1641.97,-322.29 1737.96,-309.99 1830.11,-294.23"/>
<polygon fill="#63b8ff" stroke="#63b8ff" points="1830.91,-297.64 1840.17,-292.49 1829.72,-290.74 1830.91,-297.64"/>
</a>
</g>
</g>
<!-- Node29 -->
<g id="Node000029" class="node">
<title>Node29</title>
<g id="a_Node000029"><a xlink:title=" ">
<polygon fill="#e0e0e0" stroke="#999999" points="1996,-294 1922,-294 1922,-275 1996,-275 1996,-294"/>
<text text-anchor="middle" x="1959" y="-282" font-family="Helvetica,sans-Serif" font-size="10.00">driver/rmt.h</text>
</a>
</g>
</g>
<!-- Node1&#45;&gt;Node29 -->
<g id="edge41_Node000001_Node000029" class="edge">
<title>Node1&#45;&gt;Node29</title>
<g id="a_edge41_Node000001_Node000029"><a xlink:title=" ">
<path fill="none" stroke="#63b8ff" d="M1579.1,-331.89C1659.6,-324.59 1789.71,-311.69 1911.62,-294.1"/>
<polygon fill="#63b8ff" stroke="#63b8ff" points="1912.49,-297.51 1921.88,-292.61 1911.48,-290.58 1912.49,-297.51"/>
</a>
</g>
</g>
<!-- Node30 -->
<g id="Node000030" class="node">
<title>Node30</title>
<g id="a_Node000030"><a xlink:title=" ">
<polygon fill="#e0e0e0" stroke="#999999" points="2107.5,-294 2014.5,-294 2014.5,-275 2107.5,-275 2107.5,-294"/>
<text text-anchor="middle" x="2061" y="-282" font-family="Helvetica,sans-Serif" font-size="10.00">hal/rmt_types.h</text>
</a>
</g>
</g>
<!-- Node1&#45;&gt;Node30 -->
<g id="edge42_Node000001_Node000030" class="edge">
<title>Node1&#45;&gt;Node30</title>
<g id="a_edge42_Node000001_Node000030"><a xlink:title=" ">
<path fill="none" stroke="#63b8ff" d="M1579.28,-333.17C1676.03,-326.15 1847.09,-312.64 2003.97,-294.05"/>
<polygon fill="#63b8ff" stroke="#63b8ff" points="2004.76,-297.48 2014.28,-292.81 2003.93,-290.53 2004.76,-297.48"/>
</a>
</g>
</g>
<!-- Node31 -->
<g id="Node000031" class="node">
<title>Node31</title>
<g id="a_Node000031"><a xlink:href="gt32l32s0140_8h.html" target="_top" xlink:title=" ">
<polygon fill="white" stroke="#666666" points="1186,-239 1094,-239 1094,-220 1186,-220 1186,-239"/>
<text text-anchor="middle" x="1140" y="-227" font-family="Helvetica,sans-Serif" font-size="10.00">gt32l32s0140.h</text>
</a>
</g>
</g>
<!-- Node1&#45;&gt;Node31 -->
<g id="edge43_Node000001_Node000031" class="edge">
<title>Node1&#45;&gt;Node31</title>
<g id="a_edge43_Node000001_Node000031"><a xlink:title=" ">
<path fill="none" stroke="#63b8ff" d="M1443.58,-329.95C1399.41,-322.66 1337.6,-310.7 1285,-294 1241.89,-280.31 1194.27,-257.97 1165.77,-243.77"/>
<polygon fill="#63b8ff" stroke="#63b8ff" points="1167.03,-240.48 1156.52,-239.11 1163.88,-246.74 1167.03,-240.48"/>
</a>
</g>
</g>
<!-- Node32 -->
<g id="Node000032" class="node">
<title>Node32</title>
<g id="a_Node000032"><a xlink:title=" ">
<polygon fill="#e0e0e0" stroke="#999999" points="2202.5,-294 2125.5,-294 2125.5,-275 2202.5,-275 2202.5,-294"/>
<text text-anchor="middle" x="2164" y="-282" font-family="Helvetica,sans-Serif" font-size="10.00">esp_check.h</text>
</a>
</g>
</g>
<!-- Node1&#45;&gt;Node32 -->
<g id="edge46_Node000001_Node000032" class="edge">
<title>Node1&#45;&gt;Node32</title>
<g id="a_edge46_Node000001_Node000032"><a xlink:title=" ">
<path fill="none" stroke="#63b8ff" d="M1579.45,-335.55C1694.36,-330.58 1916.95,-318.7 2115.3,-294.09"/>
<polygon fill="#63b8ff" stroke="#63b8ff" points="2115.84,-297.55 2125.32,-292.83 2114.96,-290.6 2115.84,-297.55"/>
</a>
</g>
</g>
<!-- Node2&#45;&gt;Node3 -->
<g id="edge2_Node000002_Node000003" class="edge">
<title>Node2&#45;&gt;Node3</title>
<g id="a_edge2_Node000002_Node000003"><a xlink:title=" ">
<path fill="none" stroke="#63b8ff" d="M554.5,-284.04C411.37,-283.56 76,-272.11 76,-175.5 76,-175.5 76,-175.5 76,-118.5 76,-85.02 92.45,-48.84 103.7,-28.01"/>
<polygon fill="#63b8ff" stroke="#63b8ff" points="106.87,-29.53 108.72,-19.1 100.76,-26.1 106.87,-29.53"/>
</a>
</g>
</g>
<!-- Node2&#45;&gt;Node4 -->
<g id="edge3_Node000002_Node000004" class="edge">
<title>Node2&#45;&gt;Node4</title>
<g id="a_edge3_Node000002_Node000004"><a xlink:title=" ">
<path fill="none" stroke="#63b8ff" d="M681.75,-280.07C786.44,-274.11 1001.54,-260.48 1194.41,-238.98"/>
<polygon fill="#63b8ff" stroke="#63b8ff" points="1194.9,-242.44 1204.45,-237.85 1194.12,-235.49 1194.9,-242.44"/>
</a>
</g>
</g>
<!-- Node11 -->
<g id="Node000011" class="node">
<title>Node11</title>
<g id="a_Node000011"><a xlink:title=" ">
<polygon fill="#e0e0e0" stroke="#999999" points="570.5,-74 495.5,-74 495.5,-55 570.5,-55 570.5,-74"/>
<text text-anchor="middle" x="533" y="-62" font-family="Helvetica,sans-Serif" font-size="10.00">esp_types.h</text>
</a>
</g>
</g>
<!-- Node2&#45;&gt;Node11 -->
<g id="edge28_Node000002_Node000011" class="edge">
<title>Node2&#45;&gt;Node11</title>
<g id="a_edge28_Node000002_Node000011"><a xlink:title=" ">
<path fill="none" stroke="#63b8ff" d="M554.15,-280.66C460.18,-272.62 287.33,-242.33 209,-129 204.2,-122.05 203.45,-116.36 209,-110 244.22,-69.61 403.68,-64.59 484.99,-64.74"/>
<polygon fill="#63b8ff" stroke="#63b8ff" points="485.44,-68.24 495.46,-64.79 485.47,-61.24 485.44,-68.24"/>
</a>
</g>
</g>
<!-- Node4&#45;&gt;Node3 -->
<g id="edge4_Node000004_Node000003" class="edge">
<title>Node4&#45;&gt;Node3</title>
<g id="a_edge4_Node000004_Node000003"><a xlink:title=" ">
<path fill="none" stroke="#63b8ff" d="M1204.45,-221.12C1201.26,-220.71 1198.08,-220.33 1195,-220 969.64,-195.6 378.04,-237.48 179,-129 141.52,-108.57 124.48,-57.33 117.76,-29.39"/>
<polygon fill="#63b8ff" stroke="#63b8ff" points="121.11,-28.32 115.54,-19.31 114.27,-29.83 121.11,-28.32"/>
</a>
</g>
</g>
<!-- Node4&#45;&gt;Node5 -->
<g id="edge5_Node000004_Node000005" class="edge">
<title>Node4&#45;&gt;Node5</title>
<g id="a_edge5_Node000004_Node000005"><a xlink:title=" ">
<path fill="none" stroke="#63b8ff" d="M1253.29,-219.89C1255.99,-198.62 1259.88,-142.93 1233,-110 1177.33,-41.82 1069.72,-20.33 1010.53,-13.58"/>
<polygon fill="#63b8ff" stroke="#63b8ff" points="1010.73,-10.08 1000.41,-12.51 1009.99,-17.04 1010.73,-10.08"/>
</a>
</g>
</g>
<!-- Node6 -->
<g id="Node000006" class="node">
<title>Node6</title>
<g id="a_Node000006"><a xlink:title=" ">
<polygon fill="#e0e0e0" stroke="#999999" points="1301.5,-19 1240.5,-19 1240.5,0 1301.5,0 1301.5,-19"/>
<text text-anchor="middle" x="1271" y="-7" font-family="Helvetica,sans-Serif" font-size="10.00">esp_err.h</text>
</a>
</g>
</g>
<!-- Node4&#45;&gt;Node6 -->
<g id="edge6_Node000004_Node000006" class="edge">
<title>Node4&#45;&gt;Node6</title>
<g id="a_edge6_Node000004_Node000006"><a xlink:title=" ">
<path fill="none" stroke="#63b8ff" d="M1258.45,-219.77C1270.29,-203.14 1295.08,-165.34 1304,-129 1311.84,-97.06 1314.32,-86.23 1304,-55 1300.54,-44.54 1293.57,-34.53 1286.92,-26.66"/>
<polygon fill="#63b8ff" stroke="#63b8ff" points="1289.33,-24.1 1280.02,-19.04 1284.14,-28.8 1289.33,-24.1"/>
</a>
</g>
</g>
<!-- Node4&#45;&gt;Node7 -->
<g id="edge7_Node000004_Node000007" class="edge">
<title>Node4&#45;&gt;Node7</title>
<g id="a_edge7_Node000004_Node000007"><a xlink:title=" ">
<path fill="none" stroke="#63b8ff" d="M1286.06,-219.98C1322.42,-210.89 1380.17,-196.46 1419.97,-186.51"/>
<polygon fill="#63b8ff" stroke="#63b8ff" points="1420.82,-189.9 1429.67,-184.08 1419.12,-183.11 1420.82,-189.9"/>
</a>
</g>
</g>
<!-- Node4&#45;&gt;Node8 -->
<g id="edge8_Node000004_Node000008" class="edge">
<title>Node4&#45;&gt;Node8</title>
<g id="a_edge8_Node000004_Node000008"><a xlink:title=" ">
<path fill="none" stroke="#63b8ff" d="M1299.72,-220.87C1353.04,-212.33 1442.23,-198.06 1528.76,-184.2"/>
<polygon fill="#63b8ff" stroke="#63b8ff" points="1529.43,-187.64 1538.75,-182.6 1528.33,-180.72 1529.43,-187.64"/>
</a>
</g>
</g>
<!-- Node9 -->
<g id="Node000009" class="node">
<title>Node9</title>
<g id="a_Node000009"><a xlink:title=" ">
<polygon fill="#e0e0e0" stroke="#999999" points="1389.5,-184 1318.5,-184 1318.5,-165 1389.5,-165 1389.5,-184"/>
<text text-anchor="middle" x="1354" y="-172" font-family="Helvetica,sans-Serif" font-size="10.00">driver/i2s.h</text>
</a>
</g>
</g>
<!-- Node4&#45;&gt;Node9 -->
<g id="edge9_Node000004_Node000009" class="edge">
<title>Node4&#45;&gt;Node9</title>
<g id="a_edge9_Node000004_Node000009"><a xlink:title=" ">
<path fill="none" stroke="#63b8ff" d="M1268.39,-219.98C1284.57,-211.57 1309.57,-198.59 1328.38,-188.81"/>
<polygon fill="#63b8ff" stroke="#63b8ff" points="1330.05,-191.89 1337.31,-184.17 1326.83,-185.68 1330.05,-191.89"/>
</a>
</g>
</g>
<!-- Node10 -->
<g id="Node000010" class="node">
<title>Node10</title>
<g id="a_Node000010"><a xlink:href="board__ctrl_8h.html" target="_top" xlink:title=" ">
<polygon fill="white" stroke="#666666" points="747,-184 673,-184 673,-165 747,-165 747,-184"/>
<text text-anchor="middle" x="710" y="-172" font-family="Helvetica,sans-Serif" font-size="10.00">board_ctrl.h</text>
</a>
</g>
</g>
<!-- Node4&#45;&gt;Node10 -->
<g id="edge10_Node000004_Node000010" class="edge">
<title>Node4&#45;&gt;Node10</title>
<g id="a_edge10_Node000004_Node000010"><a xlink:title=" ">
<path fill="none" stroke="#63b8ff" d="M1204.44,-221.2C1201.25,-220.78 1198.08,-220.37 1195,-220 1034.87,-200.73 844.11,-185.47 757.26,-178.94"/>
<polygon fill="#63b8ff" stroke="#63b8ff" points="757.42,-175.45 747.19,-178.19 756.9,-182.43 757.42,-175.45"/>
</a>
</g>
</g>
<!-- Node10&#45;&gt;Node3 -->
<g id="edge12_Node000010_Node000003" class="edge">
<title>Node10&#45;&gt;Node3</title>
<g id="a_edge12_Node000010_Node000003"><a xlink:title=" ">
<path fill="none" stroke="#63b8ff" d="M672.94,-173.91C571.11,-174.47 289.24,-171.99 209,-129 166.34,-106.15 136.01,-55.15 122.27,-28.11"/>
<polygon fill="#63b8ff" stroke="#63b8ff" points="125.36,-26.47 117.82,-19.03 119.08,-29.55 125.36,-26.47"/>
</a>
</g>
</g>
<!-- Node10&#45;&gt;Node11 -->
<g id="edge11_Node000010_Node000011" class="edge">
<title>Node10&#45;&gt;Node11</title>
<g id="a_edge11_Node000010_Node000011"><a xlink:title=" ">
<path fill="none" stroke="#63b8ff" d="M672.71,-172.84C637.09,-170.19 584.2,-160.68 552,-129 540.09,-117.28 535.58,-98.43 533.9,-84.31"/>
<polygon fill="#63b8ff" stroke="#63b8ff" points="537.38,-83.9 533.08,-74.22 530.41,-84.47 537.38,-83.9"/>
</a>
</g>
</g>
<!-- Node12 -->
<g id="Node000012" class="node">
<title>Node12</title>
<g id="a_Node000012"><a xlink:title=" ">
<polygon fill="#e0e0e0" stroke="#999999" points="292,-129 218,-129 218,-110 292,-110 292,-129"/>
<text text-anchor="middle" x="255" y="-117" font-family="Helvetica,sans-Serif" font-size="10.00">board_def.h</text>
</a>
</g>
</g>
<!-- Node10&#45;&gt;Node12 -->
<g id="edge13_Node000010_Node000012" class="edge">
<title>Node10&#45;&gt;Node12</title>
<g id="a_edge13_Node000010_Node000012"><a xlink:title=" ">
<path fill="none" stroke="#63b8ff" d="M672.94,-170.4C602.71,-164.32 445.18,-149.72 302.37,-129.1"/>
<polygon fill="#63b8ff" stroke="#63b8ff" points="302.52,-125.58 292.12,-127.6 301.51,-132.51 302.52,-125.58"/>
</a>
</g>
</g>
<!-- Node13 -->
<g id="Node000013" class="node">
<title>Node13</title>
<g id="a_Node000013"><a xlink:title=" ">
<polygon fill="#e0e0e0" stroke="#999999" points="383.5,-129 310.5,-129 310.5,-110 383.5,-110 383.5,-129"/>
<text text-anchor="middle" x="347" y="-117" font-family="Helvetica,sans-Serif" font-size="10.00">audio_hal.h</text>
</a>
</g>
</g>
<!-- Node10&#45;&gt;Node13 -->
<g id="edge14_Node000010_Node000013" class="edge">
<title>Node10&#45;&gt;Node13</title>
<g id="a_edge14_Node000010_Node000013"><a xlink:title=" ">
<path fill="none" stroke="#63b8ff" d="M672.71,-168.87C615.01,-161.57 500.43,-146.58 393.77,-129.23"/>
<polygon fill="#63b8ff" stroke="#63b8ff" points="394.25,-125.76 383.81,-127.6 393.11,-132.67 394.25,-125.76"/>
</a>
</g>
</g>
<!-- Node14 -->
<g id="Node000014" class="node">
<title>Node14</title>
<g id="a_Node000014"><a xlink:title=" ">
<polygon fill="#e0e0e0" stroke="#999999" points="504.5,-129 401.5,-129 401.5,-110 504.5,-110 504.5,-129"/>
<text text-anchor="middle" x="453" y="-117" font-family="Helvetica,sans-Serif" font-size="10.00">esxxx_common.h</text>
</a>
</g>
</g>
<!-- Node10&#45;&gt;Node14 -->
<g id="edge15_Node000010_Node000014" class="edge">
<title>Node10&#45;&gt;Node14</title>
<g id="a_edge15_Node000010_Node000014"><a xlink:title=" ">
<path fill="none" stroke="#63b8ff" d="M672.9,-165.85C628.56,-156.7 554.1,-141.35 504.27,-131.07"/>
<polygon fill="#63b8ff" stroke="#63b8ff" points="504.84,-127.62 494.34,-129.03 503.43,-134.47 504.84,-127.62"/>
</a>
</g>
</g>
<!-- Node15 -->
<g id="Node000015" class="node">
<title>Node15</title>
<g id="a_Node000015"><a xlink:href="sevetest30__gpio_8h.html" target="_top" xlink:title=" ">
<polygon fill="white" stroke="#666666" points="1022,-129 916,-129 916,-110 1022,-110 1022,-129"/>
<text text-anchor="middle" x="969" y="-117" font-family="Helvetica,sans-Serif" font-size="10.00">sevetest30_gpio.h</text>
</a>
</g>
</g>
<!-- Node10&#45;&gt;Node15 -->
<g id="edge16_Node000010_Node000015" class="edge">
<title>Node10&#45;&gt;Node15</title>
<g id="a_edge16_Node000010_Node000015"><a xlink:title=" ">
<path fill="none" stroke="#63b8ff" d="M747.11,-165.91C791.73,-156.78 866.89,-141.39 917.21,-131.1"/>
<polygon fill="#63b8ff" stroke="#63b8ff" points="918.15,-134.48 927.24,-129.05 916.74,-127.62 918.15,-134.48"/>
</a>
</g>
</g>
<!-- Node17 -->
<g id="Node000017" class="node">
<title>Node17</title>
<g id="a_Node000017"><a xlink:title=" ">
<polygon fill="#e0e0e0" stroke="#999999" points="632.5,-129 561.5,-129 561.5,-110 632.5,-110 632.5,-129"/>
<text text-anchor="middle" x="597" y="-117" font-family="Helvetica,sans-Serif" font-size="10.00">driver/i2c.h</text>
</a>
</g>
</g>
<!-- Node10&#45;&gt;Node17 -->
<g id="edge21_Node000010_Node000017" class="edge">
<title>Node10&#45;&gt;Node17</title>
<g id="a_edge21_Node000010_Node000017"><a xlink:title=" ">
<path fill="none" stroke="#63b8ff" d="M691.84,-164.98C673.75,-156.5 645.72,-143.35 624.81,-133.54"/>
<polygon fill="#63b8ff" stroke="#63b8ff" points="626.03,-130.25 615.49,-129.17 623.05,-136.59 626.03,-130.25"/>
</a>
</g>
</g>
<!-- Node18 -->
<g id="Node000018" class="node">
<title>Node18</title>
<g id="a_Node000018"><a xlink:title=" ">
<polygon fill="#e0e0e0" stroke="#999999" points="769.5,-129 650.5,-129 650.5,-110 769.5,-110 769.5,-129"/>
<text text-anchor="middle" x="710" y="-117" font-family="Helvetica,sans-Serif" font-size="10.00">driver/spi_common.h</text>
</a>
</g>
</g>
<!-- Node10&#45;&gt;Node18 -->
<g id="edge22_Node000010_Node000018" class="edge">
<title>Node10&#45;&gt;Node18</title>
<g id="a_edge22_Node000010_Node000018"><a xlink:title=" ">
<path fill="none" stroke="#63b8ff" d="M710,-164.75C710,-157.8 710,-147.85 710,-139.13"/>
<polygon fill="#63b8ff" stroke="#63b8ff" points="713.5,-139.09 710,-129.09 706.5,-139.09 713.5,-139.09"/>
</a>
</g>
</g>
<!-- Node19 -->
<g id="Node000019" class="node">
<title>Node19</title>
<g id="a_Node000019"><a xlink:title=" ">
<polygon fill="#e0e0e0" stroke="#999999" points="898,-129 788,-129 788,-110 898,-110 898,-129"/>
<text text-anchor="middle" x="843" y="-117" font-family="Helvetica,sans-Serif" font-size="10.00">driver/spi_master.h</text>
</a>
</g>
</g>
<!-- Node10&#45;&gt;Node19 -->
<g id="edge23_Node000010_Node000019" class="edge">
<title>Node10&#45;&gt;Node19</title>
<g id="a_edge23_Node000010_Node000019"><a xlink:title=" ">
<path fill="none" stroke="#63b8ff" d="M731.37,-164.98C753.15,-156.3 787.16,-142.75 811.92,-132.88"/>
<polygon fill="#63b8ff" stroke="#63b8ff" points="813.25,-136.12 821.24,-129.17 810.66,-129.62 813.25,-136.12"/>
</a>
</g>
</g>
<!-- Node20 -->
<g id="Node000020" class="node">
<title>Node20</title>
<g id="a_Node000020"><a xlink:title=" ">
<polygon fill="#e0e0e0" stroke="#999999" points="1143.5,-129 1040.5,-129 1040.5,-110 1143.5,-110 1143.5,-129"/>
<text text-anchor="middle" x="1092" y="-117" font-family="Helvetica,sans-Serif" font-size="10.00">esp_peripherals.h</text>
</a>
</g>
</g>
<!-- Node10&#45;&gt;Node20 -->
<g id="edge24_Node000010_Node000020" class="edge">
<title>Node10&#45;&gt;Node20</title>
<g id="a_edge24_Node000010_Node000020"><a xlink:title=" ">
<path fill="none" stroke="#63b8ff" d="M747.07,-168.37C805.03,-160.35 920.89,-144.3 1030.2,-129.11"/>
<polygon fill="#63b8ff" stroke="#63b8ff" points="1030.99,-132.53 1040.42,-127.69 1030.03,-125.6 1030.99,-132.53"/>
</a>
</g>
</g>
<!-- Node21 -->
<g id="Node000021" class="node">
<title>Node21</title>
<g id="a_Node000021"><a xlink:href="_b_l5372_8h.html" target="_top" xlink:title=" ">
<polygon fill="white" stroke="#666666" points="1224,-129 1162,-129 1162,-110 1224,-110 1224,-129"/>
<text text-anchor="middle" x="1193" y="-117" font-family="Helvetica,sans-Serif" font-size="10.00">BL5372.h</text>
</a>
</g>
</g>
<!-- Node10&#45;&gt;Node21 -->
<g id="edge25_Node000010_Node000021" class="edge">
<title>Node10&#45;&gt;Node21</title>
<g id="a_edge25_Node000010_Node000021"><a xlink:title=" ">
<path fill="none" stroke="#63b8ff" d="M747.13,-171.07C821.69,-165.92 995.12,-152.51 1151.45,-128.9"/>
<polygon fill="#63b8ff" stroke="#63b8ff" points="1152.37,-132.3 1161.72,-127.33 1151.31,-125.38 1152.37,-132.3"/>
</a>
</g>
</g>
<!-- Node16 -->
<g id="Node000016" class="node">
<title>Node16</title>
<g id="a_Node000016"><a xlink:href="_t_c_a6416_a_8h.html" target="_top" xlink:title=" ">
<polygon fill="white" stroke="#666666" points="1006.5,-74 931.5,-74 931.5,-55 1006.5,-55 1006.5,-74"/>
<text text-anchor="middle" x="969" y="-62" font-family="Helvetica,sans-Serif" font-size="10.00">TCA6416A.h</text>
</a>
</g>
</g>
<!-- Node15&#45;&gt;Node16 -->
<g id="edge17_Node000015_Node000016" class="edge">
<title>Node15&#45;&gt;Node16</title>
<g id="a_edge17_Node000015_Node000016"><a xlink:title=" ">
<path fill="none" stroke="#63b8ff" d="M969,-109.75C969,-102.8 969,-92.85 969,-84.13"/>
<polygon fill="#63b8ff" stroke="#63b8ff" points="972.5,-84.09 969,-74.09 965.5,-84.09 972.5,-84.09"/>
</a>
</g>
</g>
<!-- Node16&#45;&gt;Node3 -->
<g id="edge18_Node000016_Node000003" class="edge">
<title>Node16&#45;&gt;Node3</title>
<g id="a_edge18_Node000016_Node000003"><a xlink:title=" ">
<path fill="none" stroke="#63b8ff" d="M931.44,-61.17C790.08,-52.41 291.1,-21.48 150.89,-12.79"/>
<polygon fill="#63b8ff" stroke="#63b8ff" points="150.87,-9.28 140.68,-12.15 150.44,-16.27 150.87,-9.28"/>
</a>
</g>
</g>
<!-- Node16&#45;&gt;Node5 -->
<g id="edge19_Node000016_Node000005" class="edge">
<title>Node16&#45;&gt;Node5</title>
<g id="a_edge19_Node000016_Node000005"><a xlink:title=" ">
<path fill="none" stroke="#63b8ff" d="M969,-54.75C969,-47.8 969,-37.85 969,-29.13"/>
<polygon fill="#63b8ff" stroke="#63b8ff" points="972.5,-29.09 969,-19.09 965.5,-29.09 972.5,-29.09"/>
</a>
</g>
</g>
<!-- Node16&#45;&gt;Node6 -->
<g id="edge20_Node000016_Node000006" class="edge">
<title>Node16&#45;&gt;Node6</title>
<g id="a_edge20_Node000016_Node000006"><a xlink:title=" ">
<path fill="none" stroke="#63b8ff" d="M1006.64,-56.89C1063.62,-46.89 1171.35,-27.99 1230.16,-17.67"/>
<polygon fill="#63b8ff" stroke="#63b8ff" points="1230.96,-21.08 1240.21,-15.9 1229.75,-14.19 1230.96,-21.08"/>
</a>
</g>
</g>
<!-- Node21&#45;&gt;Node6 -->
<g id="edge27_Node000021_Node000006" class="edge">
<title>Node21&#45;&gt;Node6</title>
<g id="a_edge27_Node000021_Node000006"><a xlink:title=" ">
<path fill="none" stroke="#63b8ff" d="M1199.38,-109.66C1212.36,-91.69 1242.01,-50.64 1258.81,-27.38"/>
<polygon fill="#63b8ff" stroke="#63b8ff" points="1261.73,-29.31 1264.75,-19.16 1256.05,-25.22 1261.73,-29.31"/>
</a>
</g>
</g>
<!-- Node21&#45;&gt;Node11 -->
<g id="edge26_Node000021_Node000011" class="edge">
<title>Node21&#45;&gt;Node11</title>
<g id="a_edge26_Node000021_Node000011"><a xlink:title=" ">
<path fill="none" stroke="#63b8ff" d="M1161.74,-111.57C1158.46,-110.98 1155.17,-110.44 1152,-110 940.24,-80.57 684.85,-70.03 580.7,-66.77"/>
<polygon fill="#63b8ff" stroke="#63b8ff" points="580.61,-63.27 570.51,-66.46 580.4,-70.27 580.61,-63.27"/>
</a>
</g>
</g>
<!-- Node31&#45;&gt;Node6 -->
<g id="edge44_Node000031_Node000006" class="edge">
<title>Node31&#45;&gt;Node6</title>
<g id="a_edge44_Node000031_Node000006"><a xlink:title=" ">
<path fill="none" stroke="#63b8ff" d="M1150.82,-219.79C1170.04,-203.78 1210.25,-167.74 1233,-129 1252.08,-96.51 1262.8,-53.3 1267.69,-29.05"/>
<polygon fill="#63b8ff" stroke="#63b8ff" points="1271.16,-29.55 1269.59,-19.07 1264.28,-28.24 1271.16,-29.55"/>
</a>
</g>
</g>
<!-- Node31&#45;&gt;Node10 -->
<g id="edge45_Node000031_Node000010" class="edge">
<title>Node31&#45;&gt;Node10</title>
<g id="a_edge45_Node000031_Node000010"><a xlink:title=" ">
<path fill="none" stroke="#63b8ff" d="M1093.98,-222.83C1011.73,-212.69 840.32,-191.56 757.21,-181.32"/>
<polygon fill="#63b8ff" stroke="#63b8ff" points="757.64,-177.85 747.28,-180.1 756.78,-184.79 757.64,-177.85"/>
</a>
</g>
</g>
</g>
</svg>
