<?xml version="1.0" encoding="UTF-8" standalone="no"?>
<!DOCTYPE svg PUBLIC "-//W3C//DTD SVG 1.1//EN"
 "http://www.w3.org/Graphics/SVG/1.1/DTD/svg11.dtd">
<!-- Generated by graphviz version 2.43.0 (0)
 -->
<!-- Title: main/sevetest30_UI.c Pages: 1 -->
<svg width="2259pt" height="357pt"
 viewBox="0.00 0.00 2258.50 357.00" xmlns="http://www.w3.org/2000/svg" xmlns:xlink="http://www.w3.org/1999/xlink">
<g id="graph0" class="graph" transform="scale(1 1) rotate(0) translate(4 353)">
<title>main/sevetest30_UI.c</title>
<!-- Node1 -->
<g id="Node000001" class="node">
<title>Node1</title>
<g id="a_Node000001"><a xlink:title=" ">
<polygon fill="#999999" stroke="#666666" points="1843,-349 1721,-349 1721,-330 1843,-330 1843,-349"/>
<text text-anchor="middle" x="1782" y="-337" font-family="Helvetica,sans-Serif" font-size="10.00">main/sevetest30_UI.c</text>
</a>
</g>
</g>
<!-- Node2 -->
<g id="Node000002" class="node">
<title>Node2</title>
<g id="a_Node000002"><a xlink:href="sevetest30___u_i_8h.html" target="_top" xlink:title=" ">
<polygon fill="white" stroke="#666666" points="789.5,-239 694.5,-239 694.5,-220 789.5,-220 789.5,-239"/>
<text text-anchor="middle" x="742" y="-227" font-family="Helvetica,sans-Serif" font-size="10.00">sevetest30_UI.h</text>
</a>
</g>
</g>
<!-- Node1&#45;&gt;Node2 -->
<g id="edge1_Node000001_Node000002" class="edge">
<title>Node1&#45;&gt;Node2</title>
<g id="a_edge1_Node000001_Node000002"><a xlink:title=" ">
<path fill="none" stroke="#63b8ff" d="M1720.76,-336.07C1606.36,-331.13 1352.57,-318.28 1140,-294 1016.92,-279.94 873.71,-254.96 797.09,-240.88"/>
<polygon fill="#63b8ff" stroke="#63b8ff" points="797.65,-237.43 787.18,-239.05 796.38,-244.31 797.65,-237.43"/>
</a>
</g>
</g>
<!-- Node11 -->
<g id="Node000011" class="node">
<title>Node11</title>
<g id="a_Node000011"><a xlink:title=" ">
<polygon fill="#e0e0e0" stroke="#999999" points="1637,-74 1563,-74 1563,-55 1637,-55 1637,-74"/>
<text text-anchor="middle" x="1600" y="-62" font-family="Helvetica,sans-Serif" font-size="10.00">board_def.h</text>
</a>
</g>
</g>
<!-- Node1&#45;&gt;Node11 -->
<g id="edge62_Node000001_Node000011" class="edge">
<title>Node1&#45;&gt;Node11</title>
<g id="a_edge62_Node000001_Node000011"><a xlink:title=" ">
<path fill="none" stroke="#63b8ff" d="M1779.44,-329.91C1774.25,-311.74 1763,-268 1763,-230.5 1763,-230.5 1763,-230.5 1763,-173.5 1763,-117.56 1695.47,-88.89 1647.34,-75.56"/>
<polygon fill="#63b8ff" stroke="#63b8ff" points="1647.96,-72.1 1637.4,-72.94 1646.18,-78.87 1647.96,-72.1"/>
</a>
</g>
</g>
<!-- Node21 -->
<g id="Node000021" class="node">
<title>Node21</title>
<g id="a_Node000021"><a xlink:href="sevetest30__sound_8h.html" target="_top" xlink:title=" ">
<polygon fill="white" stroke="#666666" points="314,-239 200,-239 200,-220 314,-220 314,-239"/>
<text text-anchor="middle" x="257" y="-227" font-family="Helvetica,sans-Serif" font-size="10.00">sevetest30_sound.h</text>
</a>
</g>
</g>
<!-- Node1&#45;&gt;Node21 -->
<g id="edge26_Node000001_Node000021" class="edge">
<title>Node1&#45;&gt;Node21</title>
<g id="a_edge26_Node000001_Node000021"><a xlink:title=" ">
<path fill="none" stroke="#63b8ff" d="M1720.52,-335.55C1589.12,-329.13 1271.18,-312.92 1005,-294 753.75,-276.14 455.54,-249.06 324.48,-236.85"/>
<polygon fill="#63b8ff" stroke="#63b8ff" points="324.48,-233.34 314.2,-235.9 323.83,-240.31 324.48,-233.34"/>
</a>
</g>
</g>
<!-- Node23 -->
<g id="Node000023" class="node">
<title>Node23</title>
<g id="a_Node000023"><a xlink:href="sevetest30__touch_8h.html" target="_top" xlink:title=" ">
<polygon fill="white" stroke="#666666" points="1697,-294 1585,-294 1585,-275 1697,-275 1697,-294"/>
<text text-anchor="middle" x="1641" y="-282" font-family="Helvetica,sans-Serif" font-size="10.00">sevetest30_touch.h</text>
</a>
</g>
</g>
<!-- Node1&#45;&gt;Node23 -->
<g id="edge31_Node000001_Node000023" class="edge">
<title>Node1&#45;&gt;Node23</title>
<g id="a_edge31_Node000001_Node000023"><a xlink:title=" ">
<path fill="none" stroke="#63b8ff" d="M1759.35,-329.98C1736.15,-321.27 1699.88,-307.63 1673.6,-297.75"/>
<polygon fill="#63b8ff" stroke="#63b8ff" points="1674.66,-294.41 1664.07,-294.17 1672.2,-300.97 1674.66,-294.41"/>
</a>
</g>
</g>
<!-- Node26 -->
<g id="Node000026" class="node">
<title>Node26</title>
<g id="a_Node000026"><a xlink:href="sevetest30___i_w_e_d_a_8h.html" target="_top" xlink:title=" ">
<polygon fill="white" stroke="#666666" points="1773,-74 1655,-74 1655,-55 1773,-55 1773,-74"/>
<text text-anchor="middle" x="1714" y="-62" font-family="Helvetica,sans-Serif" font-size="10.00">sevetest30_IWEDA.h</text>
</a>
</g>
</g>
<!-- Node1&#45;&gt;Node26 -->
<g id="edge34_Node000001_Node000026" class="edge">
<title>Node1&#45;&gt;Node26</title>
<g id="a_edge34_Node000001_Node000026"><a xlink:title=" ">
<path fill="none" stroke="#63b8ff" d="M1784.56,-329.91C1789.75,-311.74 1801,-268 1801,-230.5 1801,-230.5 1801,-230.5 1801,-173.5 1801,-143.33 1795.46,-133.86 1777,-110 1767.17,-97.3 1752.73,-86.74 1740.15,-79.09"/>
<polygon fill="#63b8ff" stroke="#63b8ff" points="1741.83,-76.02 1731.42,-74.05 1738.33,-82.08 1741.83,-76.02"/>
</a>
</g>
</g>
<!-- Node29 -->
<g id="Node000029" class="node">
<title>Node29</title>
<g id="a_Node000029"><a xlink:href="sevetest30___s_w_e_d_a_8h.html" target="_top" xlink:title=" ">
<polygon fill="white" stroke="#666666" points="1598.5,-184 1477.5,-184 1477.5,-165 1598.5,-165 1598.5,-184"/>
<text text-anchor="middle" x="1538" y="-172" font-family="Helvetica,sans-Serif" font-size="10.00">sevetest30_SWEDA.h</text>
</a>
</g>
</g>
<!-- Node1&#45;&gt;Node29 -->
<g id="edge39_Node000001_Node000029" class="edge">
<title>Node1&#45;&gt;Node29</title>
<g id="a_edge39_Node000001_Node000029"><a xlink:title=" ">
<path fill="none" stroke="#63b8ff" d="M1775.21,-329.79C1768.38,-320.93 1757.65,-306.73 1749,-294 1727.23,-261.98 1734.08,-243.1 1703,-220 1675.82,-199.8 1640.07,-188.77 1608.8,-182.74"/>
<polygon fill="#63b8ff" stroke="#63b8ff" points="1609.28,-179.27 1598.82,-180.96 1608.05,-186.16 1609.28,-179.27"/>
</a>
</g>
</g>
<!-- Node34 -->
<g id="Node000034" class="node">
<title>Node34</title>
<g id="a_Node000034"><a xlink:href="sevetest30___led_array_8h.html" target="_top" xlink:title=" ">
<polygon fill="white" stroke="#666666" points="1276.5,-294 1149.5,-294 1149.5,-275 1276.5,-275 1276.5,-294"/>
<text text-anchor="middle" x="1213" y="-282" font-family="Helvetica,sans-Serif" font-size="10.00">sevetest30_LedArray.h</text>
</a>
</g>
</g>
<!-- Node1&#45;&gt;Node34 -->
<g id="edge53_Node000001_Node000034" class="edge">
<title>Node1&#45;&gt;Node34</title>
<g id="a_edge53_Node000001_Node000034"><a xlink:title=" ">
<path fill="none" stroke="#63b8ff" d="M1720.84,-332.8C1615.52,-322.99 1400.33,-302.95 1286.84,-292.38"/>
<polygon fill="#63b8ff" stroke="#63b8ff" points="1287.13,-288.89 1276.85,-291.45 1286.48,-295.86 1287.13,-288.89"/>
</a>
</g>
</g>
<!-- Node35 -->
<g id="Node000035" class="node">
<title>Node35</title>
<g id="a_Node000035"><a xlink:title=" ">
<polygon fill="#e0e0e0" stroke="#999999" points="1892.5,-294 1829.5,-294 1829.5,-275 1892.5,-275 1892.5,-294"/>
<text text-anchor="middle" x="1861" y="-282" font-family="Helvetica,sans-Serif" font-size="10.00">esp_log.h</text>
</a>
</g>
</g>
<!-- Node1&#45;&gt;Node35 -->
<g id="edge57_Node000001_Node000035" class="edge">
<title>Node1&#45;&gt;Node35</title>
<g id="a_edge57_Node000001_Node000035"><a xlink:title=" ">
<path fill="none" stroke="#63b8ff" d="M1794.69,-329.98C1806.83,-321.84 1825.36,-309.41 1839.75,-299.76"/>
<polygon fill="#63b8ff" stroke="#63b8ff" points="1841.72,-302.65 1848.08,-294.17 1837.82,-296.84 1841.72,-302.65"/>
</a>
</g>
</g>
<!-- Node36 -->
<g id="Node000036" class="node">
<title>Node36</title>
<g id="a_Node000036"><a xlink:title=" ">
<polygon fill="#e0e0e0" stroke="#999999" points="1961.5,-294 1910.5,-294 1910.5,-275 1961.5,-275 1961.5,-294"/>
<text text-anchor="middle" x="1936" y="-282" font-family="Helvetica,sans-Serif" font-size="10.00">math.h</text>
</a>
</g>
</g>
<!-- Node1&#45;&gt;Node36 -->
<g id="edge58_Node000001_Node000036" class="edge">
<title>Node1&#45;&gt;Node36</title>
<g id="a_edge58_Node000001_Node000036"><a xlink:title=" ">
<path fill="none" stroke="#63b8ff" d="M1806.74,-329.98C1832.37,-321.16 1872.63,-307.31 1901.41,-297.41"/>
<polygon fill="#63b8ff" stroke="#63b8ff" points="1902.75,-300.65 1911.06,-294.08 1900.47,-294.03 1902.75,-300.65"/>
</a>
</g>
</g>
<!-- Node37 -->
<g id="Node000037" class="node">
<title>Node37</title>
<g id="a_Node000037"><a xlink:title=" ">
<polygon fill="#e0e0e0" stroke="#999999" points="2066,-294 1980,-294 1980,-275 2066,-275 2066,-294"/>
<text text-anchor="middle" x="2023" y="-282" font-family="Helvetica,sans-Serif" font-size="10.00">esp_random.h</text>
</a>
</g>
</g>
<!-- Node1&#45;&gt;Node37 -->
<g id="edge59_Node000001_Node000037" class="edge">
<title>Node1&#45;&gt;Node37</title>
<g id="a_edge59_Node000001_Node000037"><a xlink:title=" ">
<path fill="none" stroke="#63b8ff" d="M1820.72,-329.98C1862.41,-320.82 1928.82,-306.21 1974.09,-296.26"/>
<polygon fill="#63b8ff" stroke="#63b8ff" points="1974.96,-299.65 1983.98,-294.08 1973.46,-292.81 1974.96,-299.65"/>
</a>
</g>
</g>
<!-- Node38 -->
<g id="Node000038" class="node">
<title>Node38</title>
<g id="a_Node000038"><a xlink:title=" ">
<polygon fill="#e0e0e0" stroke="#999999" points="2149.5,-294 2084.5,-294 2084.5,-275 2149.5,-275 2149.5,-294"/>
<text text-anchor="middle" x="2117" y="-282" font-family="Helvetica,sans-Serif" font-size="10.00">esp_dsp.h</text>
</a>
</g>
</g>
<!-- Node1&#45;&gt;Node38 -->
<g id="edge60_Node000001_Node000038" class="edge">
<title>Node1&#45;&gt;Node38</title>
<g id="a_edge60_Node000001_Node000038"><a xlink:title=" ">
<path fill="none" stroke="#63b8ff" d="M1843.03,-330.12C1900.19,-322.07 1988.25,-309.15 2074.51,-294.01"/>
<polygon fill="#63b8ff" stroke="#63b8ff" points="2075.23,-297.43 2084.47,-292.25 2074.01,-290.54 2075.23,-297.43"/>
</a>
</g>
</g>
<!-- Node39 -->
<g id="Node000039" class="node">
<title>Node39</title>
<g id="a_Node000039"><a xlink:title=" ">
<polygon fill="#e0e0e0" stroke="#999999" points="2250.5,-294 2167.5,-294 2167.5,-275 2250.5,-275 2250.5,-294"/>
<text text-anchor="middle" x="2209" y="-282" font-family="Helvetica,sans-Serif" font-size="10.00">audio_mem.h</text>
</a>
</g>
</g>
<!-- Node1&#45;&gt;Node39 -->
<g id="edge61_Node000001_Node000039" class="edge">
<title>Node1&#45;&gt;Node39</title>
<g id="a_edge61_Node000001_Node000039"><a xlink:title=" ">
<path fill="none" stroke="#63b8ff" d="M1843.18,-332.25C1915.74,-324.61 2040.62,-310.79 2157.12,-294.21"/>
<polygon fill="#63b8ff" stroke="#63b8ff" points="2157.88,-297.64 2167.28,-292.76 2156.89,-290.71 2157.88,-297.64"/>
</a>
</g>
</g>
<!-- Node3 -->
<g id="Node000003" class="node">
<title>Node3</title>
<g id="a_Node000003"><a xlink:title=" ">
<polygon fill="#e0e0e0" stroke="#999999" points="255.5,-19 202.5,-19 202.5,0 255.5,0 255.5,-19"/>
<text text-anchor="middle" x="229" y="-7" font-family="Helvetica,sans-Serif" font-size="10.00">string.h</text>
</a>
</g>
</g>
<!-- Node2&#45;&gt;Node3 -->
<g id="edge2_Node000002_Node000003" class="edge">
<title>Node2&#45;&gt;Node3</title>
<g id="a_edge2_Node000002_Node000003"><a xlink:title=" ">
<path fill="none" stroke="#63b8ff" d="M694.37,-225.99C637.82,-221.86 541.32,-211.17 463,-184 446.65,-178.33 445.12,-171.3 429,-165 365.14,-140.04 335.31,-168.11 279,-129 245.94,-106.04 234.65,-56.66 230.86,-29.46"/>
<polygon fill="#63b8ff" stroke="#63b8ff" points="234.31,-28.81 229.65,-19.29 227.36,-29.64 234.31,-28.81"/>
</a>
</g>
</g>
<!-- Node4 -->
<g id="Node000004" class="node">
<title>Node4</title>
<g id="a_Node000004"><a xlink:title=" ">
<polygon fill="#e0e0e0" stroke="#999999" points="421,-19 359,-19 359,0 421,0 421,-19"/>
<text text-anchor="middle" x="390" y="-7" font-family="Helvetica,sans-Serif" font-size="10.00">stdbool.h</text>
</a>
</g>
</g>
<!-- Node2&#45;&gt;Node4 -->
<g id="edge3_Node000002_Node000004" class="edge">
<title>Node2&#45;&gt;Node4</title>
<g id="a_edge3_Node000002_Node000004"><a xlink:title=" ">
<path fill="none" stroke="#63b8ff" d="M704.4,-219.98C598.51,-195.98 305.4,-129.5 305,-129 275.86,-92.48 332.88,-47.05 367,-24.52"/>
<polygon fill="#63b8ff" stroke="#63b8ff" points="369,-27.4 375.52,-19.05 365.21,-21.51 369,-27.4"/>
</a>
</g>
</g>
<!-- Node5 -->
<g id="Node000005" class="node">
<title>Node5</title>
<g id="a_Node000005"><a xlink:title=" ">
<polygon fill="#e0e0e0" stroke="#999999" points="1365.5,-19 1304.5,-19 1304.5,0 1365.5,0 1365.5,-19"/>
<text text-anchor="middle" x="1335" y="-7" font-family="Helvetica,sans-Serif" font-size="10.00">esp_err.h</text>
</a>
</g>
</g>
<!-- Node2&#45;&gt;Node5 -->
<g id="edge4_Node000002_Node000005" class="edge">
<title>Node2&#45;&gt;Node5</title>
<g id="a_edge4_Node000002_Node000005"><a xlink:title=" ">
<path fill="none" stroke="#63b8ff" d="M788.15,-219.96C860.05,-205.83 1002.47,-174.56 1117,-129 1192.27,-99.05 1274.6,-49.16 1312.99,-24.78"/>
<polygon fill="#63b8ff" stroke="#63b8ff" points="1315.24,-27.5 1321.78,-19.16 1311.47,-21.6 1315.24,-27.5"/>
</a>
</g>
</g>
<!-- Node6 -->
<g id="Node000006" class="node">
<title>Node6</title>
<g id="a_Node000006"><a xlink:title=" ">
<polygon fill="#e0e0e0" stroke="#999999" points="313.5,-184 200.5,-184 200.5,-165 313.5,-165 313.5,-184"/>
<text text-anchor="middle" x="257" y="-172" font-family="Helvetica,sans-Serif" font-size="10.00">freertos/FreeRTOS.h</text>
</a>
</g>
</g>
<!-- Node2&#45;&gt;Node6 -->
<g id="edge5_Node000002_Node000006" class="edge">
<title>Node2&#45;&gt;Node6</title>
<g id="a_edge5_Node000002_Node000006"><a xlink:title=" ">
<path fill="none" stroke="#63b8ff" d="M694.2,-223.77C618.19,-216.18 464.81,-200.55 323.66,-184.05"/>
<polygon fill="#63b8ff" stroke="#63b8ff" points="323.86,-180.55 313.52,-182.86 323.04,-187.5 323.86,-180.55"/>
</a>
</g>
</g>
<!-- Node7 -->
<g id="Node000007" class="node">
<title>Node7</title>
<g id="a_Node000007"><a xlink:title=" ">
<polygon fill="#e0e0e0" stroke="#999999" points="420,-184 332,-184 332,-165 420,-165 420,-184"/>
<text text-anchor="middle" x="376" y="-172" font-family="Helvetica,sans-Serif" font-size="10.00">freertos/task.h</text>
</a>
</g>
</g>
<!-- Node2&#45;&gt;Node7 -->
<g id="edge6_Node000002_Node000007" class="edge">
<title>Node2&#45;&gt;Node7</title>
<g id="a_edge6_Node000002_Node000007"><a xlink:title=" ">
<path fill="none" stroke="#63b8ff" d="M694.25,-221.63C633.7,-212.91 526.09,-197.4 434,-184 432.73,-183.81 431.44,-183.63 430.13,-183.44"/>
<polygon fill="#63b8ff" stroke="#63b8ff" points="430.42,-179.94 420.02,-181.96 429.41,-186.87 430.42,-179.94"/>
</a>
</g>
</g>
<!-- Node8 -->
<g id="Node000008" class="node">
<title>Node8</title>
<g id="a_Node000008"><a xlink:title=" ">
<polygon fill="#e0e0e0" stroke="#999999" points="868.5,-184 797.5,-184 797.5,-165 868.5,-165 868.5,-184"/>
<text text-anchor="middle" x="833" y="-172" font-family="Helvetica,sans-Serif" font-size="10.00">driver/i2s.h</text>
</a>
</g>
</g>
<!-- Node2&#45;&gt;Node8 -->
<g id="edge7_Node000002_Node000008" class="edge">
<title>Node2&#45;&gt;Node8</title>
<g id="a_edge7_Node000002_Node000008"><a xlink:title=" ">
<path fill="none" stroke="#63b8ff" d="M756.62,-219.98C770.86,-211.69 792.75,-198.94 809.45,-189.22"/>
<polygon fill="#63b8ff" stroke="#63b8ff" points="811.23,-192.23 818.11,-184.17 807.71,-186.18 811.23,-192.23"/>
</a>
</g>
</g>
<!-- Node9 -->
<g id="Node000009" class="node">
<title>Node9</title>
<g id="a_Node000009"><a xlink:href="board__ctrl_8h.html" target="_top" xlink:title=" ">
<polygon fill="white" stroke="#666666" points="779,-184 705,-184 705,-165 779,-165 779,-184"/>
<text text-anchor="middle" x="742" y="-172" font-family="Helvetica,sans-Serif" font-size="10.00">board_ctrl.h</text>
</a>
</g>
</g>
<!-- Node2&#45;&gt;Node9 -->
<g id="edge8_Node000002_Node000009" class="edge">
<title>Node2&#45;&gt;Node9</title>
<g id="a_edge8_Node000002_Node000009"><a xlink:title=" ">
<path fill="none" stroke="#63b8ff" d="M742,-219.75C742,-212.8 742,-202.85 742,-194.13"/>
<polygon fill="#63b8ff" stroke="#63b8ff" points="745.5,-194.09 742,-184.09 738.5,-194.09 745.5,-194.09"/>
</a>
</g>
</g>
<!-- Node9&#45;&gt;Node3 -->
<g id="edge10_Node000009_Node000003" class="edge">
<title>Node9&#45;&gt;Node3</title>
<g id="a_edge10_Node000009_Node000003"><a xlink:title=" ">
<path fill="none" stroke="#63b8ff" d="M704.81,-173.78C611.76,-173.84 371.6,-169.92 305,-129 267.3,-105.83 244.91,-56.16 235.03,-29.07"/>
<polygon fill="#63b8ff" stroke="#63b8ff" points="238.23,-27.59 231.66,-19.28 231.61,-29.87 238.23,-27.59"/>
</a>
</g>
</g>
<!-- Node10 -->
<g id="Node000010" class="node">
<title>Node10</title>
<g id="a_Node000010"><a xlink:title=" ">
<polygon fill="#e0e0e0" stroke="#999999" points="1372.5,-74 1297.5,-74 1297.5,-55 1372.5,-55 1372.5,-74"/>
<text text-anchor="middle" x="1335" y="-62" font-family="Helvetica,sans-Serif" font-size="10.00">esp_types.h</text>
</a>
</g>
</g>
<!-- Node9&#45;&gt;Node10 -->
<g id="edge9_Node000009_Node000010" class="edge">
<title>Node9&#45;&gt;Node10</title>
<g id="a_edge9_Node000009_Node000010"><a xlink:title=" ">
<path fill="none" stroke="#63b8ff" d="M779.12,-166.4C782.12,-165.9 785.11,-165.42 788,-165 933.53,-143.62 972.73,-157.68 1117,-129 1183.4,-115.8 1258.82,-91.74 1301.27,-77.32"/>
<polygon fill="#63b8ff" stroke="#63b8ff" points="1302.5,-80.6 1310.82,-74.05 1300.23,-73.98 1302.5,-80.6"/>
</a>
</g>
</g>
<!-- Node9&#45;&gt;Node11 -->
<g id="edge11_Node000009_Node000011" class="edge">
<title>Node9&#45;&gt;Node11</title>
<g id="a_edge11_Node000009_Node000011"><a xlink:title=" ">
<path fill="none" stroke="#63b8ff" d="M779.09,-166.21C782.1,-165.75 785.1,-165.34 788,-165 950.65,-146.08 1371.48,-188.59 1524,-129 1549.4,-119.08 1572.51,-97.07 1586.4,-81.76"/>
<polygon fill="#63b8ff" stroke="#63b8ff" points="1589.18,-83.9 1593.13,-74.07 1583.92,-79.29 1589.18,-83.9"/>
</a>
</g>
</g>
<!-- Node12 -->
<g id="Node000012" class="node">
<title>Node12</title>
<g id="a_Node000012"><a xlink:title=" ">
<polygon fill="#e0e0e0" stroke="#999999" points="511.5,-129 438.5,-129 438.5,-110 511.5,-110 511.5,-129"/>
<text text-anchor="middle" x="475" y="-117" font-family="Helvetica,sans-Serif" font-size="10.00">audio_hal.h</text>
</a>
</g>
</g>
<!-- Node9&#45;&gt;Node12 -->
<g id="edge12_Node000009_Node000012" class="edge">
<title>Node9&#45;&gt;Node12</title>
<g id="a_edge12_Node000009_Node000012"><a xlink:title=" ">
<path fill="none" stroke="#63b8ff" d="M704.87,-166.13C657.05,-156.64 573.9,-140.13 521.8,-129.79"/>
<polygon fill="#63b8ff" stroke="#63b8ff" points="522.3,-126.32 511.81,-127.81 520.94,-133.19 522.3,-126.32"/>
</a>
</g>
</g>
<!-- Node13 -->
<g id="Node000013" class="node">
<title>Node13</title>
<g id="a_Node000013"><a xlink:title=" ">
<polygon fill="#e0e0e0" stroke="#999999" points="632.5,-129 529.5,-129 529.5,-110 632.5,-110 632.5,-129"/>
<text text-anchor="middle" x="581" y="-117" font-family="Helvetica,sans-Serif" font-size="10.00">esxxx_common.h</text>
</a>
</g>
</g>
<!-- Node9&#45;&gt;Node13 -->
<g id="edge13_Node000009_Node000013" class="edge">
<title>Node9&#45;&gt;Node13</title>
<g id="a_edge13_Node000009_Node000013"><a xlink:title=" ">
<path fill="none" stroke="#63b8ff" d="M716.13,-164.98C689.22,-156.13 646.88,-142.19 616.77,-132.28"/>
<polygon fill="#63b8ff" stroke="#63b8ff" points="617.66,-128.88 607.07,-129.08 615.47,-135.53 617.66,-128.88"/>
</a>
</g>
</g>
<!-- Node14 -->
<g id="Node000014" class="node">
<title>Node14</title>
<g id="a_Node000014"><a xlink:href="sevetest30__gpio_8h.html" target="_top" xlink:title=" ">
<polygon fill="white" stroke="#666666" points="420,-129 314,-129 314,-110 420,-110 420,-129"/>
<text text-anchor="middle" x="367" y="-117" font-family="Helvetica,sans-Serif" font-size="10.00">sevetest30_gpio.h</text>
</a>
</g>
</g>
<!-- Node9&#45;&gt;Node14 -->
<g id="edge14_Node000009_Node000014" class="edge">
<title>Node9&#45;&gt;Node14</title>
<g id="a_edge14_Node000009_Node000014"><a xlink:title=" ">
<path fill="none" stroke="#63b8ff" d="M704.67,-168.22C640.58,-159.17 508.93,-140.56 430.28,-129.44"/>
<polygon fill="#63b8ff" stroke="#63b8ff" points="430.41,-125.93 420.02,-127.99 429.43,-132.86 430.41,-125.93"/>
</a>
</g>
</g>
<!-- Node16 -->
<g id="Node000016" class="node">
<title>Node16</title>
<g id="a_Node000016"><a xlink:title=" ">
<polygon fill="#e0e0e0" stroke="#999999" points="721.5,-129 650.5,-129 650.5,-110 721.5,-110 721.5,-129"/>
<text text-anchor="middle" x="686" y="-117" font-family="Helvetica,sans-Serif" font-size="10.00">driver/i2c.h</text>
</a>
</g>
</g>
<!-- Node9&#45;&gt;Node16 -->
<g id="edge19_Node000009_Node000016" class="edge">
<title>Node9&#45;&gt;Node16</title>
<g id="a_edge19_Node000009_Node000016"><a xlink:title=" ">
<path fill="none" stroke="#63b8ff" d="M733,-164.98C724.81,-157.23 712.49,-145.58 702.53,-136.14"/>
<polygon fill="#63b8ff" stroke="#63b8ff" points="704.83,-133.5 695.16,-129.17 700.02,-138.59 704.83,-133.5"/>
</a>
</g>
</g>
<!-- Node17 -->
<g id="Node000017" class="node">
<title>Node17</title>
<g id="a_Node000017"><a xlink:title=" ">
<polygon fill="#e0e0e0" stroke="#999999" points="858.5,-129 739.5,-129 739.5,-110 858.5,-110 858.5,-129"/>
<text text-anchor="middle" x="799" y="-117" font-family="Helvetica,sans-Serif" font-size="10.00">driver/spi_common.h</text>
</a>
</g>
</g>
<!-- Node9&#45;&gt;Node17 -->
<g id="edge20_Node000009_Node000017" class="edge">
<title>Node9&#45;&gt;Node17</title>
<g id="a_edge20_Node000009_Node000017"><a xlink:title=" ">
<path fill="none" stroke="#63b8ff" d="M751.16,-164.98C759.5,-157.23 772.03,-145.58 782.18,-136.14"/>
<polygon fill="#63b8ff" stroke="#63b8ff" points="784.74,-138.54 789.68,-129.17 779.97,-133.42 784.74,-138.54"/>
</a>
</g>
</g>
<!-- Node18 -->
<g id="Node000018" class="node">
<title>Node18</title>
<g id="a_Node000018"><a xlink:title=" ">
<polygon fill="#e0e0e0" stroke="#999999" points="987,-129 877,-129 877,-110 987,-110 987,-129"/>
<text text-anchor="middle" x="932" y="-117" font-family="Helvetica,sans-Serif" font-size="10.00">driver/spi_master.h</text>
</a>
</g>
</g>
<!-- Node9&#45;&gt;Node18 -->
<g id="edge21_Node000009_Node000018" class="edge">
<title>Node9&#45;&gt;Node18</title>
<g id="a_edge21_Node000009_Node000018"><a xlink:title=" ">
<path fill="none" stroke="#63b8ff" d="M772.53,-164.98C804.7,-156.01 855.56,-141.82 891.17,-131.89"/>
<polygon fill="#63b8ff" stroke="#63b8ff" points="892.54,-135.14 901.23,-129.08 890.66,-128.4 892.54,-135.14"/>
</a>
</g>
</g>
<!-- Node19 -->
<g id="Node000019" class="node">
<title>Node19</title>
<g id="a_Node000019"><a xlink:title=" ">
<polygon fill="#e0e0e0" stroke="#999999" points="1108.5,-129 1005.5,-129 1005.5,-110 1108.5,-110 1108.5,-129"/>
<text text-anchor="middle" x="1057" y="-117" font-family="Helvetica,sans-Serif" font-size="10.00">esp_peripherals.h</text>
</a>
</g>
</g>
<!-- Node9&#45;&gt;Node19 -->
<g id="edge22_Node000009_Node000019" class="edge">
<title>Node9&#45;&gt;Node19</title>
<g id="a_edge22_Node000009_Node000019"><a xlink:title=" ">
<path fill="none" stroke="#63b8ff" d="M779.15,-166.57C782.14,-166.03 785.12,-165.5 788,-165 858.96,-152.58 940.62,-139.2 995.18,-130.39"/>
<polygon fill="#63b8ff" stroke="#63b8ff" points="996.07,-133.79 1005.38,-128.74 994.95,-126.88 996.07,-133.79"/>
</a>
</g>
</g>
<!-- Node20 -->
<g id="Node000020" class="node">
<title>Node20</title>
<g id="a_Node000020"><a xlink:href="_b_l5372_8h.html" target="_top" xlink:title=" ">
<polygon fill="white" stroke="#666666" points="1303,-129 1241,-129 1241,-110 1303,-110 1303,-129"/>
<text text-anchor="middle" x="1272" y="-117" font-family="Helvetica,sans-Serif" font-size="10.00">BL5372.h</text>
</a>
</g>
</g>
<!-- Node9&#45;&gt;Node20 -->
<g id="edge23_Node000009_Node000020" class="edge">
<title>Node9&#45;&gt;Node20</title>
<g id="a_edge23_Node000009_Node000020"><a xlink:title=" ">
<path fill="none" stroke="#63b8ff" d="M779.11,-166.34C782.11,-165.85 785.1,-165.4 788,-165 965.28,-140.72 1010.88,-146.12 1189,-129 1202.54,-127.7 1217.31,-126.21 1230.59,-124.84"/>
<polygon fill="#63b8ff" stroke="#63b8ff" points="1231.29,-128.29 1240.87,-123.78 1230.57,-121.33 1231.29,-128.29"/>
</a>
</g>
</g>
<!-- Node15 -->
<g id="Node000015" class="node">
<title>Node15</title>
<g id="a_Node000015"><a xlink:href="_t_c_a6416_a_8h.html" target="_top" xlink:title=" ">
<polygon fill="white" stroke="#666666" points="427.5,-74 352.5,-74 352.5,-55 427.5,-55 427.5,-74"/>
<text text-anchor="middle" x="390" y="-62" font-family="Helvetica,sans-Serif" font-size="10.00">TCA6416A.h</text>
</a>
</g>
</g>
<!-- Node14&#45;&gt;Node15 -->
<g id="edge15_Node000014_Node000015" class="edge">
<title>Node14&#45;&gt;Node15</title>
<g id="a_edge15_Node000014_Node000015"><a xlink:title=" ">
<path fill="none" stroke="#63b8ff" d="M370.8,-109.75C373.91,-102.57 378.42,-92.18 382.29,-83.27"/>
<polygon fill="#63b8ff" stroke="#63b8ff" points="385.5,-84.66 386.27,-74.09 379.08,-81.87 385.5,-84.66"/>
</a>
</g>
</g>
<!-- Node15&#45;&gt;Node3 -->
<g id="edge16_Node000015_Node000003" class="edge">
<title>Node15&#45;&gt;Node3</title>
<g id="a_edge16_Node000015_Node000003"><a xlink:title=" ">
<path fill="none" stroke="#63b8ff" d="M364.13,-54.98C337.22,-46.13 294.88,-32.19 264.77,-22.28"/>
<polygon fill="#63b8ff" stroke="#63b8ff" points="265.66,-18.88 255.07,-19.08 263.47,-25.53 265.66,-18.88"/>
</a>
</g>
</g>
<!-- Node15&#45;&gt;Node4 -->
<g id="edge17_Node000015_Node000004" class="edge">
<title>Node15&#45;&gt;Node4</title>
<g id="a_edge17_Node000015_Node000004"><a xlink:title=" ">
<path fill="none" stroke="#63b8ff" d="M390,-54.75C390,-47.8 390,-37.85 390,-29.13"/>
<polygon fill="#63b8ff" stroke="#63b8ff" points="393.5,-29.09 390,-19.09 386.5,-29.09 393.5,-29.09"/>
</a>
</g>
</g>
<!-- Node15&#45;&gt;Node5 -->
<g id="edge18_Node000015_Node000005" class="edge">
<title>Node15&#45;&gt;Node5</title>
<g id="a_edge18_Node000015_Node000005"><a xlink:title=" ">
<path fill="none" stroke="#63b8ff" d="M427.63,-61.39C578.3,-52.94 1137.46,-21.58 1294.02,-12.8"/>
<polygon fill="#63b8ff" stroke="#63b8ff" points="1294.38,-16.28 1304.17,-12.23 1293.99,-9.29 1294.38,-16.28"/>
</a>
</g>
</g>
<!-- Node20&#45;&gt;Node5 -->
<g id="edge25_Node000020_Node000005" class="edge">
<title>Node20&#45;&gt;Node5</title>
<g id="a_edge25_Node000020_Node000005"><a xlink:title=" ">
<path fill="none" stroke="#63b8ff" d="M1272.66,-109.7C1273.95,-96.88 1277.66,-72.66 1288,-55 1294.61,-43.72 1304.92,-33.49 1314.2,-25.7"/>
<polygon fill="#63b8ff" stroke="#63b8ff" points="1316.65,-28.23 1322.31,-19.27 1312.3,-22.75 1316.65,-28.23"/>
</a>
</g>
</g>
<!-- Node20&#45;&gt;Node10 -->
<g id="edge24_Node000020_Node000010" class="edge">
<title>Node20&#45;&gt;Node10</title>
<g id="a_edge24_Node000020_Node000010"><a xlink:title=" ">
<path fill="none" stroke="#63b8ff" d="M1282.12,-109.98C1291.44,-102.15 1305.47,-90.34 1316.74,-80.86"/>
<polygon fill="#63b8ff" stroke="#63b8ff" points="1319.29,-83.29 1324.69,-74.17 1314.79,-77.93 1319.29,-83.29"/>
</a>
</g>
</g>
<!-- Node21&#45;&gt;Node4 -->
<g id="edge27_Node000021_Node000004" class="edge">
<title>Node21&#45;&gt;Node4</title>
<g id="a_edge27_Node000021_Node000004"><a xlink:title=" ">
<path fill="none" stroke="#63b8ff" d="M235.17,-219.82C212.06,-209.17 180.29,-189.47 191,-165 223.14,-91.52 311.34,-44.04 358.79,-23.01"/>
<polygon fill="#63b8ff" stroke="#63b8ff" points="360.2,-26.22 367.99,-19.04 357.42,-19.79 360.2,-26.22"/>
</a>
</g>
</g>
<!-- Node21&#45;&gt;Node6 -->
<g id="edge28_Node000021_Node000006" class="edge">
<title>Node21&#45;&gt;Node6</title>
<g id="a_edge28_Node000021_Node000006"><a xlink:title=" ">
<path fill="none" stroke="#63b8ff" d="M257,-219.75C257,-212.8 257,-202.85 257,-194.13"/>
<polygon fill="#63b8ff" stroke="#63b8ff" points="260.5,-194.09 257,-184.09 253.5,-194.09 260.5,-194.09"/>
</a>
</g>
</g>
<!-- Node21&#45;&gt;Node7 -->
<g id="edge29_Node000021_Node000007" class="edge">
<title>Node21&#45;&gt;Node7</title>
<g id="a_edge29_Node000021_Node000007"><a xlink:title=" ">
<path fill="none" stroke="#63b8ff" d="M276.12,-219.98C295.35,-211.42 325.23,-198.11 347.31,-188.28"/>
<polygon fill="#63b8ff" stroke="#63b8ff" points="348.82,-191.44 356.53,-184.17 345.97,-185.04 348.82,-191.44"/>
</a>
</g>
</g>
<!-- Node22 -->
<g id="Node000022" class="node">
<title>Node22</title>
<g id="a_Node000022"><a xlink:title=" ">
<polygon fill="#e0e0e0" stroke="#999999" points="143.5,-184 28.5,-184 28.5,-165 143.5,-165 143.5,-184"/>
<text text-anchor="middle" x="86" y="-172" font-family="Helvetica,sans-Serif" font-size="10.00">audio_event_iface.h</text>
</a>
</g>
</g>
<!-- Node21&#45;&gt;Node22 -->
<g id="edge30_Node000021_Node000022" class="edge">
<title>Node21&#45;&gt;Node22</title>
<g id="a_edge30_Node000021_Node000022"><a xlink:title=" ">
<path fill="none" stroke="#63b8ff" d="M229.53,-219.98C200.82,-211.09 155.58,-197.07 123.58,-187.15"/>
<polygon fill="#63b8ff" stroke="#63b8ff" points="124.28,-183.7 113.69,-184.08 122.2,-190.39 124.28,-183.7"/>
</a>
</g>
</g>
<!-- Node24 -->
<g id="Node000024" class="node">
<title>Node24</title>
<g id="a_Node000024"><a xlink:title=" ">
<polygon fill="#e0e0e0" stroke="#999999" points="1693.5,-239 1596.5,-239 1596.5,-220 1693.5,-220 1693.5,-239"/>
<text text-anchor="middle" x="1645" y="-227" font-family="Helvetica,sans-Serif" font-size="10.00">hal/gpio_types.h</text>
</a>
</g>
</g>
<!-- Node23&#45;&gt;Node24 -->
<g id="edge32_Node000023_Node000024" class="edge">
<title>Node23&#45;&gt;Node24</title>
<g id="a_edge32_Node000023_Node000024"><a xlink:title=" ">
<path fill="none" stroke="#63b8ff" d="M1641.66,-274.75C1642.18,-267.8 1642.94,-257.85 1643.59,-249.13"/>
<polygon fill="#63b8ff" stroke="#63b8ff" points="1647.09,-249.32 1644.35,-239.09 1640.11,-248.8 1647.09,-249.32"/>
</a>
</g>
</g>
<!-- Node25 -->
<g id="Node000025" class="node">
<title>Node25</title>
<g id="a_Node000025"><a xlink:title=" ">
<polygon fill="#e0e0e0" stroke="#999999" points="1578,-239 1482,-239 1482,-220 1578,-220 1578,-239"/>
<text text-anchor="middle" x="1530" y="-227" font-family="Helvetica,sans-Serif" font-size="10.00">driver/mcpwm.h</text>
</a>
</g>
</g>
<!-- Node23&#45;&gt;Node25 -->
<g id="edge33_Node000023_Node000025" class="edge">
<title>Node23&#45;&gt;Node25</title>
<g id="a_edge33_Node000023_Node000025"><a xlink:title=" ">
<path fill="none" stroke="#63b8ff" d="M1623.17,-274.98C1605.39,-266.5 1577.85,-253.35 1557.32,-243.54"/>
<polygon fill="#63b8ff" stroke="#63b8ff" points="1558.69,-240.32 1548.16,-239.17 1555.67,-246.64 1558.69,-240.32"/>
</a>
</g>
</g>
<!-- Node26&#45;&gt;Node4 -->
<g id="edge38_Node000026_Node000004" class="edge">
<title>Node26&#45;&gt;Node4</title>
<g id="a_edge38_Node000026_Node000004"><a xlink:title=" ">
<path fill="none" stroke="#63b8ff" d="M1654.69,-55.77C1651.76,-55.49 1648.85,-55.23 1646,-55 1169.75,-16.87 589.31,-11.41 431.34,-10.63"/>
<polygon fill="#63b8ff" stroke="#63b8ff" points="431.15,-7.13 421.13,-10.58 431.12,-14.13 431.15,-7.13"/>
</a>
</g>
</g>
<!-- Node26&#45;&gt;Node5 -->
<g id="edge37_Node000026_Node000005" class="edge">
<title>Node26&#45;&gt;Node5</title>
<g id="a_edge37_Node000026_Node000005"><a xlink:title=" ">
<path fill="none" stroke="#63b8ff" d="M1654.78,-55.22C1577.12,-44.36 1442.87,-25.58 1375.72,-16.19"/>
<polygon fill="#63b8ff" stroke="#63b8ff" points="1375.92,-12.69 1365.53,-14.77 1374.95,-19.62 1375.92,-12.69"/>
</a>
</g>
</g>
<!-- Node27 -->
<g id="Node000027" class="node">
<title>Node27</title>
<g id="a_Node000027"><a xlink:title=" ">
<polygon fill="#e0e0e0" stroke="#999999" points="1699.5,-19 1620.5,-19 1620.5,0 1699.5,0 1699.5,-19"/>
<text text-anchor="middle" x="1660" y="-7" font-family="Helvetica,sans-Serif" font-size="10.00">periph_wifi.h</text>
</a>
</g>
</g>
<!-- Node26&#45;&gt;Node27 -->
<g id="edge35_Node000026_Node000027" class="edge">
<title>Node26&#45;&gt;Node27</title>
<g id="a_edge35_Node000026_Node000027"><a xlink:title=" ">
<path fill="none" stroke="#63b8ff" d="M1705.08,-54.75C1697.22,-47.03 1685.57,-35.6 1676.08,-26.28"/>
<polygon fill="#63b8ff" stroke="#63b8ff" points="1678.34,-23.6 1668.75,-19.09 1673.44,-28.59 1678.34,-23.6"/>
</a>
</g>
</g>
<!-- Node28 -->
<g id="Node000028" class="node">
<title>Node28</title>
<g id="a_Node000028"><a xlink:title=" ">
<polygon fill="#e0e0e0" stroke="#999999" points="1818,-19 1718,-19 1718,0 1818,0 1818,-19"/>
<text text-anchor="middle" x="1768" y="-7" font-family="Helvetica,sans-Serif" font-size="10.00">esp_http_client.h</text>
</a>
</g>
</g>
<!-- Node26&#45;&gt;Node28 -->
<g id="edge36_Node000026_Node000028" class="edge">
<title>Node26&#45;&gt;Node28</title>
<g id="a_edge36_Node000026_Node000028"><a xlink:title=" ">
<path fill="none" stroke="#63b8ff" d="M1722.92,-54.75C1730.78,-47.03 1742.43,-35.6 1751.92,-26.28"/>
<polygon fill="#63b8ff" stroke="#63b8ff" points="1754.56,-28.59 1759.25,-19.09 1749.66,-23.6 1754.56,-28.59"/>
</a>
</g>
</g>
<!-- Node29&#45;&gt;Node4 -->
<g id="edge41_Node000029_Node000004" class="edge">
<title>Node29&#45;&gt;Node4</title>
<g id="a_edge41_Node000029_Node000004"><a xlink:title=" ">
<path fill="none" stroke="#63b8ff" d="M1477.28,-165.02C1415.5,-156.31 1317.01,-142.2 1232,-129 1180.81,-121.05 1168.22,-117.74 1117,-110 856.47,-70.66 542.38,-29.94 431.33,-15.75"/>
<polygon fill="#63b8ff" stroke="#63b8ff" points="431.58,-12.25 421.22,-14.46 430.7,-19.2 431.58,-12.25"/>
</a>
</g>
</g>
<!-- Node29&#45;&gt;Node11 -->
<g id="edge42_Node000029_Node000011" class="edge">
<title>Node29&#45;&gt;Node11</title>
<g id="a_edge42_Node000029_Node000011"><a xlink:title=" ">
<path fill="none" stroke="#63b8ff" d="M1598.72,-165.29C1641.25,-158.14 1692.75,-146.22 1706,-129 1726.12,-102.86 1683.83,-85.21 1646.84,-75.29"/>
<polygon fill="#63b8ff" stroke="#63b8ff" points="1647.66,-71.88 1637.1,-72.81 1645.93,-78.67 1647.66,-71.88"/>
</a>
</g>
</g>
<!-- Node29&#45;&gt;Node20 -->
<g id="edge49_Node000029_Node000020" class="edge">
<title>Node29&#45;&gt;Node20</title>
<g id="a_edge49_Node000029_Node000020"><a xlink:title=" ">
<path fill="none" stroke="#63b8ff" d="M1495.26,-164.98C1445.22,-155.01 1362.89,-138.61 1313.42,-128.75"/>
<polygon fill="#63b8ff" stroke="#63b8ff" points="1313.88,-125.28 1303.39,-126.75 1312.51,-132.14 1313.88,-125.28"/>
</a>
</g>
</g>
<!-- Node30 -->
<g id="Node000030" class="node">
<title>Node30</title>
<g id="a_Node000030"><a xlink:title=" ">
<polygon fill="#e0e0e0" stroke="#999999" points="1697,-129 1647,-129 1647,-110 1697,-110 1697,-129"/>
<text text-anchor="middle" x="1672" y="-117" font-family="Helvetica,sans-Serif" font-size="10.00">stdio.h</text>
</a>
</g>
</g>
<!-- Node29&#45;&gt;Node30 -->
<g id="edge40_Node000029_Node000030" class="edge">
<title>Node29&#45;&gt;Node30</title>
<g id="a_edge40_Node000029_Node000030"><a xlink:title=" ">
<path fill="none" stroke="#63b8ff" d="M1559.53,-164.98C1581.47,-156.3 1615.74,-142.75 1640.69,-132.88"/>
<polygon fill="#63b8ff" stroke="#63b8ff" points="1642.07,-136.1 1650.08,-129.17 1639.49,-129.59 1642.07,-136.1"/>
</a>
</g>
</g>
<!-- Node31 -->
<g id="Node000031" class="node">
<title>Node31</title>
<g id="a_Node000031"><a xlink:href="_a_h_t21_8h.html" target="_top" xlink:title=" ">
<polygon fill="white" stroke="#666666" points="1417,-129 1359,-129 1359,-110 1417,-110 1417,-129"/>
<text text-anchor="middle" x="1388" y="-117" font-family="Helvetica,sans-Serif" font-size="10.00">AHT21.h</text>
</a>
</g>
</g>
<!-- Node29&#45;&gt;Node31 -->
<g id="edge43_Node000029_Node000031" class="edge">
<title>Node29&#45;&gt;Node31</title>
<g id="a_edge43_Node000029_Node000031"><a xlink:title=" ">
<path fill="none" stroke="#63b8ff" d="M1513.9,-164.98C1489.12,-156.23 1450.3,-142.51 1422.31,-132.62"/>
<polygon fill="#63b8ff" stroke="#63b8ff" points="1423.13,-129.2 1412.54,-129.17 1420.8,-135.8 1423.13,-129.2"/>
</a>
</g>
</g>
<!-- Node32 -->
<g id="Node000032" class="node">
<title>Node32</title>
<g id="a_Node000032"><a xlink:href="_a_g_s10_8h.html" target="_top" xlink:title=" ">
<polygon fill="white" stroke="#666666" points="1629,-129 1571,-129 1571,-110 1629,-110 1629,-129"/>
<text text-anchor="middle" x="1600" y="-117" font-family="Helvetica,sans-Serif" font-size="10.00">AGS10.h</text>
</a>
</g>
</g>
<!-- Node29&#45;&gt;Node32 -->
<g id="edge46_Node000029_Node000032" class="edge">
<title>Node29&#45;&gt;Node32</title>
<g id="a_edge46_Node000029_Node000032"><a xlink:title=" ">
<path fill="none" stroke="#63b8ff" d="M1547.96,-164.98C1557.13,-157.15 1570.94,-145.34 1582.03,-135.86"/>
<polygon fill="#63b8ff" stroke="#63b8ff" points="1584.53,-138.33 1589.86,-129.17 1579.98,-133.01 1584.53,-138.33"/>
</a>
</g>
</g>
<!-- Node33 -->
<g id="Node000033" class="node">
<title>Node33</title>
<g id="a_Node000033"><a xlink:href="lsm6ds3trc_8h.html" target="_top" xlink:title=" ">
<polygon fill="white" stroke="#666666" points="1515,-129 1435,-129 1435,-110 1515,-110 1515,-129"/>
<text text-anchor="middle" x="1475" y="-117" font-family="Helvetica,sans-Serif" font-size="10.00">lsm6ds3trc.h</text>
</a>
</g>
</g>
<!-- Node29&#45;&gt;Node33 -->
<g id="edge50_Node000029_Node000033" class="edge">
<title>Node29&#45;&gt;Node33</title>
<g id="a_edge50_Node000029_Node000033"><a xlink:title=" ">
<path fill="none" stroke="#63b8ff" d="M1527.88,-164.98C1518.56,-157.15 1504.53,-145.34 1493.26,-135.86"/>
<polygon fill="#63b8ff" stroke="#63b8ff" points="1495.21,-132.93 1485.31,-129.17 1490.71,-138.29 1495.21,-132.93"/>
</a>
</g>
</g>
<!-- Node31&#45;&gt;Node5 -->
<g id="edge45_Node000031_Node000005" class="edge">
<title>Node31&#45;&gt;Node5</title>
<g id="a_edge45_Node000031_Node000005"><a xlink:title=" ">
<path fill="none" stroke="#63b8ff" d="M1388.84,-109.77C1389.68,-97.04 1389.79,-72.93 1381,-55 1375.31,-43.39 1365.28,-33.14 1356.04,-25.41"/>
<polygon fill="#63b8ff" stroke="#63b8ff" points="1357.96,-22.46 1347.93,-19.06 1353.64,-27.98 1357.96,-22.46"/>
</a>
</g>
</g>
<!-- Node31&#45;&gt;Node10 -->
<g id="edge44_Node000031_Node000010" class="edge">
<title>Node31&#45;&gt;Node10</title>
<g id="a_edge44_Node000031_Node000010"><a xlink:title=" ">
<path fill="none" stroke="#63b8ff" d="M1379.25,-109.75C1371.53,-102.03 1360.1,-90.6 1350.78,-81.28"/>
<polygon fill="#63b8ff" stroke="#63b8ff" points="1353.14,-78.69 1343.59,-74.09 1348.19,-83.64 1353.14,-78.69"/>
</a>
</g>
</g>
<!-- Node32&#45;&gt;Node10 -->
<g id="edge47_Node000032_Node000010" class="edge">
<title>Node32&#45;&gt;Node10</title>
<g id="a_edge47_Node000032_Node000010"><a xlink:title=" ">
<path fill="none" stroke="#63b8ff" d="M1570.88,-112.68C1525.44,-103.59 1437.21,-85.94 1382.48,-75"/>
<polygon fill="#63b8ff" stroke="#63b8ff" points="1383.16,-71.56 1372.67,-73.03 1381.79,-78.43 1383.16,-71.56"/>
</a>
</g>
</g>
<!-- Node32&#45;&gt;Node11 -->
<g id="edge48_Node000032_Node000011" class="edge">
<title>Node32&#45;&gt;Node11</title>
<g id="a_edge48_Node000032_Node000011"><a xlink:title=" ">
<path fill="none" stroke="#63b8ff" d="M1600,-109.75C1600,-102.8 1600,-92.85 1600,-84.13"/>
<polygon fill="#63b8ff" stroke="#63b8ff" points="1603.5,-84.09 1600,-74.09 1596.5,-84.09 1603.5,-84.09"/>
</a>
</g>
</g>
<!-- Node33&#45;&gt;Node5 -->
<g id="edge52_Node000033_Node000005" class="edge">
<title>Node33&#45;&gt;Node5</title>
<g id="a_edge52_Node000033_Node000005"><a xlink:title=" ">
<path fill="none" stroke="#63b8ff" d="M1464.74,-109.62C1450.16,-97.11 1422.51,-73.72 1398,-55 1384.3,-44.53 1368.44,-33.34 1356.07,-24.8"/>
<polygon fill="#63b8ff" stroke="#63b8ff" points="1357.98,-21.86 1347.75,-19.09 1354.02,-27.64 1357.98,-21.86"/>
</a>
</g>
</g>
<!-- Node33&#45;&gt;Node10 -->
<g id="edge51_Node000033_Node000010" class="edge">
<title>Node33&#45;&gt;Node10</title>
<g id="a_edge51_Node000033_Node000010"><a xlink:title=" ">
<path fill="none" stroke="#63b8ff" d="M1452.51,-109.98C1429.48,-101.27 1393.46,-87.63 1367.37,-77.75"/>
<polygon fill="#63b8ff" stroke="#63b8ff" points="1368.49,-74.44 1357.9,-74.17 1366.02,-80.98 1368.49,-74.44"/>
</a>
</g>
</g>
<!-- Node34&#45;&gt;Node2 -->
<g id="edge55_Node000034_Node000002" class="edge">
<title>Node34&#45;&gt;Node2</title>
<g id="a_edge55_Node000034_Node000002"><a xlink:title=" ">
<path fill="none" stroke="#63b8ff" d="M1149.48,-276.35C1057.45,-266 888.39,-246.97 799.73,-237"/>
<polygon fill="#63b8ff" stroke="#63b8ff" points="799.92,-233.5 789.59,-235.85 799.13,-240.45 799.92,-233.5"/>
</a>
</g>
</g>
<!-- Node34&#45;&gt;Node3 -->
<g id="edge54_Node000034_Node000003" class="edge">
<title>Node34&#45;&gt;Node3</title>
<g id="a_edge54_Node000034_Node000003"><a xlink:title=" ">
<path fill="none" stroke="#63b8ff" d="M1149.23,-282.94C955.59,-280.88 376.33,-272.06 191,-239 102.93,-223.29 0,-264.96 0,-175.5 0,-175.5 0,-175.5 0,-118.5 0,-34.6 127.31,-15.77 192.08,-11.62"/>
<polygon fill="#63b8ff" stroke="#63b8ff" points="192.49,-15.11 202.28,-11.06 192.1,-8.12 192.49,-15.11"/>
</a>
</g>
</g>
<!-- Node34&#45;&gt;Node10 -->
<g id="edge56_Node000034_Node000010" class="edge">
<title>Node34&#45;&gt;Node10</title>
<g id="a_edge56_Node000034_Node000010"><a xlink:title=" ">
<path fill="none" stroke="#63b8ff" d="M1219.53,-274.86C1236.54,-252.03 1282.94,-187.84 1312,-129 1319.22,-114.38 1325.38,-96.91 1329.51,-83.99"/>
<polygon fill="#63b8ff" stroke="#63b8ff" points="1332.87,-84.97 1332.47,-74.38 1326.18,-82.91 1332.87,-84.97"/>
</a>
</g>
</g>
</g>
</svg>
