<?xml version="1.0" encoding="UTF-8" standalone="no"?>
<!DOCTYPE svg PUBLIC "-//W3C//DTD SVG 1.1//EN"
 "http://www.w3.org/Graphics/SVG/1.1/DTD/svg11.dtd">
<!-- Generated by graphviz version 2.43.0 (0)
 -->
<!-- Title: main/sevetest30_LedArray.c Pages: 1 -->
<svg width="2256pt" height="357pt"
 viewBox="0.00 0.00 2255.50 357.00" xmlns="http://www.w3.org/2000/svg" xmlns:xlink="http://www.w3.org/1999/xlink">
<g id="graph0" class="graph" transform="scale(1 1) rotate(0) translate(4 353)">
<title>main/sevetest30_LedArray.c</title>
<!-- Node1 -->
<g id="Node000001" class="node">
<title>Node1</title>
<g id="a_Node000001"><a xlink:title=" ">
<polygon fill="#999999" stroke="#666666" points="1679,-349 1525,-349 1525,-330 1679,-330 1679,-349"/>
<text text-anchor="middle" x="1602" y="-337" font-family="Helvetica,sans-Serif" font-size="10.00">main/sevetest30_LedArray.c</text>
</a>
</g>
</g>
<!-- Node2 -->
<g id="Node000002" class="node">
<title>Node2</title>
<g id="a_Node000002"><a xlink:href="sevetest30___led_array_8h.html" target="_top" xlink:title=" ">
<polygon fill="white" stroke="#666666" points="1164.5,-294 1037.5,-294 1037.5,-275 1164.5,-275 1164.5,-294"/>
<text text-anchor="middle" x="1101" y="-282" font-family="Helvetica,sans-Serif" font-size="10.00">sevetest30_LedArray.h</text>
</a>
</g>
</g>
<!-- Node1&#45;&gt;Node2 -->
<g id="edge1_Node000001_Node000002" class="edge">
<title>Node1&#45;&gt;Node2</title>
<g id="a_edge1_Node000001_Node000002"><a xlink:title=" ">
<path fill="none" stroke="#63b8ff" d="M1524.82,-330.33C1429.48,-320.25 1268.44,-303.21 1174.72,-293.3"/>
<polygon fill="#63b8ff" stroke="#63b8ff" points="1175.07,-289.82 1164.75,-292.24 1174.33,-296.78 1175.07,-289.82"/>
</a>
</g>
</g>
<!-- Node3 -->
<g id="Node000003" class="node">
<title>Node3</title>
<g id="a_Node000003"><a xlink:title=" ">
<polygon fill="#e0e0e0" stroke="#999999" points="633.5,-19 580.5,-19 580.5,0 633.5,0 633.5,-19"/>
<text text-anchor="middle" x="607" y="-7" font-family="Helvetica,sans-Serif" font-size="10.00">string.h</text>
</a>
</g>
</g>
<!-- Node1&#45;&gt;Node3 -->
<g id="edge33_Node000001_Node000003" class="edge">
<title>Node1&#45;&gt;Node3</title>
<g id="a_edge33_Node000001_Node000003"><a xlink:title=" ">
<path fill="none" stroke="#63b8ff" d="M1524.73,-337.38C1204.73,-332.26 0,-307.85 0,-230.5 0,-230.5 0,-230.5 0,-118.5 0,-54.2 68.09,-72.38 130,-55 212.78,-31.76 472.97,-17.03 570.02,-12.23"/>
<polygon fill="#63b8ff" stroke="#63b8ff" points="570.41,-15.71 580.23,-11.73 570.07,-8.72 570.41,-15.71"/>
</a>
</g>
</g>
<!-- Node4 -->
<g id="Node000004" class="node">
<title>Node4</title>
<g id="a_Node000004"><a xlink:href="sevetest30___u_i_8h.html" target="_top" xlink:title=" ">
<polygon fill="white" stroke="#666666" points="1260.5,-239 1165.5,-239 1165.5,-220 1260.5,-220 1260.5,-239"/>
<text text-anchor="middle" x="1213" y="-227" font-family="Helvetica,sans-Serif" font-size="10.00">sevetest30_UI.h</text>
</a>
</g>
</g>
<!-- Node1&#45;&gt;Node4 -->
<g id="edge27_Node000001_Node000004" class="edge">
<title>Node1&#45;&gt;Node4</title>
<g id="a_edge27_Node000001_Node000004"><a xlink:title=" ">
<path fill="none" stroke="#63b8ff" d="M1550.23,-329.97C1506.36,-322.23 1442,-309.64 1387,-294 1335.34,-279.31 1277.03,-256.76 1242.73,-242.86"/>
<polygon fill="#63b8ff" stroke="#63b8ff" points="1243.89,-239.55 1233.31,-239.01 1241.24,-246.03 1243.89,-239.55"/>
</a>
</g>
</g>
<!-- Node5 -->
<g id="Node000005" class="node">
<title>Node5</title>
<g id="a_Node000005"><a xlink:title=" ">
<polygon fill="#e0e0e0" stroke="#999999" points="1244,-19 1182,-19 1182,0 1244,0 1244,-19"/>
<text text-anchor="middle" x="1213" y="-7" font-family="Helvetica,sans-Serif" font-size="10.00">stdbool.h</text>
</a>
</g>
</g>
<!-- Node1&#45;&gt;Node5 -->
<g id="edge34_Node000001_Node000005" class="edge">
<title>Node1&#45;&gt;Node5</title>
<g id="a_edge34_Node000001_Node000005"><a xlink:title=" ">
<path fill="none" stroke="#63b8ff" d="M1572.86,-329.87C1555.65,-323.1 1535.26,-311.79 1525,-294 1495.37,-242.65 1591.27,-214.74 1559,-165 1490.28,-59.05 1330.06,-25.12 1254.21,-14.78"/>
<polygon fill="#63b8ff" stroke="#63b8ff" points="1254.45,-11.28 1244.09,-13.47 1253.55,-18.22 1254.45,-11.28"/>
</a>
</g>
</g>
<!-- Node7 -->
<g id="Node000007" class="node">
<title>Node7</title>
<g id="a_Node000007"><a xlink:title=" ">
<polygon fill="#e0e0e0" stroke="#999999" points="1443.5,-184 1330.5,-184 1330.5,-165 1443.5,-165 1443.5,-184"/>
<text text-anchor="middle" x="1387" y="-172" font-family="Helvetica,sans-Serif" font-size="10.00">freertos/FreeRTOS.h</text>
</a>
</g>
</g>
<!-- Node1&#45;&gt;Node7 -->
<g id="edge28_Node000001_Node000007" class="edge">
<title>Node1&#45;&gt;Node7</title>
<g id="a_edge28_Node000001_Node000007"><a xlink:title=" ">
<path fill="none" stroke="#63b8ff" d="M1561.3,-329.93C1535.91,-323.17 1503.52,-311.83 1479,-294 1441.07,-266.41 1410.97,-218.99 1396.46,-193.3"/>
<polygon fill="#63b8ff" stroke="#63b8ff" points="1399.41,-191.39 1391.53,-184.31 1393.27,-194.76 1399.41,-191.39"/>
</a>
</g>
</g>
<!-- Node8 -->
<g id="Node000008" class="node">
<title>Node8</title>
<g id="a_Node000008"><a xlink:title=" ">
<polygon fill="#e0e0e0" stroke="#999999" points="1550,-184 1462,-184 1462,-165 1550,-165 1550,-184"/>
<text text-anchor="middle" x="1506" y="-172" font-family="Helvetica,sans-Serif" font-size="10.00">freertos/task.h</text>
</a>
</g>
</g>
<!-- Node1&#45;&gt;Node8 -->
<g id="edge29_Node000001_Node000008" class="edge">
<title>Node1&#45;&gt;Node8</title>
<g id="a_edge29_Node000001_Node000008"><a xlink:title=" ">
<path fill="none" stroke="#63b8ff" d="M1547.84,-329.92C1526.76,-323.65 1504.67,-312.79 1492,-294 1471.43,-263.49 1486.15,-218.27 1497.08,-193.44"/>
<polygon fill="#63b8ff" stroke="#63b8ff" points="1500.36,-194.69 1501.43,-184.15 1494.02,-191.73 1500.36,-194.69"/>
</a>
</g>
</g>
<!-- Node22 -->
<g id="Node000022" class="node">
<title>Node22</title>
<g id="a_Node000022"><a xlink:title=" ">
<polygon fill="#e0e0e0" stroke="#999999" points="1590,-294 1534,-294 1534,-275 1590,-275 1590,-294"/>
<text text-anchor="middle" x="1562" y="-282" font-family="Helvetica,sans-Serif" font-size="10.00">stdarg.h</text>
</a>
</g>
</g>
<!-- Node1&#45;&gt;Node22 -->
<g id="edge30_Node000001_Node000022" class="edge">
<title>Node1&#45;&gt;Node22</title>
<g id="a_edge30_Node000001_Node000022"><a xlink:title=" ">
<path fill="none" stroke="#63b8ff" d="M1595.39,-329.75C1589.74,-322.26 1581.46,-311.28 1574.55,-302.13"/>
<polygon fill="#63b8ff" stroke="#63b8ff" points="1577.3,-299.96 1568.48,-294.09 1571.71,-304.18 1577.3,-299.96"/>
</a>
</g>
</g>
<!-- Node23 -->
<g id="Node000023" class="node">
<title>Node23</title>
<g id="a_Node000023"><a xlink:title=" ">
<polygon fill="#e0e0e0" stroke="#999999" points="1676,-294 1608,-294 1608,-275 1676,-275 1676,-294"/>
<text text-anchor="middle" x="1642" y="-282" font-family="Helvetica,sans-Serif" font-size="10.00">led_strip.h</text>
</a>
</g>
</g>
<!-- Node1&#45;&gt;Node23 -->
<g id="edge31_Node000001_Node000023" class="edge">
<title>Node1&#45;&gt;Node23</title>
<g id="a_edge31_Node000001_Node000023"><a xlink:title=" ">
<path fill="none" stroke="#63b8ff" d="M1608.61,-329.75C1614.26,-322.26 1622.54,-311.28 1629.45,-302.13"/>
<polygon fill="#63b8ff" stroke="#63b8ff" points="1632.29,-304.18 1635.52,-294.09 1626.7,-299.96 1632.29,-304.18"/>
</a>
</g>
</g>
<!-- Node24 -->
<g id="Node000024" class="node">
<title>Node24</title>
<g id="a_Node000024"><a xlink:title=" ">
<polygon fill="#e0e0e0" stroke="#999999" points="1745.5,-294 1694.5,-294 1694.5,-275 1745.5,-275 1745.5,-294"/>
<text text-anchor="middle" x="1720" y="-282" font-family="Helvetica,sans-Serif" font-size="10.00">math.h</text>
</a>
</g>
</g>
<!-- Node1&#45;&gt;Node24 -->
<g id="edge32_Node000001_Node000024" class="edge">
<title>Node1&#45;&gt;Node24</title>
<g id="a_edge32_Node000001_Node000024"><a xlink:title=" ">
<path fill="none" stroke="#63b8ff" d="M1620.96,-329.98C1640.03,-321.42 1669.66,-308.11 1691.55,-298.28"/>
<polygon fill="#63b8ff" stroke="#63b8ff" points="1693.01,-301.46 1700.7,-294.17 1690.14,-295.07 1693.01,-301.46"/>
</a>
</g>
</g>
<!-- Node25 -->
<g id="Node000025" class="node">
<title>Node25</title>
<g id="a_Node000025"><a xlink:title=" ">
<polygon fill="#e0e0e0" stroke="#999999" points="1822.5,-294 1763.5,-294 1763.5,-275 1822.5,-275 1822.5,-294"/>
<text text-anchor="middle" x="1793" y="-282" font-family="Helvetica,sans-Serif" font-size="10.00">malloc.h</text>
</a>
</g>
</g>
<!-- Node1&#45;&gt;Node25 -->
<g id="edge35_Node000001_Node000025" class="edge">
<title>Node1&#45;&gt;Node25</title>
<g id="a_edge35_Node000001_Node000025"><a xlink:title=" ">
<path fill="none" stroke="#63b8ff" d="M1632.69,-329.98C1665.56,-320.86 1717.82,-306.36 1753.68,-296.41"/>
<polygon fill="#63b8ff" stroke="#63b8ff" points="1754.63,-299.78 1763.33,-293.73 1752.76,-293.03 1754.63,-299.78"/>
</a>
</g>
</g>
<!-- Node26 -->
<g id="Node000026" class="node">
<title>Node26</title>
<g id="a_Node000026"><a xlink:title=" ">
<polygon fill="#e0e0e0" stroke="#999999" points="1891,-294 1841,-294 1841,-275 1891,-275 1891,-294"/>
<text text-anchor="middle" x="1866" y="-282" font-family="Helvetica,sans-Serif" font-size="10.00">stdio.h</text>
</a>
</g>
</g>
<!-- Node1&#45;&gt;Node26 -->
<g id="edge36_Node000001_Node000026" class="edge">
<title>Node1&#45;&gt;Node26</title>
<g id="a_edge36_Node000001_Node000026"><a xlink:title=" ">
<path fill="none" stroke="#63b8ff" d="M1650.17,-329.96C1694.63,-321.9 1762.71,-309.13 1830.75,-294.18"/>
<polygon fill="#63b8ff" stroke="#63b8ff" points="1831.78,-297.54 1840.78,-291.96 1830.26,-290.71 1831.78,-297.54"/>
</a>
</g>
</g>
<!-- Node27 -->
<g id="Node000027" class="node">
<title>Node27</title>
<g id="a_Node000027"><a xlink:title=" ">
<polygon fill="#e0e0e0" stroke="#999999" points="1962.5,-294 1909.5,-294 1909.5,-275 1962.5,-275 1962.5,-294"/>
<text text-anchor="middle" x="1936" y="-282" font-family="Helvetica,sans-Serif" font-size="10.00">stdlib.h</text>
</a>
</g>
</g>
<!-- Node1&#45;&gt;Node27 -->
<g id="edge37_Node000001_Node000027" class="edge">
<title>Node1&#45;&gt;Node27</title>
<g id="a_edge37_Node000001_Node000027"><a xlink:title=" ">
<path fill="none" stroke="#63b8ff" d="M1670.03,-329.99C1728.3,-322.32 1814.65,-310.07 1899.28,-293.99"/>
<polygon fill="#63b8ff" stroke="#63b8ff" points="1900.16,-297.39 1909.32,-292.06 1898.84,-290.51 1900.16,-297.39"/>
</a>
</g>
</g>
<!-- Node28 -->
<g id="Node000028" class="node">
<title>Node28</title>
<g id="a_Node000028"><a xlink:title=" ">
<polygon fill="#e0e0e0" stroke="#999999" points="2043.5,-294 1980.5,-294 1980.5,-275 2043.5,-275 2043.5,-294"/>
<text text-anchor="middle" x="2012" y="-282" font-family="Helvetica,sans-Serif" font-size="10.00">esp_log.h</text>
</a>
</g>
</g>
<!-- Node1&#45;&gt;Node28 -->
<g id="edge38_Node000001_Node000028" class="edge">
<title>Node1&#45;&gt;Node28</title>
<g id="a_edge38_Node000001_Node000028"><a xlink:title=" ">
<path fill="none" stroke="#63b8ff" d="M1679.17,-331.25C1751.95,-323.96 1864.26,-311.5 1970.26,-294.17"/>
<polygon fill="#63b8ff" stroke="#63b8ff" points="1970.88,-297.62 1980.17,-292.53 1969.74,-290.71 1970.88,-297.62"/>
</a>
</g>
</g>
<!-- Node29 -->
<g id="Node000029" class="node">
<title>Node29</title>
<g id="a_Node000029"><a xlink:title=" ">
<polygon fill="#e0e0e0" stroke="#999999" points="2136,-294 2062,-294 2062,-275 2136,-275 2136,-294"/>
<text text-anchor="middle" x="2099" y="-282" font-family="Helvetica,sans-Serif" font-size="10.00">driver/rmt.h</text>
</a>
</g>
</g>
<!-- Node1&#45;&gt;Node29 -->
<g id="edge39_Node000001_Node000029" class="edge">
<title>Node1&#45;&gt;Node29</title>
<g id="a_edge39_Node000001_Node000029"><a xlink:title=" ">
<path fill="none" stroke="#63b8ff" d="M1679.24,-332.87C1767.05,-326.03 1914.88,-313.14 2051.64,-294.08"/>
<polygon fill="#63b8ff" stroke="#63b8ff" points="2052.47,-297.5 2061.89,-292.64 2051.5,-290.56 2052.47,-297.5"/>
</a>
</g>
</g>
<!-- Node30 -->
<g id="Node000030" class="node">
<title>Node30</title>
<g id="a_Node000030"><a xlink:title=" ">
<polygon fill="#e0e0e0" stroke="#999999" points="2247.5,-294 2154.5,-294 2154.5,-275 2247.5,-275 2247.5,-294"/>
<text text-anchor="middle" x="2201" y="-282" font-family="Helvetica,sans-Serif" font-size="10.00">hal/rmt_types.h</text>
</a>
</g>
</g>
<!-- Node1&#45;&gt;Node30 -->
<g id="edge40_Node000001_Node000030" class="edge">
<title>Node1&#45;&gt;Node30</title>
<g id="a_edge40_Node000001_Node000030"><a xlink:title=" ">
<path fill="none" stroke="#63b8ff" d="M1679.05,-333.86C1782.44,-327.26 1972.02,-313.85 2144.27,-294"/>
<polygon fill="#63b8ff" stroke="#63b8ff" points="2144.75,-297.47 2154.28,-292.84 2143.94,-290.52 2144.75,-297.47"/>
</a>
</g>
</g>
<!-- Node31 -->
<g id="Node000031" class="node">
<title>Node31</title>
<g id="a_Node000031"><a xlink:href="gt32l32s0140_8h.html" target="_top" xlink:title=" ">
<polygon fill="white" stroke="#666666" points="732,-239 640,-239 640,-220 732,-220 732,-239"/>
<text text-anchor="middle" x="686" y="-227" font-family="Helvetica,sans-Serif" font-size="10.00">gt32l32s0140.h</text>
</a>
</g>
</g>
<!-- Node1&#45;&gt;Node31 -->
<g id="edge41_Node000001_Node000031" class="edge">
<title>Node1&#45;&gt;Node31</title>
<g id="a_edge41_Node000001_Node000031"><a xlink:title=" ">
<path fill="none" stroke="#63b8ff" d="M1524.67,-335.12C1414.17,-329.69 1204.9,-317.21 1028,-294 922.71,-280.18 800.71,-255.39 734.62,-241.21"/>
<polygon fill="#63b8ff" stroke="#63b8ff" points="735.02,-237.72 724.51,-239.03 733.55,-244.56 735.02,-237.72"/>
</a>
</g>
</g>
<!-- Node2&#45;&gt;Node3 -->
<g id="edge2_Node000002_Node000003" class="edge">
<title>Node2&#45;&gt;Node3</title>
<g id="a_edge2_Node000002_Node000003"><a xlink:title=" ">
<path fill="none" stroke="#63b8ff" d="M1037.29,-283.75C807.96,-283.82 38,-276.54 38,-175.5 38,-175.5 38,-175.5 38,-118.5 38,-64.15 443.82,-24.57 570.02,-13.58"/>
<polygon fill="#63b8ff" stroke="#63b8ff" points="570.66,-17.04 580.32,-12.69 570.06,-10.06 570.66,-17.04"/>
</a>
</g>
</g>
<!-- Node2&#45;&gt;Node4 -->
<g id="edge3_Node000002_Node000004" class="edge">
<title>Node2&#45;&gt;Node4</title>
<g id="a_edge3_Node000002_Node000004"><a xlink:title=" ">
<path fill="none" stroke="#63b8ff" d="M1118.99,-274.98C1136.93,-266.5 1164.72,-253.35 1185.43,-243.54"/>
<polygon fill="#63b8ff" stroke="#63b8ff" points="1187.14,-246.61 1194.68,-239.17 1184.14,-240.28 1187.14,-246.61"/>
</a>
</g>
</g>
<!-- Node11 -->
<g id="Node000011" class="node">
<title>Node11</title>
<g id="a_Node000011"><a xlink:title=" ">
<polygon fill="#e0e0e0" stroke="#999999" points="991.5,-74 916.5,-74 916.5,-55 991.5,-55 991.5,-74"/>
<text text-anchor="middle" x="954" y="-62" font-family="Helvetica,sans-Serif" font-size="10.00">esp_types.h</text>
</a>
</g>
</g>
<!-- Node2&#45;&gt;Node11 -->
<g id="edge26_Node000002_Node000011" class="edge">
<title>Node2&#45;&gt;Node11</title>
<g id="a_edge26_Node000002_Node000011"><a xlink:title=" ">
<path fill="none" stroke="#63b8ff" d="M1096.39,-274.84C1082.42,-248.88 1038.74,-169.79 994,-110 986.62,-100.14 977.51,-89.88 969.84,-81.69"/>
<polygon fill="#63b8ff" stroke="#63b8ff" points="972.21,-79.11 962.77,-74.29 967.15,-83.94 972.21,-79.11"/>
</a>
</g>
</g>
<!-- Node4&#45;&gt;Node3 -->
<g id="edge4_Node000004_Node000003" class="edge">
<title>Node4&#45;&gt;Node3</title>
<g id="a_edge4_Node000004_Node000003"><a xlink:title=" ">
<path fill="none" stroke="#63b8ff" d="M1212.36,-219.75C1209.7,-190.6 1196.86,-96.27 1140,-55 1100.01,-25.97 757.95,-14.45 643.86,-11.39"/>
<polygon fill="#63b8ff" stroke="#63b8ff" points="643.64,-7.88 633.55,-11.12 643.46,-14.88 643.64,-7.88"/>
</a>
</g>
</g>
<!-- Node4&#45;&gt;Node5 -->
<g id="edge5_Node000004_Node000005" class="edge">
<title>Node4&#45;&gt;Node5</title>
<g id="a_edge5_Node000004_Node000005"><a xlink:title=" ">
<path fill="none" stroke="#63b8ff" d="M1213,-219.95C1213,-187.95 1213,-74.68 1213,-29.4"/>
<polygon fill="#63b8ff" stroke="#63b8ff" points="1216.5,-29.22 1213,-19.22 1209.5,-29.22 1216.5,-29.22"/>
</a>
</g>
</g>
<!-- Node6 -->
<g id="Node000006" class="node">
<title>Node6</title>
<g id="a_Node000006"><a xlink:title=" ">
<polygon fill="#e0e0e0" stroke="#999999" points="630.5,-184 569.5,-184 569.5,-165 630.5,-165 630.5,-184"/>
<text text-anchor="middle" x="600" y="-172" font-family="Helvetica,sans-Serif" font-size="10.00">esp_err.h</text>
</a>
</g>
</g>
<!-- Node4&#45;&gt;Node6 -->
<g id="edge6_Node000004_Node000006" class="edge">
<title>Node4&#45;&gt;Node6</title>
<g id="a_edge6_Node000004_Node000006"><a xlink:title=" ">
<path fill="none" stroke="#63b8ff" d="M1165.22,-226.92C1068.25,-223.25 841.26,-212.33 640.64,-183.87"/>
<polygon fill="#63b8ff" stroke="#63b8ff" points="640.9,-180.37 630.5,-182.41 639.9,-187.3 640.9,-180.37"/>
</a>
</g>
</g>
<!-- Node4&#45;&gt;Node7 -->
<g id="edge7_Node000004_Node000007" class="edge">
<title>Node4&#45;&gt;Node7</title>
<g id="a_edge7_Node000004_Node000007"><a xlink:title=" ">
<path fill="none" stroke="#63b8ff" d="M1240.96,-219.98C1270.3,-211.05 1316.6,-196.94 1349.19,-187.02"/>
<polygon fill="#63b8ff" stroke="#63b8ff" points="1350.28,-190.34 1358.82,-184.08 1348.24,-183.65 1350.28,-190.34"/>
</a>
</g>
</g>
<!-- Node4&#45;&gt;Node8 -->
<g id="edge8_Node000004_Node000008" class="edge">
<title>Node4&#45;&gt;Node8</title>
<g id="a_edge8_Node000004_Node000008"><a xlink:title=" ">
<path fill="none" stroke="#63b8ff" d="M1260.08,-219.98C1312.46,-210.51 1396.97,-195.22 1452,-185.27"/>
<polygon fill="#63b8ff" stroke="#63b8ff" points="1452.7,-188.7 1461.92,-183.47 1451.45,-181.81 1452.7,-188.7"/>
</a>
</g>
</g>
<!-- Node9 -->
<g id="Node000009" class="node">
<title>Node9</title>
<g id="a_Node000009"><a xlink:title=" ">
<polygon fill="#e0e0e0" stroke="#999999" points="1312.5,-184 1241.5,-184 1241.5,-165 1312.5,-165 1312.5,-184"/>
<text text-anchor="middle" x="1277" y="-172" font-family="Helvetica,sans-Serif" font-size="10.00">driver/i2s.h</text>
</a>
</g>
</g>
<!-- Node4&#45;&gt;Node9 -->
<g id="edge9_Node000004_Node000009" class="edge">
<title>Node4&#45;&gt;Node9</title>
<g id="a_edge9_Node000004_Node000009"><a xlink:title=" ">
<path fill="none" stroke="#63b8ff" d="M1223.28,-219.98C1232.84,-212.07 1247.28,-200.11 1258.78,-190.58"/>
<polygon fill="#63b8ff" stroke="#63b8ff" points="1261.06,-193.24 1266.53,-184.17 1256.6,-187.85 1261.06,-193.24"/>
</a>
</g>
</g>
<!-- Node10 -->
<g id="Node000010" class="node">
<title>Node10</title>
<g id="a_Node000010"><a xlink:href="board__ctrl_8h.html" target="_top" xlink:title=" ">
<polygon fill="white" stroke="#666666" points="723,-184 649,-184 649,-165 723,-165 723,-184"/>
<text text-anchor="middle" x="686" y="-172" font-family="Helvetica,sans-Serif" font-size="10.00">board_ctrl.h</text>
</a>
</g>
</g>
<!-- Node4&#45;&gt;Node10 -->
<g id="edge10_Node000004_Node000010" class="edge">
<title>Node4&#45;&gt;Node10</title>
<g id="a_edge10_Node000004_Node000010"><a xlink:title=" ">
<path fill="none" stroke="#63b8ff" d="M1165.3,-223.7C1064.97,-213.61 833.13,-190.3 733.22,-180.25"/>
<polygon fill="#63b8ff" stroke="#63b8ff" points="733.42,-176.75 723.12,-179.23 732.72,-183.72 733.42,-176.75"/>
</a>
</g>
</g>
<!-- Node10&#45;&gt;Node3 -->
<g id="edge12_Node000010_Node000003" class="edge">
<title>Node10&#45;&gt;Node3</title>
<g id="a_edge12_Node000010_Node000003"><a xlink:title=" ">
<path fill="none" stroke="#63b8ff" d="M678.97,-164.68C672.24,-155.96 662.09,-142.08 655,-129 636.65,-95.14 621.12,-52.74 613.02,-28.93"/>
<polygon fill="#63b8ff" stroke="#63b8ff" points="616.24,-27.51 609.75,-19.13 609.6,-29.72 616.24,-27.51"/>
</a>
</g>
</g>
<!-- Node10&#45;&gt;Node11 -->
<g id="edge11_Node000010_Node000011" class="edge">
<title>Node10&#45;&gt;Node11</title>
<g id="a_edge11_Node000010_Node000011"><a xlink:title=" ">
<path fill="none" stroke="#63b8ff" d="M678.08,-164.69C667.12,-151.41 650.17,-126.11 664,-110 694.65,-74.28 832.18,-66.94 906.3,-65.62"/>
<polygon fill="#63b8ff" stroke="#63b8ff" points="906.38,-69.12 916.32,-65.48 906.27,-62.12 906.38,-69.12"/>
</a>
</g>
</g>
<!-- Node12 -->
<g id="Node000012" class="node">
<title>Node12</title>
<g id="a_Node000012"><a xlink:title=" ">
<polygon fill="#e0e0e0" stroke="#999999" points="140,-129 66,-129 66,-110 140,-110 140,-129"/>
<text text-anchor="middle" x="103" y="-117" font-family="Helvetica,sans-Serif" font-size="10.00">board_def.h</text>
</a>
</g>
</g>
<!-- Node10&#45;&gt;Node12 -->
<g id="edge13_Node000010_Node000012" class="edge">
<title>Node10&#45;&gt;Node12</title>
<g id="a_edge13_Node000010_Node000012"><a xlink:title=" ">
<path fill="none" stroke="#63b8ff" d="M648.86,-166.41C645.53,-165.89 642.21,-165.41 639,-165 425.65,-137.95 367.33,-156.31 150.23,-129.01"/>
<polygon fill="#63b8ff" stroke="#63b8ff" points="150.46,-125.51 140.1,-127.72 149.58,-132.45 150.46,-125.51"/>
</a>
</g>
</g>
<!-- Node13 -->
<g id="Node000013" class="node">
<title>Node13</title>
<g id="a_Node000013"><a xlink:title=" ">
<polygon fill="#e0e0e0" stroke="#999999" points="231.5,-129 158.5,-129 158.5,-110 231.5,-110 231.5,-129"/>
<text text-anchor="middle" x="195" y="-117" font-family="Helvetica,sans-Serif" font-size="10.00">audio_hal.h</text>
</a>
</g>
</g>
<!-- Node10&#45;&gt;Node13 -->
<g id="edge14_Node000010_Node000013" class="edge">
<title>Node10&#45;&gt;Node13</title>
<g id="a_edge14_Node000010_Node000013"><a xlink:title=" ">
<path fill="none" stroke="#63b8ff" d="M648.85,-166.47C645.52,-165.93 642.2,-165.43 639,-165 465.83,-141.58 418.11,-153.1 241.92,-129.15"/>
<polygon fill="#63b8ff" stroke="#63b8ff" points="242.17,-125.65 231.79,-127.75 241.22,-132.58 242.17,-125.65"/>
</a>
</g>
</g>
<!-- Node14 -->
<g id="Node000014" class="node">
<title>Node14</title>
<g id="a_Node000014"><a xlink:title=" ">
<polygon fill="#e0e0e0" stroke="#999999" points="352.5,-129 249.5,-129 249.5,-110 352.5,-110 352.5,-129"/>
<text text-anchor="middle" x="301" y="-117" font-family="Helvetica,sans-Serif" font-size="10.00">esxxx_common.h</text>
</a>
</g>
</g>
<!-- Node10&#45;&gt;Node14 -->
<g id="edge15_Node000010_Node000014" class="edge">
<title>Node10&#45;&gt;Node14</title>
<g id="a_edge15_Node000010_Node000014"><a xlink:title=" ">
<path fill="none" stroke="#63b8ff" d="M648.83,-166.6C645.51,-166.04 642.2,-165.5 639,-165 519.13,-146.41 486.18,-145.76 362.92,-129.24"/>
<polygon fill="#63b8ff" stroke="#63b8ff" points="363.08,-125.73 352.71,-127.86 362.15,-132.67 363.08,-125.73"/>
</a>
</g>
</g>
<!-- Node15 -->
<g id="Node000015" class="node">
<title>Node15</title>
<g id="a_Node000015"><a xlink:href="sevetest30__gpio_8h.html" target="_top" xlink:title=" ">
<polygon fill="white" stroke="#666666" points="1147,-129 1041,-129 1041,-110 1147,-110 1147,-129"/>
<text text-anchor="middle" x="1094" y="-117" font-family="Helvetica,sans-Serif" font-size="10.00">sevetest30_gpio.h</text>
</a>
</g>
</g>
<!-- Node10&#45;&gt;Node15 -->
<g id="edge16_Node000010_Node000015" class="edge">
<title>Node10&#45;&gt;Node15</title>
<g id="a_edge16_Node000010_Node000015"><a xlink:title=" ">
<path fill="none" stroke="#63b8ff" d="M723.29,-168.66C793.14,-159.58 944.39,-139.93 1030.55,-128.74"/>
<polygon fill="#63b8ff" stroke="#63b8ff" points="1031.26,-132.18 1040.73,-127.42 1030.36,-125.24 1031.26,-132.18"/>
</a>
</g>
</g>
<!-- Node17 -->
<g id="Node000017" class="node">
<title>Node17</title>
<g id="a_Node000017"><a xlink:title=" ">
<polygon fill="#e0e0e0" stroke="#999999" points="441.5,-129 370.5,-129 370.5,-110 441.5,-110 441.5,-129"/>
<text text-anchor="middle" x="406" y="-117" font-family="Helvetica,sans-Serif" font-size="10.00">driver/i2c.h</text>
</a>
</g>
</g>
<!-- Node10&#45;&gt;Node17 -->
<g id="edge20_Node000010_Node000017" class="edge">
<title>Node10&#45;&gt;Node17</title>
<g id="a_edge20_Node000010_Node000017"><a xlink:title=" ">
<path fill="none" stroke="#63b8ff" d="M648.79,-166.54C604.28,-158.2 527.22,-143.72 451.7,-129.32"/>
<polygon fill="#63b8ff" stroke="#63b8ff" points="452.02,-125.82 441.54,-127.38 450.71,-132.69 452.02,-125.82"/>
</a>
</g>
</g>
<!-- Node18 -->
<g id="Node000018" class="node">
<title>Node18</title>
<g id="a_Node000018"><a xlink:title=" ">
<polygon fill="#e0e0e0" stroke="#999999" points="578.5,-129 459.5,-129 459.5,-110 578.5,-110 578.5,-129"/>
<text text-anchor="middle" x="519" y="-117" font-family="Helvetica,sans-Serif" font-size="10.00">driver/spi_common.h</text>
</a>
</g>
</g>
<!-- Node10&#45;&gt;Node18 -->
<g id="edge21_Node000010_Node000018" class="edge">
<title>Node10&#45;&gt;Node18</title>
<g id="a_edge21_Node000010_Node000018"><a xlink:title=" ">
<path fill="none" stroke="#63b8ff" d="M659.17,-164.98C631.13,-156.09 586.95,-142.07 555.7,-132.15"/>
<polygon fill="#63b8ff" stroke="#63b8ff" points="556.63,-128.77 546.04,-129.08 554.51,-135.44 556.63,-128.77"/>
</a>
</g>
</g>
<!-- Node19 -->
<g id="Node000019" class="node">
<title>Node19</title>
<g id="a_Node000019"><a xlink:title=" ">
<polygon fill="#e0e0e0" stroke="#999999" points="783,-129 673,-129 673,-110 783,-110 783,-129"/>
<text text-anchor="middle" x="728" y="-117" font-family="Helvetica,sans-Serif" font-size="10.00">driver/spi_master.h</text>
</a>
</g>
</g>
<!-- Node10&#45;&gt;Node19 -->
<g id="edge22_Node000010_Node000019" class="edge">
<title>Node10&#45;&gt;Node19</title>
<g id="a_edge22_Node000010_Node000019"><a xlink:title=" ">
<path fill="none" stroke="#63b8ff" d="M692.94,-164.75C698.87,-157.26 707.57,-146.28 714.82,-137.13"/>
<polygon fill="#63b8ff" stroke="#63b8ff" points="717.73,-139.1 721.19,-129.09 712.24,-134.75 717.73,-139.1"/>
</a>
</g>
</g>
<!-- Node20 -->
<g id="Node000020" class="node">
<title>Node20</title>
<g id="a_Node000020"><a xlink:title=" ">
<polygon fill="#e0e0e0" stroke="#999999" points="904.5,-129 801.5,-129 801.5,-110 904.5,-110 904.5,-129"/>
<text text-anchor="middle" x="853" y="-117" font-family="Helvetica,sans-Serif" font-size="10.00">esp_peripherals.h</text>
</a>
</g>
</g>
<!-- Node10&#45;&gt;Node20 -->
<g id="edge23_Node000010_Node000020" class="edge">
<title>Node10&#45;&gt;Node20</title>
<g id="a_edge23_Node000010_Node000020"><a xlink:title=" ">
<path fill="none" stroke="#63b8ff" d="M712.83,-164.98C740.87,-156.09 785.05,-142.07 816.3,-132.15"/>
<polygon fill="#63b8ff" stroke="#63b8ff" points="817.49,-135.44 825.96,-129.08 815.37,-128.77 817.49,-135.44"/>
</a>
</g>
</g>
<!-- Node21 -->
<g id="Node000021" class="node">
<title>Node21</title>
<g id="a_Node000021"><a xlink:href="_b_l5372_8h.html" target="_top" xlink:title=" ">
<polygon fill="white" stroke="#666666" points="985,-129 923,-129 923,-110 985,-110 985,-129"/>
<text text-anchor="middle" x="954" y="-117" font-family="Helvetica,sans-Serif" font-size="10.00">BL5372.h</text>
</a>
</g>
</g>
<!-- Node10&#45;&gt;Node21 -->
<g id="edge24_Node000010_Node000021" class="edge">
<title>Node10&#45;&gt;Node21</title>
<g id="a_edge24_Node000010_Node000021"><a xlink:title=" ">
<path fill="none" stroke="#63b8ff" d="M723.38,-166.3C766.46,-157.98 839.64,-143.75 912.81,-129.02"/>
<polygon fill="#63b8ff" stroke="#63b8ff" points="913.56,-132.44 922.67,-127.03 912.17,-125.58 913.56,-132.44"/>
</a>
</g>
</g>
<!-- Node16 -->
<g id="Node000016" class="node">
<title>Node16</title>
<g id="a_Node000016"><a xlink:href="_t_c_a6416_a_8h.html" target="_top" xlink:title=" ">
<polygon fill="white" stroke="#666666" points="1131.5,-74 1056.5,-74 1056.5,-55 1131.5,-55 1131.5,-74"/>
<text text-anchor="middle" x="1094" y="-62" font-family="Helvetica,sans-Serif" font-size="10.00">TCA6416A.h</text>
</a>
</g>
</g>
<!-- Node15&#45;&gt;Node16 -->
<g id="edge17_Node000015_Node000016" class="edge">
<title>Node15&#45;&gt;Node16</title>
<g id="a_edge17_Node000015_Node000016"><a xlink:title=" ">
<path fill="none" stroke="#63b8ff" d="M1094,-109.75C1094,-102.8 1094,-92.85 1094,-84.13"/>
<polygon fill="#63b8ff" stroke="#63b8ff" points="1097.5,-84.09 1094,-74.09 1090.5,-84.09 1097.5,-84.09"/>
</a>
</g>
</g>
<!-- Node16&#45;&gt;Node3 -->
<g id="edge18_Node000016_Node000003" class="edge">
<title>Node16&#45;&gt;Node3</title>
<g id="a_edge18_Node000016_Node000003"><a xlink:title=" ">
<path fill="none" stroke="#63b8ff" d="M1056.19,-59.39C964.94,-49.45 733.53,-24.27 643.56,-14.48"/>
<polygon fill="#63b8ff" stroke="#63b8ff" points="643.88,-10.99 633.56,-13.39 643.12,-17.95 643.88,-10.99"/>
</a>
</g>
</g>
<!-- Node16&#45;&gt;Node5 -->
<g id="edge19_Node000016_Node000005" class="edge">
<title>Node16&#45;&gt;Node5</title>
<g id="a_edge19_Node000016_Node000005"><a xlink:title=" ">
<path fill="none" stroke="#63b8ff" d="M1113.12,-54.98C1132.35,-46.42 1162.23,-33.11 1184.31,-23.28"/>
<polygon fill="#63b8ff" stroke="#63b8ff" points="1185.82,-26.44 1193.53,-19.17 1182.97,-20.04 1185.82,-26.44"/>
</a>
</g>
</g>
<!-- Node21&#45;&gt;Node11 -->
<g id="edge25_Node000021_Node000011" class="edge">
<title>Node21&#45;&gt;Node11</title>
<g id="a_edge25_Node000021_Node000011"><a xlink:title=" ">
<path fill="none" stroke="#63b8ff" d="M954,-109.75C954,-102.8 954,-92.85 954,-84.13"/>
<polygon fill="#63b8ff" stroke="#63b8ff" points="957.5,-84.09 954,-74.09 950.5,-84.09 957.5,-84.09"/>
</a>
</g>
</g>
<!-- Node31&#45;&gt;Node6 -->
<g id="edge42_Node000031_Node000006" class="edge">
<title>Node31&#45;&gt;Node6</title>
<g id="a_edge42_Node000031_Node000006"><a xlink:title=" ">
<path fill="none" stroke="#63b8ff" d="M672.18,-219.98C658.85,-211.77 638.42,-199.18 622.69,-189.49"/>
<polygon fill="#63b8ff" stroke="#63b8ff" points="624.42,-186.44 614.07,-184.17 620.75,-192.4 624.42,-186.44"/>
</a>
</g>
</g>
<!-- Node31&#45;&gt;Node10 -->
<g id="edge43_Node000031_Node000010" class="edge">
<title>Node31&#45;&gt;Node10</title>
<g id="a_edge43_Node000031_Node000010"><a xlink:title=" ">
<path fill="none" stroke="#63b8ff" d="M686,-219.75C686,-212.8 686,-202.85 686,-194.13"/>
<polygon fill="#63b8ff" stroke="#63b8ff" points="689.5,-194.09 686,-184.09 682.5,-194.09 689.5,-194.09"/>
</a>
</g>
</g>
</g>
</svg>
