<?xml version="1.0" encoding="UTF-8" standalone="no"?>
<!DOCTYPE svg PUBLIC "-//W3C//DTD SVG 1.1//EN"
 "http://www.w3.org/Graphics/SVG/1.1/DTD/svg11.dtd">
<!-- Generated by graphviz version 2.43.0 (0)
 -->
<!-- Title: main/sevetest30_BWEDA.c Pages: 1 -->
<svg width="2546pt" height="247pt"
 viewBox="0.00 0.00 2545.50 247.00" xmlns="http://www.w3.org/2000/svg" xmlns:xlink="http://www.w3.org/1999/xlink">
<g id="graph0" class="graph" transform="scale(1 1) rotate(0) translate(4 243)">
<title>main/sevetest30_BWEDA.c</title>
<!-- Node1 -->
<g id="Node000001" class="node">
<title>Node1</title>
<g id="a_Node000001"><a xlink:title=" ">
<polygon fill="#999999" stroke="#666666" points="1699,-239 1550,-239 1550,-220 1699,-220 1699,-239"/>
<text text-anchor="middle" x="1624.5" y="-227" font-family="Helvetica,sans-Serif" font-size="10.00">main/sevetest30_BWEDA.c</text>
</a>
</g>
</g>
<!-- Node2 -->
<g id="Node000002" class="node">
<title>Node2</title>
<g id="a_Node000002"><a xlink:href="sevetest30___b_w_e_d_a_8h.html" target="_top" xlink:title=" ">
<polygon fill="white" stroke="#666666" points="282.5,-184 160.5,-184 160.5,-165 282.5,-165 282.5,-184"/>
<text text-anchor="middle" x="221.5" y="-172" font-family="Helvetica,sans-Serif" font-size="10.00">sevetest30_BWEDA.h</text>
</a>
</g>
</g>
<!-- Node1&#45;&gt;Node2 -->
<g id="edge1_Node000001_Node000002" class="edge">
<title>Node1&#45;&gt;Node2</title>
<g id="a_edge1_Node000001_Node000002"><a xlink:title=" ">
<path fill="none" stroke="#63b8ff" d="M1549.56,-225.67C1305.05,-216.43 532.47,-187.25 292.99,-178.2"/>
<polygon fill="#63b8ff" stroke="#63b8ff" points="292.79,-174.69 282.67,-177.81 292.53,-181.69 292.79,-174.69"/>
</a>
</g>
</g>
<!-- Node4 -->
<g id="Node000004" class="node">
<title>Node4</title>
<g id="a_Node000004"><a xlink:title=" ">
<polygon fill="#e0e0e0" stroke="#999999" points="153.5,-129 79.5,-129 79.5,-110 153.5,-110 153.5,-129"/>
<text text-anchor="middle" x="116.5" y="-117" font-family="Helvetica,sans-Serif" font-size="10.00">board_def.h</text>
</a>
</g>
</g>
<!-- Node1&#45;&gt;Node4 -->
<g id="edge3_Node000001_Node000004" class="edge">
<title>Node1&#45;&gt;Node4</title>
<g id="a_edge3_Node000001_Node000004"><a xlink:title=" ">
<path fill="none" stroke="#63b8ff" d="M1549.89,-226.12C1394.52,-220.87 1024.93,-206.95 715.5,-184 472.43,-165.97 408.71,-163.75 163.54,-129.04"/>
<polygon fill="#63b8ff" stroke="#63b8ff" points="164.01,-125.57 153.61,-127.63 163.02,-132.5 164.01,-125.57"/>
</a>
</g>
</g>
<!-- Node5 -->
<g id="Node000005" class="node">
<title>Node5</title>
<g id="a_Node000005"><a xlink:href="board__ctrl_8h.html" target="_top" xlink:title=" ">
<polygon fill="white" stroke="#666666" points="798.5,-184 724.5,-184 724.5,-165 798.5,-165 798.5,-184"/>
<text text-anchor="middle" x="761.5" y="-172" font-family="Helvetica,sans-Serif" font-size="10.00">board_ctrl.h</text>
</a>
</g>
</g>
<!-- Node1&#45;&gt;Node5 -->
<g id="edge4_Node000001_Node000005" class="edge">
<title>Node1&#45;&gt;Node5</title>
<g id="a_edge4_Node000001_Node000005"><a xlink:title=" ">
<path fill="none" stroke="#63b8ff" d="M1549.8,-223.91C1376.63,-213.28 951.69,-187.18 809.06,-178.42"/>
<polygon fill="#63b8ff" stroke="#63b8ff" points="809.09,-174.92 798.89,-177.8 808.66,-181.9 809.09,-174.92"/>
</a>
</g>
</g>
<!-- Node7 -->
<g id="Node000007" class="node">
<title>Node7</title>
<g id="a_Node000007"><a xlink:title=" ">
<polygon fill="#e0e0e0" stroke="#999999" points="1049,-19 996,-19 996,0 1049,0 1049,-19"/>
<text text-anchor="middle" x="1022.5" y="-7" font-family="Helvetica,sans-Serif" font-size="10.00">string.h</text>
</a>
</g>
</g>
<!-- Node1&#45;&gt;Node7 -->
<g id="edge22_Node000001_Node000007" class="edge">
<title>Node1&#45;&gt;Node7</title>
<g id="a_edge22_Node000001_Node000007"><a xlink:title=" ">
<path fill="none" stroke="#63b8ff" d="M1549.69,-225.05C1429.07,-218.9 1202.01,-204.75 1171.5,-184 1140.93,-163.21 1156.09,-139.27 1133.5,-110 1106.75,-75.33 1066.86,-43.02 1042.9,-25.1"/>
<polygon fill="#63b8ff" stroke="#63b8ff" points="1044.97,-22.28 1034.84,-19.17 1040.82,-27.91 1044.97,-22.28"/>
</a>
</g>
</g>
<!-- Node18 -->
<g id="Node000018" class="node">
<title>Node18</title>
<g id="a_Node000018"><a xlink:title=" ">
<polygon fill="#e0e0e0" stroke="#999999" points="1230.5,-184 1180.5,-184 1180.5,-165 1230.5,-165 1230.5,-184"/>
<text text-anchor="middle" x="1205.5" y="-172" font-family="Helvetica,sans-Serif" font-size="10.00">stdio.h</text>
</a>
</g>
</g>
<!-- Node1&#45;&gt;Node18 -->
<g id="edge20_Node000001_Node000018" class="edge">
<title>Node1&#45;&gt;Node18</title>
<g id="a_edge20_Node000001_Node000018"><a xlink:title=" ">
<path fill="none" stroke="#63b8ff" d="M1549.77,-222.58C1472.1,-215.78 1347.2,-203.06 1240.5,-184 1240.4,-183.98 1240.3,-183.96 1240.2,-183.95"/>
<polygon fill="#63b8ff" stroke="#63b8ff" points="1241.15,-180.57 1230.66,-182 1239.76,-187.43 1241.15,-180.57"/>
</a>
</g>
</g>
<!-- Node19 -->
<g id="Node000019" class="node">
<title>Node19</title>
<g id="a_Node000019"><a xlink:title=" ">
<polygon fill="#e0e0e0" stroke="#999999" points="1302,-184 1249,-184 1249,-165 1302,-165 1302,-184"/>
<text text-anchor="middle" x="1275.5" y="-172" font-family="Helvetica,sans-Serif" font-size="10.00">stdlib.h</text>
</a>
</g>
</g>
<!-- Node1&#45;&gt;Node19 -->
<g id="edge21_Node000001_Node000019" class="edge">
<title>Node1&#45;&gt;Node19</title>
<g id="a_edge21_Node000001_Node000019"><a xlink:title=" ">
<path fill="none" stroke="#63b8ff" d="M1551.15,-219.98C1489.82,-212.42 1399.86,-200.31 1312.04,-183.94"/>
<polygon fill="#63b8ff" stroke="#63b8ff" points="1312.65,-180.5 1302.18,-182.08 1311.36,-187.37 1312.65,-180.5"/>
</a>
</g>
</g>
<!-- Node20 -->
<g id="Node000020" class="node">
<title>Node20</title>
<g id="a_Node000020"><a xlink:title=" ">
<polygon fill="#e0e0e0" stroke="#999999" points="1433,-184 1320,-184 1320,-165 1433,-165 1433,-184"/>
<text text-anchor="middle" x="1376.5" y="-172" font-family="Helvetica,sans-Serif" font-size="10.00">freertos/FreeRTOS.h</text>
</a>
</g>
</g>
<!-- Node1&#45;&gt;Node20 -->
<g id="edge23_Node000001_Node000020" class="edge">
<title>Node1&#45;&gt;Node20</title>
<g id="a_edge23_Node000001_Node000020"><a xlink:title=" ">
<path fill="none" stroke="#63b8ff" d="M1584.65,-219.98C1541.67,-210.8 1473.13,-196.15 1426.54,-186.19"/>
<polygon fill="#63b8ff" stroke="#63b8ff" points="1427.17,-182.75 1416.66,-184.08 1425.71,-189.59 1427.17,-182.75"/>
</a>
</g>
</g>
<!-- Node21 -->
<g id="Node000021" class="node">
<title>Node21</title>
<g id="a_Node000021"><a xlink:title=" ">
<polygon fill="#e0e0e0" stroke="#999999" points="1539.5,-184 1451.5,-184 1451.5,-165 1539.5,-165 1539.5,-184"/>
<text text-anchor="middle" x="1495.5" y="-172" font-family="Helvetica,sans-Serif" font-size="10.00">freertos/task.h</text>
</a>
</g>
</g>
<!-- Node1&#45;&gt;Node21 -->
<g id="edge24_Node000001_Node000021" class="edge">
<title>Node1&#45;&gt;Node21</title>
<g id="a_edge24_Node000001_Node000021"><a xlink:title=" ">
<path fill="none" stroke="#63b8ff" d="M1603.77,-219.98C1582.74,-211.34 1549.95,-197.87 1525.96,-188.02"/>
<polygon fill="#63b8ff" stroke="#63b8ff" points="1527.18,-184.73 1516.6,-184.17 1524.52,-191.21 1527.18,-184.73"/>
</a>
</g>
</g>
<!-- Node22 -->
<g id="Node000022" class="node">
<title>Node22</title>
<g id="a_Node000022"><a xlink:title=" ">
<polygon fill="#e0e0e0" stroke="#999999" points="1691,-184 1558,-184 1558,-165 1691,-165 1691,-184"/>
<text text-anchor="middle" x="1624.5" y="-172" font-family="Helvetica,sans-Serif" font-size="10.00">freertos/event_groups.h</text>
</a>
</g>
</g>
<!-- Node1&#45;&gt;Node22 -->
<g id="edge25_Node000001_Node000022" class="edge">
<title>Node1&#45;&gt;Node22</title>
<g id="a_edge25_Node000001_Node000022"><a xlink:title=" ">
<path fill="none" stroke="#63b8ff" d="M1624.5,-219.75C1624.5,-212.8 1624.5,-202.85 1624.5,-194.13"/>
<polygon fill="#63b8ff" stroke="#63b8ff" points="1628,-194.09 1624.5,-184.09 1621,-194.09 1628,-194.09"/>
</a>
</g>
</g>
<!-- Node23 -->
<g id="Node000023" class="node">
<title>Node23</title>
<g id="a_Node000023"><a xlink:title=" ">
<polygon fill="#e0e0e0" stroke="#999999" points="1793.5,-184 1709.5,-184 1709.5,-165 1793.5,-165 1793.5,-184"/>
<text text-anchor="middle" x="1751.5" y="-172" font-family="Helvetica,sans-Serif" font-size="10.00">esp_system.h</text>
</a>
</g>
</g>
<!-- Node1&#45;&gt;Node23 -->
<g id="edge26_Node000001_Node000023" class="edge">
<title>Node1&#45;&gt;Node23</title>
<g id="a_edge26_Node000001_Node000023"><a xlink:title=" ">
<path fill="none" stroke="#63b8ff" d="M1644.9,-219.98C1665.52,-211.38 1697.61,-197.99 1721.19,-188.15"/>
<polygon fill="#63b8ff" stroke="#63b8ff" points="1722.84,-191.25 1730.72,-184.17 1720.15,-184.79 1722.84,-191.25"/>
</a>
</g>
</g>
<!-- Node24 -->
<g id="Node000024" class="node">
<title>Node24</title>
<g id="a_Node000024"><a xlink:title=" ">
<polygon fill="#e0e0e0" stroke="#999999" points="1875,-184 1812,-184 1812,-165 1875,-165 1875,-184"/>
<text text-anchor="middle" x="1843.5" y="-172" font-family="Helvetica,sans-Serif" font-size="10.00">esp_log.h</text>
</a>
</g>
</g>
<!-- Node1&#45;&gt;Node24 -->
<g id="edge27_Node000001_Node000024" class="edge">
<title>Node1&#45;&gt;Node24</title>
<g id="a_edge27_Node000001_Node000024"><a xlink:title=" ">
<path fill="none" stroke="#63b8ff" d="M1659.69,-219.98C1698.48,-210.6 1760.82,-195.51 1801.98,-185.55"/>
<polygon fill="#63b8ff" stroke="#63b8ff" points="1803.06,-188.89 1811.96,-183.13 1801.41,-182.08 1803.06,-188.89"/>
</a>
</g>
</g>
<!-- Node25 -->
<g id="Node000025" class="node">
<title>Node25</title>
<g id="a_Node000025"><a xlink:title=" ">
<polygon fill="#e0e0e0" stroke="#999999" points="1964,-184 1893,-184 1893,-165 1964,-165 1964,-184"/>
<text text-anchor="middle" x="1928.5" y="-172" font-family="Helvetica,sans-Serif" font-size="10.00">nvs_flash.h</text>
</a>
</g>
</g>
<!-- Node1&#45;&gt;Node25 -->
<g id="edge28_Node000001_Node000025" class="edge">
<title>Node1&#45;&gt;Node25</title>
<g id="a_edge28_Node000001_Node000025"><a xlink:title=" ">
<path fill="none" stroke="#63b8ff" d="M1676.35,-219.96C1726.72,-211.59 1805.61,-198.28 1883.05,-184.24"/>
<polygon fill="#63b8ff" stroke="#63b8ff" points="1883.76,-187.66 1892.97,-182.43 1882.51,-180.78 1883.76,-187.66"/>
</a>
</g>
</g>
<!-- Node26 -->
<g id="Node000026" class="node">
<title>Node26</title>
<g id="a_Node000026"><a xlink:title=" ">
<polygon fill="#e0e0e0" stroke="#999999" points="2040.5,-184 1982.5,-184 1982.5,-165 2040.5,-165 2040.5,-184"/>
<text text-anchor="middle" x="2011.5" y="-172" font-family="Helvetica,sans-Serif" font-size="10.00">esp_bt.h</text>
</a>
</g>
</g>
<!-- Node1&#45;&gt;Node26 -->
<g id="edge29_Node000001_Node000026" class="edge">
<title>Node1&#45;&gt;Node26</title>
<g id="a_edge29_Node000001_Node000026"><a xlink:title=" ">
<path fill="none" stroke="#63b8ff" d="M1699.01,-221.03C1767.59,-213.7 1872.33,-201.33 1972.14,-184.1"/>
<polygon fill="#63b8ff" stroke="#63b8ff" points="1972.85,-187.53 1982.1,-182.36 1971.64,-180.63 1972.85,-187.53"/>
</a>
</g>
</g>
<!-- Node27 -->
<g id="Node000027" class="node">
<title>Node27</title>
<g id="a_Node000027"><a xlink:title=" ">
<polygon fill="#e0e0e0" stroke="#999999" points="2166,-184 2059,-184 2059,-165 2166,-165 2166,-184"/>
<text text-anchor="middle" x="2112.5" y="-172" font-family="Helvetica,sans-Serif" font-size="10.00">esp_gap_ble_api.h</text>
</a>
</g>
</g>
<!-- Node1&#45;&gt;Node27 -->
<g id="edge30_Node000001_Node000027" class="edge">
<title>Node1&#45;&gt;Node27</title>
<g id="a_edge30_Node000001_Node000027"><a xlink:title=" ">
<path fill="none" stroke="#63b8ff" d="M1699.05,-221.37C1781.81,-213.31 1919.63,-199.42 2048.82,-184.05"/>
<polygon fill="#63b8ff" stroke="#63b8ff" points="2049.38,-187.5 2058.9,-182.84 2048.55,-180.55 2049.38,-187.5"/>
</a>
</g>
</g>
<!-- Node28 -->
<g id="Node000028" class="node">
<title>Node28</title>
<g id="a_Node000028"><a xlink:title=" ">
<polygon fill="#e0e0e0" stroke="#999999" points="2277,-184 2184,-184 2184,-165 2277,-165 2277,-184"/>
<text text-anchor="middle" x="2230.5" y="-172" font-family="Helvetica,sans-Serif" font-size="10.00">esp_gatts_api.h</text>
</a>
</g>
</g>
<!-- Node1&#45;&gt;Node28 -->
<g id="edge31_Node000001_Node000028" class="edge">
<title>Node1&#45;&gt;Node28</title>
<g id="a_edge31_Node000001_Node000028"><a xlink:title=" ">
<path fill="none" stroke="#63b8ff" d="M1699.09,-224.2C1803.2,-217.82 1998.19,-204.47 2173.79,-184.13"/>
<polygon fill="#63b8ff" stroke="#63b8ff" points="2174.2,-187.6 2183.72,-182.97 2173.39,-180.65 2174.2,-187.6"/>
</a>
</g>
</g>
<!-- Node29 -->
<g id="Node000029" class="node">
<title>Node29</title>
<g id="a_Node000029"><a xlink:title=" ">
<polygon fill="#e0e0e0" stroke="#999999" points="2383.5,-184 2295.5,-184 2295.5,-165 2383.5,-165 2383.5,-184"/>
<text text-anchor="middle" x="2339.5" y="-172" font-family="Helvetica,sans-Serif" font-size="10.00">esp_bt_main.h</text>
</a>
</g>
</g>
<!-- Node1&#45;&gt;Node29 -->
<g id="edge32_Node000001_Node000029" class="edge">
<title>Node1&#45;&gt;Node29</title>
<g id="a_edge32_Node000001_Node000029"><a xlink:title=" ">
<path fill="none" stroke="#63b8ff" d="M1699.16,-225.72C1820.11,-220.72 2066.58,-208.49 2285.23,-184.04"/>
<polygon fill="#63b8ff" stroke="#63b8ff" points="2285.75,-187.5 2295.3,-182.9 2284.97,-180.55 2285.75,-187.5"/>
</a>
</g>
</g>
<!-- Node30 -->
<g id="Node000030" class="node">
<title>Node30</title>
<g id="a_Node000030"><a xlink:title=" ">
<polygon fill="#e0e0e0" stroke="#999999" points="2537.5,-184 2401.5,-184 2401.5,-165 2537.5,-165 2537.5,-184"/>
<text text-anchor="middle" x="2469.5" y="-172" font-family="Helvetica,sans-Serif" font-size="10.00">esp_gatt_common_api.h</text>
</a>
</g>
</g>
<!-- Node1&#45;&gt;Node30 -->
<g id="edge33_Node000001_Node000030" class="edge">
<title>Node1&#45;&gt;Node30</title>
<g id="a_edge33_Node000001_Node000030"><a xlink:title=" ">
<path fill="none" stroke="#63b8ff" d="M1699.27,-225.46C1834.95,-219.67 2131,-205.71 2391.47,-184.04"/>
<polygon fill="#63b8ff" stroke="#63b8ff" points="2391.83,-187.52 2401.5,-183.2 2391.24,-180.55 2391.83,-187.52"/>
</a>
</g>
</g>
<!-- Node3 -->
<g id="Node000003" class="node">
<title>Node3</title>
<g id="a_Node000003"><a xlink:title=" ">
<polygon fill="#e0e0e0" stroke="#999999" points="61,-129 0,-129 0,-110 61,-110 61,-129"/>
<text text-anchor="middle" x="30.5" y="-117" font-family="Helvetica,sans-Serif" font-size="10.00">esp_err.h</text>
</a>
</g>
</g>
<!-- Node2&#45;&gt;Node3 -->
<g id="edge2_Node000002_Node000003" class="edge">
<title>Node2&#45;&gt;Node3</title>
<g id="a_edge2_Node000002_Node000003"><a xlink:title=" ">
<path fill="none" stroke="#63b8ff" d="M190.81,-164.98C158.23,-155.94 106.6,-141.62 70.77,-131.67"/>
<polygon fill="#63b8ff" stroke="#63b8ff" points="71.68,-128.3 61.11,-128.99 69.81,-135.04 71.68,-128.3"/>
</a>
</g>
</g>
<!-- Node5&#45;&gt;Node4 -->
<g id="edge7_Node000005_Node000004" class="edge">
<title>Node5&#45;&gt;Node4</title>
<g id="a_edge7_Node000005_Node000004"><a xlink:title=" ">
<path fill="none" stroke="#63b8ff" d="M724.21,-171.26C614.07,-164.57 290.49,-144.31 163.81,-128.99"/>
<polygon fill="#63b8ff" stroke="#63b8ff" points="163.96,-125.48 153.6,-127.71 163.09,-132.43 163.96,-125.48"/>
</a>
</g>
</g>
<!-- Node6 -->
<g id="Node000006" class="node">
<title>Node6</title>
<g id="a_Node000006"><a xlink:title=" ">
<polygon fill="#e0e0e0" stroke="#999999" points="979,-74 904,-74 904,-55 979,-55 979,-74"/>
<text text-anchor="middle" x="941.5" y="-62" font-family="Helvetica,sans-Serif" font-size="10.00">esp_types.h</text>
</a>
</g>
</g>
<!-- Node5&#45;&gt;Node6 -->
<g id="edge5_Node000005_Node000006" class="edge">
<title>Node5&#45;&gt;Node6</title>
<g id="a_edge5_Node000005_Node000006"><a xlink:title=" ">
<path fill="none" stroke="#63b8ff" d="M798.91,-170.82C851.98,-166.15 944.98,-154.48 965.5,-129 976.54,-115.3 966.54,-95.98 956.28,-82.26"/>
<polygon fill="#63b8ff" stroke="#63b8ff" points="958.74,-79.73 949.73,-74.16 953.3,-84.14 958.74,-79.73"/>
</a>
</g>
</g>
<!-- Node5&#45;&gt;Node7 -->
<g id="edge6_Node000005_Node000007" class="edge">
<title>Node5&#45;&gt;Node7</title>
<g id="a_edge6_Node000005_Node000007"><a xlink:title=" ">
<path fill="none" stroke="#63b8ff" d="M798.87,-170.39C854.32,-165.06 954.74,-152.41 981.5,-129 1010.76,-103.41 1019.15,-55.86 1021.55,-29.44"/>
<polygon fill="#63b8ff" stroke="#63b8ff" points="1025.05,-29.46 1022.27,-19.24 1018.07,-28.97 1025.05,-29.46"/>
</a>
</g>
</g>
<!-- Node8 -->
<g id="Node000008" class="node">
<title>Node8</title>
<g id="a_Node000008"><a xlink:title=" ">
<polygon fill="#e0e0e0" stroke="#999999" points="1124,-129 1051,-129 1051,-110 1124,-110 1124,-129"/>
<text text-anchor="middle" x="1087.5" y="-117" font-family="Helvetica,sans-Serif" font-size="10.00">audio_hal.h</text>
</a>
</g>
</g>
<!-- Node5&#45;&gt;Node8 -->
<g id="edge8_Node000005_Node000008" class="edge">
<title>Node5&#45;&gt;Node8</title>
<g id="a_edge8_Node000005_Node000008"><a xlink:title=" ">
<path fill="none" stroke="#63b8ff" d="M798.87,-167.51C851.78,-159.02 951.55,-142.95 1036.5,-129 1037.8,-128.79 1039.11,-128.57 1040.44,-128.35"/>
<polygon fill="#63b8ff" stroke="#63b8ff" points="1041.44,-131.73 1050.73,-126.65 1040.3,-124.83 1041.44,-131.73"/>
</a>
</g>
</g>
<!-- Node9 -->
<g id="Node000009" class="node">
<title>Node9</title>
<g id="a_Node000009"><a xlink:title=" ">
<polygon fill="#e0e0e0" stroke="#999999" points="275,-129 172,-129 172,-110 275,-110 275,-129"/>
<text text-anchor="middle" x="223.5" y="-117" font-family="Helvetica,sans-Serif" font-size="10.00">esxxx_common.h</text>
</a>
</g>
</g>
<!-- Node5&#45;&gt;Node9 -->
<g id="edge9_Node000005_Node000009" class="edge">
<title>Node5&#45;&gt;Node9</title>
<g id="a_edge9_Node000005_Node000009"><a xlink:title=" ">
<path fill="none" stroke="#63b8ff" d="M724.33,-170.61C645.54,-164.36 455.69,-148.65 285.23,-129.03"/>
<polygon fill="#63b8ff" stroke="#63b8ff" points="285.4,-125.53 275.06,-127.85 284.59,-132.48 285.4,-125.53"/>
</a>
</g>
</g>
<!-- Node10 -->
<g id="Node000010" class="node">
<title>Node10</title>
<g id="a_Node000010"><a xlink:href="sevetest30__gpio_8h.html" target="_top" xlink:title=" ">
<polygon fill="white" stroke="#666666" points="399.5,-129 293.5,-129 293.5,-110 399.5,-110 399.5,-129"/>
<text text-anchor="middle" x="346.5" y="-117" font-family="Helvetica,sans-Serif" font-size="10.00">sevetest30_gpio.h</text>
</a>
</g>
</g>
<!-- Node5&#45;&gt;Node10 -->
<g id="edge10_Node000005_Node000010" class="edge">
<title>Node5&#45;&gt;Node10</title>
<g id="a_edge10_Node000005_Node000010"><a xlink:title=" ">
<path fill="none" stroke="#63b8ff" d="M724.49,-168.92C662.09,-161.19 531.71,-144.93 410.01,-129.06"/>
<polygon fill="#63b8ff" stroke="#63b8ff" points="410.14,-125.54 399.77,-127.72 409.23,-132.48 410.14,-125.54"/>
</a>
</g>
</g>
<!-- Node13 -->
<g id="Node000013" class="node">
<title>Node13</title>
<g id="a_Node000013"><a xlink:title=" ">
<polygon fill="#e0e0e0" stroke="#999999" points="489,-129 418,-129 418,-110 489,-110 489,-129"/>
<text text-anchor="middle" x="453.5" y="-117" font-family="Helvetica,sans-Serif" font-size="10.00">driver/i2c.h</text>
</a>
</g>
</g>
<!-- Node5&#45;&gt;Node13 -->
<g id="edge14_Node000005_Node000013" class="edge">
<title>Node5&#45;&gt;Node13</title>
<g id="a_edge14_Node000005_Node000013"><a xlink:title=" ">
<path fill="none" stroke="#63b8ff" d="M724.44,-167.46C675.38,-159.41 585.91,-144.56 499.34,-129.12"/>
<polygon fill="#63b8ff" stroke="#63b8ff" points="499.81,-125.65 489.35,-127.34 498.58,-132.54 499.81,-125.65"/>
</a>
</g>
</g>
<!-- Node14 -->
<g id="Node000014" class="node">
<title>Node14</title>
<g id="a_Node000014"><a xlink:title=" ">
<polygon fill="#e0e0e0" stroke="#999999" points="626,-129 507,-129 507,-110 626,-110 626,-129"/>
<text text-anchor="middle" x="566.5" y="-117" font-family="Helvetica,sans-Serif" font-size="10.00">driver/spi_common.h</text>
</a>
</g>
</g>
<!-- Node5&#45;&gt;Node14 -->
<g id="edge15_Node000005_Node000014" class="edge">
<title>Node5&#45;&gt;Node14</title>
<g id="a_edge15_Node000005_Node000014"><a xlink:title=" ">
<path fill="none" stroke="#63b8ff" d="M730.17,-164.98C697.01,-155.97 644.5,-141.7 607.94,-131.76"/>
<polygon fill="#63b8ff" stroke="#63b8ff" points="608.64,-128.33 598.08,-129.08 606.81,-135.08 608.64,-128.33"/>
</a>
</g>
</g>
<!-- Node15 -->
<g id="Node000015" class="node">
<title>Node15</title>
<g id="a_Node000015"><a xlink:title=" ">
<polygon fill="#e0e0e0" stroke="#999999" points="754.5,-129 644.5,-129 644.5,-110 754.5,-110 754.5,-129"/>
<text text-anchor="middle" x="699.5" y="-117" font-family="Helvetica,sans-Serif" font-size="10.00">driver/spi_master.h</text>
</a>
</g>
</g>
<!-- Node5&#45;&gt;Node15 -->
<g id="edge16_Node000005_Node000015" class="edge">
<title>Node5&#45;&gt;Node15</title>
<g id="a_edge16_Node000005_Node000015"><a xlink:title=" ">
<path fill="none" stroke="#63b8ff" d="M751.54,-164.98C742.37,-157.15 728.56,-145.34 717.47,-135.86"/>
<polygon fill="#63b8ff" stroke="#63b8ff" points="719.52,-133.01 709.64,-129.17 714.97,-138.33 719.52,-133.01"/>
</a>
</g>
</g>
<!-- Node16 -->
<g id="Node000016" class="node">
<title>Node16</title>
<g id="a_Node000016"><a xlink:title=" ">
<polygon fill="#e0e0e0" stroke="#999999" points="876,-129 773,-129 773,-110 876,-110 876,-129"/>
<text text-anchor="middle" x="824.5" y="-117" font-family="Helvetica,sans-Serif" font-size="10.00">esp_peripherals.h</text>
</a>
</g>
</g>
<!-- Node5&#45;&gt;Node16 -->
<g id="edge17_Node000005_Node000016" class="edge">
<title>Node5&#45;&gt;Node16</title>
<g id="a_edge17_Node000005_Node000016"><a xlink:title=" ">
<path fill="none" stroke="#63b8ff" d="M771.62,-164.98C780.94,-157.15 794.97,-145.34 806.24,-135.86"/>
<polygon fill="#63b8ff" stroke="#63b8ff" points="808.79,-138.29 814.19,-129.17 804.29,-132.93 808.79,-138.29"/>
</a>
</g>
</g>
<!-- Node17 -->
<g id="Node000017" class="node">
<title>Node17</title>
<g id="a_Node000017"><a xlink:href="_b_l5372_8h.html" target="_top" xlink:title=" ">
<polygon fill="white" stroke="#666666" points="956.5,-129 894.5,-129 894.5,-110 956.5,-110 956.5,-129"/>
<text text-anchor="middle" x="925.5" y="-117" font-family="Helvetica,sans-Serif" font-size="10.00">BL5372.h</text>
</a>
</g>
</g>
<!-- Node5&#45;&gt;Node17 -->
<g id="edge18_Node000005_Node000017" class="edge">
<title>Node5&#45;&gt;Node17</title>
<g id="a_edge18_Node000005_Node000017"><a xlink:title=" ">
<path fill="none" stroke="#63b8ff" d="M787.85,-164.98C815.26,-156.13 858.39,-142.19 889.06,-132.28"/>
<polygon fill="#63b8ff" stroke="#63b8ff" points="890.5,-135.49 898.94,-129.08 888.35,-128.83 890.5,-135.49"/>
</a>
</g>
</g>
<!-- Node11 -->
<g id="Node000011" class="node">
<title>Node11</title>
<g id="a_Node000011"><a xlink:href="_t_c_a6416_a_8h.html" target="_top" xlink:title=" ">
<polygon fill="white" stroke="#666666" points="628,-74 553,-74 553,-55 628,-55 628,-74"/>
<text text-anchor="middle" x="590.5" y="-62" font-family="Helvetica,sans-Serif" font-size="10.00">TCA6416A.h</text>
</a>
</g>
</g>
<!-- Node10&#45;&gt;Node11 -->
<g id="edge11_Node000010_Node000011" class="edge">
<title>Node10&#45;&gt;Node11</title>
<g id="a_edge11_Node000010_Node000011"><a xlink:title=" ">
<path fill="none" stroke="#63b8ff" d="M385.7,-109.98C428.54,-100.68 497.15,-85.78 543,-75.82"/>
<polygon fill="#63b8ff" stroke="#63b8ff" points="543.97,-79.19 553,-73.65 542.48,-72.35 543.97,-79.19"/>
</a>
</g>
</g>
<!-- Node11&#45;&gt;Node7 -->
<g id="edge12_Node000011_Node000007" class="edge">
<title>Node11&#45;&gt;Node7</title>
<g id="a_edge12_Node000011_Node000007"><a xlink:title=" ">
<path fill="none" stroke="#63b8ff" d="M628.08,-58.89C710.1,-48.83 904.31,-25 985.66,-15.02"/>
<polygon fill="#63b8ff" stroke="#63b8ff" points="986.41,-18.45 995.91,-13.76 985.56,-11.51 986.41,-18.45"/>
</a>
</g>
</g>
<!-- Node12 -->
<g id="Node000012" class="node">
<title>Node12</title>
<g id="a_Node000012"><a xlink:title=" ">
<polygon fill="#e0e0e0" stroke="#999999" points="621.5,-19 559.5,-19 559.5,0 621.5,0 621.5,-19"/>
<text text-anchor="middle" x="590.5" y="-7" font-family="Helvetica,sans-Serif" font-size="10.00">stdbool.h</text>
</a>
</g>
</g>
<!-- Node11&#45;&gt;Node12 -->
<g id="edge13_Node000011_Node000012" class="edge">
<title>Node11&#45;&gt;Node12</title>
<g id="a_edge13_Node000011_Node000012"><a xlink:title=" ">
<path fill="none" stroke="#63b8ff" d="M590.5,-54.75C590.5,-47.8 590.5,-37.85 590.5,-29.13"/>
<polygon fill="#63b8ff" stroke="#63b8ff" points="594,-29.09 590.5,-19.09 587,-29.09 594,-29.09"/>
</a>
</g>
</g>
<!-- Node17&#45;&gt;Node6 -->
<g id="edge19_Node000017_Node000006" class="edge">
<title>Node17&#45;&gt;Node6</title>
<g id="a_edge19_Node000017_Node000006"><a xlink:title=" ">
<path fill="none" stroke="#63b8ff" d="M928.14,-109.75C930.26,-102.72 933.31,-92.62 935.96,-83.84"/>
<polygon fill="#63b8ff" stroke="#63b8ff" points="939.37,-84.67 938.91,-74.09 932.67,-82.65 939.37,-84.67"/>
</a>
</g>
</g>
</g>
</svg>
