<?xml version="1.0" encoding="UTF-8" standalone="no"?>
<!DOCTYPE svg PUBLIC "-//W3C//DTD SVG 1.1//EN"
 "http://www.w3.org/Graphics/SVG/1.1/DTD/svg11.dtd">
<!-- Generated by graphviz version 2.43.0 (0)
 -->
<!-- Title: components/sevetest30_board/include/sevetest30_LedArray.h Pages: 1 -->
<svg width="1203pt" height="324pt"
 viewBox="0.00 0.00 1203.03 324.00" xmlns="http://www.w3.org/2000/svg" xmlns:xlink="http://www.w3.org/1999/xlink">
<g id="graph0" class="graph" transform="scale(1 1) rotate(0) translate(4 320)">
<title>components/sevetest30_board/include/sevetest30_LedArray.h</title>
<!-- Node1 -->
<g id="Node000001" class="node">
<title>Node1</title>
<g id="a_Node000001"><a xlink:title=" ">
<polygon fill="#999999" stroke="#666666" points="344.5,-316 199.5,-316 199.5,-275 344.5,-275 344.5,-316"/>
<text text-anchor="start" x="207.5" y="-304" font-family="Helvetica,sans-Serif" font-size="10.00">components/sevetest30</text>
<text text-anchor="start" x="207.5" y="-293" font-family="Helvetica,sans-Serif" font-size="10.00">_board/include/sevetest30</text>
<text text-anchor="middle" x="272" y="-282" font-family="Helvetica,sans-Serif" font-size="10.00">_LedArray.h</text>
</a>
</g>
</g>
<!-- Node2 -->
<g id="Node000002" class="node">
<title>Node2</title>
<g id="a_Node000002"><a xlink:title=" ">
<polygon fill="#e0e0e0" stroke="#999999" points="102.5,-19 49.5,-19 49.5,0 102.5,0 102.5,-19"/>
<text text-anchor="middle" x="76" y="-7" font-family="Helvetica,sans-Serif" font-size="10.00">string.h</text>
</a>
</g>
</g>
<!-- Node1&#45;&gt;Node2 -->
<g id="edge1_Node000001_Node000002" class="edge">
<title>Node1&#45;&gt;Node2</title>
<g id="a_edge1_Node000001_Node000002"><a xlink:title=" ">
<path fill="none" stroke="#63b8ff" d="M199.47,-292.82C118.89,-286.64 0,-262.74 0,-175.5 0,-175.5 0,-175.5 0,-118.5 0,-79.47 33.61,-44.58 56.13,-25.6"/>
<polygon fill="#63b8ff" stroke="#63b8ff" points="58.56,-28.14 64.12,-19.12 54.15,-22.7 58.56,-28.14"/>
</a>
</g>
</g>
<!-- Node3 -->
<g id="Node000003" class="node">
<title>Node3</title>
<g id="a_Node000003"><a xlink:href="sevetest30___u_i_8h.html" target="_top" xlink:title=" ">
<polygon fill="white" stroke="#666666" points="319.5,-239 224.5,-239 224.5,-220 319.5,-220 319.5,-239"/>
<text text-anchor="middle" x="272" y="-227" font-family="Helvetica,sans-Serif" font-size="10.00">sevetest30_UI.h</text>
</a>
</g>
</g>
<!-- Node1&#45;&gt;Node3 -->
<g id="edge2_Node000001_Node000003" class="edge">
<title>Node1&#45;&gt;Node3</title>
<g id="a_edge2_Node000001_Node000003"><a xlink:title=" ">
<path fill="none" stroke="#63b8ff" d="M272,-274.95C272,-266.85 272,-257.5 272,-249.47"/>
<polygon fill="#63b8ff" stroke="#63b8ff" points="275.5,-249.26 272,-239.26 268.5,-249.26 275.5,-249.26"/>
</a>
</g>
</g>
<!-- Node10 -->
<g id="Node000010" class="node">
<title>Node10</title>
<g id="a_Node000010"><a xlink:title=" ">
<polygon fill="#e0e0e0" stroke="#999999" points="1178.5,-74 1103.5,-74 1103.5,-55 1178.5,-55 1178.5,-74"/>
<text text-anchor="middle" x="1141" y="-62" font-family="Helvetica,sans-Serif" font-size="10.00">esp_types.h</text>
</a>
</g>
</g>
<!-- Node1&#45;&gt;Node10 -->
<g id="edge27_Node000001_Node000010" class="edge">
<title>Node1&#45;&gt;Node10</title>
<g id="a_edge27_Node000001_Node000010"><a xlink:title=" ">
<path fill="none" stroke="#63b8ff" d="M344.84,-291.84C534.53,-283.25 1036.19,-249.39 1139,-129 1149.4,-116.82 1148.65,-98.03 1146.05,-84.05"/>
<polygon fill="#63b8ff" stroke="#63b8ff" points="1149.4,-83.04 1143.74,-74.08 1142.58,-84.61 1149.4,-83.04"/>
</a>
</g>
</g>
<!-- Node3&#45;&gt;Node2 -->
<g id="edge3_Node000003_Node000002" class="edge">
<title>Node3&#45;&gt;Node2</title>
<g id="a_edge3_Node000003_Node000002"><a xlink:title=" ">
<path fill="none" stroke="#63b8ff" d="M224.43,-225.48C167.64,-220.77 77.7,-209.42 57,-184 20.07,-138.64 49.63,-63.04 66.41,-28.59"/>
<polygon fill="#63b8ff" stroke="#63b8ff" points="69.72,-29.81 71.12,-19.3 63.48,-26.64 69.72,-29.81"/>
</a>
</g>
</g>
<!-- Node4 -->
<g id="Node000004" class="node">
<title>Node4</title>
<g id="a_Node000004"><a xlink:title=" ">
<polygon fill="#e0e0e0" stroke="#999999" points="340,-19 278,-19 278,0 340,0 340,-19"/>
<text text-anchor="middle" x="309" y="-7" font-family="Helvetica,sans-Serif" font-size="10.00">stdbool.h</text>
</a>
</g>
</g>
<!-- Node3&#45;&gt;Node4 -->
<g id="edge4_Node000003_Node000004" class="edge">
<title>Node3&#45;&gt;Node4</title>
<g id="a_edge4_Node000003_Node000004"><a xlink:title=" ">
<path fill="none" stroke="#63b8ff" d="M271.73,-219.8C270.84,-206.21 267.12,-179.95 252,-165 210.57,-124.04 103.64,-160.33 133,-110 161.9,-60.46 225.61,-33.62 267.92,-20.69"/>
<polygon fill="#63b8ff" stroke="#63b8ff" points="269.04,-24.01 277.65,-17.85 267.07,-17.29 269.04,-24.01"/>
</a>
</g>
</g>
<!-- Node5 -->
<g id="Node000005" class="node">
<title>Node5</title>
<g id="a_Node000005"><a xlink:title=" ">
<polygon fill="#e0e0e0" stroke="#999999" points="1105.5,-19 1044.5,-19 1044.5,0 1105.5,0 1105.5,-19"/>
<text text-anchor="middle" x="1075" y="-7" font-family="Helvetica,sans-Serif" font-size="10.00">esp_err.h</text>
</a>
</g>
</g>
<!-- Node3&#45;&gt;Node5 -->
<g id="edge5_Node000003_Node000005" class="edge">
<title>Node3&#45;&gt;Node5</title>
<g id="a_edge5_Node000003_Node000005"><a xlink:title=" ">
<path fill="none" stroke="#63b8ff" d="M319.66,-227.51C479.49,-223.51 994.56,-204.88 1139,-129 1173.92,-110.66 1210.2,-87.6 1188,-55 1171.89,-31.33 1141.07,-20.25 1115.69,-15.07"/>
<polygon fill="#63b8ff" stroke="#63b8ff" points="1116.02,-11.57 1105.56,-13.24 1114.78,-18.46 1116.02,-11.57"/>
</a>
</g>
</g>
<!-- Node6 -->
<g id="Node000006" class="node">
<title>Node6</title>
<g id="a_Node000006"><a xlink:title=" ">
<polygon fill="#e0e0e0" stroke="#999999" points="689.5,-184 576.5,-184 576.5,-165 689.5,-165 689.5,-184"/>
<text text-anchor="middle" x="633" y="-172" font-family="Helvetica,sans-Serif" font-size="10.00">freertos/FreeRTOS.h</text>
</a>
</g>
</g>
<!-- Node3&#45;&gt;Node6 -->
<g id="edge6_Node000003_Node000006" class="edge">
<title>Node3&#45;&gt;Node6</title>
<g id="a_edge6_Node000003_Node000006"><a xlink:title=" ">
<path fill="none" stroke="#63b8ff" d="M319.57,-221.52C382.71,-212.25 494.54,-195.83 566.15,-185.31"/>
<polygon fill="#63b8ff" stroke="#63b8ff" points="567.03,-188.72 576.41,-183.81 566.01,-181.8 567.03,-188.72"/>
</a>
</g>
</g>
<!-- Node7 -->
<g id="Node000007" class="node">
<title>Node7</title>
<g id="a_Node000007"><a xlink:title=" ">
<polygon fill="#e0e0e0" stroke="#999999" points="154,-184 66,-184 66,-165 154,-165 154,-184"/>
<text text-anchor="middle" x="110" y="-172" font-family="Helvetica,sans-Serif" font-size="10.00">freertos/task.h</text>
</a>
</g>
</g>
<!-- Node3&#45;&gt;Node7 -->
<g id="edge7_Node000003_Node000007" class="edge">
<title>Node3&#45;&gt;Node7</title>
<g id="a_edge7_Node000003_Node000007"><a xlink:title=" ">
<path fill="none" stroke="#63b8ff" d="M245.97,-219.98C218.89,-211.13 176.29,-197.19 145.99,-187.28"/>
<polygon fill="#63b8ff" stroke="#63b8ff" points="146.82,-183.87 136.23,-184.08 144.65,-190.52 146.82,-183.87"/>
</a>
</g>
</g>
<!-- Node8 -->
<g id="Node000008" class="node">
<title>Node8</title>
<g id="a_Node000008"><a xlink:title=" ">
<polygon fill="#e0e0e0" stroke="#999999" points="243.5,-184 172.5,-184 172.5,-165 243.5,-165 243.5,-184"/>
<text text-anchor="middle" x="208" y="-172" font-family="Helvetica,sans-Serif" font-size="10.00">driver/i2s.h</text>
</a>
</g>
</g>
<!-- Node3&#45;&gt;Node8 -->
<g id="edge8_Node000003_Node000008" class="edge">
<title>Node3&#45;&gt;Node8</title>
<g id="a_edge8_Node000003_Node000008"><a xlink:title=" ">
<path fill="none" stroke="#63b8ff" d="M261.72,-219.98C252.16,-212.07 237.72,-200.11 226.22,-190.58"/>
<polygon fill="#63b8ff" stroke="#63b8ff" points="228.4,-187.85 218.47,-184.17 223.94,-193.24 228.4,-187.85"/>
</a>
</g>
</g>
<!-- Node9 -->
<g id="Node000009" class="node">
<title>Node9</title>
<g id="a_Node000009"><a xlink:href="board__ctrl_8h.html" target="_top" xlink:title=" ">
<polygon fill="white" stroke="#666666" points="558,-184 484,-184 484,-165 558,-165 558,-184"/>
<text text-anchor="middle" x="521" y="-172" font-family="Helvetica,sans-Serif" font-size="10.00">board_ctrl.h</text>
</a>
</g>
</g>
<!-- Node3&#45;&gt;Node9 -->
<g id="edge9_Node000003_Node000009" class="edge">
<title>Node3&#45;&gt;Node9</title>
<g id="a_edge9_Node000003_Node000009"><a xlink:title=" ">
<path fill="none" stroke="#63b8ff" d="M312.01,-219.98C356.19,-210.58 427.26,-195.45 474.05,-185.49"/>
<polygon fill="#63b8ff" stroke="#63b8ff" points="474.89,-188.89 483.94,-183.39 473.43,-182.05 474.89,-188.89"/>
</a>
</g>
</g>
<!-- Node9&#45;&gt;Node2 -->
<g id="edge11_Node000009_Node000002" class="edge">
<title>Node9&#45;&gt;Node2</title>
<g id="a_edge11_Node000009_Node000002"><a xlink:title=" ">
<path fill="none" stroke="#63b8ff" d="M483.98,-171.28C392.52,-165.52 161.28,-149.12 133,-129 99.47,-105.15 84.9,-56.14 79.21,-29.22"/>
<polygon fill="#63b8ff" stroke="#63b8ff" points="82.61,-28.34 77.29,-19.18 75.73,-29.66 82.61,-28.34"/>
</a>
</g>
</g>
<!-- Node9&#45;&gt;Node10 -->
<g id="edge10_Node000009_Node000010" class="edge">
<title>Node9&#45;&gt;Node10</title>
<g id="a_edge10_Node000009_Node000010"><a xlink:title=" ">
<path fill="none" stroke="#63b8ff" d="M558.14,-166.38C561.47,-165.86 564.79,-165.39 568,-165 628.9,-157.53 1070.2,-166.19 1119,-129 1132.75,-118.52 1137.96,-98.89 1139.9,-84.22"/>
<polygon fill="#63b8ff" stroke="#63b8ff" points="1143.39,-84.48 1140.84,-74.2 1136.42,-83.83 1143.39,-84.48"/>
</a>
</g>
</g>
<!-- Node11 -->
<g id="Node000011" class="node">
<title>Node11</title>
<g id="a_Node000011"><a xlink:title=" ">
<polygon fill="#e0e0e0" stroke="#999999" points="466,-129 392,-129 392,-110 466,-110 466,-129"/>
<text text-anchor="middle" x="429" y="-117" font-family="Helvetica,sans-Serif" font-size="10.00">board_def.h</text>
</a>
</g>
</g>
<!-- Node9&#45;&gt;Node11 -->
<g id="edge12_Node000009_Node000011" class="edge">
<title>Node9&#45;&gt;Node11</title>
<g id="a_edge12_Node000009_Node000011"><a xlink:title=" ">
<path fill="none" stroke="#63b8ff" d="M506.22,-164.98C491.82,-156.69 469.69,-143.94 452.81,-134.22"/>
<polygon fill="#63b8ff" stroke="#63b8ff" points="454.46,-131.13 444.05,-129.17 450.97,-137.19 454.46,-131.13"/>
</a>
</g>
</g>
<!-- Node12 -->
<g id="Node000012" class="node">
<title>Node12</title>
<g id="a_Node000012"><a xlink:title=" ">
<polygon fill="#e0e0e0" stroke="#999999" points="557.5,-129 484.5,-129 484.5,-110 557.5,-110 557.5,-129"/>
<text text-anchor="middle" x="521" y="-117" font-family="Helvetica,sans-Serif" font-size="10.00">audio_hal.h</text>
</a>
</g>
</g>
<!-- Node9&#45;&gt;Node12 -->
<g id="edge13_Node000009_Node000012" class="edge">
<title>Node9&#45;&gt;Node12</title>
<g id="a_edge13_Node000009_Node000012"><a xlink:title=" ">
<path fill="none" stroke="#63b8ff" d="M521,-164.75C521,-157.8 521,-147.85 521,-139.13"/>
<polygon fill="#63b8ff" stroke="#63b8ff" points="524.5,-139.09 521,-129.09 517.5,-139.09 524.5,-139.09"/>
</a>
</g>
</g>
<!-- Node13 -->
<g id="Node000013" class="node">
<title>Node13</title>
<g id="a_Node000013"><a xlink:title=" ">
<polygon fill="#e0e0e0" stroke="#999999" points="678.5,-129 575.5,-129 575.5,-110 678.5,-110 678.5,-129"/>
<text text-anchor="middle" x="627" y="-117" font-family="Helvetica,sans-Serif" font-size="10.00">esxxx_common.h</text>
</a>
</g>
</g>
<!-- Node9&#45;&gt;Node13 -->
<g id="edge14_Node000009_Node000013" class="edge">
<title>Node9&#45;&gt;Node13</title>
<g id="a_edge14_Node000009_Node000013"><a xlink:title=" ">
<path fill="none" stroke="#63b8ff" d="M538.03,-164.98C554.93,-156.54 581.06,-143.47 600.64,-133.68"/>
<polygon fill="#63b8ff" stroke="#63b8ff" points="602.28,-136.77 609.66,-129.17 599.15,-130.51 602.28,-136.77"/>
</a>
</g>
</g>
<!-- Node14 -->
<g id="Node000014" class="node">
<title>Node14</title>
<g id="a_Node000014"><a xlink:href="sevetest30__gpio_8h.html" target="_top" xlink:title=" ">
<polygon fill="white" stroke="#666666" points="803,-129 697,-129 697,-110 803,-110 803,-129"/>
<text text-anchor="middle" x="750" y="-117" font-family="Helvetica,sans-Serif" font-size="10.00">sevetest30_gpio.h</text>
</a>
</g>
</g>
<!-- Node9&#45;&gt;Node14 -->
<g id="edge15_Node000009_Node000014" class="edge">
<title>Node9&#45;&gt;Node14</title>
<g id="a_edge15_Node000009_Node000014"><a xlink:title=" ">
<path fill="none" stroke="#63b8ff" d="M557.79,-164.98C597.24,-155.86 659.98,-141.33 702.98,-131.38"/>
<polygon fill="#63b8ff" stroke="#63b8ff" points="703.97,-134.75 712.92,-129.08 702.39,-127.93 703.97,-134.75"/>
</a>
</g>
</g>
<!-- Node16 -->
<g id="Node000016" class="node">
<title>Node16</title>
<g id="a_Node000016"><a xlink:title=" ">
<polygon fill="#e0e0e0" stroke="#999999" points="892.5,-129 821.5,-129 821.5,-110 892.5,-110 892.5,-129"/>
<text text-anchor="middle" x="857" y="-117" font-family="Helvetica,sans-Serif" font-size="10.00">driver/i2c.h</text>
</a>
</g>
</g>
<!-- Node9&#45;&gt;Node16 -->
<g id="edge20_Node000009_Node000016" class="edge">
<title>Node9&#45;&gt;Node16</title>
<g id="a_edge20_Node000009_Node000016"><a xlink:title=" ">
<path fill="none" stroke="#63b8ff" d="M558.18,-166.66C561.5,-166.09 564.81,-165.52 568,-165 673,-147.76 702.21,-147.2 811.08,-129.09"/>
<polygon fill="#63b8ff" stroke="#63b8ff" points="811.88,-132.51 821.16,-127.4 810.72,-125.6 811.88,-132.51"/>
</a>
</g>
</g>
<!-- Node17 -->
<g id="Node000017" class="node">
<title>Node17</title>
<g id="a_Node000017"><a xlink:title=" ">
<polygon fill="#e0e0e0" stroke="#999999" points="1029.5,-129 910.5,-129 910.5,-110 1029.5,-110 1029.5,-129"/>
<text text-anchor="middle" x="970" y="-117" font-family="Helvetica,sans-Serif" font-size="10.00">driver/spi_common.h</text>
</a>
</g>
</g>
<!-- Node9&#45;&gt;Node17 -->
<g id="edge21_Node000009_Node000017" class="edge">
<title>Node9&#45;&gt;Node17</title>
<g id="a_edge21_Node000009_Node000017"><a xlink:title=" ">
<path fill="none" stroke="#63b8ff" d="M558.16,-166.53C561.48,-165.98 564.8,-165.46 568,-165 712.46,-144.18 751.94,-146.16 899.93,-129.22"/>
<polygon fill="#63b8ff" stroke="#63b8ff" points="900.77,-132.64 910.3,-128.02 899.97,-125.69 900.77,-132.64"/>
</a>
</g>
</g>
<!-- Node18 -->
<g id="Node000018" class="node">
<title>Node18</title>
<g id="a_Node000018"><a xlink:title=" ">
<polygon fill="#e0e0e0" stroke="#999999" points="252,-129 142,-129 142,-110 252,-110 252,-129"/>
<text text-anchor="middle" x="197" y="-117" font-family="Helvetica,sans-Serif" font-size="10.00">driver/spi_master.h</text>
</a>
</g>
</g>
<!-- Node9&#45;&gt;Node18 -->
<g id="edge22_Node000009_Node000018" class="edge">
<title>Node9&#45;&gt;Node18</title>
<g id="a_edge22_Node000009_Node000018"><a xlink:title=" ">
<path fill="none" stroke="#63b8ff" d="M483.83,-167.42C428.97,-158.45 325.64,-141.54 259.14,-130.66"/>
<polygon fill="#63b8ff" stroke="#63b8ff" points="259.63,-127.2 249.2,-129.04 258.5,-134.11 259.63,-127.2"/>
</a>
</g>
</g>
<!-- Node19 -->
<g id="Node000019" class="node">
<title>Node19</title>
<g id="a_Node000019"><a xlink:title=" ">
<polygon fill="#e0e0e0" stroke="#999999" points="373.5,-129 270.5,-129 270.5,-110 373.5,-110 373.5,-129"/>
<text text-anchor="middle" x="322" y="-117" font-family="Helvetica,sans-Serif" font-size="10.00">esp_peripherals.h</text>
</a>
</g>
</g>
<!-- Node9&#45;&gt;Node19 -->
<g id="edge23_Node000009_Node000019" class="edge">
<title>Node9&#45;&gt;Node19</title>
<g id="a_edge23_Node000009_Node000019"><a xlink:title=" ">
<path fill="none" stroke="#63b8ff" d="M489.03,-164.98C455.18,-155.97 401.6,-141.7 364.29,-131.76"/>
<polygon fill="#63b8ff" stroke="#63b8ff" points="364.79,-128.27 354.22,-129.08 362.99,-135.04 364.79,-128.27"/>
</a>
</g>
</g>
<!-- Node20 -->
<g id="Node000020" class="node">
<title>Node20</title>
<g id="a_Node000020"><a xlink:href="_b_l5372_8h.html" target="_top" xlink:title=" ">
<polygon fill="white" stroke="#666666" points="1110,-129 1048,-129 1048,-110 1110,-110 1110,-129"/>
<text text-anchor="middle" x="1079" y="-117" font-family="Helvetica,sans-Serif" font-size="10.00">BL5372.h</text>
</a>
</g>
</g>
<!-- Node9&#45;&gt;Node20 -->
<g id="edge24_Node000009_Node000020" class="edge">
<title>Node9&#45;&gt;Node20</title>
<g id="a_edge24_Node000009_Node000020"><a xlink:title=" ">
<path fill="none" stroke="#63b8ff" d="M558.15,-166.42C561.47,-165.89 564.79,-165.41 568,-165 772.98,-138.7 829.44,-158.25 1037.6,-129.01"/>
<polygon fill="#63b8ff" stroke="#63b8ff" points="1038.22,-132.46 1047.63,-127.58 1037.23,-125.53 1038.22,-132.46"/>
</a>
</g>
</g>
<!-- Node15 -->
<g id="Node000015" class="node">
<title>Node15</title>
<g id="a_Node000015"><a xlink:href="_t_c_a6416_a_8h.html" target="_top" xlink:title=" ">
<polygon fill="white" stroke="#666666" points="502.5,-74 427.5,-74 427.5,-55 502.5,-55 502.5,-74"/>
<text text-anchor="middle" x="465" y="-62" font-family="Helvetica,sans-Serif" font-size="10.00">TCA6416A.h</text>
</a>
</g>
</g>
<!-- Node14&#45;&gt;Node15 -->
<g id="edge16_Node000014_Node000015" class="edge">
<title>Node14&#45;&gt;Node15</title>
<g id="a_edge16_Node000014_Node000015"><a xlink:title=" ">
<path fill="none" stroke="#63b8ff" d="M704.21,-109.98C651.73,-100.23 566.13,-84.31 512.81,-74.39"/>
<polygon fill="#63b8ff" stroke="#63b8ff" points="513.4,-70.94 502.93,-72.55 512.12,-77.82 513.4,-70.94"/>
</a>
</g>
</g>
<!-- Node15&#45;&gt;Node2 -->
<g id="edge17_Node000015_Node000002" class="edge">
<title>Node15&#45;&gt;Node2</title>
<g id="a_edge17_Node000015_Node000002"><a xlink:title=" ">
<path fill="none" stroke="#63b8ff" d="M427.35,-58.37C352.84,-48.22 187.39,-25.68 113.23,-15.57"/>
<polygon fill="#63b8ff" stroke="#63b8ff" points="113.35,-12.06 102.97,-14.17 112.41,-18.99 113.35,-12.06"/>
</a>
</g>
</g>
<!-- Node15&#45;&gt;Node4 -->
<g id="edge18_Node000015_Node000004" class="edge">
<title>Node15&#45;&gt;Node4</title>
<g id="a_edge18_Node000015_Node000004"><a xlink:title=" ">
<path fill="none" stroke="#63b8ff" d="M439.94,-54.98C413.97,-46.16 373.19,-32.31 344.04,-22.41"/>
<polygon fill="#63b8ff" stroke="#63b8ff" points="344.85,-18.99 334.26,-19.08 342.6,-25.61 344.85,-18.99"/>
</a>
</g>
</g>
<!-- Node15&#45;&gt;Node5 -->
<g id="edge19_Node000015_Node000005" class="edge">
<title>Node15&#45;&gt;Node5</title>
<g id="a_edge19_Node000015_Node000005"><a xlink:title=" ">
<path fill="none" stroke="#63b8ff" d="M502.7,-60.22C610.9,-50.82 921.87,-23.8 1034.04,-14.06"/>
<polygon fill="#63b8ff" stroke="#63b8ff" points="1034.6,-17.52 1044.26,-13.17 1033.99,-10.55 1034.6,-17.52"/>
</a>
</g>
</g>
<!-- Node20&#45;&gt;Node5 -->
<g id="edge26_Node000020_Node000005" class="edge">
<title>Node20&#45;&gt;Node5</title>
<g id="a_edge26_Node000020_Node000005"><a xlink:title=" ">
<path fill="none" stroke="#63b8ff" d="M1078.67,-109.66C1078.02,-92.17 1076.57,-52.8 1075.7,-29.27"/>
<polygon fill="#63b8ff" stroke="#63b8ff" points="1079.19,-29.02 1075.32,-19.16 1072.19,-29.28 1079.19,-29.02"/>
</a>
</g>
</g>
<!-- Node20&#45;&gt;Node10 -->
<g id="edge25_Node000020_Node000010" class="edge">
<title>Node20&#45;&gt;Node10</title>
<g id="a_edge25_Node000020_Node000010"><a xlink:title=" ">
<path fill="none" stroke="#63b8ff" d="M1088.96,-109.98C1098.13,-102.15 1111.94,-90.34 1123.03,-80.86"/>
<polygon fill="#63b8ff" stroke="#63b8ff" points="1125.53,-83.33 1130.86,-74.17 1120.98,-78.01 1125.53,-83.33"/>
</a>
</g>
</g>
</g>
</svg>
