<?xml version="1.0" encoding="UTF-8" standalone="no"?>
<!DOCTYPE svg PUBLIC "-//W3C//DTD SVG 1.1//EN"
 "http://www.w3.org/Graphics/SVG/1.1/DTD/svg11.dtd">
<!-- Generated by graphviz version 2.43.0 (0)
 -->
<!-- Title: main/sevetest30_SWEDA.c Pages: 1 -->
<svg width="728pt" height="192pt"
 viewBox="0.00 0.00 728.00 192.00" xmlns="http://www.w3.org/2000/svg" xmlns:xlink="http://www.w3.org/1999/xlink">
<g id="graph0" class="graph" transform="scale(1 1) rotate(0) translate(4 188)">
<title>main/sevetest30_SWEDA.c</title>
<!-- Node1 -->
<g id="Node000001" class="node">
<title>Node1</title>
<g id="a_Node000001"><a xlink:title=" ">
<polygon fill="#999999" stroke="#666666" points="485,-184 337,-184 337,-165 485,-165 485,-184"/>
<text text-anchor="middle" x="411" y="-172" font-family="Helvetica,sans-Serif" font-size="10.00">main/sevetest30_SWEDA.c</text>
</a>
</g>
</g>
<!-- Node2 -->
<g id="Node000002" class="node">
<title>Node2</title>
<g id="a_Node000002"><a xlink:href="sevetest30___s_w_e_d_a_8h.html" target="_top" xlink:title=" ">
<polygon fill="white" stroke="#666666" points="231.5,-129 110.5,-129 110.5,-110 231.5,-110 231.5,-129"/>
<text text-anchor="middle" x="171" y="-117" font-family="Helvetica,sans-Serif" font-size="10.00">sevetest30_SWEDA.h</text>
</a>
</g>
</g>
<!-- Node1&#45;&gt;Node2 -->
<g id="edge1_Node000001_Node000002" class="edge">
<title>Node1&#45;&gt;Node2</title>
<g id="a_edge1_Node000001_Node000002"><a xlink:title=" ">
<path fill="none" stroke="#63b8ff" d="M372.44,-164.98C330.93,-155.82 264.79,-141.21 219.71,-131.26"/>
<polygon fill="#63b8ff" stroke="#63b8ff" points="220.38,-127.82 209.86,-129.08 218.87,-134.66 220.38,-127.82"/>
</a>
</g>
</g>
<!-- Node12 -->
<g id="Node000012" class="node">
<title>Node12</title>
<g id="a_Node000012"><a xlink:title=" ">
<polygon fill="#e0e0e0" stroke="#999999" points="318.5,-129 249.5,-129 249.5,-110 318.5,-110 318.5,-129"/>
<text text-anchor="middle" x="284" y="-117" font-family="Helvetica,sans-Serif" font-size="10.00">esp_sntp.h</text>
</a>
</g>
</g>
<!-- Node1&#45;&gt;Node12 -->
<g id="edge15_Node000001_Node000012" class="edge">
<title>Node1&#45;&gt;Node12</title>
<g id="a_edge15_Node000001_Node000012"><a xlink:title=" ">
<path fill="none" stroke="#63b8ff" d="M390.6,-164.98C369.98,-156.38 337.89,-142.99 314.31,-133.15"/>
<polygon fill="#63b8ff" stroke="#63b8ff" points="315.35,-129.79 304.78,-129.17 312.66,-136.25 315.35,-129.79"/>
</a>
</g>
</g>
<!-- Node13 -->
<g id="Node000013" class="node">
<title>Node13</title>
<g id="a_Node000013"><a xlink:title=" ">
<polygon fill="#e0e0e0" stroke="#999999" points="399.5,-129 336.5,-129 336.5,-110 399.5,-110 399.5,-129"/>
<text text-anchor="middle" x="368" y="-117" font-family="Helvetica,sans-Serif" font-size="10.00">esp_log.h</text>
</a>
</g>
</g>
<!-- Node1&#45;&gt;Node13 -->
<g id="edge16_Node000001_Node000013" class="edge">
<title>Node1&#45;&gt;Node13</title>
<g id="a_edge16_Node000001_Node000013"><a xlink:title=" ">
<path fill="none" stroke="#63b8ff" d="M403.9,-164.75C397.83,-157.26 388.91,-146.28 381.49,-137.13"/>
<polygon fill="#63b8ff" stroke="#63b8ff" points="383.99,-134.65 374.97,-129.09 378.55,-139.06 383.99,-134.65"/>
</a>
</g>
</g>
<!-- Node14 -->
<g id="Node000014" class="node">
<title>Node14</title>
<g id="a_Node000014"><a xlink:title=" ">
<polygon fill="#e0e0e0" stroke="#999999" points="492,-129 418,-129 418,-110 492,-110 492,-129"/>
<text text-anchor="middle" x="455" y="-117" font-family="Helvetica,sans-Serif" font-size="10.00">driver/adc.h</text>
</a>
</g>
</g>
<!-- Node1&#45;&gt;Node14 -->
<g id="edge17_Node000001_Node000014" class="edge">
<title>Node1&#45;&gt;Node14</title>
<g id="a_edge17_Node000001_Node000014"><a xlink:title=" ">
<path fill="none" stroke="#63b8ff" d="M418.27,-164.75C424.54,-157.18 433.79,-146.05 441.43,-136.84"/>
<polygon fill="#63b8ff" stroke="#63b8ff" points="444.17,-139.02 447.87,-129.09 438.79,-134.55 444.17,-139.02"/>
</a>
</g>
</g>
<!-- Node15 -->
<g id="Node000015" class="node">
<title>Node15</title>
<g id="a_Node000015"><a xlink:title=" ">
<polygon fill="#e0e0e0" stroke="#999999" points="595.5,-129 510.5,-129 510.5,-110 595.5,-110 595.5,-129"/>
<text text-anchor="middle" x="553" y="-117" font-family="Helvetica,sans-Serif" font-size="10.00">esp_adc_cal.h</text>
</a>
</g>
</g>
<!-- Node1&#45;&gt;Node15 -->
<g id="edge18_Node000001_Node000015" class="edge">
<title>Node1&#45;&gt;Node15</title>
<g id="a_edge18_Node000001_Node000015"><a xlink:title=" ">
<path fill="none" stroke="#63b8ff" d="M433.81,-164.98C457.17,-156.27 493.7,-142.63 520.17,-132.75"/>
<polygon fill="#63b8ff" stroke="#63b8ff" points="521.63,-135.95 529.77,-129.17 519.18,-129.39 521.63,-135.95"/>
</a>
</g>
</g>
<!-- Node16 -->
<g id="Node000016" class="node">
<title>Node16</title>
<g id="a_Node000016"><a xlink:href="sevetest30__gpio_8h.html" target="_top" xlink:title=" ">
<polygon fill="white" stroke="#666666" points="720,-129 614,-129 614,-110 720,-110 720,-129"/>
<text text-anchor="middle" x="667" y="-117" font-family="Helvetica,sans-Serif" font-size="10.00">sevetest30_gpio.h</text>
</a>
</g>
</g>
<!-- Node1&#45;&gt;Node16 -->
<g id="edge19_Node000001_Node000016" class="edge">
<title>Node1&#45;&gt;Node16</title>
<g id="a_edge19_Node000001_Node000016"><a xlink:title=" ">
<path fill="none" stroke="#63b8ff" d="M452.13,-164.98C496.6,-155.78 567.55,-141.09 615.65,-131.13"/>
<polygon fill="#63b8ff" stroke="#63b8ff" points="616.46,-134.54 625.55,-129.08 615.04,-127.68 616.46,-134.54"/>
</a>
</g>
</g>
<!-- Node3 -->
<g id="Node000003" class="node">
<title>Node3</title>
<g id="a_Node000003"><a xlink:title=" ">
<polygon fill="#e0e0e0" stroke="#999999" points="445,-74 395,-74 395,-55 445,-55 445,-74"/>
<text text-anchor="middle" x="420" y="-62" font-family="Helvetica,sans-Serif" font-size="10.00">stdio.h</text>
</a>
</g>
</g>
<!-- Node2&#45;&gt;Node3 -->
<g id="edge2_Node000002_Node000003" class="edge">
<title>Node2&#45;&gt;Node3</title>
<g id="a_edge2_Node000002_Node000003"><a xlink:title=" ">
<path fill="none" stroke="#63b8ff" d="M211.67,-109.96C253.98,-101.05 322.16,-86.65 381,-74 382.26,-73.73 383.54,-73.45 384.83,-73.17"/>
<polygon fill="#63b8ff" stroke="#63b8ff" points="385.8,-76.55 394.83,-71.01 384.31,-69.71 385.8,-76.55"/>
</a>
</g>
</g>
<!-- Node4 -->
<g id="Node000004" class="node">
<title>Node4</title>
<g id="a_Node000004"><a xlink:title=" ">
<polygon fill="#e0e0e0" stroke="#999999" points="475,-19 413,-19 413,0 475,0 475,-19"/>
<text text-anchor="middle" x="444" y="-7" font-family="Helvetica,sans-Serif" font-size="10.00">stdbool.h</text>
</a>
</g>
</g>
<!-- Node2&#45;&gt;Node4 -->
<g id="edge3_Node000002_Node000004" class="edge">
<title>Node2&#45;&gt;Node4</title>
<g id="a_edge3_Node000002_Node000004"><a xlink:title=" ">
<path fill="none" stroke="#63b8ff" d="M224.43,-109.95C260.38,-103.03 308.28,-91.52 348,-74 377.2,-61.12 407.33,-39.6 425.86,-25.23"/>
<polygon fill="#63b8ff" stroke="#63b8ff" points="428.07,-27.95 433.75,-19 423.73,-22.45 428.07,-27.95"/>
</a>
</g>
</g>
<!-- Node5 -->
<g id="Node000005" class="node">
<title>Node5</title>
<g id="a_Node000005"><a xlink:title=" ">
<polygon fill="#e0e0e0" stroke="#999999" points="74,-19 0,-19 0,0 74,0 74,-19"/>
<text text-anchor="middle" x="37" y="-7" font-family="Helvetica,sans-Serif" font-size="10.00">board_def.h</text>
</a>
</g>
</g>
<!-- Node2&#45;&gt;Node5 -->
<g id="edge4_Node000002_Node000005" class="edge">
<title>Node2&#45;&gt;Node5</title>
<g id="a_edge4_Node000002_Node000005"><a xlink:title=" ">
<path fill="none" stroke="#63b8ff" d="M117.65,-109.94C78.51,-102.44 30.16,-90.21 18,-74 7.79,-60.39 15.71,-41.32 24.23,-27.63"/>
<polygon fill="#63b8ff" stroke="#63b8ff" points="27.27,-29.39 30,-19.15 21.48,-25.45 27.27,-29.39"/>
</a>
</g>
</g>
<!-- Node6 -->
<g id="Node000006" class="node">
<title>Node6</title>
<g id="a_Node000006"><a xlink:href="_a_h_t21_8h.html" target="_top" xlink:title=" ">
<polygon fill="white" stroke="#666666" points="161,-74 103,-74 103,-55 161,-55 161,-74"/>
<text text-anchor="middle" x="132" y="-62" font-family="Helvetica,sans-Serif" font-size="10.00">AHT21.h</text>
</a>
</g>
</g>
<!-- Node2&#45;&gt;Node6 -->
<g id="edge5_Node000002_Node000006" class="edge">
<title>Node2&#45;&gt;Node6</title>
<g id="a_edge5_Node000002_Node000006"><a xlink:title=" ">
<path fill="none" stroke="#63b8ff" d="M164.56,-109.75C159.11,-102.34 151.14,-91.5 144.44,-82.41"/>
<polygon fill="#63b8ff" stroke="#63b8ff" points="147.07,-80.07 138.32,-74.09 141.43,-84.22 147.07,-80.07"/>
</a>
</g>
</g>
<!-- Node8 -->
<g id="Node000008" class="node">
<title>Node8</title>
<g id="a_Node000008"><a xlink:href="_a_g_s10_8h.html" target="_top" xlink:title=" ">
<polygon fill="white" stroke="#666666" points="85,-74 27,-74 27,-55 85,-55 85,-74"/>
<text text-anchor="middle" x="56" y="-62" font-family="Helvetica,sans-Serif" font-size="10.00">AGS10.h</text>
</a>
</g>
</g>
<!-- Node2&#45;&gt;Node8 -->
<g id="edge7_Node000002_Node000008" class="edge">
<title>Node2&#45;&gt;Node8</title>
<g id="a_edge7_Node000002_Node000008"><a xlink:title=" ">
<path fill="none" stroke="#63b8ff" d="M152.52,-109.98C134.02,-101.46 105.32,-88.23 84.02,-78.41"/>
<polygon fill="#63b8ff" stroke="#63b8ff" points="85.36,-75.18 74.81,-74.17 82.43,-81.53 85.36,-75.18"/>
</a>
</g>
</g>
<!-- Node9 -->
<g id="Node000009" class="node">
<title>Node9</title>
<g id="a_Node000009"><a xlink:href="_b_l5372_8h.html" target="_top" xlink:title=" ">
<polygon fill="white" stroke="#666666" points="241,-74 179,-74 179,-55 241,-55 241,-74"/>
<text text-anchor="middle" x="210" y="-62" font-family="Helvetica,sans-Serif" font-size="10.00">BL5372.h</text>
</a>
</g>
</g>
<!-- Node2&#45;&gt;Node9 -->
<g id="edge10_Node000002_Node000009" class="edge">
<title>Node2&#45;&gt;Node9</title>
<g id="a_edge10_Node000002_Node000009"><a xlink:title=" ">
<path fill="none" stroke="#63b8ff" d="M177.44,-109.75C182.89,-102.34 190.86,-91.5 197.56,-82.41"/>
<polygon fill="#63b8ff" stroke="#63b8ff" points="200.57,-84.22 203.68,-74.09 194.93,-80.07 200.57,-84.22"/>
</a>
</g>
</g>
<!-- Node10 -->
<g id="Node000010" class="node">
<title>Node10</title>
<g id="a_Node000010"><a xlink:href="lsm6ds3trc_8h.html" target="_top" xlink:title=" ">
<polygon fill="white" stroke="#666666" points="339,-74 259,-74 259,-55 339,-55 339,-74"/>
<text text-anchor="middle" x="299" y="-62" font-family="Helvetica,sans-Serif" font-size="10.00">lsm6ds3trc.h</text>
</a>
</g>
</g>
<!-- Node2&#45;&gt;Node10 -->
<g id="edge12_Node000002_Node000010" class="edge">
<title>Node2&#45;&gt;Node10</title>
<g id="a_edge12_Node000002_Node000010"><a xlink:title=" ">
<path fill="none" stroke="#63b8ff" d="M191.57,-109.98C212.43,-101.34 244.97,-87.87 268.77,-78.02"/>
<polygon fill="#63b8ff" stroke="#63b8ff" points="270.16,-81.23 278.06,-74.17 267.48,-74.76 270.16,-81.23"/>
</a>
</g>
</g>
<!-- Node7 -->
<g id="Node000007" class="node">
<title>Node7</title>
<g id="a_Node000007"><a xlink:title=" ">
<polygon fill="#e0e0e0" stroke="#999999" points="187.5,-19 112.5,-19 112.5,0 187.5,0 187.5,-19"/>
<text text-anchor="middle" x="150" y="-7" font-family="Helvetica,sans-Serif" font-size="10.00">esp_types.h</text>
</a>
</g>
</g>
<!-- Node6&#45;&gt;Node7 -->
<g id="edge6_Node000006_Node000007" class="edge">
<title>Node6&#45;&gt;Node7</title>
<g id="a_edge6_Node000006_Node000007"><a xlink:title=" ">
<path fill="none" stroke="#63b8ff" d="M134.97,-54.75C137.36,-47.72 140.79,-37.62 143.77,-28.84"/>
<polygon fill="#63b8ff" stroke="#63b8ff" points="147.18,-29.68 147.08,-19.09 140.55,-27.43 147.18,-29.68"/>
</a>
</g>
</g>
<!-- Node8&#45;&gt;Node5 -->
<g id="edge9_Node000008_Node000005" class="edge">
<title>Node8&#45;&gt;Node5</title>
<g id="a_edge9_Node000008_Node000005"><a xlink:title=" ">
<path fill="none" stroke="#63b8ff" d="M52.86,-54.75C50.32,-47.65 46.64,-37.4 43.47,-28.56"/>
<polygon fill="#63b8ff" stroke="#63b8ff" points="46.75,-27.32 40.08,-19.09 40.16,-29.68 46.75,-27.32"/>
</a>
</g>
</g>
<!-- Node8&#45;&gt;Node7 -->
<g id="edge8_Node000008_Node000007" class="edge">
<title>Node8&#45;&gt;Node7</title>
<g id="a_edge8_Node000008_Node000007"><a xlink:title=" ">
<path fill="none" stroke="#63b8ff" d="M71.1,-54.98C85.82,-46.69 108.42,-33.94 125.67,-24.22"/>
<polygon fill="#63b8ff" stroke="#63b8ff" points="127.63,-27.13 134.62,-19.17 124.19,-21.03 127.63,-27.13"/>
</a>
</g>
</g>
<!-- Node9&#45;&gt;Node7 -->
<g id="edge11_Node000009_Node000007" class="edge">
<title>Node9&#45;&gt;Node7</title>
<g id="a_edge11_Node000009_Node000007"><a xlink:title=" ">
<path fill="none" stroke="#63b8ff" d="M200.36,-54.98C191.49,-47.15 178.13,-35.34 167.39,-25.86"/>
<polygon fill="#63b8ff" stroke="#63b8ff" points="169.63,-23.17 159.82,-19.17 164.99,-28.41 169.63,-23.17"/>
</a>
</g>
</g>
<!-- Node10&#45;&gt;Node7 -->
<g id="edge13_Node000010_Node000007" class="edge">
<title>Node10&#45;&gt;Node7</title>
<g id="a_edge13_Node000010_Node000007"><a xlink:title=" ">
<path fill="none" stroke="#63b8ff" d="M275.06,-54.98C250.44,-46.23 211.88,-32.51 184.08,-22.62"/>
<polygon fill="#63b8ff" stroke="#63b8ff" points="184.97,-19.22 174.38,-19.17 182.62,-25.82 184.97,-19.22"/>
</a>
</g>
</g>
<!-- Node11 -->
<g id="Node000011" class="node">
<title>Node11</title>
<g id="a_Node000011"><a xlink:title=" ">
<polygon fill="#e0e0e0" stroke="#999999" points="329.5,-19 268.5,-19 268.5,0 329.5,0 329.5,-19"/>
<text text-anchor="middle" x="299" y="-7" font-family="Helvetica,sans-Serif" font-size="10.00">esp_err.h</text>
</a>
</g>
</g>
<!-- Node10&#45;&gt;Node11 -->
<g id="edge14_Node000010_Node000011" class="edge">
<title>Node10&#45;&gt;Node11</title>
<g id="a_edge14_Node000010_Node000011"><a xlink:title=" ">
<path fill="none" stroke="#63b8ff" d="M299,-54.75C299,-47.8 299,-37.85 299,-29.13"/>
<polygon fill="#63b8ff" stroke="#63b8ff" points="302.5,-29.09 299,-19.09 295.5,-29.09 302.5,-29.09"/>
</a>
</g>
</g>
<!-- Node17 -->
<g id="Node000017" class="node">
<title>Node17</title>
<g id="a_Node000017"><a xlink:href="_t_c_a6416_a_8h.html" target="_top" xlink:title=" ">
<polygon fill="white" stroke="#666666" points="621.5,-74 546.5,-74 546.5,-55 621.5,-55 621.5,-74"/>
<text text-anchor="middle" x="584" y="-62" font-family="Helvetica,sans-Serif" font-size="10.00">TCA6416A.h</text>
</a>
</g>
</g>
<!-- Node16&#45;&gt;Node17 -->
<g id="edge20_Node000016_Node000017" class="edge">
<title>Node16&#45;&gt;Node17</title>
<g id="a_edge20_Node000016_Node000017"><a xlink:title=" ">
<path fill="none" stroke="#63b8ff" d="M653.66,-109.98C640.91,-101.84 621.45,-89.41 606.33,-79.76"/>
<polygon fill="#63b8ff" stroke="#63b8ff" points="607.89,-76.6 597.58,-74.17 604.12,-82.5 607.89,-76.6"/>
</a>
</g>
</g>
<!-- Node17&#45;&gt;Node4 -->
<g id="edge22_Node000017_Node000004" class="edge">
<title>Node17&#45;&gt;Node4</title>
<g id="a_edge22_Node000017_Node000004"><a xlink:title=" ">
<path fill="none" stroke="#63b8ff" d="M561.51,-54.98C538.48,-46.27 502.46,-32.63 476.37,-22.75"/>
<polygon fill="#63b8ff" stroke="#63b8ff" points="477.49,-19.44 466.9,-19.17 475.02,-25.98 477.49,-19.44"/>
</a>
</g>
</g>
<!-- Node18 -->
<g id="Node000018" class="node">
<title>Node18</title>
<g id="a_Node000018"><a xlink:title=" ">
<polygon fill="#e0e0e0" stroke="#999999" points="610.5,-19 557.5,-19 557.5,0 610.5,0 610.5,-19"/>
<text text-anchor="middle" x="584" y="-7" font-family="Helvetica,sans-Serif" font-size="10.00">string.h</text>
</a>
</g>
</g>
<!-- Node17&#45;&gt;Node18 -->
<g id="edge21_Node000017_Node000018" class="edge">
<title>Node17&#45;&gt;Node18</title>
<g id="a_edge21_Node000017_Node000018"><a xlink:title=" ">
<path fill="none" stroke="#63b8ff" d="M584,-54.75C584,-47.8 584,-37.85 584,-29.13"/>
<polygon fill="#63b8ff" stroke="#63b8ff" points="587.5,-29.09 584,-19.09 580.5,-29.09 587.5,-29.09"/>
</a>
</g>
</g>
</g>
</svg>
