<?xml version="1.0" encoding="UTF-8" standalone="no"?>
<!DOCTYPE svg PUBLIC "-//W3C//DTD SVG 1.1//EN"
 "http://www.w3.org/Graphics/SVG/1.1/DTD/svg11.dtd">
<!-- Generated by graphviz version 2.43.0 (0)
 -->
<!-- Title: main/sevetest30_sound.c Pages: 1 -->
<svg width="3903pt" height="302pt"
 viewBox="0.00 0.00 3902.50 302.00" xmlns="http://www.w3.org/2000/svg" xmlns:xlink="http://www.w3.org/1999/xlink">
<g id="graph0" class="graph" transform="scale(1 1) rotate(0) translate(4 298)">
<title>main/sevetest30_sound.c</title>
<!-- Node1 -->
<g id="Node000001" class="node">
<title>Node1</title>
<g id="a_Node000001"><a xlink:title=" ">
<polygon fill="#999999" stroke="#666666" points="2143,-294 2002,-294 2002,-275 2143,-275 2143,-294"/>
<text text-anchor="middle" x="2072.5" y="-282" font-family="Helvetica,sans-Serif" font-size="10.00">main/sevetest30_sound.c</text>
</a>
</g>
</g>
<!-- Node2 -->
<g id="Node000002" class="node">
<title>Node2</title>
<g id="a_Node000002"><a xlink:href="sevetest30__sound_8h.html" target="_top" xlink:title=" ">
<polygon fill="white" stroke="#666666" points="577.5,-239 463.5,-239 463.5,-220 577.5,-220 577.5,-239"/>
<text text-anchor="middle" x="520.5" y="-227" font-family="Helvetica,sans-Serif" font-size="10.00">sevetest30_sound.h</text>
</a>
</g>
</g>
<!-- Node1&#45;&gt;Node2 -->
<g id="edge1_Node000001_Node000002" class="edge">
<title>Node1&#45;&gt;Node2</title>
<g id="a_edge1_Node000001_Node000002"><a xlink:title=" ">
<path fill="none" stroke="#63b8ff" d="M2001.66,-281.37C1801.33,-275.3 1213.6,-257.18 725.5,-239 679.66,-237.29 628.05,-235.15 588.09,-233.45"/>
<polygon fill="#63b8ff" stroke="#63b8ff" points="588.07,-229.94 577.93,-233.01 587.77,-236.94 588.07,-229.94"/>
</a>
</g>
</g>
<!-- Node6 -->
<g id="Node000006" class="node">
<title>Node6</title>
<g id="a_Node000006"><a xlink:title=" ">
<polygon fill="#e0e0e0" stroke="#999999" points="407,-184 292,-184 292,-165 407,-165 407,-184"/>
<text text-anchor="middle" x="349.5" y="-172" font-family="Helvetica,sans-Serif" font-size="10.00">audio_event_iface.h</text>
</a>
</g>
</g>
<!-- Node1&#45;&gt;Node6 -->
<g id="edge43_Node000001_Node000006" class="edge">
<title>Node1&#45;&gt;Node6</title>
<g id="a_edge43_Node000001_Node000006"><a xlink:title=" ">
<path fill="none" stroke="#63b8ff" d="M2001.89,-283.68C1709.76,-284.14 604.05,-282.93 454.5,-239 421.03,-229.17 387.41,-205.93 367.53,-190.46"/>
<polygon fill="#63b8ff" stroke="#63b8ff" points="369.65,-187.68 359.66,-184.17 365.29,-193.15 369.65,-187.68"/>
</a>
</g>
</g>
<!-- Node7 -->
<g id="Node000007" class="node">
<title>Node7</title>
<g id="a_Node000007"><a xlink:href="sevetest30___i_w_e_d_a_8h.html" target="_top" xlink:title=" ">
<polygon fill="white" stroke="#666666" points="204.5,-239 86.5,-239 86.5,-220 204.5,-220 204.5,-239"/>
<text text-anchor="middle" x="145.5" y="-227" font-family="Helvetica,sans-Serif" font-size="10.00">sevetest30_IWEDA.h</text>
</a>
</g>
</g>
<!-- Node1&#45;&gt;Node7 -->
<g id="edge6_Node000001_Node000007" class="edge">
<title>Node1&#45;&gt;Node7</title>
<g id="a_edge6_Node000001_Node000007"><a xlink:title=" ">
<path fill="none" stroke="#63b8ff" d="M2001.62,-282.46C1762.29,-278.81 962.24,-265.3 301.5,-239 273.14,-237.87 241.91,-236.25 214.88,-234.72"/>
<polygon fill="#63b8ff" stroke="#63b8ff" points="214.93,-231.21 204.74,-234.14 214.53,-238.2 214.93,-231.21"/>
</a>
</g>
</g>
<!-- Node8 -->
<g id="Node000008" class="node">
<title>Node8</title>
<g id="a_Node000008"><a xlink:title=" ">
<polygon fill="#e0e0e0" stroke="#999999" points="79,-184 0,-184 0,-165 79,-165 79,-184"/>
<text text-anchor="middle" x="39.5" y="-172" font-family="Helvetica,sans-Serif" font-size="10.00">periph_wifi.h</text>
</a>
</g>
</g>
<!-- Node1&#45;&gt;Node8 -->
<g id="edge61_Node000001_Node000008" class="edge">
<title>Node1&#45;&gt;Node8</title>
<g id="a_edge61_Node000001_Node000008"><a xlink:title=" ">
<path fill="none" stroke="#63b8ff" d="M2001.94,-283.83C1657.09,-285.21 162.23,-288.3 77.5,-239 60.88,-229.33 50.7,-209.26 45.12,-194.26"/>
<polygon fill="#63b8ff" stroke="#63b8ff" points="48.33,-192.82 41.84,-184.45 41.69,-195.05 48.33,-192.82"/>
</a>
</g>
</g>
<!-- Node9 -->
<g id="Node000009" class="node">
<title>Node9</title>
<g id="a_Node000009"><a xlink:title=" ">
<polygon fill="#e0e0e0" stroke="#999999" points="273.5,-184 173.5,-184 173.5,-165 273.5,-165 273.5,-184"/>
<text text-anchor="middle" x="223.5" y="-172" font-family="Helvetica,sans-Serif" font-size="10.00">esp_http_client.h</text>
</a>
</g>
</g>
<!-- Node1&#45;&gt;Node9 -->
<g id="edge62_Node000001_Node000009" class="edge">
<title>Node1&#45;&gt;Node9</title>
<g id="a_edge62_Node000001_Node000009"><a xlink:title=" ">
<path fill="none" stroke="#63b8ff" d="M2001.85,-282.87C1704.98,-280.07 566.56,-267.55 408.5,-239 350.92,-228.6 287.05,-203.43 251.43,-188.09"/>
<polygon fill="#63b8ff" stroke="#63b8ff" points="252.73,-184.84 242.16,-184.04 249.93,-191.25 252.73,-184.84"/>
</a>
</g>
</g>
<!-- Node10 -->
<g id="Node000010" class="node">
<title>Node10</title>
<g id="a_Node000010"><a xlink:title=" ">
<polygon fill="#e0e0e0" stroke="#999999" points="746,-19 685,-19 685,0 746,0 746,-19"/>
<text text-anchor="middle" x="715.5" y="-7" font-family="Helvetica,sans-Serif" font-size="10.00">esp_err.h</text>
</a>
</g>
</g>
<!-- Node1&#45;&gt;Node10 -->
<g id="edge38_Node000001_Node000010" class="edge">
<title>Node1&#45;&gt;Node10</title>
<g id="a_edge38_Node000001_Node000010"><a xlink:title=" ">
<path fill="none" stroke="#63b8ff" d="M2001.85,-283.57C1857.67,-282.87 1519.43,-276.9 1238.5,-239 1210.1,-235.17 754.19,-149.82 734.5,-129 708.94,-101.97 709.79,-54.99 712.65,-29.04"/>
<polygon fill="#63b8ff" stroke="#63b8ff" points="716.13,-29.41 713.97,-19.04 709.19,-28.5 716.13,-29.41"/>
</a>
</g>
</g>
<!-- Node11 -->
<g id="Node000011" class="node">
<title>Node11</title>
<g id="a_Node000011"><a xlink:href="sevetest30___u_i_8h.html" target="_top" xlink:title=" ">
<polygon fill="white" stroke="#666666" points="829,-239 734,-239 734,-220 829,-220 829,-239"/>
<text text-anchor="middle" x="781.5" y="-227" font-family="Helvetica,sans-Serif" font-size="10.00">sevetest30_UI.h</text>
</a>
</g>
</g>
<!-- Node1&#45;&gt;Node11 -->
<g id="edge11_Node000001_Node000011" class="edge">
<title>Node1&#45;&gt;Node11</title>
<g id="a_edge11_Node000001_Node000011"><a xlink:title=" ">
<path fill="none" stroke="#63b8ff" d="M2001.84,-281.62C1819.55,-276.6 1318.46,-261.68 901.5,-239 881.17,-237.89 858.91,-236.4 839.15,-234.97"/>
<polygon fill="#63b8ff" stroke="#63b8ff" points="839.3,-231.47 829.07,-234.23 838.79,-238.45 839.3,-231.47"/>
</a>
</g>
</g>
<!-- Node12 -->
<g id="Node000012" class="node">
<title>Node12</title>
<g id="a_Node000012"><a xlink:title=" ">
<polygon fill="#e0e0e0" stroke="#999999" points="1267,-19 1214,-19 1214,0 1267,0 1267,-19"/>
<text text-anchor="middle" x="1240.5" y="-7" font-family="Helvetica,sans-Serif" font-size="10.00">string.h</text>
</a>
</g>
</g>
<!-- Node1&#45;&gt;Node12 -->
<g id="edge51_Node000001_Node000012" class="edge">
<title>Node1&#45;&gt;Node12</title>
<g id="a_edge51_Node000001_Node000012"><a xlink:title=" ">
<path fill="none" stroke="#63b8ff" d="M2001.96,-281.83C1821.78,-277.23 1357.17,-263.08 1334.5,-239 1328.71,-232.85 1329.09,-226.48 1334.5,-220 1370.68,-176.64 1798.32,-172.36 1834.5,-129 1839.91,-122.52 1839.76,-116.61 1834.5,-110 1764.73,-22.35 1395.58,-11.72 1277.12,-10.58"/>
<polygon fill="#63b8ff" stroke="#63b8ff" points="1277.12,-7.08 1267.1,-10.5 1277.07,-14.08 1277.12,-7.08"/>
</a>
</g>
</g>
<!-- Node14 -->
<g id="Node000014" class="node">
<title>Node14</title>
<g id="a_Node000014"><a xlink:href="board__ctrl_8h.html" target="_top" xlink:title=" ">
<polygon fill="white" stroke="#666666" points="1256.5,-184 1182.5,-184 1182.5,-165 1256.5,-165 1256.5,-184"/>
<text text-anchor="middle" x="1219.5" y="-172" font-family="Helvetica,sans-Serif" font-size="10.00">board_ctrl.h</text>
</a>
</g>
</g>
<!-- Node1&#45;&gt;Node14 -->
<g id="edge39_Node000001_Node000014" class="edge">
<title>Node1&#45;&gt;Node14</title>
<g id="a_edge39_Node000001_Node000014"><a xlink:title=" ">
<path fill="none" stroke="#63b8ff" d="M2001.91,-283.14C1816.77,-281.7 1327.03,-274.53 1263.5,-239 1245.81,-229.11 1233.67,-208.76 1226.7,-193.76"/>
<polygon fill="#63b8ff" stroke="#63b8ff" points="1229.85,-192.22 1222.69,-184.42 1223.41,-194.99 1229.85,-192.22"/>
</a>
</g>
</g>
<!-- Node24 -->
<g id="Node000024" class="node">
<title>Node24</title>
<g id="a_Node000024"><a xlink:title=" ">
<polygon fill="#e0e0e0" stroke="#999999" points="1825,-129 1722,-129 1722,-110 1825,-110 1825,-129"/>
<text text-anchor="middle" x="1773.5" y="-117" font-family="Helvetica,sans-Serif" font-size="10.00">esp_peripherals.h</text>
</a>
</g>
</g>
<!-- Node1&#45;&gt;Node24 -->
<g id="edge60_Node000001_Node000024" class="edge">
<title>Node1&#45;&gt;Node24</title>
<g id="a_edge60_Node000001_Node000024"><a xlink:title=" ">
<path fill="none" stroke="#63b8ff" d="M2001.86,-282.02C1815.9,-277.79 1325.34,-264.26 1301.5,-239 1295.7,-232.86 1296.18,-226.56 1301.5,-220 1314.6,-203.85 1591.62,-152.84 1715.05,-130.81"/>
<polygon fill="#63b8ff" stroke="#63b8ff" points="1715.85,-134.22 1725.09,-129.02 1714.63,-127.33 1715.85,-134.22"/>
</a>
</g>
</g>
<!-- Node26 -->
<g id="Node000026" class="node">
<title>Node26</title>
<g id="a_Node000026"><a xlink:title=" ">
<polygon fill="#e0e0e0" stroke="#999999" points="1427.5,-239 1343.5,-239 1343.5,-220 1427.5,-220 1427.5,-239"/>
<text text-anchor="middle" x="1385.5" y="-227" font-family="Helvetica,sans-Serif" font-size="10.00">esp_system.h</text>
</a>
</g>
</g>
<!-- Node1&#45;&gt;Node26 -->
<g id="edge36_Node000001_Node000026" class="edge">
<title>Node1&#45;&gt;Node26</title>
<g id="a_edge36_Node000001_Node000026"><a xlink:title=" ">
<path fill="none" stroke="#63b8ff" d="M2001.83,-280.67C1886.2,-275.58 1649.23,-263.19 1437.79,-238.9"/>
<polygon fill="#63b8ff" stroke="#63b8ff" points="1438.08,-235.41 1427.74,-237.74 1437.27,-242.37 1438.08,-235.41"/>
</a>
</g>
</g>
<!-- Node27 -->
<g id="Node000027" class="node">
<title>Node27</title>
<g id="a_Node000027"><a xlink:title=" ">
<polygon fill="#e0e0e0" stroke="#999999" points="1509,-239 1446,-239 1446,-220 1509,-220 1509,-239"/>
<text text-anchor="middle" x="1477.5" y="-227" font-family="Helvetica,sans-Serif" font-size="10.00">esp_log.h</text>
</a>
</g>
</g>
<!-- Node1&#45;&gt;Node27 -->
<g id="edge37_Node000001_Node000027" class="edge">
<title>Node1&#45;&gt;Node27</title>
<g id="a_edge37_Node000001_Node000027"><a xlink:title=" ">
<path fill="none" stroke="#63b8ff" d="M2001.79,-280.64C1898.13,-275.81 1698.72,-264.17 1519.37,-238.93"/>
<polygon fill="#63b8ff" stroke="#63b8ff" points="1519.61,-235.43 1509.22,-237.48 1518.62,-242.36 1519.61,-235.43"/>
</a>
</g>
</g>
<!-- Node28 -->
<g id="Node000028" class="node">
<title>Node28</title>
<g id="a_Node000028"><a xlink:href="sdkconfig_8h.html" target="_top" xlink:title=" ">
<polygon fill="white" stroke="#666666" points="1599.5,-239 1527.5,-239 1527.5,-220 1599.5,-220 1599.5,-239"/>
<text text-anchor="middle" x="1563.5" y="-227" font-family="Helvetica,sans-Serif" font-size="10.00">sdkconfig.h</text>
</a>
</g>
</g>
<!-- Node1&#45;&gt;Node28 -->
<g id="edge40_Node000001_Node000028" class="edge">
<title>Node1&#45;&gt;Node28</title>
<g id="a_edge40_Node000001_Node000028"><a xlink:title=" ">
<path fill="none" stroke="#63b8ff" d="M2001.91,-278.74C1912.8,-272.28 1754.61,-259.32 1609.76,-239.06"/>
<polygon fill="#63b8ff" stroke="#63b8ff" points="1610.19,-235.59 1599.8,-237.65 1609.21,-242.52 1610.19,-235.59"/>
</a>
</g>
</g>
<!-- Node29 -->
<g id="Node000029" class="node">
<title>Node29</title>
<g id="a_Node000029"><a xlink:title=" ">
<polygon fill="#e0e0e0" stroke="#999999" points="1715.5,-239 1617.5,-239 1617.5,-220 1715.5,-220 1715.5,-239"/>
<text text-anchor="middle" x="1666.5" y="-227" font-family="Helvetica,sans-Serif" font-size="10.00">audio_element.h</text>
</a>
</g>
</g>
<!-- Node1&#45;&gt;Node29 -->
<g id="edge41_Node000001_Node000029" class="edge">
<title>Node1&#45;&gt;Node29</title>
<g id="a_edge41_Node000001_Node000029"><a xlink:title=" ">
<path fill="none" stroke="#63b8ff" d="M2003.66,-274.99C1935.8,-266.53 1828.88,-253.01 1725.72,-239.01"/>
<polygon fill="#63b8ff" stroke="#63b8ff" points="1726.13,-235.53 1715.75,-237.65 1725.18,-242.47 1726.13,-235.53"/>
</a>
</g>
</g>
<!-- Node30 -->
<g id="Node000030" class="node">
<title>Node30</title>
<g id="a_Node000030"><a xlink:title=" ">
<polygon fill="#e0e0e0" stroke="#999999" points="1831,-239 1734,-239 1734,-220 1831,-220 1831,-239"/>
<text text-anchor="middle" x="1782.5" y="-227" font-family="Helvetica,sans-Serif" font-size="10.00">audio_pipeline.h</text>
</a>
</g>
</g>
<!-- Node1&#45;&gt;Node30 -->
<g id="edge42_Node000001_Node000030" class="edge">
<title>Node1&#45;&gt;Node30</title>
<g id="a_edge42_Node000001_Node000030"><a xlink:title=" ">
<path fill="none" stroke="#63b8ff" d="M2025.91,-274.98C1975.11,-265.7 1893.81,-250.84 1839.31,-240.88"/>
<polygon fill="#63b8ff" stroke="#63b8ff" points="1839.93,-237.44 1829.46,-239.08 1838.67,-244.32 1839.93,-237.44"/>
</a>
</g>
</g>
<!-- Node31 -->
<g id="Node000031" class="node">
<title>Node31</title>
<g id="a_Node000031"><a xlink:title=" ">
<polygon fill="#e0e0e0" stroke="#999999" points="1950,-239 1849,-239 1849,-220 1950,-220 1950,-239"/>
<text text-anchor="middle" x="1899.5" y="-227" font-family="Helvetica,sans-Serif" font-size="10.00">audio_common.h</text>
</a>
</g>
</g>
<!-- Node1&#45;&gt;Node31 -->
<g id="edge44_Node000001_Node000031" class="edge">
<title>Node1&#45;&gt;Node31</title>
<g id="a_edge44_Node000001_Node000031"><a xlink:title=" ">
<path fill="none" stroke="#63b8ff" d="M2044.7,-274.98C2015.53,-266.05 1969.5,-251.94 1937.1,-242.02"/>
<polygon fill="#63b8ff" stroke="#63b8ff" points="1938.1,-238.66 1927.51,-239.08 1936.05,-245.36 1938.1,-238.66"/>
</a>
</g>
</g>
<!-- Node32 -->
<g id="Node000032" class="node">
<title>Node32</title>
<g id="a_Node000032"><a xlink:title=" ">
<polygon fill="#e0e0e0" stroke="#999999" points="2060.5,-239 1968.5,-239 1968.5,-220 2060.5,-220 2060.5,-239"/>
<text text-anchor="middle" x="2014.5" y="-227" font-family="Helvetica,sans-Serif" font-size="10.00">esp_wn_iface.h</text>
</a>
</g>
</g>
<!-- Node1&#45;&gt;Node32 -->
<g id="edge45_Node000001_Node000032" class="edge">
<title>Node1&#45;&gt;Node32</title>
<g id="a_edge45_Node000001_Node000032"><a xlink:title=" ">
<path fill="none" stroke="#63b8ff" d="M2063.18,-274.98C2054.69,-267.23 2041.94,-255.58 2031.62,-246.14"/>
<polygon fill="#63b8ff" stroke="#63b8ff" points="2033.73,-243.33 2023.99,-239.17 2029.01,-248.5 2033.73,-243.33"/>
</a>
</g>
</g>
<!-- Node33 -->
<g id="Node000033" class="node">
<title>Node33</title>
<g id="a_Node000033"><a xlink:title=" ">
<polygon fill="#e0e0e0" stroke="#999999" points="2182.5,-239 2078.5,-239 2078.5,-220 2182.5,-220 2182.5,-239"/>
<text text-anchor="middle" x="2130.5" y="-227" font-family="Helvetica,sans-Serif" font-size="10.00">esp_wn_models.h</text>
</a>
</g>
</g>
<!-- Node1&#45;&gt;Node33 -->
<g id="edge46_Node000001_Node000033" class="edge">
<title>Node1&#45;&gt;Node33</title>
<g id="a_edge46_Node000001_Node000033"><a xlink:title=" ">
<path fill="none" stroke="#63b8ff" d="M2081.82,-274.98C2090.31,-267.23 2103.06,-255.58 2113.38,-246.14"/>
<polygon fill="#63b8ff" stroke="#63b8ff" points="2115.99,-248.5 2121.01,-239.17 2111.27,-243.33 2115.99,-248.5"/>
</a>
</g>
</g>
<!-- Node34 -->
<g id="Node000034" class="node">
<title>Node34</title>
<g id="a_Node000034"><a xlink:title=" ">
<polygon fill="#e0e0e0" stroke="#999999" points="2320,-239 2201,-239 2201,-220 2320,-220 2320,-239"/>
<text text-anchor="middle" x="2260.5" y="-227" font-family="Helvetica,sans-Serif" font-size="10.00">esp_afe_sr_models.h</text>
</a>
</g>
</g>
<!-- Node1&#45;&gt;Node34 -->
<g id="edge47_Node000001_Node000034" class="edge">
<title>Node1&#45;&gt;Node34</title>
<g id="a_edge47_Node000001_Node000034"><a xlink:title=" ">
<path fill="none" stroke="#63b8ff" d="M2102.71,-274.98C2134.54,-266.01 2184.86,-251.82 2220.1,-241.89"/>
<polygon fill="#63b8ff" stroke="#63b8ff" points="2221.38,-245.16 2230.06,-239.08 2219.48,-238.43 2221.38,-245.16"/>
</a>
</g>
</g>
<!-- Node35 -->
<g id="Node000035" class="node">
<title>Node35</title>
<g id="a_Node000035"><a xlink:title=" ">
<polygon fill="#e0e0e0" stroke="#999999" points="2431,-239 2338,-239 2338,-220 2431,-220 2431,-239"/>
<text text-anchor="middle" x="2384.5" y="-227" font-family="Helvetica,sans-Serif" font-size="10.00">esp_mn_iface.h</text>
</a>
</g>
</g>
<!-- Node1&#45;&gt;Node35 -->
<g id="edge48_Node000001_Node000035" class="edge">
<title>Node1&#45;&gt;Node35</title>
<g id="a_edge48_Node000001_Node000035"><a xlink:title=" ">
<path fill="none" stroke="#63b8ff" d="M2122.63,-274.98C2178.61,-265.48 2269.03,-250.12 2327.62,-240.16"/>
<polygon fill="#63b8ff" stroke="#63b8ff" points="2328.54,-243.56 2337.81,-238.43 2327.37,-236.66 2328.54,-243.56"/>
</a>
</g>
</g>
<!-- Node36 -->
<g id="Node000036" class="node">
<title>Node36</title>
<g id="a_Node000036"><a xlink:title=" ">
<polygon fill="#e0e0e0" stroke="#999999" points="2554,-239 2449,-239 2449,-220 2554,-220 2554,-239"/>
<text text-anchor="middle" x="2501.5" y="-227" font-family="Helvetica,sans-Serif" font-size="10.00">esp_mn_models.h</text>
</a>
</g>
</g>
<!-- Node1&#45;&gt;Node36 -->
<g id="edge49_Node000001_Node000036" class="edge">
<title>Node1&#45;&gt;Node36</title>
<g id="a_edge49_Node000001_Node000036"><a xlink:title=" ">
<path fill="none" stroke="#63b8ff" d="M2143.1,-275.35C2214.97,-266.96 2329.9,-253.31 2438.76,-239.21"/>
<polygon fill="#63b8ff" stroke="#63b8ff" points="2439.47,-242.65 2448.94,-237.89 2438.57,-235.7 2439.47,-242.65"/>
</a>
</g>
</g>
<!-- Node37 -->
<g id="Node000037" class="node">
<title>Node37</title>
<g id="a_Node000037"><a xlink:title=" ">
<polygon fill="#e0e0e0" stroke="#999999" points="2655,-239 2572,-239 2572,-220 2655,-220 2655,-239"/>
<text text-anchor="middle" x="2613.5" y="-227" font-family="Helvetica,sans-Serif" font-size="10.00">model_path.h</text>
</a>
</g>
</g>
<!-- Node1&#45;&gt;Node37 -->
<g id="edge50_Node000001_Node000037" class="edge">
<title>Node1&#45;&gt;Node37</title>
<g id="a_edge50_Node000001_Node000037"><a xlink:title=" ">
<path fill="none" stroke="#63b8ff" d="M2143.02,-278.84C2236.51,-272.29 2406.81,-259 2561.62,-239.16"/>
<polygon fill="#63b8ff" stroke="#63b8ff" points="2562.33,-242.59 2571.79,-237.84 2561.43,-235.65 2562.33,-242.59"/>
</a>
</g>
</g>
<!-- Node38 -->
<g id="Node000038" class="node">
<title>Node38</title>
<g id="a_Node000038"><a xlink:title=" ">
<polygon fill="#e0e0e0" stroke="#999999" points="2758,-239 2673,-239 2673,-220 2758,-220 2758,-239"/>
<text text-anchor="middle" x="2715.5" y="-227" font-family="Helvetica,sans-Serif" font-size="10.00">http_stream.h</text>
</a>
</g>
</g>
<!-- Node1&#45;&gt;Node38 -->
<g id="edge52_Node000001_Node000038" class="edge">
<title>Node1&#45;&gt;Node38</title>
<g id="a_edge52_Node000001_Node000038"><a xlink:title=" ">
<path fill="none" stroke="#63b8ff" d="M2143.32,-280.24C2252.68,-274.76 2469.42,-262.07 2662.89,-239.09"/>
<polygon fill="#63b8ff" stroke="#63b8ff" points="2663.45,-242.55 2672.96,-237.88 2662.62,-235.6 2663.45,-242.55"/>
</a>
</g>
</g>
<!-- Node39 -->
<g id="Node000039" class="node">
<title>Node39</title>
<g id="a_Node000039"><a xlink:title=" ">
<polygon fill="#e0e0e0" stroke="#999999" points="2856.5,-239 2776.5,-239 2776.5,-220 2856.5,-220 2856.5,-239"/>
<text text-anchor="middle" x="2816.5" y="-227" font-family="Helvetica,sans-Serif" font-size="10.00">i2s_stream.h</text>
</a>
</g>
</g>
<!-- Node1&#45;&gt;Node39 -->
<g id="edge53_Node000001_Node000039" class="edge">
<title>Node1&#45;&gt;Node39</title>
<g id="a_edge53_Node000001_Node000039"><a xlink:title=" ">
<path fill="none" stroke="#63b8ff" d="M2143.27,-281.49C2267.4,-277.41 2532.62,-266.23 2766.39,-238.99"/>
<polygon fill="#63b8ff" stroke="#63b8ff" points="2766.92,-242.46 2776.44,-237.81 2766.1,-235.5 2766.92,-242.46"/>
</a>
</g>
</g>
<!-- Node40 -->
<g id="Node000040" class="node">
<title>Node40</title>
<g id="a_Node000040"><a xlink:title=" ">
<polygon fill="#e0e0e0" stroke="#999999" points="2966,-239 2875,-239 2875,-220 2966,-220 2966,-239"/>
<text text-anchor="middle" x="2920.5" y="-227" font-family="Helvetica,sans-Serif" font-size="10.00">mp3_decoder.h</text>
</a>
</g>
</g>
<!-- Node1&#45;&gt;Node40 -->
<g id="edge54_Node000001_Node000040" class="edge">
<title>Node1&#45;&gt;Node40</title>
<g id="a_edge54_Node000001_Node000040"><a xlink:title=" ">
<path fill="none" stroke="#63b8ff" d="M2143.23,-281.84C2280.36,-278.11 2592.07,-267.19 2864.83,-238.95"/>
<polygon fill="#63b8ff" stroke="#63b8ff" points="2865.34,-242.41 2874.93,-237.89 2864.62,-235.45 2865.34,-242.41"/>
</a>
</g>
</g>
<!-- Node41 -->
<g id="Node000041" class="node">
<title>Node41</title>
<g id="a_Node000041"><a xlink:title=" ">
<polygon fill="#e0e0e0" stroke="#999999" points="3067,-239 2984,-239 2984,-220 3067,-220 3067,-239"/>
<text text-anchor="middle" x="3025.5" y="-227" font-family="Helvetica,sans-Serif" font-size="10.00">raw_stream.h</text>
</a>
</g>
</g>
<!-- Node1&#45;&gt;Node41 -->
<g id="edge55_Node000001_Node000041" class="edge">
<title>Node1&#45;&gt;Node41</title>
<g id="a_edge55_Node000001_Node000041"><a xlink:title=" ">
<path fill="none" stroke="#63b8ff" d="M2143.27,-282.88C2294.16,-280.92 2658.81,-272.9 2973.57,-239.08"/>
<polygon fill="#63b8ff" stroke="#63b8ff" points="2974.25,-242.53 2983.81,-237.97 2973.49,-235.57 2974.25,-242.53"/>
</a>
</g>
</g>
<!-- Node42 -->
<g id="Node000042" class="node">
<title>Node42</title>
<g id="a_Node000042"><a xlink:title=" ">
<polygon fill="#e0e0e0" stroke="#999999" points="3184,-239 3085,-239 3085,-220 3184,-220 3184,-239"/>
<text text-anchor="middle" x="3134.5" y="-227" font-family="Helvetica,sans-Serif" font-size="10.00">filter_resample.h</text>
</a>
</g>
</g>
<!-- Node1&#45;&gt;Node42 -->
<g id="edge56_Node000001_Node000042" class="edge">
<title>Node1&#45;&gt;Node42</title>
<g id="a_edge56_Node000001_Node000042"><a xlink:title=" ">
<path fill="none" stroke="#63b8ff" d="M2143.27,-282.82C2306.03,-280.73 2719.61,-272.39 3074.9,-239.05"/>
<polygon fill="#63b8ff" stroke="#63b8ff" points="3075.24,-242.54 3084.87,-238.11 3074.58,-235.57 3075.24,-242.54"/>
</a>
</g>
</g>
<!-- Node43 -->
<g id="Node000043" class="node">
<title>Node43</title>
<g id="a_Node000043"><a xlink:title=" ">
<polygon fill="#e0e0e0" stroke="#999999" points="3255,-239 3202,-239 3202,-220 3255,-220 3255,-239"/>
<text text-anchor="middle" x="3228.5" y="-227" font-family="Helvetica,sans-Serif" font-size="10.00">board.h</text>
</a>
</g>
</g>
<!-- Node1&#45;&gt;Node43 -->
<g id="edge57_Node000001_Node000043" class="edge">
<title>Node1&#45;&gt;Node43</title>
<g id="a_edge57_Node000001_Node000043"><a xlink:title=" ">
<path fill="none" stroke="#63b8ff" d="M2143.09,-282.53C2352.72,-279.37 2970.2,-267.92 3191.91,-238.9"/>
<polygon fill="#63b8ff" stroke="#63b8ff" points="3192.41,-242.36 3201.85,-237.55 3191.47,-235.43 3192.41,-242.36"/>
</a>
</g>
</g>
<!-- Node44 -->
<g id="Node000044" class="node">
<title>Node44</title>
<g id="a_Node000044"><a xlink:title=" ">
<polygon fill="#e0e0e0" stroke="#999999" points="3356,-239 3273,-239 3273,-220 3356,-220 3356,-239"/>
<text text-anchor="middle" x="3314.5" y="-227" font-family="Helvetica,sans-Serif" font-size="10.00">audio_mem.h</text>
</a>
</g>
</g>
<!-- Node1&#45;&gt;Node44 -->
<g id="edge58_Node000001_Node000044" class="edge">
<title>Node1&#45;&gt;Node44</title>
<g id="a_edge58_Node000001_Node000044"><a xlink:title=" ">
<path fill="none" stroke="#63b8ff" d="M2143.26,-284.09C2326.69,-284.91 2832.68,-282.78 3262.67,-239.05"/>
<polygon fill="#63b8ff" stroke="#63b8ff" points="3263.22,-242.51 3272.81,-238.01 3262.51,-235.55 3263.22,-242.51"/>
</a>
</g>
</g>
<!-- Node45 -->
<g id="Node000045" class="node">
<title>Node45</title>
<g id="a_Node000045"><a xlink:title=" ">
<polygon fill="#e0e0e0" stroke="#999999" points="3440.5,-239 3374.5,-239 3374.5,-220 3440.5,-220 3440.5,-239"/>
<text text-anchor="middle" x="3407.5" y="-227" font-family="Helvetica,sans-Serif" font-size="10.00">esp_vad.h</text>
</a>
</g>
</g>
<!-- Node1&#45;&gt;Node45 -->
<g id="edge59_Node000001_Node000045" class="edge">
<title>Node1&#45;&gt;Node45</title>
<g id="a_edge59_Node000001_Node000045"><a xlink:title=" ">
<path fill="none" stroke="#63b8ff" d="M2143.33,-282.61C2374.47,-279.45 3106.19,-267.5 3364.03,-238.93"/>
<polygon fill="#63b8ff" stroke="#63b8ff" points="3364.57,-242.39 3374.11,-237.78 3363.78,-235.44 3364.57,-242.39"/>
</a>
</g>
</g>
<!-- Node46 -->
<g id="Node000046" class="node">
<title>Node46</title>
<g id="a_Node000046"><a xlink:title=" ">
<polygon fill="#e0e0e0" stroke="#999999" points="3582,-239 3459,-239 3459,-220 3582,-220 3582,-239"/>
<text text-anchor="middle" x="3520.5" y="-227" font-family="Helvetica,sans-Serif" font-size="10.00">baidu_access_token.h</text>
</a>
</g>
</g>
<!-- Node1&#45;&gt;Node46 -->
<g id="edge63_Node000001_Node000046" class="edge">
<title>Node1&#45;&gt;Node46</title>
<g id="a_edge63_Node000001_Node000046"><a xlink:title=" ">
<path fill="none" stroke="#63b8ff" d="M2143.2,-283.38C2345.17,-282.57 2942.2,-276.96 3448.88,-238.96"/>
<polygon fill="#63b8ff" stroke="#63b8ff" points="3449.25,-242.44 3458.96,-238.2 3448.72,-235.46 3449.25,-242.44"/>
</a>
</g>
</g>
<!-- Node47 -->
<g id="Node000047" class="node">
<title>Node47</title>
<g id="a_Node000047"><a xlink:title=" ">
<polygon fill="#e0e0e0" stroke="#999999" points="3676.5,-239 3600.5,-239 3600.5,-220 3676.5,-220 3676.5,-239"/>
<text text-anchor="middle" x="3638.5" y="-227" font-family="Helvetica,sans-Serif" font-size="10.00">base64_re.h</text>
</a>
</g>
</g>
<!-- Node1&#45;&gt;Node47 -->
<g id="edge64_Node000001_Node000047" class="edge">
<title>Node1&#45;&gt;Node47</title>
<g id="a_edge64_Node000001_Node000047"><a xlink:title=" ">
<path fill="none" stroke="#63b8ff" d="M2143.17,-282.83C2400.09,-280.2 3284.97,-269.17 3590.18,-238.93"/>
<polygon fill="#63b8ff" stroke="#63b8ff" points="3590.76,-242.39 3600.35,-237.89 3590.05,-235.43 3590.76,-242.39"/>
</a>
</g>
</g>
<!-- Node48 -->
<g id="Node000048" class="node">
<title>Node48</title>
<g id="a_Node000048"><a xlink:title=" ">
<polygon fill="#e0e0e0" stroke="#999999" points="3806.5,-239 3694.5,-239 3694.5,-220 3806.5,-220 3806.5,-239"/>
<text text-anchor="middle" x="3750.5" y="-227" font-family="Helvetica,sans-Serif" font-size="10.00">audio_idf_version.h</text>
</a>
</g>
</g>
<!-- Node1&#45;&gt;Node48 -->
<g id="edge65_Node000001_Node000048" class="edge">
<title>Node1&#45;&gt;Node48</title>
<g id="a_edge65_Node000001_Node000048"><a xlink:title=" ">
<path fill="none" stroke="#63b8ff" d="M2143.29,-282.51C2410.47,-278.64 3358.5,-263.52 3683.79,-239.03"/>
<polygon fill="#63b8ff" stroke="#63b8ff" points="3684.47,-242.49 3694.17,-238.23 3683.93,-235.51 3684.47,-242.49"/>
</a>
</g>
</g>
<!-- Node49 -->
<g id="Node000049" class="node">
<title>Node49</title>
<g id="a_Node000049"><a xlink:title=" ">
<polygon fill="#e0e0e0" stroke="#999999" points="3894.5,-239 3824.5,-239 3824.5,-220 3894.5,-220 3894.5,-239"/>
<text text-anchor="middle" x="3859.5" y="-227" font-family="Helvetica,sans-Serif" font-size="10.00">esp_netif.h</text>
</a>
</g>
</g>
<!-- Node1&#45;&gt;Node49 -->
<g id="edge66_Node000001_Node000049" class="edge">
<title>Node1&#45;&gt;Node49</title>
<g id="a_edge66_Node000001_Node000049"><a xlink:title=" ">
<path fill="none" stroke="#63b8ff" d="M2143.17,-283.26C2424.02,-282.04 3462.6,-275.23 3813.84,-238.95"/>
<polygon fill="#63b8ff" stroke="#63b8ff" points="3814.46,-242.41 3824.03,-237.87 3813.72,-235.45 3814.46,-242.41"/>
</a>
</g>
</g>
<!-- Node3 -->
<g id="Node000003" class="node">
<title>Node3</title>
<g id="a_Node000003"><a xlink:title=" ">
<polygon fill="#e0e0e0" stroke="#999999" points="517.5,-19 455.5,-19 455.5,0 517.5,0 517.5,-19"/>
<text text-anchor="middle" x="486.5" y="-7" font-family="Helvetica,sans-Serif" font-size="10.00">stdbool.h</text>
</a>
</g>
</g>
<!-- Node2&#45;&gt;Node3 -->
<g id="edge2_Node000002_Node000003" class="edge">
<title>Node2&#45;&gt;Node3</title>
<g id="a_edge2_Node000002_Node000003"><a xlink:title=" ">
<path fill="none" stroke="#63b8ff" d="M497.72,-219.89C482.47,-212.79 463.58,-201.08 454.5,-184 426.87,-132.04 458.73,-60.35 476.36,-27.81"/>
<polygon fill="#63b8ff" stroke="#63b8ff" points="479.44,-29.47 481.29,-19.03 473.34,-26.04 479.44,-29.47"/>
</a>
</g>
</g>
<!-- Node4 -->
<g id="Node000004" class="node">
<title>Node4</title>
<g id="a_Node000004"><a xlink:title=" ">
<polygon fill="#e0e0e0" stroke="#999999" points="577,-184 464,-184 464,-165 577,-165 577,-184"/>
<text text-anchor="middle" x="520.5" y="-172" font-family="Helvetica,sans-Serif" font-size="10.00">freertos/FreeRTOS.h</text>
</a>
</g>
</g>
<!-- Node2&#45;&gt;Node4 -->
<g id="edge3_Node000002_Node000004" class="edge">
<title>Node2&#45;&gt;Node4</title>
<g id="a_edge3_Node000002_Node000004"><a xlink:title=" ">
<path fill="none" stroke="#63b8ff" d="M520.5,-219.75C520.5,-212.8 520.5,-202.85 520.5,-194.13"/>
<polygon fill="#63b8ff" stroke="#63b8ff" points="524,-194.09 520.5,-184.09 517,-194.09 524,-194.09"/>
</a>
</g>
</g>
<!-- Node5 -->
<g id="Node000005" class="node">
<title>Node5</title>
<g id="a_Node000005"><a xlink:title=" ">
<polygon fill="#e0e0e0" stroke="#999999" points="683.5,-184 595.5,-184 595.5,-165 683.5,-165 683.5,-184"/>
<text text-anchor="middle" x="639.5" y="-172" font-family="Helvetica,sans-Serif" font-size="10.00">freertos/task.h</text>
</a>
</g>
</g>
<!-- Node2&#45;&gt;Node5 -->
<g id="edge4_Node000002_Node000005" class="edge">
<title>Node2&#45;&gt;Node5</title>
<g id="a_edge4_Node000002_Node000005"><a xlink:title=" ">
<path fill="none" stroke="#63b8ff" d="M539.62,-219.98C558.85,-211.42 588.73,-198.11 610.81,-188.28"/>
<polygon fill="#63b8ff" stroke="#63b8ff" points="612.32,-191.44 620.03,-184.17 609.47,-185.04 612.32,-191.44"/>
</a>
</g>
</g>
<!-- Node2&#45;&gt;Node6 -->
<g id="edge5_Node000002_Node000006" class="edge">
<title>Node2&#45;&gt;Node6</title>
<g id="a_edge5_Node000002_Node000006"><a xlink:title=" ">
<path fill="none" stroke="#63b8ff" d="M493.03,-219.98C464.32,-211.09 419.08,-197.07 387.08,-187.15"/>
<polygon fill="#63b8ff" stroke="#63b8ff" points="387.78,-183.7 377.19,-184.08 385.7,-190.39 387.78,-183.7"/>
</a>
</g>
</g>
<!-- Node7&#45;&gt;Node3 -->
<g id="edge10_Node000007_Node000003" class="edge">
<title>Node7&#45;&gt;Node3</title>
<g id="a_edge10_Node000007_Node000003"><a xlink:title=" ">
<path fill="none" stroke="#63b8ff" d="M139.84,-219.96C132.06,-207.03 120.24,-182.18 131.5,-165 202.49,-56.68 367.74,-23.89 445.13,-14.3"/>
<polygon fill="#63b8ff" stroke="#63b8ff" points="445.92,-17.73 455.44,-13.09 445.11,-10.78 445.92,-17.73"/>
</a>
</g>
</g>
<!-- Node7&#45;&gt;Node8 -->
<g id="edge7_Node000007_Node000008" class="edge">
<title>Node7&#45;&gt;Node8</title>
<g id="a_edge7_Node000007_Node000008"><a xlink:title=" ">
<path fill="none" stroke="#63b8ff" d="M128.47,-219.98C111.57,-211.54 85.44,-198.47 65.86,-188.68"/>
<polygon fill="#63b8ff" stroke="#63b8ff" points="67.35,-185.51 56.84,-184.17 64.22,-191.77 67.35,-185.51"/>
</a>
</g>
</g>
<!-- Node7&#45;&gt;Node9 -->
<g id="edge8_Node000007_Node000009" class="edge">
<title>Node7&#45;&gt;Node9</title>
<g id="a_edge8_Node000007_Node000009"><a xlink:title=" ">
<path fill="none" stroke="#63b8ff" d="M158.03,-219.98C169.9,-211.92 187.96,-199.65 202.11,-190.03"/>
<polygon fill="#63b8ff" stroke="#63b8ff" points="204.44,-192.69 210.74,-184.17 200.5,-186.9 204.44,-192.69"/>
</a>
</g>
</g>
<!-- Node7&#45;&gt;Node10 -->
<g id="edge9_Node000007_Node000010" class="edge">
<title>Node7&#45;&gt;Node10</title>
<g id="a_edge9_Node000007_Node000010"><a xlink:title=" ">
<path fill="none" stroke="#63b8ff" d="M145.58,-219.78C146.19,-206.15 149.4,-179.84 164.5,-165 238.71,-92.07 560.36,-35.05 674.85,-16.73"/>
<polygon fill="#63b8ff" stroke="#63b8ff" points="675.62,-20.15 684.95,-15.13 674.53,-13.24 675.62,-20.15"/>
</a>
</g>
</g>
<!-- Node11&#45;&gt;Node3 -->
<g id="edge13_Node000011_Node000003" class="edge">
<title>Node11&#45;&gt;Node3</title>
<g id="a_edge13_Node000011_Node000003"><a xlink:title=" ">
<path fill="none" stroke="#63b8ff" d="M769.94,-219.95C725.24,-186.93 563.47,-67.38 506.51,-25.29"/>
<polygon fill="#63b8ff" stroke="#63b8ff" points="508.43,-22.35 498.3,-19.22 504.27,-27.98 508.43,-22.35"/>
</a>
</g>
</g>
<!-- Node11&#45;&gt;Node4 -->
<g id="edge15_Node000011_Node000004" class="edge">
<title>Node11&#45;&gt;Node4</title>
<g id="a_edge15_Node000011_Node000004"><a xlink:title=" ">
<path fill="none" stroke="#63b8ff" d="M739.57,-219.98C694.23,-210.78 621.89,-196.09 572.85,-186.13"/>
<polygon fill="#63b8ff" stroke="#63b8ff" points="573.26,-182.64 562.76,-184.08 571.87,-189.5 573.26,-182.64"/>
</a>
</g>
</g>
<!-- Node11&#45;&gt;Node5 -->
<g id="edge16_Node000011_Node000005" class="edge">
<title>Node11&#45;&gt;Node5</title>
<g id="a_edge16_Node000011_Node000005"><a xlink:title=" ">
<path fill="none" stroke="#63b8ff" d="M758.69,-219.98C735.33,-211.27 698.8,-197.63 672.33,-187.75"/>
<polygon fill="#63b8ff" stroke="#63b8ff" points="673.32,-184.39 662.73,-184.17 670.87,-190.95 673.32,-184.39"/>
</a>
</g>
</g>
<!-- Node11&#45;&gt;Node10 -->
<g id="edge14_Node000011_Node000010" class="edge">
<title>Node11&#45;&gt;Node10</title>
<g id="a_edge14_Node000011_Node000010"><a xlink:title=" ">
<path fill="none" stroke="#63b8ff" d="M773.97,-219.83C754.78,-197.63 705.29,-139.77 701.5,-129 689.51,-94.94 700.34,-52.33 708.47,-28.6"/>
<polygon fill="#63b8ff" stroke="#63b8ff" points="711.79,-29.71 711.92,-19.12 705.21,-27.32 711.79,-29.71"/>
</a>
</g>
</g>
<!-- Node11&#45;&gt;Node12 -->
<g id="edge12_Node000011_Node000012" class="edge">
<title>Node11&#45;&gt;Node12</title>
<g id="a_edge12_Node000011_Node000012"><a xlink:title=" ">
<path fill="none" stroke="#63b8ff" d="M803.28,-219.91C820.03,-212.44 842.87,-200.25 858.5,-184 884.27,-157.2 868.73,-133.55 897.5,-110 989.27,-34.89 1135.38,-16.47 1203.4,-11.96"/>
<polygon fill="#63b8ff" stroke="#63b8ff" points="1203.85,-15.44 1213.63,-11.35 1203.44,-8.45 1203.85,-15.44"/>
</a>
</g>
</g>
<!-- Node13 -->
<g id="Node000013" class="node">
<title>Node13</title>
<g id="a_Node000013"><a xlink:title=" ">
<polygon fill="#e0e0e0" stroke="#999999" points="849,-184 778,-184 778,-165 849,-165 849,-184"/>
<text text-anchor="middle" x="813.5" y="-172" font-family="Helvetica,sans-Serif" font-size="10.00">driver/i2s.h</text>
</a>
</g>
</g>
<!-- Node11&#45;&gt;Node13 -->
<g id="edge17_Node000011_Node000013" class="edge">
<title>Node11&#45;&gt;Node13</title>
<g id="a_edge17_Node000011_Node000013"><a xlink:title=" ">
<path fill="none" stroke="#63b8ff" d="M786.78,-219.75C791.21,-212.42 797.66,-201.73 803.12,-192.7"/>
<polygon fill="#63b8ff" stroke="#63b8ff" points="806.14,-194.46 808.31,-184.09 800.15,-190.84 806.14,-194.46"/>
</a>
</g>
</g>
<!-- Node11&#45;&gt;Node14 -->
<g id="edge18_Node000011_Node000014" class="edge">
<title>Node11&#45;&gt;Node14</title>
<g id="a_edge18_Node000011_Node000014"><a xlink:title=" ">
<path fill="none" stroke="#63b8ff" d="M829.21,-222.73C913.6,-212.52 1088.21,-191.39 1172.27,-181.22"/>
<polygon fill="#63b8ff" stroke="#63b8ff" points="1172.79,-184.68 1182.3,-180 1171.95,-177.73 1172.79,-184.68"/>
</a>
</g>
</g>
<!-- Node14&#45;&gt;Node12 -->
<g id="edge20_Node000014_Node000012" class="edge">
<title>Node14&#45;&gt;Node12</title>
<g id="a_edge20_Node000014_Node000012"><a xlink:title=" ">
<path fill="none" stroke="#63b8ff" d="M1256.51,-167.1C1261.22,-166.36 1265.97,-165.64 1270.5,-165 1340.27,-155.21 1538.59,-181.57 1585.5,-129 1674.36,-29.4 1383.06,-13.48 1277.34,-10.96"/>
<polygon fill="#63b8ff" stroke="#63b8ff" points="1277.2,-7.46 1267.12,-10.75 1277.05,-14.46 1277.2,-7.46"/>
</a>
</g>
</g>
<!-- Node15 -->
<g id="Node000015" class="node">
<title>Node15</title>
<g id="a_Node000015"><a xlink:title=" ">
<polygon fill="#e0e0e0" stroke="#999999" points="1168,-74 1093,-74 1093,-55 1168,-55 1168,-74"/>
<text text-anchor="middle" x="1130.5" y="-62" font-family="Helvetica,sans-Serif" font-size="10.00">esp_types.h</text>
</a>
</g>
</g>
<!-- Node14&#45;&gt;Node15 -->
<g id="edge19_Node000014_Node000015" class="edge">
<title>Node14&#45;&gt;Node15</title>
<g id="a_edge19_Node000014_Node000015"><a xlink:title=" ">
<path fill="none" stroke="#63b8ff" d="M1227.51,-164.65C1238.17,-151.76 1254.35,-127.46 1242.5,-110 1228.05,-88.72 1201.65,-77.61 1178.11,-71.82"/>
<polygon fill="#63b8ff" stroke="#63b8ff" points="1178.76,-68.38 1168.24,-69.65 1177.26,-75.21 1178.76,-68.38"/>
</a>
</g>
</g>
<!-- Node16 -->
<g id="Node000016" class="node">
<title>Node16</title>
<g id="a_Node000016"><a xlink:title=" ">
<polygon fill="#e0e0e0" stroke="#999999" points="1363.5,-129 1289.5,-129 1289.5,-110 1363.5,-110 1363.5,-129"/>
<text text-anchor="middle" x="1326.5" y="-117" font-family="Helvetica,sans-Serif" font-size="10.00">board_def.h</text>
</a>
</g>
</g>
<!-- Node14&#45;&gt;Node16 -->
<g id="edge21_Node000014_Node000016" class="edge">
<title>Node14&#45;&gt;Node16</title>
<g id="a_edge21_Node000014_Node000016"><a xlink:title=" ">
<path fill="none" stroke="#63b8ff" d="M1236.69,-164.98C1253.75,-156.54 1280.13,-143.47 1299.9,-133.68"/>
<polygon fill="#63b8ff" stroke="#63b8ff" points="1301.59,-136.75 1309,-129.17 1298.48,-130.47 1301.59,-136.75"/>
</a>
</g>
</g>
<!-- Node17 -->
<g id="Node000017" class="node">
<title>Node17</title>
<g id="a_Node000017"><a xlink:title=" ">
<polygon fill="#e0e0e0" stroke="#999999" points="1455,-129 1382,-129 1382,-110 1455,-110 1455,-129"/>
<text text-anchor="middle" x="1418.5" y="-117" font-family="Helvetica,sans-Serif" font-size="10.00">audio_hal.h</text>
</a>
</g>
</g>
<!-- Node14&#45;&gt;Node17 -->
<g id="edge22_Node000014_Node000017" class="edge">
<title>Node14&#45;&gt;Node17</title>
<g id="a_edge22_Node000014_Node000017"><a xlink:title=" ">
<path fill="none" stroke="#63b8ff" d="M1251.47,-164.98C1285.32,-155.97 1338.9,-141.7 1376.21,-131.76"/>
<polygon fill="#63b8ff" stroke="#63b8ff" points="1377.51,-135.04 1386.28,-129.08 1375.71,-128.27 1377.51,-135.04"/>
</a>
</g>
</g>
<!-- Node18 -->
<g id="Node000018" class="node">
<title>Node18</title>
<g id="a_Node000018"><a xlink:title=" ">
<polygon fill="#e0e0e0" stroke="#999999" points="1576,-129 1473,-129 1473,-110 1576,-110 1576,-129"/>
<text text-anchor="middle" x="1524.5" y="-117" font-family="Helvetica,sans-Serif" font-size="10.00">esxxx_common.h</text>
</a>
</g>
</g>
<!-- Node14&#45;&gt;Node18 -->
<g id="edge23_Node000014_Node000018" class="edge">
<title>Node14&#45;&gt;Node18</title>
<g id="a_edge23_Node000014_Node000018"><a xlink:title=" ">
<path fill="none" stroke="#63b8ff" d="M1256.59,-167.05C1308.55,-158.03 1403.55,-141.52 1465.34,-130.78"/>
<polygon fill="#63b8ff" stroke="#63b8ff" points="1466.08,-134.2 1475.33,-129.04 1464.88,-127.31 1466.08,-134.2"/>
</a>
</g>
</g>
<!-- Node19 -->
<g id="Node000019" class="node">
<title>Node19</title>
<g id="a_Node000019"><a xlink:href="sevetest30__gpio_8h.html" target="_top" xlink:title=" ">
<polygon fill="white" stroke="#666666" points="849.5,-129 743.5,-129 743.5,-110 849.5,-110 849.5,-129"/>
<text text-anchor="middle" x="796.5" y="-117" font-family="Helvetica,sans-Serif" font-size="10.00">sevetest30_gpio.h</text>
</a>
</g>
</g>
<!-- Node14&#45;&gt;Node19 -->
<g id="edge24_Node000014_Node000019" class="edge">
<title>Node14&#45;&gt;Node19</title>
<g id="a_edge24_Node000014_Node000019"><a xlink:title=" ">
<path fill="none" stroke="#63b8ff" d="M1182.33,-168.84C1109.93,-159.77 949.24,-139.64 859.76,-128.43"/>
<polygon fill="#63b8ff" stroke="#63b8ff" points="860.1,-124.94 849.74,-127.17 859.23,-131.89 860.1,-124.94"/>
</a>
</g>
</g>
<!-- Node21 -->
<g id="Node000021" class="node">
<title>Node21</title>
<g id="a_Node000021"><a xlink:title=" ">
<polygon fill="#e0e0e0" stroke="#999999" points="1704,-129 1633,-129 1633,-110 1704,-110 1704,-129"/>
<text text-anchor="middle" x="1668.5" y="-117" font-family="Helvetica,sans-Serif" font-size="10.00">driver/i2c.h</text>
</a>
</g>
</g>
<!-- Node14&#45;&gt;Node21 -->
<g id="edge29_Node000014_Node000021" class="edge">
<title>Node14&#45;&gt;Node21</title>
<g id="a_edge29_Node000014_Node000021"><a xlink:title=" ">
<path fill="none" stroke="#63b8ff" d="M1256.51,-167.06C1261.21,-166.32 1265.96,-165.61 1270.5,-165 1424.6,-144.21 1464.44,-150.04 1618.5,-129 1619.8,-128.82 1621.12,-128.64 1622.45,-128.44"/>
<polygon fill="#63b8ff" stroke="#63b8ff" points="1623.41,-131.84 1632.76,-126.87 1622.35,-124.92 1623.41,-131.84"/>
</a>
</g>
</g>
<!-- Node22 -->
<g id="Node000022" class="node">
<title>Node22</title>
<g id="a_Node000022"><a xlink:title=" ">
<polygon fill="#e0e0e0" stroke="#999999" points="1025,-129 906,-129 906,-110 1025,-110 1025,-129"/>
<text text-anchor="middle" x="965.5" y="-117" font-family="Helvetica,sans-Serif" font-size="10.00">driver/spi_common.h</text>
</a>
</g>
</g>
<!-- Node14&#45;&gt;Node22 -->
<g id="edge30_Node000014_Node000022" class="edge">
<title>Node14&#45;&gt;Node22</title>
<g id="a_edge30_Node000014_Node000022"><a xlink:title=" ">
<path fill="none" stroke="#63b8ff" d="M1182.29,-165.74C1138.56,-156.61 1065.72,-141.41 1016.68,-131.18"/>
<polygon fill="#63b8ff" stroke="#63b8ff" points="1017.1,-127.69 1006.6,-129.08 1015.67,-134.54 1017.1,-127.69"/>
</a>
</g>
</g>
<!-- Node23 -->
<g id="Node000023" class="node">
<title>Node23</title>
<g id="a_Node000023"><a xlink:title=" ">
<polygon fill="#e0e0e0" stroke="#999999" points="1233.5,-129 1123.5,-129 1123.5,-110 1233.5,-110 1233.5,-129"/>
<text text-anchor="middle" x="1178.5" y="-117" font-family="Helvetica,sans-Serif" font-size="10.00">driver/spi_master.h</text>
</a>
</g>
</g>
<!-- Node14&#45;&gt;Node23 -->
<g id="edge31_Node000014_Node000023" class="edge">
<title>Node14&#45;&gt;Node23</title>
<g id="a_edge31_Node000014_Node000023"><a xlink:title=" ">
<path fill="none" stroke="#63b8ff" d="M1212.73,-164.75C1206.94,-157.26 1198.44,-146.28 1191.36,-137.13"/>
<polygon fill="#63b8ff" stroke="#63b8ff" points="1194.03,-134.86 1185.14,-129.09 1188.49,-139.14 1194.03,-134.86"/>
</a>
</g>
</g>
<!-- Node14&#45;&gt;Node24 -->
<g id="edge32_Node000014_Node000024" class="edge">
<title>Node14&#45;&gt;Node24</title>
<g id="a_edge32_Node000014_Node000024"><a xlink:title=" ">
<path fill="none" stroke="#63b8ff" d="M1256.77,-166.92C1261.39,-166.21 1266.05,-165.55 1270.5,-165 1463.29,-141.14 1515.45,-150.54 1711.75,-129.13"/>
<polygon fill="#63b8ff" stroke="#63b8ff" points="1712.26,-132.6 1721.81,-128.02 1711.49,-125.64 1712.26,-132.6"/>
</a>
</g>
</g>
<!-- Node25 -->
<g id="Node000025" class="node">
<title>Node25</title>
<g id="a_Node000025"><a xlink:href="_b_l5372_8h.html" target="_top" xlink:title=" ">
<polygon fill="white" stroke="#666666" points="1105.5,-129 1043.5,-129 1043.5,-110 1105.5,-110 1105.5,-129"/>
<text text-anchor="middle" x="1074.5" y="-117" font-family="Helvetica,sans-Serif" font-size="10.00">BL5372.h</text>
</a>
</g>
</g>
<!-- Node14&#45;&gt;Node25 -->
<g id="edge33_Node000014_Node000025" class="edge">
<title>Node14&#45;&gt;Node25</title>
<g id="a_edge33_Node000014_Node000025"><a xlink:title=" ">
<path fill="none" stroke="#63b8ff" d="M1196.2,-164.98C1172.25,-156.23 1134.72,-142.51 1107.67,-132.62"/>
<polygon fill="#63b8ff" stroke="#63b8ff" points="1108.81,-129.32 1098.22,-129.17 1106.41,-135.89 1108.81,-129.32"/>
</a>
</g>
</g>
<!-- Node20 -->
<g id="Node000020" class="node">
<title>Node20</title>
<g id="a_Node000020"><a xlink:href="_t_c_a6416_a_8h.html" target="_top" xlink:title=" ">
<polygon fill="white" stroke="#666666" points="827,-74 752,-74 752,-55 827,-55 827,-74"/>
<text text-anchor="middle" x="789.5" y="-62" font-family="Helvetica,sans-Serif" font-size="10.00">TCA6416A.h</text>
</a>
</g>
</g>
<!-- Node19&#45;&gt;Node20 -->
<g id="edge25_Node000019_Node000020" class="edge">
<title>Node19&#45;&gt;Node20</title>
<g id="a_edge25_Node000019_Node000020"><a xlink:title=" ">
<path fill="none" stroke="#63b8ff" d="M795.34,-109.75C794.43,-102.8 793.11,-92.85 791.96,-84.13"/>
<polygon fill="#63b8ff" stroke="#63b8ff" points="795.41,-83.54 790.63,-74.09 788.47,-84.46 795.41,-83.54"/>
</a>
</g>
</g>
<!-- Node20&#45;&gt;Node3 -->
<g id="edge27_Node000020_Node000003" class="edge">
<title>Node20&#45;&gt;Node3</title>
<g id="a_edge27_Node000020_Node000003"><a xlink:title=" ">
<path fill="none" stroke="#63b8ff" d="M751.74,-56.89C694.72,-46.92 587.05,-28.09 527.94,-17.75"/>
<polygon fill="#63b8ff" stroke="#63b8ff" points="528.29,-14.26 517.83,-15.98 527.08,-21.15 528.29,-14.26"/>
</a>
</g>
</g>
<!-- Node20&#45;&gt;Node10 -->
<g id="edge28_Node000020_Node000010" class="edge">
<title>Node20&#45;&gt;Node10</title>
<g id="a_edge28_Node000020_Node000010"><a xlink:title=" ">
<path fill="none" stroke="#63b8ff" d="M777.61,-54.98C766.35,-46.92 749.21,-34.65 735.79,-25.03"/>
<polygon fill="#63b8ff" stroke="#63b8ff" points="737.77,-22.15 727.61,-19.17 733.7,-27.84 737.77,-22.15"/>
</a>
</g>
</g>
<!-- Node20&#45;&gt;Node12 -->
<g id="edge26_Node000020_Node000012" class="edge">
<title>Node20&#45;&gt;Node12</title>
<g id="a_edge26_Node000020_Node000012"><a xlink:title=" ">
<path fill="none" stroke="#63b8ff" d="M827.18,-59.07C912.45,-49.05 1119.34,-24.74 1203.74,-14.82"/>
<polygon fill="#63b8ff" stroke="#63b8ff" points="1204.35,-18.27 1213.87,-13.63 1203.53,-11.32 1204.35,-18.27"/>
</a>
</g>
</g>
<!-- Node25&#45;&gt;Node10 -->
<g id="edge35_Node000025_Node000010" class="edge">
<title>Node25&#45;&gt;Node10</title>
<g id="a_edge35_Node000025_Node000010"><a xlink:title=" ">
<path fill="none" stroke="#63b8ff" d="M1046.03,-109.94C981.88,-90.64 826.01,-43.74 753.62,-21.97"/>
<polygon fill="#63b8ff" stroke="#63b8ff" points="754.56,-18.6 743.97,-19.07 752.54,-25.3 754.56,-18.6"/>
</a>
</g>
</g>
<!-- Node25&#45;&gt;Node15 -->
<g id="edge34_Node000025_Node000015" class="edge">
<title>Node25&#45;&gt;Node15</title>
<g id="a_edge34_Node000025_Node000015"><a xlink:title=" ">
<path fill="none" stroke="#63b8ff" d="M1083.5,-109.98C1091.69,-102.23 1104.01,-90.58 1113.97,-81.14"/>
<polygon fill="#63b8ff" stroke="#63b8ff" points="1116.48,-83.59 1121.34,-74.17 1111.67,-78.5 1116.48,-83.59"/>
</a>
</g>
</g>
</g>
</svg>
