<?xml version="1.0" encoding="UTF-8" standalone="no"?>
<!DOCTYPE svg PUBLIC "-//W3C//DTD SVG 1.1//EN"
 "http://www.w3.org/Graphics/SVG/1.1/DTD/svg11.dtd">
<!-- Generated by graphviz version 2.43.0 (0)
 -->
<!-- Title: board_ctrl_t Pages: 1 -->
<svg width="251pt" height="93pt"
 viewBox="0.00 0.00 251.00 93.00" xmlns="http://www.w3.org/2000/svg" xmlns:xlink="http://www.w3.org/1999/xlink">
<g id="graph0" class="graph" transform="scale(1 1) rotate(0) translate(4 89)">
<title>board_ctrl_t</title>
<!-- Node1 -->
<g id="Node000001" class="node">
<title>Node1</title>
<g id="a_Node000001"><a xlink:title=" ">
<polygon fill="#999999" stroke="#666666" points="154,-19 80,-19 80,0 154,0 154,-19"/>
<text text-anchor="middle" x="117" y="-7" font-family="Helvetica,sans-Serif" font-size="10.00">board_ctrl_t</text>
</a>
</g>
</g>
<!-- Node2 -->
<g id="Node000002" class="node">
<title>Node2</title>
<g id="a_Node000002"><a xlink:href="struct_t_c_a6416_a__mode__t.html" target="_top" xlink:title=" ">
<polygon fill="white" stroke="#666666" points="108,-85 0,-85 0,-66 108,-66 108,-85"/>
<text text-anchor="middle" x="54" y="-73" font-family="Helvetica,sans-Serif" font-size="10.00">TCA6416A_mode_t</text>
</a>
</g>
</g>
<!-- Node2&#45;&gt;Node1 -->
<g id="edge1_Node000001_Node000002" class="edge">
<title>Node2&#45;&gt;Node1</title>
<g id="a_edge1_Node000001_Node000002"><a xlink:title=" ">
<path fill="none" stroke="#9a32cd" stroke-dasharray="5,2" d="M64.4,-56.9C68.76,-50.27 74.17,-42.92 80,-37 86.76,-30.13 95.48,-23.79 102.76,-19.04"/>
<polygon fill="#9a32cd" stroke="#9a32cd" points="61.15,-55.5 58.83,-65.83 67.09,-59.2 61.15,-55.5"/>
</a>
</g>
<text text-anchor="middle" x="119" y="-40" font-family="Helvetica,sans-Serif" font-size="10.00" fill="grey"> p_ext_io_mode</text>
</g>
<!-- Node3 -->
<g id="Node000003" class="node">
<title>Node3</title>
<g id="a_Node000003"><a xlink:href="struct_t_c_a6416_a__value__t.html" target="_top" xlink:title=" ">
<polygon fill="white" stroke="#666666" points="233.5,-85 126.5,-85 126.5,-66 233.5,-66 233.5,-85"/>
<text text-anchor="middle" x="180" y="-73" font-family="Helvetica,sans-Serif" font-size="10.00">TCA6416A_value_t</text>
</a>
</g>
</g>
<!-- Node3&#45;&gt;Node1 -->
<g id="edge2_Node000001_Node000003" class="edge">
<title>Node3&#45;&gt;Node1</title>
<g id="a_edge2_Node000001_Node000003"><a xlink:title=" ">
<path fill="none" stroke="#9a32cd" stroke-dasharray="5,2" d="M171.77,-56.69C168.15,-50.03 163.47,-42.71 158,-37 151.08,-29.78 141.83,-23.58 133.87,-19"/>
<polygon fill="#9a32cd" stroke="#9a32cd" points="168.67,-58.32 176.28,-65.7 174.93,-55.19 168.67,-58.32"/>
</a>
</g>
<text text-anchor="middle" x="204.5" y="-40" font-family="Helvetica,sans-Serif" font-size="10.00" fill="grey"> p_ext_io_value</text>
</g>
</g>
</svg>
